<svg version="1.1" xmlns="http://www.w3.org/2000/svg" xmlns:xlink="http://www.w3.org/1999/xlink" width="72.05033" height="79.20953" viewBox="0,0,72.05033,79.20953"><g transform="translate(-280.52128,-3.94428)"><g data-paper-data="{&quot;isPaintingLayer&quot;:true}" fill-rule="nonzero" stroke-linecap="butt" stroke-linejoin="miter" stroke-miterlimit="10" stroke-dasharray="" stroke-dashoffset="0" style="mix-blend-mode: normal"><path d="M295.43171,53.78577c-2.74804,-5.15265 -4.82948,-10.78746 -6.9286,-16.26615c-1.15369,-1.30028 -1.50273,-4.07138 -2.14121,-5.78732c-0.89873,-2.41537 -2.97422,-5.11523 -3.26067,-7.55969l-0.6035,-1.1528c0,0 -0.08799,-0.16443 -0.25781,-0.27079c-3.37518,-4.27082 1.06235,-8.43564 3.62494,-11.64548c0.71645,-0.94018 1.26997,-0.66564 2.1872,-1.50904c0.69825,-0.64205 1.49428,-1.2155 2.35859,-1.72595c3.35061,-1.97882 7.72748,-3.01105 11.41259,-3.42426c5.90566,-0.68577 10.51707,7.48327 12.63501,12.03332c1.71808,2.54666 2.46106,5.98244 3.61439,8.78068c0.76933,1.86656 2.11331,3.53556 2.3869,5.64388c2.18081,3.45984 2.89929,7.4162 4.11237,11.21694c0.68968,2.16088 1.89862,4.35576 2.70796,6.52807c0.36459,0.96098 0.80609,2.12735 1.09982,3.2435c-0.07794,0.183 -0.05768,0.36671 -0.05768,0.36671c0.0898,0.75533 0.05307,0.8998 0.39939,1.61084l0.01955,0.17552c0,0 0.00089,0.56842 0.61217,0.52831c0.04645,0.07481 0.11719,0.19796 0.04005,0.25899c-0.4245,0.3359 -2.16558,-0.15885 -2.6793,-0.18315c-2.35493,-0.11141 -4.74534,0.76032 -7.03567,1.00589c-3.10124,0.34774 -6.32606,0.77984 -8.96278,2.41941c-1.82007,1.13176 -3.2171,2.68051 -4.95196,3.91332c-1.26787,0.90097 -2.35502,1.49622 -3.17163,2.85049c-0.66666,0.83785 -2.09619,3.57611 -2.12126,3.58119c0,0 -3.80286,-10.79062 -5.03887,-14.63241z" data-paper-data="{&quot;noHover&quot;:false,&quot;origItem&quot;:[&quot;Path&quot;,{&quot;applyMatrix&quot;:true,&quot;segments&quot;:[[[346.63229,37.85079],[-0.03179,0],[0.75,0]],[347.38229,38.60079],[[347.38229,39.35092],[0,0],[-0.00277,0.41528]],[[347.34222,40.72548],[0.03035,-0.48656],[0.4905,-1.04055]],[[349.31624,37.85934],[-0.86508,0.86791],[1.10148,-1.43614]],[[353.28155,35.02104],[-1.55692,0.86303],[2.13036,-1.1809]],[[359.40179,31.202],[-2.2144,1.0551],[3.20797,-1.52851]],[[369.88617,29.59941],[-3.57156,0],[2.63623,0.01279]],[[378.00764,29.35906],[-2.66419,-0.42704],[0.58118,0.09315]],[[381.0297,29.91088],[-0.52564,0.3279],[0.09551,-0.05958]],[[381.08841,29.68139],[0.04329,0.09101],[-0.70036,-0.03234]],[380.38804,28.93251],[[380.38804,28.73054],[0,0],[-0.3032,-0.85287]],[[380.138,26.84883],[0.00581,0.87053],[0,0]],[[380.24998,26.43955],[-0.11198,0.1982],[-0.19172,-1.30691]],[[379.41027,22.61333],[0.29212,1.13947],[-0.64348,-2.5739]],[[377.15756,14.85217],[0.50883,2.54564],[-0.89499,-4.4775]],[[373.90702,1.60024],[2.03912,4.21319],[-0.0423,-2.4328]],[[371.91881,-5.10586],[0.63696,2.22105],[-0.95489,-3.32967]],[[368.94322,-15.53794],[1.62928,3.11557],[-1.82858,-5.44512]],[[356.13388,-30.82758],[6.80428,-0.02681],[-5.33873,0]],[[339.8373,-26.73158],[4.27208,-3.12685],[-1.15077,0.84228]],[[337.16095,-25.29628],[0.93476,-0.97795],[-3.32392,3.32392]],[[331.56725,-12.52686],[-3.29411,-5.28788],[0.17958,0.14261]],[331.82606,-12.18617],[[332.36626,-10.79925],[0,0],[0.01405,2.81673]],[[335.11672,-1.79776],[-0.71414,-2.86175],[0.50734,2.03306]],[[336.81643,5.04183],[-1.14633,-1.62601],[1.68874,6.49892]],[[342.60041,24.38475],[-2.46837,-6.21085],[0.91583,4.52711]],[[346.54089,37.85472],[-1.00465,-4.55624],[0.02916,-0.00258]]],&quot;closed&quot;:true}]}" fill="#d42f37" stroke="#000000" stroke-width="1"/><path d="M312.04344,68.38849c0.02258,0.04561 0.04103,0.0898 0.05574,0.13258c0.78828,-0.28526 1.59688,-0.58943 2.42462,-0.95173c3.76382,-1.64745 6.4168,-3.32812 10.7104,-3.77811c5.31189,-0.55672 10.15967,0.29685 15.39513,1.34032c2.06456,0.41148 3.78061,1.89271 5.87216,1.73344c3.54485,2.44723 8.58192,9.32176 4.62099,13.21468c-2.06606,2.03059 -6.67312,2.0939 -9.48496,2.93306c-8.27595,0.90209 -15.61403,-2.84292 -23.96594,-2.17589c-0.76314,-0.36803 -1.71394,-0.15124 -2.55311,-0.32156c-0.98501,-0.19992 -2.39197,-1.08227 -3.39919,-1.43313c-2.30208,-0.80193 -5.44365,-0.69502 -7.78146,-1.16951c-0.26009,-0.05278 -1.7416,-0.29772 -2.19727,-1.10201c-0.72988,-1.2883 -0.42761,-3.36154 -0.29988,-3.48484c0.66927,-0.77269 2.32395,-0.05173 3.10442,-0.74466c0.57662,-0.58946 1.1739,-1.07814 1.79092,-1.49622c1.14837,-0.91313 2.33446,-1.79083 3.47993,-2.67997l0.99595,-0.43923c0,0 0.84194,-0.36417 1.23156,0.42279z" data-paper-data="{&quot;index&quot;:null}" fill="#14130d" stroke="none" stroke-width="0.5"/><path d="M304.21055,61.67399c1.46976,-1.17125 2.58496,-2.86979 4.1406,-3.94192c3.47766,-2.39675 6.68368,-3.74684 10.88872,-4.21835c2.22988,-0.25003 4.21639,-0.37025 6.40081,-0.27481c0.37376,0.01633 3.09048,-0.51231 3.37827,-0.25779c1.20443,1.06521 0.89231,2.17246 1.53292,3.49367c0.02182,0.22809 0.26574,1.57764 0.30986,1.78961c0.23969,1.15147 0.84643,2.27176 0.8386,3.44665c-0.00125,0.18766 0.62225,0.71706 0.64345,0.90137c0.04373,0.38029 -0.33631,1.99069 -0.19361,2.49085c-0.43434,-0.02156 -1.59737,-0.20067 -1.6693,-0.21487c-2.04921,-0.40473 -2.99178,0.39178 -5.15091,0.63388c-6.29097,0.7054 -12.68639,2.48871 -18.04115,5.79611c-1.17659,0.54709 -2.53307,2.73857 -3.92261,3.1038c-0.53918,0.14172 -1.06909,-1.11346 -1.61667,-1.17236c-0.27374,-0.02945 -0.00399,-0.52316 -0.03137,-0.78207c-0.01381,-0.13054 -0.1993,-1.77297 -0.21806,-1.8441c-0.28711,-1.08853 -0.5374,-2.19953 -1.00538,-3.25182c0.16014,-2.10884 2.44611,-4.1886 3.71581,-5.69782z" data-paper-data="{&quot;noHover&quot;:false,&quot;origItem&quot;:[&quot;Path&quot;,{&quot;applyMatrix&quot;:true,&quot;segments&quot;:[[[348.18908,44.66636],[0.42532,-2.37808],[0.37532,1.25651]],[[348.87286,48.48232],[-0.177,-1.27466],[0.01157,0.08329]],[[348.88254,50.60279],[0.00089,-0.15023],[-0.00177,0.29797]],[[348.82112,51.49461],[-0.29002,-0.0684],[2.07522,0.48945]],[[355.34678,47.65951],[-1.84272,0.65541],[6.14022,-3.07879]],[[373.88683,43.85179],[-6.83134,0],[2.34459,0]],[[380.10517,44.6341],[-2.14894,-0.72166],[0.07542,0.02533]],[[381.2506,44.71679],[-0.46321,-0.07991],[-0.0929,-0.58705]],[[381.13817,42.8515],[0.00117,0.43811],[-0.0048,-1.78642]],[[380.39773,37.72076],[-0.02943,1.91401],[-0.52813,-1.58438]],[[379.35751,31.87991],[1.16356,1.36513],[-0.27803,-0.32618]],[[376.7672,31.83986],[0.39886,0.06624],[-2.33112,-0.38713]],[[369.88617,31.34946],[2.42142,0],[-4.56624,0]],[[357.76053,34.74872],[4.01769,-2.28245],[-1.79721,1.02099]],[[352.85874,38.68071],[1.71704,-1.14469],[-1.54313,1.55459]]],&quot;closed&quot;:true}]}" fill="#ffc241" stroke="none" stroke-width="0.5"/><path d="M301.35205,24.46469c0.15849,0.12373 0.31754,0.26136 0.47629,0.41292c0,0 0.43871,0.42075 0.01797,0.85946c-0.42074,0.43871 -0.85946,0.01797 -0.85946,0.01797c-0.40866,-0.39393 -1.43036,-1.54249 -2.04201,-1.15695c-0.72163,0.45486 -0.18616,3.65837 0.01554,4.24618c0.34823,1.01486 1.66065,2.4231 2.42709,3.17323c0.16466,0.08358 0.32934,0.16716 0.494,0.25074l0.56112,0.29263c0.16679,0.08469 0.29237,0.24498 0.32502,0.44372c0.05442,0.33128 -0.17002,0.64393 -0.50131,0.69834c-0.03749,0.00616 -0.07474,0.00875 -0.1114,0.00801l-0.76704,-0.0018l0.00052,-0.22027c-0.70144,0.13208 -1.42509,0.29467 -1.50521,0.42507c-0.66995,1.09029 0.35868,1.88329 1.00767,2.54912c1.92986,1.97993 3.91051,3.99389 5.3617,6.424c0.38732,0.3442 0.75072,0.7171 1.0865,1.11176l0.47613,0.56161c0.0725,0.08257 0.12351,0.18578 0.14263,0.30218c0.05442,0.33128 -0.17002,0.64394 -0.50131,0.69835c-0.08356,0.01372 -0.16593,0.00971 -0.24328,-0.00929l-0.65948,-0.14589l0.02515,-0.11376c-0.27955,-0.02887 -0.55305,-0.08695 -0.81168,-0.18988c-0.10122,-0.04028 -1.39823,-0.55753 -1.48241,-0.42313c-0.19272,0.30766 -0.02741,1.15731 -0.00526,1.49697c0.19615,3.00624 2.93032,3.46608 3.90572,5.9678c1.81145,-4.45241 4.99,-4.13146 9.11892,-3.70278c1.44847,0.15038 3.43214,0.02304 4.62781,0.9787c-0.53184,-0.5802 -0.64548,-2.06464 -0.90837,-2.84062c-0.76256,-2.25083 -1.34678,-4.5185 -2.14801,-6.77086c-0.20854,-0.58626 -0.91592,-3.35252 -1.50459,-3.41356c-1.3738,1.95495 -2.02576,0.12403 -2.27821,-1.39384c-0.38969,-2.34298 -0.82356,-4.78234 -1.15175,-7.07253c-0.03372,-0.23537 -0.41435,0.23681 -0.60141,0.38358c-0.28962,0.22723 -0.5295,0.51391 -0.81794,0.74223l-0.11217,0.50704c-0.04765,0.24179 -0.24058,0.44006 -0.49805,0.48235c-0.33128,0.05442 -0.64394,-0.17002 -0.69835,-0.50131l-0.1452,-0.88404l0.16958,-0.02786c-0.48352,-1.7046 -0.42425,-3.44205 -1.0173,-5.1816c-0.1209,-0.35461 -1.69469,-2.94593 -2.3436,-2.27554c-0.62157,0.64213 -0.58869,2.02265 -0.6198,2.83934l0.09636,0.58665c0.05442,0.33128 -0.17002,0.64394 -0.50131,0.69835c-0.30107,0.04945 -0.58677,-0.13142 -0.67721,-0.41349l-0.24754,-0.72755l0.15029,-0.05113l-0.03439,-0.00017c0.00066,-0.02156 0.0013,-0.04297 0.0019,-0.06425c-0.95868,-1.72889 -1.37187,-3.70885 -2.91862,-5.1013c-0.26907,-0.24223 -1.73669,-2.89339 -2.76619,-4.33389c-0.42236,-0.59097 -0.98105,-0.94367 -1.02302,-0.8969c-0.52688,0.58721 1.15692,6.88436 0.98325,7.62251c0.15954,0.87874 0.16426,1.77374 0.64238,2.53231l0.12822,0.03154c0,0 0.31549,0.22646 0.2611,0.56954zM299.54247,23.64458c-0.24688,-0.74616 -0.31321,-1.5271 -0.43738,-2.34662c0.22544,-1.07637 -1.22249,-6.99867 -0.3901,-7.84552c1.24904,-1.27075 2.2286,0.4369 3.7201,2.54373c1.42537,2.01342 3.384,4.38062 3.7197,5.31661c0.05335,0.14874 0.12465,0.30898 0.20248,0.47559c0.00869,-0.02339 0.01766,-0.04694 0.0269,-0.07064c0.83936,-2.15387 2.75544,-2.14811 4.14386,-0.2605c0.97166,1.32102 1.06856,2.9187 1.32469,4.47808c0.08792,0.5353 0.31737,1.19049 0.35599,1.77634c0.73066,-0.68626 1.65196,-1.3549 2.53518,-0.69627c0.89132,0.66466 0.95501,4.17462 1.13371,5.26261c0.03764,0.22919 0.43393,2.61547 0.51717,3.57708c0.14342,-0.21167 0.37867,-0.45403 0.51873,-0.58668c2.11107,0.04866 2.13476,1.72307 2.842,3.35763c1.39722,3.2292 3.5513,8.24817 2.92494,11.75178c-3.36885,-0.27898 -8.52688,-2.3234 -11.68179,-0.51967c-1.39827,0.79942 -1.37592,2.69814 -2.94754,3.49401c-0.787,-0.58711 -1.22568,-1.7199 -1.92369,-2.17616c-2.0305,-1.32723 -3.26604,-3.07161 -3.16581,-5.60914c0.00988,-0.25014 0.36607,-1.65981 0.4875,-1.77067c0.32494,-0.29666 1.09349,-0.34612 1.81672,-0.21523c-1.37362,-2.21914 -3.16591,-3.81544 -4.79224,-5.73216c-0.7318,-0.86246 -1.84554,-1.52657 -1.96687,-2.76574c-0.08815,-0.90033 0.7729,-2.15795 1.63475,-2.61228c-1.48784,-1.56048 -2.60457,-3.45705 -2.73142,-5.65056c-0.12924,-2.23478 0.82283,-3.3054 2.13245,-3.17555z" fill="#b1872c" stroke="none" stroke-width="0.5"/><path d="M301.32037,24.33707c0.05439,-0.34307 -0.19831,-0.50878 -0.19831,-0.50878l-0.19062,-0.0927c-0.47812,-0.75857 -0.47999,-1.65624 -0.63953,-2.53498c0.17368,-0.73816 -1.50329,-7.04012 -0.97641,-7.62733c0.04197,-0.04677 0.60148,0.30548 1.02384,0.89645c1.0295,1.44051 2.49805,4.09118 2.76712,4.33341c1.54675,1.39245 1.96107,3.37186 2.91975,5.10074c-0.00061,0.02128 -0.00137,0.04275 -0.00203,0.06431l0.07193,0.07907l-0.14965,0.05083l0.20843,0.64942c0.09044,0.28208 0.3781,0.46201 0.67917,0.41255c0.33128,-0.05441 0.55915,-0.36842 0.50473,-0.6997l-0.09591,-0.5868c0.0311,-0.81669 0.00349,-2.19861 0.62506,-2.84075c0.64892,-0.67039 2.23121,1.92006 2.35211,2.27467c0.59305,1.73955 0.54369,3.4781 1.0272,5.1827l-0.17115,0.02753l0.14893,0.88492c0.05441,0.33128 0.37693,0.55988 0.70822,0.50546c0.25747,-0.04229 0.40507,-0.1659 0.45272,-0.40768l0.1578,-0.58153c0.28844,-0.22832 0.53053,-0.51362 0.82015,-0.74085c0.18706,-0.14677 0.56934,-0.61779 0.60306,-0.38242c0.3282,2.29018 0.77628,4.78194 1.16596,7.12492c0.25245,1.51788 0.90353,3.35071 2.27733,1.39576c0.58867,0.06104 1.29092,2.83541 1.49946,3.42166c0.80123,2.25236 1.37836,4.52708 2.14092,6.77791c0.2629,0.77598 0.37472,2.26178 0.90656,2.84197c-1.19567,-0.95566 -3.18651,-0.8242 -4.63498,-0.97458c-4.12891,-0.42867 -7.33021,-0.74597 -9.14166,3.70645c-0.97539,-2.50172 -3.72285,-2.96517 -3.919,-5.97141c-0.02215,-0.33966 -0.14971,-1.26808 0.04301,-1.57574c0.08419,-0.1344 1.37652,0.38081 1.47773,0.42109c0.25863,0.10294 0.52947,0.16013 0.80902,0.189l-0.02518,0.11375l0.6573,0.1453c0.07734,0.019 0.15892,0.02283 0.24249,0.00911c0.33128,-0.05441 0.53802,-0.28151 0.4836,-0.61279c-0.01912,-0.1164 -0.07084,-0.21976 -0.14334,-0.30232l-0.47829,-0.56212c-0.33578,-0.39466 -0.70434,-0.76926 -1.09166,-1.11347c-1.45119,-2.43012 -3.45642,-4.46916 -5.38628,-6.44909c-0.64899,-0.66583 -1.68025,-1.47012 -1.0103,-2.56041c0.08012,-0.1304 0.80366,-0.29437 1.5051,-0.42645l0.0866,0.21364l0.76701,0.00143c0.03666,0.00074 -0.01305,0.00661 0.02444,0.00045c0.33128,-0.05441 0.55552,-0.37083 0.5011,-0.70211c-0.03264,-0.19874 -0.15819,-0.36153 -0.32497,-0.44622l-0.56104,-0.29401c-0.16466,-0.08358 -0.32925,-0.16819 -0.49391,-0.25177c-0.76643,-0.75013 -2.07649,-2.16878 -2.42472,-3.18364c-0.2017,-0.58781 -0.73126,-3.80237 -0.00964,-4.25723c0.61165,-0.38554 1.63398,0.76219 2.04263,1.15612c0,0 0.44006,0.41909 0.86081,-0.01962c0.42074,-0.43871 -0.01636,-0.86125 -0.01636,-0.86125c-0.15874,-0.15155 -0.25453,-0.22892 -0.41302,-0.35265z" data-paper-data="{&quot;noHover&quot;:false,&quot;origItem&quot;:[&quot;Path&quot;,{&quot;applyMatrix&quot;:true,&quot;segments&quot;:[[[596.79634,39.85154],[0,0],[0.36278,0.28322]],[[597.88654,40.79669],[-0.36336,-0.3469],[0,0]],[[597.92767,42.76397],[0.96307,-1.0042],[-0.96307,1.0042]],[[595.9604,42.8051],[0,0],[-0.9354,-0.90169]],[[591.28632,40.15689],[1.40004,-0.88249],[-1.65178,1.04116]],[[591.32189,49.87625],[-0.46169,-1.34547],[0.79708,2.32297]],[[596.87741,57.13967],[-1.75434,-1.71702],[0.37691,0.19131]],[[598.00817,57.71361],[-0.37691,-0.19132],[0,0]],[[599.29256,58.38342],[0,0],[0.38177,0.19386]],[[600.03651,59.39909],[-0.07472,-0.45491],[0.12456,0.75829]],[[598.88904,60.99757],[0.75829,-0.12454],[-0.08581,0.01409]],[[598.63404,61.0159],[0.08392,0.00169],[0,0]],[596.87831,61.01178],[[596.8795,60.50759],[0,0],[-1.60558,0.30232]],[[593.43412,61.48057],[0.18339,-0.29848],[-1.5335,2.49564]],[[595.74065,67.31542],[-1.48552,-1.52407],[4.41738,4.532]],[[608.0134,82.01974],[-3.32172,-5.56245],[0.88657,0.78787]],[[610.50035,84.56451],[-0.76858,-0.90336],[0,0]],[[611.59019,85.85001],[0,0],[0.16595,0.18899]],[[611.91666,86.54169],[-0.04377,-0.26644],[0.12456,0.75829]],[[610.76919,88.14018],[0.75829,-0.12454],[-0.19127,0.03141]],[[610.21234,88.11891],[0.17704,0.04349],[0,0]],[608.70281,87.78497],[[608.76038,87.52458],[0,0],[-0.63989,-0.06609]],[[606.90247,87.08994],[0.592,0.23562],[-0.23168,-0.09221]],[[603.50928,86.1214],[0.1927,-0.30763],[-0.44112,0.70422]],[[603.49724,89.54791],[-0.05071,-0.77746],[0.44897,6.88118]],[[612.43729,103.20799],[-2.23264,-5.72634],[4.14635,-10.19142]],[[633.31017,94.73245],[-9.45094,-0.98122],[3.3155,0.34422]],[[643.90306,96.97267],[-2.73684,-2.18748],[-1.21737,-1.32805]],[[641.82383,90.47058],[0.60176,1.77619],[-1.74548,-5.15207]],[[636.90711,74.97231],[1.83399,5.15557],[-0.47735,-1.34192]],[[633.46315,67.1588],[1.34744,0.13972],[-3.14458,4.47481]],[[628.24841,63.96834],[0.57785,3.47437],[-0.89198,-5.36301]],[[625.61209,47.77957],[0.75123,5.24215],[-0.07719,-0.53875]],[[624.23548,48.65758],[0.42818,-0.33596],[-0.66292,0.52012]],[[622.36325,50.35652],[0.66023,-0.52262],[0,0]],[[622.1065,51.51711],[0,0],[-0.10906,0.55344]],[[620.96648,52.62119],[0.58933,-0.09679],[-0.75829,0.12456]],[[619.36799,51.47372],[0.12454,0.75829],[0,0]],[619.03563,49.45018],[[619.4238,49.38642],[0,0],[-1.10675,-3.90176]],[[617.09524,37.52592],[1.35746,3.98177],[-0.27673,-0.81169]],[[611.73081,32.31728],[1.48535,-1.53449],[-1.42276,1.46982]],[[610.31212,38.81642],[0.07119,-1.86937],[0,0]],[[610.53268,40.15924],[0,0],[0.12456,0.75829]],[[609.38521,41.75773],[0.75829,-0.12454],[-0.68915,0.1132]],[[607.83511,40.81126],[0.20701,0.64566],[0,0]],[607.2685,39.14593],[607.6125,39.02889],[[607.53378,39.02849],[0,0],[0.00151,-0.04934]],[[607.53814,38.88143],[-0.00139,0.0487],[-2.19438,-3.95736]],[[600.85752,27.20473],[3.54045,3.18727],[-0.6159,-0.55446]],[[594.5258,17.2846],[2.3565,3.29727],[-0.96676,-1.35271]],[[592.18415,15.23162],[0.09606,-0.10705],[-1.20602,1.34411]],[[594.43477,32.67929],[0.39754,-1.68962],[0.36518,2.0114]],[[595.90516,38.47565],[-1.0944,-1.73634],[0,0]],[596.19864,38.54784],[[596.7963,39.85149],[0.12449,-0.78528],[0,0]]],&quot;closed&quot;:true,&quot;fillColor&quot;:[0,0,0,1],&quot;strokeWidth&quot;:0.5}]}" fill="#ffc241" stroke="none" stroke-width="0.25"/><path d="M301.06399,67.62932c0.46798,1.05229 0.71412,2.15432 1.00123,3.24285c0.01876,0.07112 0.20158,1.7097 0.21537,1.84024c0.02737,0.25891 -0.24347,0.75127 0.03027,0.78072c1.95872,0.21071 4.00293,-3.24452 5.63608,-4.00391c5.35476,-3.3074 10.4118,-4.51534 16.70277,-5.22075c2.15912,-0.2421 3.75341,-0.36755 5.80263,0.03719c0.07192,0.01421 0.62852,-0.06804 1.06287,-0.04648c-0.14271,-0.50015 -0.24142,-1.22775 -0.28516,-1.60805c-0.17835,-1.55068 -1.02216,-2.71364 -1.18142,-4.37864c-0.64061,-1.32121 -0.32219,-3.89907 -1.52662,-4.96429c-0.2878,-0.25452 -2.01556,0.24903 -2.38931,0.2327c-2.18442,-0.09544 -4.15459,0.03468 -6.38448,0.28471c-4.20504,0.47151 -7.35787,1.80698 -10.83552,4.20373c-1.55564,1.07212 -2.66145,2.74911 -4.13121,3.92037c-1.26971,1.50921 -3.55736,3.57078 -3.7175,5.67962zM299.73006,67.28431c0.36914,-2.36883 2.56041,-4.48279 4.06272,-6.24366c1.53099,-1.22004 2.68223,-2.93444 4.30027,-4.06009c3.63618,-2.52964 7.08798,-3.96169 11.50912,-4.45743c2.30059,-0.25797 4.34576,-0.39449 6.60764,-0.29271c1.01576,0.04571 2.24121,-0.63028 3.18568,0.04726c1.59904,1.14708 1.24931,4.09894 1.99326,5.63328c0.24684,1.98905 0.87168,3.6435 1.33028,5.59186c0.13236,0.56232 0.86666,1.52683 0.18719,2.13346c-0.48953,0.43705 -1.38548,-0.08396 -1.9319,-0.10711c-2.12518,-0.09004 -3.91251,-0.21231 -6.17857,0.04178c-6.1506,0.68967 -10.94686,1.84224 -16.18528,5.06232c-1.88906,0.77742 -4.41032,5.30812 -6.98883,4.00706c-0.64464,-0.32526 -0.65629,-1.21126 -0.7224,-1.77302c-0.12774,-1.08541 -1.3656,-5.32538 -1.16918,-5.58301z" fill="#b1872c" stroke="none" stroke-width="0.5"/></g></g></svg>