<svg version="1.1" xmlns="http://www.w3.org/2000/svg" xmlns:xlink="http://www.w3.org/1999/xlink" width="134.12212" height="82.60542" viewBox="0,0,134.12212,82.60542"><g transform="translate(-257.86811,-73.72828)"><g data-paper-data="{&quot;isPaintingLayer&quot;:true}" fill-rule="nonzero" stroke-linecap="butt" stroke-linejoin="miter" stroke-miterlimit="10" stroke-dasharray="" stroke-dashoffset="0" style="mix-blend-mode: normal"><path d="" fill="#fffc51" stroke="none" stroke-width="0.5"/><g><path d="M273.68465,82.73004c3.36621,0.84156 3.07773,7.07841 0.37844,8.76454c-0.69894,-0.02615 -2.1253,0.06029 -2.67639,-0.43671c-2.08975,-1.88466 -0.31158,-7.75377 2.29285,-8.32784c0,0 0.00115,-0.00027 0.00323,-0.00085z" data-paper-data="{&quot;noHover&quot;:false,&quot;origItem&quot;:[&quot;Path&quot;,{&quot;applyMatrix&quot;:true,&quot;segments&quot;:[[[550.94398,168.94384],[0,0],[-0.004,0.00112]],[[550.93786,168.94548],[0,0],[-4.99722,1.10148]],[[546.59068,184.73494],[-4.0097,-3.61618],[1.0574,0.95362]],[[551.66524,185.56418],[-1.34108,-0.05018],[5.17926,-3.23526]],[[550.94754,168.94548],[6.4589,1.61474],[0,0]]],&quot;closed&quot;:true,&quot;fillColor&quot;:[0,0,0,1]}]}" fill="#a8be04" stroke="none" stroke-width="0.5"/><path d="M270.8766,99.28229l3.60901,-6.8214l21.36439,-2.16037c0,0 -1.16563,1.64398 -2.10274,2.32187c-1.2763,0.92324 -4.85691,2.71253 -4.85691,2.71253c0,0 -5.92113,3.31032 -9.19305,3.91834c-2.69413,0.50064 -8.82068,0.02905 -8.82068,0.02905z" fill="#fffd4d" stroke="#fffd4d" stroke-width="0.5"/><path d="M280.38804,149.15506c-0.15718,-1.76389 -10.43112,1.5713 -10.58133,-0.25857c-0.19294,-2.35034 -3.98465,-11.25256 -4.1337,-13.66323c-0.06368,-1.03004 7.19582,7.05989 7.14616,6.02854c-0.59534,-12.36354 -5.47647,-19.49239 -8.44411,-25.1463c-0.94815,-1.8064 -1.29983,-3.74965 -1.7755,-5.29134c-0.82569,-2.67616 1.55022,-9.98498 1.48352,-10.09541c-0.44982,-0.7448 0.08709,-1.98777 -0.11174,-2.73984c-0.59866,-2.26442 -1.22981,-3.88242 -2.33886,-4.54653c-2.1116,-1.26443 -2.79559,-2.82113 -2.79559,-5.07051c0,-1.75264 0.21713,-4.66983 1.5815,-5.88937c1.61183,-1.44071 5.40619,-1.97633 8.03695,-1.97633c1.12335,0 2.78801,0.73041 8.23266,2.96676c0.33527,0.1377 2.05692,-0.07293 3.82515,-0.2909c1.87621,-0.23128 7.97461,-3.95587 8.35519,-3.7962c0.8278,0.34729 5.02309,-1.45608 5.88136,-1.0736c1.14286,0.50929 4.3371,0.61741 5.65707,1.07337c1.70304,0.58827 3.5257,2.44357 5.43522,2.95608c1.28577,0.34509 14.14336,-3.99894 15.4979,-3.69471c4.62102,1.03787 6.43879,1.64842 10.41982,2.68328c2.05137,0.53326 11.23748,-3.14176 13.1927,-2.61631c2.66397,0.71593 5.71265,0.95621 11.59721,1.73752c1.9414,0.25777 6.60554,-1.76777 8.7958,-1.42551c1.57006,0.24535 7.12285,0.72251 8.67234,1.64086c0.12837,0.07608 2.55534,-0.5696 3.49472,-1.25404c1.11872,-0.81512 5.75007,-1.12506 7.18675,-0.8964c1.78201,0.28361 0.78026,3.78516 1.49204,5.38815c1.22295,2.75418 1.71785,8.14083 0.62145,11.26062c-0.4973,1.41507 -0.30482,2.36378 -0.28509,2.38894c0.34819,0.44395 -0.25567,0.50935 -1.50184,0.3147c-1.11093,-0.17354 2.30688,-0.46422 1.60672,4.08038c-0.19677,1.27721 0.49269,3.82652 -0.07791,5.63046c-1.06737,3.37448 -3.61288,6.47387 -3.98641,10.18095c-0.44943,4.46028 -1.54994,10.63285 -1.15389,15.48349c0.29216,3.57821 -1.54492,3.59129 -1.71914,7.33763c-0.09547,2.05279 -1.13362,3.78861 -1.25548,5.81779c-0.09846,1.6396 -0.36894,0.71479 -0.47223,2.33266c0,0 -23.05718,-1.93414 -47.4397,-1.17124c-3.42288,0.1071 -7.55977,-2.4692 -10.75198,-2.34137c-23.51125,0.94152 -39.29662,4.95799 -39.38773,3.93552z" fill="#fffd4d" stroke="none" stroke-width="NaN"/><path d="M263.79533,151.31588l-5.39089,-76.41449l133.05438,-0.67043c0,0 -0.98948,16.31315 -3.04407,38.75065c-0.74604,8.1474 -3.51423,22.62757 -3.26458,30.17275c0.07895,2.3858 1.11366,5.5976 -1.32089,5.80606c-5.87805,0.50329 -17.74209,5.04587 -27.21222,4.86626c-4.0495,-0.0768 -32.42239,-7.28566 -36.23029,-7.18918c-2.89393,0.07332 -7.90795,3.40423 -13.56062,5.63225c-4.60804,1.81627 -12.20442,2.82837 -13.76927,2.82837c-7.70246,0 -16.18804,-3.11568 -22.39347,-4.07013c-5.34799,-0.82258 -6.86807,0.2879 -6.86807,0.2879z" fill="#3d96ca" stroke="#165086" stroke-width="1"/><path d="M320.11143,147.0473c0.00681,-0.42104 0.01248,-0.83908 0.01716,-1.25398c0.1642,-14.55158 -0.8843,-25.22916 3.75801,-25.22916c0.77688,0 1.71668,-0.4326 2.2219,0.30522c2.68201,3.91667 1.69958,14.14429 1.69958,27.32158c0,0 -0.55092,-0.35784 -0.93579,-0.1099c-0.43315,0.27904 -0.21602,2.00575 -0.85656,2.44285c-0.99885,0.68161 -2.94717,0.04515 -3.95756,-0.12005c-0.68702,-0.11233 -1.34647,-1.9146 -1.65848,-2.78759c-0.08278,-0.23162 -0.28865,-0.54537 -0.28827,-0.56896z" fill="#ffa9cc" stroke="none" stroke-width="0"/><path d="M327.03385,138.34657c-0.53908,-5.32164 0.18453,-11.41655 -0.83529,-16.74006c-4.22274,-3.68473 -5.28502,2.75146 -5.45392,6.02313c0.16325,0.17205 0.13479,0.42823 0.13479,0.42823c-0.54657,4.89842 -0.15317,10.02704 -0.15317,14.95378c0,2.00877 0.13512,4.91539 -0.0745,5.66309c-0.12347,0.44037 -0.57384,-0.732 -0.6846,-0.95592c-0.2037,-0.41183 -0.28326,-2.53126 -0.28326,-4.70716c0,-4.74118 -0.3526,-9.65989 0.09057,-14.39283c-0.09058,-0.14346 -0.09057,-0.30576 -0.09057,-0.30576c0,-4.27139 2.54847,-11.47127 7.8711,-6.94959c0.22813,5.62397 -0.03422,11.32402 0.5199,16.93118c0.0024,2.41207 -0.09791,10.24207 -0.36051,10.2428c-0.04061,0.00011 -0.80534,-0.18769 -0.92021,-0.51884c-0.00735,-0.02118 -0.01203,-0.04294 -0.01371,-0.06528c-0.14282,-1.90982 0.25123,-7.61896 0.25337,-9.60677z" fill="#000000" stroke="none" stroke-width="0.5"/><path d="M305.64346,85.80121c-0.52117,0 -0.52117,-0.52117 -0.52117,-0.52117v-0.52124c0,-0.79099 -0.16693,-1.47106 -0.17374,-2.25867c0.02231,-3.60591 -5.90848,-2.98929 -7.3849,-0.75337c0,0 -0.2891,0.43364 -0.72274,0.14454c-0.43364,-0.2891 -0.14455,-0.72274 -0.14455,-0.72274c2.03669,-3.03041 9.27019,-3.40107 9.29455,1.33156c-0.00847,0.76937 0.17374,1.47311 0.17374,2.25868v0.52124c0,0 0,0.52117 -0.52117,0.52117z" fill="#000000" stroke="none" stroke-width="0.5"/><path d="M343.97272,86.60349c-0.52117,0 -0.52117,-0.52117 -0.52117,-0.52117l0.00709,-0.08806c-0.20404,-1.24813 -0.01123,-2.47914 -0.00035,-3.73071c1.3046,-3.99525 7.94551,-3.39792 10.21621,-0.58956c0,0 0.32558,0.40697 -0.08139,0.73255c-0.40697,0.32558 -0.73255,-0.0814 -0.73255,-0.0814c-1.6437,-2.08177 -7.32148,-2.94705 -8.37338,0.10538c0.01166,1.1355 -0.19343,2.25954 -0.00036,3.3924l0.00709,0.25941c0,0 0,0.52117 -0.52117,0.52117z" fill="#000000" stroke="none" stroke-width="0.5"/><path d="M323.3519,123.15147c0,17.3616 -13.21535,31.43596 -29.51733,31.43596c-16.30197,0 -29.51734,-14.07436 -29.51734,-31.43595c0,-17.3616 13.21537,-31.43595 29.51734,-31.43595c16.30197,0 29.51733,14.07436 29.51733,31.43596z" fill="#fbfdfa" stroke="#000000" stroke-width="1"/><path d="M382.24154,122.07175c0,17.3616 -13.21535,31.43596 -29.51733,31.43596c-16.30197,0 -29.51734,-14.07435 -29.51734,-31.43595c0,-17.3616 13.21537,-31.43595 29.51734,-31.43595c16.30197,0 29.51733,14.07436 29.51733,31.43596z" fill="#fbfdfa" stroke="#000000" stroke-width="1"/><path d="M318.53459,121.92477c0,13.97982 -11.20162,25.3127 -25.01951,25.3127c-13.81789,0 -25.01952,-11.33288 -25.01952,-25.3127c0,-13.97982 11.20163,-25.31271 25.01952,-25.31271c13.81789,0 25.01951,11.33289 25.01951,25.31271z" fill="#3da9e8" stroke="#000000" stroke-width="1"/><path d="M377.25239,121.30532c0,13.69578 -10.85156,24.79843 -24.23765,24.79843c-13.38609,0 -24.23765,-11.10264 -24.23765,-24.79843c0,-13.69579 10.85156,-24.79842 24.23765,-24.79842c13.38609,0 24.23765,11.10262 24.23765,24.79842z" fill="#3da9e8" stroke="#000000" stroke-width="1"/><path d="M310.16863,121.27974c0,9.06799 -7.17603,16.41905 -16.02812,16.41905c-8.85209,0 -16.02812,-7.35105 -16.02812,-16.41905c0,-9.06799 7.17603,-16.41905 16.02812,-16.41905c8.85209,0 16.02812,7.35106 16.02812,16.41905z" fill="#000000" stroke="#000000" stroke-width="1"/><path d="M369.66839,120.146c0,9.60775 -7.39482,17.39638 -16.51679,17.39638c-9.12196,0 -16.51679,-7.78862 -16.51679,-17.39638c0,-9.60775 7.39482,-17.39638 16.51679,-17.39638c9.12196,0 16.51679,7.78862 16.51679,17.39638z" fill="#000000" stroke="#000000" stroke-width="1"/><path d="M304.61754,114.41891c0,2.53688 -2.31908,4.59344 -5.17982,4.59344c-2.86074,0 -5.17982,-2.05656 -5.17982,-4.59344c0,-2.53688 2.31908,-4.59342 5.17982,-4.59342c2.86074,0 5.17982,2.05654 5.17982,4.59342z" fill="#ffffff" stroke="#000000" stroke-width="1"/><path d="M364.89907,113.61748c0,2.59085 -2.31909,4.69116 -5.17983,4.69116c-2.86074,0 -5.17982,-2.1003 -5.17982,-4.69116c0,-2.59085 2.31908,-4.69116 5.17982,-4.69116c2.86074,0 5.17983,2.1003 5.17983,4.69116z" fill="#ffffff" stroke="#000000" stroke-width="1"/><path d="M361.88731,153.09846c-0.001,0.0005 -0.002,0.001 -0.003,0.00149l-0.0015,0.22279c0.84282,3.25557 -4.18674,4.30301 -3.79184,0.96085c-0.041,-0.06539 -0.05861,-0.11823 -0.05861,-0.11823c-0.90136,-2.7931 1.34903,-3.142 3.59122,-2.41843l0.49681,0.65228c0,0 0.23308,0.46616 -0.23308,0.69923zM359.17936,153.51536c0,3.71744 2.50657,3.38131 1.66892,-0.06524l-0.00391,-0.70829c0,0 0,-0.06385 0.02235,-0.14686c-1.14549,-0.35429 -2.00402,-0.40516 -2.01168,0.4294c0.32432,0.11111 0.32433,0.491 0.32433,0.491z" fill="#6af2e7" stroke="none" stroke-width="0.5"/><path d="M359.17969,153.56745c0,0 -0.00203,-0.48409 -0.32635,-0.5952c0.00766,-0.83456 0.8744,-0.7833 2.01989,-0.42901c-0.02235,0.083 -0.02236,0.14686 -0.02236,0.14686l0.0043,0.70834c0.83765,3.44655 -1.67615,3.78223 -1.67615,0.06478z" data-paper-data="{&quot;noHover&quot;:false,&quot;origItem&quot;:[&quot;Path&quot;,{&quot;applyMatrix&quot;:true,&quot;segments&quot;:[[[357.49913,152.33234],[0,0],[0,3.56641]],[[351.99789,162.2156],[2.58932,-2.4709],[-0.2898,1.72374]],[[349.80623,166.83427],[0.52072,-1.60029],[-1.03391,3.17747]],[[351.82653,174.29792],[-2.54897,-2.05105],[4.00718,1.97911]],[[364.27226,173.79446],[-3.02391,3.79001],[2.39488,-3.06853]],[[363.92273,161.07974],[2.21608,3.02327],[-1.8745,-2.78859]],[[359.10024,152.26975],[0.80362,3.30652],[0,0]],[359.09649,151.59024],[[359.11793,151.44935],[-0.02144,0.07963],[-1.09895,-0.3399]],[[357.18798,151.8613],[0.00735,-0.80065],[0.31114,0.1066]],[357.49913,152.33235]],&quot;closed&quot;:true,&quot;fillColor&quot;:[0,0,0,1]}]}" fill="#b5f2ed" stroke="none" stroke-width="0.5"/><path d="M345.41798,149.00578c3.43154,0.06715 7.65538,-1.046 10.93516,-1.64373c4.39349,-0.62804 8.96178,-0.95222 13.3932,-0.89906c2.14178,0.81446 2.0434,3.14304 0.72934,4.64566c-2.21113,2.52842 -5.18832,3.88598 -8.45662,4.38898c-5.59163,1.01502 -10.74412,0.59882 -15.66782,-2.15762c-1.30946,-0.92071 -2.56197,-2.00554 -2.24475,-3.63429c-0.02828,-0.06916 -0.04276,-0.15406 -0.03474,-0.25824c0.03997,-0.51964 0.55962,-0.47967 0.55962,-0.47967c0.07604,0.00602 0.15257,0.01135 0.22957,0.016l0.00208,-0.00128c0,0 0.30679,-0.16734 0.55497,0.02325zM345.03214,150.03432l-0.03188,0.01321c-0.14409,0.98178 1.21152,1.92682 1.90603,2.41021c4.67262,2.64019 9.62639,2.97967 14.94027,2.0119c2.65085,-0.40768 5.41902,-1.39496 7.28202,-3.43804c0.70023,-0.76792 2.39082,-2.90916 0.4369,-3.54207c-4.34301,0.0718 -8.73413,0.28591 -13.04538,0.90141c-3.47086,0.62961 -7.91533,1.78348 -11.48797,1.64338z" fill="#6af2e7" stroke="none" stroke-width="0.5"/><path d="M356.49961,148.34302c4.31125,-0.61551 8.77256,-0.7974 13.11557,-0.86919c1.95391,0.63291 0.26574,2.78895 -0.43449,3.55687c-1.863,2.04309 -4.64235,3.06352 -7.2932,3.4712c-5.31389,0.96777 -10.36037,0.6019 -15.03299,-2.03828c-0.69451,-0.48339 -2.05024,-1.43913 -1.90614,-2.42091l0.03189,-0.01327c3.57264,0.1401 8.04851,-1.05682 11.51937,-1.68643z" data-paper-data="{&quot;noHover&quot;:false,&quot;origItem&quot;:[&quot;Path&quot;,{&quot;applyMatrix&quot;:true,&quot;segments&quot;:[[[343.92669,148.61766],[3.42749,0.13441],[0,0]],[[343.89611,148.63033],[0,0],[-0.13824,0.94189]],[[345.7247,150.94262],[-0.66629,-0.46375],[4.48278,2.53292]],[[360.05797,152.87278],[-5.09799,0.92845],[2.54315,-0.39112]],[[367.04413,149.57442],[-1.78731,1.96008],[0.67178,-0.73672]],[[367.46328,146.17626],[1.87453,0.6072],[-4.16656,0.06888]],[[354.94792,147.04105],[4.13609,-0.5905],[-3.32984,0.60403]]],&quot;closed&quot;:true,&quot;fillColor&quot;:[0,0,0,1]}]}" fill="#b5f2ed" stroke="none" stroke-width="0.5"/><path d="M266.63461,98.85134c0.16482,-0.49443 0.65923,-0.32962 0.65923,-0.32962l0.05857,0.04772c3.49906,0 7.00733,0.7162 10.51045,0.28549c4.95008,-0.99156 10.11248,-2.26578 14.22356,-5.33913c2.96656,-1.64999 6.62694,-5.39106 7.36942,-8.834c0,0 0.11306,-0.50876 0.62182,-0.39571c0.50876,0.11305 0.39571,0.62182 0.39571,0.62182c-0.84552,3.71347 -4.5789,7.68404 -7.81983,9.48244c-4.20675,3.16631 -9.55023,4.48025 -14.62518,5.4937c-3.56537,0.43283 -7.11735,-0.27227 -10.67595,-0.27227l-0.38818,-0.1012c0,0 -0.49444,-0.16481 -0.32962,-0.65923z" fill="#000000" stroke="none" stroke-width="0.5"/><path d="M382.73675,100.81302l-0.38818,0.1012c-3.5586,0 -7.11058,0.7051 -10.67595,0.27227c-5.07495,-1.01346 -10.41843,-2.32739 -14.62518,-5.4937c-3.24092,-1.7984 -6.97431,-5.76897 -7.81983,-9.48244c0,0 -0.11305,-0.50877 0.39571,-0.62182c0.50876,-0.11305 0.62182,0.39571 0.62182,0.39571c0.74248,3.44294 4.40286,7.18402 7.36942,8.834c4.11109,3.07336 9.27349,4.34758 14.22356,5.33913c3.50312,0.43071 7.01138,-0.28549 10.51045,-0.28549l0.05857,-0.04772c0,0 0.49442,-0.16481 0.65923,0.32962c0.16482,0.49443 -0.32962,0.65923 -0.32962,0.65923z" data-paper-data="{&quot;index&quot;:null}" fill="#000000" stroke="none" stroke-width="0.5"/><path d="M308.51985,77.84752l30.55899,-0.07216l-15.24342,14.69016z" fill="#b3c85a" stroke="#165086" stroke-width="1"/></g><path d="M380.32289,97.86932c-1.33813,3.29865 -9.07286,3.29779 -16.88923,0.127c-7.81637,-3.17079 -13.27704,-8.62433 -11.93891,-11.92299c1.33813,-3.29865 9.07286,-3.4023 16.88923,-0.23151c7.81637,3.17079 13.27704,8.72884 11.93891,12.0275z" fill="#3d96ca" stroke="#165086" stroke-width="0"/><path d="M281.48873,84.50087c7.81637,-3.17079 15.23756,-3.06714 16.57569,0.23151c1.33814,3.29865 -3.91351,8.96121 -11.72989,12.13201c-4.64739,1.88526 -9.3641,2.46517 -12.9546,2.14119c-2.18469,-0.19713 -3.07859,-1.45338 -3.6211,-2.79075c-1.33814,-3.29865 3.91352,-8.54317 11.7299,-11.71397z" data-paper-data="{&quot;index&quot;:null}" fill="#3d96ca" stroke="#165086" stroke-width="0"/></g></g></svg>