<svg version="1.1" xmlns="http://www.w3.org/2000/svg" xmlns:xlink="http://www.w3.org/1999/xlink" width="61.02668" height="59.28668" viewBox="0,0,61.02668,59.28668"><defs><linearGradient x1="318.06095" y1="183.28498" x2="376.89063" y2="183.28498" gradientUnits="userSpaceOnUse" id="color-1"><stop offset="0" stop-color="#3b0776"/><stop offset="1" stop-color="#210447"/></linearGradient></defs><g transform="translate(-318.06095,-154.73711)"><g data-paper-data="{&quot;isPaintingLayer&quot;:true}" fill-rule="nonzero" stroke-linejoin="miter" stroke-miterlimit="10" stroke-dasharray="" stroke-dashoffset="0" style="mix-blend-mode: normal"><g><path d="M341.38432,200.54115l-0.09523,-31.70941l25.20442,16.4748z" fill="#ffffff" stroke="#8900ff" stroke-width="2" stroke-linecap="round"/><path d="M379.08762,185.3238c0,15.85056 -13.23964,28.69999 -29.57158,28.69999c-16.33193,0 -29.57157,-12.84943 -29.57157,-28.69999c0,-15.85056 13.23964,-28.69999 29.57158,-28.69999c16.33193,0 29.57158,12.84942 29.57158,28.69999z" fill="#16032b" stroke="#a89f00" stroke-width="0" stroke-linecap="butt"/><path d="M376.89063,183.28498c0,15.76655 -13.16947,28.54786 -29.41483,28.54786c-16.24536,0 -29.41484,-12.78129 -29.41484,-28.54785c0,-15.76655 13.16947,-28.54786 29.41484,-28.54786c16.24536,0 29.41483,12.78131 29.41483,28.54787z" fill="url(#color-1)" stroke="#c5bb00" stroke-width="0" stroke-linecap="butt"/><g fill="#ababab" stroke-width="0"><path d="M360.43579,181.46689c0,6.30348 -7.28171,11.41348 -16.26419,11.41348c-8.98246,0 -16.2642,-5.10998 -16.2642,-11.41348c0,-6.30348 7.28173,-11.41347 16.2642,-11.41347c8.98246,0 16.26419,5.10998 16.26419,11.41347z" stroke="none" stroke-linecap="butt"/><path d="M342.79186,188.66657l14.83249,-12.91266l2.77448,20.52296z" data-paper-data="{&quot;index&quot;:null}" stroke="#6400bb" stroke-linecap="round"/></g></g></g></g></svg>