<svg version="1.1" xmlns="http://www.w3.org/2000/svg" xmlns:xlink="http://www.w3.org/1999/xlink" width="128.34516" height="35.07484" viewBox="0,0,128.34516,35.07484"><g transform="translate(-259.32472,-258.584)"><g data-paper-data="{&quot;isPaintingLayer&quot;:true}" fill-rule="nonzero" stroke-linejoin="miter" stroke-miterlimit="10" stroke-dasharray="" stroke-dashoffset="0" style="mix-blend-mode: normal"><path d="M387.66988,280.40682c0,7.31888 -28.73103,13.25202 -64.17258,13.25202c-35.44155,0 -64.17258,-5.93313 -64.17258,-13.25202c0,-7.31888 28.73104,-13.25202 64.17258,-13.25202c35.44155,0 64.17258,5.93313 64.17258,13.25202z" fill-opacity="0.59608" fill="#000000" stroke="none" stroke-width="0" stroke-linecap="butt"/><path d="" fill="#000000" stroke="none" stroke-width="0.5" stroke-linecap="butt"/><path d="" fill="#66f4ff" stroke="none" stroke-width="0.5" stroke-linecap="butt"/><path d="" data-paper-data="{&quot;index&quot;:null}" fill="#66f4ff" stroke="none" stroke-width="0.5" stroke-linecap="butt"/><path d="" fill="#66f4ff" stroke="none" stroke-width="0.5" stroke-linecap="butt"/><path d="" fill="#66f4ff" stroke="none" stroke-width="0.5" stroke-linecap="butt"/><path d="M353.7614,264.56116l-1.33345,1.29507l-1.93352,0.67836l-1.40011,-0.30834l-1.13344,-1.11005" data-paper-data="{&quot;index&quot;:null}" fill="none" stroke="#000000" stroke-width="0.5" stroke-linecap="round"/><path d="M355.83395,266.05156c0,0 0.45641,0.3878 0.75398,0.39566c0.45585,0.01204 1.16417,-0.34179 1.51981,-0.26413c0.41221,0.09 0.46289,0.62986 0.88158,0.9282c0.24068,0.1715 1.21125,0.25865 1.89917,0.14029c0.39358,-0.06771 0.89279,-0.37394 1.21123,-0.32669c0.47012,0.06976 0.73901,0.55331 1.26367,0.805c0.41539,0.19927 6.41514,0.39091 8.24382,0.44496c0.17086,0.00504 3.09222,0.00336 4.56151,1.89485c0.58718,0.75591 2.17742,3.28143 2.35006,6.3598c0.10074,1.79608 0.10212,3.96384 -0.86889,4.88622c-0.73307,0.69636 -34.97765,-0.61491 -42.27267,-0.8589c-1.17551,-0.03932 -0.48461,-2.20244 -0.2692,-3.19977c0.2913,-1.34867 0.4724,-1.75943 1.11626,-3.10482c3.09023,-6.4571 10.39335,-15.18201 10.39335,-15.18201c0,0 1.77969,2.06589 3.38012,3.04072c0.89928,0.54777 4.87622,-0.55879 4.87622,-0.55879z" data-paper-data="{&quot;index&quot;:null}" fill="#000000" stroke="#000000" stroke-width="0.5" stroke-linecap="round"/><path d="M354.99488,270.78763c0,1.69077 -1.52721,3.06143 -3.41113,3.06143c-1.88391,0 -3.41113,-1.37064 -3.41113,-3.06143c0,-1.69077 1.52721,-3.06143 3.41113,-3.06143c1.88391,0 3.41113,1.37064 3.41113,3.06143z" data-paper-data="{&quot;index&quot;:null}" fill="#afaeb5" stroke="#cac9ce" stroke-width="0.5" stroke-linecap="butt"/><path d="M336.81388,280.94757c-0.75998,-0.0114 -2.17045,-0.35395 -2.17045,-0.35395c0,0 -0.20621,-0.76632 -0.20621,-1.36664c0,-0.67578 0.46395,-1.86866 0.46395,-1.86866l43.81207,1.09868c0,0 0.04477,1.58295 -0.17943,2.14421c-0.1804,0.45164 -0.76529,1.24199 -0.76529,1.24199c0,0 -36.74302,-0.83245 -40.95464,-0.89564z" data-paper-data="{&quot;index&quot;:null}" fill="#ffffff" stroke="#000000" stroke-width="0" stroke-linecap="butt"/><path d="M375.81443,269.01111c2.58725,1.84328 3.11399,6.01576 3.11399,8.49134c0,0.66881 -0.04388,2.5206 -0.27871,2.87884c-0.9115,1.39051 -3.55008,-0.58238 -6.7927,-0.58238c-3.59759,0 -6.85707,2.01172 -7.51318,-0.71517c-0.0876,-0.36414 0.12931,-4.81173 0.12931,-5.19634c0,-3.26483 3.30587,-5.91149 7.38388,-5.91149c0.98583,0 3.13256,0.4475 3.95741,1.03517z" data-paper-data="{&quot;index&quot;:null}" fill="#ffffff" stroke="none" stroke-width="0" stroke-linecap="butt"/><path d="M334.95615,277.35104l43.54405,1.20778" data-paper-data="{&quot;index&quot;:null}" fill="#a5a5a5" stroke="#a5a5a5" stroke-width="0.5" stroke-linecap="round"/><path d="M303.83392,265.61564l-1.13344,1.11005l-1.40011,0.30834l-1.93351,-0.67836l-1.33345,-1.29507" data-paper-data="{&quot;index&quot;:null}" fill="none" stroke="#000000" stroke-width="0.5" stroke-linecap="round"/><path d="M296.92085,261.95159c0,0 3.97693,1.10656 4.87622,0.55879c1.60043,-0.97483 3.38012,-3.04072 3.38012,-3.04072c0,0 7.30311,8.72491 10.39335,15.18201c0.64387,1.34539 0.82497,1.75615 1.11626,3.10482c0.21541,0.99733 0.9063,3.16045 -0.2692,3.19977c-7.29503,0.24399 -41.5396,1.55526 -42.27267,0.8589c-0.97102,-0.92238 -0.96963,-3.09014 -0.86889,-4.88622c0.17264,-3.07837 1.76288,-5.60389 2.35006,-6.3598c1.46929,-1.89149 4.39065,-1.88981 4.56151,-1.89485c1.82868,-0.05405 7.82843,-0.24569 8.24381,-0.44496c0.52465,-0.25169 0.79354,-0.73524 1.26367,-0.805c0.31844,-0.04725 0.81765,0.25898 1.21123,0.32669c0.68793,0.11836 1.6585,0.03121 1.89918,-0.14029c0.4187,-0.29834 0.46938,-0.8382 0.88158,-0.9282c0.35564,-0.07766 1.06396,0.27617 1.51981,0.26413c0.29757,-0.00786 0.75398,-0.39566 0.75398,-0.39566z" data-paper-data="{&quot;index&quot;:null}" fill="#000000" stroke="#000000" stroke-width="0.5" stroke-linecap="round"/><path d="M300.21106,268.22564c1.88392,0 3.41112,1.37066 3.41112,3.06143c0,1.69079 -1.52721,3.06143 -3.41112,3.06143c-1.88392,0 -3.41113,-1.37066 -3.41113,-3.06143c0,-1.69079 1.52721,-3.06143 3.41113,-3.06143z" data-paper-data="{&quot;index&quot;:null}" fill="#afaeb5" stroke="#cac9ce" stroke-width="0.5" stroke-linecap="butt"/><path d="M314.98093,281.447c-4.21161,0.06319 -40.95464,0.89564 -40.95464,0.89564c0,0 -0.58488,-0.79035 -0.76529,-1.24199c-0.2242,-0.56126 -0.17942,-2.14421 -0.17942,-2.14421l43.81207,-1.09868c0,0 0.46395,1.19288 0.46395,1.86866c0,0.60032 -0.20621,1.36664 -0.20621,1.36664c0,0 -1.41047,0.34255 -2.17045,0.35395z" data-paper-data="{&quot;index&quot;:null}" fill="#ffffff" stroke="#000000" stroke-width="0" stroke-linecap="butt"/><path d="M275.98039,269.51052c0.82485,-0.58767 2.97158,-1.03517 3.9574,-1.03517c4.07801,0 7.38388,2.64666 7.38388,5.91149c0,0.38461 0.21691,4.8322 0.1293,5.19634c-0.65611,2.72689 -3.91559,0.71517 -7.51319,0.71517c-3.24262,0 -5.8812,1.97289 -6.7927,0.58238c-0.23483,-0.35824 -0.27871,-2.21003 -0.27871,-2.87884c0,-2.47558 0.52674,-6.64806 3.11399,-8.49134z" data-paper-data="{&quot;index&quot;:null}" fill="#ffffff" stroke="none" stroke-width="0" stroke-linecap="butt"/><path d="M316.83866,277.85048l-43.54405,1.20778" data-paper-data="{&quot;index&quot;:null}" fill="#a5a5a5" stroke="#a5a5a5" stroke-width="0.5" stroke-linecap="round"/></g></g></svg>