<svg version="1.1" xmlns="http://www.w3.org/2000/svg" xmlns:xlink="http://www.w3.org/1999/xlink" width="121.22439" height="73.82244" viewBox="0,0,121.22439,73.82244"><g transform="translate(-255.82888,-121.44715)"><g data-paper-data="{&quot;isPaintingLayer&quot;:true}" fill-rule="nonzero" stroke-linejoin="miter" stroke-miterlimit="10" stroke-dasharray="" stroke-dashoffset="0" style="mix-blend-mode: normal"><path d="" fill="#000000" stroke="none" stroke-width="0.5" stroke-linecap="butt"/><path d="" fill="#66f4ff" stroke="none" stroke-width="0.5" stroke-linecap="butt"/><path d="" data-paper-data="{&quot;index&quot;:null}" fill="#66f4ff" stroke="none" stroke-width="0.5" stroke-linecap="butt"/><path d="" fill="#66f4ff" stroke="none" stroke-width="0.5" stroke-linecap="butt"/><path d="" fill="#66f4ff" stroke="none" stroke-width="0.5" stroke-linecap="butt"/><path d="M364.41985,152.83104l0.21483,41.67594l-95.55392,0.48941l-1.60097,0.02007l-0.38961,-44.24723c0,0 0.84832,1.21725 2.2348,1.23624c0.64898,0.0089 1.14574,0.62461 2.59193,0.61532c0.62637,-0.00402 6.41712,-2.32267 7.17619,-2.33115c0.35696,-0.00399 0.69088,0.01305 1.02812,0.32348c0.55709,0.51278 1.12322,1.42638 1.81714,1.42137c0.56374,-0.00407 1.64897,0.29946 2.25206,0.29402c0.35658,-0.00321 11.32788,-2.47318 11.69729,-2.47697c1.00174,-0.01027 6.04246,2.75601 7.09947,2.74917c1.01344,-0.00655 1.87716,-0.40131 2.92233,-0.41327c0.5253,-0.006 2.8084,-2.09358 3.34073,-2.10055c0.33312,-0.00436 4.25899,-0.31685 4.59402,-0.32084c0.39103,-0.00466 5.62712,1.07006 6.01878,1.06602c0.41893,-0.00431 1.45654,0.26289 2.42232,0.02701c1.48841,-0.36354 3.03594,-1.28603 3.67209,-1.29237c0.71231,-0.00709 1.38039,0.85935 2.01006,0.84967c1.22375,-0.01883 2.93468,1.47687 3.91088,1.2729c0.49959,-0.10438 2.322,0.08795 3.36933,0.01168c0.36854,-0.02683 0.57185,-0.02303 0.68349,-0.16544c0.12442,-0.15872 0.54537,-0.15563 0.70036,-0.22694c0.34894,-0.16055 0.47528,-0.25308 0.82677,-0.25744c0.57441,-0.00713 0.6105,-0.3383 1.1529,-0.33524c0.06047,0.00035 1.33903,-0.57488 1.28765,-0.54573c-1.5038,0.85329 0.17348,-0.66893 2.43894,-0.45074c0.39325,0.03788 1.82403,0.79927 2.89491,1.10217c0.93142,0.26345 1.51359,0.07348 1.87533,0.10335c0.41941,0.03462 3.92433,-1.54505 4.33365,-1.50143c0.5392,0.05746 2.39977,0.81359 2.90787,0.88137c0.86085,0.11487 3.07517,1.84031 3.79349,1.9353c3.93371,0.52023 3.34744,0.28241 4.92539,0.14886c0.84542,-0.07155 1.23583,-0.54703 1.23583,-0.54703z" fill="#05c1e1" stroke="#000000" stroke-width="0.5" stroke-linecap="round"/><path d="M368.401,122.17731c0.45502,0.06727 0.65285,-0.0167 0.68565,-0.18811c2.25662,0.06838 3.82756,2.58169 4.94581,4.25905c0.4273,1.16694 1.11752,2.26069 1.38768,3.59886c0.25951,1.28544 0.08655,3.06267 0.65918,4.2307c0.4151,2.58284 0.72395,5.15771 0.72395,7.78205c0,3.09308 -2.24941,4.47032 -5.25872,4.90827c-2.79346,0.02112 -0.51816,1.01353 -3.21293,-0.06759c-2.61784,-0.88964 -2.05638,-5.5779 -1.35689,-7.59214c1.05396,-3.04672 2.75133,-7.21702 3.54021,-10.37097c0.31627,-1.2674 -3.73566,-7.64128 -2.11395,-6.56014z" data-paper-data="{&quot;noHover&quot;:false,&quot;origItem&quot;:[&quot;Path&quot;,{&quot;applyMatrix&quot;:true,&quot;segments&quot;:[[[273.23414,152.39607],[0.0328,0.17141],[-2.25662,0.06838]],[[267.6027,156.64807],[1.11824,-1.67736],[-0.4273,1.16694]],[[266.22965,160.23355],[0.27016,-1.33817],[-0.25952,1.28544]],[[265.58001,164.43753],[0.57263,-1.16803],[-0.4151,2.58284]],[[264.8422,172.1822],[0,-2.62434],[0,3.09309]],[[270.07461,177.07606],[-3.00931,-0.43795],[2.79345,0.02112]],[[278.25584,176.58401],[-2.69477,1.08112],[2.61784,-0.88964]],[[279.5891,168.01622],[0.69949,2.01424],[-1.05395,-3.04672]],[[277.20773,158.42042],[0.78889,3.15395],[-0.31628,-1.26739]],[[273.91699,152.58394],[1.62171,-1.08114],[-0.45502,0.06727]]],&quot;closed&quot;:true}],&quot;index&quot;:null}" fill="#05c1e1" stroke="#000000" stroke-width="0.5" stroke-linecap="butt"/><path d="M263.3383,121.89158c1.62171,-1.08114 -1.43022,5.29273 -1.11395,6.56013c0.13352,0.53382 -0.13141,1.09674 0.05344,1.67842c0.21421,0.67407 0.26674,2.07165 0.67003,2.75557c1.30488,2.21284 3.43361,3.14637 4.10246,5.07985c0.50178,1.44492 0.29176,4.06619 -0.42964,6.16473c-0.28424,0.82685 -0.04447,2.17595 -0.7844,2.42741c-2.69477,1.08112 -1.70518,-0.05415 -4.49864,-0.07527c-3.00931,-0.43795 -5.25872,-1.81519 -5.25872,-4.90827c0,-2.62434 0.30885,-5.19921 0.72395,-7.78205c0.57263,-1.16803 0.39967,-2.94526 0.65918,-4.2307c0.27016,-1.33817 0.96038,-2.43192 1.38768,-3.59886c1.11824,-1.67736 1.54633,-4.19067 3.80295,-4.25905c0.0328,0.17141 0.23063,0.25538 0.68565,0.18811z" data-paper-data="{&quot;noHover&quot;:false,&quot;origItem&quot;:[&quot;Path&quot;,{&quot;applyMatrix&quot;:true,&quot;segments&quot;:[[[273.23414,152.39607],[0.0328,0.17141],[-2.25662,0.06838]],[[267.6027,156.64807],[1.11824,-1.67736],[-0.4273,1.16694]],[[266.22965,160.23355],[0.27016,-1.33817],[-0.25952,1.28544]],[[265.58001,164.43753],[0.57263,-1.16803],[-0.4151,2.58284]],[[264.8422,172.1822],[0,-2.62434],[0,3.09309]],[[270.07461,177.07606],[-3.00931,-0.43795],[2.79345,0.02112]],[[278.25584,176.58401],[-2.69477,1.08112],[2.61784,-0.88964]],[[279.5891,168.01622],[0.69949,2.01424],[-1.05395,-3.04672]],[[277.20773,158.42042],[0.78889,3.15395],[-0.31628,-1.26739]],[[273.91699,152.58394],[1.62171,-1.08114],[-0.45502,0.06727]]],&quot;closed&quot;:true}],&quot;index&quot;:null}" fill="#05c1e1" stroke="#000000" stroke-width="0.5" stroke-linecap="butt"/><path d="M267.59593,155.73428l96.57458,-0.37505" fill="none" stroke="#000000" stroke-width="0.5" stroke-linecap="round"/><path d="M267.53279,189.6129l96.57458,-0.37505" fill="none" stroke="#000000" stroke-width="0.5" stroke-linecap="round"/><text transform="translate(288.19025,167.3592) scale(0.23452,0.23452)" font-size="40" xml:space="preserve" fill="#001ccb" fill-rule="nonzero" stroke="#001ccb" stroke-width="3" stroke-linecap="butt" stroke-linejoin="miter" stroke-miterlimit="10" stroke-dasharray="" stroke-dashoffset="0" font-family="&quot;SpongeBoyTT1-Regular&quot;, Sans Serif" font-weight="normal" text-anchor="start" style="mix-blend-mode: normal"><tspan x="0" dy="0">PLANKTON</tspan></text><text transform="translate(301.91958,175.67489) scale(0.14611,0.14611)" font-size="40" xml:space="preserve" fill="#001ccb" fill-rule="nonzero" stroke="#001ccb" stroke-width="3" stroke-linecap="butt" stroke-linejoin="miter" stroke-miterlimit="10" stroke-dasharray="" stroke-dashoffset="0" font-family="&quot;SpongeBoyTT1-Regular&quot;, Sans Serif" font-weight="normal" text-anchor="start" style="mix-blend-mode: normal"><tspan x="0" dy="0">AND THE</tspan></text><text transform="translate(274.97975,186.2822) scale(0.22144,0.21354)" font-size="40" xml:space="preserve" fill="#001ccb" fill-rule="nonzero" stroke="#001ccb" stroke-width="3" stroke-linecap="butt" stroke-linejoin="miter" stroke-miterlimit="10" stroke-dasharray="" stroke-dashoffset="0" font-family="&quot;SpongeBoyTT1-Regular&quot;, Sans Serif" font-weight="normal" text-anchor="start" style="mix-blend-mode: normal"><tspan x="0" dy="0">PATTY STEALERS</tspan></text></g></g></svg>