<svg version="1.1" xmlns="http://www.w3.org/2000/svg" xmlns:xlink="http://www.w3.org/1999/xlink" width="66.43219" height="69.7538" viewBox="0,0,66.43219,69.7538"><defs><linearGradient x1="138.41694" y1="317.52561" x2="204.84913" y2="317.52561" gradientUnits="userSpaceOnUse" id="color-1"><stop offset="0" stop-color="#e200ff"/><stop offset="1" stop-color="#6d0040"/></linearGradient></defs><g transform="translate(-138.41694,-282.64871)"><g data-paper-data="{&quot;isPaintingLayer&quot;:true}" fill-rule="nonzero" stroke-linecap="butt" stroke-linejoin="miter" stroke-miterlimit="10" stroke-dasharray="" stroke-dashoffset="0" style="mix-blend-mode: normal"><path d="M204.84913,317.52561c0,19.26197 -14.87135,34.8769 -33.2161,34.8769c-18.34475,0 -33.21609,-15.61491 -33.21609,-34.8769c0,-19.26198 14.87135,-34.8769 33.21609,-34.8769c18.34474,0 33.2161,15.61491 33.2161,34.8769z" fill="url(#color-1)" stroke="#0b61a3" stroke-width="0"/><text transform="translate(142.6026,330.81263) scale(0.75185,0.75185)" font-size="40" xml:space="preserve" fill="#ffffff" fill-rule="nonzero" stroke="none" stroke-width="1" stroke-linecap="butt" stroke-linejoin="miter" stroke-miterlimit="10" stroke-dasharray="" stroke-dashoffset="0" font-family="&quot;LongZhuTi-Regular&quot;, Sans Serif" font-weight="normal" text-anchor="start" style="mix-blend-mode: normal"><tspan x="0" dy="0">帽子</tspan></text><g data-paper-data="{&quot;index&quot;:null}"><path d="M190.17302,302.30938c-0.30047,0.93393 -1.22493,3.55709 -1.22493,3.55709c-0.0061,-0.00124 -0.3536,-0.66689 -0.51567,-0.87058c-0.19851,-0.32922 -0.4628,-0.47392 -0.77102,-0.69294c-0.42174,-0.29969 -0.76135,-0.67619 -1.2038,-0.95131c-0.64098,-0.39858 -1.42492,-0.50362 -2.17882,-0.58815c-0.55677,-0.0597 -1.13787,-0.27161 -1.71035,-0.24453c-0.12488,0.0059 -0.54813,0.12618 -0.65133,0.04452c-0.01875,-0.01484 -0.00155,-0.04477 0.00974,-0.06296c0.14861,0.00976 0.14882,-0.12843 0.14882,-0.12843l0.00476,-0.04266c0.08419,-0.17285 0.07526,-0.20797 0.09709,-0.39159c0,0 0.00492,-0.04466 -0.01402,-0.08914c0.0714,-0.27134 0.17873,-0.55488 0.26736,-0.78849c0.19675,-0.52808 0.49064,-1.06164 0.6583,-1.58695c0.2949,-0.92395 0.46955,-1.88573 0.9997,-2.7268c0.06651,-0.51252 0.39323,-0.91825 0.58025,-1.372c0.28037,-0.68024 0.46099,-1.51548 0.87864,-2.13455c0.51487,-1.1061 1.63588,-3.09197 3.07153,-2.92526c0.89584,0.10045 1.95985,0.35139 2.77436,0.83242c0.21011,0.12409 0.40362,0.26348 0.57336,0.41957c0.22298,0.20503 0.35753,0.13829 0.5317,0.36684c0.62296,0.78029 1.70171,1.79275 0.88121,2.83097c-0.04129,0.02586 -0.06267,0.06583 -0.06267,0.06583l-0.1467,0.28024c-0.06964,0.59424 -0.57419,1.25057 -0.79266,1.83773c-0.15521,0.41715 -0.24007,1.09078 -0.52052,1.40688c-0.51029,1.33185 -1.01628,2.70165 -1.68432,3.95424z" data-paper-data="{&quot;noHover&quot;:false,&quot;origItem&quot;:[&quot;Path&quot;,{&quot;applyMatrix&quot;:true,&quot;segments&quot;:[[[346.63229,37.85079],[-0.03179,0],[0.75,0]],[347.38229,38.60079],[[347.38229,39.35092],[0,0],[-0.00277,0.41528]],[[347.34222,40.72548],[0.03035,-0.48656],[0.4905,-1.04055]],[[349.31624,37.85934],[-0.86508,0.86791],[1.10148,-1.43614]],[[353.28155,35.02104],[-1.55692,0.86303],[2.13036,-1.1809]],[[359.40179,31.202],[-2.2144,1.0551],[3.20797,-1.52851]],[[369.88617,29.59941],[-3.57156,0],[2.63623,0.01279]],[[378.00764,29.35906],[-2.66419,-0.42704],[0.58118,0.09315]],[[381.0297,29.91088],[-0.52564,0.3279],[0.09551,-0.05958]],[[381.08841,29.68139],[0.04329,0.09101],[-0.70036,-0.03234]],[380.38804,28.93251],[[380.38804,28.73054],[0,0],[-0.3032,-0.85287]],[[380.138,26.84883],[0.00581,0.87053],[0,0]],[[380.24998,26.43955],[-0.11198,0.1982],[-0.19172,-1.30691]],[[379.41027,22.61333],[0.29212,1.13947],[-0.64348,-2.5739]],[[377.15756,14.85217],[0.50883,2.54564],[-0.89499,-4.4775]],[[373.90702,1.60024],[2.03912,4.21319],[-0.0423,-2.4328]],[[371.91881,-5.10586],[0.63696,2.22105],[-0.95489,-3.32967]],[[368.94322,-15.53794],[1.62928,3.11557],[-1.82858,-5.44512]],[[356.13388,-30.82758],[6.80428,-0.02681],[-5.33873,0]],[[339.8373,-26.73158],[4.27208,-3.12685],[-1.15077,0.84228]],[[337.16095,-25.29628],[0.93476,-0.97795],[-3.32392,3.32392]],[[331.56725,-12.52686],[-3.29411,-5.28788],[0.17958,0.14261]],[331.82606,-12.18617],[[332.36626,-10.79925],[0,0],[0.01405,2.81673]],[[335.11672,-1.79776],[-0.71414,-2.86175],[0.50734,2.03306]],[[336.81643,5.04183],[-1.14633,-1.62601],[1.68874,6.49892]],[[342.60041,24.38475],[-2.46837,-6.21085],[0.91583,4.52711]],[[346.54089,37.85472],[-1.00465,-4.55624],[0.02916,-0.00258]]],&quot;closed&quot;:true}]}" fill="#d42f37" stroke="#000000" stroke-width="0.5"/><path d="M186.13476,305.85926c0.09472,-0.19131 0.29938,-0.10278 0.29938,-0.10278l0.24212,0.10678c0.27846,0.21615 0.5668,0.42951 0.84596,0.65149c0.15,0.10163 0.29519,0.22043 0.43537,0.36372c0.18973,0.16844 0.59197,-0.00682 0.75468,0.18102c0.03105,0.02998 0.10453,0.53397 -0.0729,0.84715c-0.11078,0.19552 -0.47092,0.25506 -0.53415,0.26789c-0.56831,0.11535 -1.33201,0.08936 -1.89165,0.28431c-0.24485,0.0853 -5.26116,1.1748 -7.27302,0.95551c-0.68355,-0.204 -1.80351,-0.21939 -2.30576,-0.71302c-0.60657,-0.59616 -0.11601,-1.98075 0.81097,-2.84733c0.54453,-0.50905 1.55416,-0.74948 1.73987,-0.7865c1.27272,-0.25366 2.4512,-0.46117 3.7425,-0.32582c1.04376,0.10939 1.68869,0.51795 2.60366,0.91844c0.20122,0.08807 0.39778,0.16201 0.58941,0.23136c0.00358,-0.0104 0.00807,-0.02115 0.01355,-0.03223z" data-paper-data="{&quot;index&quot;:null}" fill="#14130d" stroke="none" stroke-width="0.5"/><path d="M188.0389,304.22698c0.30866,0.36689 0.86437,0.87247 0.9033,1.38512c-0.11377,0.25581 -0.17461,0.52589 -0.24441,0.7905c-0.00456,0.01729 -0.04965,0.41656 -0.05301,0.4483c-0.00665,0.06294 0.05892,0.18295 -0.00762,0.19011c-0.13311,0.01432 -0.26193,0.31944 -0.39301,0.28499c-0.33779,-0.08878 -0.66755,-0.62152 -0.95357,-0.75452c-1.30172,-0.80402 -2.85642,-1.23753 -4.38574,-1.40901c-0.52488,-0.05886 -0.75402,-0.25248 -1.25218,-0.15409c-0.01749,0.00346 -0.30022,0.047 -0.4058,0.05223c0.03469,-0.12159 -0.05769,-0.51307 -0.04707,-0.60551c0.00515,-0.04481 0.15672,-0.1735 0.15642,-0.21912c-0.0019,-0.28561 0.1456,-0.55796 0.20386,-0.83788c0.01073,-0.05153 0.07003,-0.3796 0.07533,-0.43505c0.15573,-0.32118 0.07986,-0.59034 0.37264,-0.84929c0.06996,-0.06187 0.73039,0.06664 0.82125,0.06267c0.53103,-0.0232 1.01394,0.00602 1.55601,0.0668c1.02223,0.11462 1.8016,0.44283 2.64701,1.02547c0.37817,0.26063 0.64927,0.67354 1.00657,0.95827z" data-paper-data="{&quot;noHover&quot;:false,&quot;origItem&quot;:[&quot;Path&quot;,{&quot;applyMatrix&quot;:true,&quot;segments&quot;:[[[348.18908,44.66636],[0.42532,-2.37808],[0.37532,1.25651]],[[348.87286,48.48232],[-0.177,-1.27466],[0.01157,0.08329]],[[348.88254,50.60279],[0.00089,-0.15023],[-0.00177,0.29797]],[[348.82112,51.49461],[-0.29002,-0.0684],[2.07522,0.48945]],[[355.34678,47.65951],[-1.84272,0.65541],[6.14022,-3.07879]],[[373.88683,43.85179],[-6.83134,0],[2.34459,0]],[[380.10517,44.6341],[-2.14894,-0.72166],[0.07542,0.02533]],[[381.2506,44.71679],[-0.46321,-0.07991],[-0.0929,-0.58705]],[[381.13817,42.8515],[0.00117,0.43811],[-0.0048,-1.78642]],[[380.39773,37.72076],[-0.02943,1.91401],[-0.52813,-1.58438]],[[379.35751,31.87991],[1.16356,1.36513],[-0.27803,-0.32618]],[[376.7672,31.83986],[0.39886,0.06624],[-2.33112,-0.38713]],[[369.88617,31.34946],[2.42142,0],[-4.56624,0]],[[357.76053,34.74872],[4.01769,-2.28245],[-1.79721,1.02099]],[[352.85874,38.68071],[1.71704,-1.14469],[-1.54313,1.55459]]],&quot;closed&quot;:true}]}" fill="#ffc241" stroke="none" stroke-width="0.5"/><path d="M188.73381,295.18151c-0.01322,-0.0834 0.06347,-0.13845 0.06347,-0.13845l0.03117,-0.00767c0.11624,-0.18441 0.11738,-0.40198 0.15616,-0.61559c-0.04222,-0.17944 0.3671,-1.71026 0.23902,-1.85301c-0.0102,-0.01136 -0.14602,0.07438 -0.24869,0.21803c-0.25027,0.35018 -0.60705,0.99467 -0.67245,1.05355c-0.37601,0.3385 -0.47646,0.81982 -0.70951,1.24011c0.00015,0.00517 0.0003,0.01038 0.00046,0.01562l-0.00836,0.00005l0.03654,0.01243l-0.06018,0.17687c-0.02199,0.06858 -0.09144,0.11254 -0.16463,0.10052c-0.08053,-0.01323 -0.13509,-0.08923 -0.12186,-0.16977l0.02343,-0.14261c-0.00756,-0.19853 0.00043,-0.53413 -0.15067,-0.69023c-0.15774,-0.16297 -0.54033,0.46698 -0.56972,0.55318c-0.14417,0.42287 -0.12976,0.84525 -0.2473,1.25963l0.04122,0.00677l-0.0353,0.21491c-0.01323,0.08053 -0.08923,0.13509 -0.16977,0.12186c-0.06259,-0.01028 -0.10949,-0.05848 -0.12108,-0.11725l-0.02726,-0.12326c-0.07012,-0.0555 -0.12843,-0.1252 -0.19884,-0.18043c-0.04548,-0.03568 -0.13801,-0.15046 -0.14621,-0.09324c-0.07978,0.55674 -0.18526,1.14974 -0.27998,1.71931c-0.06137,0.36899 -0.21986,0.81408 -0.55383,0.33884c-0.1431,0.01484 -0.31506,0.68731 -0.36576,0.82983c-0.19478,0.54754 -0.3368,1.0988 -0.52218,1.64598c-0.06391,0.18864 -0.09153,0.5495 -0.22082,0.69054c0.29066,-0.23232 0.77288,-0.20137 1.125,-0.23792c1.00373,-0.10422 1.77643,-0.18223 2.21678,0.90013c0.23712,-0.60816 0.90179,-0.71994 0.94946,-1.45075c0.00539,-0.08257 0.04557,-0.28912 -0.00127,-0.36391c-0.02046,-0.03268 -0.33577,0.09307 -0.36037,0.10286c-0.06288,0.02502 -0.12936,0.03914 -0.19731,0.04616l0.00612,0.02765l-0.16032,0.03547c-0.0188,0.00461 -0.03883,0.00559 -0.05914,0.00225c-0.08053,-0.01323 -0.13509,-0.08923 -0.12186,-0.16977c0.00466,-0.0283 0.01705,-0.05339 0.03467,-0.07346l0.11575,-0.13652c0.08163,-0.09594 0.16997,-0.18659 0.26412,-0.27027c0.35278,-0.59075 0.83426,-1.08034 1.30341,-1.56166c0.15777,-0.16185 0.40782,-0.35464 0.24496,-0.61968c-0.01947,-0.0317 -0.19539,-0.07123 -0.36591,-0.10333l0.00012,0.05355l-0.18647,0.00043c-0.00891,0.00018 -0.01797,-0.00045 -0.02709,-0.00195c-0.08053,-0.01322 -0.13509,-0.08923 -0.12186,-0.16976c0.00794,-0.04831 0.03847,-0.08727 0.07901,-0.10787l0.1364,-0.07113c0.04003,-0.02032 0.08006,-0.04064 0.12009,-0.06095c0.18632,-0.18235 0.50536,-0.52469 0.59002,-0.77141c0.04904,-0.1429 0.1792,-0.92166 0.00378,-1.03223c-0.14869,-0.09372 -0.39706,0.1855 -0.49641,0.28125c0,0 -0.10665,0.10228 -0.20893,-0.00437c-0.10228,-0.10665 0.00437,-0.20893 0.00437,-0.20893c0.0386,-0.03684 0.07725,-0.0703 0.11578,-0.10038zM189.1737,294.98218c0.31836,-0.03157 0.54981,0.2287 0.51839,0.77197c-0.03084,0.53323 -0.30231,0.99428 -0.664,1.37363c0.20951,0.11045 0.41884,0.41617 0.3974,0.63504c-0.02949,0.30123 -0.30023,0.46268 -0.47814,0.67234c-0.39535,0.46594 -0.83106,0.85401 -1.16497,1.39347c0.17581,-0.03183 0.36264,-0.0198 0.44164,0.05232c0.02952,0.02695 0.11611,0.36963 0.11851,0.43044c0.02436,0.61687 -0.27599,1.04091 -0.76959,1.36356c-0.16968,0.11091 -0.27633,0.3863 -0.46764,0.52902c-0.38205,-0.19348 -0.37662,-0.65505 -0.71653,-0.84939c-0.76695,-0.43848 -2.02085,0.05851 -2.8398,0.12632c-0.15227,-0.85171 0.37138,-2.07181 0.71104,-2.85682c0.17192,-0.39736 0.17768,-0.8044 0.69088,-0.81623c0.03405,0.03225 0.09124,0.09116 0.1261,0.14262c0.02024,-0.23377 0.11658,-0.81386 0.12572,-0.86957c0.04344,-0.26449 0.05892,-1.11775 0.2756,-1.27933c0.21471,-0.16011 0.43867,0.00243 0.61629,0.16926c0.00939,-0.14242 0.06517,-0.30169 0.08653,-0.43182c0.06227,-0.37908 0.08582,-0.76747 0.32203,-1.0886c0.33752,-0.45887 0.80331,-0.46027 1.00736,0.06333c0.00224,0.00576 0.00443,0.01148 0.00654,0.01717c0.01892,-0.0405 0.03625,-0.07946 0.04922,-0.11562c0.0816,-0.22754 0.55774,-0.803 0.90424,-1.29245c0.36257,-0.51217 0.60071,-0.92729 0.90434,-0.61837c0.20236,0.20587 -0.14963,1.64555 -0.09483,1.90722c-0.03018,0.19922 -0.04631,0.38907 -0.10632,0.57045z" fill="#b1872c" stroke="none" stroke-width="0.5"/><path d="M188.72609,295.16513c-0.03852,0.03008 -0.06181,0.04889 -0.1004,0.08573c0,0 -0.10626,0.10272 -0.00398,0.20937c0.10228,0.10665 0.20926,0.00477 0.20926,0.00477c0.09934,-0.09576 0.34787,-0.37477 0.49656,-0.28105c0.17543,0.11057 0.04669,0.89202 -0.00235,1.03492c-0.08465,0.24671 -0.40313,0.59158 -0.58944,0.77393c-0.04003,0.02031 -0.08004,0.04088 -0.12007,0.0612l-0.13638,0.07148c-0.04055,0.02058 -0.07106,0.06016 -0.079,0.10848c-0.01323,0.08053 0.04129,0.15745 0.12182,0.17068c0.00911,0.0015 -0.00297,0.00007 0.00594,-0.00011l0.18646,-0.00035l0.02105,-0.05194c0.17052,0.03211 0.34641,0.07198 0.36588,0.10367c0.16286,0.26505 -0.08784,0.46057 -0.2456,0.62243c-0.46914,0.48131 -0.95661,0.97699 -1.30939,1.56775c-0.09416,0.08368 -0.18375,0.17474 -0.26538,0.27068l-0.11627,0.13665c-0.01763,0.02007 -0.0302,0.04519 -0.03485,0.07349c-0.01323,0.08053 0.03703,0.13574 0.11757,0.14897c0.02031,0.00334 0.04015,0.00241 0.05895,-0.00222l0.15979,-0.03532l-0.00612,-0.02765c0.06796,-0.00701 0.1338,-0.02092 0.19667,-0.04594c0.0246,-0.00979 0.33876,-0.13504 0.35923,-0.10237c0.04685,0.07479 0.01584,0.30049 0.01046,0.38306c-0.04768,0.73081 -0.71558,0.84347 -0.95269,1.45163c-0.44035,-1.08237 -1.21858,-1.00524 -2.22231,-0.90103c-0.35212,0.03656 -0.83608,0.0046 -1.12675,0.23692c0.12929,-0.14104 0.15647,-0.50224 0.22038,-0.69088c0.18538,-0.54716 0.32568,-1.10014 0.52045,-1.64768c0.0507,-0.14251 0.22141,-0.81695 0.36451,-0.8318c0.33396,0.47524 0.49223,0.02968 0.55361,-0.3393c0.09473,-0.56957 0.20365,-1.17531 0.28344,-1.73204c0.00819,-0.05721 0.10112,0.05729 0.1466,0.09296c0.0704,0.05524 0.12925,0.1246 0.19938,0.1801l0.03836,0.14136c0.01158,0.05877 0.04747,0.08883 0.11006,0.09911c0.08053,0.01323 0.15894,-0.04234 0.17216,-0.12288l0.0362,-0.21512l-0.04161,-0.00669c0.11754,-0.41438 0.10555,-0.83702 0.24971,-1.2599c0.0294,-0.0862 0.41404,-0.71593 0.57179,-0.55297c0.1511,0.1561 0.14439,0.49204 0.15195,0.69058l-0.02332,0.14265c-0.01323,0.08053 0.04216,0.15687 0.1227,0.1701c0.07319,0.01202 0.14312,-0.03172 0.16511,-0.10029l0.05066,-0.15787l-0.03638,-0.01236l0.01749,-0.01922c-0.00016,-0.00525 -0.00034,-0.01046 -0.0005,-0.01564c0.23305,-0.42028 0.33377,-0.90147 0.70979,-1.23997c0.06541,-0.05888 0.42241,-0.70325 0.67268,-1.05344c0.10267,-0.14366 0.23869,-0.22929 0.24889,-0.21792c0.12808,0.14275 -0.27959,1.67473 -0.23737,1.85418c-0.03878,0.21362 -0.03924,0.43184 -0.15547,0.61625l-0.04634,0.02253c0,0 -0.06143,0.04029 -0.04821,0.12368z" data-paper-data="{&quot;noHover&quot;:false,&quot;origItem&quot;:[&quot;Path&quot;,{&quot;applyMatrix&quot;:true,&quot;segments&quot;:[[[596.79634,39.85154],[0,0],[0.36278,0.28322]],[[597.88654,40.79669],[-0.36336,-0.3469],[0,0]],[[597.92767,42.76397],[0.96307,-1.0042],[-0.96307,1.0042]],[[595.9604,42.8051],[0,0],[-0.9354,-0.90169]],[[591.28632,40.15689],[1.40004,-0.88249],[-1.65178,1.04116]],[[591.32189,49.87625],[-0.46169,-1.34547],[0.79708,2.32297]],[[596.87741,57.13967],[-1.75434,-1.71702],[0.37691,0.19131]],[[598.00817,57.71361],[-0.37691,-0.19132],[0,0]],[[599.29256,58.38342],[0,0],[0.38177,0.19386]],[[600.03651,59.39909],[-0.07472,-0.45491],[0.12456,0.75829]],[[598.88904,60.99757],[0.75829,-0.12454],[-0.08581,0.01409]],[[598.63404,61.0159],[0.08392,0.00169],[0,0]],[596.87831,61.01178],[[596.8795,60.50759],[0,0],[-1.60558,0.30232]],[[593.43412,61.48057],[0.18339,-0.29848],[-1.5335,2.49564]],[[595.74065,67.31542],[-1.48552,-1.52407],[4.41738,4.532]],[[608.0134,82.01974],[-3.32172,-5.56245],[0.88657,0.78787]],[[610.50035,84.56451],[-0.76858,-0.90336],[0,0]],[[611.59019,85.85001],[0,0],[0.16595,0.18899]],[[611.91666,86.54169],[-0.04377,-0.26644],[0.12456,0.75829]],[[610.76919,88.14018],[0.75829,-0.12454],[-0.19127,0.03141]],[[610.21234,88.11891],[0.17704,0.04349],[0,0]],[608.70281,87.78497],[[608.76038,87.52458],[0,0],[-0.63989,-0.06609]],[[606.90247,87.08994],[0.592,0.23562],[-0.23168,-0.09221]],[[603.50928,86.1214],[0.1927,-0.30763],[-0.44112,0.70422]],[[603.49724,89.54791],[-0.05071,-0.77746],[0.44897,6.88118]],[[612.43729,103.20799],[-2.23264,-5.72634],[4.14635,-10.19142]],[[633.31017,94.73245],[-9.45094,-0.98122],[3.3155,0.34422]],[[643.90306,96.97267],[-2.73684,-2.18748],[-1.21737,-1.32805]],[[641.82383,90.47058],[0.60176,1.77619],[-1.74548,-5.15207]],[[636.90711,74.97231],[1.83399,5.15557],[-0.47735,-1.34192]],[[633.46315,67.1588],[1.34744,0.13972],[-3.14458,4.47481]],[[628.24841,63.96834],[0.57785,3.47437],[-0.89198,-5.36301]],[[625.61209,47.77957],[0.75123,5.24215],[-0.07719,-0.53875]],[[624.23548,48.65758],[0.42818,-0.33596],[-0.66292,0.52012]],[[622.36325,50.35652],[0.66023,-0.52262],[0,0]],[[622.1065,51.51711],[0,0],[-0.10906,0.55344]],[[620.96648,52.62119],[0.58933,-0.09679],[-0.75829,0.12456]],[[619.36799,51.47372],[0.12454,0.75829],[0,0]],[619.03563,49.45018],[[619.4238,49.38642],[0,0],[-1.10675,-3.90176]],[[617.09524,37.52592],[1.35746,3.98177],[-0.27673,-0.81169]],[[611.73081,32.31728],[1.48535,-1.53449],[-1.42276,1.46982]],[[610.31212,38.81642],[0.07119,-1.86937],[0,0]],[[610.53268,40.15924],[0,0],[0.12456,0.75829]],[[609.38521,41.75773],[0.75829,-0.12454],[-0.68915,0.1132]],[[607.83511,40.81126],[0.20701,0.64566],[0,0]],[607.2685,39.14593],[607.6125,39.02889],[[607.53378,39.02849],[0,0],[0.00151,-0.04934]],[[607.53814,38.88143],[-0.00139,0.0487],[-2.19438,-3.95736]],[[600.85752,27.20473],[3.54045,3.18727],[-0.6159,-0.55446]],[[594.5258,17.2846],[2.3565,3.29727],[-0.96676,-1.35271]],[[592.18415,15.23162],[0.09606,-0.10705],[-1.20602,1.34411]],[[594.43477,32.67929],[0.39754,-1.68962],[0.36518,2.0114]],[[595.90516,38.47565],[-1.0944,-1.73634],[0,0]],[596.19864,38.54784],[[596.7963,39.85149],[0.12449,-0.78528],[0,0]]],&quot;closed&quot;:true,&quot;fillColor&quot;:[0,0,0,1],&quot;strokeWidth&quot;:0.5}]}" fill="#ffc241" stroke="none" stroke-width="0.25"/><path d="M188.80383,305.67468c-0.03893,-0.51265 -0.59505,-1.01381 -0.90371,-1.3807c-0.35729,-0.28472 -0.62611,-0.6924 -1.00428,-0.95303c-0.8454,-0.58264 -1.61185,-0.90729 -2.63407,-1.02191c-0.54208,-0.06078 -1.02102,-0.09241 -1.55205,-0.06921c-0.09086,0.00397 -0.51087,-0.11844 -0.58083,-0.05657c-0.2928,0.25895 -0.21538,0.88562 -0.37112,1.20681c-0.03872,0.40476 -0.24384,0.68747 -0.2872,1.06443c-0.01063,0.09245 -0.03463,0.26932 -0.06932,0.39091c0.10558,-0.00524 0.2409,0.01476 0.25838,0.0113c0.49817,-0.09839 0.88573,-0.06789 1.4106,-0.00904c1.5293,0.17149 2.75866,0.46513 4.06038,1.26915c0.39701,0.1846 0.89395,1.02456 1.37011,0.97334c0.06654,-0.00716 0.0007,-0.12685 0.00736,-0.18979c0.00335,-0.03173 0.0478,-0.43006 0.05235,-0.44735c0.0698,-0.26461 0.12963,-0.53252 0.24339,-0.78832zM189.12811,305.59082c0.04775,0.06263 -0.25318,1.09335 -0.28422,1.35721c-0.01607,0.13656 -0.0189,0.35194 -0.17561,0.43101c-0.62683,0.31628 -1.23974,-0.78512 -1.69896,-0.9741c-1.27344,-0.78279 -2.4394,-1.06298 -3.93458,-1.23063c-0.55087,-0.06177 -0.98536,-0.03204 -1.50199,-0.01015c-0.13283,0.00563 -0.35064,0.13228 -0.46964,0.02604c-0.16518,-0.14747 0.01333,-0.38194 0.04551,-0.51864c0.11149,-0.47364 0.26338,-0.87584 0.32339,-1.35937c0.18085,-0.37299 0.09584,-1.09058 0.48456,-1.36943c0.2296,-0.16471 0.5275,-0.00038 0.77443,-0.01149c0.54985,-0.02475 1.04703,0.00844 1.6063,0.07115c1.07476,0.12051 1.91389,0.46864 2.79782,1.08359c0.39334,0.27365 0.6732,0.69041 1.04538,0.987c0.36521,0.42806 0.8979,0.94196 0.98763,1.51781z" fill="#b1872c" stroke="none" stroke-width="0.5"/></g></g></g></svg>