<svg version="1.1" xmlns="http://www.w3.org/2000/svg" xmlns:xlink="http://www.w3.org/1999/xlink" width="120.90766" height="93.54944" viewBox="0,0,120.90766,93.54944"><g transform="translate(-256.48884,-111.1235)"><g stroke-miterlimit="10"><path d="M353.9962,193.75938c0,0 0,-0.21161 0.13767,-0.35951c-0.1229,-1.22174 -0.97244,-2.58686 -1.45213,-3.66844c-1.3419,-3.02566 -2.365,-6.01123 -3.62578,-9.07365c-1.73234,-2.29009 -4.68557,-8.24923 -8.32488,-6.91607c-1.33805,0.49016 -2.55664,2.02197 -3.55854,2.98664c-0.26788,0.84796 -0.41554,2.27543 -1.17219,2.85602c-1.19277,0.91522 -2.74662,1.80982 -3.36331,3.18508c-0.98791,2.20309 -1.19585,5.10977 -2.08537,7.33988c-0.85142,4.24606 -3.38524,10.29535 2.64722,11.50222c5.38608,0.9503 12.10951,3.18544 17.57641,1.36313c3.49138,0.03338 3.23145,-5.73981 3.22091,-8.1534zM354.89636,194.20512c0.09984,0.14195 0.09984,0.31276 0.09984,0.31276v0.3034c-0.01104,2.97694 0.11171,9.1041 -4.06072,9.14049c-5.57061,1.85687 -12.43388,-0.39889 -17.92156,-1.36748c-6.84557,-1.3687 -4.38747,-7.92678 -3.42081,-12.7699c0.94266,-2.3499 1.16558,-5.13218 2.16225,-7.52679c0.5923,-1.42308 2.3197,-2.65895 3.61491,-3.48976c0.48202,-0.30919 0.79348,-2.14896 0.95162,-2.60522c1.10697,-1.14167 2.49262,-2.80121 4.0265,-3.38479c4.32506,-1.64551 7.51847,4.57981 9.57581,7.34381c1.29834,3.08355 2.29852,6.08361 3.65585,9.13044c0.61377,1.37772 1.5396,2.94312 1.56785,4.4673c0,0 0,0.22576 -0.1517,0.37388c-0.02785,0.0272 -0.06082,0.05178 -0.09984,0.07186z" fill="#971b34" stroke="none" stroke-width="0.5" stroke-linecap="butt"/><path d="M354.04082,194.84385c0.01054,2.41359 0.25253,8.2065 -3.23885,8.17312c-5.4669,1.8223 -12.2444,-0.41329 -17.63048,-1.3636c-6.03246,-1.20686 -3.52081,-7.29132 -2.66939,-11.53738c0.88953,-2.23011 1.10498,-5.1705 2.09288,-7.37359c0.61669,-1.37526 2.18584,-2.28504 3.37862,-3.20027c0.75666,-0.58059 0.9132,-2.01251 1.18108,-2.86047c1.0019,-0.96467 2.23504,-2.49967 3.57309,-2.98983c3.63931,-1.33317 6.62976,4.63913 8.3621,6.92922c1.26078,3.06241 2.2997,6.08982 3.6416,9.11548c0.47969,1.08158 1.32614,2.45961 1.44904,3.68135c-0.13767,0.1479 -0.13821,0.36084 -0.13821,0.36084z" fill="#ec2b51" stroke="none" stroke-width="0.5" stroke-linecap="butt"/><path d="M305.15465,192.2485c0,0 0,-0.21161 0.13767,-0.3595c-0.1229,-1.22174 -0.97244,-2.58686 -1.45213,-3.66844c-1.3419,-3.02566 -2.365,-6.01124 -3.62578,-9.07366c-1.73234,-2.29009 -4.68557,-8.24923 -8.32488,-6.91606c-1.33805,0.49016 -2.55664,2.02197 -3.55854,2.98664c-0.26788,0.84796 -0.41554,2.27543 -1.1722,2.85601c-1.19277,0.91522 -2.74662,1.80982 -3.36331,3.18508c-0.98791,2.20309 -1.19585,5.10977 -2.08537,7.33988c-0.85142,4.24606 -3.38523,10.29535 2.64723,11.50221c5.38608,0.9503 12.1095,3.18544 17.57641,1.36313c3.49138,0.03338 3.23145,-5.73981 3.22091,-8.1534zM306.05482,192.69423c0.09984,0.14195 0.09984,0.31276 0.09984,0.31276v0.3034c-0.01104,2.97694 0.11171,9.10409 -4.06072,9.14049c-5.57061,1.85687 -12.43388,-0.39889 -17.92156,-1.36748c-6.84557,-1.3687 -4.38746,-7.92678 -3.4208,-12.7699c0.94266,-2.3499 1.16558,-5.13218 2.16224,-7.52679c0.5923,-1.42308 2.3197,-2.65895 3.61491,-3.48976c0.48202,-0.30919 0.79348,-2.14896 0.95162,-2.60521c1.10697,-1.14167 2.49262,-2.80121 4.0265,-3.38479c4.32506,-1.64551 7.51847,4.57981 9.57581,7.34381c1.29834,3.08355 2.29852,6.08361 3.65585,9.13044c0.61377,1.37772 1.5396,2.94312 1.56785,4.4673c0,0 0,0.22576 -0.1517,0.37388c-0.02785,0.0272 -0.06082,0.05177 -0.09984,0.07185z" fill="#971b34" stroke="none" stroke-width="0.5" stroke-linecap="butt"/><path d="M305.19931,193.33297c0.01054,2.41359 0.25253,8.2065 -3.23886,8.17312c-5.4669,1.8223 -12.2444,-0.41329 -17.63048,-1.3636c-6.03246,-1.20686 -3.52081,-7.29131 -2.66939,-11.53738c0.88953,-2.23011 1.10498,-5.1705 2.09288,-7.37359c0.61669,-1.37526 2.18585,-2.28505 3.37862,-3.20027c0.75666,-0.58059 0.91321,-2.01251 1.18109,-2.86047c1.0019,-0.96467 2.23503,-2.49967 3.57308,-2.98983c3.63931,-1.33317 6.62976,4.63914 8.3621,6.92923c1.26078,3.06241 2.2997,6.08982 3.6416,9.11548c0.47969,1.08158 1.32614,2.4596 1.44904,3.68134c-0.13767,0.1479 -0.13821,0.36085 -0.13821,0.36085z" fill="#ec2b51" stroke="none" stroke-width="0.5" stroke-linecap="butt"/><path d="" fill="#000000" stroke="none" stroke-width="0.5" stroke-linecap="butt"/><path d="" fill="#66f4ff" stroke="none" stroke-width="0.5" stroke-linecap="butt"/><path d="" fill="#66f4ff" stroke="none" stroke-width="0.5" stroke-linecap="butt"/><path d="" fill="#66f4ff" stroke="none" stroke-width="0.5" stroke-linecap="butt"/><path d="" fill="#66f4ff" stroke="none" stroke-width="0.5" stroke-linecap="butt"/><path d="M364.71264,152.50193l0.21483,28.92435l-95.55392,0.48941l-1.60097,0.02007l-0.38961,-31.49564c0,0 0.84832,1.21725 2.2348,1.23624c0.64898,0.0089 1.14574,0.62461 2.59193,0.61532c0.62637,-0.00402 6.41712,-2.32267 7.17619,-2.33115c0.35696,-0.00399 0.69088,0.01305 1.02812,0.32348c0.55709,0.51278 1.12322,1.42638 1.81714,1.42137c0.56374,-0.00407 1.64897,0.29946 2.25206,0.29402c0.35658,-0.00321 11.32788,-2.47318 11.69729,-2.47697c1.00174,-0.01027 6.04246,2.75601 7.09947,2.74917c1.01344,-0.00655 1.87716,-0.40131 2.92233,-0.41327c0.5253,-0.006 2.8084,-2.09358 3.34073,-2.10055c0.33312,-0.00436 4.25899,-0.31685 4.59402,-0.32084c0.39103,-0.00466 5.62712,1.07006 6.01878,1.06602c0.41893,-0.00431 1.45654,0.26289 2.42232,0.02701c1.48841,-0.36354 3.03594,-1.28603 3.67209,-1.29237c0.71231,-0.00709 1.38039,0.85935 2.01006,0.84967c1.22375,-0.01883 2.93468,1.47687 3.91088,1.2729c0.49959,-0.10438 2.322,0.08795 3.36933,0.01168c0.36854,-0.02683 0.57185,-0.02303 0.68349,-0.16544c0.12442,-0.15872 0.54537,-0.15563 0.70036,-0.22694c0.34894,-0.16055 0.47528,-0.25308 0.82677,-0.25744c0.57441,-0.00713 0.6105,-0.3383 1.1529,-0.33524c0.06047,0.00035 1.33903,-0.57488 1.28765,-0.54573c-1.5038,0.85329 0.17348,-0.66893 2.43894,-0.45074c0.39325,0.03788 1.82403,0.79927 2.89491,1.10217c0.93142,0.26345 1.51359,0.07348 1.87533,0.10335c0.41941,0.03462 3.92433,-1.54505 4.33365,-1.50143c0.5392,0.05746 2.39977,0.81359 2.90787,0.88137c0.86085,0.11487 3.07517,1.84031 3.79349,1.9353c3.93371,0.52023 3.34744,0.28241 4.92539,0.14886c0.84542,-0.07155 1.23583,-0.54703 1.23583,-0.54703z" fill="#ec2b51" stroke="#971b34" stroke-width="0.5" stroke-linecap="round"/><path d="M364.62998,178.27741c0,1.01506 0.04036,1.67388 0.00496,2.19657c-0.01828,0.26994 0.1035,0.62274 -0.41995,0.65094c-8.75041,0.47132 -33.15328,0.2152 -47.66477,0.2152c-26.34944,0 -48.77178,1.13899 -48.77178,-0.07585c0,-0.33479 -0.26923,-3.84742 2.74944,-4.36516c1.13647,-0.19492 2.65159,0.72876 4.20972,0.63497c0.90281,-0.05434 1.11107,-1.16563 2.13578,-1.2105c1.27001,-0.05561 2.03563,1.12807 3.49548,1.11799c0.54286,-0.00375 2.16168,-1.5257 2.73167,-1.5317c0.79206,-0.00833 2.66377,1.35731 3.48991,1.36492c0.5525,0.00509 2.0185,-1.50871 2.57768,-1.50717c0.66698,0.00184 1.83931,1.07242 3.04064,1.08686c1.34607,0.01618 2.72857,-1.02231 3.4774,-0.99318c0.83778,0.03259 1.19139,0.98254 1.98028,1.02732c0.65915,0.03742 2.06854,-1.14642 2.71531,-1.12306c1.09734,0.03963 2.60406,1.02519 3.64448,1.1194c0.82846,0.07502 1.78083,-1.24474 2.57996,-1.2195c0.57484,0.01816 1.66852,0.17972 2.47629,0.5524c0.49338,0.22762 0.68686,0.7659 1.15399,0.72194c1.61714,-0.15219 0.45366,-1.5329 1.91873,-1.33632c0.97091,0.13027 2.7476,0.90579 3.90184,0.90579c0.58146,0 1.71838,-1.23388 2.30073,-1.23577c1.13051,-0.00367 2.32306,0.74315 3.45163,0.75844c0.37016,0.00501 2.03457,-1.0379 2.40399,-1.03281c1.21055,0.01668 2.39999,1.0951 3.56886,1.13501c0.75144,0.02566 1.67933,-1.06151 2.41393,-1.04218c1.21344,0.03193 2.52331,1.00436 3.6849,1.06085c0.50243,0.02444 1.6776,-1.18766 2.16954,-1.17021c1.23917,0.04396 2.47901,0.79641 3.612,0.88336c0.90211,0.06923 1.89625,-1.11505 2.74487,-1.08422c0.99773,0.03625 2.33435,1.2745 3.53649,1.17226c1.29246,-0.10992 2.44869,-1.55787 3.43349,-1.4202c1.11466,0.15582 1.12367,1.29314 2.28523,1.19955c1.53725,-0.12386 2.79027,-1.21484 4.1119,-1.29049c0.62824,-0.03596 1.35377,1.09746 1.92822,1.05761c1.31338,-0.0911 1.14981,-0.90267 2.20747,-0.94767c1.34864,-0.05738 2.42406,0.49291 3.23181,0.56714c0.45396,0.04172 0.7792,-0.42046 1.1288,-0.36193c0.75934,0.12714 0.35906,3.35433 0.35906,3.51939z" fill="#ffffff" stroke="none" stroke-width="0" stroke-linecap="butt"/><path d="M311.22836,179.68769c-1.42194,0 -3.6589,-2.22828 -4.41989,-4.9854c-0.2973,-1.07713 0.57183,-2.17611 0.74172,-3.19339c0.07691,-0.46056 -0.50061,-1.18833 -0.50061,-1.39309c0,-0.85936 -0.15105,-2.21058 0.71139,-2.01291c0.75984,0.17416 -1.79213,-1.62484 -1.3881,-1.8966c0.40589,-0.27301 18.26808,-0.87643 18.85615,-0.87643c0.97544,0 -0.52203,0.89166 -0.98553,2.57304c-0.2853,1.03497 0.79722,2.85719 0.18944,3.50489c-0.03241,0.03454 0.32852,1.0388 0.45226,2.13119c0.12749,1.12548 0.01639,2.34011 -0.12557,2.38064c-2.53051,0.72251 -13.53127,3.76806 -13.53127,3.76806z" fill="#ffffff" stroke="none" stroke-width="0" stroke-linecap="butt"/><path d="M351.78875,155.31655c-1.10231,-0.08882 -2.25458,0.99631 -3.28555,1.05419c-1.17955,0.06623 -2.22029,-0.89284 -3.18836,-1.01099c-1.16067,-0.14165 -2.34727,0.41477 -3.52498,0.24031c-0.75509,-0.11186 -1.54194,-0.47329 -2.36175,-0.34649c-1.05616,0.16335 -2.16701,0.83872 -3.33513,0.76564c-0.83778,-0.05241 -1.70502,-1.23038 -2.60264,-1.18672c-1.16159,0.05649 -2.34227,0.83514 -3.5557,0.86706c-0.7346,0.01933 -1.4041,-0.93864 -2.15555,-0.91299c-1.16887,0.03991 -2.16451,1.18292 -3.37507,1.19961c-0.36942,0.00509 -2.5506,-1.22693 -2.92075,-1.22192c-1.12857,0.0153 -1.70181,0.76212 -2.83232,0.75844c-0.58234,-0.00189 -2.33858,-0.49259 -2.92004,-0.49259c-1.15424,0 -1.6923,0.40394 -2.66321,0.53421c-1.46507,0.19657 -1.2925,-0.44096 -2.90964,-0.59315c-0.46713,-0.04396 -1.52765,0.74205 -2.02103,0.96967c-0.80777,0.37267 -1.08789,0.10206 -1.66272,0.12022c-0.79913,0.02525 -1.7515,-1.48877 -2.57996,-1.41375c-1.04043,0.09421 -2.64427,1.27402 -3.7416,1.31365c-0.64677,0.02336 -1.47339,-0.86909 -2.13254,-0.83167c-0.7889,0.04478 -1.82241,0.70335 -2.66018,0.73594c-0.74883,0.02913 -2.13132,-0.71798 -3.4774,-0.7018c-1.20133,0.01444 -2.37365,0.89077 -3.04064,0.89261c-0.55918,0.00154 -2.02519,-0.92948 -2.57769,-0.9244c-0.82614,0.00761 -2.30933,0.88761 -3.10139,0.87928c-0.56999,-0.006 -2.57732,-1.04231 -3.12018,-1.04606c-1.45986,-0.01008 -2.22548,1.1736 -3.49549,1.11799c-1.02471,-0.04487 -1.23297,-1.15616 -2.13578,-1.2105c-1.55813,-0.09378 -3.07325,0.82989 -4.20972,0.63497c-3.01867,-0.51774 -2.74944,-4.03037 -2.74944,-4.36516c0,-0.19289 3.78577,1.5315 4.84236,1.44331c0.52882,-0.04414 6.52826,-2.42127 7.23587,-2.47647c0.41131,-0.03208 1.49617,1.5605 3.45855,2.01422c1.48107,0.34244 2.31698,-0.05623 3.50968,-0.34871c0.78517,-0.19254 1.89007,-0.17396 2.85154,-0.45155c2.03849,-0.58854 5.79964,-1.40992 6.73491,-1.46778c1.73229,-0.10717 5.12712,2.35074 6.7167,2.5461c1.38283,0.16994 2.19689,-0.05798 3.81306,-0.39272c0.20229,-0.0419 2.41962,-1.89415 2.64973,-1.93883c1.14391,-0.22208 4.20501,-0.64112 5.59603,-0.27982c0.36672,0.09526 1.11836,0.22401 1.73103,0.37164c1.58959,0.38302 3.25058,0.87916 5.61985,0.58324c1.14064,-0.14246 3.38831,-1.26251 4.08551,-1.16339c0.49403,0.07023 3.17605,1.17013 3.65418,1.23284c0.2006,0.02631 1.82047,0.8269 2.01745,0.85147c0.32162,0.04013 1.73575,-0.1163 2.04642,-0.08158c0.46991,0.05251 1.11979,0.09928 1.56328,0.14072c0.38853,0.0363 0.60899,-0.28997 0.82939,-0.31942c0.42047,-0.05617 0.66205,-0.33601 1.00437,-0.44181c1.21238,-0.37473 2.197,-0.80348 3.63923,-1.22445c0.2462,-0.07186 1.61087,-0.07012 1.90391,-0.1208c0.24172,-0.04181 2.55642,1.27348 2.81146,1.2334c0.59879,-0.09411 1.23852,0.00609 1.93914,-0.08179c0.85373,-0.10709 3.04837,-1.33118 4.02129,-1.32408c0.45281,0.0033 2.80228,0.85256 3.30426,0.869c0.17148,0.00562 0.96874,0.64633 1.92328,1.0419c1.02256,0.42377 2.27114,0.92734 2.46456,0.93468c1.02681,0.03899 2.31888,-0.04008 3.50058,0.02357c0.52345,0.0282 1.4998,-0.65254 1.51808,-0.3826c0.03539,0.52269 0.05964,3.31318 0.05964,4.32824c0,0 -0.78857,-0.71894 -1.66501,-0.78405c-0.63112,-0.04689 -0.89817,0.8889 -2.32241,0.86545c-0.83902,-0.01381 -1.93318,-1.18302 -2.90859,-1.28183c-1.48831,-0.15078 -1.48177,0.95186 -2.57554,1.05608c-1.05516,0.10054 -3.23735,-0.79978 -3.23735,-0.79978z" fill="#ffffff" stroke="none" stroke-width="0" stroke-linecap="butt"/><path d="M345.84578,176.52233c-0.41602,0.27735 -0.69338,-0.13868 -0.69338,-0.13868l-0.08033,-0.23926c-2.00577,-1.00288 -3.39736,-1.16505 -5.01425,0.45184c0,0 -0.35356,0.35356 -0.70711,0c-0.35355,-0.35356 0,-0.7071 0,-0.7071c1.93293,-1.93293 3.79355,-1.82668 6.16858,-0.63917l0.46517,0.57899c0,0 0.27735,0.41602 -0.13867,0.69338z" fill="#9a9a9a" stroke="none" stroke-width="0.5" stroke-linecap="butt"/><path d="M351.74993,176.39805c-0.41602,0.27735 -0.69338,-0.13868 -0.69338,-0.13868l-0.08034,-0.23926c-2.00577,-1.00288 -3.39736,-1.16505 -5.01425,0.45184c0,0 -0.35356,0.35356 -0.70711,0c-0.35355,-0.35356 0,-0.7071 0,-0.7071c1.93293,-1.93293 3.79356,-1.82668 6.16858,-0.63917l0.46517,0.57899c0,0 0.27735,0.41602 -0.13867,0.69338z" fill="#9a9a9a" stroke="none" stroke-width="0.5" stroke-linecap="butt"/><path d="M274.62128,178.07896c-0.41602,0.27735 -0.69338,-0.13868 -0.69338,-0.13868l-0.08033,-0.23926c-2.00577,-1.00288 -3.39736,-1.16505 -5.01425,0.45184c0,0 -0.35356,0.35356 -0.70711,0c-0.35355,-0.35356 0,-0.7071 0,-0.7071c1.93293,-1.93293 3.79356,-1.82668 6.16858,-0.63917l0.46517,0.57899c0,0 0.27735,0.41602 -0.13868,0.69338z" fill="#9a9a9a" stroke="none" stroke-width="0.5" stroke-linecap="butt"/><path d="M280.56456,177.94994c-0.41602,0.27735 -0.69338,-0.13867 -0.69338,-0.13867l-0.08033,-0.23927c-2.00577,-1.00288 -3.39737,-1.16504 -5.01426,0.45185c0,0 -0.35356,0.35356 -0.70711,0c-0.35355,-0.35356 0,-0.70711 0,-0.70711c1.93293,-1.93293 3.79356,-1.82667 6.16858,-0.63916l0.46517,0.57899c0,0 0.27735,0.41602 -0.13867,0.69337z" fill="#9a9a9a" stroke="none" stroke-width="0.5" stroke-linecap="butt"/><path d="M286.50781,177.76196c-0.41602,0.27735 -0.69338,-0.13868 -0.69338,-0.13868l-0.08033,-0.23926c-2.00577,-1.00288 -3.39736,-1.16505 -5.01425,0.45184c0,0 -0.35356,0.35356 -0.70711,0c-0.35355,-0.35356 0,-0.7071 0,-0.7071c1.93293,-1.93293 3.79355,-1.82667 6.16858,-0.63916l0.46517,0.57899c0,0 0.27735,0.41602 -0.13867,0.69338z" fill="#9a9a9a" stroke="none" stroke-width="0.5" stroke-linecap="butt"/><path d="M292.35539,177.59621c-0.41602,0.27735 -0.69338,-0.13867 -0.69338,-0.13867l-0.08033,-0.23927c-2.00577,-1.00288 -3.39736,-1.16505 -5.01425,0.45184c0,0 -0.35356,0.35356 -0.70711,0c-0.35355,-0.35356 0,-0.7071 0,-0.7071c1.93293,-1.93293 3.79356,-1.82667 6.16858,-0.63916l0.46517,0.57899c0,0 0.27735,0.41602 -0.13868,0.69338z" fill="#9a9a9a" stroke="none" stroke-width="0.5" stroke-linecap="butt"/><path d="M298.29869,177.46719c-0.41602,0.27735 -0.69338,-0.13868 -0.69338,-0.13868l-0.08034,-0.23926c-2.00577,-1.00288 -3.39736,-1.16505 -5.01425,0.45184c0,0 -0.35356,0.35356 -0.70711,0c-0.35355,-0.35356 0,-0.70711 0,-0.70711c1.93293,-1.93293 3.79356,-1.82667 6.16858,-0.63916l0.46517,0.57899c0,0 0.27735,0.41602 -0.13867,0.69338z" fill="#9a9a9a" stroke="none" stroke-width="0.5" stroke-linecap="butt"/><path d="M304.24196,177.27921c-0.41602,0.27735 -0.69338,-0.13868 -0.69338,-0.13868l-0.08033,-0.23927c-2.00577,-1.00288 -3.39736,-1.16504 -5.01425,0.45185c0,0 -0.35356,0.35356 -0.70711,0c-0.35355,-0.35356 0,-0.70711 0,-0.70711c1.93293,-1.93293 3.79355,-1.82667 6.16858,-0.63916l0.46517,0.57899c0,0 0.27735,0.41602 -0.13867,0.69338z" fill="#9a9a9a" stroke="none" stroke-width="0.5" stroke-linecap="butt"/><path d="M310.27749,177.12458c-0.41602,0.27735 -0.69338,-0.13868 -0.69338,-0.13868l-0.08033,-0.23926c-2.00577,-1.00288 -3.39736,-1.16505 -5.01425,0.45184c0,0 -0.35356,0.35356 -0.70711,0c-0.35355,-0.35356 0,-0.7071 0,-0.7071c1.93293,-1.93293 3.79356,-1.82668 6.16858,-0.63917l0.46517,0.57899c0,0 0.27735,0.41602 -0.13868,0.69338z" fill="#9a9a9a" stroke="none" stroke-width="0.5" stroke-linecap="butt"/><path d="M316.2208,177.13193c-0.41602,0.27735 -0.69338,-0.13868 -0.69338,-0.13868l-0.08033,-0.23926c-2.00577,-1.00288 -3.39737,-1.16505 -5.01426,0.45184c0,0 -0.35356,0.35356 -0.70711,0c-0.35355,-0.35356 0,-0.7071 0,-0.7071c1.93293,-1.93293 3.79356,-1.82668 6.16858,-0.63917l0.46517,0.57899c0,0 0.27735,0.41602 -0.13867,0.69338z" fill="#9a9a9a" stroke="none" stroke-width="0.5" stroke-linecap="butt"/><path d="M322.16406,176.94395c-0.41602,0.27735 -0.69338,-0.13868 -0.69338,-0.13868l-0.08033,-0.23926c-2.00577,-1.00288 -3.39736,-1.16505 -5.01425,0.45184c0,0 -0.35356,0.35356 -0.70711,0c-0.35355,-0.35356 0,-0.70711 0,-0.70711c1.93293,-1.93293 3.79355,-1.82667 6.16858,-0.63916l0.46517,0.57899c0,0 0.27735,0.41602 -0.13867,0.69338z" fill="#9a9a9a" stroke="none" stroke-width="0.5" stroke-linecap="butt"/><path d="M328.01164,176.7782c-0.41602,0.27735 -0.69338,-0.13868 -0.69338,-0.13868l-0.08033,-0.23926c-2.00577,-1.00288 -3.39736,-1.16505 -5.01425,0.45184c0,0 -0.35356,0.35356 -0.70711,0c-0.35355,-0.35356 0,-0.70711 0,-0.70711c1.93293,-1.93293 3.79356,-1.82667 6.16858,-0.63916l0.46517,0.57899c0,0 0.27735,0.41602 -0.13868,0.69338z" fill="#9a9a9a" stroke="none" stroke-width="0.5" stroke-linecap="butt"/><path d="M333.95492,176.64918c-0.41602,0.27735 -0.69338,-0.13867 -0.69338,-0.13867l-0.08033,-0.23927c-2.00577,-1.00288 -3.39737,-1.16505 -5.01426,0.45184c0,0 -0.35356,0.35356 -0.70711,0c-0.35355,-0.35356 0,-0.7071 0,-0.7071c1.93293,-1.93293 3.79356,-1.82667 6.16858,-0.63916l0.46517,0.57899c0,0 0.27735,0.41602 -0.13867,0.69338z" fill="#9a9a9a" stroke="none" stroke-width="0.5" stroke-linecap="butt"/><path d="M339.89819,176.59758c-0.41602,0.27735 -0.69338,-0.13868 -0.69338,-0.13868l-0.08033,-0.23927c-2.00577,-1.00288 -3.39736,-1.16504 -5.01425,0.45185c0,0 -0.35356,0.35356 -0.70711,0c-0.35355,-0.35356 0,-0.70711 0,-0.70711c1.93293,-1.93293 3.79355,-1.82667 6.16858,-0.63916l0.46517,0.57899c0,0 0.27735,0.41602 -0.13867,0.69338z" fill="#9a9a9a" stroke="none" stroke-width="0.5" stroke-linecap="butt"/><path d="M357.76756,176.03781c-0.41602,0.27735 -0.69338,-0.13868 -0.69338,-0.13868l-0.08033,-0.23927c-2.00577,-1.00288 -3.39736,-1.16504 -5.01425,0.45185c0,0 -0.35356,0.35356 -0.70711,0c-0.35355,-0.35356 0,-0.70711 0,-0.70711c1.93293,-1.93293 3.79355,-1.82667 6.16858,-0.63916l0.46517,0.57899c0,0 0.27735,0.41602 -0.13867,0.69338z" fill="#9a9a9a" stroke="none" stroke-width="0.5" stroke-linecap="butt"/><path d="M364.58506,174.45673c0.1857,0.46424 -0.27854,0.64993 -0.27854,0.64993l-0.11804,-0.03794c-0.09753,0.1217 -0.17339,0.2703 -0.21423,0.42561c0.04505,0.11621 0.0833,0.31273 -0.06673,0.48585c-0.04985,0.14249 -0.17095,0.31555 -0.46511,0.31555c-0.5,0 -0.5,-0.5 -0.5,-0.5c0.00135,-0.03943 0.00378,-0.07891 0.00726,-0.1184c-1.97265,-0.97529 -3.3522,-1.11764 -4.95243,0.48259c0,0 -0.35356,0.35356 -0.70711,0c-0.35355,-0.35356 0,-0.7071 0,-0.7071c1.87404,-1.87404 3.6801,-1.83126 5.9529,-0.74468c0.04049,-0.07608 0.08451,-0.14983 0.13172,-0.22066l0.56038,-0.3093c0,0 0.46423,-0.18569 0.64993,0.27855z" fill="#9a9a9a" stroke="none" stroke-width="0.5" stroke-linecap="butt"/><g fill="#9a9a9a" stroke="none" stroke-width="0.5" stroke-linecap="butt"><path d="M274.56222,154.86839l-0.45162,0.58962c-2.34684,1.24227 -4.20451,1.39165 -6.18175,-0.49594c0,0 -0.36165,-0.34525 -0.01639,-0.70691c0.34526,-0.36166 0.70692,-0.0164 0.70692,-0.0164c1.65395,1.57896 3.04141,1.38457 5.02339,0.33544l0.07477,-0.24106c0,0 0.26763,-0.42235 0.68997,-0.15472c0.42235,0.26763 0.15472,0.68998 0.15472,0.68998z"/><path d="M280.50688,154.85955l-0.45162,0.58963c-2.34684,1.24227 -4.20451,1.39165 -6.18175,-0.49594c0,0 -0.36165,-0.34526 -0.01639,-0.70692c0.34526,-0.36166 0.70692,-0.0164 0.70692,-0.0164c1.65395,1.57896 3.04141,1.38457 5.02338,0.33544l0.07477,-0.24106c0,0 0.26763,-0.42235 0.68997,-0.15472c0.42235,0.26763 0.15472,0.68997 0.15472,0.68997z"/><path d="M286.45292,154.90964l-0.45162,0.58962c-2.34684,1.24227 -4.20451,1.39165 -6.18175,-0.49594c0,0 -0.36165,-0.34526 -0.01639,-0.70692c0.34526,-0.36166 0.70692,-0.01639 0.70692,-0.01639c1.65395,1.57896 3.04141,1.38457 5.02338,0.33544l0.07477,-0.24106c0,0 0.26763,-0.42235 0.68997,-0.15472c0.42235,0.26763 0.15472,0.68997 0.15472,0.68997z"/><path d="M292.30275,154.93975l-0.45162,0.58962c-2.34684,1.24227 -4.2045,1.39165 -6.18174,-0.49594c0,0 -0.36166,-0.34525 -0.0164,-0.70691c0.34526,-0.36166 0.70692,-0.0164 0.70692,-0.0164c1.65395,1.57896 3.04141,1.38457 5.02338,0.33544l0.07477,-0.24106c0,0 0.26763,-0.42235 0.68997,-0.15472c0.42235,0.26763 0.15472,0.68998 0.15472,0.68998z"/><path d="M298.24741,154.93091l-0.45162,0.58963c-2.34684,1.24227 -4.2045,1.39164 -6.18174,-0.49595c0,0 -0.36166,-0.34525 -0.0164,-0.70691c0.34526,-0.36166 0.70692,-0.0164 0.70692,-0.0164c1.65395,1.57896 3.04141,1.38457 5.02339,0.33544l0.07476,-0.24106c0,0 0.26763,-0.42235 0.68997,-0.15472c0.42235,0.26763 0.15472,0.68997 0.15472,0.68997z"/><path d="M304.19347,154.981l-0.45162,0.58962c-2.34684,1.24227 -4.2045,1.39165 -6.18174,-0.49594c0,0 -0.36166,-0.34526 -0.0164,-0.70692c0.34526,-0.36166 0.70692,-0.0164 0.70692,-0.0164c1.65395,1.57896 3.04141,1.38457 5.02339,0.33544l0.07476,-0.24106c0,0 0.26763,-0.42235 0.68997,-0.15472c0.42235,0.26763 0.15472,0.68998 0.15472,0.68998z"/><path d="M310.23099,154.99564l-0.45162,0.58963c-2.34684,1.24227 -4.20451,1.39164 -6.18175,-0.49595c0,0 -0.36165,-0.34526 -0.01639,-0.70692c0.34526,-0.36166 0.70692,-0.01639 0.70692,-0.01639c1.65395,1.57896 3.04141,1.38457 5.02338,0.33544l0.07477,-0.24107c0,0 0.26763,-0.42234 0.68998,-0.15471c0.42235,0.26763 0.15472,0.68997 0.15472,0.68997z"/><path d="M316.1725,154.85045l-0.45162,0.58962c-2.34684,1.24227 -4.2045,1.39165 -6.18174,-0.49594c0,0 -0.36165,-0.34526 -0.01639,-0.70692c0.34526,-0.36166 0.70692,-0.01639 0.70692,-0.01639c1.65395,1.57896 3.04141,1.38457 5.02339,0.33544l0.07477,-0.24106c0,0 0.26763,-0.42235 0.68997,-0.15472c0.42235,0.26763 0.15472,0.68997 0.15472,0.68997z"/><path d="M322.11853,154.90056l-0.45162,0.58962c-2.34684,1.24227 -4.2045,1.39165 -6.18174,-0.49594c0,0 -0.36166,-0.34526 -0.0164,-0.70692c0.34526,-0.36166 0.70692,-0.0164 0.70692,-0.0164c1.65395,1.57896 3.04141,1.38457 5.02339,0.33544l0.07477,-0.24106c0,0 0.26762,-0.42235 0.68997,-0.15472c0.42235,0.26763 0.15472,0.68998 0.15472,0.68998z"/><path d="M327.96838,154.93066l-0.45162,0.58962c-2.34684,1.24227 -4.2045,1.39165 -6.18174,-0.49594c0,0 -0.36166,-0.34526 -0.0164,-0.70692c0.34526,-0.36166 0.70692,-0.0164 0.70692,-0.0164c1.65395,1.57896 3.04141,1.38457 5.02338,0.33544l0.07477,-0.24106c0,0 0.26763,-0.42235 0.68998,-0.15472c0.42235,0.26763 0.15472,0.68997 0.15472,0.68997z"/><path d="M333.91304,154.92181l-0.45162,0.58962c-2.34684,1.24227 -4.2045,1.39165 -6.18174,-0.49594c0,0 -0.36166,-0.34526 -0.0164,-0.70692c0.34526,-0.36166 0.70692,-0.01639 0.70692,-0.01639c1.65395,1.57896 3.04141,1.38457 5.02338,0.33544l0.07477,-0.24106c0,0 0.26763,-0.42234 0.68997,-0.15471c0.42235,0.26763 0.15472,0.68997 0.15472,0.68997z"/></g><path d="M339.84044,155.09523l-0.45162,0.58962c-2.34684,1.24227 -4.20451,1.39165 -6.18175,-0.49594c0,0 -0.36165,-0.34526 -0.01639,-0.70692c0.34526,-0.36166 0.70692,-0.0164 0.70692,-0.0164c1.65395,1.57896 3.04141,1.38457 5.02339,0.33544l0.07477,-0.24106c0,0 0.26763,-0.42235 0.68997,-0.15472c0.42235,0.26763 0.15472,0.68998 0.15472,0.68998z" fill="#9a9a9a" stroke="none" stroke-width="0.5" stroke-linecap="butt"/><path d="M345.7851,155.08639l-0.45162,0.58963c-2.34684,1.24227 -4.20451,1.39165 -6.18175,-0.49594c0,0 -0.36165,-0.34525 -0.01639,-0.70691c0.34526,-0.36166 0.70692,-0.0164 0.70692,-0.0164c1.65395,1.57896 3.04141,1.38457 5.02338,0.33544l0.07477,-0.24107c0,0 0.26763,-0.42234 0.68997,-0.15471c0.42235,0.26763 0.15472,0.68997 0.15472,0.68997z" fill="#9a9a9a" stroke="none" stroke-width="0.5" stroke-linecap="butt"/><path d="M351.73113,155.13649l-0.45162,0.58962c-2.34684,1.24227 -4.20451,1.39165 -6.18175,-0.49594c0,0 -0.36165,-0.34525 -0.01639,-0.70691c0.34526,-0.36166 0.70692,-0.0164 0.70692,-0.0164c1.65395,1.57896 3.04141,1.38457 5.02338,0.33544l0.07477,-0.24106c0,0 0.26763,-0.42235 0.68997,-0.15472c0.42235,0.26763 0.15472,0.68997 0.15472,0.68997z" fill="#9a9a9a" stroke="none" stroke-width="0.5" stroke-linecap="butt"/><path d="M357.58099,155.16659l-0.45162,0.58962c-2.34684,1.24227 -4.2045,1.39165 -6.18174,-0.49594c0,0 -0.36166,-0.34526 -0.0164,-0.70692c0.34526,-0.36166 0.70692,-0.0164 0.70692,-0.0164c1.65395,1.57896 3.04141,1.38457 5.02338,0.33544l0.07477,-0.24106c0,0 0.26763,-0.42235 0.68997,-0.15472c0.42235,0.26763 0.15472,0.68998 0.15472,0.68998z" fill="#9a9a9a" stroke="none" stroke-width="0.5" stroke-linecap="butt"/><path d="M363.61647,156.54565l-0.56038,-0.3093c-0.04721,-0.07083 -0.09123,-0.14458 -0.13172,-0.22066c-2.2728,1.08659 -4.07887,1.12937 -5.9529,-0.74468c0,0 -0.35355,-0.35355 0,-0.70711c0.35355,-0.35356 0.70711,0 0.70711,0c1.60023,1.60022 2.97978,1.45788 4.95243,0.48259c-0.00347,-0.03949 -0.0059,-0.07897 -0.00726,-0.1184c0,0 0,-0.5 0.5,-0.5c0.29416,0 0.41526,0.17306 0.46511,0.31555c0.15003,0.17313 0.11178,0.36965 0.06673,0.48586c0.04084,0.15532 0.11671,0.30391 0.21424,0.42561l0.11804,-0.03794c0,0 0.65803,0.1857 0.47233,0.64993c-0.1857,0.46424 -0.84372,0.27854 -0.84372,0.27854z" fill="#9a9a9a" stroke="none" stroke-width="0.5" stroke-linecap="butt"/><path d="M324.33553,171.38246l0.36606,0.26315c0.80358,1.4104 0.93673,2.54648 -0.1558,3.80394c0,0 -0.19983,0.23 -0.42594,0.02673c-0.22611,-0.20327 -0.02628,-0.43328 -0.02628,-0.43328c0.91389,-1.05186 0.7645,-1.89843 0.08585,-3.08955l-0.14711,-0.04018c0,0 -0.26091,-0.15422 -0.1093,-0.41962c0.15161,-0.2654 0.41251,-0.11119 0.41251,-0.11119z" fill="#9a9a9a" stroke="none" stroke-width="0.5" stroke-linecap="butt"/><path d="M324.14323,167.67047l0.36606,0.26315c0.80358,1.4104 0.93673,2.54647 -0.15579,3.80393c0,0 -0.19983,0.23 -0.42595,0.02673c-0.22611,-0.20327 -0.02627,-0.43328 -0.02627,-0.43328c0.91389,-1.05186 0.7645,-1.89842 0.08585,-3.08954l-0.14711,-0.04019c0,0 -0.26091,-0.15422 -0.1093,-0.41962c0.15161,-0.2654 0.41252,-0.11118 0.41252,-0.11118z" fill="#9a9a9a" stroke="none" stroke-width="0.5" stroke-linecap="butt"/><path d="M324.16658,163.75556l0.36606,0.26315c0.80358,1.4104 0.93673,2.54647 -0.1558,3.80393c0,0 -0.19982,0.23001 -0.42593,0.02674c-0.22611,-0.20327 -0.02628,-0.43328 -0.02628,-0.43328c0.91389,-1.05186 0.7645,-1.89843 0.08585,-3.08955l-0.14711,-0.04018c0,0 -0.26092,-0.15422 -0.10931,-0.41962c0.15161,-0.2654 0.41252,-0.11119 0.41252,-0.11119z" fill="#9a9a9a" stroke="none" stroke-width="0.5" stroke-linecap="butt"/><path d="M323.97427,160.04357l0.36606,0.26314c0.80358,1.4104 0.93673,2.54647 -0.1558,3.80394c0,0 -0.19983,0.23 -0.42594,0.02673c-0.22611,-0.20327 -0.02628,-0.43328 -0.02628,-0.43328c0.91389,-1.05186 0.7645,-1.89842 0.08585,-3.08954l-0.14712,-0.04018c0,0 -0.2609,-0.15422 -0.10929,-0.41962c0.15161,-0.2654 0.41251,-0.11118 0.41251,-0.11118z" fill="#9966ff" stroke="none" stroke-width="0.5" stroke-linecap="butt"/><path d="M307.83319,171.44773c0.15161,0.2654 -0.1093,0.41962 -0.1093,0.41962l-0.14711,0.04018c-0.67865,1.19112 -0.82804,2.03768 0.08585,3.08954c0,0 0.19984,0.23001 -0.02628,0.43329c-0.22611,0.20327 -0.42594,-0.02673 -0.42594,-0.02673c-1.09253,-1.25746 -0.95938,-2.39354 -0.1558,-3.80394l0.36606,-0.26314c0,0 0.2609,-0.15422 0.41251,0.11119z" fill="#9a9a9a" stroke="none" stroke-width="0.5" stroke-linecap="butt"/><path d="M308.02555,167.73574c0.15161,0.2654 -0.1093,0.41962 -0.1093,0.41962l-0.14711,0.04019c-0.67865,1.19112 -0.82804,2.03768 0.08585,3.08954c0,0 0.19984,0.23001 -0.02627,0.43328c-0.22611,0.20327 -0.42595,-0.02673 -0.42595,-0.02673c-1.09253,-1.25746 -0.95937,-2.39353 -0.15579,-3.80393l0.36605,-0.26315c0,0 0.26091,-0.15422 0.41252,0.11118z" fill="#9a9a9a" stroke="none" stroke-width="0.5" stroke-linecap="butt"/><path d="M308.00218,163.82081c0.15161,0.2654 -0.10931,0.41962 -0.10931,0.41962l-0.14711,0.04018c-0.67865,1.19112 -0.82804,2.03769 0.08585,3.08955c0,0 0.19983,0.23001 -0.02628,0.43328c-0.22611,0.20327 -0.42593,-0.02674 -0.42593,-0.02674c-1.09253,-1.25746 -0.95938,-2.39353 -0.1558,-3.80393l0.36606,-0.26314c0,0 0.26091,-0.15422 0.41252,0.11118z" fill="#9a9a9a" stroke="none" stroke-width="0.5" stroke-linecap="butt"/><path d="M308.1945,160.10883c0.15161,0.2654 -0.10929,0.41963 -0.10929,0.41963l-0.14711,0.04018c-0.67865,1.19112 -0.82804,2.03768 0.08585,3.08954c0,0 0.19983,0.23001 -0.02628,0.43328c-0.22611,0.20327 -0.42594,-0.02673 -0.42594,-0.02673c-1.09253,-1.25746 -0.95938,-2.39353 -0.1558,-3.80393l0.36606,-0.26315c0,0 0.2609,-0.15422 0.41251,0.11118z" fill="#9966ff" stroke="none" stroke-width="0.5" stroke-linecap="butt"/><path d="M267.685,166.29204v-8.59169h96.69061v8.59169z" fill="#000000" stroke="none" stroke-width="0" stroke-linecap="butt"/><path d="M305.24849,166.92855v-9.70884h21.84491v9.70884z" fill="#f1cb05" stroke="#b19016" stroke-width="0.5" stroke-linecap="butt"/><path d="M308.28253,165.56324v-6.82654h16.08028v6.82654z" fill="#000000" stroke="#b19016" stroke-width="0.5" stroke-linecap="butt"/><path d="M307.65807,172.94287c-0.09806,-0.49029 0.39223,-0.58835 0.39223,-0.58835l0.40629,-0.07136c1.58959,0.03839 1.21782,-1.71074 2.49821,-2.07212c2.17915,-0.61506 5.4193,0.20809 7.5686,0.59907c1.68561,0.24064 3.72758,0.3052 5.15631,1.39168c0.28496,0.21669 0.89995,1.11155 0.94129,1.60773c0.04444,0.53331 -1.97678,0.62097 -2.01564,1.26024c-0.11143,1.83308 0.96431,3.8502 0.05131,4.33348c-0.69271,0.36667 -2.40231,-0.14037 -3.22702,-0.14037c-2.44121,0 -7.80618,0.91706 -9.85668,-0.47101c-1.18768,-0.80399 -1.27349,-2.88009 -1.87182,-4.05899c0,0 -0.3469,-0.32393 0.10032,-0.54753c0.44722,-0.2236 0.67082,0.22361 0.67082,0.22361c0.49761,1.00761 0.71913,2.89895 1.70367,3.58515c0.74864,0.52178 2.24734,0.20711 3.08906,0.20711c2.05564,0 4.1075,0.06165 6.16464,0.06165c0.67102,0 2.29599,0.43667 2.81433,0.2295c0.31236,-0.12484 0.26422,-1.13576 0.35162,-1.37631c0.17506,-0.48183 0.61163,-1.32032 0.83925,-2.13826c0.22174,-0.79678 0.2452,-1.57406 -0.36452,-1.98314c-1.37374,-0.92167 -3.13285,-0.97243 -4.70711,-1.19747c-2.22753,-0.4048 -4.8246,-0.92629 -7.10324,-0.63386c-0.8798,0.11291 -1.17183,2.09285 -2.80338,2.11983l-0.21017,0.05193c0,0 -0.49029,0.09806 -0.58835,-0.39223z" fill="#ffffff" stroke="none" stroke-width="0.5" stroke-linecap="butt"/><path d="M324.48462,173.92363c0,0.5281 -0.24154,1.08325 -0.66818,1.61685c-0.23217,0.29038 2.31657,0.4511 1.98385,0.7209c-1.44056,1.16815 -6.574,2.19325 -8.99064,2.19325c-4.00045,0 -7.24345,-1.6698 -7.24345,-3.7296c0,-2.05981 3.243,-3.7296 7.24345,-3.7296c4.00045,0 7.67497,0.8684 7.67497,2.9282z" fill="#ffffff" stroke="none" stroke-width="0" stroke-linecap="butt"/><path d="M316.22404,176.51277c0,1.75339 -1.794,3.17479 -4.00702,3.17479c-2.21301,0 -4.00701,-1.4214 -4.00701,-3.17479c0,-1.75339 1.794,-3.17479 4.00701,-3.17479c2.21301,0 4.00702,1.4214 4.00702,3.17479z" fill="#ffffff" stroke="none" stroke-width="0" stroke-linecap="butt"/><path d="M308.54906,176.66689c-0.42558,0 -0.77058,-0.0828 -0.77058,-0.18494c0,-0.10213 0.345,-0.18493 0.77058,-0.18493c0.42558,0 0.77058,0.08279 0.77058,0.18493c0,0.10214 -0.345,0.18494 -0.77058,0.18494z" fill="#ffffff" stroke="none" stroke-width="0" stroke-linecap="butt"/><path d="M371.4178,174.18466c-2.46185,0.0308 -4.63275,-0.5555 -4.63275,-0.5555c0,0 -1.40521,-14.80775 -1.65788,-25.06667c-0.11634,-4.72326 0.92703,-8.38262 1.54893,-10.25756c0.44008,-1.32678 3.01549,-5.28819 3.31294,-6.41978c0.98882,-3.76172 -1.52545,-9.57264 -1.52545,-9.57264c0,0 1.9417,-0.81493 3.90355,0.83904c1.49902,1.26378 3.00982,4.75137 3.67518,6.49044c1.76635,4.6168 0.88359,43.27878 0.88359,43.27878c0,0 -3.51772,1.23899 -5.5081,1.26389z" fill="#ec2b51" stroke="#971b34" stroke-width="0.5" stroke-linecap="round"/><path d="M257.04525,171.10887c0,0 -0.88276,-38.66198 0.88359,-43.27878c0.66536,-1.73907 2.17615,-5.22666 3.67517,-6.49044c1.96184,-1.65397 3.90355,-0.83904 3.90355,-0.83904c0,0 -2.51426,5.81092 -1.52545,9.57264c0.29744,1.13159 2.87285,5.093 3.31294,6.41978c0.62189,1.87494 1.66527,5.5343 1.54893,10.25757c-0.25268,10.25892 -1.65788,25.06667 -1.65788,25.06667c0,0 -2.17089,0.5863 -4.63274,0.5555c-1.99038,-0.0249 -5.5081,-1.26389 -5.5081,-1.26389z" fill="#ec2b51" stroke="#971b34" stroke-width="0.5" stroke-linecap="round"/><g stroke="none" stroke-width="0.5" stroke-linecap="butt"><path d="M369.48145,113.65266c-0.2333,-0.29272 -0.59363,-1.92529 -1.33713,-1.66348c-0.81018,0.28529 -2.4439,3.13705 -3.02373,3.84375c-0.41425,0.32426 -0.72031,1.00392 -1.02837,1.39917c-0.62294,0.7992 -1.12304,1.35295 -1.62494,1.87684c-1.81964,1.8994 -2.97706,2.81868 -5.67757,5.46528c-3.97502,3.89371 -7.92217,6.41945 -11.80312,10.23233c-2.70449,2.62921 -5.41947,2.85064 -8.79468,4.64012c-1.07808,0.57158 -2.64015,0.6162 -3.52372,1.31635c-5.58162,2.7416 -10.12658,3.74458 -16.40357,3.69085c-5.2526,-0.04496 -12.1319,1.09132 -16.96672,-1.17314c-5.41732,-2.54874 -17.35315,-2.42014 -21.75884,-6.89476c-1.93729,-2.64278 -3.4952,-3.27404 -5.12689,-6.19311c-1.28033,-2.2905 -2.60763,-3.71382 -4.22468,-5.7158c-1.33982,-2.16625 -2.7171,-4.30348 -3.88215,-6.48413c-0.79996,-1.4973 -0.99783,-3.548 -2.09432,-4.76261c-2.77354,2.76224 -4.54677,6.54546 -4.58116,10.4722c-0.01446,1.64934 -0.33454,3.26912 0.18295,4.80171c0.58912,1.74478 4.26092,-0.37743 4.62816,-1.30782c0,0 0.1748,-0.42497 0.60096,-0.25074c0.29531,0.12074 0.30203,0.36186 0.27835,0.49857c0.00649,0.04194 0.00624,0.0697 0.00624,0.0697c-0.04206,3.15237 -3.40586,7.93434 0.24753,10.62065c1.89957,0.96377 3.17138,0.52765 4.88278,0.11238c0.00608,-0.02341 0.01211,-0.04665 0.01808,-0.06982c0,0 0.11561,-0.44462 0.56148,-0.3294c0.07119,0.01839 0.12808,0.04519 0.1734,0.07724l0.01784,-0.01217c0,0 0.38546,-0.25148 0.63762,0.13285c0.25214,0.38434 -0.13333,0.63582 -0.13333,0.63582l-0.50129,0.31661c-0.00996,0.00147 -0.0199,0.00293 -0.02981,0.00442c-0.86765,2.98509 -1.48247,7.91643 1.43854,10.09209c2.45128,1.66567 4.9074,1.39566 6.68847,-0.8389c0.00613,-0.08279 0.37558,-4.73485 0.78312,-4.73136c0.01599,0.00015 0.03142,0.00082 0.0463,0.00202c0.05592,-0.00813 0.12,-0.00592 0.19327,0.01098c0.44875,0.10348 0.02555,4.84385 0.02555,4.84385c-0.9471,3.98981 2.2639,6.78478 4.1861,10.70306c0.29553,0.6034 0.38198,1.34331 0.65281,1.90643c0.09844,0.20465 1.22807,0.72754 1.42331,0.87581c1.42239,1.08035 5.88388,2.09335 7.17132,0.30291l0.26968,-0.39617c0.04948,-0.0835 0.13348,-0.17521 0.27072,-0.20419c0.08354,-0.02518 0.18404,-0.02607 0.29736,0.02819c0.11786,0.04357 0.18704,0.11626 0.22694,0.19365c0.07454,0.11871 0.0666,0.24284 0.04068,0.33638c-0.93028,4.39776 2.95097,6.76765 5.24919,9.8005c4.00736,3.37391 8.65712,1.31441 8.75653,-4.03429c0.29188,-0.58737 0.40114,-1.13023 0.56157,-1.75541c0.00059,-0.02868 0.00101,-0.05708 0.00125,-0.08525c0,0 0.00253,-0.28781 0.23205,-0.40582c0.07915,-0.10564 0.27343,-0.29313 0.57909,-0.13745c0.41017,0.20893 0.20058,0.61796 0.20058,0.61796l-0.09801,0.16914c-0.04706,0.93268 -0.28449,2.26377 0.07824,3.0611c1.23424,2.71317 4.81603,2.41379 7.34651,2.4404c3.44481,-0.5254 4.60395,-5.29234 5.23895,-8.12666l-0.12212,-0.45801c0,0 -0.10782,-0.44652 0.34002,-0.55409c0.44782,-0.10756 0.55563,0.33895 0.55563,0.33895l0.01173,0.05241c0.09525,0.10191 0.12557,0.22748 0.12557,0.22748c0.21559,1.06382 1.3062,1.22895 2.19801,1.50506c3.07992,0.95358 5.62211,3.74721 8.26426,1.68522c2.40156,-3.62119 1.9003,-7.39901 1.93761,-11.65776l0.00307,-0.34934c-0.01843,-0.09272 -0.01026,-0.20314 0.06844,-0.31324c0.04331,-0.07736 0.1143,-0.15209 0.2306,-0.18826c0.11185,-0.0481 0.21452,-0.03748 0.29792,-0.00693c0.13277,0.0327 0.21126,0.11224 0.2577,0.19535c0.97793,1.14831 1.76793,3.07256 2.91816,3.94543c2.03621,1.54519 4.11094,-0.32511 5.24017,-1.79883c0.93319,-1.36984 2.37303,-2.56221 3.06513,-4.07502c0.63305,-1.38375 0.55325,-3.837 0.5668,-5.38364l0.13677,-0.45656c0.00468,-0.08976 -0.59956,-1.96006 -0.50303,-2.05076c0.05797,-0.06541 0.14244,-0.12739 0.25952,-0.14081c0.11571,-0.02222 0.21494,0.01166 0.28988,0.05672c0.11077,0.05352 0.17314,0.12879 0.20666,0.20669c0.91036,1.20539 4.72727,6.56748 6.27428,4.64619c0.82464,-1.02414 0.38121,-3.72208 0.68392,-4.91296c0.69852,-2.68375 0.42173,-5.28726 0.90148,-8.03914l-0.00327,-0.34259c0,0 0.00402,-0.45929 0.46462,-0.45534c0.03419,0.00029 0.06584,0.0031 0.0951,0.00803c0.24717,-0.07396 0.44937,0.13115 0.44937,0.13115l0.06883,0.08255c3.2541,2.20388 6.8577,2.97448 10.38434,0.6463c3.6252,-2.36325 0.34115,-8.38087 -0.9374,-11.31907c-0.02105,-0.01244 -0.04194,-0.02497 -0.06266,-0.03756c0,0 -0.3929,-0.23968 -0.15248,-0.63148c0.13753,-0.22413 0.32495,-0.24161 0.46017,-0.21553c0.26797,-0.05582 0.41531,0.13282 0.47285,0.23219c1.9684,1.02269 5.71839,1.44452 6.4325,-1.35577c0.22777,-0.89322 0.00659,-2.15816 0.01482,-3.09957c0.02515,-2.87074 -1.51159,-3.15025 -3.02558,-5.71733c-0.13956,-0.14342 -0.32632,-0.26533 -0.44879,-0.419zM261.51254,112.13141c0.29087,-0.35618 0.64803,-0.06619 0.64803,-0.06619c1.71897,1.41706 1.86373,3.69088 2.8645,5.543c1.16016,2.14709 2.50728,4.25868 3.83135,6.40279c2.93905,3.80843 4.47858,6.31806 8.61289,8.77769c0.46439,0.27628 0.97259,0.51584 1.41552,1.11129c4.29633,4.35349 15.43569,6.13333 20.71903,8.60933c4.68009,2.20339 11.49259,1.0421 16.5822,1.08566c6.1269,0.05243 10.45904,-0.91434 15.91806,-3.55781c1.01676,-0.70523 2.41596,-0.72727 3.56791,-1.34141c3.27321,-1.74507 5.97675,-1.9068 8.58226,-4.48463c3.88944,-3.80307 7.82369,-6.33038 11.80313,-10.23233c2.64625,-2.5934 3.77989,-3.5424 5.53208,-5.39575c0.77056,-0.81504 1.48961,-2.82629 2.79882,-3.85346c0.66392,-0.817 2.42963,-3.31832 3.46562,-3.57652c1.29915,-0.32381 2.76957,2.10033 3.01701,2.93483c0,0 2.94062,3.35929 2.91951,5.76867c-0.00892,1.01789 0.21454,2.33877 -0.04133,3.3104c-0.79985,3.03739 -4.31647,3.24672 -6.8505,2.34218c1.46584,3.53437 4.18277,8.96541 0.24711,11.53499c-3.72511,2.40653 -7.60638,1.80048 -11.09532,-0.44946c-0.43795,2.67869 -0.19337,5.24612 -0.8777,7.88023c-0.34285,1.28336 0.05256,4.22686 -0.89042,5.29636c-1.9009,2.15595 -4.30674,-0.44535 -5.90141,-2.27421c-0.01269,1.6358 -0.59298,3.80177 -1.17555,5.16135c-0.67738,1.58082 -2.19472,2.82072 -3.15694,4.23317c-1.43103,1.86955 -4.09294,3.8643 -6.53271,2.00243c-0.92499,-0.70589 -1.59673,-1.95163 -2.31107,-3.04528c0.01002,2.39764 0.91574,4.95473 0.57975,7.60851c-0.23859,1.88452 -1.4599,3.96043 -2.47571,5.42375c-3.01358,2.37127 -6.05984,-2.10393 -9.51808,-3.16692c-0.81672,-0.25104 -1.57152,-0.47781 -2.11155,-0.97597c-0.75227,3.29948 -2.26348,7.4535 -5.87573,8.03578c-2.87858,-0.0195 -6.86802,0.18857 -8.23243,-2.92757c-0.97084,4.82277 -6.21848,6.1192 -10.16676,2.76806c-2.20904,-3.08172 -5.70451,-5.24169 -5.63493,-9.23425c-4.44461,2.78931 -9.27511,-0.19222 -12.16802,-4.5701c-1.86447,-2.82152 -3.28382,-6.08515 -2.59635,-8.93696c-2.00011,1.67925 -4.54467,1.67847 -6.99071,0.0265c-3.19928,-2.47738 -2.87176,-7.23915 -1.9016,-10.65526c-1.73659,0.3582 -3.0745,0.77106 -5.11622,-0.27281c-3.69156,-2.87594 -1.33234,-6.74854 -0.78339,-10.2014c-1.57285,1.26001 -4.4009,2.17655 -5.30269,0.22029c-0.71938,-1.56056 -0.30289,-3.55421 -0.28815,-5.23608c0.03646,-4.16299 1.90916,-8.18121 4.84548,-11.10829c-0.07286,-0.11814 -0.12624,-0.30489 0.04501,-0.5146z" fill="#b9b9b9"/><path d="M371.46981,115.92632c0.90152,0.89897 1.58095,2.24134 1.56503,4.0581c-0.00826,0.94141 0.12887,1.99636 -0.09891,2.88958c-0.7141,2.80028 -4.55126,2.4082 -6.51965,1.38551c-0.05755,-0.09938 -0.20476,-0.28769 -0.47273,-0.23187c-0.13523,-0.02608 -0.2359,-0.03957 -0.37344,0.18455c-0.24043,0.3918 0.15265,0.63205 0.15265,0.63205c0.02072,0.0126 0.04164,0.02517 0.06269,0.03761c1.27854,2.9382 4.56482,8.966 0.93964,11.32924c-3.52664,2.32818 -7.22164,1.56897 -10.47574,-0.63491l-0.06881,-0.08245c0,0 -0.20214,-0.2049 -0.44933,-0.13092c-0.02926,-0.00493 0.03012,-0.02183 -0.00407,-0.02213c-0.46059,-0.00394 -0.46455,0.4558 -0.46455,0.4558l0.00332,0.343c-0.47974,2.75187 -0.20268,5.36531 -0.9012,8.04908c-0.30272,1.19089 0.14017,3.89297 -0.68446,4.91712c-1.547,1.9213 -5.45505,-3.4537 -6.36544,-4.65912c-0.03353,-0.07789 -0.09592,-0.15289 -0.20669,-0.20641c-0.07496,-0.04506 -0.08253,-0.06949 -0.19825,-0.04728c-0.11706,0.01341 -0.20158,0.07566 -0.25954,0.14107c-0.0629,0.05911 0.46783,0.73786 0.7597,1.30915c0.15598,0.30529 0.15746,0.6628 0.15583,0.69406c0,0 -0.15998,3.80283 -1.11815,5.89723c-0.6921,1.5128 -2.13508,2.71245 -3.06826,4.08229c-1.12924,1.47372 -3.20809,3.35039 -5.24431,1.80519c-1.15024,-0.87287 -2.01489,-2.85083 -2.99282,-3.99913c-0.04644,-0.08311 -0.04845,-0.11148 -0.18122,-0.14418c-0.0834,-0.03055 -0.18629,-0.04082 -0.29814,0.00727c-0.11628,0.03616 -0.18765,0.11146 -0.23097,0.18881c-0.0787,0.11011 -0.08729,0.22107 -0.06885,0.3138l-0.00345,0.34989c-0.02036,2.32482 0.67591,5.59972 0.52986,8.16111c-0.1215,2.13073 -0.9588,3.59048 -2.04937,5.23489c-2.64214,2.06199 -5.62749,-2.45303 -8.70742,-3.40661c-0.89181,-0.27611 -1.98591,-0.44046 -2.2015,-1.50429c0,0 -0.03048,-0.12552 -0.12574,-0.22744l-0.01174,-0.05241c0,0 -0.10883,-0.44635 -0.55664,-0.33879c-0.44782,0.10756 -0.34087,0.55421 -0.34087,0.55421l0.12224,0.45798c-0.63499,2.8343 -1.80363,7.60158 -5.24844,8.12699c-2.53045,-0.02659 -6.12373,0.2705 -7.35798,-2.44266c-0.36272,-0.79733 -0.12699,-2.12902 -0.07992,-3.0617l0.09806,-0.16912c0,0 0.20891,-0.40929 -0.20126,-0.61822c-0.30567,-0.15569 -0.50072,0.03149 -0.57987,0.13713c-0.22953,0.11798 -0.19652,0.32103 -0.19652,0.32103c-0.00025,0.02816 -0.00073,0.05655 -0.00131,0.08523c-0.16042,0.62518 -0.30498,1.2529 -0.59686,1.84027c-0.09942,5.3487 -4.75653,7.40439 -8.76389,4.03048c-2.29823,-3.03284 -6.18991,-5.41188 -5.25962,-9.80963c0.02594,-0.09354 0.03362,-0.21798 -0.04093,-0.33669c-0.03988,-0.0774 -0.10932,-0.15041 -0.22719,-0.19397c-0.11331,-0.05425 -0.214,-0.05359 -0.29754,-0.02842c-0.13724,0.02899 -0.14923,0.06339 -0.1987,0.14689l-0.34157,0.45359c-0.6035,0.8393 -2.15008,1.3152 -2.9531,1.51259c-2.55755,0.62869 -5.04625,-1.56768 -7.42303,-3.84606c-0.80846,-0.775 -2.49092,-3.28332 -2.73089,-3.78759c-1.83712,-3.86054 -1.20899,-5.96689 -0.3616,-9.53672c0,0 -0.90332,1.31884 -0.93205,1.70651c-1.7811,2.23454 -4.32771,2.52164 -6.779,0.85598c-2.92098,-2.17566 -2.30686,-7.11793 -1.43922,-10.10302c0.00994,-0.00149 0.01986,-0.00297 0.02981,-0.00443l0.50131,-0.31696c0,0 0.38553,-0.25217 0.13339,-0.63651c-0.19806,-0.30188 -0.47674,-0.0635 -0.79459,0.07959c-1.99359,0.89751 -3.54694,0.9991 -5.49666,0.00989c-3.65338,-2.6863 -0.28794,-7.47776 -0.24586,-10.63012c0,0 0.00027,-0.0278 -0.00621,-0.06975c0.02371,-0.13669 0.10541,-0.35214 -0.1899,-0.47288c-0.42616,-0.17423 -0.60086,0.25039 -0.60086,0.25039c-0.12058,0.30547 -0.80195,1.32183 -1.42183,1.70184c-1.26808,0.77738 -3.28966,0.65709 -3.68536,-0.51484c-0.51749,-1.53259 -0.14765,-2.71723 -0.1332,-4.36658c0.0344,-3.92676 2.15235,-8.05925 4.9259,-10.82148c1.09649,1.21461 1.37599,3.30781 2.17595,4.80511c1.16505,2.18066 2.4952,3.82678 3.83501,5.99301c0.78837,0.97604 1.02087,1.66688 1.70008,2.53392c0.54768,0.69913 1.03348,1.21135 1.4906,1.73763c1.39208,1.60274 2.06514,2.58255 3.42047,3.58381c5.64895,4.17321 6.02357,4.97266 11.38948,6.94907c2.70654,0.99689 9.95379,2.94739 13.15924,4.45549c4.83483,2.26445 11.68213,1.09841 16.93474,1.14336c6.27697,0.05373 10.76577,-0.91666 16.34739,-3.65827c0.88359,-0.70014 2.44454,-0.73933 3.52262,-1.3109c3.37521,-1.78948 6.09053,-1.99588 8.79504,-4.62509c3.88094,-3.8129 7.831,-6.32912 11.80603,-10.22283c3.40988,-3.34176 3.95568,-3.42769 7.09833,-7.22072c0.37225,-0.44928 0.78094,-0.95059 1.23514,-1.51548c0.57985,-0.7067 2.29256,-3.60571 3.10273,-3.89102c0,0 0.57796,-0.05999 1.06827,0.5383c0.32884,0.40127 2.26672,3.42289 2.26672,3.42289z" fill="#ffffff"/></g></g></g></svg>