<svg version="1.1" xmlns="http://www.w3.org/2000/svg" xmlns:xlink="http://www.w3.org/1999/xlink" width="60.54833" height="58.56992" viewBox="0,0,60.54833,58.56992"><g transform="translate(-295.74152,-21.0339)"><g data-paper-data="{&quot;isPaintingLayer&quot;:true}" fill-rule="nonzero" stroke-linejoin="miter" stroke-miterlimit="10" stroke-dasharray="" stroke-dashoffset="0" style="mix-blend-mode: normal"><path d="M314.7847,62.97806v-8.9896h12.6912v8.9896z" fill="#fcfa43" stroke="none" stroke-width="0" stroke-linecap="butt"/><path d="M310.2341,76.20848c0,0 -1.66985,-4.43572 -2.04141,-7.01161c-0.41729,-2.89281 -1.35325,-9.2946 -1.35325,-9.2946c0,0 1.09417,-5.35694 2.07613,-7.4665c0.85351,-1.83357 3.01799,-5.14704 3.01799,-5.14704c0,0 3.44321,-3.51737 5.35248,-4.82651c2.02593,-1.38913 6.47389,-3.28255 6.47389,-3.28255c0,0 3.16493,0.18967 4.4633,0.79079c2.12565,0.98415 7.08238,4.55471 7.08238,4.55471c0,0 3.5475,2.81944 4.80741,4.33414c1.08623,1.30591 2.30854,4.22091 2.30854,4.22091l0.86383,4.03144l-8.98532,11.634l-5.83342,2.62076l-2.03626,-0.49819l1.03401,-2.35246l-1.64544,-5.02079l-5.23551,-3.32723l-4.07255,0.1464z" fill="#fffb50" stroke="#000000" stroke-width="0" stroke-linecap="round"/><path d="M309.17379,75.97762l0.00643,0.08024c0.43148,-2.63231 -1.53295,-4.59059 -1.67644,-7.05361c-0.03333,-3.74917 -1.70964,-7.34927 -0.69231,-11.263c0.86516,-4.07684 2.55556,-8.13757 5.41868,-11.23038c3.09034,-3.33827 5.96908,-5.86094 10.25251,-7.47467c3.97551,-0.96 7.55491,1.22445 10.7236,3.1489c3.13104,2.72864 7.64529,5.64157 9.14829,9.655c2.44069,3.75036 -0.50511,8.98335 -3.11046,11.79774c-3.23361,3.49304 -6.03407,6.34849 -10.66584,7.69514c-0.50984,0.09334 -1.75253,0.52561 -2.24044,0.23991c-0.88128,-0.51608 0.09248,-1.8359 0.13583,-2.53636c0.1059,-1.71084 -0.49964,-4.53765 -1.81656,-5.73502c-1.75565,-1.62526 -3.49173,-3.13619 -6.04779,-3.05761c-0.65256,0.02005 -1.28392,0.51135 -1.91143,0.66595c0,0 -0.34287,0.08243 -0.42529,-0.26042c-0.08242,-0.34287 0.26042,-0.42529 0.26042,-0.42529c0.68884,-0.1607 1.30328,-0.65142 2.02956,-0.68394c2.7433,-0.12281 4.69161,1.50154 6.57362,3.24378c1.05081,0.98717 2.20545,3.97977 2.10653,5.39401c-0.04726,0.67561 -0.15686,1.24756 -0.3438,1.88989c-0.08537,0.29334 -0.5184,0.86886 -0.21371,0.89126c0.52443,0.03857 1.21702,-0.2191 1.73092,-0.3125c4.4857,-1.30972 7.17507,-4.10097 10.31044,-7.48787c2.40956,-2.60287 5.28658,-7.51616 2.99909,-10.99947c-1.48261,-3.91292 -5.88055,-6.73502 -8.93593,-9.40508c-2.95804,-1.79985 -6.37279,-3.93537 -10.09989,-3.04384c-4.16139,1.56778 -6.93958,4.03621 -9.94213,7.27963c-2.77134,2.99367 -4.43446,6.96228 -5.25025,10.91509c-1.04886,3.75657 0.49915,7.43471 0.71107,11.07201c0.0223,2.50858 2.09854,4.44998 1.66809,7.19233l-0.18526,0.2873c0,0 -0.23955,0.25877 -0.49832,0.01921c-0.25877,-0.23955 -0.01923,-0.49832 -0.01923,-0.49832z" data-paper-data="{&quot;index&quot;:null}" fill="#8c871f" stroke="none" stroke-width="0.5" stroke-linecap="butt"/><path d="M305.77896,77.00529v-39.45808h40.44701v39.45809z" fill="#ffffff" stroke="#000000" stroke-width="0.5" stroke-linecap="butt"/><path d="M321.30507,64.08335v-17.76767h7.61472v17.76767z" fill="#ff0000" stroke="none" stroke-width="0" stroke-linecap="butt"/><path d="M315.07484,58.08387v-6.23022h20.07517v6.23022z" fill="#ff0000" stroke="none" stroke-width="0" stroke-linecap="butt"/><path d="M346.6459,77.3529c-0.37838,0.18919 -0.56757,-0.18919 -0.56757,-0.18919l-0.07459,-0.19772c-0.22828,-0.22885 -0.46721,-0.44811 -0.71973,-0.6499c-3.60213,-2.4057 -8.23853,-3.4566 -12.51841,-3.4566c-5.07262,0 -10.72461,-0.67816 -15.70431,0.33567c-1.72814,0.24359 -3.35873,0.91766 -5.01948,1.41587c-2.06147,0.61843 -5.04451,0.6427 -6.48193,2.47393c0,0 -0.26427,0.33033 -0.59461,0.06607c-0.33033,-0.26427 -0.06607,-0.59461 -0.06607,-0.59461c1.63405,-2.0123 4.59409,-2.06415 6.90151,-2.75638c1.69403,-0.50821 3.3546,-1.18374 5.11647,-1.43859c5.0319,-1.01986 10.72354,-0.34803 15.8484,-0.34803c4.46412,0 9.26076,1.1188 13.01782,3.61971c0.28618,0.22916 0.55906,0.47565 0.8186,0.7346l0.23308,0.41761c0,0 0.18919,0.37838 -0.18919,0.56757z" fill="#000000" stroke="none" stroke-width="0.5" stroke-linecap="butt"/><path d="M354.91742,38.06687l1.11527,39.06301l-60.0403,0.55619l0.13437,-39.35332l-0.03966,-16.72597l16.17137,14.95152l12.87037,-14.3162l14.66201,14.3162l14.49846,-14.73456z" fill="#fff942" stroke="#000000" stroke-width="0.5" stroke-linecap="round"/><text transform="translate(303.83333,47.91667) scale(0.25683,0.25683)" font-size="40" xml:space="preserve" fill="#000000" fill-rule="nonzero" stroke="none" stroke-width="1" stroke-linecap="butt" stroke-linejoin="miter" stroke-miterlimit="10" stroke-dasharray="" stroke-dashoffset="0" font-family="&quot;SpongeBoyTT1-Regular&quot;, Sans Serif" font-weight="normal" text-anchor="start" style="mix-blend-mode: normal"><tspan x="0" dy="0">Krusty</tspan><tspan x="0" dy="46.15px">  Krab</tspan></text><text transform="translate(305.16666,73.84217) scale(0.31144,0.31144)" font-size="40" xml:space="preserve" fill="#000000" fill-rule="nonzero" stroke="none" stroke-width="1" stroke-linecap="butt" stroke-linejoin="miter" stroke-miterlimit="10" stroke-dasharray="" stroke-dashoffset="0" font-family="&quot;SpongeBoyTT1-Regular&quot;, Sans Serif" font-weight="normal" text-anchor="start" style="mix-blend-mode: normal"><tspan x="0" dy="0">PIZZA</tspan></text></g></g></svg>