<svg version="1.1" xmlns="http://www.w3.org/2000/svg" xmlns:xlink="http://www.w3.org/1999/xlink" width="113.6154" height="58.8822" viewBox="0,0,113.6154,58.8822"><g transform="translate(-267.24619,-96.61668)"><g data-paper-data="{&quot;isPaintingLayer&quot;:true}" fill-rule="nonzero" stroke-linejoin="miter" stroke-miterlimit="10" stroke-dasharray="" stroke-dashoffset="0" style="mix-blend-mode: normal"><path d="M326.13488,118.39783c0,0.75325 -0.69677,0.75325 -0.69677,0.75325c-0.77943,0 -1.98401,0 -2.76344,0c0,0 -0.69676,0 -0.69676,-0.75325c0,-0.75325 0.20076,-1.21286 0.20076,-1.21286c0.77943,0 0.63772,0 1.41715,0h1.91315c0,0 0.62591,0.45961 0.62591,1.21286z" fill="#000000" stroke="none" stroke-width="0.5" stroke-linecap="butt"/><path d="M318.56778,99.6311c0,0 3.74301,3.11991 4.26824,11.36565c0.43921,6.89534 -2.22806,19.76601 -5.96744,24.71303c-4.99229,6.60456 -11.08249,15.26582 -16.56853,17.9764c-6.28344,3.10457 -11.66764,-0.24774 -11.88322,-0.42929c-0.97746,-0.82316 -2.51051,-2.18441 -4.13279,-3.8964c-5.07479,-5.35539 -12.28109,-14.56741 -14.95184,-24.4677c-0.55697,-2.06464 -1.32636,-4.31329 -1.586,-7.57355c-0.31856,-4.00017 0.38731,-10.29449 1.11921,-12.53162c0.63469,-1.94001 3.02526,-5.98502 7.58792,-6.88572c3.12233,-0.61637 2.23981,-0.05017 6.02196,-0.08961c3.22589,-0.03364 5.05682,0.31273 6.83423,2.54378c1.71021,2.14669 3.68384,6.15139 6.48992,7.5882c0.40791,0.20886 6.70458,-6.96762 7.19001,-6.94493c0,0 1.2962,-1.64918 3.54626,-2.41521c2.04566,-0.69643 5.16941,-1.03207 6.37561,-1.09709c2.70547,-0.14584 5.65646,2.14404 5.65646,2.14404z" fill-opacity="0.56471" fill="#ff00fb" stroke-opacity="0.58039" stroke="#000000" stroke-width="1" stroke-linecap="round"/><path d="M376.04604,98.93545c0,0 3.74301,3.11992 4.26824,11.36566c0.43921,6.89534 -2.22806,19.76601 -5.96744,24.71303c-4.99229,6.60456 -11.08249,15.26582 -16.56853,17.9764c-6.28344,3.10457 -11.66764,-0.24774 -11.88322,-0.42929c-0.97746,-0.82316 -2.51051,-2.18441 -4.13279,-3.8964c-5.07479,-5.35539 -12.28109,-14.56741 -14.95184,-24.46771c-0.55697,-2.06464 -1.32636,-4.31329 -1.586,-7.57355c-0.31856,-4.00017 0.38731,-10.29449 1.11921,-12.53161c0.63469,-1.94001 3.02526,-5.98503 7.58792,-6.88572c3.12233,-0.61637 2.23981,-0.05017 6.02196,-0.08961c3.22589,-0.03364 5.05682,0.31273 6.83423,2.54378c1.71021,2.14669 3.68384,6.15139 6.48992,7.5882c0.40791,0.20886 6.70458,-6.96762 7.19001,-6.94493c0,0 1.2962,-1.64918 3.54626,-2.41521c2.04566,-0.69643 5.16941,-1.03207 6.37561,-1.09709c2.70547,-0.14584 5.65646,2.14404 5.65646,2.14404z" fill-opacity="0.56471" fill="#ff00fb" stroke-opacity="0.58039" stroke="#000000" stroke-width="1" stroke-linecap="round"/></g></g></svg>