<svg version="1.1" xmlns="http://www.w3.org/2000/svg" xmlns:xlink="http://www.w3.org/1999/xlink" width="98.23474" height="89.44111" viewBox="0,0,98.23474,89.44111"><g transform="translate(-266.81551,-149.96137)"><g data-paper-data="{&quot;isPaintingLayer&quot;:true}" fill-rule="nonzero" stroke-linejoin="miter" stroke-miterlimit="10" stroke-dasharray="" stroke-dashoffset="0" style="mix-blend-mode: normal"><path d="" fill="#000000" stroke="none" stroke-width="0.5" stroke-linecap="butt"/><path d="" fill="#66f4ff" stroke="none" stroke-width="0.5" stroke-linecap="butt"/><path d="" data-paper-data="{&quot;index&quot;:null}" fill="#66f4ff" stroke="none" stroke-width="0.5" stroke-linecap="butt"/><path d="" fill="#66f4ff" stroke="none" stroke-width="0.5" stroke-linecap="butt"/><path d="" fill="#66f4ff" stroke="none" stroke-width="0.5" stroke-linecap="butt"/><path d="M364.58367,153.79806l0.21483,30.45839l-95.55392,0.51537l-1.60097,0.02113l-0.38961,-33.16605c0,0 0.84832,1.28181 2.2348,1.30181c0.64898,0.00937 1.14574,0.65774 2.59193,0.64795c0.62637,-0.00423 6.41712,-2.44586 7.17619,-2.45479c0.35696,-0.0042 0.69088,0.01374 1.02812,0.34064c0.55709,0.53998 1.12322,1.50203 1.81714,1.49675c0.56374,-0.00429 1.64897,0.31534 2.25206,0.30961c0.35658,-0.00338 11.32788,-2.60435 11.69729,-2.60834c1.00174,-0.01081 6.04246,2.90218 7.09947,2.89498c0.28686,-0.00196 0.56172,-0.03666 0.83209,-0.0857c0.68484,-0.12423 1.3409,-0.34046 2.09024,-0.34948c0.5253,-0.00632 2.8084,-2.20462 3.34073,-2.21196c0.33312,-0.00459 4.25899,-0.33365 4.59402,-0.33786c0.39103,-0.00491 5.62712,1.12681 6.01878,1.12256c0.41893,-0.00454 1.45654,0.27683 2.42232,0.02844c1.48841,-0.38282 3.03594,-1.35424 3.67209,-1.36091c0.71231,-0.00747 1.38039,0.90493 2.01006,0.89473c1.22375,-0.01983 2.93468,1.5552 3.91088,1.34041c0.49959,-0.10992 2.322,0.09261 3.36933,0.0123c0.36854,-0.02825 0.57185,-0.02425 0.68349,-0.17421c0.12442,-0.16714 0.54537,-0.16388 0.70036,-0.23898c0.34894,-0.16906 0.47528,-0.2665 0.82677,-0.27109c0.57441,-0.00751 0.6105,-0.35624 1.1529,-0.35302c0.06047,0.00037 1.33903,-0.60537 1.28765,-0.57467c-1.5038,0.89855 0.17348,-0.70441 2.43894,-0.47465c0.39325,0.03989 1.82403,0.84166 2.89491,1.16062c0.93142,0.27742 1.51359,0.07738 1.87533,0.10883c0.41941,0.03646 3.92433,-1.62699 4.33365,-1.58106c0.5392,0.06051 2.39977,0.85674 2.90787,0.92811c0.86085,0.12096 3.07517,1.93791 3.79349,2.03794c3.93371,0.54782 3.34744,0.29739 4.92539,0.15675c0.84542,-0.07534 1.23583,-0.57604 1.23583,-0.57604z" fill="#f4f8f3" stroke="#000000" stroke-width="0.5" stroke-linecap="round"/><path d="M303.39459,180.72729l9.2549,-13.91891l-17.67737,0.20775l8.85464,-13.02932c0,0 1.53447,-0.10084 2.87567,-0.55165c1.06743,-0.35879 1.43502,-1.57138 2.96012,-2.14632c0.75075,-0.28301 2.72633,-0.20589 3.58637,-0.27429c2.30391,-0.18326 3.42497,0.85707 5.82014,0.94638c0.79264,0.02956 2.42793,0.11477 3.40281,-0.09712c1.66406,-0.36168 2.72875,-1.12727 3.98962,-1.16865c0.42569,0.77381 1.47184,0.69207 2.23659,0.91531c0.58422,0.17054 0.9047,0.71812 1.25048,0.77787c1.91328,0.33059 -1.57357,5.071 -1.57357,5.071l13.75052,-0.1025l-20.29231,26.75487l-20.45821,0.04087z" fill="#f41d13" stroke="#650d08" stroke-width="1" stroke-linecap="round"/><path d="M364.40514,153.85854l0.21483,30.45839l-95.55392,0.51537l-1.60097,0.02113l-0.38961,-33.16605c0,0 0.84832,1.28181 2.2348,1.30181c0.64898,0.00937 1.14574,0.65774 2.59193,0.64795c0.62637,-0.00423 6.41712,-2.44586 7.17619,-2.45479c0.35696,-0.0042 0.69088,0.01374 1.02812,0.34064c0.55709,0.53997 1.12322,1.50203 1.81714,1.49675c0.56374,-0.00429 1.64897,0.31535 2.25206,0.30962c0.35658,-0.00338 11.32788,-2.60435 11.69729,-2.60834c1.00174,-0.01082 6.04246,2.90218 7.09947,2.89498c0.28686,-0.00196 0.56172,-0.03666 0.83209,-0.0857c0.68484,-0.12422 1.3409,-0.34045 2.09024,-0.34948c0.5253,-0.00632 2.8084,-2.20461 3.34073,-2.21195c0.33312,-0.00459 4.25899,-0.33366 4.59402,-0.33786c0.39103,-0.00491 5.62712,1.12681 6.01878,1.12256c0.41893,-0.00454 1.45654,0.27683 2.42232,0.02844c1.48841,-0.38282 3.03594,-1.35424 3.67209,-1.36091c0.71231,-0.00746 1.38039,0.90493 2.01006,0.89473c1.22375,-0.01983 2.93468,1.5552 3.91088,1.34041c0.49959,-0.10992 2.322,0.09261 3.36933,0.01229c0.36854,-0.02826 0.57185,-0.02425 0.68349,-0.17421c0.12442,-0.16714 0.54537,-0.16389 0.70036,-0.23898c0.34894,-0.16906 0.47528,-0.2665 0.82677,-0.27109c0.57441,-0.00751 0.6105,-0.35624 1.1529,-0.35302c0.06047,0.00037 1.33903,-0.60537 1.28765,-0.57467c-1.5038,0.89855 0.17348,-0.70441 2.43894,-0.47465c0.39325,0.03989 1.82403,0.84166 2.89491,1.16063c0.93142,0.27742 1.51359,0.07737 1.87533,0.10883c0.41941,0.03645 3.92433,-1.62699 4.33365,-1.58106c0.5392,0.06051 2.39977,0.85674 2.90787,0.92811c0.86085,0.12096 3.07517,1.93791 3.79349,2.03794c3.93371,0.54782 3.34744,0.29739 4.92539,0.15676c0.84542,-0.07534 1.23583,-0.57604 1.23583,-0.57604z" fill="none" stroke="#000000" stroke-width="0.5" stroke-linecap="round"/><path d="M345.04179,236.12831l-1.25359,1.55869l-1.96994,0.91686l-1.37299,-0.0917l-1.31329,-1.55868l-0.41787,-1.92543l0.29847,-51.10024h6.20829l0.17908,49.81663z" data-paper-data="{&quot;index&quot;:null}" fill="#f4f8f3" stroke="#000000" stroke-width="0.5" stroke-linecap="round"/><path d="M288.6229,234.28935l0.17908,-49.81662h6.20829l0.29847,51.10023l-0.41787,1.92543l-1.31329,1.55869l-1.37299,0.0917l-1.96994,-0.91686l-1.25359,-1.55869z" fill="#f4f8f3" stroke="#000000" stroke-width="0.5" stroke-linecap="round"/></g></g></svg>