<svg version="1.1" xmlns="http://www.w3.org/2000/svg" xmlns:xlink="http://www.w3.org/1999/xlink" width="176.76473" height="62.25677" viewBox="0,0,176.76473,62.25677"><g transform="translate(-236.64316,-39.09157)"><g data-paper-data="{&quot;isPaintingLayer&quot;:true}" fill-rule="nonzero" stroke="#000000" stroke-width="0.5" stroke-linecap="round" stroke-linejoin="miter" stroke-miterlimit="10" stroke-dasharray="" stroke-dashoffset="0" style="mix-blend-mode: normal"><path d="M412.16775,100.79003c0,0 -52.87924,-12.83682 -80.74655,-13.58696c-30.23794,-0.81398 -93.68511,7.55938 -93.68511,7.55938l24.07228,-15.2492c0,0 10.7788,-18.79241 27.51254,-29.38985c12.60522,-7.98284 31.27334,-11.28269 40.51037,-10.72082c8.02534,0.48817 26.90746,5.63169 37.06864,14.01201c15.76536,13.00232 21.91758,31.12863 21.91758,31.12863z" fill="#dd9a14"/><path d="M276.31613,66.98401c0,0 10.92302,-10.15726 15.13744,-13.4842c1.14694,-0.90543 2.7689,-2.41515 4.43443,-3.02714c2.14258,-0.78728 4.23885,-0.55464 4.23885,-0.55464c0,0 0.25846,3.16218 -0.36359,5.09454c-1.12837,3.50523 -5.50822,13.23765 -5.50822,13.23765" fill="none"/><path d="M300.74138,68.39786c0,0 6.38296,-11.45723 10.18277,-15.64488c2.99696,-3.30286 10.78459,-7.46261 10.78459,-7.46261c0,0 9.33856,3.1969 13.6536,6.60822c5.57006,4.4035 16.97337,17.60445 16.97337,17.60445" fill="none"/><path d="M364.39718,73.27132c0,0 -10.4509,-9.33589 -13.30838,-13.09333c-1.48363,-1.9509 -3.39292,-7.47114 -3.39292,-7.47114c0,0 1.13535,-0.68735 2.32078,-0.25763c2.35083,0.85219 5.89118,3.28316 8.11298,4.47788c4.48168,2.40992 14.36019,9.91887 14.36019,9.91887" fill="none"/><path d="M275.55145,80.75867c0,0 35.88508,-5.23198 54.6144,-4.57273c16.01515,0.56371 50.89899,8.28665 50.89899,8.28665" fill="none"/></g></g></svg>