<svg version="1.1" xmlns="http://www.w3.org/2000/svg" xmlns:xlink="http://www.w3.org/1999/xlink" width="92.59665" height="88.70589" viewBox="0,0,92.59665,88.70589"><defs><radialGradient cx="319.67157" cy="162.48366" r="14.35714" gradientUnits="userSpaceOnUse" id="color-1"><stop offset="0" stop-color="#f0ff00"/><stop offset="1" stop-color="#fcff58"/></radialGradient><radialGradient cx="319.01471" cy="198.17321" r="14.35715" gradientUnits="userSpaceOnUse" id="color-2"><stop offset="0" stop-color="#f0ff00"/><stop offset="1" stop-color="#fcff58"/></radialGradient><radialGradient cx="339.59641" cy="180.87582" r="14.35715" gradientUnits="userSpaceOnUse" id="color-3"><stop offset="0" stop-color="#f0ff00"/><stop offset="1" stop-color="#fcff58"/></radialGradient><radialGradient cx="300.4036" cy="180.21896" r="14.35715" gradientUnits="userSpaceOnUse" id="color-4"><stop offset="0" stop-color="#f0ff00"/><stop offset="1" stop-color="#fcff58"/></radialGradient></defs><g transform="translate(-273.70168,-135.64706)"><g stroke="#000000" stroke-width="2" stroke-miterlimit="10"><path d="M305.68488,151.0042c0,-7.92923 6.42791,-14.35714 14.35714,-14.35714c7.92923,0 14.35714,6.42791 14.35714,14.35714c0,7.92923 -6.42791,14.35714 -14.35714,14.35714c-7.92923,0 -14.35714,-6.42791 -14.35714,-14.35714z" fill="url(#color-1)"/><path d="M305.46639,208.9958c0,-7.92923 6.42791,-14.35715 14.35715,-14.35715c7.92923,0 14.35715,6.42792 14.35715,14.35715c0,7.92923 -6.42791,14.35715 -14.35715,14.35715c-7.92923,0 -14.35715,-6.42792 -14.35715,-14.35715z" fill="url(#color-2)"/><path d="M336.58403,179.05462c0,-7.92923 6.42791,-14.35714 14.35715,-14.35714c7.92923,0 14.35715,6.42791 14.35715,14.35714c0,7.92923 -6.42791,14.35715 -14.35715,14.35715c-7.92923,0 -14.35715,-6.42792 -14.35715,-14.35715z" fill="url(#color-3)"/><path d="M274.70168,179.64286c0,-7.92923 6.42791,-14.35715 14.35715,-14.35715c7.92923,0 14.35715,6.42792 14.35715,14.35715c0,7.92923 -6.42791,14.35715 -14.35715,14.35715c-7.92923,0 -14.35715,-6.42792 -14.35715,-14.35715z" fill="url(#color-4)"/></g></g></svg>