<svg version="1.1" xmlns="http://www.w3.org/2000/svg" xmlns:xlink="http://www.w3.org/1999/xlink" width="533.77243" height="137.48879" viewBox="0,0,533.77243,137.48879"><g transform="translate(-255.82888,-103.66576)"><g stroke-miterlimit="10"><path d="M288.39683,235.66181l0.19267,-53.70808h6.67929l0.32111,55.09196l-0.44957,2.07583l-1.41292,1.68044l-1.47715,0.09886l-2.11939,-0.98849l-1.3487,-1.68044z" fill="#67c4e6" stroke="#000000" stroke-width="0.5" stroke-linecap="round"/><path d="M345.03049,236.85715l-1.34869,1.63787l-2.11939,0.96343l-1.47716,-0.09636l-1.41292,-1.63787l-0.44957,-2.02324l0.32112,-53.69616h6.67929l0.19266,52.34735z" fill="#67c4e6" stroke="#000000" stroke-width="0.5" stroke-linecap="round"/><path d="" fill="#000000" stroke="none" stroke-width="0.5" stroke-linecap="butt"/><path d="" fill="#66f4ff" stroke="none" stroke-width="0.5" stroke-linecap="butt"/><path d="" fill="#66f4ff" stroke="none" stroke-width="0.5" stroke-linecap="butt"/><path d="" fill="#66f4ff" stroke="none" stroke-width="0.5" stroke-linecap="butt"/><path d="" fill="#66f4ff" stroke="none" stroke-width="0.5" stroke-linecap="butt"/><path d="M364.58367,153.79806l0.21483,30.45839l-95.55392,0.51537l-1.60097,0.02113l-0.0081,-33.16605c0,0 0.46681,1.28181 1.85329,1.30181c0.64898,0.00937 1.14574,0.65774 2.59193,0.64795c0.62637,-0.00423 6.41712,-2.44586 7.17619,-2.45479c0.35696,-0.0042 0.69088,0.01374 1.02812,0.34064c0.55709,0.53998 1.12322,1.50203 1.81714,1.49675c0.56374,-0.00429 1.64897,0.31534 2.25206,0.30961c0.35658,-0.00338 11.32788,-2.60435 11.69729,-2.60834c1.00174,-0.01081 6.04246,2.90218 7.09947,2.89498c0.28686,-0.00196 0.56172,-0.03666 0.83209,-0.0857c0.68484,-0.12423 1.3409,-0.34046 2.09024,-0.34948c0.5253,-0.00632 2.8084,-2.20462 3.34073,-2.21196c0.33312,-0.00459 4.25899,-0.33365 4.59402,-0.33786c0.39103,-0.00491 5.62712,1.12681 6.01878,1.12256c0.41893,-0.00454 1.45654,0.27683 2.42232,0.02844c1.48841,-0.38282 3.03594,-1.35424 3.67209,-1.36091c0.71231,-0.00747 1.38039,0.90493 2.01006,0.89473c1.22375,-0.01983 2.93468,1.5552 3.91088,1.34041c0.49959,-0.10992 2.322,0.09261 3.36933,0.0123c0.36854,-0.02825 0.57185,-0.02425 0.68349,-0.17421c0.12442,-0.16714 0.54537,-0.16388 0.70036,-0.23898c0.34894,-0.16906 0.47528,-0.2665 0.82677,-0.27109c0.57441,-0.00751 0.6105,-0.35624 1.1529,-0.35302c0.06047,0.00037 1.33903,-0.60537 1.28765,-0.57467c-1.5038,0.89855 0.17348,-0.70441 2.43894,-0.47465c0.39325,0.03989 1.82403,0.84166 2.89491,1.16062c0.93142,0.27742 1.51359,0.07738 1.87533,0.10883c0.41941,0.03646 3.92433,-1.62699 4.33365,-1.58106c0.5392,0.06051 2.39977,0.85674 2.90787,0.92811c0.86085,0.12096 3.07517,1.93791 3.79349,2.03794c3.93371,0.54782 3.34744,0.29739 4.92539,0.15675c0.84542,-0.07534 1.23583,-0.57604 1.23583,-0.57604z" fill="#f4f8f3" stroke="#000000" stroke-width="0.5" stroke-linecap="round"/><path d="M364.40514,153.63445l0.21483,30.6786l-95.55392,0.5191l-1.60097,0.02128l0.18265,-34.23842c0,0 0.27606,2.12366 1.66254,2.1438c0.64898,0.00944 1.14574,0.6625 2.59193,0.65263c0.62637,-0.00426 6.41712,-2.46354 7.17619,-2.47254c0.35696,-0.00423 0.69088,0.01384 1.02812,0.3431c0.55709,0.54387 1.12322,1.51289 1.81714,1.50757c0.56374,-0.00432 1.64897,0.31763 2.25206,0.31186c0.35658,-0.0034 11.32788,-2.62318 11.69729,-2.6272c1.00174,-0.0109 6.04246,2.92316 7.09947,2.91591c0.28686,-0.00197 0.56172,-0.03693 0.83209,-0.08632c0.68484,-0.12512 1.3409,-0.34291 2.09024,-0.35201c0.5253,-0.00637 2.8084,-2.22055 3.34073,-2.22794c0.33312,-0.00462 4.25899,-0.33607 4.59402,-0.3403c0.39103,-0.00495 5.62712,1.13496 6.01878,1.13068c0.41893,-0.00457 1.45654,0.27883 2.42232,0.02865c1.48841,-0.38559 3.03594,-1.36403 3.67209,-1.37075c0.71231,-0.00751 1.38039,0.91147 2.01006,0.9012c1.22375,-0.01997 2.93468,1.56644 3.91088,1.3501c0.49959,-0.11071 2.322,0.09328 3.36933,0.01238c0.36854,-0.02846 0.57185,-0.02443 0.68349,-0.17547c0.12442,-0.16835 0.54537,-0.16507 0.70036,-0.24071c0.34894,-0.17028 0.47528,-0.26843 0.82677,-0.27305c0.57441,-0.00756 0.6105,-0.35882 1.1529,-0.35557c0.06047,0.00037 1.33903,-0.60975 1.28765,-0.57882c-1.5038,0.90505 0.17348,-0.7095 2.43894,-0.47808c0.39325,0.04018 1.82403,0.84775 2.89491,1.16902c0.93142,0.27943 1.51359,0.07793 1.87533,0.10962c0.41941,0.03671 3.92433,-1.63875 4.33365,-1.59249c0.5392,0.06095 2.39977,0.86293 2.90787,0.93482c0.86085,0.12183 3.07517,1.95192 3.79349,2.05267c3.93371,0.55178 3.34744,0.29954 4.92539,0.15789c0.84542,-0.07588 1.23583,-0.5802 1.23583,-0.5802z" fill="#3d96ca" stroke="#000000" stroke-width="0.5" stroke-linecap="round"/><path d="M267.23238,184.40336v-14.97676c0,0 93.01445,-0.62764 96.78396,-0.64012c0.2346,-0.00078 0.59508,0.47978 0.59508,0.47978l0.38725,15.1371z" fill="#3d96ca" stroke="#000000" stroke-width="0" stroke-linecap="butt"/><path d="M302.55231,171.78856l29.39268,0.20577l0.07099,6.31017h-29.46368z" fill="#3d96ca" stroke="#3d96ca" stroke-width="0.5" stroke-linecap="round"/><path d="M267.72513,169.4893l20.82368,0.05796l37.46274,-0.05767l38.4784,-0.29443l0.65049,15.01019l-97.63371,0.08884l-0.07774,-1.54044l0.13367,-28.76575" fill="none" stroke="#000000" stroke-width="0.5" stroke-linecap="round"/><path d="M296.81512,171.78856l0.071,6.65311h-22.57699v-6.51593z" fill="#3d96ca" stroke="#3d96ca" stroke-width="0.5" stroke-linecap="round"/><path d="M359.86799,171.78856l0.071,6.51593l-23.42895,-0.06859l0.071,-6.51592z" fill="#3d96ca" stroke="#3d96ca" stroke-width="0.5" stroke-linecap="round"/><path d="M269.1812,173.39384l-1.23609,-7.96035l96.22958,-0.47172l-0.19349,7.46599z" fill="#000000" stroke="#000000" stroke-width="1" stroke-linecap="round"/><path d="M267.69911,173.39384l-0.00216,-7.92187h6.48424v7.92187z" fill="#000000" stroke="#000000" stroke-width="1" stroke-linecap="butt"/><g fill="#000000" stroke-linecap="butt"><path d="M315.35087,156.96676c0.11823,0.08834 0.02909,0.20551 0.02909,0.20551l-0.17511,0.22214c-0.71767,0.32142 -1.3701,0.64853 -2.10732,0.93268c-2.00091,0.77121 -3.65489,0.66451 -5.7465,0.66451c-1.54062,0 -2.54851,1.11901 -3.20952,2.43451c0,0 -0.06621,0.13125 -0.19864,0.06563c-0.13243,-0.06563 -0.06621,-0.19688 -0.06621,-0.19688c0.71096,-1.40421 1.82082,-2.59674 3.47438,-2.59674c2.05701,0 3.67269,0.11339 5.63917,-0.64455c0.70761,-0.27273 1.33521,-0.6053 2.0314,-0.88967l0.12191,-0.16829c0,0 0.08913,-0.11717 0.20736,-0.02883z" stroke="#000000" stroke-width="1"/><path d="M318.08213,156.88555c0.14658,0.02075 0.12563,0.16602 0.12563,0.16602l-0.04576,0.30701c-0.16506,0.36498 -0.37758,0.70133 -0.5832,1.04518c-1.2848,1.1879 -3.50146,2.78633 -5.30235,2.7871c-1.24286,0 -2.76704,-0.24072 -3.03554,1.3926c0,0 -0.02435,0.14476 -0.17039,0.12063c-0.14604,-0.02412 -0.1217,-0.16887 -0.1217,-0.16887c0.30831,-1.79783 1.92102,-1.63785 3.32764,-1.63785c1.71356,0.00077 3.83867,-1.56053 5.07159,-2.67753c0.18192,-0.31194 0.3776,-0.61601 0.52968,-0.94346l0.03688,-0.26632c0,0 0.02094,-0.14527 0.16751,-0.12451z" stroke="#000000" stroke-width="1"/><path d="M320.22103,155.98356c0.14764,0.01113 0.13641,0.15745 0.13641,0.15745l-0.02098,0.27358c-0.09941,1.29587 -0.60885,2.88605 -1.19789,4.04951c-1.07257,1.5955 -2.32751,2.52865 -4.25897,2.52865c0,0 -0.14806,0 -0.14806,-0.14675c0,-0.14675 0.14806,-0.14675 0.14806,-0.14675c1.82392,0 2.98486,-0.8701 4.00288,-2.38255c0.56843,-1.12815 1.06237,-2.66853 1.15871,-3.92438l0.02098,-0.27358c0,0 0.01123,-0.14632 0.15886,-0.13519z" stroke="#000000" stroke-width="1"/><path d="M323.3914,162.82894c-0.14806,0 -0.14806,-0.14675 -0.14806,-0.14675v-0.08189c0,-0.72201 -0.15621,-1.37785 -0.58337,-1.978c-0.52316,-0.36569 -1.59911,-0.35285 -1.98718,-0.83778c-0.35462,-0.44311 0.0602,-1.72867 0.1342,-2.24208c0,0 0.02094,-0.14527 0.16751,-0.12451c0.14658,0.02075 0.12564,0.16602 0.12564,0.16602c-0.0505,0.35034 -0.45322,1.74674 -0.19636,2.01694c0.41385,0.43533 1.44187,0.43942 1.96558,0.81388c0.48195,0.66201 0.67011,1.38123 0.67011,2.18554v0.08189c0,0 0,0.14675 -0.14806,0.14675z" stroke="#000000" stroke-width="1"/><path d="M322.89556,156.66225c0,1.78675 -3.06163,3.23522 -6.83835,3.23522c-3.77672,0 -6.83836,-1.44845 -6.83836,-3.23522c0,-1.78675 3.06164,-3.23521 6.83836,-3.23521c3.77672,0 6.83835,1.44845 6.83835,3.23521z" stroke="none" stroke-width="0"/></g><path d="M301.524,172.44984v-6.8504h29.18182v6.8504z" fill="#80848a" stroke="none" stroke-width="0" stroke-linecap="butt"/><path d="M304.79673,170.6055v-3.68868h22.36364v3.68868z" fill="#000000" stroke="none" stroke-width="0" stroke-linecap="butt"/><path d="M313.37629,184.24019l-45.46873,-0.32385l-0.02187,-6.84993c0,0 18.96789,-1.5723 29.25684,2.74657c2.53487,1.06403 6.1723,4.4062 6.1723,4.4062z" fill="#acd2f3" stroke="#165086" stroke-width="0.5" stroke-linecap="round"/><path d="M364.63646,183.80148l-51.32949,0.40386l11.14523,-0.0976c0,0 4.11816,-3.23069 6.8998,-4.29473c11.29058,-4.31888 32.99602,-2.79489 32.99602,-2.79489z" fill="#acd2f3" stroke="#165086" stroke-width="0.5" stroke-linecap="round"/><path d="M368.401,122.17731c0.45502,0.06727 0.65285,-0.0167 0.68565,-0.18811c2.25662,0.06838 3.82756,2.58169 4.94581,4.25905c0.4273,1.16694 1.11752,2.26069 1.38768,3.59886c0.25951,1.28544 0.08655,3.06267 0.65918,4.2307c0.4151,2.58284 0.72395,5.15771 0.72395,7.78205c0,3.09308 -2.24941,4.47032 -5.25872,4.90827c-2.79346,0.02112 -0.51816,1.01353 -3.21293,-0.06759c-2.61784,-0.88964 -2.05638,-5.5779 -1.35689,-7.59214c1.05396,-3.04672 2.75133,-7.21702 3.54021,-10.37097c0.31627,-1.2674 -3.73566,-7.64128 -2.11395,-6.56014z" fill="#3d96ca" stroke="#000000" stroke-width="0.5" stroke-linecap="butt"/><path d="M263.3383,121.89158c1.62171,-1.08114 -1.43022,5.29273 -1.11395,6.56013c0.13352,0.53382 -0.13141,1.09674 0.05344,1.67842c0.21421,0.67407 0.26674,2.07165 0.67003,2.75557c1.30488,2.21284 3.43361,3.14637 4.10246,5.07985c0.50178,1.44492 0.29176,4.06619 -0.42964,6.16473c-0.28424,0.82685 -0.04447,2.17595 -0.7844,2.42741c-2.69477,1.08112 -1.70518,-0.05415 -4.49864,-0.07527c-3.00931,-0.43795 -5.25872,-1.81519 -5.25872,-4.90827c0,-2.62434 0.30885,-5.19921 0.72395,-7.78205c0.57263,-1.16803 0.39967,-2.94526 0.65918,-4.2307c0.27016,-1.33817 0.96038,-2.43192 1.38768,-3.59886c1.11824,-1.67736 1.54633,-4.19067 3.80295,-4.25905c0.0328,0.17141 0.23063,0.25538 0.68565,0.18811z" fill="#3d96ca" stroke="#000000" stroke-width="0.5" stroke-linecap="butt"/><path d="M770.32686,105.58511l18.87942,40.02283l-135.17579,-0.49216l18.44029,-41.20002" fill="none" stroke="#000000" stroke-width="0.5" stroke-linecap="round"/></g></g></svg>