<svg version="1.1" xmlns="http://www.w3.org/2000/svg" xmlns:xlink="http://www.w3.org/1999/xlink" width="796.70435" height="473.88992" viewBox="0,0,796.70435,473.88992"><g transform="translate(78.38129,39.93254)"><g data-paper-data="{&quot;isPaintingLayer&quot;:true}" fill-rule="nonzero" stroke-linejoin="miter" stroke-miterlimit="10" stroke-dasharray="" stroke-dashoffset="0" style="mix-blend-mode: normal"><path d="M-78.38129,386.97047v-426.90301h796.70435v426.90301z" fill="#fffd4d" stroke="none" stroke-width="0" stroke-linecap="butt"/><text transform="translate(50.34271,148.8018) scale(0.40602,0.49148)" font-size="40" xml:space="preserve" fill="#8b2c00" fill-rule="nonzero" stroke="none" stroke-width="1" stroke-linecap="butt" stroke-linejoin="miter" stroke-miterlimit="10" stroke-dasharray="" stroke-dashoffset="0" font-family="&quot;GenEiPOPlePw-Bk&quot;, Sans Serif" font-weight="normal" text-anchor="start" style="mix-blend-mode: normal"><tspan x="0" dy="0">AUCUN DES PERSONNAGES, EFFETS SPÉCIAUX </tspan><tspan x="0" dy="46.150000000000006px">OU DES CHANSONS DE CE JEU NE M'APPARTIENT. </tspan><tspan x="0" dy="46.150000000000006px">MUSIQUE : "CAILFORNIA LULLABYE" PAR JOSH WOODWARD </tspan><tspan x="0" dy="46.150000000000006px">(SON SITE WEB : https://www.joshwoodward.com/)</tspan></text><path d="M442.09746,432.19241l-1.11163,1.17702l-1.37319,0.32695l-1.89632,-0.71929l-1.3078,-1.3732" fill="none" stroke="#000000" stroke-width="0.5" stroke-linecap="round"/><path d="M-2.68654,77.09699v-56.0991h702.69344v56.0991z" fill="#ffffff" stroke="#000000" stroke-width="0.5" stroke-linecap="butt"/><text transform="translate(7.22467,38.13424) scale(0.27532,0.29656)" font-size="40" xml:space="preserve" fill="#000000" fill-rule="nonzero" stroke="none" stroke-width="1" stroke-linecap="butt" stroke-linejoin="miter" stroke-miterlimit="10" stroke-dasharray="" stroke-dashoffset="0" font-family="&quot;GenEiPOPlePw-Bk&quot;, Sans Serif" font-weight="normal" text-anchor="start" style="mix-blend-mode: normal"><tspan x="0" dy="0">CE JEU N'EST PAS OFFICIEL.</tspan><tspan x="0" dy="48px">JE NE SUIS PAS AFFILIÉ À NICKELODEON</tspan><tspan x="0" dy="48px">JE SUIS JUSTE UN FAN DE LA SÉRIE.</tspan></text><text transform="translate(9.88057,327.00081) scale(0.40728,0.48055)" font-size="40" xml:space="preserve" fill="#8b2c00" fill-rule="nonzero" stroke="none" stroke-width="1" stroke-linecap="butt" stroke-linejoin="miter" stroke-miterlimit="10" stroke-dasharray="" stroke-dashoffset="0" font-family="&quot;GenEiPOPlePw-Bk&quot;, Sans Serif" font-weight="normal" text-anchor="start" style="mix-blend-mode: normal"><tspan x="0" dy="0">MERCI D'AVOIR JOUÉ À CE JEU !</tspan><tspan x="0" dy="46.150000000000006px">CELA SIGNIFIE BEAUCOUP POUR MOI !</tspan></text><text transform="translate(557.84941,353.7723) scale(0.25591,0.25591)" font-size="40" xml:space="preserve" fill="#00901d" fill-rule="nonzero" stroke="none" stroke-width="1" stroke-linecap="butt" stroke-linejoin="miter" stroke-miterlimit="10" stroke-dasharray="" stroke-dashoffset="0" font-family="&quot;SpongeBoyTT1-Regular&quot;, Sans Serif" font-weight="normal" text-anchor="start" style="mix-blend-mode: normal"><tspan x="0" dy="0">Version 0.5</tspan></text><g stroke-linecap="butt"><g fill="#000000" stroke="none" stroke-width="0.5"><path d="M480.60225,328.87556c0,0 -0.21058,0.63101 -0.8416,0.42043c-0.63101,-0.21058 -0.42043,-0.8416 -0.42043,-0.8416l0.20498,-0.60929c1.34796,-7.23268 8.42113,-3.19709 10.02293,1.61406c0,0 0.21014,0.63116 -0.42104,0.84129c-0.63116,0.21014 -0.84129,-0.42104 -0.84129,-0.42104c-1.21124,-3.63809 -6.37642,-7.49192 -7.47282,-1.70014l-0.23074,0.69629z" data-paper-data="{&quot;index&quot;:null}"/><path d="M447.89979,340.42968c-0.37884,0.5468 -0.92566,0.16795 -0.92566,0.16795l-0.60206,-0.41903c-4.3493,-3.97872 -6.17364,2.20212 -4.9624,5.84022c0,0 0.21014,0.63116 -0.42104,0.84129c-0.63116,0.21014 -0.84129,-0.42104 -0.84129,-0.42104c-1.60178,-4.81116 1.64081,-12.2812 7.05518,-7.29991l0.52929,0.36484c0,0 0.5468,0.37884 0.16795,0.92566z" data-paper-data="{&quot;index&quot;:null}"/><path d="M484.08276,327.55131c0.76904,-0.03778 0.73072,0.62969 0.73072,0.62969l-0.06433,0.43522c-0.31136,0.70507 -0.41569,1.39747 -0.63909,2.123c-2.97846,8.6862 -9.40032,12.17947 -18.64676,15.25224c-7.90293,1.92331 -15.2613,0.788 -21.39945,-3.20726c0,0 -0.58352,-0.37997 -0.08112,-0.93006c0.50239,-0.55009 1.08593,-0.17014 1.08593,-0.17014c5.76719,3.75695 12.63398,4.83285 20.05538,3.04181c8.67887,-2.89499 14.73423,-6.01779 17.50671,-14.21975c0.23921,-0.76831 0.36179,-1.48613 0.6835,-2.2403l-0.03883,-0.00917c0,0 0.03831,-0.6675 0.80735,-0.70527z"/></g><path d="M467.65284,324.36286c2.46415,12.67964 5.74275,22.37495 5.34931,28.35131c-0.20503,3.11396 -2.08246,5.7378 -4.15012,6.13963c-6.03598,1.17302 -6.27401,-10.45868 -10.02207,-29.74493c-0.09656,-0.4969 -1.2107,-6.25154 -1.29883,-6.74777c-3.33249,-18.76426 -8.05867,-34.89375 -2.17822,-36.03655c0.95679,-0.18593 2.01071,-0.94365 2.80953,-0.15587c4.24058,4.1818 6.33648,21.96514 9.49041,38.19421z" fill="#fff649" stroke="none" stroke-width="0"/><path d="M461.20166,339.59146c0.0407,0.01382 0.08046,0.0292 0.11927,0.04608c-0.13725,0.96478 0.43579,2.37628 0.57398,3.4352c0.00534,0.0519 0.01117,0.10429 0.01742,0.15716c0.16541,1.83653 0.00751,4.79652 0.98592,6.85653c0.25693,0.54095 0.65163,0.67677 1.04391,0.57937c0.32875,1.38871 0.65439,2.84871 0.79898,4.09923c0.03966,0.34307 -0.06801,0.67932 -0.51714,0.76662c-0.85689,0.16652 -1.57653,-3.15503 -2.32175,-7.96986c-0.16187,-1.04586 -1.54369,-7.24407 -1.19238,-7.5467z" fill="#000000" stroke="none" stroke-width="0.5"/><path d="M460.98977,342.94767c-0.08047,-0.76421 -0.40361,-2.84761 -0.5889,-3.62178c-0.1228,-0.51308 -0.02179,-0.54807 0.03056,-0.6613c0.22981,-0.49706 1.16498,-0.43118 1.28728,0.19707c0.81101,4.16619 1.2323,8.42955 2.45256,12.49475c0.0073,0.02327 0.01337,0.04718 0.01812,0.07166c0.01274,0.06554 0.01521,0.13069 0.00852,0.19383c0.19152,4.51736 -0.45096,3.86191 -1.1352,1.4795c-0.44829,-1.56086 -0.85171,-3.87519 -1.26939,-5.91916c-0.40044,-1.95965 -0.72795,-3.51643 -0.80355,-4.23457z" fill="#000000" stroke="none" stroke-width="0.5"/><path d="M472.09271,347.46055c-0.64187,0.12475 -0.76663,-0.51714 -0.76663,-0.51714l-0.01782,-0.09169c-0.46872,-2.41193 -1.12022,-4.78495 -1.59125,-7.20873c-0.89698,-4.6156 -1.79398,-9.23121 -2.69098,-13.84681c0,0 -0.01182,-0.06081 -0.00948,-0.14867l-0.0952,-0.48985c-1.14565,-5.89518 -2.29688,-11.78931 -3.4362,-17.68569c-1.93765,-6.42508 -2.50524,-14.10472 -5.03538,-20.41702c-6.08262,-3.52738 -5.85044,4.65362 -5.27538,8.72343c0.24225,0.17284 0.26851,0.49513 0.26851,0.49513c0.49928,6.16367 2.21129,12.38588 3.39048,18.45363c1.28476,6.61095 2.76652,13.20817 4.04747,19.79849c0.28093,1.44557 0.56185,2.89113 0.8428,4.33669c-0.96125,0.77908 -0.01206,2.80526 0.17131,4.21047c0.00534,0.0519 0.01117,0.10429 0.01742,0.15716c0.16541,1.83653 0.00751,4.79652 0.98593,6.85652c0.13145,0.27677 0.29899,0.44752 0.4838,0.53521c0.21727,0.66122 0.44137,1.24657 0.65844,1.71942c0.0619,0.29687 0.13173,0.58535 0.21096,0.86257c-0.07906,0.08624 -0.19648,0.1576 -0.36976,0.19127c-0.64187,0.12475 -0.76663,-0.51714 -0.76663,-0.51714c-0.80138,-4.12367 -1.67903,-8.63976 -2.52409,-12.9881c-0.33892,-1.74391 -0.67258,-3.46079 -0.99398,-5.11458c-1.28052,-6.59027 -2.76272,-13.18768 -4.04746,-19.7985c-1.13478,-5.8392 -2.7463,-11.81265 -3.33332,-17.74779c-0.14588,-0.155 -0.18472,-0.35489 -0.18472,-0.35489c-1.02234,-5.26061 0.39306,-14.7379 8.03064,-10.44299c1.62705,6.87185 2.6682,13.95478 4.69273,20.72788c1.15569,5.91536 2.30042,11.83284 3.45021,17.74934l0.11228,0.57774c0,0 0.01183,0.06083 0.00948,0.14867c0.89129,4.5863 1.78259,9.17262 2.6739,13.75893c0.47109,2.42407 1.1224,4.79616 1.59125,7.20873l0.01782,0.09169c0,0 0.12475,0.64185 -0.51714,0.76662z" fill="#000000" stroke="none" stroke-width="0.5"/><path d="M424.56438,247.8772c-0.64187,0.12475 -0.76662,-0.51714 -0.76662,-0.51714l-0.12476,-0.64196c-0.18931,-0.97419 -0.55768,-1.77178 -0.75458,-2.74017c-0.83559,-4.44635 -7.99232,-2.26741 -9.27549,0.83972c0,0 -0.25225,0.60325 -0.85553,0.35101c-0.60326,-0.25225 -0.35102,-0.85553 -0.35102,-0.85553c1.78304,-4.2197 10.60306,-6.40752 11.76579,-0.58469c0.17371,0.94958 0.56655,1.77267 0.75458,2.74017l0.12476,0.64196c0,0 0.12473,0.64187 -0.51714,0.76663z" fill="#000000" stroke="none" stroke-width="0.5"/><path d="M471.96242,239.69132c-0.64187,0.12473 -0.76663,-0.51714 -0.76663,-0.51714l-0.01236,-0.11015c-0.55004,-1.48835 -0.60721,-3.0506 -0.89337,-4.59462c0.65051,-5.23276 8.97236,-6.08658 12.44111,-3.17132c0,0 0.49838,0.4233 0.0751,0.9217c-0.4233,0.49838 -0.9217,0.0751 -0.9217,0.0751c-2.52264,-2.17048 -9.72244,-1.87722 -10.28736,2.13392c0.28616,1.3957 0.3026,2.82912 0.8115,4.17814l0.07082,0.31779c0,0 0.12473,0.64187 -0.51714,0.76662z" fill="#000000" stroke="none" stroke-width="0.5"/><path d="M455.31363,289.63906c4.15543,21.38242 -8.75183,41.87934 -28.82926,45.78117c-20.07738,3.90182 -39.72198,-10.26902 -43.87743,-31.65143c-4.15543,-21.38242 8.75187,-41.87933 28.82928,-45.78117c20.07738,-3.90182 39.72197,10.26903 43.87741,31.65145z" fill="#fbfdfa" stroke="#000000" stroke-width="1"/><path d="M509.64454,334.68462c-0.14385,0.26367 -0.46497,0.32608 -0.46497,0.32608c-2.22853,0.42501 -4.04632,4.23991 -2.51595,6.26866c1.21903,1.61603 3.20536,2.03302 5.08404,1.89365c2.30764,-0.0998 0.94919,-8.54284 -1.56957,-8.59791zM508.87416,333.7385c0.14382,-0.2637 0.46499,-0.32611 0.46499,-0.32611l0.7699,-0.14318c3.91953,0.45511 6.16516,10.09324 1.80783,11.20063c-2.35164,0.14774 -4.87089,-0.39106 -6.34386,-2.46864c-1.99854,-2.81892 0.193,-7.59743 3.30112,-8.26268z" fill="#9966ff" stroke="none" stroke-width="0.5"/><path d="M527.8585,274.03628c4.15543,21.38242 -8.75183,41.87934 -28.82924,45.78117c-20.07738,3.90182 -39.72198,-10.269 -43.87743,-31.65143c-4.15543,-21.38242 8.75187,-41.87933 28.82926,-45.78117c20.07738,-3.90182 39.72197,10.26903 43.87741,31.65145z" fill="#fbfdfa" stroke="#000000" stroke-width="1"/><path d="M449.08708,289.28128c3.34602,17.21745 -7.73731,33.856 -24.75534,37.16328c-17.01801,3.30726 -33.52635,-7.96916 -36.87235,-25.18661c-3.34602,-17.21745 7.73732,-33.85602 24.75535,-37.1633c17.01801,-3.30726 33.52635,7.96918 36.87235,25.18662z" fill="#3da9e8" stroke="#000000" stroke-width="1"/><path d="M521.25518,274.46446c3.27804,16.86764 -7.4293,33.13885 -23.91551,36.34276c-16.48621,3.20391 -32.5083,-7.87273 -35.78634,-24.74036c-3.27804,-16.86764 7.42929,-33.13883 23.9155,-36.34274c16.48621,-3.20391 32.5083,7.87271 35.78633,24.74034z" fill="#3da9e8" stroke="#000000" stroke-width="1"/><path d="M438.62923,290.48922c2.17039,11.16808 -4.90811,21.93915 -15.81028,24.05787c-10.90219,2.11871 -21.49957,-5.21723 -23.66994,-16.3853c-2.17039,-11.16808 4.9081,-21.93915 15.81028,-24.05787c10.90219,-2.11871 21.49957,5.21723 23.66997,16.38531z" fill="#000000" stroke="#000000" stroke-width="1"/><path d="M511.63731,274.85186c2.2996,11.83283 -4.94365,23.19517 -16.1782,25.37849c-11.23454,2.18332 -22.20614,-5.63917 -24.50572,-17.47202c-2.2996,-11.83283 4.94365,-23.19518 16.17819,-25.3785c11.23454,-2.18332 22.20614,5.63917 24.50572,17.47202z" fill="#000000" stroke="#000000" stroke-width="1"/><path d="M430.1504,283.36811c0.60718,3.12441 -1.75675,6.21232 -5.28,6.89701c-3.52327,0.68472 -6.87163,-1.29307 -7.47885,-4.41746c-0.60718,-3.12441 1.75675,-6.21229 5.28,-6.89699c3.52327,-0.68472 6.87164,1.29306 7.47885,4.41745z" fill="#ffffff" stroke="#000000" stroke-width="1"/><path d="M504.20086,267.9529c0.62009,3.19087 -1.73337,6.33264 -5.25664,7.01737c-3.52327,0.68472 -6.88212,-1.34695 -7.50222,-4.53783c-0.62009,-3.19087 1.73334,-6.33266 5.25661,-7.01736c3.52327,-0.68472 6.88215,1.34694 7.50225,4.53782z" fill="#ffffff" stroke="#000000" stroke-width="1"/><path d="M509.94125,317.29825c-0.0011,0.00086 -0.00221,0.00171 -0.00333,0.00256l0.05147,0.27476c1.81722,3.8078 5.10638,6.61617 8.05808,9.57477c4.05363,3.92041 6.32901,12.52195 3.87552,17.76069c-3.29259,6.26037 -11.20344,6.15807 -17.50097,4.37814c-4.27955,-2.23062 -5.94154,-5.54249 -5.27182,-10.45298c0.31106,-2.28078 1.63982,-4.33226 1.70964,-6.70204c2.27161,-3.51534 5.00309,-8.25694 4.68953,-12.46763c-0.06612,-0.07073 -0.10047,-0.13159 -0.10047,-0.13159c-1.77862,-3.22423 0.90945,-4.19254 3.84407,-3.83806l0.76799,0.68444c0,0 0.39864,0.51834 -0.11969,0.91696zM506.70594,318.45983c0.88975,4.57838 -1.88891,10.24207 -4.59652,14.0601c0.05802,2.28516 -1.39203,4.29172 -1.66126,6.47601c-0.53454,4.33701 0.67167,7.08032 4.45561,9.07742c5.63796,1.54095 12.9152,1.86854 15.8516,-3.7513c2.30888,-4.53672 -0.02166,-12.90709 -3.62082,-16.23532c-3.10209,-3.11221 -6.53226,-6.06243 -8.3888,-10.10669l-0.17433,-0.87139c0,0 -0.01528,-0.07864 -0.00763,-0.18623c-1.49557,-0.16218 -2.56511,-0.01933 -2.37479,1.01032c0.42602,0.05922 0.51694,0.52708 0.51694,0.52708z" fill="#6af2e7" stroke="none" stroke-width="0.5"/><path d="M506.63566,317.19558c0,0 -0.12481,-0.62805 -0.57394,-0.69049c-0.20063,-1.08555 0.93771,-1.23773 2.51446,-1.06675c-0.00807,0.11341 0.00802,0.19634 0.00802,0.19634l0.18432,0.91866c1.95736,4.2638 5.63524,7.40492 8.90576,10.68604c3.79453,3.50893 6.24256,12.42087 3.80834,17.20386c-3.09581,5.92492 -10.83726,5.59623 -16.78128,3.97162c-3.98934,-2.10553 -5.29822,-5.02608 -4.73464,-9.59854c0.28384,-2.30285 1.80176,-4.46068 1.7406,-6.86987c2.85459,-4.02529 5.83926,-10.05912 4.9012,-14.88604z" data-paper-data="{&quot;noHover&quot;:false,&quot;origItem&quot;:[&quot;Path&quot;,{&quot;applyMatrix&quot;:true,&quot;segments&quot;:[[[357.49913,152.33234],[0,0],[0,3.56641]],[[351.99789,162.2156],[2.58932,-2.4709],[-0.2898,1.72374]],[[349.80623,166.83427],[0.52072,-1.60029],[-1.03391,3.17747]],[[351.82653,174.29792],[-2.54897,-2.05105],[4.00718,1.97911]],[[364.27226,173.79446],[-3.02391,3.79001],[2.39488,-3.06853]],[[363.92273,161.07974],[2.21608,3.02327],[-1.8745,-2.78859]],[[359.10024,152.26975],[0.80362,3.30652],[0,0]],[359.09649,151.59024],[[359.11793,151.44935],[-0.02144,0.07963],[-1.09895,-0.3399]],[[357.18798,151.8613],[0.00735,-0.80065],[0.31114,0.1066]],[357.49913,152.33235]],&quot;closed&quot;:true,&quot;fillColor&quot;:[0,0,0,1]}]}" fill="#b5f2ed" stroke="none" stroke-width="0.5"/><path d="M488.30345,317.06278c4.4381,-0.70369 9.65876,-3.28689 13.78967,-4.9253c5.17042,-1.82743 10.27809,-3.70809 15.61606,-4.86541c2.55857,0.30875 2.66726,3.29878 1.98516,4.42843c-2.31442,3.83301 -6.73107,6.99733 -10.28378,8.39352c-5.37119,2.11088 -11.80247,1.69657 -18.21997,-0.45763c-0.97043,-0.43197 -2.8692,-1.2897 -2.92329,-2.54927l0.03618,-0.02437z" data-paper-data="{&quot;noHover&quot;:false,&quot;origItem&quot;:[&quot;Path&quot;,{&quot;applyMatrix&quot;:true,&quot;segments&quot;:[[401.7332,302.70579],[[401.70764,302.73192],[0,0],[0.26779,1.01631]],[[404.5664,304.28742],[-0.87751,-0.18216],[5.64945,0.62936]],[[419.95688,300.03609],[-4.77418,3.15193],[2.41285,-1.4992]],[[425.62133,293.65952],[-0.96545,2.76479],[0.36287,-1.03919]],[[424.57437,290.02738],[2.16652,-0.19577],[-4.2009,1.87549]],[[412.24098,296.32893],[3.94391,-2.39193],[-3.11938,2.0563]],[[401.73319,302.7058],[3.53853,-1.34879],[0,0]]],&quot;closed&quot;:true,&quot;fillColor&quot;:[0,0,0,1]}]}" fill="#b5f2ed" stroke="none" stroke-width="0.5"/><path d="M507.74098,347.03047c-0.05683,-0.01894 -0.09435,-0.04531 -0.09435,-0.04531l-0.40738,-0.30341c-0.18818,-0.44478 -2.14058,-3.64661 -0.25421,-3.54877c0.68414,0.03547 2.38263,2.0331 3.2525,2.36172c3.36861,1.29711 5.41143,-2.10577 6.44593,-4.75084c1.23867,-1.78311 3.63218,-2.25323 3.35402,0.59316c-0.19198,1.96445 -1.75146,2.93276 -2.81922,4.44486c-2.77516,2.58848 -6.15225,3.6061 -9.4027,1.32201c0,0 -0.03753,-0.02637 -0.07461,-0.07343z" fill="#ffffff" stroke="none" stroke-width="0.5"/><path d="M379.64489,273.2863c0.08466,-0.64839 0.73301,-0.56375 0.73301,-0.56375l0.08356,0.04476c4.30941,-0.8375 8.80159,-0.79511 13.01291,-2.16403c5.85916,-2.40597 11.91216,-5.21089 16.23974,-9.98c3.25867,-2.74213 6.87136,-8.22573 6.96173,-12.64375c0,0 0.01747,-0.65366 0.67112,-0.63618c0.65364,0.01747 0.63618,0.67112 0.63618,0.67112c-0.15255,4.77585 -3.80019,10.55955 -7.36127,13.55015c-4.42317,4.90647 -10.68968,7.80365 -16.69737,10.26647c-4.2875,1.38642 -8.83082,1.36818 -13.21357,2.21993l-0.50231,-0.03172c0,0 -0.64839,-0.08461 -0.56375,-0.73301z" fill="#000000" stroke="none" stroke-width="0.5"/><path d="M523.10493,247.91364l-0.45386,0.21755c-4.38275,0.85173 -8.58857,2.57029 -13.08325,2.89058c-6.49283,-0.03351 -13.38831,-0.37278 -19.32715,-3.26551c-4.42194,-1.43918 -9.97029,-5.43575 -11.90045,-9.80686c0,0 -0.26101,-0.59954 0.33851,-0.86055c0.59952,-0.26101 0.86055,0.33851 0.86055,0.33851c1.7385,4.06259 7.14201,7.79398 11.19052,9.11606c5.7988,2.80116 12.46176,3.13486 18.79553,3.17127c4.4175,-0.30799 8.56684,-2.02974 12.87625,-2.86725l0.06071,-0.07279c0,0 0.56949,-0.3213 0.89081,0.24817c0.32132,0.56949 -0.24818,0.8908 -0.24818,0.8908z" data-paper-data="{&quot;index&quot;:null}" fill="#000000" stroke="none" stroke-width="0.5"/><path d="M468.71445,357.71292c5.02735,-0.1322 3.28587,-8.98945 2.85364,-11.02079c-0.19061,-0.89577 -1.63495,-3.09143 -0.17822,-3.37453c0.97189,-0.18888 2.0082,5.93525 2.03567,6.07712c0.71147,3.67632 -0.20908,8.44963 -4.3834,9.58695c-4.61228,1.25663 -6.28032,-4.90244 -6.43887,-7.97439c-0.01445,-0.27998 -0.21621,-1.90376 -0.28134,-2.76476c0.1274,0.65415 0.30966,1.28245 0.57633,1.84388c0.13146,0.27679 0.29898,0.44751 0.48383,0.5352c0.21727,0.66122 0.44137,1.24659 0.65845,1.71944c0.1985,0.95214 0.4788,1.81781 0.88768,2.50266c0.45421,1.66977 1.42554,2.93125 3.78622,2.86918z" fill="#000000" stroke="none" stroke-width="0.5"/><path d="M488.58457,315.7181c4.24233,-0.73864 9.17796,-3.12053 13.07424,-4.64171c5.26066,-1.82504 10.80934,-3.31771 16.27977,-4.31289c2.83273,0.49045 3.26892,3.38188 2.01016,5.54698c-2.11803,3.64322 -5.45981,6.02775 -9.36462,7.42949c-6.64367,2.58843 -13.08906,3.30908 -19.8128,1.09273c-1.83308,-0.82051 -3.63533,-1.85681 -3.63447,-3.93868c-0.05137,-0.0784 -0.08953,-0.17951 -0.10459,-0.30973c-0.07514,-0.64957 0.57442,-0.72471 0.57442,-0.72471c0.09509,-0.01078 0.19061,-0.02253 0.28656,-0.03525l0.00225,-0.00208c0,0 0.3378,-0.27954 0.68905,-0.10418zM488.35557,317.07719l-0.0361,0.0239c0.05751,1.24365 1.95327,2.08308 2.92432,2.51219c6.38668,2.13327 12.56896,1.36569 18.88187,-1.09806c3.1672,-1.13657 6.34014,-3.01505 8.14558,-5.97719c0.67859,-1.11337 2.2482,-4.15514 -0.30969,-4.46696c-5.33165,1.1279 -10.68845,2.44262 -15.85083,4.23254c-4.12399,1.60617 -9.32161,4.09104 -13.75516,4.77358z" fill="#6af2e7" stroke="none" stroke-width="0.5"/><path d="M382.02994,271.92073l9.61848,-9.90216l22.97628,-8.22204c0,0 -0.83647,2.13202 -1.68493,3.1359c-1.15555,1.36723 -5.84646,5.8563 -5.84646,5.8563c0,0 -6.01587,4.28593 -9.45889,5.85085c0,0 -5.22589,2.25029 -7.64052,2.79021c-2.13832,0.47814 -7.96395,0.49092 -7.96395,0.49092z" fill="#fffd4d" stroke="#fffd4d" stroke-width="0.5"/><path d="M490.16636,246.0139c0,0 -3.12831,-1.19553 -4.42293,-2.13152c-1.50352,-1.08701 -2.8964,-2.33102 -3.59212,-2.99524c-0.95071,-0.90764 -2.71663,-4.24069 -2.71663,-4.24069l24.35623,6.59989l12.85552,4.62546c0,0 -2.23534,1.02651 -5.57583,1.44974c-2.53455,0.32112 -5.97675,0.09716 -7.99472,-0.04442c-1.81072,-0.12705 -4.5165,-0.28413 -7.02153,-0.97917c-3.11438,-0.86411 -5.88797,-2.28408 -5.88797,-2.28408z" data-paper-data="{&quot;index&quot;:null}" fill="#fffd4d" stroke="#fffd4d" stroke-width="0.5"/></g><text transform="translate(366.95407,38.73571) scale(0.30605,0.30605)" font-size="40" xml:space="preserve" fill="#000000" fill-rule="nonzero" stroke="none" stroke-width="1" stroke-linecap="butt" stroke-linejoin="miter" stroke-miterlimit="10" stroke-dasharray="" stroke-dashoffset="0" font-family="&quot;GenEiPOPlePw-Bk&quot;, Sans Serif" font-weight="normal" text-anchor="start" style="mix-blend-mode: normal"><tspan x="0" dy="0">BASÉ SUR L'ÉMISSION DE TÉLÉVISION</tspan></text><text transform="translate(401.85968,69.18128) scale(0.54215,0.54215)" font-size="40" xml:space="preserve" fill="#000000" fill-rule="nonzero" stroke="none" stroke-width="1" stroke-linecap="butt" stroke-linejoin="miter" stroke-miterlimit="10" stroke-dasharray="" stroke-dashoffset="0" font-family="&quot;GenEiPOPlePw-Bk&quot;, Sans Serif" font-weight="normal" text-anchor="start" style="mix-blend-mode: normal"><tspan x="0" dy="0">BOB L'ÉPONGE</tspan></text></g></g></svg>