<svg version="1.1" xmlns="http://www.w3.org/2000/svg" xmlns:xlink="http://www.w3.org/1999/xlink" width="63.7267" height="66.91304" viewBox="0,0,63.7267,66.91304"><defs><linearGradient x1="4.51596" y1="305.02583" x2="68.24266" y2="305.02583" gradientUnits="userSpaceOnUse" id="color-1"><stop offset="0" stop-color="#345c00"/><stop offset="1" stop-color="#51ff00"/></linearGradient></defs><g transform="translate(-4.51596,-271.56931)"><g stroke-miterlimit="10"><path d="M68.24266,305.02583c0,18.47753 -14.2657,33.45652 -31.86335,33.45652c-17.59764,0 -31.86335,-14.97899 -31.86335,-33.45652c0,-18.47753 14.2657,-33.45652 31.86335,-33.45652c17.59764,0 31.86335,14.97899 31.86335,33.45652z" fill="url(#color-1)" stroke="#0b61a3" stroke-width="0" stroke-linecap="butt"/><text transform="translate(8.66976,322.02232) scale(0.34104,0.33148)" font-size="40" xml:space="preserve" fill="#ffffff" stroke="none" stroke-width="1" stroke-linecap="butt" font-family="&quot;SpongeBoyTT1-Regular&quot;, Sans Serif" font-weight="normal" text-anchor="start"><tspan x="0" dy="0">Object</tspan></text><g><path d="M43.81041,301.86141c0,0 -12.13204,-5.28779 -15.20694,-6.628c-1.33865,-0.58346 -2.88217,-1.25621 -2.88217,-1.25621c0,0 0.48381,-1.10548 0.81274,-1.85707c0.13383,-0.30581 -11.89378,-5.3329 -11.89378,-5.3329c0,0 -0.57605,1.02646 -0.91204,1.87877c-0.02162,0.05484 12.34484,5.37786 12.32502,5.43347c-0.19632,0.55095 -0.74129,1.06296 -0.81585,1.31261c-0.02891,0.09677 -11.98065,-5.1188 -12.00181,-5.1384c-0.22613,-0.20918 -0.1973,-0.21302 -1.1977,1.94878c-0.05053,0.10916 8.19257,3.35048 12.04168,5.35629c0.06366,0.03318 2.52295,-6.01199 2.58412,-5.97951c0.26931,0.14292 0.26089,2.44495 0.39917,2.56696c0.09514,0.08393 2.02281,-0.01765 1.62434,0.84925c-0.288,0.62657 -0.99973,1.29537 -1.8332,2.04242c-0.77729,0.6967 -1.43286,1.35267 -1.44688,1.39042c-0.15191,0.40934 -0.87331,0.91451 -0.88503,0.93969c-0.07793,0.16718 -0.80388,-0.31797 -1.95364,-0.74395c-1.22843,-0.45512 -2.84554,-1.22181 -4.5329,-1.92578c-3.57698,-1.4923 -7.37815,-2.96537 -7.38135,-3.00301c-0.00413,-0.04865 0.02616,0.00136 -0.32913,-0.12676c-0.07822,-0.02821 -0.27477,-0.00857 -0.42408,-0.10795c-0.21628,-0.14393 -0.50759,0.0052 -0.3426,-0.55375c0.28202,-0.95542 1.07259,-2.51233 1.86161,-4.30714c1.24124,-2.82353 2.62109,-6.04413 3.09898,-6.9742c0.20807,-0.40499 0.49501,-0.15325 0.6877,-0.1152c0.21273,0.042 0.67711,0.20497 0.87619,0.40807c0.27582,0.28136 0.26503,0.62032 0.36499,0.64757c0.14093,0.03843 -1.42983,2.82118 -1.25145,2.88087c3.0953,1.03567 11.79823,5.45376 11.84741,5.28645c0.08951,-0.30457 0.19906,-0.66897 0.33366,-1.04733c0.15855,-0.44565 0.59933,-0.94864 0.38856,-1.09627c-1.28283,-0.89844 -4.42421,-2.12932 -7.23153,-3.22989c-0.94615,-0.37093 -1.79132,-0.78126 -2.5774,-1.11028c-0.50636,-0.21195 -1.02772,-0.29983 -1.40401,-0.6227c-0.08331,-0.07148 -0.47794,-0.15202 -0.55728,-0.22146c-1.17787,-1.0308 -1.59004,-1.8162 -1.40788,-2.08928c0.16384,-0.24561 1.90889,0.6853 4.25566,1.7048c4.32875,1.88047 10.46125,4.61864 10.77566,4.75691c0.20688,0.09099 0.08427,4.79054 0.28705,4.8797c3.15178,1.38598 15.37188,6.7597 15.37188,6.7597z" fill="#857313" stroke="#000000" stroke-width="0" stroke-linecap="butt"/><g stroke="none" stroke-width="0.5" stroke-linecap="butt"><path d="M60.05556,306.0612c0.56421,0.35074 1.3323,0.84167 1.79359,1.37578l0.00785,-0.00924l0.11514,0.09777c0.01156,0.00937 0.01993,0.02178 0.02445,0.03551c0.01737,0.00266 0.03274,0.0066 0.04577,0.01198c0.13007,0.05379 -0.14131,-0.24383 -0.2013,-0.37115c-0.1182,-0.25081 -0.18282,-0.53046 -0.28439,-0.79006c-0.16715,-0.56415 -0.59692,-1.30293 -1.15038,-1.54516c0,0 -0.00324,-0.00143 -0.00806,-0.00437l-0.00752,-0.00408c-0.03056,-0.00681 -0.05937,-0.01117 -0.08746,-0.01535l-0.03604,0.07081c-0.23431,0.22821 -0.40499,0.48047 -0.55007,0.75031c0.01864,0.01145 0.03694,0.03287 0.03214,0.07243c-0.00397,0.03262 -0.02026,0.0495 -0.03755,0.05815c0.10235,0.09864 0.2257,0.194 0.34385,0.2667zM61.09194,307.5336c-0.63632,-0.10758 -1.28722,-0.17237 -1.94773,-0.28137c-0.06258,0.36842 -0.1105,0.73653 -0.25601,1.07014c0,0 -0.00297,0.00678 -0.00917,0.0152c0.02353,0.00693 0.04731,0.01342 0.07132,0.01947l0.00496,-0.00185c0.49887,-0.28214 1.5944,-0.55821 2.16968,-0.63731c0.09775,-0.02182 0.28525,-0.07536 0.46924,-0.11479c-0.16847,-0.02157 -0.337,-0.03411 -0.5023,-0.06948zM61.12099,307.38361c0.13269,0.0297 0.26892,0.04345 0.40555,0.0588c-0.51791,-0.27722 -1.14823,-1.00256 -1.55141,-1.25132c-0.13016,-0.08105 -0.26352,-0.18545 -0.37608,-0.29356c-0.07968,0.16656 -0.1541,0.33874 -0.23132,0.51516c-0.09716,0.222 -0.15309,0.45467 -0.19685,0.68912c0.66293,0.10946 1.31105,0.17366 1.95012,0.2818zM56.51924,305.04823l0.09502,0.024c0.26998,0.05896 0.55316,0.14435 0.82969,0.1525c0.71701,0.09623 1.40802,0.31206 2.11783,0.41097c0.1568,-0.29656 0.33996,-0.57313 0.59362,-0.82638c-0.00527,-0.00198 -0.01055,-0.0041 -0.0159,-0.00637c-0.7464,-0.16251 -1.53314,-0.13891 -2.28082,-0.20054c-0.48075,-0.04392 -1.17845,0.03952 -1.39432,0.45095c0.02616,-0.01236 0.05484,-0.00513 0.05484,-0.00513zM57.43129,305.37697c-0.15877,-0.00547 -0.31918,-0.03451 -0.47824,-0.06968c0.1954,0.11151 0.38664,0.23396 0.55974,0.35508c0.50413,0.41677 1.02402,0.86552 1.5399,1.2686c0.04071,-0.19752 0.09327,-0.39261 0.17506,-0.57952c0.08646,-0.19756 0.17015,-0.38868 0.26098,-0.57264c-0.68936,-0.10406 -1.36022,-0.30707 -2.05745,-0.40185zM57.42031,305.78396c-0.30591,-0.21347 -0.66841,-0.43102 -1.00892,-0.58166c-0.01698,0.08208 -0.01804,0.17414 0.00016,0.27713c0.1846,0.68583 0.62243,1.09981 0.96027,1.69834c0.38939,0.44529 0.81181,0.90166 1.36986,1.11356c0.00088,-0.01722 0.00656,-0.03016 0.00656,-0.03016c0.15771,-0.35901 0.20099,-0.76193 0.27231,-1.16167c-0.53557,-0.41512 -1.0761,-0.88221 -1.60024,-1.31552zM61.70112,306.36222c0.065,0.16622 0.55049,1.14246 0.47262,1.28866c-0.09269,0.17408 -0.84228,0.17745 -1.02238,0.21744c-0.54476,0.06423 -1.648,0.35228 -2.12085,0.6198l-0.07426,0.02986c0,0 -0.05811,0.02272 -0.08982,-0.02542c-0.67527,-0.19071 -1.17199,-0.70754 -1.61942,-1.22674c-0.3488,-0.61539 -0.79541,-1.04653 -0.98458,-1.75327c-0.16029,-0.90188 0.88777,-1.12783 1.61013,-1.0623c0.75926,0.07741 1.55452,0.04096 2.31414,0.20737c0.07941,0.03603 0.15111,0.03294 0.23657,0.05131l0.04268,0.01712c0.001,0.00038 0.00154,0.00062 0.00154,0.00062c0.59266,0.25938 1.05436,1.03046 1.23364,1.63555z" fill="#968c14"/><path d="M56.44918,305.05436c0.21587,-0.41143 0.91646,-0.50488 1.39721,-0.46096c0.74766,0.06162 1.562,0.04597 2.30841,0.20847c0.00534,0.00227 0.01065,0.00444 0.01591,0.00642c-0.25366,0.25325 -0.43874,0.53832 -0.59556,0.83486c-0.70983,-0.09891 -1.42859,-0.31731 -2.14561,-0.41354c-0.27655,-0.00815 -0.56048,-0.09718 -0.83046,-0.15613l-0.09505,-0.02428c0,0 -0.02866,-0.00724 -0.05484,0.00513z" fill="#b4a924"/><path d="M59.69694,305.79058c0.01729,-0.00865 0.03379,-0.0262 0.03775,-0.05885c0.0048,-0.03955 -0.01331,-0.06156 -0.03195,-0.07301c0.14508,-0.26984 0.32167,-0.52959 0.55598,-0.75782l0.03662,-0.07117c0.0281,0.0042 0.05754,0.00821 0.08808,0.01502l0.00755,0.00405c0.0048,0.00293 0.00812,0.00433 0.00812,0.00433c0.55347,0.24222 1.00388,1.00169 1.17102,1.56583c0.10157,0.25961 0.16165,0.54449 0.27985,0.7953c0.01955,0.04149 0.08274,0.09334 0.1255,0.1539c0.0885,0.12528 0.16029,0.26015 0.07261,0.22388c-0.01304,-0.0054 -0.02586,-0.01553 -0.04323,-0.01817c-0.0045,-0.01374 -0.0129,-0.02615 -0.02446,-0.03551l-0.11552,-0.09753l-0.00794,0.0093c-0.13838,-0.16021 -0.44424,-0.34494 -0.62693,-0.49661c-0.42636,-0.35395 -0.79469,-0.64832 -1.18966,-0.89384c-0.11815,-0.0727 -0.24106,-0.17047 -0.34342,-0.2691z" fill="#b4a924"/><path d="M59.50401,305.77804c-0.09083,0.18396 -0.17587,0.38218 -0.26233,0.57973c-0.08179,0.18691 -0.13829,0.38729 -0.179,0.5848c-0.51588,-0.40308 -1.06037,-0.86794 -1.56448,-1.28471c-0.1731,-0.12112 -0.36359,-0.2455 -0.55898,-0.357c0.15904,0.03516 0.32072,0.062 0.4795,0.06746c0.69726,0.09476 1.39593,0.30564 2.0853,0.40969z" fill="#b4a924"/><path d="M59.15569,307.10355c0.04376,-0.23446 0.10128,-0.47581 0.19843,-0.69781c0.0772,-0.17643 0.15576,-0.35363 0.23546,-0.5202c0.11257,0.10811 0.24754,0.21138 0.3777,0.29244c0.28164,0.17378 0.76008,0.5657 1.19948,0.88069c0.18964,0.13594 0.40337,0.33781 0.55951,0.42136c-0.13663,-0.01533 -0.45961,-0.05868 -0.5923,-0.08837c-0.63907,-0.10813 -1.31536,-0.17866 -1.97829,-0.28812z" fill="#b4a924"/><path d="M61.98211,307.63462c-0.18399,0.03942 -0.74442,0.05817 -0.84217,0.07999c-0.57531,0.07909 -1.67133,0.35332 -2.17023,0.63545l-0.03374,0.01209c-0.02401,-0.00603 -0.04794,-0.01301 -0.07148,-0.01993c0.00619,-0.00842 0.00912,-0.01531 0.00912,-0.01531c0.14552,-0.3336 0.19537,-0.71482 0.25796,-1.08322c0.66051,0.10899 1.33812,0.1764 1.97445,0.28398c0.16531,0.03537 0.70762,0.08538 0.8761,0.10697z" fill="#b4a924"/><path d="M59.03539,307.10308c-0.07129,0.39973 -0.12008,0.8111 -0.27779,1.17013c0,0 -0.00582,0.01308 -0.00671,0.0303c-0.55806,-0.2119 -0.99624,-0.66667 -1.38563,-1.11196c-0.33784,-0.59852 -0.77945,-1.03755 -0.96405,-1.7234c-0.01821,-0.10297 -0.01602,-0.19597 0.00096,-0.27806c0.3405,0.15064 0.70977,0.3653 1.01568,0.57877c0.52414,0.43331 1.08194,0.91911 1.61752,1.33423z" fill="#b4a924"/></g><path d="M49.28965,299.52842c0.70198,0.30722 1.32947,0.75362 2.03173,1.0795c0.0416,-0.03776 0.09911,-0.01259 0.09911,-0.01259l0.03365,0.01611c0.20195,0.05101 0.38382,0.14832 0.58386,0.19815c0.99441,0.22496 1.95746,0.69861 2.92307,1.02818c0.76067,0.33216 1.57369,0.53885 2.33149,0.8667c0,0 0.0355,0.01553 0.05094,0.04944l0.10286,0.04502c0.64846,0.28378 1.19456,0.52714 0.92445,1.25276c0.0273,0.00554 0.06034,0.0232 0.06952,0.07502c0.01642,0.0926 -0.07618,0.10902 -0.07618,0.10902c-0.65615,0.08709 -1.19277,0.97958 -1.28882,1.57308c-0.0764,0.55756 0.28119,1.32161 0.38551,1.89086l-0.00662,0.10921c0,0 -0.00852,0.09366 -0.10218,0.08511c-0.05442,-0.00496 -0.07435,-0.03866 -0.08149,-0.06601c-0.4344,0.52959 -1.07775,0.6447 -1.74193,0.35402c-0.86482,-0.37847 -1.60059,-0.90495 -2.47434,-1.28734c0,0 -0.01041,-0.00455 -0.0224,-0.01411c-0.88355,-0.38454 -1.82353,-0.70994 -2.70808,-1.08925c-0.95385,-0.41744 -1.88009,-0.84977 -2.88585,-1.12413c-0.80389,-0.20508 -1.61023,-0.44822 -2.31016,-0.90169c0,0 -0.00516,-0.00337 -0.01198,-0.0097c-0.83154,-0.34467 -1.69063,-0.6282 -2.51402,-0.99338c-0.73828,-0.56621 -1.85717,-1.68764 -1.32222,-2.75239c-0.09676,-0.24734 0.11701,-0.53915 0.22071,-0.77603c0.42001,-0.95968 0.8831,-1.34602 1.88636,-1.5899c1.08545,-0.13168 2.17817,0.37712 3.15433,0.80433c0.32579,0.14257 0.65433,0.2346 0.97864,0.37293l0.03178,-0.00354l-0.0016,-0.00895c0,0 0.03078,-0.01203 0.06299,-0.00358c0.41465,-0.17748 1.27571,0.54755 1.67686,0.72312z" fill="#000000" stroke="none" stroke-width="0.5" stroke-linecap="butt"/><path d="M9.39038,293.21705l5.21167,-11.98363l3.60505,1.534l11.607,5.02508l-0.06716,4.78979l15.35687,6.72211l-1.18014,2.71184l-15.2814,-6.70941l-4.12971,4.12435z" fill="none" stroke="#000000" stroke-width="0.5" stroke-linecap="round"/><path d="M24.05852,297.34277l-11.81238,-5.15773l0.85154,-1.93741l11.79592,5.13915z" fill="none" stroke="#000000" stroke-width="0.5" stroke-linecap="round"/><path d="M25.55977,293.87924l-11.81235,-5.15774l0.85154,-1.93741l11.7959,5.13914z" fill="none" stroke="#000000" stroke-width="0.5" stroke-linecap="round"/><path d="M27.00876,290.62255l-11.81237,-5.15774l0.85154,-1.93741l11.79592,5.13914z" fill="none" stroke="#000000" stroke-width="0.5" stroke-linecap="round"/></g></g></g></svg>