<svg version="1.1" xmlns="http://www.w3.org/2000/svg" xmlns:xlink="http://www.w3.org/1999/xlink" width="109.34528" height="42.41204" viewBox="0,0,109.34528,42.41204"><g transform="translate(-271.05364,-257.81598)"><g data-paper-data="{&quot;isPaintingLayer&quot;:true}" fill-rule="nonzero" stroke="none" stroke-linecap="butt" stroke-linejoin="miter" stroke-miterlimit="10" stroke-dasharray="" stroke-dashoffset="0" style="mix-blend-mode: normal"><path d="M380.39892,287.69299c0,6.92291 -24.47776,12.53503 -54.67264,12.53503c-30.19487,0 -54.67264,-5.61213 -54.67264,-12.53503c0,-6.92291 24.47778,-12.53503 54.67264,-12.53503c30.19487,0 54.67264,5.61213 54.67264,12.53503z" fill-opacity="0.59608" fill="#000000" stroke-width="0"/><path d="M292.81503,258.36603c-0.05704,-0.03008 -0.11261,-0.0887 -0.11261,-0.20286c0,-0.12862 0.07052,-0.18672 0.13423,-0.21296c0.02624,-0.06371 0.08435,-0.13423 0.21296,-0.13423c0.11416,0 0.17278,0.05556 0.20286,0.11261c2.49095,0 4.9819,0 7.47285,0c2.8106,0 5.57953,0.22521 8.33255,0.22521c1.87313,0 2.78813,5.97634 2.8039,7.63766c0.7438,2.92744 0.22696,6.48799 0.22696,9.506c0,2.88385 0,5.76772 0,8.65158c0,0.79574 0.32229,2.45395 -0.03504,3.16357c-0.59577,1.18316 -3.08271,1.22673 -4.08407,1.56817c-2.89457,0.48453 -5.66224,0.56993 -8.61429,0.56993c-3.07925,0 -6.15624,0.3378 -9.25214,0.3378c-2.95407,0 -5.89722,-0.53407 -8.73241,-1.03254c-2.75769,-0.5065 -5.44233,-3.15386 -6.23633,-5.77235c-1.14558,-2.96582 -0.77008,-2.07856 -0.77008,-5.2824c0,-2.72107 -0.7099,-6.6474 0.5548,-9.12876c0.09245,-2.92435 3.26001,-3.26267 5.2285,-4.24691c2.49731,-0.6123 5.9996,-0.43238 8.01681,1.51796c0.90299,0.90743 2.75274,1.00045 3.77449,-1.05433c0.94626,-1.86358 0.87604,-4.00003 0.87604,-6.2008zM293.28421,258.39776c0.00011,2.27525 0.03981,4.44585 -0.92558,6.40124c-1.38716,2.757 -3.4073,2.28988 -4.52589,1.17626c-1.76318,-1.84885 -5.29596,-1.97636 -7.52226,-1.40969c-1.84223,0.92112 -4.84784,1.18119 -4.93644,3.92195c-1.00476,2.04563 -0.72451,4.43761 -0.59158,6.92359c0.02908,0.54374 0.05111,1.60252 0.05111,2.0901c0,3.15346 -0.38056,2.21074 0.74473,5.13028c0.72965,2.44789 3.28515,5.01501 5.87501,5.46259c2.80375,0.50799 5.72942,1.02523 8.64989,1.02523c3.096,0 6.17262,-0.33781 9.25214,-0.33781c2.9145,0 5.64406,-0.08226 8.5012,-0.55609c0.85339,-0.27864 3.3067,-0.35933 3.79806,-1.35948c0.28258,-0.57519 -0.03504,-2.24078 -0.03504,-2.91692c0,-2.88385 0,-5.76772 0,-8.65158c0,-3.01187 0.49738,-6.52223 -0.22345,-9.44867c0.01491,-1.40268 -0.95712,-7.22581 -2.33825,-7.22581c-2.75365,0 -5.52098,-0.22521 -8.33255,-0.22521c-2.48037,0 -4.96075,0 -7.44112,0z" fill="#d4de18" stroke-width="0.5"/><path d="M300.74593,258.35561c2.81156,0 5.59222,0.23494 8.34586,0.23494c1.38113,0 2.36225,5.83682 2.34735,7.2395c0.72083,2.92644 0.22718,6.45943 0.22718,9.47129c0,2.88385 -0.0057,5.78654 -0.0057,8.6704c0,0.67615 0.31481,2.34619 0.03223,2.92138c-0.49136,1.00015 -2.94954,1.08665 -3.80293,1.36528c-2.85714,0.47383 -5.60233,0.56654 -8.51683,0.56654c-3.07951,0 -6.18319,0.34037 -9.2792,0.34037c-2.92047,0 -5.86658,-0.52695 -8.67034,-1.03494c-2.58986,-0.44758 -5.15751,-3.02989 -5.88716,-5.47778c-1.12529,-2.91956 -0.74879,-1.98855 -0.74879,-5.14201c0,-0.48757 -0.0228,-1.55154 -0.05187,-2.09528c-0.13295,-2.48598 -0.41146,-4.89543 0.59331,-6.94106c0.0886,-2.74077 3.101,-3.01477 4.94323,-3.93589c2.2263,-0.56667 5.77061,-0.45053 7.53379,1.39832c1.11859,1.11362 3.16095,1.57262 4.54811,-1.18438c0.96539,-1.9554 0.93037,-4.1262 0.93026,-6.40145c2.48037,0 4.98113,0.00477 7.4615,0.00477z" data-paper-data="{&quot;noHover&quot;:false,&quot;origItem&quot;:[&quot;Path&quot;,{&quot;applyMatrix&quot;:true,&quot;segments&quot;:[[[815.07594,434.24145],[5.38433,0],[0.00024,4.93906]],[[813.06671,448.1371],[2.09564,-4.24472],[-3.01121,5.98482]],[[803.24202,450.6905],[2.4282,2.41741],[-3.82747,-4.01344]],[[786.91288,447.63039],[4.83281,-1.23012],[-3.99906,1.99954]],[[776.19698,456.14408],[0.19232,-5.9496],[-2.18111,4.4406]],[[774.91281,471.17362],[-0.2886,-5.39651],[0.06312,1.18034]],[[775.02377,475.71076],[0,-1.05841],[0,6.84544]],[[776.64042,486.84745],[-2.44275,-6.3377],[1.5839,5.31383]],[[789.39373,498.70552],[-5.622,-0.97161],[6.08632,1.10272]],[[808.17069,500.93105],[-6.33968,0],[6.72071,0]],[[828.25498,500.19775],[-6.68492,0],[6.32671,0]],[[846.70916,498.99059],[-6.2022,1.02857],[1.85252,-0.60486]],[[854.9539,496.03946],[-1.06663,2.17111],[0.61342,-1.24861]],[[854.87785,489.70748],[0,1.46775],[0,-6.26021]],[[854.87785,470.92685],[0,6.26021],[0,-6.53807]],[[854.39279,450.41592],[1.56476,6.35265],[0.03236,-3.0449]],[[849.31699,434.73032],[2.99812,0],[-5.97755,0]],[[831.22892,434.24145],[6.10327,0],[-5.38433,0]]],&quot;closed&quot;:true}]}" fill="#f3ff1b" stroke-width="0.5"/><path d="M360.13178,258.4324c0,2.20077 -0.07022,4.33722 0.87604,6.2008c1.02174,2.05478 2.8715,1.96176 3.77449,1.05433c2.0172,-1.95033 5.51949,-2.13026 8.01681,-1.51796c1.96849,0.98425 5.13606,1.32257 5.2285,4.24691c1.26469,2.48137 0.5548,6.4077 0.5548,9.12877c0,3.20384 0.37551,2.31658 -0.77008,5.2824c-0.79399,2.61849 -3.47864,5.26585 -6.23633,5.77235c-2.83518,0.49848 -5.77833,1.03253 -8.7324,1.03253c-3.0959,0 -6.17289,-0.3378 -9.25214,-0.3378c-2.95205,0 -5.71972,-0.0854 -8.61429,-0.56993c-1.00137,-0.34144 -3.48831,-0.38501 -4.08407,-1.56817c-0.35732,-0.70963 -0.03504,-2.36784 -0.03504,-3.16358c0,-2.88385 0,-5.76772 0,-8.65158c0,-3.01801 -0.51684,-6.57856 0.22696,-9.506c0.01578,-1.66132 0.93078,-7.63765 2.8039,-7.63765c2.75302,0 5.52195,-0.22521 8.33255,-0.22521c2.49095,0 4.9819,0 7.47285,0c0.03008,-0.05704 0.0887,-0.1126 0.20286,-0.1126c0.12861,0 0.18672,0.07051 0.21296,0.13422c0.06371,0.02624 0.13423,0.08435 0.13423,0.21296c0,0.11416 -0.05556,0.17277 -0.11261,0.20285zM352.22149,258.44179c-2.81156,0 -5.57889,0.2252 -8.33255,0.2252c-1.38113,0 -2.35315,5.82313 -2.33825,7.22581c-0.72083,2.92644 -0.22345,6.43681 -0.22345,9.44868c0,2.88385 0,5.76772 0,8.65158c0,0.67615 -0.31761,2.34173 -0.03503,2.91692c0.49136,1.00015 2.94467,1.08085 3.79806,1.35949c2.85714,0.47383 5.5867,0.5561 8.5012,0.5561c3.07951,0 6.15614,0.3378 9.25214,0.3378c2.92047,0 5.84614,-0.51724 8.64989,-1.02522c2.58986,-0.44758 5.14535,-3.01471 5.875,-5.4626c1.12529,-2.91956 0.74474,-1.97683 0.74474,-5.13029c0,-0.48757 0.02204,-1.54636 0.05111,-2.0901c0.13295,-2.48598 0.41319,-4.87795 -0.59158,-6.92358c-0.0886,-2.74077 -3.09421,-3.00084 -4.93644,-3.92196c-2.2263,-0.56667 -5.75909,-0.43916 -7.52226,1.40969c-1.11859,1.11362 -3.13873,1.58073 -4.5259,-1.17626c-0.96539,-1.9554 -0.92568,-4.126 -0.92558,-6.40124c-2.48037,0 -4.96074,0 -7.44112,0z" data-paper-data="{&quot;index&quot;:null}" fill="#d4de18" stroke-width="0.5"/><path d="M359.66239,258.39488c-0.00011,2.27525 -0.03513,4.44605 0.93026,6.40145c1.38716,2.757 3.42952,2.29799 4.54811,1.18438c1.76318,-1.84885 5.30749,-1.96499 7.5338,-1.39832c1.84223,0.92112 4.85462,1.19511 4.94322,3.93589c1.00476,2.04563 0.72626,4.45508 0.59331,6.94107c-0.02908,0.54374 -0.05187,1.6077 -0.05187,2.09527c0,3.15346 0.37649,2.22245 -0.7488,5.14201c-0.72965,2.44789 -3.2973,5.0302 -5.88716,5.47779c-2.80375,0.50799 -5.74987,1.03494 -8.67034,1.03494c-3.09599,0 -6.19969,-0.34037 -9.2792,-0.34037c-2.9145,0 -5.65969,-0.09272 -8.51683,-0.56654c-0.85339,-0.27864 -3.31158,-0.36513 -3.80293,-1.36529c-0.28258,-0.57519 0.03223,-2.24524 0.03223,-2.92138c0,-2.88385 -0.0057,-5.78654 -0.0057,-8.6704c0,-3.01187 -0.49365,-6.54485 0.22718,-9.4713c-0.01491,-1.40268 0.96622,-7.2395 2.34735,-7.2395c2.75365,0 5.5343,-0.23495 8.34586,-0.23495c2.48038,0 4.98113,-0.00476 7.4615,-0.00476z" data-paper-data="{&quot;noHover&quot;:false,&quot;origItem&quot;:[&quot;Path&quot;,{&quot;applyMatrix&quot;:true,&quot;segments&quot;:[[[815.07594,434.24145],[5.38433,0],[0.00024,4.93906]],[[813.06671,448.1371],[2.09564,-4.24472],[-3.01121,5.98482]],[[803.24202,450.6905],[2.4282,2.41741],[-3.82747,-4.01344]],[[786.91288,447.63039],[4.83281,-1.23012],[-3.99906,1.99954]],[[776.19698,456.14408],[0.19232,-5.9496],[-2.18111,4.4406]],[[774.91281,471.17362],[-0.2886,-5.39651],[0.06312,1.18034]],[[775.02377,475.71076],[0,-1.05841],[0,6.84544]],[[776.64042,486.84745],[-2.44275,-6.3377],[1.5839,5.31383]],[[789.39373,498.70552],[-5.622,-0.97161],[6.08632,1.10272]],[[808.17069,500.93105],[-6.33968,0],[6.72071,0]],[[828.25498,500.19775],[-6.68492,0],[6.32671,0]],[[846.70916,498.99059],[-6.2022,1.02857],[1.85252,-0.60486]],[[854.9539,496.03946],[-1.06663,2.17111],[0.61342,-1.24861]],[[854.87785,489.70748],[0,1.46775],[0,-6.26021]],[[854.87785,470.92685],[0,6.26021],[0,-6.53807]],[[854.39279,450.41592],[1.56476,6.35265],[0.03236,-3.0449]],[[849.31699,434.73032],[2.99812,0],[-5.97755,0]],[[831.22892,434.24145],[6.10327,0],[-5.38433,0]]],&quot;closed&quot;:true}],&quot;index&quot;:null}" fill="#f3ff1b" stroke-width="0.5"/></g></g></svg>