<svg version="1.1" xmlns="http://www.w3.org/2000/svg" xmlns:xlink="http://www.w3.org/1999/xlink" width="111.85996" height="199.36012" viewBox="0,0,111.85996,199.36012"><g transform="translate(-270.77553,18.58291)"><g data-paper-data="{&quot;isPaintingLayer&quot;:true}" fill-rule="nonzero" stroke-linejoin="miter" stroke-miterlimit="10" stroke-dasharray="" stroke-dashoffset="0" style="mix-blend-mode: normal"><path d="M380.74597,83.04142c0,0 -40.49345,-3.4653 -59.24517,-2.81193c-16.94993,0.59058 -48.40675,6.56286 -48.40675,6.56286c0,0 3.49678,-56.53047 5.51239,-73.92779c1.00862,-8.70568 1.53337,-29.66608 1.53337,-29.66608c0,0 29.5067,-1.04247 40.97899,-1.41455c11.65558,-0.37802 42.29752,0.28222 42.29752,0.28222c0,0 2.55648,21.5407 4.05139,33.10256c0.07742,0.59877 13.27825,67.8727 13.27825,67.8727z" fill="#466075" stroke="#000000" stroke-width="0.5" stroke-linecap="round"/><path d="M275.79489,76.02603c-0.46534,4.03294 -1.87676,7.18296 -3.15248,7.03576c-1.27573,-0.1472 -1.93268,-3.53588 -1.46733,-7.56882c0.46534,-4.03294 1.87675,-7.18296 3.15248,-7.03576c1.27573,0.1472 1.93268,3.53588 1.46734,7.56882z" fill="#5e809c" stroke="#000000" stroke-width="0.5" stroke-linecap="butt"/><path d="M378.15247,65.35641c1.27573,-0.1472 2.68714,3.00282 3.15248,7.03576c0.46534,4.03294 -0.19161,7.42162 -1.46733,7.56882c-1.27573,0.1472 -2.68714,-3.00282 -3.15248,-7.03576c-0.46534,-4.03294 0.19161,-7.42162 1.46733,-7.56882z" data-paper-data="{&quot;index&quot;:null}" fill="#5e809c" stroke="#000000" stroke-width="0.5" stroke-linecap="butt"/><path d="M273.5737,82.89178c0,0 33.50529,-6.68536 51.02225,-7.14355c17.97623,-0.4702 55.49298,4.35743 55.49298,4.35743" fill="none" stroke="#000000" stroke-width="0.5" stroke-linecap="round"/><path d="M274.35478,75.89821c-0.24156,1.6625 -0.97278,2.93243 -1.63323,2.83647c-0.66044,-0.09596 -1.00002,-1.52148 -0.75846,-3.18398c0.24156,-1.6625 0.97278,-2.93243 1.63322,-2.83647c0.66044,0.09596 1.00002,1.52148 0.75846,3.18398z" fill="#466075" stroke="#000000" stroke-width="0" stroke-linecap="butt"/><path d="M379.98627,72.63699c0.29401,1.65403 -0.00033,3.08957 -0.65741,3.20637c-0.65708,0.1168 -1.42809,-1.12938 -1.72209,-2.78341c-0.29401,-1.65403 0.00033,-3.08957 0.65741,-3.20637c0.65708,-0.1168 1.42809,1.12938 1.7221,2.78341z" fill="#466075" stroke="#000000" stroke-width="0" stroke-linecap="butt"/><path d="M378.94549,72.79669c0,0 1.51176,14.78501 3.33962,43.25244c0.54399,4.4542 -1.28877,16.14062 -1.5342,19.94956c-1.14173,17.71869 -5.70099,30.30848 -6.08157,30.65392c-8.2622,7.49917 -11.56201,11.57839 -20.45511,12.59121c-0.12075,0.01375 -44.04964,3.10847 -54.09283,-0.36284c-13.68581,-4.73034 -25.53274,-12.50398 -25.6187,-12.70555c-4.14387,-9.71712 -2.84865,-22.14769 -2.33233,-40.71564c0.92727,-24.0885 0.71457,-49.70025 0.71457,-49.70025" fill="none" stroke="#000000" stroke-width="0.5" stroke-linecap="round"/><text transform="translate(295.53033,50.89451) scale(0.9726,1.07487)" font-size="40" xml:space="preserve" fill="#b52b30" fill-rule="nonzero" stroke="#662935" stroke-width="1" stroke-linecap="butt" stroke-linejoin="miter" stroke-miterlimit="10" stroke-dasharray="" stroke-dashoffset="0" font-family="&quot;SpongeBoyTT1-Regular&quot;, Sans Serif" font-weight="normal" text-anchor="start" style="mix-blend-mode: normal"><tspan x="0" dy="0">CB</tspan></text></g></g></svg>