<svg version="1.1" xmlns="http://www.w3.org/2000/svg" xmlns:xlink="http://www.w3.org/1999/xlink" width="796.70435" height="472.88992" viewBox="0,0,796.70435,472.88992"><g transform="translate(68.38129,38.93254)"><g data-paper-data="{&quot;isPaintingLayer&quot;:true}" fill-rule="nonzero" stroke-linejoin="miter" stroke-miterlimit="10" stroke-dasharray="" stroke-dashoffset="0" style="mix-blend-mode: normal"><path d="M-68.38129,387.97047v-426.90301h796.70435v426.90301z" fill="#fffd4d" stroke="none" stroke-width="0" stroke-linecap="butt"/><text transform="translate(25.34271,118.07714) scale(0.41059,0.41059)" font-size="40" xml:space="preserve" fill="#8b2c00" fill-rule="nonzero" stroke="none" stroke-width="1" stroke-linecap="butt" stroke-linejoin="miter" stroke-miterlimit="10" stroke-dasharray="" stroke-dashoffset="0" font-family="&quot;GenEiPOPlePw-Bk&quot;, Sans Serif" font-weight="normal" text-anchor="start" style="mix-blend-mode: normal"><tspan x="0" dy="0"> </tspan><tspan x="0" dy="46.150000000000006px">私はこのゲームに登場するキャラクター、ショー、SFX、曲の所有者ではありません。</tspan><tspan x="0" dy="46.150000000000006px"> </tspan></text><path d="M442.09746,432.19241l-1.11163,1.17702l-1.37319,0.32695l-1.89632,-0.71929l-1.3078,-1.3732" fill="none" stroke="#000000" stroke-width="0.5" stroke-linecap="round"/><path d="M4.31346,81.09699v-74.0991h237.69344v74.0991z" fill="#ffffff" stroke="#000000" stroke-width="0.5" stroke-linecap="butt"/><text transform="translate(20.88057,238.13411) scale(0.44651,0.44651)" font-size="40" xml:space="preserve" fill="#8b2c00" fill-rule="nonzero" stroke="none" stroke-width="1" stroke-linecap="butt" stroke-linejoin="miter" stroke-miterlimit="10" stroke-dasharray="" stroke-dashoffset="0" font-family="&quot;GenEiPOPlePw-Bk&quot;, Sans Serif" font-weight="normal" text-anchor="start" style="mix-blend-mode: normal"><tspan x="0" dy="0">スポンジ・ボブ」をプレイしていただきありがとうございます： ドレスアップ！"</tspan><tspan x="0" dy="46.150000000000006px">ゲームを楽しんでいただけたなら幸いです。</tspan></text><text transform="translate(491.10543,354.5223) scale(0.36008,0.36008)" font-size="40" xml:space="preserve" fill="#00901d" fill-rule="nonzero" stroke="none" stroke-width="1" stroke-linecap="butt" stroke-linejoin="miter" stroke-miterlimit="10" stroke-dasharray="" stroke-dashoffset="0" font-family="&quot;GenEiPOPlePw-Bk&quot;, Sans Serif" font-weight="normal" text-anchor="start" style="mix-blend-mode: normal"><tspan x="0" dy="0">ゲームバージョン: 1.1</tspan></text><g stroke-linecap="butt"><g fill="#000000" stroke="none" stroke-width="0.5"><path d="M424.41416,325.56952c0,0 -0.41421,0.26592 -0.68013,-0.14829c-0.26592,-0.41421 0.14829,-0.68013 0.14829,-0.68013l0.4009,-0.256c4.13352,-3.54258 6.33684,2.06578 5.0271,5.58183c0,0 -0.17182,0.46126 -0.63309,0.28943c-0.46126,-0.17182 -0.28943,-0.63309 -0.28943,-0.63309c0.99041,-2.65876 -0.19771,-7.27687 -3.51753,-4.44793l-0.45612,0.29418z" data-paper-data="{&quot;index&quot;:null}"/><path d="M400.20556,317.0509c-0.47209,0.1393 -0.6114,-0.33281 -0.6114,-0.33281l-0.15249,-0.5209c-0.65996,-4.31144 -4.57986,-1.59611 -5.57027,1.06265c0,0 -0.17182,0.46126 -0.63309,0.28943c-0.46126,-0.17182 -0.28943,-0.63309 -0.28943,-0.63309c1.30976,-3.51604 6.64531,-6.31612 7.45377,-0.9326l0.13571,0.4559c0,0 0.1393,0.47209 -0.33281,0.6114z" data-paper-data="{&quot;index&quot;:null}"/><path d="M427.03455,326.42166c0.46073,0.33514 0.12887,0.70202 0.12887,0.70202l-0.23906,0.22096c-0.50666,0.26183 -0.88813,0.61244 -1.35359,0.92688c-5.74775,3.62353 -11.06988,2.6563 -17.82465,0.13585c-5.44704,-2.55936 -9.16075,-6.62866 -10.84395,-11.77983c0,0 -0.15994,-0.48979 0.38489,-0.57364c0.54482,-0.08386 0.70478,0.40593 0.70478,0.40593c1.58001,4.84168 5.038,8.64859 10.14615,11.0607c6.34517,2.35949 11.28415,3.37013 16.68846,-0.06993c0.49443,-0.33176 0.89821,-0.68855 1.43362,-0.97387l-0.01812,-0.02331c0,0 0.33187,-0.3669 0.79259,-0.03175z"/></g><path d="M419.0458,316.95904c-4.46455,8.45085 -7.0747,15.55983 -10.07507,18.82139c-1.56335,1.69941 -3.86303,2.34021 -5.24111,1.61218c-4.02292,-2.12529 1.23819,-8.93908 8.02895,-21.79316c0.17496,-0.33118 2.20362,-4.16463 2.38313,-4.49151c6.788,-12.3604 11.55002,-23.8492 15.46928,-21.77867c0.63769,0.3369 1.59671,0.38935 1.69146,1.21408c0.50306,4.37801 -6.54234,15.59921 -12.25666,26.41572z" fill="#fff649" stroke="none" stroke-width="0"/><path d="M408.2604,322.74124c0.01704,0.02685 0.03282,0.05417 0.04735,0.08191c-0.52685,0.4923 -0.85169,1.57169 -1.2635,2.24608c-0.02101,0.03239 -0.04196,0.06529 -0.0629,0.09866c-0.75701,1.13515 -2.22174,2.76771 -2.61394,4.40896c-0.10299,0.43099 0.06144,0.69244 0.33272,0.81837c-0.45504,0.95288 -0.94496,1.94541 -1.442,2.73318c-0.13636,0.21612 -0.35447,0.35993 -0.65382,0.2018c-0.57111,-0.30172 0.5557,-2.5499 2.3608,-5.67053c0.3921,-0.67785 2.47235,-4.89116 2.81526,-4.90253z" fill="#000000" stroke="none" stroke-width="0.5"/><path d="M406.58067,324.57707c0.3083,-0.47776 1.08898,-1.82838 1.34149,-2.36053c0.16735,-0.35268 0.2418,-0.32596 0.32452,-0.36692c0.36312,-0.1798 0.87149,0.29218 0.6504,0.711c-1.46615,2.77735 -3.20199,5.42984 -4.38542,8.33892c-0.00659,0.0168 -0.01419,0.03339 -0.02281,0.04971c-0.02308,0.04368 -0.05189,0.08238 -0.08505,0.11566c-1.98614,2.69223 -2.0522,2.01632 -1.34085,0.32578c0.46605,-1.10757 1.30764,-2.62854 2.01554,-4.00032c0.6787,-1.31518 1.21246,-2.36435 1.50218,-2.8133z" fill="#000000" stroke="none" stroke-width="0.5"/><path d="M410.88483,332.33071c-0.4278,-0.226 -0.2018,-0.65382 -0.2018,-0.65382l0.03228,-0.06111c0.84926,-1.60752 1.57512,-3.27745 2.42854,-4.89287c1.62518,-3.07625 3.25034,-6.15251 4.87551,-9.22876c0,0 0.02141,-0.04053 0.06353,-0.09008l0.17248,-0.32648c2.07572,-3.92907 4.14774,-7.86013 6.22767,-11.78695c1.86522,-4.60202 5.10225,-9.29119 6.57367,-14.10319c-1.86834,-4.85577 -5.53134,-0.03332 -7.08873,2.57898c0.05939,0.21204 -0.07505,0.40996 -0.07505,0.40996c-2.57283,3.78382 -4.47393,8.16421 -6.61042,12.2083c-2.32774,4.40613 -4.53558,8.89577 -6.85594,13.28824c-0.50899,0.96346 -1.01798,1.9269 -1.52696,2.89037c-0.91554,0.00286 -1.30887,1.61107 -1.85536,2.50599c-0.02101,0.03239 -0.04196,0.06529 -0.0629,0.09866c-0.75701,1.13515 -2.22174,2.76771 -2.61393,4.40896c-0.05269,0.22051 -0.03539,0.39667 0.03042,0.53297c-0.18166,0.48189 -0.32417,0.92323 -0.41853,1.29648c-0.1021,0.19981 -0.19575,0.39847 -0.27874,0.595c-0.08559,0.01301 -0.18637,-0.00036 -0.30186,-0.06138c-0.4278,-0.226 -0.2018,-0.65382 -0.2018,-0.65382c1.45196,-2.74838 3.0421,-5.75831 4.57316,-8.65644c0.61403,-1.1623 1.21855,-2.30659 1.80085,-3.40882c2.32059,-4.39224 4.52826,-8.8822 6.85595,-13.28825c2.05601,-3.89177 3.89957,-8.08215 6.31578,-11.77499c-0.01213,-0.15703 0.05825,-0.29025 0.05825,-0.29025c1.85228,-3.50614 7.06639,-8.31099 9.47463,-2.29124c-2.25157,4.71534 -4.93874,9.28041 -6.91541,14.12331c-2.0793,3.94536 -4.1659,7.88686 -6.24913,11.83014l-0.20342,0.38506c0,0 -0.02141,0.04055 -0.06353,0.09008c-1.61486,3.05672 -3.22972,6.11345 -4.84457,9.17019c-0.85352,1.61562 -1.57906,3.28492 -2.42854,4.89287l-0.03228,0.06111c0,0 -0.22599,0.42779 -0.65382,0.2018z" fill="#000000" stroke="none" stroke-width="0.5"/><path d="M429.71108,252.8832c-0.4278,-0.226 -0.2018,-0.65382 -0.2018,-0.65382l0.22604,-0.42786c0.34302,-0.64928 0.50089,-1.27989 0.83685,-1.92935c1.58201,-2.95022 -3.55364,-5.01594 -5.73515,-3.82083c0,0 -0.42534,0.23058 -0.65594,-0.19477c-0.23059,-0.42534 0.19476,-0.65595 0.19476,-0.65595c2.98593,-1.60429 9.08425,1.22825 7.05195,5.12355c-0.34059,0.62786 -0.4962,1.28452 -0.83685,1.92935l-0.22604,0.42786c0,0 -0.22601,0.4278 -0.65382,0.2018z" fill="#000000" stroke="none" stroke-width="0.5"/><path d="M460.8255,270.16315c-0.4278,-0.22601 -0.2018,-0.65382 -0.2018,-0.65382l0.044,-0.06922c0.37376,-1.11301 1.06585,-2.03986 1.61752,-3.06248c2.80341,-2.71372 7.99553,0.6564 8.64159,3.9463c0,0 0.09076,0.47524 -0.38448,0.56603c-0.47524,0.09076 -0.56603,-0.38448 -0.56603,-0.38448c-0.44647,-2.4216 -4.73179,-5.59403 -6.91893,-3.5446c-0.48283,0.93714 -1.13861,1.77085 -1.47141,2.78447l-0.10667,0.21601c0,0 -0.22601,0.4278 -0.65382,0.2018z" fill="#000000" stroke="none" stroke-width="0.5"/><path d="M428.05008,291.22118c-7.52883,14.25116 -24.47988,20.07321 -37.86128,13.00388c-13.38137,-7.06932 -18.1258,-24.353 -10.59699,-38.60416c7.52883,-14.25116 24.4799,-20.07319 37.86129,-13.00387c13.38137,7.06932 18.12579,24.353 10.59697,38.60417z" fill="#fbfdfa" stroke="#000000" stroke-width="1"/><path d="M438.45516,342.39581c-0.20527,0.08519 -0.41929,-0.02787 -0.41929,-0.02787c-1.48154,-0.78933 -4.29963,0.56555 -4.35922,2.44496c-0.04748,1.49707 0.90371,2.65923 2.05107,3.45081c1.3762,1.01346 4.51175,-4.48269 3.08576,-5.68339zM438.45029,341.49303c0.20527,-0.08522 0.41932,0.02787 0.41932,0.02787l0.51014,0.2748c2.0476,2.08133 -1.13131,8.67796 -4.15637,7.29391c-1.42381,-1.00626 -2.62559,-2.48595 -2.51025,-4.36686c0.15651,-2.55206 3.6372,-4.28881 5.73714,-3.22971z" fill="#9966ff" stroke="none" stroke-width="0.5"/><path d="M477.09874,315.89745c-7.52883,14.25116 -24.47988,20.07321 -37.86127,13.00389c-13.38137,-7.06932 -18.12581,-24.35299 -10.59699,-38.60416c7.52883,-14.25116 24.4799,-20.07319 37.86128,-13.00388c13.38137,7.06932 18.12579,24.353 10.59697,38.60417z" fill="#fbfdfa" stroke="#000000" stroke-width="1"/><path d="M424.62779,288.12525c-6.06233,11.47526 -20.17158,15.92022 -31.51393,9.92812c-11.34233,-5.9921 -15.62265,-20.1522 -9.56031,-31.62745c6.06233,-11.47526 20.17159,-15.92023 31.51394,-9.92813c11.34233,5.9921 15.62264,20.15221 9.5603,31.62745z" fill="#3da9e8" stroke="#000000" stroke-width="1"/><path d="M473.09454,313.07961c-5.93916,11.24211 -19.66124,15.64988 -30.64913,9.84503c-10.98789,-5.80485 -15.0807,-19.62415 -9.14155,-30.86626c5.93916,-11.24211 19.66123,-15.64987 30.64912,-9.84502c10.98789,5.80485 15.08071,19.62414 9.14155,30.86624z" fill="#3da9e8" stroke="#000000" stroke-width="1"/><path d="M418.04035,283.96788c-3.93232,7.44341 -13.0105,10.36561 -20.27669,6.52692c-7.26619,-3.83871 -9.96882,-12.98464 -6.03649,-20.42803c3.93232,-7.44341 13.01049,-10.36562 20.27669,-6.52692c7.26619,3.83871 9.96882,12.98464 6.0365,20.42805z" fill="#000000" stroke="#000000" stroke-width="1"/><path d="M467.372,308.83921c-4.16637,7.88647 -13.6139,11.07296 -21.10162,7.11724c-7.48771,-3.95571 -10.18019,-13.55572 -6.0138,-21.44219c4.16637,-7.88647 13.61391,-11.07296 21.10162,-7.11725c7.48771,3.95571 10.18019,13.55572 6.0138,21.44219z" fill="#000000" stroke="#000000" stroke-width="1"/><path d="M416.45894,275.92898c-1.10012,2.08238 -3.89555,2.76483 -6.24375,1.52428c-2.34823,-1.24055 -3.35999,-3.93432 -2.25989,-6.01671c1.10012,-2.08238 3.89554,-2.76482 6.24375,-1.52426c2.34823,1.24055 3.36,3.93432 2.2599,6.0167z" fill="#ffffff" stroke="#000000" stroke-width="1"/><path d="M466.28821,301.4121c-1.12353,2.12667 -3.93792,2.84502 -6.28615,1.60448c-2.34823,-1.24055 -3.34103,-3.97024 -2.2175,-6.09692c1.12353,-2.12667 3.93791,-2.84505 6.28613,-1.60449c2.34823,1.24055 3.34105,3.97025 2.21752,6.09693z" fill="#ffffff" stroke="#000000" stroke-width="1"/><path d="M446.69518,332.51379c-0.00103,-0.00001 -0.00207,-0.00004 -0.00311,-0.00007l-0.09785,0.18223c-0.71994,3.0378 -0.12778,6.18275 0.20019,9.25767c0.51663,4.14061 -2.16405,10.15366 -6.00929,12.03406c-4.80295,2.07974 -9.31447,-1.65064 -12.11765,-5.5991c-1.43106,-3.27164 -0.85182,-5.95159 1.8131,-8.47068c1.23777,-1.17004 2.95563,-1.73563 4.09568,-3.06892c2.94059,-0.97162 6.71532,-2.43651 8.4888,-5.00865c-0.00528,-0.07145 0.00317,-0.12246 0.00317,-0.12246c0.47135,-2.68357 2.46987,-1.99407 3.99657,-0.42783l0.12494,0.75087c0,0 -0.01083,0.48373 -0.49454,0.47289zM444.29159,331.6817c-1.61207,3.05144 -5.84192,5.02583 -9.17426,5.96955c-1.02711,1.34386 -2.79401,1.82726 -3.9629,2.96111c-2.32086,2.25133 -2.8989,4.39209 -1.64508,7.29914c2.53398,3.50463 6.5758,7.07079 10.87621,5.19487c3.43609,-1.54295 5.9777,-7.44837 5.44815,-11.03679c-0.34335,-3.23324 -0.95095,-6.52539 -0.14392,-9.7177l0.30395,-0.58309c0,0 0.02769,-0.05241 0.08203,-0.11086c-0.78662,-0.78756 -1.46929,-1.20161 -1.83747,-0.5199c0.21803,0.23184 0.05329,0.54367 0.05329,0.54367z" fill="#6af2e7" stroke="none" stroke-width="0.5"/><path d="M444.83782,330.9205c0,0 0.21955,-0.41987 -0.0103,-0.66429c0.38818,-0.71871 1.11483,-0.27811 1.94416,0.5522c-0.05728,0.06161 -0.0865,0.11687 -0.0865,0.11687l-0.32013,0.61496c-0.85081,3.36563 -0.18905,6.88275 0.17297,10.2915c0.55828,3.78323 -2.16696,10.05529 -5.78959,11.68199c-4.53386,1.97775 -8.84269,-1.80449 -11.51423,-5.49937c-1.32187,-3.06487 -0.72074,-5.35542 1.72613,-7.72896c1.23233,-1.1954 3.10855,-1.73448 4.19141,-3.15127c3.51323,-0.99495 8.03359,-3.08704 9.73317,-6.30413z" data-paper-data="{&quot;noHover&quot;:false,&quot;origItem&quot;:[&quot;Path&quot;,{&quot;applyMatrix&quot;:true,&quot;segments&quot;:[[[357.49913,152.33234],[0,0],[0,3.56641]],[[351.99789,162.2156],[2.58932,-2.4709],[-0.2898,1.72374]],[[349.80623,166.83427],[0.52072,-1.60029],[-1.03391,3.17747]],[[351.82653,174.29792],[-2.54897,-2.05105],[4.00718,1.97911]],[[364.27226,173.79446],[-3.02391,3.79001],[2.39488,-3.06853]],[[363.92273,161.07974],[2.21608,3.02327],[-1.8745,-2.78859]],[[359.10024,152.26975],[0.80362,3.30652],[0,0]],[359.09649,151.59024],[[359.11793,151.44935],[-0.02144,0.07963],[-1.09895,-0.3399]],[[357.18798,151.8613],[0.00735,-0.80065],[0.31114,0.1066]],[357.49913,152.33235]],&quot;closed&quot;:true,&quot;fillColor&quot;:[0,0,0,1]}]}" fill="#b5f2ed" stroke="none" stroke-width="0.5"/><path d="M434.33466,322.33598c2.88425,1.65419 7.09176,2.58841 10.23278,3.56136c3.82781,1.34645 7.64416,2.63311 11.25753,4.4435c1.33121,1.36537 0.00617,3.13895 -0.91119,3.47341c-3.1127,1.13483 -7.12656,0.90865 -9.82195,0.06445c-4.07506,-1.27628 -7.58911,-4.4998 -10.28773,-8.71963c-0.35878,-0.69932 -1.05496,-2.07485 -0.50157,-2.82584l0.03216,0.00275z" data-paper-data="{&quot;noHover&quot;:false,&quot;origItem&quot;:[&quot;Path&quot;,{&quot;applyMatrix&quot;:true,&quot;segments&quot;:[[401.7332,302.70579],[[401.70764,302.73192],[0,0],[0.26779,1.01631]],[[404.5664,304.28742],[-0.87751,-0.18216],[5.64945,0.62936]],[[419.95688,300.03609],[-4.77418,3.15193],[2.41285,-1.4992]],[[425.62133,293.65952],[-0.96545,2.76479],[0.36287,-1.03919]],[[424.57437,290.02738],[2.16652,-0.19577],[-4.2009,1.87549]],[[412.24098,296.32893],[3.94391,-2.39193],[-3.11938,2.0563]],[[401.73319,302.7058],[3.53853,-1.34879],[0,0]]],&quot;closed&quot;:true,&quot;fillColor&quot;:[0,0,0,1]}]}" fill="#b5f2ed" stroke="none" stroke-width="0.5"/><path d="M431.62843,348.62724c-0.02396,-0.03729 -0.03335,-0.0699 -0.03335,-0.0699l-0.09396,-0.36392c0.09798,-0.34366 0.45878,-3.09497 1.50049,-2.16312c0.37781,0.33795 0.42954,2.27745 0.77833,2.87054c1.33933,2.31089 4.09588,1.2979 5.91964,0.25366c1.54138,-0.45273 3.13894,0.38717 1.65763,1.89844c-1.02234,1.04301 -2.37046,0.87729 -3.68757,1.25316c-2.80063,0.20378 -5.21912,-0.77708 -6.03229,-3.60193c0,0 -0.00939,-0.03261 -0.00892,-0.07694z" fill="#ffffff" stroke="none" stroke-width="0.5"/><path d="M392.03173,246.67923c0.34971,-0.33437 0.68407,0.0153 0.68407,0.0153l0.02738,0.06458c2.87218,1.51735 5.44134,3.6266 8.50363,4.79217c4.49323,1.33269 9.28332,2.52542 13.99064,1.78543c3.15059,-0.06793 7.77751,-1.55146 9.88,-4.05561c0,0 0.31343,-0.36859 0.68202,-0.05516c0.36858,0.31342 0.05516,0.68202 0.05516,0.68202c-2.30439,2.68151 -7.09073,4.32177 -10.53091,4.39254c-4.82616,0.77479 -9.78211,-0.46387 -14.38732,-1.83272c-3.11431,-1.19084 -5.72415,-3.30991 -8.64521,-4.85309l-0.27476,-0.2514c0,0 -0.3344,-0.34968 0.0153,-0.68407z" fill="#000000" stroke="none" stroke-width="0.5"/><path d="M486.4828,298.63692l-0.36252,-0.08526c-2.92105,-1.54319 -6.14244,-2.50471 -8.88136,-4.40611c-3.72625,-3.03264 -7.54264,-6.42835 -9.62265,-10.85164c-1.88043,-2.88162 -3.22311,-7.75982 -2.30683,-11.17467c0,0 0.12783,-0.46665 0.59446,-0.33883c0.46664,0.12782 0.33883,0.59446 0.33883,0.59446c-0.88356,3.1481 0.49873,7.80626 2.2183,10.44708c2.04181,4.30553 5.72679,7.59012 9.36002,10.55061c2.68873,1.87267 5.87905,2.80614 8.75124,4.32349l0.06877,-0.01377c0,0 0.47731,0.07914 0.3982,0.55645c-0.07912,0.47732 -0.55645,0.39818 -0.55645,0.39818z" data-paper-data="{&quot;index&quot;:null}" fill="#000000" stroke="none" stroke-width="0.5"/><path d="M404.17982,336.67127c2.9586,2.25701 6.06565,-3.65562 6.7593,-5.02687c0.30588,-0.60469 0.49252,-2.54036 1.46341,-2.02744c0.64776,0.3422 -1.59723,4.35247 -1.64724,4.44698c-1.29616,2.44885 -4.04197,4.77246 -6.97545,3.49059c-3.24125,-1.41637 -1.34411,-5.73996 -0.00978,-7.5839c0.12161,-0.16806 0.75893,-1.19747 1.12099,-1.72389c-0.23017,0.43611 -0.41673,0.88279 -0.52361,1.3301c-0.0527,0.22052 -0.03539,0.39666 0.03044,0.53298c-0.18166,0.48189 -0.32418,0.92325 -0.41853,1.2965c-0.32749,0.64084 -0.56772,1.26981 -0.64992,1.85425c-0.51318,1.17308 -0.53886,2.35086 0.8504,3.41069z" fill="#000000" stroke="none" stroke-width="0.5"/><path d="M435.12073,321.69151c2.78765,1.54319 6.73747,2.46114 9.68887,3.39276c3.8787,1.38971 7.76914,3.10463 11.3836,5.06994c1.40488,1.59732 0.31434,3.46607 -1.41591,4.12962c-2.91143,1.1166 -5.94395,0.93987 -8.84483,-0.06453c-5.03002,-1.59163 -9.07893,-4.16763 -11.9252,-8.56539c-0.6756,-1.32359 -1.23328,-2.75723 -0.26659,-3.95661c0.00678,-0.06902 0.03171,-0.145 0.08347,-0.22704c0.25816,-0.40922 0.66737,-0.15106 0.66737,-0.15106c0.0598,0.03792 0.1203,0.07548 0.1815,0.11268l0.00226,-0.00015c0,0 0.32441,-0.00432 0.44545,0.25975zM434.35801,322.36847l-0.0319,-0.00298c-0.54404,0.7434 0.15891,2.10699 0.51937,2.80495c2.69057,4.19346 6.60964,6.6203 11.39118,8.13028c2.35273,0.8149 5.05309,1.2049 7.46829,0.33573c0.90779,-0.3267 3.22403,-1.3512 1.89465,-2.71802c-3.59607,-1.82442 -7.29334,-3.55284 -11.09911,-4.91718c-3.12207,-0.98831 -7.27067,-1.96851 -10.14248,-3.63278z" fill="#6af2e7" stroke="none" stroke-width="0.5"/><path d="M394.03999,246.99916l10.1387,-1.24264l17.05702,5.92497c0,0 -1.47153,0.84047 -2.42639,1.02523c-1.30047,0.25164 -6.08721,0.66162 -6.08721,0.66162c0,0 -5.45603,-0.322 -8.16651,-1.01805c0,0 -4.05603,-1.1285 -5.69815,-1.93798c-1.45421,-0.71684 -4.81744,-3.41316 -4.81744,-3.41316z" fill="#fffd4d" stroke="#fffd4d" stroke-width="0.5"/><path d="M468.38207,282.2553c0,0 -1.24799,-2.14083 -1.55968,-3.28107c-0.36199,-1.32423 -0.58736,-2.68758 -0.68004,-3.39325c-0.12666,-0.9643 0.40252,-3.70469 0.40252,-3.70469l10.97341,15.10724l5.26192,8.63189c0,0 -1.76462,-0.44585 -3.88616,-1.75226c-1.60969,-0.99123 -3.48948,-2.71782 -4.58672,-3.73595c-0.98455,-0.91357 -2.47098,-2.25985 -3.59205,-3.82299c-1.39377,-1.94337 -2.33318,-4.04892 -2.33318,-4.04892z" data-paper-data="{&quot;index&quot;:null}" fill="#fffd4d" stroke="#fffd4d" stroke-width="0.5"/></g><path d="M397.05524,63.37058v-40.05405h231.22523v40.05405z" fill="#ffffff" stroke="#000000" stroke-width="0.5" stroke-linecap="butt"/><text transform="translate(11.84373,30.23482) scale(0.35436,0.35436)" font-size="40" xml:space="preserve" fill="#000000" fill-rule="nonzero" stroke="none" stroke-width="1" stroke-linecap="butt" stroke-linejoin="miter" stroke-miterlimit="10" stroke-dasharray="" stroke-dashoffset="0" font-family="&quot;GenEiPOPlePw-Bk&quot;, Sans Serif" font-weight="normal" text-anchor="start" style="mix-blend-mode: normal"><tspan x="0" dy="0">原作：ニッケルオデオンTVシリーズ</tspan><tspan x="0" dy="46.150000000000006px"> </tspan><tspan x="0" dy="46.150000000000006px">スポンジ・ボブ</tspan></text><text transform="translate(406.25,48.60598) scale(0.43819,0.46144)" font-size="40" xml:space="preserve" fill="#000000" fill-rule="nonzero" stroke="none" stroke-width="1" stroke-linecap="butt" stroke-linejoin="miter" stroke-miterlimit="10" stroke-dasharray="" stroke-dashoffset="0" font-family="&quot;GenEiPOPlePw-Bk&quot;, Sans Serif" font-weight="normal" text-anchor="start" style="mix-blend-mode: normal"><tspan x="0" dy="0">このゲームはファンメイドだ。</tspan><tspan x="0" dy="46.150000000000006px"> </tspan></text><text transform="translate(72.25,180.38192) scale(0.5,0.5)" font-size="40" xml:space="preserve" fill="#8b2c00" fill-rule="nonzero" stroke="none" stroke-width="1" stroke-linecap="butt" stroke-linejoin="miter" stroke-miterlimit="10" stroke-dasharray="" stroke-dashoffset="0" font-family="&quot;GenEiPOPlePw-Bk&quot;, Sans Serif" font-weight="normal" text-anchor="start" style="mix-blend-mode: normal"><tspan x="0" dy="0">音楽："Cailfornia lullabye" by Josh Woodward </tspan><tspan x="0" dy="46.150000000000006px">(ウェブサイト：https://www.joshwoodward.com/）</tspan></text><text transform="translate(546.10543,425.5223) scale(0.36008,0.36008)" font-size="40" xml:space="preserve" fill="#00901d" fill-rule="nonzero" stroke="none" stroke-width="1" stroke-linecap="butt" stroke-linejoin="miter" stroke-miterlimit="10" stroke-dasharray="" stroke-dashoffset="0" font-family="&quot;GenEiPOPlePw-Bk&quot;, Sans Serif" font-weight="normal" text-anchor="start" style="mix-blend-mode: normal"><tspan x="0" dy="0">ゲームバージョン: 0.5</tspan></text></g></g></svg>