<svg version="1.1" xmlns="http://www.w3.org/2000/svg" xmlns:xlink="http://www.w3.org/1999/xlink" width="128.56437" height="100.54691" viewBox="0,0,128.56437,100.54691"><g transform="translate(-259.91218,-17.32686)"><g data-paper-data="{&quot;isPaintingLayer&quot;:true}" fill-rule="nonzero" stroke-linejoin="miter" stroke-miterlimit="10" stroke-dasharray="" stroke-dashoffset="0" style="mix-blend-mode: normal"><path d="" fill="#fffd4d" stroke="none" stroke-width="NaN" stroke-linecap="butt"/><path d="" fill="#fffd4d" stroke="none" stroke-width="NaN" stroke-linecap="butt"/><path d="" fill="#fffd4d" stroke="none" stroke-width="NaN" stroke-linecap="butt"/><path d="" fill="#9e9215" stroke="none" stroke-width="0.5" stroke-linecap="butt"/><path d="" fill="#9e9215" stroke="none" stroke-width="0.5" stroke-linecap="butt"/><path d="" fill="#9e9215" stroke="none" stroke-width="0.5" stroke-linecap="butt"/><path d="" fill="#9e9215" stroke="none" stroke-width="0.5" stroke-linecap="butt"/><path d="" fill="#fbfdfa" stroke="#000000" stroke-width="1" stroke-linecap="butt"/><path d="" fill="#fbfdfa" stroke="#000000" stroke-width="1" stroke-linecap="butt"/><path d="" fill="#3da9e8" stroke="#000000" stroke-width="1" stroke-linecap="butt"/><path d="M326.06429,99.56117c0,0 -7.37266,-7.84386 -7.37266,-15.79968c0,-7.75139 0.39442,-35.34686 0.39442,-35.34686c1.06858,0.54917 2.00914,0.90753 3.22982,0.90753c0.0346,0 0.06916,-0.00024 0.10367,-0.00072c0.03452,0.00048 0.06906,0.00072 0.10368,0.00072c1.17485,0 2.29897,-0.27974 3.33441,-0.79035v56.39525z" fill="#0f81d8" stroke="#0c69b0" stroke-width="0" stroke-linecap="butt"/><path d="M318.33475,102.25384c-0.65384,-0.5511 -0.46993,-30.51566 -0.46993,-30.51566l-0.01507,0.22441c0.24525,-3.22974 0.26862,-15.44956 0.36321,-18.66355c0.04805,-1.6326 -0.34573,-3.17034 -0.22249,-4.80278c0,0 0.58751,-0.51526 1.35538,-0.38413c0.76787,0.13112 0.24883,1.73448 0.24883,1.73448c-0.36998,4.8422 -0.2339,17.50952 -0.60361,22.37823l-0.10026,5.51757c0,0 0.0978,25.06253 -0.55606,24.51142z" data-paper-data="{&quot;index&quot;:null}" fill="#156eb2" stroke="none" stroke-width="0.5" stroke-linecap="butt"/><path d="M325.6879,78.19318l-0.10027,-5.51757c-0.36971,-4.86871 -0.11826,-19.90151 -0.48823,-24.74371c0,0 -0.46134,-0.2764 0.30653,-0.40752c0.76787,-0.13114 0.77844,-0.19281 0.77844,-0.19281c0.12324,1.63244 0.13333,4.78562 0.18137,6.41822c0.0946,3.21399 0.11795,15.43382 0.36321,18.66355l-0.01507,-0.22441c0,0 0.18391,29.96456 -0.46993,30.51566c-0.65386,0.55111 -0.55605,-24.51142 -0.55605,-24.51142z" data-paper-data="{&quot;index&quot;:null}" fill="#156eb2" stroke="none" stroke-width="0.5" stroke-linecap="butt"/><path d="M263.31206,106.7195c-0.07486,-0.254 0.28951,-1.17455 0.26135,-1.50961c-0.27402,-3.26102 1.77809,-9.54623 1.71924,-9.64824c-1.75547,-3.04302 -1.01013,-6.27724 -2.44764,-7.17839c-1.21423,-0.76117 -1.58536,-1.65989 -1.84138,-2.89623c-0.17719,-0.85567 -0.39834,-2.35246 -0.39834,-3.28963c0,-1.7853 -0.01892,-3.41567 1.30862,-4.65792c0.64297,-0.60166 0.91873,-1.46215 2.05122,-1.77982c1.62985,-0.45718 4.25846,-0.23333 5.76878,-0.23333c1.09303,0 3.22999,0.43367 8.52766,2.71168c0.32622,0.14028 1.48415,0.23606 3.20465,0.01404c1.82556,-0.23558 7.75933,-4.02957 8.12964,-3.86693c0.80545,0.35376 4.88749,-1.4832 5.72259,-1.0936c0.39029,0.18207 1.12989,0.00347 1.84677,0.11786c1.32569,0.21153 2.82402,0.67407 3.65759,0.97551c1.65707,0.59923 3.66458,2.13802 5.52254,2.66007c1.25106,0.35152 13.5275,-3.72237 14.84548,-3.41247c4.49627,1.0572 4.76165,1.47279 8.63522,2.52693c1.996,0.54319 14.5439,-3.22799 16.44634,-2.69275c2.59206,0.72926 3.45199,1.20808 9.1777,2.00395c1.88899,0.26257 6.42723,-1.80071 8.55836,-1.45207c1.52767,0.24991 6.93057,0.73597 8.43822,1.67142c0.1249,0.07749 2.48636,-0.58022 3.40037,-1.27741c1.08852,-0.8303 5.77382,-1.14602 7.17172,-0.91311c1.7339,0.2889 4.50815,3.85568 5.20072,5.48855c1.18993,2.80549 -2.07747,8.29249 -3.14428,11.47041c-0.48388,1.44143 -0.2966,2.40781 -0.2774,2.43345c0.31493,0.42037 1.20582,1.52177 0.1619,1.37268c0.65662,0.30338 1.22506,0.35268 0.80946,3.17673c-0.19146,1.30101 -0.38995,3.82536 -0.94513,5.66291c-0.80338,2.65899 -2.23257,6.28824 -3.11322,9.02812c-0.57588,0.00075 -1.10749,4.28493 -1.66348,4.25747c-0.0886,-0.00438 -2.14193,-10.03589 -8.57682,-15.49577c-6.03899,-5.12397 -12.53448,-8.72461 -19.61227,-9.25465c-3.21056,-0.24043 -8.10289,0.78461 -9.93138,1.58925c-5.93442,2.6115 -12.09187,7.56036 -14.59296,12.24419c-1.22414,2.29246 -2.59744,4.50015 -3.08049,6.57382c-0.32455,1.39323 -0.10503,4.07652 -1.37135,5.79178c-0.2939,0.39809 0.32013,-2.69518 0.01713,-2.67457c-0.23023,0.01566 -1.49239,-2.08367 -1.85847,-3.10894c-0.67484,-1.88997 -0.48748,-3.4043 -0.58427,-4.40189c-0.099,-1.02033 1.37363,2.22319 1.30897,2.22307c-0.70903,-0.00139 -5.96336,-8.3336 -8.82092,-10.55213c-2.49232,-1.93498 -9.02034,-4.91004 -11.58352,-5.98669c-0.52828,-0.22191 -0.88815,-0.79893 -1.00954,-0.78719c-0.90934,-0.2786 1.16661,0.46328 0.43562,0.38757c-4.57085,-0.47345 -9.07627,1.76413 -14.49377,4.2171c-1.3557,0.61385 -2.2891,1.43799 -6.73281,1.43873c-4.7931,0.00078 -3.83062,0.43854 -5.71787,3.84914c-0.45626,0.82456 -3.79294,3.82255 -4.28553,4.72216c-0.46591,0.85089 2.58619,-4.95335 2.24665,-3.53177c-0.29247,1.22446 -4.00175,9.68916 -4.10581,10.3948c-0.26067,1.76778 -0.66282,2.89246 -1.82036,2.77661c-0.71684,-0.07175 -0.99672,-4.53888 -1.71747,-4.59824c-0.23643,-0.65817 -0.14419,-1.79937 -0.31166,-2.85788c-0.18899,-1.19451 -0.35306,-0.86893 -0.53635,-1.49084z" fill="#0f81d8" stroke="none" stroke-width="NaN" stroke-linecap="butt"/><path d="" fill="#6af2e7" stroke="none" stroke-width="0.5" stroke-linecap="butt"/><path d="" data-paper-data="{&quot;noHover&quot;:false,&quot;origItem&quot;:[&quot;Path&quot;,{&quot;applyMatrix&quot;:true,&quot;segments&quot;:[[[343.92669,148.61766],[3.42749,0.13441],[0,0]],[[343.89611,148.63033],[0,0],[-0.13824,0.94189]],[[345.7247,150.94262],[-0.66629,-0.46375],[4.48278,2.53292]],[[360.05797,152.87278],[-5.09799,0.92845],[2.54315,-0.39112]],[[367.04413,149.57442],[-1.78731,1.96008],[0.67178,-0.73672]],[[367.46328,146.17626],[1.87453,0.6072],[-4.16656,0.06888]],[[354.94792,147.04105],[4.13609,-0.5905],[-3.32984,0.60403]]],&quot;closed&quot;:true,&quot;fillColor&quot;:[0,0,0,1]}]}" fill="#b5f2ed" stroke="none" stroke-width="0.5" stroke-linecap="butt"/><path d="M264.21315,91.9766c-0.49502,0.11 -0.60503,-0.38502 -0.60503,-0.38502l-0.0877,-0.40331c-0.18009,-1.78947 -2.14451,-2.66044 -2.98039,-4.09932c-1.23408,-2.12432 -0.26878,-4.79491 -0.2659,-7.1474c0.65957,-5.61329 5.97486,-5.20249 10.17085,-4.5472c3.3383,1.01878 7.28036,3.19907 10.82734,2.09144c0,0 0.10393,-0.03198 0.23034,-0.0182l0.11578,-0.06188c1.11564,-0.34158 2.17596,-0.89865 3.15648,-1.52579c4.45263,-1.8594 8.75963,-4.35374 13.8465,-2.66108c1.62903,0.41191 3.58813,1.89745 5.88666,2.68135c1.98239,0.67607 4.43997,0.68178 4.52451,0.78097c0.90087,-0.0159 1.59516,-0.35555 2.40571,-0.75946c4.85381,-1.73743 8.28253,-3.4013 13.4285,-1.68999c3.93959,1.6386 6.74061,1.92179 10.80297,0.67083c0,0 0.20427,-0.06285 0.38839,0.02566c3.69097,-0.70224 5.7226,-1.77972 9.58101,-1.77148c2.17808,0.30799 5.47473,1.21664 7.7602,1.66839c1.14834,0.22698 2.40367,0.20278 2.40367,0.20278c1.64405,-0.02308 5.51748,-1.82556 7.07016,-1.86688c2.10417,-0.05599 2.5088,0.35431 4.38899,0.78753c2.03141,0.64902 3.90449,1.27263 5.95303,1.27842c0.07177,-0.07098 0.14276,-0.10648 0.14276,-0.10648c3.40125,-1.69848 7.68117,-3.33148 11.1719,-1.01226c3.54949,2.285 4.84869,7.76256 3.01932,11.4213c-0.75752,1.514 -3.19481,4.86252 -3.07869,6.72013c0.14831,0.07268 1.36975,2.81293 1.42388,4.29434c0.0378,0.09234 0.05795,0.21076 0.00782,0.33775c0.02507,2.49789 -0.66155,5.14201 -1.41922,7.16106c-0.57063,1.31298 -1.03961,2.68276 -1.47421,4.05783c0.03305,0.02181 -0.41066,1.32585 -0.4386,1.41742c-0.11689,0.52141 -2.19356,6.62528 -2.34604,7.14063c-0.36485,0.00051 -0.00557,-1.55073 -0.37042,-1.55026c0.09253,-0.32095 1.22219,-4.67848 1.31991,-5.00402l0.01367,-0.11531c0.65654,-2.11895 1.46866,-4.28783 2.35549,-6.32667c0.69565,-1.85645 1.40159,-4.44669 1.37198,-6.83875l-0.08631,-0.15194c-0.10835,-1.46495 -1.06324,-2.69074 -1.2366,-4.08478c-0.27547,-2.21519 2.09988,-5.60911 3.05021,-7.51101c1.5897,-3.17942 0.4762,-8.14641 -2.66575,-10.11791c-3.07812,-2.05977 -6.95375,-0.52565 -9.96961,0.97226c-0.11119,0.2195 -0.37862,0.26407 -0.37862,0.26407l-0.32358,0.04694c-2.12926,0 -4.92127,-1.22297 -7.0328,-1.37379c-1.68793,-0.39012 -4.02462,-0.50867 -6.10821,0.00539c-1.18718,0.29291 -3.36331,1.30166 -3.36331,1.30166c-3.22596,0.73386 -7.62163,-1.48464 -11.23291,-2.00621c-3.91863,0.00952 -5.96175,1.10717 -9.74752,1.83711c0,0 -0.12107,0.02305 -0.25521,-0.01324c-4.05678,1.17167 -7.0519,0.85971 -11.05338,-0.81071c-4.8684,-1.62649 -8.08214,0.03658 -12.67479,1.673c-0.95963,0.48157 -1.79751,0.83855 -2.88142,0.84141l-0.35197,-0.04513c0,0 -0.09127,-0.01304 -0.19042,-0.06692c-3.4054,0.46935 -6.85758,-2.597 -10.07471,-3.39128c-4.78767,-1.59874 -8.90426,0.84461 -13.09183,2.58547c-1.02936,0.66536 -3.73051,1.8404 -3.94997,1.75471c-3.70587,0.97151 -7.60226,-1.07069 -11.0779,-2.14993c-3.50995,-0.53033 -8.36478,-1.19246 -8.93153,3.61803c0.00288,2.15839 -0.98318,4.63114 0.1341,6.585c0.94813,1.65806 2.78507,2.40451 3.10503,4.46832l0.07243,0.31733c0,0 0.11001,0.49504 -0.38502,0.60504z" fill="#156eb2" stroke="none" stroke-width="0.5" stroke-linecap="butt"/><path d="M263.18369,112.04229c-0.07749,-0.08894 -0.11045,-0.1812 -0.11045,-0.1812c-1.39258,-3.92992 -0.15287,-10.52263 1.02236,-14.3496c0.70867,-2.82266 -1.1775,-6.72333 -2.22078,-9.22205c-0.08059,-0.10397 0.78346,0.74787 1.06955,0.46176c0.35857,-0.35859 0.71716,0.93103 0.71716,0.93103l0.14955,0.20357c1.14573,2.74974 2.02637,4.82691 1.2615,7.89789c-1.0634,3.44911 -2.27869,8.21637 -1.19522,11.76126c0.01637,0.02944 0.02416,0.0489 0.02416,0.0489c0.21571,0.53948 1.76982,6.76079 1.98051,7.23458c-0.38051,-0.03266 -0.34628,0.29515 -0.72659,0.27162c-0.07101,-0.16541 -1.90061,-4.88579 -1.97176,-5.05778z" fill="#156eb2" stroke="none" stroke-width="0.5" stroke-linecap="butt"/><path d="M305.80647,85.7915c-0.50711,0 -0.50711,-0.5071 -0.50711,-0.5071v-0.50717c0,-0.76963 -0.16243,-1.43134 -0.16905,-2.19769c0.0217,-3.50857 -5.74898,-2.9086 -7.18554,-0.73303c0,0 -0.28129,0.42193 -0.70323,0.14064c-0.42193,-0.28129 -0.14065,-0.70323 -0.14065,-0.70323c1.9817,-2.94861 9.01994,-3.30926 9.04364,1.29561c-0.00824,0.7486 0.16905,1.43335 0.16905,2.1977v0.50717c0,0 0,0.5071 -0.5071,0.5071z" fill="#000000" stroke="none" stroke-width="0.5" stroke-linecap="butt"/><path d="M343.10098,86.57212c-0.50711,0 -0.50711,-0.5071 -0.50711,-0.5071l0.00689,-0.08568c-0.19853,-1.21443 -0.01092,-2.41222 -0.00034,-3.63c1.26938,-3.8874 7.73102,-3.3062 9.94043,-0.57365c0,0 0.31679,0.39599 -0.07919,0.71278c-0.39599,0.31679 -0.71278,-0.0792 -0.71278,-0.0792c-1.59933,-2.02557 -7.12384,-2.8675 -8.14734,0.10254c0.01135,1.10485 -0.18821,2.19854 -0.00036,3.30082l0.00689,0.25241c0,0 0,0.5071 -0.5071,0.5071z" fill="#000000" stroke="none" stroke-width="0.5" stroke-linecap="butt"/><path d="M274.10429,82.25292c-0.00203,0.00057 -0.00311,0.00083 -0.00311,0.00083c-2.53412,0.55857 -4.23782,6.17314 -2.20448,8.00693c0.53622,0.48359 1.89326,0.39506 2.57333,0.42051c2.62643,-1.64062 2.9114,-7.60859 -0.36395,-8.42744zM273.54417,81.37311c0.23226,-0.40461 0.66083,-0.19033 0.66083,-0.19033l0.14709,0.08704c4.37278,1.0932 3.85699,8.3513 0.38869,10.38878c-0.99322,0.02397 -2.61793,0.10842 -3.44785,-0.58302c-2.77663,-2.31334 -0.78777,-8.50988 2.25124,-9.70247z" fill="#0f81d8" stroke="none" stroke-width="0.5" stroke-linecap="butt"/><path d="M274.11037,82.20323c3.27535,0.81884 2.99465,6.88732 0.36822,8.52794c-0.68007,-0.02545 -2.06792,0.05867 -2.60414,-0.42492c-2.03334,-1.83379 -0.30317,-7.54445 2.23095,-8.10303c0,0 0.00112,-0.00026 0.00315,-0.00083z" data-paper-data="{&quot;noHover&quot;:false,&quot;origItem&quot;:[&quot;Path&quot;,{&quot;applyMatrix&quot;:true,&quot;segments&quot;:[[[550.94398,168.94384],[0,0],[-0.004,0.00112]],[[550.93786,168.94548],[0,0],[-4.99722,1.10148]],[[546.59068,184.73494],[-4.0097,-3.61618],[1.0574,0.95362]],[[551.66524,185.56418],[-1.34108,-0.05018],[5.17926,-3.23526]],[[550.94754,168.94548],[6.4589,1.61474],[0,0]]],&quot;closed&quot;:true,&quot;fillColor&quot;:[0,0,0,1]}]}" fill="#0f81d8" stroke="none" stroke-width="0.5" stroke-linecap="butt"/><path d="M372.05146,80.74698c-0.04496,0.00716 -0.07459,0.00716 -0.07459,0.00716c-4.52098,-0.03039 -0.01822,7.12421 2.56806,3.43741c0.64726,-1.98984 -0.78086,-2.20686 -1.99663,-3.10443l-0.26528,-0.12006c0,0 -0.14674,-0.07337 -0.23156,-0.2201zM372.4341,80.00541c0.16296,-0.01524 0.30248,0.05452 0.30248,0.05452l0.44529,0.23523c1.49426,1.38071 3.19277,1.62094 2.26683,4.35662c-3.96852,5.49425 -9.97483,-4.8752 -3.47183,-4.91186c0,0 0.32941,0 0.45724,0.26548z" fill="#0f81d8" stroke="none" stroke-width="0.5" stroke-linecap="butt"/><path d="M372.04419,80.69678c0.08482,0.14673 0.23647,0.21962 0.23647,0.21962l0.27217,0.12022c1.21578,0.89757 2.68378,1.18957 2.03652,3.17941c-2.58628,3.6868 -7.14235,-3.5422 -2.62137,-3.51181c0,0 0.03128,-0.00026 0.07624,-0.00742z" data-paper-data="{&quot;noHover&quot;:false,&quot;origItem&quot;:[&quot;Path&quot;,{&quot;applyMatrix&quot;:true,&quot;segments&quot;:[[[742.91028,164.79096],[0,0],[-0.08866,0.01412]],[[742.76318,164.80508],[0,0],[-8.91526,-0.05994]],[[747.82732,171.58358],[-5.10008,7.27028],[1.27638,-3.92392]],[[743.89002,165.46172],[2.39748,1.76998],[0,0]],[743.36688,165.22496],[[742.91026,164.79094],[0.16726,0.28934],[0,0]]],&quot;closed&quot;:true,&quot;fillColor&quot;:[0,0,0,1]}]}" fill="#0f81d8" stroke="none" stroke-width="0.5" stroke-linecap="butt"/><path d="M267.9208,99.62572l6.9689,-7.95433l20.78766,-2.10206c0,0 1.88145,1.97004 0.96964,2.62963c-1.24185,0.89831 -4.29307,2.97188 -4.29307,2.97188c0,0 -7.89254,3.87618 -11.07614,4.46778c-2.6214,0.48713 -9.89964,0.56333 -9.89964,0.56333z" fill="#0f81d8" stroke="#0f81d8" stroke-width="0.5" stroke-linecap="butt"/><path d="M267.85066,99.55946c0.16037,-0.48108 0.64144,-0.32072 0.64144,-0.32072l0.05699,0.04643c3.40461,0 6.81817,0.69686 10.22672,0.27778c4.81644,-0.96479 9.83949,-2.20461 13.8396,-5.195c2.88648,-1.60545 6.44804,-5.24553 7.17048,-8.59553c0,0 0.11001,-0.49503 0.60504,-0.38503c0.49502,0.11 0.38503,0.60504 0.38503,0.60504c-0.8227,3.61323 -4.4553,7.47661 -7.60874,9.22646c-4.09319,3.08084 -9.29242,4.3593 -14.23037,5.3454c-3.46912,0.42114 -6.92522,-0.26492 -10.38775,-0.26492l-0.3777,-0.09847c0,0 -0.48109,-0.16036 -0.32073,-0.64144z" fill="#000000" stroke="none" stroke-width="0.5" stroke-linecap="butt"/><path d="M370.75688,101.01868c-1.68656,-0.34718 -4.93453,-0.52219 -8.33596,-1.73117c-3.30063,-1.17315 -7.40267,-3.48981 -7.40267,-3.48981c0,0 -3.38709,-2.92092 -4.68338,-3.95966c-0.9518,-0.76269 -4.57577,-9.02614 -4.57577,-9.02614l25.42291,8.84444l9.59259,8.62093c0,0 -7.28142,1.30469 -10.01772,0.74142z" data-paper-data="{&quot;index&quot;:null}" fill="#0f81d8" stroke="#0f81d8" stroke-width="0.5" stroke-linecap="butt"/><path d="M379.75667,101.45997l-0.3777,0.09847c-3.46254,0 -6.91863,0.68606 -10.38775,0.26492c-4.93795,-0.9861 -10.13718,-2.26456 -14.23037,-5.34539c-3.15344,-1.74985 -6.78603,-5.61323 -7.60873,-9.22646c0,0 -0.11,-0.49504 0.38503,-0.60504c0.49502,-0.11 0.60503,0.38502 0.60503,0.38502c0.72244,3.35 4.284,6.99009 7.17048,8.59553c4.00011,2.99039 9.02315,4.23021 13.8396,5.195c3.40855,0.41908 6.82211,-0.27778 10.22672,-0.27778l0.05699,-0.04643c0,0 0.48107,-0.16036 0.64143,0.32072c0.16037,0.48108 -0.32072,0.64144 -0.32072,0.64144z" data-paper-data="{&quot;index&quot;:null}" fill="#000000" stroke="none" stroke-width="0.5" stroke-linecap="butt"/><g stroke="#0b61a3" stroke-width="1"><path d="M340.63479,36.34127c0,10.22717 -8.36822,18.51795 -18.6909,18.51795c-10.3227,0 -18.69091,-8.29077 -18.69091,-18.51795c0,-10.22717 8.25139,-18.51441 18.57408,-18.51441c10.3227,0 18.80773,8.28723 18.80773,18.51441zM332.63587,36.40579c0,-3.56535 -1.92091,-6.76099 -4.07133,-8.59829c-1.81437,-1.55018 -3.66748,-2.4759 -6.74775,-2.4759c-0.0452,0 -0.34249,0 -0.38769,0c-4.43093,0 -7.58605,2.40768 -9.28647,5.62089c-0.8827,1.66801 -1.34915,3.67431 -1.34915,5.92061c0,6.57353 4.23299,11.13385 10.96407,11.13385c0.02309,0 3.95468,0.20042 6.71221,-1.91768c2.6396,-2.02751 4.16612,-6.46855 4.16612,-9.68348z" fill="#0f81d8" stroke-linecap="butt"/><path d="M316.10643,26.45516l-3.17181,-6.27307" data-paper-data="{&quot;index&quot;:null}" fill="none" stroke-linecap="round"/><path d="M330.39219,19.91685l-3.04279,6.80944" data-paper-data="{&quot;index&quot;:null}" fill="none" stroke-linecap="round"/><path d="M316.73207,47.5939l-2.88701,5.02416" data-paper-data="{&quot;index&quot;:null}" fill="none" stroke-linecap="round"/><path d="M339.31772,30.79178l-6.61384,2.07593" fill="none" stroke-linecap="round"/><path d="M304.44327,31.42451l6.54709,1.50236" fill="none" stroke-linecap="round"/><path d="M304.54664,42.76155l6.4433,-2.00878" data-paper-data="{&quot;index&quot;:null}" fill="none" stroke-linecap="round"/><path d="M332.37459,40.81758l6.7201,1.73198" data-paper-data="{&quot;index&quot;:null}" fill="none" stroke-linecap="round"/><path d="M327.12462,47.69411l3.03347,5.06729" data-paper-data="{&quot;index&quot;:null}" fill="none" stroke-linecap="round"/></g></g></g></svg>