<svg version="1.1" xmlns="http://www.w3.org/2000/svg" xmlns:xlink="http://www.w3.org/1999/xlink" width="98.50917" height="44.81261" viewBox="0,0,98.50917,44.81261"><g transform="translate(-266.64498,-151.07184)"><g stroke-miterlimit="10"><path d="M345.46998,175.87741c3.79525,0.00501 4.84068,4.85772 8.62977,4.78733c-0.14473,0.52077 0.18047,0.98249 0.14432,1.51724c-0.1368,2.02371 0.00133,4.18502 0.52447,6.11536c0.25522,0.94174 1.26264,2.25495 0.37863,2.75654c-3.12984,2.74908 -8.02747,4.12133 -11.94624,4.11678c-4.08305,0 -7.93351,0.07484 -11.43917,-2.42381c-0.7427,-0.52639 -1.15179,-1.82489 -1.33798,-3.40184c-0.34908,-2.95658 0.08533,-6.89201 0.57347,-8.55303l0.03038,-0.05618c0,0 0.06702,-0.15194 0.05494,-0.33028c3.88247,-0.22843 7.75397,-1.86579 11.68687,-2.42771z" fill="#ad6310" stroke="none" stroke-width="0.5" stroke-linecap="butt"/><path d="M329.72889,181.62322c-0.2236,-0.44721 0.22361,-0.67082 0.22361,-0.67082l0.51832,-0.22253c4.11873,-0.40759 8.15055,1.26023 12.30449,0.74482c4.06212,-0.0044 8.0185,-0.57507 12.08724,-0.57507c0,0 0.5,0 0.5,0.5c0,0.14528 -0.04221,0.24834 -0.1021,0.32146c-0.93889,2.10172 -0.15952,4.51051 0.48164,6.59224c0.40558,1.31686 0.95816,2.72307 -0.43159,3.55022c-3.26224,2.54965 -7.9536,3.75328 -12.04483,3.75715c-4.29315,0 -8.21947,0.04047 -11.91929,-2.25759c-2.5777,-1.61141 -2.1199,-8.59166 -1.2487,-11.46288c-0.12805,-0.01301 -0.27016,-0.07976 -0.36877,-0.27699zM342.83747,182.47278c-3.9329,0.49541 -7.76053,-0.99671 -11.643,-0.79532c0.01208,0.15723 -0.05444,0.29026 -0.05444,0.29026l-0.03028,0.04933c-0.7485,2.24549 -1.36855,9.16389 0.76663,10.49808c3.50566,2.20289 7.30625,2.10559 11.3893,2.10559c3.91876,0.00401 8.36356,-1.16769 11.4934,-3.59137c0.88401,-0.44222 0.28291,-1.59019 0.02769,-2.42046c-0.66138,-2.15156 -1.35509,-4.5064 -0.66261,-6.70307c-3.78909,0.06206 -7.49145,0.57138 -11.2867,0.56696z" fill="#000000" stroke="none" stroke-width="0.5" stroke-linecap="butt"/><path d="M342.83763,182.42278c3.79525,0.00442 7.54122,-0.47904 11.33031,-0.5411c-0.69248,2.19667 0.00741,4.57761 0.66879,6.72917c0.25522,0.83027 0.85496,1.98804 -0.02905,2.43026c-3.12984,2.42368 -7.61979,3.6335 -11.53855,3.62949c-4.08305,0 -7.93351,0.06598 -11.43917,-2.13691c-2.13518,-1.33419 -1.51301,-8.29433 -0.76451,-10.53982l0.03038,-0.04952c0,0 0.06703,-0.13396 0.05495,-0.29119c3.88247,-0.20139 7.75397,1.26503 11.68687,0.76962z" fill="#024198" stroke="none" stroke-width="0.5" stroke-linecap="butt"/><path d="M291.00834,178.24151c3.9329,0.56192 7.8044,2.19928 11.68687,2.42771c-0.01208,0.17834 0.05494,0.33028 0.05494,0.33028l0.03038,0.05618c0.48814,1.66102 0.92255,5.59645 0.57347,8.55303c-0.18619,1.57695 -0.59528,2.87545 -1.33798,3.40184c-3.50566,2.49865 -7.35612,2.42381 -11.43917,2.42381c-3.91876,0.00455 -8.81639,-1.3677 -11.94624,-4.11678c-0.88401,-0.50159 0.12341,-1.8148 0.37863,-2.75654c0.52314,-1.93034 0.66127,-4.09165 0.52447,-6.11536c-0.03615,-0.53475 0.28905,-0.99647 0.14432,-1.51724c3.78909,0.07039 4.83452,-4.78232 8.62977,-4.78733z" fill="#ad6310" stroke="none" stroke-width="0.5" stroke-linecap="butt"/><path d="M304.04882,181.88694c-0.09861,0.19723 -0.24072,0.26398 -0.36877,0.27699c0.8712,2.87122 1.329,9.85147 -1.2487,11.46288c-3.69982,2.29806 -7.62614,2.25759 -11.91929,2.25759c-4.09123,-0.00387 -8.78259,-1.2075 -12.04483,-3.75715c-1.38975,-0.82715 -0.83717,-2.23336 -0.43159,-3.55022c0.64116,-2.08173 1.42053,-4.49052 0.48164,-6.59224c-0.05989,-0.07312 -0.1021,-0.17618 -0.1021,-0.32146c0,-0.5 0.5,-0.5 0.5,-0.5c4.06874,0 8.02512,0.57067 12.08724,0.57507c4.15394,0.51541 8.18576,-1.15241 12.30449,-0.74482l0.51832,0.22253c0,0 0.44721,0.22361 0.22361,0.67082zM290.94028,182.73649c-3.79525,0.00442 -7.49761,-0.5049 -11.2867,-0.56696c0.69248,2.19667 -0.00123,4.55151 -0.66261,6.70307c-0.25522,0.83027 -0.85632,1.97824 0.02769,2.42046c3.12984,2.42368 7.57464,3.59538 11.4934,3.59137c4.08305,0 7.88364,0.0973 11.3893,-2.10559c2.13518,-1.33419 1.51513,-8.25259 0.76663,-10.49808l-0.03028,-0.04933c0,0 -0.06652,-0.13303 -0.05444,-0.29026c-3.88247,-0.20139 -7.7101,1.29073 -11.643,0.79532z" fill="#000000" stroke="none" stroke-width="0.5" stroke-linecap="butt"/><path d="M290.9401,182.68649c3.9329,0.49541 7.8044,-0.97101 11.68687,-0.76962c-0.01208,0.15723 0.05495,0.29119 0.05495,0.29119l0.03038,0.04952c0.7485,2.24549 1.37067,9.20563 -0.76451,10.53982c-3.50566,2.20289 -7.35612,2.13691 -11.43917,2.13691c-3.91876,0.00401 -8.40871,-1.20581 -11.53855,-3.62949c-0.88401,-0.44222 -0.28427,-1.59999 -0.02905,-2.43026c0.66138,-2.15156 1.36127,-4.5325 0.66879,-6.72917c3.78909,0.06206 7.53506,0.54552 11.33031,0.5411z" fill="#024198" stroke="none" stroke-width="0.5" stroke-linecap="butt"/><path d="M267.13352,183.68589v-22.23191c0,0 93.01445,-0.93169 96.78396,-0.95021c0.2346,-0.00116 0.59508,0.7122 0.59508,0.7122l0.38725,22.46991z" fill="#024198" stroke="#000000" stroke-width="0.5" stroke-linecap="butt"/><path d="M364.51258,152.75567l0.15355,14.66197l-97.55914,-0.01629l-0.20597,-15.86659c0,0 2.15399,1.3909 2.94031,1.37975c0.31031,-0.0044 2.13088,0.22686 2.77094,0.21207c0.46068,-0.01064 5.77637,-1.37434 6.39004,-1.39047c0.09755,-0.00256 0.73433,-0.05402 1.2285,0.13244c0.66625,0.25136 1.30756,0.77741 2.23047,0.94981c1.55262,0.29001 3.0913,0.09263 3.34709,0.08636c1.09997,-0.02699 8.92455,-1.31369 10.27452,-1.35181c0.53287,-0.01505 6.81053,1.46468 7.37088,1.44946c0.3863,-0.01049 2.22352,0.16227 3.70232,-0.37952c1.71294,-0.62757 3.67371,-1.12497 4.10845,-1.13823c0.31802,-0.00969 4.01938,0.15289 6.82625,0.38295c1.7074,0.13995 3.02366,0.396 3.21993,0.39013c0,0 2.75806,-0.71616 4.68291,-0.70485c0.68958,0.00405 3.20299,0.53631 5.21871,0.81016c1.83774,0.24967 3.18118,0.24385 3.94993,0.23406c0.60862,-0.00775 7.1359,-1.02639 7.73582,-1.03037c1.80593,-0.01197 3.0051,0.64734 4.67246,0.62676c0.97954,-0.01209 1.83738,-0.40226 2.64495,-0.60056c0.86917,-0.21342 1.68015,-0.23513 2.52205,-0.2213c0.57396,0.00942 3.10667,0.55403 4.59271,1.2347c1.85836,0.8512 4.28642,0.39759 4.66841,0.402c1.65497,0.01908 2.51395,-0.25265 2.51395,-0.25265z" fill="#024198" stroke="#000000" stroke-width="0.5" stroke-linecap="round"/><path d="" fill="#000000" stroke="none" stroke-width="0.5" stroke-linecap="butt"/><path d="" fill="#66f4ff" stroke="none" stroke-width="0.5" stroke-linecap="butt"/><path d="" fill="#66f4ff" stroke="none" stroke-width="0.5" stroke-linecap="butt"/><path d="" fill="#66f4ff" stroke="none" stroke-width="0.5" stroke-linecap="butt"/><path d="" fill="#66f4ff" stroke="none" stroke-width="0.5" stroke-linecap="butt"/><path d="M267.36202,169.25747v-2.65357h97.04477v2.65357z" fill="#024198" stroke="#000000" stroke-width="0" stroke-linecap="butt"/><path d="M315.01604,167.30013l-0.12424,0.18636l-0.04884,0.04439l-0.02869,0.05943l-0.36377,0.43652l-0.14583,0.19444l-0.02776,0.05552l-0.04995,0.05828l-0.02581,0.07228l-0.15348,0.23022l-0.17645,0.16042l-0.16042,0.17645l-0.23022,0.15348l-0.06748,0.0241l-0.1311,0.1311l-0.16742,0.10045l-0.06839,0.05862l-0.14788,0.14789l-0.16742,0.10046l-0.14824,0.12706l-0.23932,0.11966l-0.1673,0.11153l-0.07228,0.02581l-0.05828,0.04995l-0.15348,0.07674l-0.13058,0.02902l-0.11802,0.06295l-0.22698,0.05675l-0.30716,0.12286l-0.13057,0.01781l-0.12085,0.05254l-0.46043,0.07674l-0.10119,-0.0081l-0.09849,0.02462h-1.84173l-0.23247,-0.05811l-0.08961,0.02444l-0.13382,-0.08029l-0.1514,-0.03786l-0.00094,-0.00165h-0.23588l-0.11736,-0.02934l-0.12084,0.00576l-0.76739,-0.15348l-0.02677,-0.01268h-0.02962l-0.30695,-0.07674l-0.11803,-0.06295l-0.05732,-0.01274l-0.00562,0.00153l-0.00736,-0.00442l-0.06028,-0.0134l-0.15348,-0.07674l-0.14125,-0.12108l-0.00901,-0.00481l-0.00081,-0.00288l-0.16459,-0.09876l-0.15348,-0.15348l-0.00355,-0.00592l-0.02135,-0.006l-0.14196,-0.26618l-0.15521,-0.25868l0.00583,-0.0214l-0.00325,-0.00609l-0.15348,-0.61391v-0.14952l-0.03626,-0.14506v-2.07195l0.02462,-0.09848l-0.0081,-0.1012l0.07442,-0.4465l0.07474,-0.52319l0.01797,-0.04411l-0.00126,-0.04761l0.12727,-0.57271l-0.00272,-0.00628l0.0087,-0.02067l0.02022,-0.09099l0.11458,-0.22915l0.09942,-0.23612l0.05592,-0.07456l0.01003,-0.02006l0.00653,-0.00203l0.06134,-0.08179l0.0632,-0.158l0.02085,-0.08338l-0.00036,-0.00084l0.00141,-0.00336l0.03485,-0.1394l0.11326,-0.21236l0.0934,-0.22181l0.08621,-0.11495l0.00172,-0.00322l0.00088,-0.00025l0.1414,-0.18854l0.13402,-0.1089l0.1089,-0.13402l0.2379,-0.17842l0.11314,-0.11314l0.00268,-0.01338l0.02943,-0.01873l0.02393,-0.02393l0.23931,-0.14359l0.23545,-0.14983l0.03211,-0.0107l0.02992,-0.01795l0.01316,0.00359l0.07314,-0.02438l0.15887,-0.07943l0.00677,-0.01185l0.03384,-0.00846l0.03027,-0.01514l0.27244,-0.06054l0.27075,-0.06769h0.03384l0.03405,-0.00757l0.01135,0.00757h2.45313l0.16636,0.04159l0.17137,0.00631l2.88318,0.83461l0.01723,-0.0047l0.27727,0.16636l0.27952,0.16256l0.0042,0.01736l0.28274,0.28274c0.10656,0.10656 0.19341,0.23282 0.25462,0.37286l0.02915,0.03402l0.17259,0.14793l0.09401,-0.14774l0.07749,-0.01549l0.1138,-0.1138l0.14293,-0.08576l0.00067,-0.01215l0.23857,-0.20448l0.23249,-0.21136l0.01857,0.00128l0.00539,-0.0027l0.38823,-0.33276l0.02044,-0.02044l0.00034,-0.00242l0.00749,-0.00541l0.09223,-0.09222l0.2096,-0.12576l0.19816,-0.14311l0.1211,-0.04844l0.00792,-0.00476l0.00236,0.00064l0.25232,-0.10093l0.03619,-0.00494l0.03081,-0.01961l0.18918,-0.06306l0.00489,-0.01466l0.24726,-0.11712l0.23461,-0.14076l0.0397,0.01083l0.04416,-0.02092l0.2242,-0.04484l0.008,-0.004l0.13057,-0.02902l0.11803,-0.06295l0.30695,-0.07674h0.14953l0.14506,-0.03626h1.45804l0.04741,0.01185l0.03681,-0.01841l0.25766,0.09202l0.26543,0.06636l0.02042,0.03573l0.04602,0.01644l0.1673,0.11153l0.08584,0.04292l0.05828,0.04995l0.07228,0.02581l0.1673,0.11153l0.08584,0.04292l0.14824,0.12707l0.16742,0.10045l0.15348,0.15348l0.10045,0.16742l0.12707,0.14825l0.02776,0.05552l0.10554,0.14072l0.01032,0.00344l0.01326,0.028l0.03539,0.04718l0.10429,0.24769l0.11505,0.24287l0.01157,0.05783l0.01202,0.02855l-0.00432,0.00998l0.00344,0.01718l0.06491,0.08655l0.03848,0.0914l0.05261,0.03006l0.05839,0.23358l0.09343,0.2219l-0.02405,0.05562l0.02405,0.0962v0.51339l0.01148,0.0689l0.06691,0.03823l0.03785,0.15141l0.0803,0.13382l-0.02444,0.08961l0.05811,0.23246v1.22782l-0.03626,0.14506v0.14953l-0.07674,0.30695l-0.03932,0.07372l-0.01129,0.08279l-0.14022,0.35055l-0.06545,0.19635l-0.10482,0.16472l-0.07577,0.17995l-0.09775,0.13033l0.00004,0.00015l-0.01795,0.02991l-0.0107,0.03211l-0.14983,0.23545l-0.14359,0.23931l-0.02393,0.02393l-0.01873,0.02943l-0.01338,0.00267l-0.09744,0.09744l-0.16459,0.09876l-0.00081,0.00289l-0.00901,0.00481l-0.14125,0.12108l-0.15348,0.07674l-0.06028,0.01339l-0.00736,0.00442l-0.00562,-0.00153l-0.05732,0.01274l-0.11803,0.06294l-0.10285,0.02571l-0.05517,0.03678l-0.22225,0.07937l-0.21328,0.10103l-0.38369,0.07674l-0.12084,-0.00575l-0.11736,0.02934h-1.3813l-0.14506,-0.03627h-0.14953l-0.16189,-0.04047h-0.08069l-0.09621,-0.02405l-0.05562,0.02405l-0.2219,-0.09343l-0.23358,-0.05839l-0.03007,-0.05261l-0.09139,-0.03848l-0.14927,-0.11196l-0.04323,-0.01441l-0.20216,-0.12864l-0.09273,-0.00515l-0.10156,-0.11849l-0.13167,-0.08379l-0.00654,-0.03272l-0.00812,-0.00406l-0.05828,-0.04995l-0.07228,-0.02581l-0.23022,-0.15348l-0.08138,-0.08952l-0.10374,-0.06224l-0.22191,-0.22191l-0.13015,-0.08676l-0.02322,-0.02553l-0.03181,-0.01339l-0.30695,-0.23022l-0.05513,-0.06785l-0.07497,-0.04498l-0.3994,-0.3994l-0.1745,-0.13087l-0.01362,-0.00076l-0.0227,-0.02649l-0.02708,-0.02031l-0.05273,-0.0649zM317.93143,166.26257l0.08137,0.08952l0.10374,0.06224l0.22192,0.22191l0.06722,0.04482l0.23932,0.11966l0.07529,0.06454l0.0605,0.00336l0.15669,0.1828l0.02288,0.01961l0.17717,0.0746l0.03142,0.02356h0.07158l0.1619,0.04047h1.1115l0.03015,-0.00603l0.03029,-0.02019l0.19575,-0.06991l0.15332,-0.08177l0.04364,-0.10364l0.11195,-0.14927l0.01441,-0.04323l0.01961,-0.03081l0.00494,-0.03619l0.12287,-0.30716l0.02048,-0.08192v-0.71004l-0.1198,-0.19966l0.0139,-0.05097l-0.03105,-0.07142l-0.07674,-0.46043l0.00809,-0.1012l-0.02462,-0.09848v-0.22228l-0.09158,-0.21751l-0.11504,-0.24288l-0.01157,-0.05783l-0.01202,-0.02855l0.00432,-0.00998l-0.00344,-0.01718l-0.06491,-0.08655l-0.0353,-0.08382l-0.05046,-0.01802l-0.1673,-0.11153l-0.08584,-0.04292l-0.02946,-0.02525h-0.96608l-0.03255,0.00814l-0.03422,0.01711l-0.15837,0.0352l-0.14662,0.06945l-0.12964,0.02593l-0.02619,0.01571l-0.23545,0.14983l-0.03211,0.0107l-0.02991,0.01795l-0.01316,-0.00359l-0.35139,0.11713l-0.14258,0.05703l-0.02209,0.03113l-0.53717,0.46043l-0.07169,0.03585l-0.0151,0.02265l-0.19723,0.1793l-0.18847,0.18847l-0.05543,0.03326l-0.02206,0.02006l-0.01019,-0.0007l-0.00231,0.00139l-0.02158,0.02954l-0.15756,0.2476l-0.02717,0.00543l0.08109,0.13515l0.16561,0.1242l0.05513,0.06785l0.07497,0.04498l0.39939,0.3994l0.21093,0.1582zM312.8596,164.36258l-2.45044,-0.70934h-2.07339l-0.0505,0.02525l-0.084,0.01866l-0.06077,0.06077l-0.07497,0.04498l-0.05513,0.06785l-0.15086,0.11315l-0.01347,0.05388l-0.03932,0.07372l-0.01129,0.08279l-0.15348,0.38369l-0.09385,0.12994l-0.0622,0.14773l-0.07305,0.09739l-0.08653,0.3894l-0.07014,0.49099l-0.00547,0.01344l0.00115,0.01447l-0.06021,0.36128v1.74307l0.44044,0.08809h0.57038l0.23246,0.05812l0.08961,-0.02444l0.13382,0.08029l0.15141,0.03785l0.00094,0.00165h1.28644l0.23177,-0.03862l0.26179,-0.10472l0.08278,-0.01129l0.07372,-0.03932l0.16424,-0.04106l0.14725,-0.09817l0.07228,-0.02581l0.05827,-0.04995l0.13066,-0.06533l0.09084,-0.09084l0.16742,-0.10046l0.06839,-0.05862l0.14789,-0.14788l0.16742,-0.10046l0.14824,-0.12707l0.04715,-0.02357l0.02357,-0.04715l0.07185,-0.08382l0.04284,-0.10175l0.23022,-0.30695l0.02474,-0.0201l0.01386,-0.02871l0.34216,-0.41059l0.11749,-0.17623l0.03977,-0.03615l0.02239,-0.04886l0.27403,-0.34253l0.16441,-0.24662l-0.06561,-0.10935l-0.05862,-0.06839l-0.07115,-0.07114l-0.09381,-0.15635l-0.29603,-0.25374l-0.00783,-0.14107z" fill="#fcfcff" stroke="none" stroke-width="0.5" stroke-linecap="butt"/><path d="M319.5661,177.06392c-0.20742,0.61279 -0.82966,0.40853 -0.82966,0.40853l-0.20031,-0.06776c-1.31949,-0.33903 -2.12972,-1.08448 -2.68237,-2.33295c-0.11824,-0.26711 -0.20881,-0.54587 -0.28041,-0.83186c-0.24611,0.63123 -0.58665,1.24568 -1.04081,1.8371l-0.63196,0.53852c0,0 -0.498,0.42037 -0.92486,-0.07006c-0.42686,-0.49043 0.07114,-0.9108 0.07114,-0.9108l0.52837,-0.44093c1.42971,-1.89682 1.44242,-4.15332 0.9806,-6.37638c-0.09296,-0.34357 -0.17926,-0.68819 -0.2456,-1.03047c-0.25635,-0.96327 -0.57547,-1.9085 -0.8786,-2.80282c0,0 -0.20742,-0.61279 0.41483,-0.81705c0.62225,-0.20426 0.82966,0.40853 0.82966,0.40853c0.01337,0.03955 0.02673,0.07914 0.04008,0.11879c0.10381,-0.15481 0.22506,-0.30594 0.36573,-0.4529c0,0 0.4638,-0.45675 0.92759,0c0.4638,0.45675 0,0.91349 0,0.91349c-0.75217,0.66977 -0.52514,1.8298 -0.33728,2.7498c0.22966,0.96461 0.39113,1.93575 0.42825,2.89507c0.34733,2.31492 0.96005,4.9359 2.75377,5.35161l0.29698,0.09548c0,0 0.62225,0.20426 0.41483,0.81705z" fill="#fcfcff" stroke="none" stroke-width="0.5" stroke-linecap="butt"/></g></g></svg>