<svg version="1.1" xmlns="http://www.w3.org/2000/svg" xmlns:xlink="http://www.w3.org/1999/xlink" width="572.82716" height="249.0439" viewBox="0,0,572.82716,249.0439"><g transform="translate(153.37686,-43.02165)"><g data-paper-data="{&quot;isPaintingLayer&quot;:true}" fill-rule="nonzero" stroke-linecap="butt" stroke-linejoin="miter" stroke-miterlimit="10" stroke-dasharray="" stroke-dashoffset="0" style="mix-blend-mode: normal"><path d="M264.05411,113.79192c0,0 -10.36212,1.26557 -18.48642,1.26162c-4.0966,-0.00199 -7.64642,0.23223 -7.71937,-1.06425c-0.08958,-1.59212 -0.70016,0.49088 -1.5185,-0.68644c-1.1561,-1.66324 -2.61622,-6.51408 -2.64836,-8.64365c-0.20156,-13.35556 -0.18892,-54.5796 -0.18892,-54.5796c0,0 0.82856,-1.8592 3.13251,-3.11168c1.80007,-0.97856 5.06347,-1.41361 5.832,-1.4419c1.05606,-0.03887 4.9905,-1.08498 7.66158,-1.13697c27.00141,-0.52553 125.75219,-1.08888 156.45724,-1.20469c0.77864,-0.00294 4.71239,3.29454 5.39846,3.29199c0.45629,-0.00169 0.46701,1.25887 0.83221,1.78664c0.76436,1.10464 1.72921,2.04196 2.09437,2.82469c1.10234,2.36287 0.70254,3.36488 0.70254,3.36488c0,0 3.4815,13.64826 3.46908,22.22845c-0.00942,6.50902 -0.1252,15.59982 -1.31365,22.64822c-1.14033,6.76293 -3.35551,11.85251 -3.35551,11.85251c0,0 -1.15662,0.79773 -3.96748,1.549c-0.93162,0.249 -2.88923,0.12829 -4.26621,0.30257c-1.32183,0.1673 0.07796,0.7957 -2.72625,0.28844c-1.86928,-0.33814 -12.58738,0.20779 -14.5346,-0.09189c-0.98972,-0.15232 -3.1973,-0.18868 -5.3757,-0.55397c-0.1263,-0.02118 -1.70516,0.02404 -2.58544,-0.74921c-0.35836,-0.31479 4.08894,-13.09665 3.62175,-13.51835c-0.49545,-0.44721 -0.51847,-4.00026 -1.17034,-4.46721c-0.16493,-0.11815 -0.03292,-1.40258 0.40553,-2.43461c1.06877,-2.51572 3.57462,-6.24053 3.09365,-6.52208c-0.30942,-0.18112 0.19582,-1.76354 0.03846,-3.507c-0.15844,-1.7554 -0.97968,-3.67184 -1.35014,-3.82799c-0.71804,-0.30267 -2.22153,-2.10152 -3.0464,-2.32057c-0.70279,-0.18663 -1.4407,-0.34056 -2.21108,-0.46541c-0.85158,-0.138 -1.66174,0.16496 -2.58911,0.09321c-0.45639,-0.03531 -1.65134,0.8283 -2.12495,0.80649c-0.58119,-0.02676 -1.90357,1.33313 -2.50697,1.32205c-0.55827,-0.01026 -9.0706,-1.55682 -9.6446,-1.55916c-2.82481,-0.01151 -4.95089,1.18149 -7.58355,1.38067c-0.93732,0.07091 -10.3849,-1.80476 -11.31807,-1.73776c-3.18493,0.22869 -5.50146,1.03952 -7.5057,1.37564c-2.04778,0.34343 -4.80623,0.99635 -7.11677,0.82976c-2.237,-0.1613 -3.99319,-1.12125 -7.92906,-2.04851c-0.85246,-0.20083 -7.35558,1.74052 -11.69151,2.73279c-1.82651,0.418 -3.46853,0.53419 -3.8188,0.46608c-1.2091,-0.23513 -3.37275,-2.22112 -4.54195,-2.38757c-1.93264,-0.27514 -5.17998,-1.66441 -6.97084,-1.72215c-0.75203,-0.02424 -8.21494,2.88767 -8.92799,2.89876c-0.44342,0.00689 -1.73426,1.36925 -3.46539,1.91271c-1.69245,0.53132 -3.81649,0.2477 -5.05059,-0.05946c-4.43088,-1.10284 -9.33979,-2.95149 -12.31824,-1.94303c-0.97961,0.33168 -2.6197,0.97218 -2.82217,1.84082c-0.16159,0.69329 -0.87256,4.15383 -0.85969,4.87845c0.02528,1.4237 0.07338,2.68028 0.76478,3.94067c1.09302,1.99254 3.06441,4.11619 3.54835,7.84926c0.12293,0.94831 0.66138,1.92382 0.55337,2.90884c-0.26686,2.43368 -1.58288,4.92543 -1.70949,7.20866c-0.25211,4.5466 1.05663,7.29259 1.05663,7.29259z" fill="#ff0c00" stroke="none" stroke-width="0"/><path d="" fill="#fffc51" stroke="none" stroke-width="0.5"/><path d="" fill="#fffc51" stroke="none" stroke-width="0.5"/><path d="" fill="#6af2e7" stroke="none" stroke-width="0.5"/><path d="" data-paper-data="{&quot;noHover&quot;:false,&quot;origItem&quot;:[&quot;Path&quot;,{&quot;applyMatrix&quot;:true,&quot;segments&quot;:[[[343.92669,148.61766],[3.42749,0.13441],[0,0]],[[343.89611,148.63033],[0,0],[-0.13824,0.94189]],[[345.7247,150.94262],[-0.66629,-0.46375],[4.48278,2.53292]],[[360.05797,152.87278],[-5.09799,0.92845],[2.54315,-0.39112]],[[367.04413,149.57442],[-1.78731,1.96008],[0.67178,-0.73672]],[[367.46328,146.17626],[1.87453,0.6072],[-4.16656,0.06888]],[[354.94792,147.04105],[4.13609,-0.5905],[-3.32984,0.60403]]],&quot;closed&quot;:true,&quot;fillColor&quot;:[0,0,0,1]}]}" fill="#b5f2ed" stroke="none" stroke-width="0.5"/><path d="" fill="#fffc51" stroke="none" stroke-width="0.5"/><path d="M264.90103,110.65001c-0.46321,0.18825 -0.65146,-0.27495 -0.65146,-0.27495l-0.14017,-0.373c-0.40978,-2.27883 -0.20971,-6.22762 0.81783,-8.28267c1.80169,-3.5972 0.56805,-4.88528 -0.08062,-8.50506c-0.30243,-0.05369 -0.37676,-0.38812 -0.37676,-0.38812l-0.08647,-0.39766c-0.17756,-1.7644 -2.11446,-2.62316 -2.93863,-4.04188c-1.21679,-2.09456 -0.26502,-4.72773 -0.26218,-7.04725c0.65033,-5.53464 5.89115,-5.1296 10.02834,-4.48348c3.29152,1.00451 7.17835,3.15424 10.67563,2.06213c0,0 0.10247,-0.03153 0.22711,-0.01794l0.11416,-0.06101c1.10001,-0.3368 2.14547,-0.88605 3.11225,-1.50441c4.39024,-1.83334 8.63689,-4.29274 13.65248,-2.6238c1.60621,0.40614 3.53786,1.87087 5.80418,2.64378c1.95462,0.6666 4.37775,0.67222 4.46111,0.77003c0.88824,-0.01567 1.57281,-0.35057 2.37201,-0.74882c4.7858,-1.71308 8.16647,-3.35364 13.24034,-1.66631c3.88439,1.61564 6.64616,1.89486 10.6516,0.66143c0,0 0.20141,-0.06197 0.38295,0.0253c3.63925,-0.6924 5.64242,-1.75479 9.44676,-1.74666c2.14756,0.30367 5.39802,1.1996 7.65147,1.64502c1.13225,0.2238 2.36999,0.19993 2.36999,0.19993c1.62101,-0.02275 5.44017,-1.79998 6.97109,-1.84072c2.07468,-0.0552 2.47365,0.34935 4.32749,0.7765c2.00295,0.63993 3.84978,1.2548 5.86962,1.26051c0.07076,-0.06999 0.14076,-0.10499 0.14076,-0.10499c3.35359,-1.67468 7.57354,-3.2848 11.01536,-0.99808c3.49975,2.25299 4.78075,7.65379 2.97701,11.26126c-0.7469,1.49279 -3.04805,4.79439 -2.93355,6.62597c0.14623,0.07166 0.22789,0.20436 0.22789,0.20436c0.70737,1.17204 1.02067,2.56915 1.07404,4.02981c0.03727,0.09104 0.05714,0.20781 0.00771,0.33302c0.02472,2.46289 -0.65228,5.06996 -1.39934,7.06072c-0.56263,1.29459 -1.02504,2.64517 -1.45355,4.00097c0.03258,0.0215 -0.4049,1.30727 -0.43245,1.39756c-0.11525,0.5141 -0.42884,1.25528 -0.57919,1.76341c-0.35974,0.0005 -0.71948,0.00098 -1.07922,0.00144c0.09123,-0.31646 0.18507,-0.63497 0.28142,-0.95595l0.01348,-0.1137c0.64734,-2.08926 1.44808,-4.45852 2.32249,-6.46879c0.68591,-1.83044 1.38195,-4.38438 1.35275,-6.74293l-0.0851,-0.14981c-0.10683,-1.44442 -1.04834,-2.65304 -1.21927,-4.02754c-0.27161,-2.18415 2.07046,-5.53052 3.00747,-7.40577c1.56743,-3.13487 0.46953,-8.03227 -2.6284,-9.97614c-3.03499,-2.03091 -6.41187,-0.51828 -9.38547,0.95864c-0.10963,0.21643 -0.81775,0.26037 -0.81775,0.26037l-0.31905,0.04628c-2.09942,0 -4.85231,-1.20583 -6.93426,-1.35454c-1.66428,-0.38466 -3.96823,-0.50154 -6.02262,0.00532c-1.17054,0.2888 -3.31618,1.28342 -3.31618,1.28342c-3.18076,0.72357 -7.51484,-1.46384 -11.07552,-1.9781c-3.86372,0.00939 -5.87822,1.09166 -9.61094,1.81137c0,0 -0.11938,0.02273 -0.25164,-0.01306c-3.99993,1.15526 -6.95309,0.84767 -10.8985,-0.79935c-4.80018,-1.6037 -7.96889,0.03607 -12.49719,1.64956c-0.94619,0.47482 -1.77232,0.8268 -2.84105,0.82962l-0.34704,-0.0445c0,0 -0.08999,-0.01286 -0.18775,-0.06598c-3.35769,0.46277 -6.7615,-2.56062 -9.93355,-3.34377c-4.72058,-1.57634 -8.77949,0.83278 -12.90839,2.54925c-1.01494,0.65604 -3.67824,1.81461 -3.89463,1.73012c-3.65395,0.9579 -7.49574,-1.05569 -10.92268,-2.11981c-3.46077,-0.5229 -8.24757,-1.17575 -8.80639,3.56733c0.00284,2.12815 -0.96941,4.56625 0.13222,6.49274c0.54597,0.95479 1.17964,1.02379 1.88216,1.99527c0.50036,0.69193 1.59139,2.89612 1.59139,2.89612c0.27855,1.67309 0.81156,3.00978 0.94604,4.37115c0.1845,1.86769 -0.19648,3.72027 -1.32961,5.99017c-0.92868,1.85737 -0.68912,4.61823 -0.30978,6.67982l0.0827,0.17538c0,0 0.18826,0.46321 -0.27495,0.65146z" fill="#ff7979" stroke="none" stroke-width="0.5"/><path d="M235.17654,112.75987c0.25725,-0.42875 0.68599,-0.1715 0.68599,-0.1715l0.36894,0.22202c1.62649,1.09353 3.79477,1.52628 5.72265,1.52068c5.11628,0 10.23255,0 15.34883,0c1.73829,0 6.61096,0.01402 7.65104,-1.8268c0.31155,-0.55141 -0.25421,-1.67578 -0.39193,-2.22635c0,0 -0.60774,-1.05264 -0.12267,-1.17391c0.48507,-0.12127 0.60634,0.28272 0.60634,0.28272c0.2278,0.91167 1.27355,2.67038 0.79224,3.58509c-1.20628,2.29251 -6.39182,2.35925 -8.53501,2.35925c-5.11628,0 -10.23255,0 -15.34883,0c-2.14017,-0.00545 -4.46735,-0.49057 -6.27735,-1.68863l-0.32873,-0.19658c0,0 -0.42875,-0.25725 -0.1715,-0.68599z" fill="#ff7979" stroke="none" stroke-width="0.5"/><path d="M414.09736,110.78316c0.18185,-1.46438 0.80526,-3.49558 1.42938,-5.05747c0.14657,-1.6655 1.05812,-2.97543 1.339,-4.63004c0.71672,-4.22196 1.37744,-8.42952 1.37744,-12.76174c0,-5.99834 0.54854,-12.29963 -0.11728,-18.25859c-0.70561,-6.39385 -2.15814,-12.21836 -3.78845,-18.44108c-1.3601,-2.70023 -3.51657,-6.03797 -6.41193,-7.30461c-1.72039,-0.75263 -2.54053,-0.03801 -4.38982,-0.03801c-6.01861,0 -11.99696,0.23077 -18,0.23077c-6.51282,0 -13.02565,0 -19.53847,0c-6.51282,0 -13.02564,0 -19.53846,0c-5.66667,0 -11.33333,0 -17,0c0,0 -0.26513,0 -0.40927,-0.19307c-0.37453,0 -0.8934,0 -1.15278,0c-6.31604,0 -12.51959,0.28572 -18.85715,0.28572c-5.57143,0 -11.14285,0 -16.71429,0c-5.80953,0 -11.61905,0 -17.42857,0c-6,0 -12,0 -18,0c-6.01227,0 -11.55148,0.38478 -17.44231,1.55447c-1.2112,0.41029 -2.95899,0.73314 -3.93711,1.60254c-3.08874,2.74545 -1.97773,8.57006 -1.97773,12.20013c0,3.81047 0.1283,7.62106 0.14173,11.37826c0.02543,0.08641 0.02543,0.15505 0.02543,0.15505c0,3.58621 0,7.58621 0,11.17242c0,5.72997 -0.32272,11.46162 -0.31035,17.17242c0,4.42157 -0.23468,9.34905 2.68354,12.92904c0,0 0.31235,0.39043 -0.07808,0.70278c-0.39043,0.31235 -0.70278,-0.07808 -0.70278,-0.07808c-3.03484,-3.85117 -2.90267,-8.83106 -2.90267,-13.55373c0.0112,-5.71377 0.31035,-11.44034 0.31035,-17.17241c0,-3.51819 0,-7.03638 0,-10.55457c-0.02429,-0.08457 -0.02429,-0.15115 -0.02429,-0.15115c0,-3.95391 -0.14286,-7.98246 -0.14286,-12c0,-3.95058 -1.09695,-9.99963 2.30799,-12.94273c1.13294,-0.97926 2.95952,-1.36021 4.3486,-1.82603c5.97248,-1.2022 11.60378,-1.58839 17.70055,-1.58839c6,0 12,0 18,0c5.80953,0 11.61905,0 17.42857,0c5.57143,0 11.14285,0 16.71429,0c6.33771,0 12.54053,-0.28572 18.85715,-0.28572c0.33333,0 0.66667,0 1,0h0.42857c0,0 0.26513,0 0.40927,0.19307c5.57474,0 11.14947,0 16.72422,0c6.51282,0 13.02564,0 19.53846,0c6.51282,0 13.02565,0 19.53847,0c6.00286,0 11.98143,-0.23077 18,-0.23077c2.04169,0 2.8824,-0.68292 4.79438,0.1235c3.14578,1.32681 5.49275,4.94694 6.94403,7.86887c1.59702,6.31783 3.12053,12.20107 3.84568,18.68091c0.66309,5.99981 0.1234,12.33064 0.1234,18.36902c0,6.2718 -1.76603,11.84441 -2.82202,17.83899c-0.6047,1.46532 -1.12118,3.63896 -1.33985,5.01946c-0.3669,2.31629 -14.49803,3.04906 -25.33231,2.38636c-5.59213,-0.34206 -9.54634,-1.14929 -9.55946,-1.94094c0,0 0,-0.5 0.5,-0.5c0.5,0 0.5,0.5 0.5,0.5c-0.04554,1.9661 32.51892,2.27702 32.90781,-0.85461z" fill="#ff7979" stroke="none" stroke-width="0.5"/><path d="M-145.11274,288.77482c0,-0.39635 0.09223,-0.77115 0.25641,-1.10412c-0.06776,-0.61816 -0.09951,-1.25616 -0.11314,-1.88403h0.00002c-0.07157,-0.1222 -0.14287,-0.24698 -0.21392,-0.37439c-1.77801,-3.18841 -1.12544,-6.3514 0.47803,-8.07535c1.1535,-2.08996 3.17033,-3.06695 4.95189,-3.43074c4.54247,-0.92754 11.46256,-2.87652 11.46993,7.45779c-0.77465,3.93187 -2.21132,6.54929 -4.08991,8.20009c0.22652,0.68026 -0.16519,1.27667 -0.16519,1.27667l-0.79122,0.73168c-0.90926,0 -1.784,-0.01066 -2.62704,-0.06868c-1.12305,0.32393 -2.3211,0.46588 -3.56882,0.46588c-1.30027,0 -3.11708,0.52296 -4.20764,-0.87325c-0.03613,-0.04626 -0.07123,-0.09369 -0.10531,-0.14225c-0.76051,-0.42873 -1.27409,-1.24404 -1.27409,-2.1793z" fill="#fcfa43" stroke="none" stroke-width="0.5"/><path d="M-120.47362,261.21071c0,8.82363 -7.25371,15.9766 -16.20162,15.9766c-8.94791,0 -16.20162,-7.15297 -16.20162,-15.9766c0,-8.82363 7.25371,-15.9766 16.20162,-15.9766c8.94791,0 16.20162,7.15296 16.20162,15.9766z" fill="#ff0000" stroke="#000000" stroke-width="1"/></g></g></svg>