<svg version="1.1" xmlns="http://www.w3.org/2000/svg" xmlns:xlink="http://www.w3.org/1999/xlink" width="289.18832" height="201.5291" viewBox="0,0,289.18832,201.5291"><g transform="translate(-93.94999,39.08748)"><g data-paper-data="{&quot;isPaintingLayer&quot;:true}" fill="#9966ff" fill-rule="nonzero" stroke="none" stroke-linecap="butt" stroke-linejoin="miter" stroke-miterlimit="10" stroke-dasharray="" stroke-dashoffset="0" style="mix-blend-mode: normal"><path d="M305.18326,111.35881c2.30709,-0.96803 2.14147,0.69712 2.14147,0.69712l1.67693,3.71692c0.96206,1.94758 1.92412,3.89517 2.8862,5.84277c1.66214,2.99826 4.02059,5.50087 6.32039,7.8668c7.49336,7.70881 15.03307,13.28065 23.53246,18.75859c4.71544,3.03916 9.45863,6.88808 14.49384,7.65683c4.03655,0.61626 9.39221,-5.09457 11.93471,-7.50447c1.91012,-1.81051 3.42371,-4.1646 5.43976,-5.82123c0.97838,-0.80395 2.52934,-0.93452 3.04137,-2.24547c0.55199,-1.41328 -0.10457,-3.42666 -0.15684,-5.13997c0,0 0.00957,-0.97994 0.48795,-1.70357c0.29522,-1.64397 0.81359,-3.20606 0.75989,-4.97802c-0.1229,-4.05519 -1.70817,-8.28817 -2.41561,-12.42856c-1.49801,-8.76726 -3.21679,-16.82068 -5.39427,-25.57406c-5.70858,-22.94829 -12.39769,-45.77539 -18.90873,-68.65298c-5.26855,-18.52655 -14.0359,-37.68075 -23.1191,-54.93703l-0.72098,-0.93321c0,0 -1.95579,-2.73344 -0.09784,-4.48231c1.85796,-1.74887 3.81373,0.98455 3.81373,0.98455l1.37819,2.00061c9.35498,17.8575 18.36483,37.53459 23.81889,56.68376c6.53807,22.97259 13.25241,45.89429 18.98476,68.93814c2.22548,8.94638 3.99442,17.23887 5.52549,26.19953c0.15982,0.93533 2.51088,12.99133 2.52721,13.53017c0.07041,2.3232 -0.59371,4.38522 -0.89056,6.57781c0,0 -0.07615,0.53028 -0.36351,1.04908c0.01421,2.31635 0.47714,4.87774 -0.27022,6.77825c-0.17959,0.45666 -4.88313,4.39122 -6.04928,5.6418c-3.41667,3.66404 -6.8276,6.91064 -10.85949,9.70808c-2.43471,1.68926 -4.25301,3.19738 -7.53672,2.78376c-6.01926,-0.75817 -11.37657,-4.93577 -16.9973,-8.5584c-11.53263,-7.4329 -24.84159,-16.20283 -32.63524,-29.73767c-1.02517,-2.07356 -2.05033,-4.14712 -3.07547,-6.22069l-1.74476,-3.86374c0,0 1.25921,0.04226 1.53136,-1.16345c0.13552,-0.60039 -1.10033,-0.23044 -0.3334,-0.55224z" stroke-width="0.5"/><text transform="translate(94.69999,147.6) scale(0.5,0.5)" font-size="40" xml:space="preserve" fill="#9966ff" fill-rule="nonzero" stroke="none" stroke-width="1" stroke-linecap="butt" stroke-linejoin="miter" stroke-miterlimit="10" stroke-dasharray="" stroke-dashoffset="0" font-family="Serif" font-weight="normal" text-anchor="start" style="mix-blend-mode: normal"><tspan x="0" dy="0">reset.test.hook.frame 5</tspan></text></g></g></svg>