<svg version="1.1" xmlns="http://www.w3.org/2000/svg" xmlns:xlink="http://www.w3.org/1999/xlink" width="115.96277" height="45.31899" viewBox="0,0,115.96277,45.31899"><g transform="translate(-267.57963,-243.79963)"><g data-paper-data="{&quot;isPaintingLayer&quot;:true}" fill-rule="nonzero" stroke-linejoin="miter" stroke-miterlimit="10" stroke-dasharray="" stroke-dashoffset="0" style="mix-blend-mode: normal"><path d="M353.60943,263.36228l-1.1939,1.2536l-1.73116,0.65664l-1.25359,-0.29847l-1.01481,-1.07451" data-paper-data="{&quot;index&quot;:null}" fill="none" stroke="#000000" stroke-width="0.5" stroke-linecap="round"/><path d="M347.76715,249.03654l6.38689,0.25002l0.05683,2.21611l-6.44372,-0.34095z" data-paper-data="{&quot;index&quot;:null}" fill="#00c4ff" stroke="#000000" stroke-width="0.5" stroke-linecap="round"/><path d="M354.26767,256.51443l-6.50054,-0.20455l0.12501,-2.12518l6.34142,0.1932z" data-paper-data="{&quot;index&quot;:null}" fill="#ff0000" stroke="#000000" stroke-width="0.5" stroke-linecap="round"/><path d="M303.5499,264.40211l-1.01481,1.07451l-1.25359,0.29847l-1.73116,-0.65664l-1.1939,-1.2536" fill="none" stroke="#000000" stroke-width="0.5" stroke-linecap="round"/><path d="M304.19872,251.6643l-6.44372,0.34095l0.05683,-2.21611l6.38689,-0.25002z" fill="#00c4ff" stroke="#000000" stroke-width="0.5" stroke-linecap="round"/><path d="M297.73231,254.88048l6.34142,-0.1932l0.12501,2.12518l-6.50054,0.20455z" fill="#ff0000" stroke="#000000" stroke-width="0.5" stroke-linecap="round"/><path d="M383.5424,279.37494c0,5.38128 -25.95914,9.74368 -57.98138,9.74368c-32.02224,0 -57.98139,-4.36239 -57.98139,-9.74368c0,-5.38128 25.95915,-9.74368 57.98139,-9.74368c32.02224,0 57.98138,4.36239 57.98138,9.74368z" fill-opacity="0.59608" fill="#000000" stroke="none" stroke-width="0" stroke-linecap="butt"/><path d="M293.76515,276.10881c0,-2.11446 3.59963,-3.82857 8.04,-3.82857c2.83293,0 6.08936,-3.06705 7.52142,-2.01281c0.81258,0.59819 0.51859,5.07594 0.51859,5.84139c0,2.11446 -3.59963,3.82857 -8.04,3.82857c-0.38757,0 -0.76873,-0.01306 -1.14166,-0.0383c-0.47207,-0.03195 -1.21349,0.34997 -2.37621,1.23576c-0.84405,0.64303 -2.18177,1.8836 -2.48333,1.81531c-0.92595,-0.2097 -3.56006,-0.74377 -5.1998,-2.06941c-0.13486,-0.10902 -4.308,2.6921 -5.14471,2.58147c-0.67903,-0.08979 -3.47551,-3.21353 -4.26085,-3.46664c-1.61114,-0.51926 -3.31452,1.17977 -4.38308,1.00732c-1.48949,-0.2404 -2.04641,-2.25177 -2.06794,-2.43982c-0.02641,-0.23074 0.12932,-3.94069 0.94467,-4.11772c4.25016,-0.92284 18.0729,2.29919 18.0729,1.66348z" fill="#adb0ff" stroke="none" stroke-width="0" stroke-linecap="butt"/><path d="M275.65918,274.18661c0.51841,0.20737 0.31104,0.72576 0.31104,0.72576l-0.11634,0.28825c-0.60902,1.82704 -1.48703,4.82454 1.35373,4.81739c1.4049,-0.15829 2.78739,-0.63195 4.18131,-0.09512c1.44267,0.5556 2.07969,2.30012 3.63498,2.66158c1.69765,0.39455 2.64805,-1.33801 4.06091,-1.82291c2.85971,-1.35725 4.21751,2.29881 6.76878,1.8777c2.04293,-0.3372 2.0828,-2.16453 3.66713,-2.94954c0.75835,-0.37575 1.91127,-0.24685 2.73109,-0.24685c4.9615,0 8.17194,-2.49562 7.0483,-7.55198c0,0 -0.12112,-0.54504 0.42392,-0.66616c0.54504,-0.12112 0.66616,0.42392 0.66616,0.42392c1.27866,5.75396 -2.48586,8.91089 -8.13837,8.91089c-0.6549,0 -1.62549,-0.13328 -2.24604,0.136c-0.68309,0.29642 -1.09321,1.59916 -1.65969,2.08519c-0.51917,0.44543 -1.65136,0.87588 -2.33033,0.96337c-2.30631,0.29719 -4.35407,-3.10213 -6.5036,-1.95087c-1.70038,0.54712 -2.62478,2.43072 -4.74481,1.87804c-1.74028,-0.45368 -2.27181,-2.22156 -3.73119,-2.79956c-1.06981,-0.4237 -2.63802,0.13742 -3.76679,0.26125c-3.84293,-0.00749 -3.35772,-3.63683 -2.47485,-6.28547l0.13891,-0.34984c0,0 0.20736,-0.51841 0.72576,-0.31104z" fill="#000000" stroke="none" stroke-width="0.5" stroke-linecap="butt"/><path d="M289.26477,253.91864c-2.00359,0.86878 -3.87429,2.2611 -5.91669,3.03683c-1.9399,0.73681 -3.36927,1.11746 -3.41323,-1.21507c0.01288,-0.00671 0.02584,-0.01345 0.03879,-0.02034c0,0 0.44247,-0.2482 0.24845,-0.69436c0.95221,-1.86847 3.08769,-3.21019 4.77617,-4.3349l0.42958,-0.19795c0,0 0.45628,-0.18936 0.20659,-0.68875c-0.24969,-0.49939 -0.63555,2.57144 -0.63555,2.57144l-3.19603,4.01125c-1.71556,1.14461 -0.58867,0.04405 -1.15556,0.23166c-0.1113,0.03684 -1.40825,-2.07069 -1.57699,-1.69731c-1.68103,0.71371 -1.81599,-1.49269 -1.39691,-2.89506c0.52443,-1.7549 1.87272,-3.66829 3.42089,-4.60603c1.32948,-0.72393 2.4334,-1.50638 3.89526,-1.92405l0.5784,-0.27648c0,0 0.18089,-0.08956 0.27084,-0.26909c1.41637,-0.07913 3.43805,0.93803 4.60579,2.40329c0.94741,1.18879 1.11701,2.75549 1.66605,3.60915c-1.24068,0.50525 -2.12614,1.84298 -2.84585,2.95574z" data-paper-data="{&quot;noHover&quot;:false,&quot;origItem&quot;:[&quot;Path&quot;,{&quot;applyMatrix&quot;:true,&quot;segments&quot;:[[[302.11131,259.98605],[-2.74352,-1.04203],[2.60584,0.98974]],[[306.67182,258.36834],[-0.05906,3.13325],[-0.01731,-0.00901]],[[306.61977,258.34096],[0.0174,0.00925],[0,0]],[[306.28414,257.41039],[-0.26062,0.59932],[-1.27909,-2.50988]],[[299.92464,251.66605],[2.26811,1.51081],[0,0]],[299.36235,251.39138],[[299.02694,250.38515],[-0.33541,0.67082],[0.33541,-0.67082]],[300.03317,250.04974],[[300.75669,250.41797],[0,0],[2.75695,1.83942]],[[307.82778,257.27479],[-1.38118,-3.05604],[2.2581,0.95872]],[[309.69657,253.40748],[0.56294,1.88377],[-0.70446,-2.35733]],[[305.11625,247.26171],[2.07963,1.25965],[-1.78587,-0.97243]],[[299.92033,244.69122],[1.9637,0.56106],[0,0]],[299.14805,244.31944],[[298.78606,243.9577],[0.12083,0.24116],[-3.44619,-0.19253]],[[290.40294,251.98666],[1.64657,-2.56009],[1.66657,0.6787]],[[294.21864,255.92949],[-0.96677,-1.49476],[2.69139,1.16702]]],&quot;closed&quot;:true}]}" fill="#f4f8f3" stroke="none" stroke-width="0.5" stroke-linecap="butt"/><path d="M290.1164,254.76549c0,0 -0.12685,0.12685 -0.30866,0.16484c-2.87722,1.22905 -10.37749,6.69277 -10.78566,1.16563c-1.78836,0.2883 -2.66112,-1.46373 -2.41438,-3.49692c0.28751,-2.36918 2.12855,-4.89035 4.09839,-6.11847c1.40641,-0.76535 2.56779,-1.57726 4.12107,-2.02106l0.01065,-0.00563c0.02056,-0.37944 0.42717,-0.4811 0.42717,-0.4811c3.46515,-0.84329 6.30273,3.93032 7.93565,6.45311l0.12356,0.16253c0,0 0.06192,0.08255 0.09702,0.20329c0.15952,0.05521 0.35452,0.19017 0.35452,0.52013c0,0.55833 -0.55833,0.55833 -0.55833,0.55833c-1.28405,-0.05396 -2.37971,1.7964 -2.97621,2.7517l-0.1248,0.1436zM283.50285,256.91936c2.0424,-0.77573 3.87207,-2.1511 5.87566,-3.01988c0.71971,-1.11277 1.5999,-2.42996 2.84057,-2.93521c-1.22578,-1.90584 -3.67527,-6.12044 -6.24077,-5.97711c-0.08995,0.17953 -0.26948,0.2693 -0.26948,0.2693l-0.57491,0.27676c-1.46187,0.41768 -2.5386,1.18967 -3.86808,1.91359c-1.54817,0.93774 -2.88536,2.82028 -3.40979,4.57518c-0.41908,1.40235 -0.28982,3.59271 1.39121,2.879c1.02821,-2.27505 3.21163,-3.73518 5.26403,-5.10452l0.53862,-0.27413c0,0 0.49939,-0.24969 0.74908,0.24969c0.24969,0.49939 -0.24969,0.74908 -0.24969,0.74908l-0.41859,0.20448c-1.68848,1.12471 -3.78208,2.40788 -4.73429,4.27634c0.19402,0.44616 -0.24986,0.69276 -0.24986,0.69276c-0.01295,0.00688 -0.02586,0.01368 -0.03875,0.02038c0.04397,2.33254 1.45514,1.9411 3.39505,1.2043z" fill="#635ba6" stroke="none" stroke-width="0.5" stroke-linecap="butt"/><path d="M309.97276,271.72722c0,0 -4.37893,3.00823 -10.02983,4.87786c-6.23264,2.0621 -13.80539,3.00157 -14.06681,2.93259c-0.86268,-0.22763 -4.05236,0.03162 -7.00611,-1.3049c-1.77423,-0.8028 -3.66727,-2.7524 -4.3473,-4.12625c-1.00489,-2.03018 -0.51918,-4.94036 0.16111,-7.07871c0.79956,-2.51323 1.85276,-4.1701 1.85276,-4.1701c0,0 3.04975,-2.28608 5.51321,-2.61729c4.13635,-0.55614 8.65708,0.74803 8.66189,0.44488c0.0343,-2.16504 0.18762,-8.31303 0.8383,-10.72437c0.58254,-2.15884 3.49136,-4.58704 3.49136,-4.58704c0,0 1.62641,-0.63542 2.87401,-0.17084c1.28935,0.48014 2.2153,2.06098 3.11219,2.07234c1.14899,0.01456 3.5722,-1.78041 3.5722,-1.78041c0,0 2.41383,0.81317 3.82368,2.64188c0.96072,1.24615 0.95806,3.0253 0.97329,4.0684c0.11101,7.59795 0.57607,19.52196 0.57607,19.52196z" fill="#464afe" stroke="none" stroke-width="0" stroke-linecap="butt"/><path d="M291.99432,260.91982c-0.07323,0.36649 -0.14138,0.73977 -0.20155,1.11403c-3.49116,-1.24837 -6.24726,-1.58491 -10.0187,-1.11253c-5.89051,0.78981 -8.55426,8.43686 -5.98689,13.47127c3.113,5.26085 11.41111,4.48084 16.81477,3.27924c5.41994,-1.20443 12.21599,-2.17812 16.5828,-5.82171c0,0 0.42893,-0.35744 0.78636,0.07148c0.35744,0.42892 -0.07149,0.78636 -0.07149,0.78636c-4.52632,3.76742 -11.441,4.8063 -17.05543,6.05395c-6.01862,1.33662 -14.53403,1.91265 -18.03589,-3.83197c-2.86211,-5.81036 0.10267,-14.10736 6.81755,-15.1154c3.87917,-0.4839 6.79303,-0.15888 10.36847,1.10528z" fill="#080e74" stroke="none" stroke-width="0.5" stroke-linecap="butt"/><path d="M292.26495,261.05711c0,0 7.11131,4.90201 8.23495,6.50507c0.13844,0.10161 0.22831,0.26551 0.22831,0.4504c0,0.30836 -0.24997,0.55833 -0.55833,0.55833c-0.1855,0 -0.34987,-0.09046 -0.4514,-0.22968c-1.26521,-0.8523 -4.48294,-3.80889 -5.08413,-4.28635c-0.30918,-0.24554 -1.70636,-1.17985 -2.72799,-1.92014c-0.7412,-0.53708 -1.27582,-0.90093 -1.09684,-1.1694c0.19563,-0.29344 -0.63335,-0.55064 0.84322,-0.13418c0.16956,0.04782 0.41718,0.12888 0.61223,0.22595z" fill="#080e74" stroke="#000000" stroke-width="0" stroke-linecap="butt"/><path d="M290.89372,260.8796c0,0 -0.2233,-7.62549 0.25948,-10.15707c0.32772,-1.71853 2.35671,-3.56198 2.35671,-3.56198c0,0 1.02878,-1.50104 3.98115,-2.13516c2.2099,-0.47467 -0.07424,2.7389 4.70066,1.82308c1.09218,-0.20948 1.38369,-1.8059 1.93562,-1.7555c2.59705,0.23708 4.76068,3.4714 4.76068,3.4714l1.02095,23.60953" fill="none" stroke="#080e74" stroke-width="1.5" stroke-linecap="round"/><g><path d="M353.71095,263.79027l-1.1939,1.2536l-1.73116,0.65664l-1.25359,-0.29847l-1.01481,-1.07451" data-paper-data="{&quot;index&quot;:null}" fill="none" stroke="#000000" stroke-width="0.5" stroke-linecap="round"/><path d="M347.86867,249.46454l6.38689,0.25002l0.05683,2.21611l-6.44372,-0.34095z" data-paper-data="{&quot;index&quot;:null}" fill="#00c4ff" stroke="#000000" stroke-width="0.5" stroke-linecap="round"/><path d="M354.36919,256.94243l-6.50054,-0.20455l0.12501,-2.12518l6.34142,0.1932z" data-paper-data="{&quot;index&quot;:null}" fill="#ff0000" stroke="#000000" stroke-width="0.5" stroke-linecap="round"/><path d="M358.30223,276.03424c0,0.63572 13.82274,-2.58632 18.0729,-1.66348c0.81534,0.17703 0.97108,3.88699 0.94467,4.11773c-0.02153,0.18806 -0.57845,2.19943 -2.06794,2.43982c-1.06856,0.17246 -2.77194,-1.52658 -4.38308,-1.00732c-0.78535,0.25311 -3.58182,3.37685 -4.26085,3.46664c-0.83671,0.11064 -5.00985,-2.69049 -5.14471,-2.58146c-1.63973,1.32564 -4.27385,1.85972 -5.19979,2.06942c-0.30156,0.06829 -1.63928,-1.17228 -2.48333,-1.81531c-1.16272,-0.88579 -1.90414,-1.26771 -2.37621,-1.23576c-0.37293,0.02524 -0.75408,0.0383 -1.14166,0.0383c-4.44036,0 -8.04,-1.71411 -8.04,-3.82857c0,-0.76544 -0.29398,-5.2432 0.51859,-5.84139c1.43206,-1.05424 4.68849,2.01281 7.52142,2.01281c4.44038,0 8.04,1.71411 8.04,3.82858z" data-paper-data="{&quot;index&quot;:null}" fill="#adb0ff" stroke="none" stroke-width="0" stroke-linecap="butt"/><path d="M376.40821,274.11203c0.5184,-0.20736 0.72575,0.31105 0.72575,0.31105l0.13891,0.34984c0.88288,2.64864 1.36809,6.27798 -2.47485,6.28547c-1.12877,-0.12383 -2.69698,-0.68495 -3.76679,-0.26125c-1.45938,0.57799 -1.99092,2.34588 -3.7312,2.79956c-2.12003,0.55268 -3.04442,-1.33092 -4.7448,-1.87804c-2.14953,-1.15126 -4.19729,2.24806 -6.5036,1.95087c-0.67898,-0.08749 -1.81117,-0.51795 -2.33033,-0.96338c-0.56648,-0.48602 -0.9766,-1.78876 -1.65969,-2.08519c-0.62054,-0.26928 -1.59114,-0.136 -2.24604,-0.136c-5.65251,0 -9.41703,-3.15693 -8.13837,-8.91089c0,0 0.12112,-0.54503 0.66616,-0.42391c0.54504,0.12112 0.42392,0.66616 0.42392,0.66616c-1.12364,5.05637 2.0868,7.55198 7.0483,7.55198c0.81982,0 1.97274,-0.1289 2.73109,0.24685c1.58432,0.78501 1.6242,2.61233 3.66713,2.94954c2.55127,0.42111 3.90907,-3.23496 6.76878,-1.87771c1.41287,0.4849 2.36327,2.21747 4.06091,1.82292c1.5553,-0.36147 2.19232,-2.10599 3.63498,-2.66159c1.39392,-0.53683 2.77641,-0.06317 4.18131,0.09512c2.84076,0.00714 1.96274,-2.99035 1.35372,-4.81739l-0.11634,-0.28825c0,0 -0.20736,-0.5184 0.31105,-0.72576z" data-paper-data="{&quot;index&quot;:null}" fill="#000000" stroke="none" stroke-width="0.5" stroke-linecap="butt"/><path d="M362.80263,253.84404c-0.7197,-1.11277 -1.60517,-2.45049 -2.84585,-2.95574c0.54904,-0.85366 0.71865,-2.42036 1.66606,-3.60915c1.16775,-1.46526 3.18941,-2.48243 4.60578,-2.40329c0.08995,0.17953 0.27084,0.2691 0.27084,0.2691l0.5784,0.27648c1.46186,0.41768 2.56578,1.20013 3.89526,1.92406c1.54817,0.93774 2.89646,2.85112 3.42088,4.60602c0.41908,1.40236 0.28412,3.60877 -1.39691,2.89506c-0.16875,-0.37337 -1.46569,1.73415 -1.577,1.69731c-0.56689,-0.18762 0.55999,0.91295 -1.15557,-0.23167l-3.19602,-4.01125c0,0 -0.38586,-3.07083 -0.63555,-2.57144c-0.24969,0.49939 0.20659,0.68875 0.20659,0.68875l0.42958,0.19795c1.68848,1.12471 3.82396,2.46643 4.77617,4.3349c-0.19401,0.44616 0.24845,0.69436 0.24845,0.69436c0.01295,0.00689 0.02591,0.01363 0.03879,0.02034c-0.04397,2.33253 -1.47333,1.95188 -3.41323,1.21508c-2.0424,-0.77574 -3.9131,-2.16806 -5.91669,-3.03684z" data-paper-data="{&quot;noHover&quot;:false,&quot;origItem&quot;:[&quot;Path&quot;,{&quot;applyMatrix&quot;:true,&quot;segments&quot;:[[[302.11131,259.98605],[-2.74352,-1.04203],[2.60584,0.98974]],[[306.67182,258.36834],[-0.05906,3.13325],[-0.01731,-0.00901]],[[306.61977,258.34096],[0.0174,0.00925],[0,0]],[[306.28414,257.41039],[-0.26062,0.59932],[-1.27909,-2.50988]],[[299.92464,251.66605],[2.26811,1.51081],[0,0]],[299.36235,251.39138],[[299.02694,250.38515],[-0.33541,0.67082],[0.33541,-0.67082]],[300.03317,250.04974],[[300.75669,250.41797],[0,0],[2.75695,1.83942]],[[307.82778,257.27479],[-1.38118,-3.05604],[2.2581,0.95872]],[[309.69657,253.40748],[0.56294,1.88377],[-0.70446,-2.35733]],[[305.11625,247.26171],[2.07963,1.25965],[-1.78587,-0.97243]],[[299.92033,244.69122],[1.9637,0.56106],[0,0]],[299.14805,244.31944],[[298.78606,243.9577],[0.12083,0.24116],[-3.44619,-0.19253]],[[290.40294,251.98666],[1.64657,-2.56009],[1.66657,0.6787]],[[294.21864,255.92949],[-0.96677,-1.49476],[2.69139,1.16702]]],&quot;closed&quot;:true}],&quot;index&quot;:null}" fill="#f4f8f3" stroke="none" stroke-width="0.5" stroke-linecap="butt"/><path d="M361.95101,254.6909l-0.1248,-0.1436c-0.5965,-0.9553 -1.69216,-2.80566 -2.97621,-2.7517c0,0 -0.55833,0 -0.55833,-0.55833c0,-0.32996 0.195,-0.46492 0.35452,-0.52013c0.0351,-0.12074 0.09701,-0.2033 0.09701,-0.2033l0.12356,-0.16252c1.63293,-2.52279 4.47051,-7.2964 7.93565,-6.45311c0,0 0.40661,0.10165 0.42717,0.4811l0.01065,0.00563c1.55327,0.4438 2.71466,1.2557 4.12107,2.02105c1.96983,1.22812 3.81088,3.74929 4.09839,6.11847c0.24674,2.03318 -0.62602,3.78522 -2.41438,3.49692c-0.40817,5.52715 -7.90844,0.06342 -10.78566,-1.16563c-0.18181,-0.03799 -0.30867,-0.16484 -0.30867,-0.16484zM368.56455,256.84479c1.93991,0.73681 3.35108,1.12824 3.39504,-1.2043c-0.01288,-0.00671 -0.0258,-0.01351 -0.03875,-0.02039c0,0 -0.44387,-0.24659 -0.24986,-0.69275c-0.95221,-1.86846 -3.04581,-3.15163 -4.73429,-4.27635l-0.41859,-0.20448c0,0 -0.49939,-0.24969 -0.2497,-0.74908c0.24969,-0.49939 0.74909,-0.2497 0.74909,-0.2497l0.53862,0.27412c2.05239,1.36935 4.23582,2.82948 5.26403,5.10453c1.68103,0.71372 1.81029,-1.47664 1.39121,-2.879c-0.52443,-1.7549 -1.86163,-3.63745 -3.4098,-4.57518c-1.32948,-0.72392 -2.4062,-1.4959 -3.86808,-1.91358l-0.57491,-0.27677c0,0 -0.17954,-0.08976 -0.26949,-0.26929c-2.56549,-0.14333 -5.01499,4.07127 -6.24077,5.97711c1.24067,0.50525 2.12087,1.82245 2.84057,2.93521c2.00359,0.86878 3.83326,2.24415 5.87566,3.01989z" data-paper-data="{&quot;index&quot;:null}" fill="#635ba6" stroke="none" stroke-width="0.5" stroke-linecap="butt"/><path d="M342.09461,271.65264c0,0 0.46506,-11.92401 0.57607,-19.52196c0.01524,-1.0431 0.01257,-2.82225 0.97329,-4.0684c1.40985,-1.82871 3.82368,-2.64189 3.82368,-2.64189c0,0 2.42321,1.79497 3.5722,1.78041c0.89688,-0.01136 1.82283,-1.5922 3.11219,-2.07233c1.2476,-0.46458 2.87401,0.17084 2.87401,0.17084c0,0 2.90882,2.42819 3.49136,4.58704c0.65068,2.41133 0.80401,8.55933 0.8383,10.72437c0.0048,0.30316 4.52554,-1.00101 8.66189,-0.44488c2.46346,0.33121 5.5132,2.61729 5.5132,2.61729c0,0 1.0532,1.65687 1.85276,4.17011c0.68029,2.13835 1.166,5.04854 0.16111,7.07871c-0.68002,1.37386 -2.57307,3.32345 -4.3473,4.12625c-2.95375,1.33653 -6.14342,1.07727 -7.00611,1.3049c-0.26142,0.06898 -7.83418,-0.87049 -14.06682,-2.93259c-5.6509,-1.86963 -10.02982,-4.87786 -10.02982,-4.87786z" data-paper-data="{&quot;index&quot;:null}" fill="#464afe" stroke="none" stroke-width="0" stroke-linecap="butt"/><path d="M370.44155,259.73995c6.71488,1.00805 9.67967,9.30505 6.81755,15.11541c-3.50186,5.74462 -12.01727,5.16859 -18.03589,3.83196c-5.61443,-1.24765 -12.52911,-2.28653 -17.05543,-6.05395c0,0 -0.42893,-0.35743 -0.07149,-0.78635c0.35744,-0.42892 0.78637,-0.07148 0.78637,-0.07148c4.3668,3.64359 11.16286,4.61728 16.5828,5.82171c5.40366,1.2016 13.70177,1.98161 16.81477,-3.27924c2.56738,-5.03441 -0.09638,-12.68146 -5.98689,-13.47127c-3.77145,-0.47238 -6.52754,-0.13585 -10.0187,1.11253c-0.06018,-0.37426 -0.12833,-0.74754 -0.20156,-1.11403c3.57544,-1.26417 6.4893,-1.58918 10.36847,-1.10529z" data-paper-data="{&quot;index&quot;:null}" fill="#080e74" stroke="none" stroke-width="0.5" stroke-linecap="butt"/><path d="M359.80244,260.98254c0.19505,-0.09708 0.44268,-0.17813 0.61224,-0.22596c1.47657,-0.41647 0.64758,-0.15926 0.84321,0.13418c0.17898,0.26847 -0.35564,0.63232 -1.09684,1.1694c-1.02162,0.74029 -2.41881,1.6746 -2.72799,1.92014c-0.60119,0.47747 -3.81891,3.43405 -5.08413,4.28635c-0.10154,0.13921 -0.2659,0.22968 -0.4514,0.22968c-0.30836,0 -0.55834,-0.24997 -0.55834,-0.55833c0,-0.18489 0.08987,-0.34879 0.22831,-0.4504c1.12364,-1.60305 8.23495,-6.50506 8.23495,-6.50506z" data-paper-data="{&quot;index&quot;:null}" fill="#080e74" stroke="#000000" stroke-width="0" stroke-linecap="butt"/><path d="M342.15844,272.09931l1.02094,-23.60953c0,0 2.16363,-3.23433 4.76067,-3.47141c0.55193,-0.05039 0.84344,1.54602 1.93562,1.7555c4.7749,0.91583 2.49076,-2.29774 4.70066,-1.82307c2.95237,0.63412 3.98115,2.13516 3.98115,2.13516c0,0 2.02899,1.84346 2.35671,3.56198c0.48277,2.53159 0.25947,10.15707 0.25947,10.15707" data-paper-data="{&quot;index&quot;:null}" fill="none" stroke="#080e74" stroke-width="1.5" stroke-linecap="round"/></g></g></g></svg>