<svg version="1.1" xmlns="http://www.w3.org/2000/svg" xmlns:xlink="http://www.w3.org/1999/xlink" width="37.06629" height="38.04731" viewBox="0,0,37.06629,38.04731"><g transform="translate(-310.80107,-53.62906)"><g data-paper-data="{&quot;isPaintingLayer&quot;:true}" fill-rule="nonzero" stroke-linejoin="miter" stroke-miterlimit="10" stroke-dasharray="" stroke-dashoffset="0" style="mix-blend-mode: normal"><path d="M319.16137,79.76063v-10.83618h12.78262v10.83618z" fill="#fcfa43" stroke="none" stroke-width="0" stroke-linecap="butt"/><path d="M314.57799,91.30454c0,0 -1.68188,-4.46767 -2.05612,-7.06213c-0.4203,-2.91365 -1.363,-9.36156 -1.363,-9.36156c0,0 1.10205,-5.39553 2.09108,-7.52029c0.85966,-1.84678 3.03973,-5.18412 3.03973,-5.18412c0,0 3.46801,-3.54271 5.39104,-4.86128c2.04052,-1.39913 6.52053,-3.3062 6.52053,-3.3062c0,0 3.18773,0.19103 4.49545,0.79649c2.14096,0.99124 7.1334,4.58752 7.1334,4.58752c0,0 3.57306,2.83975 4.84204,4.36536c1.09406,1.31531 2.32517,4.25132 2.32517,4.25132l0.87005,4.06048l-9.05004,11.71781l-5.87544,2.63964l-2.05093,-0.50178l1.04146,-2.3694l-1.65729,-5.05696l-5.27322,-3.35119l-4.10189,0.14745z" fill="#fffb50" stroke="#000000" stroke-width="0" stroke-linecap="round"/><path d="M313.51003,91.07201l0.00648,0.08082c0.43459,-2.65128 -1.544,-4.62366 -1.68852,-7.10442c-0.03357,-3.77618 -1.72196,-7.40221 -0.6973,-11.34413c0.87139,-4.10621 2.57397,-8.19619 5.45772,-11.31128c3.1126,-3.36232 6.01208,-5.90316 10.32636,-7.52852c4.00415,-0.96691 7.60933,1.23327 10.80085,3.17158c3.1536,2.7483 7.70037,5.68221 9.21419,9.72456c2.45828,3.77738 -0.50875,9.04807 -3.13287,11.88272c-3.2569,3.5182 -6.07754,6.39422 -10.74268,7.75057c-0.51351,0.09401 -1.76515,0.5294 -2.25658,0.24163c-0.88763,-0.5198 0.09314,-1.84913 0.13681,-2.55463c0.10666,-1.72317 -0.50324,-4.57034 -1.82964,-5.77633c-1.7683,-1.63697 -3.51688,-3.15878 -6.09136,-3.07964c-0.65727,0.0202 -1.29317,0.51503 -1.9252,0.67075c0,0 -0.34534,0.08302 -0.42835,-0.2623c-0.08301,-0.34534 0.2623,-0.42835 0.2623,-0.42835c0.6938,-0.16186 1.31267,-0.65611 2.04418,-0.68886c2.76306,-0.12369 4.7254,1.51235 6.62097,3.26714c1.05838,0.99428 2.22134,4.00844 2.1217,5.43287c-0.0476,0.68048 -0.15799,1.25655 -0.34628,1.9035c-0.08598,0.29546 -0.52214,0.87512 -0.21525,0.89768c0.52821,0.03885 1.22579,-0.22068 1.74339,-0.31475c4.51802,-1.31916 7.22676,-4.13051 10.38471,-7.54181c2.42692,-2.62162 5.32466,-7.5703 3.0207,-11.07871c-1.49329,-3.9411 -5.92291,-6.78354 -9.0003,-9.47283c-2.97935,-1.81281 -6.4187,-3.96372 -10.17265,-3.06577c-4.19137,1.57907 -6.98957,4.06529 -10.01375,7.33207c-2.79131,3.01523 -4.4664,7.01243 -5.28807,10.99372c-1.05642,3.78363 0.50275,7.48826 0.71619,11.15177c0.02246,2.52665 2.11366,4.48204 1.68011,7.24414l-0.18659,0.28937c0,0 -0.24128,0.26064 -0.50191,0.01935c-0.26064,-0.24128 -0.01937,-0.50191 -0.01937,-0.50191z" data-paper-data="{&quot;index&quot;:null}" fill="#8c871f" stroke="none" stroke-width="0.5" stroke-linecap="butt"/></g></g></svg>