<svg version="1.1" xmlns="http://www.w3.org/2000/svg" xmlns:xlink="http://www.w3.org/1999/xlink" width="120.63021" height="84.43145" viewBox="0,0,120.63021,84.43145"><g transform="translate(-256.76629,-120.08511)"><g stroke-miterlimit="10"><path d="M353.9962,193.603c0,0 0,-0.21161 0.13767,-0.35951c-0.1229,-1.22174 -0.97244,-2.58686 -1.45213,-3.66844c-1.3419,-3.02566 -2.365,-6.01123 -3.62578,-9.07365c-1.73234,-2.29009 -4.68557,-8.24923 -8.32488,-6.91607c-1.33805,0.49016 -2.55664,2.02197 -3.55854,2.98664c-0.26788,0.84796 -0.41554,2.27543 -1.17219,2.85602c-1.19277,0.91522 -2.74662,1.80982 -3.36331,3.18508c-0.98791,2.20309 -1.19585,5.10977 -2.08537,7.33988c-0.85142,4.24606 -3.38524,10.29535 2.64722,11.50222c5.38608,0.9503 12.10951,3.18544 17.57641,1.36313c3.49138,0.03338 3.23145,-5.73981 3.22091,-8.1534zM354.89636,194.04874c0.09984,0.14195 0.09984,0.31276 0.09984,0.31276v0.3034c-0.01104,2.97694 0.11171,9.1041 -4.06072,9.14049c-5.57061,1.85687 -12.43388,-0.39889 -17.92156,-1.36748c-6.84557,-1.3687 -4.38747,-7.92678 -3.42081,-12.7699c0.94266,-2.3499 1.16558,-5.13218 2.16225,-7.52679c0.5923,-1.42308 2.3197,-2.65895 3.61491,-3.48976c0.48202,-0.30919 0.79348,-2.14896 0.95162,-2.60522c1.10697,-1.14167 2.49262,-2.80121 4.0265,-3.38479c4.32506,-1.64551 7.51847,4.57981 9.57581,7.34381c1.29834,3.08355 2.29852,6.08361 3.65585,9.13044c0.61377,1.37772 1.5396,2.94312 1.56785,4.4673c0,0 0,0.22576 -0.1517,0.37388c-0.02785,0.0272 -0.06082,0.05178 -0.09984,0.07186z" fill="#971b34" stroke="none" stroke-width="0.5" stroke-linecap="butt"/><path d="M354.04082,194.68747c0.01054,2.41359 0.25253,8.2065 -3.23885,8.17312c-5.4669,1.8223 -12.2444,-0.41329 -17.63048,-1.3636c-6.03246,-1.20686 -3.52081,-7.29132 -2.66939,-11.53738c0.88953,-2.23011 1.10498,-5.1705 2.09288,-7.37359c0.61669,-1.37526 2.18584,-2.28504 3.37862,-3.20027c0.75666,-0.58059 0.9132,-2.01251 1.18108,-2.86047c1.0019,-0.96467 2.23504,-2.49967 3.57309,-2.98983c3.63931,-1.33317 6.62976,4.63913 8.3621,6.92922c1.26078,3.06241 2.2997,6.08982 3.6416,9.11548c0.47969,1.08158 1.32614,2.45961 1.44904,3.68135c-0.13767,0.1479 -0.13821,0.36084 -0.13821,0.36084z" fill="#ec2b51" stroke="none" stroke-width="0.5" stroke-linecap="butt"/><path d="M305.15465,192.09212c0,0 0,-0.21161 0.13767,-0.3595c-0.1229,-1.22174 -0.97244,-2.58686 -1.45213,-3.66844c-1.3419,-3.02566 -2.365,-6.01124 -3.62578,-9.07366c-1.73234,-2.29009 -4.68557,-8.24923 -8.32488,-6.91606c-1.33805,0.49016 -2.55664,2.02197 -3.55854,2.98664c-0.26788,0.84796 -0.41554,2.27543 -1.1722,2.85601c-1.19277,0.91522 -2.74662,1.80982 -3.36331,3.18508c-0.98791,2.20309 -1.19585,5.10977 -2.08537,7.33988c-0.85142,4.24606 -3.38523,10.29535 2.64723,11.50221c5.38608,0.9503 12.1095,3.18544 17.57641,1.36313c3.49138,0.03338 3.23145,-5.73981 3.22091,-8.1534zM306.05482,192.53785c0.09984,0.14195 0.09984,0.31276 0.09984,0.31276v0.3034c-0.01104,2.97694 0.11171,9.10409 -4.06072,9.14049c-5.57061,1.85687 -12.43388,-0.39889 -17.92156,-1.36748c-6.84557,-1.3687 -4.38746,-7.92678 -3.4208,-12.7699c0.94266,-2.3499 1.16558,-5.13218 2.16224,-7.52679c0.5923,-1.42308 2.3197,-2.65895 3.61491,-3.48976c0.48202,-0.30919 0.79348,-2.14896 0.95162,-2.60521c1.10697,-1.14167 2.49262,-2.80121 4.0265,-3.38479c4.32506,-1.64551 7.51847,4.57981 9.57581,7.34381c1.29834,3.08355 2.29852,6.08361 3.65585,9.13044c0.61377,1.37772 1.5396,2.94312 1.56785,4.4673c0,0 0,0.22576 -0.1517,0.37388c-0.02785,0.0272 -0.06082,0.05177 -0.09984,0.07185z" fill="#971b34" stroke="none" stroke-width="0.5" stroke-linecap="butt"/><path d="M305.19931,193.17659c0.01054,2.41359 0.25253,8.2065 -3.23886,8.17312c-5.4669,1.8223 -12.2444,-0.41329 -17.63048,-1.3636c-6.03246,-1.20686 -3.52081,-7.29131 -2.66939,-11.53738c0.88953,-2.23011 1.10498,-5.1705 2.09288,-7.37359c0.61669,-1.37526 2.18585,-2.28505 3.37862,-3.20027c0.75666,-0.58059 0.91321,-2.01251 1.18109,-2.86047c1.0019,-0.96467 2.23503,-2.49967 3.57308,-2.98983c3.63931,-1.33317 6.62976,4.63914 8.3621,6.92923c1.26078,3.06241 2.2997,6.08982 3.6416,9.11548c0.47969,1.08158 1.32614,2.4596 1.44904,3.68134c-0.13767,0.1479 -0.13821,0.36085 -0.13821,0.36085z" fill="#ec2b51" stroke="none" stroke-width="0.5" stroke-linecap="butt"/><path d="" fill="#000000" stroke="none" stroke-width="0.5" stroke-linecap="butt"/><path d="" fill="#66f4ff" stroke="none" stroke-width="0.5" stroke-linecap="butt"/><path d="" fill="#66f4ff" stroke="none" stroke-width="0.5" stroke-linecap="butt"/><path d="" fill="#66f4ff" stroke="none" stroke-width="0.5" stroke-linecap="butt"/><path d="" fill="#66f4ff" stroke="none" stroke-width="0.5" stroke-linecap="butt"/><path d="M364.71264,152.34555l0.21483,28.92435l-95.55392,0.48941l-1.60097,0.02007l-0.38961,-31.49564c0,0 0.84832,1.21725 2.2348,1.23624c0.64898,0.0089 1.14574,0.62461 2.59193,0.61532c0.62637,-0.00402 6.41712,-2.32267 7.17619,-2.33115c0.35696,-0.00399 0.69088,0.01305 1.02812,0.32348c0.55709,0.51278 1.12322,1.42638 1.81714,1.42137c0.56374,-0.00407 1.64897,0.29946 2.25206,0.29402c0.35658,-0.00321 11.32788,-2.47318 11.69729,-2.47697c1.00174,-0.01027 6.04246,2.75601 7.09947,2.74917c1.01344,-0.00655 1.87716,-0.40131 2.92233,-0.41327c0.5253,-0.006 2.8084,-2.09358 3.34073,-2.10055c0.33312,-0.00436 4.25899,-0.31685 4.59402,-0.32084c0.39103,-0.00466 5.62712,1.07006 6.01878,1.06602c0.41893,-0.00431 1.45654,0.26289 2.42232,0.02701c1.48841,-0.36354 3.03594,-1.28603 3.67209,-1.29237c0.71231,-0.00709 1.38039,0.85935 2.01006,0.84967c1.22375,-0.01883 2.93468,1.47687 3.91088,1.2729c0.49959,-0.10438 2.322,0.08795 3.36933,0.01168c0.36854,-0.02683 0.57185,-0.02303 0.68349,-0.16544c0.12442,-0.15872 0.54537,-0.15563 0.70036,-0.22694c0.34894,-0.16055 0.47528,-0.25308 0.82677,-0.25744c0.57441,-0.00713 0.6105,-0.3383 1.1529,-0.33524c0.06047,0.00035 1.33903,-0.57488 1.28765,-0.54573c-1.5038,0.85329 0.17348,-0.66893 2.43894,-0.45074c0.39325,0.03788 1.82403,0.79927 2.89491,1.10217c0.93142,0.26345 1.51359,0.07348 1.87533,0.10335c0.41941,0.03462 3.92433,-1.54505 4.33365,-1.50143c0.5392,0.05746 2.39977,0.81359 2.90787,0.88137c0.86085,0.11487 3.07517,1.84031 3.79349,1.9353c3.93371,0.52023 3.34744,0.28241 4.92539,0.14886c0.84542,-0.07155 1.23583,-0.54703 1.23583,-0.54703z" fill="#ec2b51" stroke="#971b34" stroke-width="0.5" stroke-linecap="round"/><path d="M364.62998,178.12103c0,1.01506 0.04036,1.67388 0.00496,2.19657c-0.01828,0.26994 0.1035,0.62274 -0.41995,0.65094c-8.75041,0.47132 -33.15328,0.2152 -47.66477,0.2152c-26.34944,0 -48.77178,1.13899 -48.77178,-0.07585c0,-0.33479 -0.26923,-3.84742 2.74944,-4.36516c1.13647,-0.19492 2.65159,0.72876 4.20972,0.63497c0.90281,-0.05434 1.11107,-1.16563 2.13578,-1.2105c1.27001,-0.05561 2.03563,1.12807 3.49548,1.11799c0.54286,-0.00375 2.16168,-1.5257 2.73167,-1.5317c0.79206,-0.00833 2.66377,1.35731 3.48991,1.36492c0.5525,0.00509 2.0185,-1.50871 2.57768,-1.50717c0.66698,0.00184 1.83931,1.07242 3.04064,1.08686c1.34607,0.01618 2.72857,-1.02231 3.4774,-0.99318c0.83778,0.03259 1.19139,0.98254 1.98028,1.02732c0.65915,0.03742 2.06854,-1.14642 2.71531,-1.12306c1.09734,0.03963 2.60406,1.02519 3.64448,1.1194c0.82846,0.07502 1.78083,-1.24474 2.57996,-1.2195c0.57484,0.01816 1.66852,0.17972 2.47629,0.5524c0.49338,0.22762 0.68686,0.7659 1.15399,0.72194c1.61714,-0.15219 0.45366,-1.5329 1.91873,-1.33632c0.97091,0.13027 2.7476,0.90579 3.90184,0.90579c0.58146,0 1.71838,-1.23388 2.30073,-1.23577c1.13051,-0.00367 2.32306,0.74315 3.45163,0.75844c0.37016,0.00501 2.03457,-1.0379 2.40399,-1.03281c1.21055,0.01668 2.39999,1.0951 3.56886,1.13501c0.75144,0.02566 1.67933,-1.06151 2.41393,-1.04218c1.21344,0.03193 2.52331,1.00436 3.6849,1.06085c0.50243,0.02444 1.6776,-1.18766 2.16954,-1.17021c1.23917,0.04396 2.47901,0.79641 3.612,0.88336c0.90211,0.06923 1.89625,-1.11505 2.74487,-1.08422c0.99773,0.03625 2.33435,1.2745 3.53649,1.17226c1.29246,-0.10992 2.44869,-1.55787 3.43349,-1.4202c1.11466,0.15582 1.12367,1.29314 2.28523,1.19955c1.53725,-0.12386 2.79027,-1.21484 4.1119,-1.29049c0.62824,-0.03596 1.35377,1.09746 1.92822,1.05761c1.31338,-0.0911 1.14981,-0.90267 2.20747,-0.94767c1.34864,-0.05738 2.42406,0.49291 3.23181,0.56714c0.45396,0.04172 0.7792,-0.42046 1.1288,-0.36193c0.75934,0.12714 0.35906,3.35433 0.35906,3.51939z" fill="#ffffff" stroke="none" stroke-width="0" stroke-linecap="butt"/><path d="M311.22836,179.53131c-1.42194,0 -3.6589,-2.22828 -4.41989,-4.9854c-0.2973,-1.07713 0.57183,-2.17611 0.74172,-3.19339c0.07691,-0.46056 -0.50061,-1.18833 -0.50061,-1.39309c0,-0.85936 -0.15105,-2.21058 0.71139,-2.01291c0.75984,0.17416 -1.79213,-1.62484 -1.3881,-1.8966c0.40589,-0.27301 18.26808,-0.87643 18.85615,-0.87643c0.97544,0 -0.52203,0.89166 -0.98553,2.57304c-0.2853,1.03497 0.79722,2.85719 0.18944,3.50489c-0.03241,0.03454 0.32852,1.0388 0.45226,2.13119c0.12749,1.12548 0.01639,2.34011 -0.12557,2.38064c-2.53051,0.72251 -13.53127,3.76806 -13.53127,3.76806z" fill="#ffffff" stroke="none" stroke-width="0" stroke-linecap="butt"/><path d="M351.78875,155.16017c-1.10231,-0.08882 -2.25458,0.99631 -3.28555,1.05419c-1.17955,0.06623 -2.22029,-0.89284 -3.18836,-1.01099c-1.16067,-0.14165 -2.34727,0.41477 -3.52498,0.24031c-0.75509,-0.11186 -1.54194,-0.47329 -2.36175,-0.34649c-1.05616,0.16335 -2.16701,0.83872 -3.33513,0.76564c-0.83778,-0.05241 -1.70502,-1.23038 -2.60264,-1.18672c-1.16159,0.05649 -2.34227,0.83514 -3.5557,0.86706c-0.7346,0.01933 -1.4041,-0.93864 -2.15555,-0.91299c-1.16887,0.03991 -2.16451,1.18292 -3.37507,1.19961c-0.36942,0.00509 -2.5506,-1.22693 -2.92075,-1.22192c-1.12857,0.0153 -1.70181,0.76212 -2.83232,0.75844c-0.58234,-0.00189 -2.33858,-0.49259 -2.92004,-0.49259c-1.15424,0 -1.6923,0.40394 -2.66321,0.53421c-1.46507,0.19657 -1.2925,-0.44096 -2.90964,-0.59315c-0.46713,-0.04396 -1.52765,0.74205 -2.02103,0.96967c-0.80777,0.37267 -1.08789,0.10206 -1.66272,0.12022c-0.79913,0.02525 -1.7515,-1.48877 -2.57996,-1.41375c-1.04043,0.09421 -2.64427,1.27402 -3.7416,1.31365c-0.64677,0.02336 -1.47339,-0.86909 -2.13254,-0.83167c-0.7889,0.04478 -1.82241,0.70335 -2.66018,0.73594c-0.74883,0.02913 -2.13132,-0.71798 -3.4774,-0.7018c-1.20133,0.01444 -2.37365,0.89077 -3.04064,0.89261c-0.55918,0.00154 -2.02519,-0.92948 -2.57769,-0.9244c-0.82614,0.00761 -2.30933,0.88761 -3.10139,0.87928c-0.56999,-0.006 -2.57732,-1.04231 -3.12018,-1.04606c-1.45986,-0.01008 -2.22548,1.1736 -3.49549,1.11799c-1.02471,-0.04487 -1.23297,-1.15616 -2.13578,-1.2105c-1.55813,-0.09378 -3.07325,0.82989 -4.20972,0.63497c-3.01867,-0.51774 -2.74944,-4.03037 -2.74944,-4.36516c0,-0.19289 3.78577,1.5315 4.84236,1.44331c0.52882,-0.04414 6.52826,-2.42127 7.23587,-2.47647c0.41131,-0.03208 1.49617,1.5605 3.45855,2.01422c1.48107,0.34244 2.31698,-0.05623 3.50968,-0.34871c0.78517,-0.19254 1.89007,-0.17396 2.85154,-0.45155c2.03849,-0.58854 5.79964,-1.40992 6.73491,-1.46778c1.73229,-0.10717 5.12712,2.35074 6.7167,2.5461c1.38283,0.16994 2.19689,-0.05798 3.81306,-0.39272c0.20229,-0.0419 2.41962,-1.89415 2.64973,-1.93883c1.14391,-0.22208 4.20501,-0.64112 5.59603,-0.27982c0.36672,0.09526 1.11836,0.22401 1.73103,0.37164c1.58959,0.38302 3.25058,0.87916 5.61985,0.58324c1.14064,-0.14246 3.38831,-1.26251 4.08551,-1.16339c0.49403,0.07023 3.17605,1.17013 3.65418,1.23284c0.2006,0.02631 1.82047,0.8269 2.01745,0.85147c0.32162,0.04013 1.73575,-0.1163 2.04642,-0.08158c0.46991,0.05251 1.11979,0.09928 1.56328,0.14072c0.38853,0.0363 0.60899,-0.28997 0.82939,-0.31942c0.42047,-0.05617 0.66205,-0.33601 1.00437,-0.44181c1.21238,-0.37473 2.197,-0.80348 3.63923,-1.22445c0.2462,-0.07186 1.61087,-0.07012 1.90391,-0.1208c0.24172,-0.04181 2.55642,1.27348 2.81146,1.2334c0.59879,-0.09411 1.23852,0.00609 1.93914,-0.08179c0.85373,-0.10709 3.04837,-1.33118 4.02129,-1.32408c0.45281,0.0033 2.80228,0.85256 3.30426,0.869c0.17148,0.00562 0.96874,0.64633 1.92328,1.0419c1.02256,0.42377 2.27114,0.92734 2.46456,0.93468c1.02681,0.03899 2.31888,-0.04008 3.50058,0.02357c0.52345,0.0282 1.4998,-0.65254 1.51808,-0.3826c0.03539,0.52269 0.05964,3.31318 0.05964,4.32824c0,0 -0.78857,-0.71894 -1.66501,-0.78405c-0.63112,-0.04689 -0.89817,0.8889 -2.32241,0.86545c-0.83902,-0.01381 -1.93318,-1.18302 -2.90859,-1.28183c-1.48831,-0.15078 -1.48177,0.95186 -2.57554,1.05608c-1.05516,0.10054 -3.23735,-0.79978 -3.23735,-0.79978z" fill="#ffffff" stroke="none" stroke-width="0" stroke-linecap="butt"/><path d="M345.84578,176.36595c-0.41602,0.27735 -0.69338,-0.13868 -0.69338,-0.13868l-0.08033,-0.23926c-2.00577,-1.00288 -3.39736,-1.16505 -5.01425,0.45184c0,0 -0.35356,0.35356 -0.70711,0c-0.35355,-0.35356 0,-0.7071 0,-0.7071c1.93293,-1.93293 3.79355,-1.82668 6.16858,-0.63917l0.46517,0.57899c0,0 0.27735,0.41602 -0.13867,0.69338z" fill="#9a9a9a" stroke="none" stroke-width="0.5" stroke-linecap="butt"/><path d="M351.74993,176.24167c-0.41602,0.27735 -0.69338,-0.13868 -0.69338,-0.13868l-0.08034,-0.23926c-2.00577,-1.00288 -3.39736,-1.16505 -5.01425,0.45184c0,0 -0.35356,0.35356 -0.70711,0c-0.35355,-0.35356 0,-0.7071 0,-0.7071c1.93293,-1.93293 3.79356,-1.82668 6.16858,-0.63917l0.46517,0.57899c0,0 0.27735,0.41602 -0.13867,0.69338z" fill="#9a9a9a" stroke="none" stroke-width="0.5" stroke-linecap="butt"/><path d="M274.62128,177.92258c-0.41602,0.27735 -0.69338,-0.13868 -0.69338,-0.13868l-0.08033,-0.23926c-2.00577,-1.00288 -3.39736,-1.16505 -5.01425,0.45184c0,0 -0.35356,0.35356 -0.70711,0c-0.35355,-0.35356 0,-0.7071 0,-0.7071c1.93293,-1.93293 3.79356,-1.82668 6.16858,-0.63917l0.46517,0.57899c0,0 0.27735,0.41602 -0.13868,0.69338z" fill="#9a9a9a" stroke="none" stroke-width="0.5" stroke-linecap="butt"/><path d="M280.56456,177.79356c-0.41602,0.27735 -0.69338,-0.13867 -0.69338,-0.13867l-0.08033,-0.23927c-2.00577,-1.00288 -3.39737,-1.16504 -5.01426,0.45185c0,0 -0.35356,0.35356 -0.70711,0c-0.35355,-0.35356 0,-0.70711 0,-0.70711c1.93293,-1.93293 3.79356,-1.82667 6.16858,-0.63916l0.46517,0.57899c0,0 0.27735,0.41602 -0.13867,0.69337z" fill="#9a9a9a" stroke="none" stroke-width="0.5" stroke-linecap="butt"/><path d="M286.50781,177.60558c-0.41602,0.27735 -0.69338,-0.13868 -0.69338,-0.13868l-0.08033,-0.23926c-2.00577,-1.00288 -3.39736,-1.16505 -5.01425,0.45184c0,0 -0.35356,0.35356 -0.70711,0c-0.35355,-0.35356 0,-0.7071 0,-0.7071c1.93293,-1.93293 3.79355,-1.82667 6.16858,-0.63916l0.46517,0.57899c0,0 0.27735,0.41602 -0.13867,0.69338z" fill="#9a9a9a" stroke="none" stroke-width="0.5" stroke-linecap="butt"/><path d="M292.35539,177.43983c-0.41602,0.27735 -0.69338,-0.13867 -0.69338,-0.13867l-0.08033,-0.23927c-2.00577,-1.00288 -3.39736,-1.16505 -5.01425,0.45184c0,0 -0.35356,0.35356 -0.70711,0c-0.35355,-0.35356 0,-0.7071 0,-0.7071c1.93293,-1.93293 3.79356,-1.82667 6.16858,-0.63916l0.46517,0.57899c0,0 0.27735,0.41602 -0.13868,0.69338z" fill="#9a9a9a" stroke="none" stroke-width="0.5" stroke-linecap="butt"/><path d="M298.29869,177.31081c-0.41602,0.27735 -0.69338,-0.13868 -0.69338,-0.13868l-0.08034,-0.23926c-2.00577,-1.00288 -3.39736,-1.16505 -5.01425,0.45184c0,0 -0.35356,0.35356 -0.70711,0c-0.35355,-0.35356 0,-0.70711 0,-0.70711c1.93293,-1.93293 3.79356,-1.82667 6.16858,-0.63916l0.46517,0.57899c0,0 0.27735,0.41602 -0.13867,0.69338z" fill="#9a9a9a" stroke="none" stroke-width="0.5" stroke-linecap="butt"/><path d="M304.24196,177.12283c-0.41602,0.27735 -0.69338,-0.13868 -0.69338,-0.13868l-0.08033,-0.23927c-2.00577,-1.00288 -3.39736,-1.16504 -5.01425,0.45185c0,0 -0.35356,0.35356 -0.70711,0c-0.35355,-0.35356 0,-0.70711 0,-0.70711c1.93293,-1.93293 3.79355,-1.82667 6.16858,-0.63916l0.46517,0.57899c0,0 0.27735,0.41602 -0.13867,0.69338z" fill="#9a9a9a" stroke="none" stroke-width="0.5" stroke-linecap="butt"/><path d="M310.27749,176.9682c-0.41602,0.27735 -0.69338,-0.13868 -0.69338,-0.13868l-0.08033,-0.23926c-2.00577,-1.00288 -3.39736,-1.16505 -5.01425,0.45184c0,0 -0.35356,0.35356 -0.70711,0c-0.35355,-0.35356 0,-0.7071 0,-0.7071c1.93293,-1.93293 3.79356,-1.82668 6.16858,-0.63917l0.46517,0.57899c0,0 0.27735,0.41602 -0.13868,0.69338z" fill="#9a9a9a" stroke="none" stroke-width="0.5" stroke-linecap="butt"/><path d="M316.2208,176.97555c-0.41602,0.27735 -0.69338,-0.13868 -0.69338,-0.13868l-0.08033,-0.23926c-2.00577,-1.00288 -3.39737,-1.16505 -5.01426,0.45184c0,0 -0.35356,0.35356 -0.70711,0c-0.35355,-0.35356 0,-0.7071 0,-0.7071c1.93293,-1.93293 3.79356,-1.82668 6.16858,-0.63917l0.46517,0.57899c0,0 0.27735,0.41602 -0.13867,0.69338z" fill="#9a9a9a" stroke="none" stroke-width="0.5" stroke-linecap="butt"/><path d="M322.16406,176.78757c-0.41602,0.27735 -0.69338,-0.13868 -0.69338,-0.13868l-0.08033,-0.23926c-2.00577,-1.00288 -3.39736,-1.16505 -5.01425,0.45184c0,0 -0.35356,0.35356 -0.70711,0c-0.35355,-0.35356 0,-0.70711 0,-0.70711c1.93293,-1.93293 3.79355,-1.82667 6.16858,-0.63916l0.46517,0.57899c0,0 0.27735,0.41602 -0.13867,0.69338z" fill="#9a9a9a" stroke="none" stroke-width="0.5" stroke-linecap="butt"/><path d="M328.01164,176.62182c-0.41602,0.27735 -0.69338,-0.13868 -0.69338,-0.13868l-0.08033,-0.23926c-2.00577,-1.00288 -3.39736,-1.16505 -5.01425,0.45184c0,0 -0.35356,0.35356 -0.70711,0c-0.35355,-0.35356 0,-0.70711 0,-0.70711c1.93293,-1.93293 3.79356,-1.82667 6.16858,-0.63916l0.46517,0.57899c0,0 0.27735,0.41602 -0.13868,0.69338z" fill="#9a9a9a" stroke="none" stroke-width="0.5" stroke-linecap="butt"/><path d="M333.95492,176.4928c-0.41602,0.27735 -0.69338,-0.13867 -0.69338,-0.13867l-0.08033,-0.23927c-2.00577,-1.00288 -3.39737,-1.16505 -5.01426,0.45184c0,0 -0.35356,0.35356 -0.70711,0c-0.35355,-0.35356 0,-0.7071 0,-0.7071c1.93293,-1.93293 3.79356,-1.82667 6.16858,-0.63916l0.46517,0.57899c0,0 0.27735,0.41602 -0.13867,0.69338z" fill="#9a9a9a" stroke="none" stroke-width="0.5" stroke-linecap="butt"/><path d="M339.89819,176.4412c-0.41602,0.27735 -0.69338,-0.13868 -0.69338,-0.13868l-0.08033,-0.23927c-2.00577,-1.00288 -3.39736,-1.16504 -5.01425,0.45185c0,0 -0.35356,0.35356 -0.70711,0c-0.35355,-0.35356 0,-0.70711 0,-0.70711c1.93293,-1.93293 3.79355,-1.82667 6.16858,-0.63916l0.46517,0.57899c0,0 0.27735,0.41602 -0.13867,0.69338z" fill="#9a9a9a" stroke="none" stroke-width="0.5" stroke-linecap="butt"/><path d="M357.76756,175.88143c-0.41602,0.27735 -0.69338,-0.13868 -0.69338,-0.13868l-0.08033,-0.23927c-2.00577,-1.00288 -3.39736,-1.16504 -5.01425,0.45185c0,0 -0.35356,0.35356 -0.70711,0c-0.35355,-0.35356 0,-0.70711 0,-0.70711c1.93293,-1.93293 3.79355,-1.82667 6.16858,-0.63916l0.46517,0.57899c0,0 0.27735,0.41602 -0.13867,0.69338z" fill="#9a9a9a" stroke="none" stroke-width="0.5" stroke-linecap="butt"/><path d="M364.58506,174.30035c0.1857,0.46424 -0.27854,0.64993 -0.27854,0.64993l-0.11804,-0.03794c-0.09753,0.1217 -0.17339,0.2703 -0.21423,0.42561c0.04505,0.11621 0.0833,0.31273 -0.06673,0.48585c-0.04985,0.14249 -0.17095,0.31555 -0.46511,0.31555c-0.5,0 -0.5,-0.5 -0.5,-0.5c0.00135,-0.03943 0.00378,-0.07891 0.00726,-0.1184c-1.97265,-0.97529 -3.3522,-1.11764 -4.95243,0.48259c0,0 -0.35356,0.35356 -0.70711,0c-0.35355,-0.35356 0,-0.7071 0,-0.7071c1.87404,-1.87404 3.6801,-1.83126 5.9529,-0.74468c0.04049,-0.07608 0.08451,-0.14983 0.13172,-0.22066l0.56038,-0.3093c0,0 0.46423,-0.18569 0.64993,0.27855z" fill="#9a9a9a" stroke="none" stroke-width="0.5" stroke-linecap="butt"/><g fill="#9a9a9a" stroke="none" stroke-width="0.5" stroke-linecap="butt"><path d="M274.56222,154.71201l-0.45162,0.58962c-2.34684,1.24227 -4.20451,1.39165 -6.18175,-0.49594c0,0 -0.36165,-0.34525 -0.01639,-0.70691c0.34526,-0.36166 0.70692,-0.0164 0.70692,-0.0164c1.65395,1.57896 3.04141,1.38457 5.02339,0.33544l0.07477,-0.24106c0,0 0.26763,-0.42235 0.68997,-0.15472c0.42235,0.26763 0.15472,0.68998 0.15472,0.68998z"/><path d="M280.50688,154.70317l-0.45162,0.58963c-2.34684,1.24227 -4.20451,1.39165 -6.18175,-0.49594c0,0 -0.36165,-0.34526 -0.01639,-0.70692c0.34526,-0.36166 0.70692,-0.0164 0.70692,-0.0164c1.65395,1.57896 3.04141,1.38457 5.02338,0.33544l0.07477,-0.24106c0,0 0.26763,-0.42235 0.68997,-0.15472c0.42235,0.26763 0.15472,0.68997 0.15472,0.68997z"/><path d="M286.45292,154.75326l-0.45162,0.58962c-2.34684,1.24227 -4.20451,1.39165 -6.18175,-0.49594c0,0 -0.36165,-0.34526 -0.01639,-0.70692c0.34526,-0.36166 0.70692,-0.01639 0.70692,-0.01639c1.65395,1.57896 3.04141,1.38457 5.02338,0.33544l0.07477,-0.24106c0,0 0.26763,-0.42235 0.68997,-0.15472c0.42235,0.26763 0.15472,0.68997 0.15472,0.68997z"/><path d="M292.30275,154.78337l-0.45162,0.58962c-2.34684,1.24227 -4.2045,1.39165 -6.18174,-0.49594c0,0 -0.36166,-0.34525 -0.0164,-0.70691c0.34526,-0.36166 0.70692,-0.0164 0.70692,-0.0164c1.65395,1.57896 3.04141,1.38457 5.02338,0.33544l0.07477,-0.24106c0,0 0.26763,-0.42235 0.68997,-0.15472c0.42235,0.26763 0.15472,0.68998 0.15472,0.68998z"/><path d="M298.24741,154.77453l-0.45162,0.58963c-2.34684,1.24227 -4.2045,1.39164 -6.18174,-0.49595c0,0 -0.36166,-0.34525 -0.0164,-0.70691c0.34526,-0.36166 0.70692,-0.0164 0.70692,-0.0164c1.65395,1.57896 3.04141,1.38457 5.02339,0.33544l0.07476,-0.24106c0,0 0.26763,-0.42235 0.68997,-0.15472c0.42235,0.26763 0.15472,0.68997 0.15472,0.68997z"/><path d="M304.19347,154.82462l-0.45162,0.58962c-2.34684,1.24227 -4.2045,1.39165 -6.18174,-0.49594c0,0 -0.36166,-0.34526 -0.0164,-0.70692c0.34526,-0.36166 0.70692,-0.0164 0.70692,-0.0164c1.65395,1.57896 3.04141,1.38457 5.02339,0.33544l0.07476,-0.24106c0,0 0.26763,-0.42235 0.68997,-0.15472c0.42235,0.26763 0.15472,0.68998 0.15472,0.68998z"/><path d="M310.23099,154.83926l-0.45162,0.58963c-2.34684,1.24227 -4.20451,1.39164 -6.18175,-0.49595c0,0 -0.36165,-0.34526 -0.01639,-0.70692c0.34526,-0.36166 0.70692,-0.01639 0.70692,-0.01639c1.65395,1.57896 3.04141,1.38457 5.02338,0.33544l0.07477,-0.24107c0,0 0.26763,-0.42234 0.68998,-0.15471c0.42235,0.26763 0.15472,0.68997 0.15472,0.68997z"/><path d="M316.1725,154.69407l-0.45162,0.58962c-2.34684,1.24227 -4.2045,1.39165 -6.18174,-0.49594c0,0 -0.36165,-0.34526 -0.01639,-0.70692c0.34526,-0.36166 0.70692,-0.01639 0.70692,-0.01639c1.65395,1.57896 3.04141,1.38457 5.02339,0.33544l0.07477,-0.24106c0,0 0.26763,-0.42235 0.68997,-0.15472c0.42235,0.26763 0.15472,0.68997 0.15472,0.68997z"/><path d="M322.11853,154.74418l-0.45162,0.58962c-2.34684,1.24227 -4.2045,1.39165 -6.18174,-0.49594c0,0 -0.36166,-0.34526 -0.0164,-0.70692c0.34526,-0.36166 0.70692,-0.0164 0.70692,-0.0164c1.65395,1.57896 3.04141,1.38457 5.02339,0.33544l0.07477,-0.24106c0,0 0.26762,-0.42235 0.68997,-0.15472c0.42235,0.26763 0.15472,0.68998 0.15472,0.68998z"/><path d="M327.96838,154.77428l-0.45162,0.58962c-2.34684,1.24227 -4.2045,1.39165 -6.18174,-0.49594c0,0 -0.36166,-0.34526 -0.0164,-0.70692c0.34526,-0.36166 0.70692,-0.0164 0.70692,-0.0164c1.65395,1.57896 3.04141,1.38457 5.02338,0.33544l0.07477,-0.24106c0,0 0.26763,-0.42235 0.68998,-0.15472c0.42235,0.26763 0.15472,0.68997 0.15472,0.68997z"/><path d="M333.91304,154.76543l-0.45162,0.58962c-2.34684,1.24227 -4.2045,1.39165 -6.18174,-0.49594c0,0 -0.36166,-0.34526 -0.0164,-0.70692c0.34526,-0.36166 0.70692,-0.01639 0.70692,-0.01639c1.65395,1.57896 3.04141,1.38457 5.02338,0.33544l0.07477,-0.24106c0,0 0.26763,-0.42234 0.68997,-0.15471c0.42235,0.26763 0.15472,0.68997 0.15472,0.68997z"/></g><path d="M339.84044,154.93885l-0.45162,0.58962c-2.34684,1.24227 -4.20451,1.39165 -6.18175,-0.49594c0,0 -0.36165,-0.34526 -0.01639,-0.70692c0.34526,-0.36166 0.70692,-0.0164 0.70692,-0.0164c1.65395,1.57896 3.04141,1.38457 5.02339,0.33544l0.07477,-0.24106c0,0 0.26763,-0.42235 0.68997,-0.15472c0.42235,0.26763 0.15472,0.68998 0.15472,0.68998z" fill="#9a9a9a" stroke="none" stroke-width="0.5" stroke-linecap="butt"/><path d="M345.7851,154.93001l-0.45162,0.58963c-2.34684,1.24227 -4.20451,1.39165 -6.18175,-0.49594c0,0 -0.36165,-0.34525 -0.01639,-0.70691c0.34526,-0.36166 0.70692,-0.0164 0.70692,-0.0164c1.65395,1.57896 3.04141,1.38457 5.02338,0.33544l0.07477,-0.24107c0,0 0.26763,-0.42234 0.68997,-0.15471c0.42235,0.26763 0.15472,0.68997 0.15472,0.68997z" fill="#9a9a9a" stroke="none" stroke-width="0.5" stroke-linecap="butt"/><path d="M351.73113,154.98011l-0.45162,0.58962c-2.34684,1.24227 -4.20451,1.39165 -6.18175,-0.49594c0,0 -0.36165,-0.34525 -0.01639,-0.70691c0.34526,-0.36166 0.70692,-0.0164 0.70692,-0.0164c1.65395,1.57896 3.04141,1.38457 5.02338,0.33544l0.07477,-0.24106c0,0 0.26763,-0.42235 0.68997,-0.15472c0.42235,0.26763 0.15472,0.68997 0.15472,0.68997z" fill="#9a9a9a" stroke="none" stroke-width="0.5" stroke-linecap="butt"/><path d="M357.58099,155.01021l-0.45162,0.58962c-2.34684,1.24227 -4.2045,1.39165 -6.18174,-0.49594c0,0 -0.36166,-0.34526 -0.0164,-0.70692c0.34526,-0.36166 0.70692,-0.0164 0.70692,-0.0164c1.65395,1.57896 3.04141,1.38457 5.02338,0.33544l0.07477,-0.24106c0,0 0.26763,-0.42235 0.68997,-0.15472c0.42235,0.26763 0.15472,0.68998 0.15472,0.68998z" fill="#9a9a9a" stroke="none" stroke-width="0.5" stroke-linecap="butt"/><path d="M363.61647,156.38927l-0.56038,-0.3093c-0.04721,-0.07083 -0.09123,-0.14458 -0.13172,-0.22066c-2.2728,1.08659 -4.07887,1.12937 -5.9529,-0.74468c0,0 -0.35355,-0.35355 0,-0.70711c0.35355,-0.35356 0.70711,0 0.70711,0c1.60023,1.60022 2.97978,1.45788 4.95243,0.48259c-0.00347,-0.03949 -0.0059,-0.07897 -0.00726,-0.1184c0,0 0,-0.5 0.5,-0.5c0.29416,0 0.41526,0.17306 0.46511,0.31555c0.15003,0.17313 0.11178,0.36965 0.06673,0.48586c0.04084,0.15532 0.11671,0.30391 0.21424,0.42561l0.11804,-0.03794c0,0 0.65803,0.1857 0.47233,0.64993c-0.1857,0.46424 -0.84372,0.27854 -0.84372,0.27854z" fill="#9a9a9a" stroke="none" stroke-width="0.5" stroke-linecap="butt"/><path d="M324.33553,171.22608l0.36606,0.26315c0.80358,1.4104 0.93673,2.54648 -0.1558,3.80394c0,0 -0.19983,0.23 -0.42594,0.02673c-0.22611,-0.20327 -0.02628,-0.43328 -0.02628,-0.43328c0.91389,-1.05186 0.7645,-1.89843 0.08585,-3.08955l-0.14711,-0.04018c0,0 -0.26091,-0.15422 -0.1093,-0.41962c0.15161,-0.2654 0.41251,-0.11119 0.41251,-0.11119z" fill="#9a9a9a" stroke="none" stroke-width="0.5" stroke-linecap="butt"/><path d="M324.14323,167.51409l0.36606,0.26315c0.80358,1.4104 0.93673,2.54647 -0.15579,3.80393c0,0 -0.19983,0.23 -0.42595,0.02673c-0.22611,-0.20327 -0.02627,-0.43328 -0.02627,-0.43328c0.91389,-1.05186 0.7645,-1.89842 0.08585,-3.08954l-0.14711,-0.04019c0,0 -0.26091,-0.15422 -0.1093,-0.41962c0.15161,-0.2654 0.41252,-0.11118 0.41252,-0.11118z" fill="#9a9a9a" stroke="none" stroke-width="0.5" stroke-linecap="butt"/><path d="M324.16658,163.59918l0.36606,0.26315c0.80358,1.4104 0.93673,2.54647 -0.1558,3.80393c0,0 -0.19982,0.23001 -0.42593,0.02674c-0.22611,-0.20327 -0.02628,-0.43328 -0.02628,-0.43328c0.91389,-1.05186 0.7645,-1.89843 0.08585,-3.08955l-0.14711,-0.04018c0,0 -0.26092,-0.15422 -0.10931,-0.41962c0.15161,-0.2654 0.41252,-0.11119 0.41252,-0.11119z" fill="#9a9a9a" stroke="none" stroke-width="0.5" stroke-linecap="butt"/><path d="M323.97427,159.88719l0.36606,0.26314c0.80358,1.4104 0.93673,2.54647 -0.1558,3.80394c0,0 -0.19983,0.23 -0.42594,0.02673c-0.22611,-0.20327 -0.02628,-0.43328 -0.02628,-0.43328c0.91389,-1.05186 0.7645,-1.89842 0.08585,-3.08954l-0.14712,-0.04018c0,0 -0.2609,-0.15422 -0.10929,-0.41962c0.15161,-0.2654 0.41251,-0.11118 0.41251,-0.11118z" fill="#9966ff" stroke="none" stroke-width="0.5" stroke-linecap="butt"/><path d="M307.83319,171.29135c0.15161,0.2654 -0.1093,0.41962 -0.1093,0.41962l-0.14711,0.04018c-0.67865,1.19112 -0.82804,2.03768 0.08585,3.08954c0,0 0.19984,0.23001 -0.02628,0.43329c-0.22611,0.20327 -0.42594,-0.02673 -0.42594,-0.02673c-1.09253,-1.25746 -0.95938,-2.39354 -0.1558,-3.80394l0.36606,-0.26314c0,0 0.2609,-0.15422 0.41251,0.11119z" fill="#9a9a9a" stroke="none" stroke-width="0.5" stroke-linecap="butt"/><path d="M308.02555,167.57936c0.15161,0.2654 -0.1093,0.41962 -0.1093,0.41962l-0.14711,0.04019c-0.67865,1.19112 -0.82804,2.03768 0.08585,3.08954c0,0 0.19984,0.23001 -0.02627,0.43328c-0.22611,0.20327 -0.42595,-0.02673 -0.42595,-0.02673c-1.09253,-1.25746 -0.95937,-2.39353 -0.15579,-3.80393l0.36605,-0.26315c0,0 0.26091,-0.15422 0.41252,0.11118z" fill="#9a9a9a" stroke="none" stroke-width="0.5" stroke-linecap="butt"/><path d="M308.00218,163.66443c0.15161,0.2654 -0.10931,0.41962 -0.10931,0.41962l-0.14711,0.04018c-0.67865,1.19112 -0.82804,2.03769 0.08585,3.08955c0,0 0.19983,0.23001 -0.02628,0.43328c-0.22611,0.20327 -0.42593,-0.02674 -0.42593,-0.02674c-1.09253,-1.25746 -0.95938,-2.39353 -0.1558,-3.80393l0.36606,-0.26314c0,0 0.26091,-0.15422 0.41252,0.11118z" fill="#9a9a9a" stroke="none" stroke-width="0.5" stroke-linecap="butt"/><path d="M308.1945,159.95245c0.15161,0.2654 -0.10929,0.41963 -0.10929,0.41963l-0.14711,0.04018c-0.67865,1.19112 -0.82804,2.03768 0.08585,3.08954c0,0 0.19983,0.23001 -0.02628,0.43328c-0.22611,0.20327 -0.42594,-0.02673 -0.42594,-0.02673c-1.09253,-1.25746 -0.95938,-2.39353 -0.1558,-3.80393l0.36606,-0.26315c0,0 0.2609,-0.15422 0.41251,0.11118z" fill="#9966ff" stroke="none" stroke-width="0.5" stroke-linecap="butt"/><path d="M267.685,166.13566v-8.59169h96.69061v8.59169z" fill="#000000" stroke="none" stroke-width="0" stroke-linecap="butt"/><path d="M305.24849,166.77217v-9.70884h21.84491v9.70884z" fill="#f1cb05" stroke="#b19016" stroke-width="0.5" stroke-linecap="butt"/><path d="M308.28253,165.40686v-6.82654h16.08028v6.82654z" fill="#000000" stroke="#b19016" stroke-width="0.5" stroke-linecap="butt"/><path d="M307.65807,172.78649c-0.09806,-0.49029 0.39223,-0.58835 0.39223,-0.58835l0.40629,-0.07136c1.58959,0.03839 1.21782,-1.71074 2.49821,-2.07212c2.17915,-0.61506 5.4193,0.20809 7.5686,0.59907c1.68561,0.24064 3.72758,0.3052 5.15631,1.39168c0.28496,0.21669 0.89995,1.11155 0.94129,1.60773c0.04444,0.53331 -1.97678,0.62097 -2.01564,1.26024c-0.11143,1.83308 0.96431,3.8502 0.05131,4.33348c-0.69271,0.36667 -2.40231,-0.14037 -3.22702,-0.14037c-2.44121,0 -7.80618,0.91706 -9.85668,-0.47101c-1.18768,-0.80399 -1.27349,-2.88009 -1.87182,-4.05899c0,0 -0.3469,-0.32393 0.10032,-0.54753c0.44722,-0.2236 0.67082,0.22361 0.67082,0.22361c0.49761,1.00761 0.71913,2.89895 1.70367,3.58515c0.74864,0.52178 2.24734,0.20711 3.08906,0.20711c2.05564,0 4.1075,0.06165 6.16464,0.06165c0.67102,0 2.29599,0.43667 2.81433,0.2295c0.31236,-0.12484 0.26422,-1.13576 0.35162,-1.37631c0.17506,-0.48183 0.61163,-1.32032 0.83925,-2.13826c0.22174,-0.79678 0.2452,-1.57406 -0.36452,-1.98314c-1.37374,-0.92167 -3.13285,-0.97243 -4.70711,-1.19747c-2.22753,-0.4048 -4.8246,-0.92629 -7.10324,-0.63386c-0.8798,0.11291 -1.17183,2.09285 -2.80338,2.11983l-0.21017,0.05193c0,0 -0.49029,0.09806 -0.58835,-0.39223z" fill="#ffffff" stroke="none" stroke-width="0.5" stroke-linecap="butt"/><path d="M324.48462,173.76725c0,0.5281 -0.24154,1.08325 -0.66818,1.61685c-0.23217,0.29038 2.31657,0.4511 1.98385,0.7209c-1.44056,1.16815 -6.574,2.19325 -8.99064,2.19325c-4.00045,0 -7.24345,-1.6698 -7.24345,-3.7296c0,-2.05981 3.243,-3.7296 7.24345,-3.7296c4.00045,0 7.67497,0.8684 7.67497,2.9282z" fill="#ffffff" stroke="none" stroke-width="0" stroke-linecap="butt"/><path d="M316.22404,176.35639c0,1.75339 -1.794,3.17479 -4.00702,3.17479c-2.21301,0 -4.00701,-1.4214 -4.00701,-3.17479c0,-1.75339 1.794,-3.17479 4.00701,-3.17479c2.21301,0 4.00702,1.4214 4.00702,3.17479z" fill="#ffffff" stroke="none" stroke-width="0" stroke-linecap="butt"/><path d="M308.54906,176.51051c-0.42558,0 -0.77058,-0.0828 -0.77058,-0.18494c0,-0.10213 0.345,-0.18493 0.77058,-0.18493c0.42558,0 0.77058,0.08279 0.77058,0.18493c0,0.10214 -0.345,0.18494 -0.77058,0.18494z" fill="#ffffff" stroke="none" stroke-width="0" stroke-linecap="butt"/><path d="M371.4178,174.02828c-2.46185,0.0308 -4.63275,-0.5555 -4.63275,-0.5555c0,0 -1.40521,-14.80775 -1.65788,-25.06667c-0.11634,-4.72326 0.92703,-8.38262 1.54893,-10.25756c0.44008,-1.32678 3.01549,-5.28819 3.31294,-6.41978c0.98882,-3.76172 -1.52545,-9.57264 -1.52545,-9.57264c0,0 1.9417,-0.81493 3.90355,0.83904c1.49902,1.26378 3.00982,4.75137 3.67518,6.49044c1.76635,4.6168 0.88359,43.27878 0.88359,43.27878c0,0 -3.51772,1.23899 -5.5081,1.26389z" fill="#ec2b51" stroke="#971b34" stroke-width="0.5" stroke-linecap="round"/><path d="M257.23688,171.14412c0,0 -0.88276,-38.66198 0.88359,-43.27878c0.66536,-1.73907 2.17615,-5.22666 3.67517,-6.49044c1.96184,-1.65397 3.90355,-0.83904 3.90355,-0.83904c0,0 -2.51426,5.81092 -1.52545,9.57264c0.29744,1.13159 2.87285,5.093 3.31294,6.41978c0.62189,1.87494 1.66527,5.5343 1.54893,10.25757c-0.25268,10.25892 -1.65788,25.06667 -1.65788,25.06667c0,0 -2.17089,0.5863 -4.63274,0.5555c-1.99038,-0.0249 -5.5081,-1.26389 -5.5081,-1.26389z" fill="#ec2b51" stroke="#971b34" stroke-width="0.5" stroke-linecap="round"/></g></g></svg>