<svg version="1.1" xmlns="http://www.w3.org/2000/svg" xmlns:xlink="http://www.w3.org/1999/xlink" width="98.50918" height="45.14845" viewBox="0,0,98.50918,45.14845"><g transform="translate(-266.64496,-150.736)"><g data-paper-data="{&quot;isPaintingLayer&quot;:true}" fill-rule="nonzero" stroke-linejoin="miter" stroke-miterlimit="10" stroke-dasharray="" stroke-dashoffset="0" style="mix-blend-mode: normal"><path d="M345.46997,175.87741c3.79525,0.00501 4.84068,4.85772 8.62977,4.78733c-0.14473,0.52077 0.18047,0.98249 0.14432,1.51724c-0.1368,2.02371 0.00133,4.18502 0.52447,6.11536c0.25522,0.94174 1.26264,2.25495 0.37863,2.75654c-3.12984,2.74908 -8.02747,4.12133 -11.94624,4.11678c-4.08305,0 -7.93351,0.07484 -11.43917,-2.42381c-0.7427,-0.52639 -1.15179,-1.82489 -1.33798,-3.40184c-0.34908,-2.95658 0.08533,-6.89201 0.57347,-8.55303l0.03038,-0.05618c0,0 0.06702,-0.15194 0.05494,-0.33028c3.88247,-0.22843 7.75397,-1.86579 11.68687,-2.42771z" data-paper-data="{&quot;noHover&quot;:false,&quot;origItem&quot;:[&quot;Path&quot;,{&quot;applyMatrix&quot;:true,&quot;segments&quot;:[[[600.0597,426.4568],[0,0],[-7.5905,0.00884]],[[577.4863,425.32288],[7.57818,0.12412],[1.38496,4.39334]],[[576.16108,438.72902],[1.32276,-4.30312],[-0.51044,1.66054]],[[576.21646,443.56994],[-1.76802,-0.88444],[6.25968,4.84736]],[[599.20326,450.75268],[-7.83752,0.00802],[8.1661,0]],[[621.98186,446.5415],[-7.01132,4.40578],[4.27036,-2.66838]],[[623.51512,425.54534],[1.497,4.49098],[0,0]],[623.45456,425.44668],[[623.34568,424.86616],[-0.02416,0.31446],[-7.76494,-0.40278]],[[600.05968,426.4568],[7.8658,0.99082],[0,0]]],&quot;closed&quot;:true,&quot;fillColor&quot;:[0,0,0,1]}],&quot;index&quot;:null}" fill="#ad6310" stroke="none" stroke-width="0.5" stroke-linecap="butt"/><path d="M329.72888,181.62322c-0.2236,-0.44721 0.22361,-0.67082 0.22361,-0.67082l0.51832,-0.22253c4.11873,-0.40759 8.15055,1.26023 12.30449,0.74482c4.06212,-0.0044 8.0185,-0.57507 12.08724,-0.57507c0,0 0.5,0 0.5,0.5c0,0.14528 -0.04221,0.24834 -0.1021,0.32146c-0.93889,2.10172 -0.15952,4.51051 0.48164,6.59224c0.40558,1.31686 0.95816,2.72307 -0.43159,3.55022c-3.26224,2.54965 -7.9536,3.75328 -12.04483,3.75715c-4.29315,0 -8.21947,0.04047 -11.91929,-2.25759c-2.5777,-1.61141 -2.1199,-8.59166 -1.2487,-11.46288c-0.12805,-0.01301 -0.27016,-0.07976 -0.36877,-0.27699zM342.83746,182.47278c-3.9329,0.49541 -7.76053,-0.99671 -11.643,-0.79532c0.01208,0.15723 -0.05444,0.29026 -0.05444,0.29026l-0.03028,0.04933c-0.7485,2.24549 -1.36855,9.16389 0.76663,10.49808c3.50566,2.20289 7.30625,2.10559 11.3893,2.10559c3.91876,0.00401 8.36356,-1.16769 11.4934,-3.59137c0.88401,-0.44222 0.28291,-1.59019 0.02769,-2.42046c-0.66138,-2.15156 -1.35509,-4.5064 -0.66261,-6.70307c-3.78909,0.06206 -7.49145,0.57138 -11.2867,0.56696z" data-paper-data="{&quot;index&quot;:null}" fill="#000000" stroke="none" stroke-width="0.5" stroke-linecap="butt"/><path d="M342.83762,182.42278c3.79525,0.00442 7.54122,-0.47904 11.33031,-0.5411c-0.69248,2.19667 0.00741,4.57761 0.66879,6.72917c0.25522,0.83027 0.85496,1.98804 -0.02905,2.43026c-3.12984,2.42368 -7.61979,3.6335 -11.53855,3.62949c-4.08305,0 -7.93351,0.06598 -11.43917,-2.13691c-2.13518,-1.33419 -1.51301,-8.29433 -0.76451,-10.53982l0.03038,-0.04952c0,0 0.06703,-0.13396 0.05495,-0.29119c3.88247,-0.20139 7.75397,1.26503 11.68687,0.76962z" data-paper-data="{&quot;noHover&quot;:false,&quot;origItem&quot;:[&quot;Path&quot;,{&quot;applyMatrix&quot;:true,&quot;segments&quot;:[[[351.92704,212.28989],[0,0],[-3.9329,0.49541]],[[340.28404,211.49457],[3.88247,-0.20139],[0.01208,0.15723]],[340.2296,211.78483],[[340.19932,211.83416],[0,0],[-0.7485,2.24549]],[[340.96595,222.33224],[-2.13518,-1.33419],[3.50566,2.20289]],[[352.35525,224.43783],[-4.08305,0],[3.91876,0.00401]],[[363.84865,220.84646],[-3.12984,2.42368],[0.88401,-0.44222]],[[363.87634,218.426],[0.25522,0.83027],[-0.66138,-2.15156]],[[363.21373,211.72293],[-0.69248,2.19667],[-3.78909,0.06206]],[[351.92703,212.28989],[3.79525,0.00442],[0,0]]],&quot;closed&quot;:true,&quot;fillColor&quot;:[0,0,0,1]}]}" fill="#024198" stroke="none" stroke-width="0.5" stroke-linecap="butt"/><path d="M291.00833,178.24151c3.9329,0.56192 7.8044,2.19928 11.68687,2.42771c-0.01208,0.17834 0.05494,0.33028 0.05494,0.33028l0.03038,0.05618c0.48814,1.66102 0.92255,5.59645 0.57347,8.55303c-0.18619,1.57695 -0.59528,2.87545 -1.33798,3.40184c-3.50566,2.49865 -7.35612,2.42381 -11.43917,2.42381c-3.91876,0.00455 -8.81639,-1.3677 -11.94624,-4.11678c-0.88401,-0.50159 0.12341,-1.8148 0.37863,-2.75654c0.52314,-1.93034 0.66127,-4.09165 0.52447,-6.11536c-0.03615,-0.53475 0.28905,-0.99647 0.14432,-1.51724c3.78909,0.07039 4.83452,-4.78232 8.62977,-4.78733z" data-paper-data="{&quot;noHover&quot;:false,&quot;origItem&quot;:[&quot;Path&quot;,{&quot;applyMatrix&quot;:true,&quot;segments&quot;:[[[600.0597,426.4568],[0,0],[-7.5905,0.00884]],[[577.4863,425.32288],[7.57818,0.12412],[1.38496,4.39334]],[[576.16108,438.72902],[1.32276,-4.30312],[-0.51044,1.66054]],[[576.21646,443.56994],[-1.76802,-0.88444],[6.25968,4.84736]],[[599.20326,450.75268],[-7.83752,0.00802],[8.1661,0]],[[621.98186,446.5415],[-7.01132,4.40578],[4.27036,-2.66838]],[[623.51512,425.54534],[1.497,4.49098],[0,0]],[623.45456,425.44668],[[623.34568,424.86616],[-0.02416,0.31446],[-7.76494,-0.40278]],[[600.05968,426.4568],[7.8658,0.99082],[0,0]]],&quot;closed&quot;:true,&quot;fillColor&quot;:[0,0,0,1]}]}" fill="#ad6310" stroke="none" stroke-width="0.5" stroke-linecap="butt"/><path d="M304.04881,181.88694c-0.09861,0.19723 -0.24072,0.26398 -0.36877,0.27699c0.8712,2.87122 1.329,9.85147 -1.2487,11.46288c-3.69982,2.29806 -7.62614,2.25759 -11.91929,2.25759c-4.09123,-0.00387 -8.78259,-1.2075 -12.04483,-3.75715c-1.38975,-0.82715 -0.83717,-2.23336 -0.43159,-3.55022c0.64116,-2.08173 1.42053,-4.49052 0.48164,-6.59224c-0.05989,-0.07312 -0.1021,-0.17618 -0.1021,-0.32146c0,-0.5 0.5,-0.5 0.5,-0.5c4.06874,0 8.02512,0.57067 12.08724,0.57507c4.15394,0.51541 8.18576,-1.15241 12.30449,-0.74482l0.51832,0.22253c0,0 0.44721,0.22361 0.22361,0.67082zM290.94027,182.73649c-3.79525,0.00442 -7.49761,-0.5049 -11.2867,-0.56696c0.69248,2.19667 -0.00123,4.55151 -0.66261,6.70307c-0.25522,0.83027 -0.85632,1.97824 0.02769,2.42046c3.12984,2.42368 7.57464,3.59538 11.4934,3.59137c4.08305,0 7.88364,0.0973 11.3893,-2.10559c2.13518,-1.33419 1.51513,-8.25259 0.76663,-10.49808l-0.03028,-0.04933c0,0 -0.06652,-0.13303 -0.05444,-0.29026c-3.88247,-0.20139 -7.7101,1.29073 -11.643,0.79532z" fill="#000000" stroke="none" stroke-width="0.5" stroke-linecap="butt"/><path d="M290.94009,182.68649c3.9329,0.49541 7.8044,-0.97101 11.68687,-0.76962c-0.01208,0.15723 0.05495,0.29119 0.05495,0.29119l0.03038,0.04952c0.7485,2.24549 1.37067,9.20563 -0.76451,10.53982c-3.50566,2.20289 -7.35612,2.13691 -11.43917,2.13691c-3.91876,0.00401 -8.40871,-1.20581 -11.53855,-3.62949c-0.88401,-0.44222 -0.28427,-1.59999 -0.02905,-2.43026c0.66138,-2.15156 1.36127,-4.5325 0.66879,-6.72917c3.78909,0.06206 7.53506,0.54552 11.33031,0.5411z" data-paper-data="{&quot;noHover&quot;:false,&quot;origItem&quot;:[&quot;Path&quot;,{&quot;applyMatrix&quot;:true,&quot;segments&quot;:[[[300.02986,212.5536],[0,0],[-3.79525,0.00442]],[[288.74316,211.98664],[3.78909,0.06206],[0.69248,2.19667]],[[288.08056,218.68971],[0.66138,-2.15156],[-0.25522,0.83027]],[[288.10825,221.11017],[-0.88401,-0.44222],[3.12984,2.42368]],[[299.60165,224.70154],[-3.91876,0.00401],[4.08305,0]],[[310.99095,222.59595],[-3.50566,2.20289],[2.13518,-1.33419]],[[311.75757,212.09787],[0.7485,2.24549],[0,0]],[311.7273,212.04854],[[311.67286,211.75828],[-0.01208,0.15723],[-3.88247,-0.20139]],[[300.02986,212.5536],[3.9329,0.49541],[0,0]]],&quot;closed&quot;:true,&quot;fillColor&quot;:[0,0,0,1]}]}" fill="#024198" stroke="none" stroke-width="0.5" stroke-linecap="butt"/><path d="M267.13351,183.68589v-22.23191c0,0 93.01445,-0.93169 96.78396,-0.95021c0.2346,-0.00116 0.59508,0.7122 0.59508,0.7122l0.38725,22.46991z" fill="#024198" stroke="#000000" stroke-width="0.5" stroke-linecap="butt"/><path d="M364.51257,152.75567l0.15355,14.66197l-97.55914,-0.01629l-0.20597,-15.86659c0,0 2.15399,1.3909 2.94031,1.37975c0.31031,-0.0044 2.13088,0.22686 2.77094,0.21207c0.46068,-0.01064 5.77637,-1.37434 6.39004,-1.39047c0.09755,-0.00256 0.73433,-0.05402 1.2285,0.13244c0.66625,0.25136 1.30756,0.77741 2.23047,0.94981c1.55262,0.29001 3.0913,0.09263 3.34709,0.08636c1.09997,-0.02699 8.92455,-1.31369 10.27452,-1.35181c0.53287,-0.01505 6.81053,1.46468 7.37088,1.44946c0.3863,-0.01049 2.22352,0.16227 3.70232,-0.37952c1.71294,-0.62757 3.67371,-1.12497 4.10845,-1.13823c0.31802,-0.00969 4.01938,0.15289 6.82625,0.38295c1.7074,0.13995 3.02366,0.396 3.21993,0.39013c0,0 2.75806,-0.71616 4.68291,-0.70485c0.68958,0.00405 3.20299,0.53631 5.21871,0.81016c1.83774,0.24967 3.18118,0.24385 3.94993,0.23406c0.60862,-0.00775 7.1359,-1.02639 7.73582,-1.03037c1.80593,-0.01197 3.0051,0.64734 4.67246,0.62676c0.97954,-0.01209 1.83738,-0.40226 2.64495,-0.60056c0.86917,-0.21342 1.68015,-0.23513 2.52205,-0.2213c0.57396,0.00942 3.10667,0.55403 4.59271,1.2347c1.85836,0.8512 4.28642,0.39759 4.66841,0.402c1.65497,0.01908 2.51395,-0.25265 2.51395,-0.25265z" fill="#ffffff" stroke="#000000" stroke-width="0.5" stroke-linecap="round"/><text transform="translate(308.5333,164.59166) scale(0.30452,0.30452)" font-size="40" xml:space="preserve" fill="#ff0000" fill-rule="nonzero" stroke="none" stroke-width="1" stroke-linecap="butt" stroke-linejoin="miter" stroke-miterlimit="10" stroke-dasharray="" stroke-dashoffset="0" font-family="&quot;SpongeBoyTT1-Regular&quot;, Sans Serif" font-weight="normal" text-anchor="start" style="mix-blend-mode: normal"><tspan x="0" dy="0">2</tspan></text><path d="" fill="#000000" stroke="none" stroke-width="0.5" stroke-linecap="butt"/><path d="" fill="#66f4ff" stroke="none" stroke-width="0.5" stroke-linecap="butt"/><path d="" data-paper-data="{&quot;index&quot;:null}" fill="#66f4ff" stroke="none" stroke-width="0.5" stroke-linecap="butt"/><path d="" fill="#66f4ff" stroke="none" stroke-width="0.5" stroke-linecap="butt"/><path d="" fill="#66f4ff" stroke="none" stroke-width="0.5" stroke-linecap="butt"/></g></g></svg>