<svg version="1.1" xmlns="http://www.w3.org/2000/svg" xmlns:xlink="http://www.w3.org/1999/xlink" width="58.01632" height="32.65449" viewBox="0,0,58.01632,32.65449"><g transform="translate(-302.97123,-46.37588)"><g data-paper-data="{&quot;isPaintingLayer&quot;:true}" fill-rule="nonzero" stroke-width="0.5" stroke-linecap="butt" stroke-linejoin="miter" stroke-miterlimit="10" stroke-dasharray="" stroke-dashoffset="0" style="mix-blend-mode: normal"><g><path d="M316.78323,57.88022c-0.12205,-0.08183 -0.26576,0.01293 -0.26576,0.01293c-2.70202,1.71078 -1.97784,-2.02018 0.38986,-0.80511c0.04809,0.21493 0.06801,0.45853 0.06771,0.66739c-0.0139,0.00651 -0.02203,0.01226 -0.02203,0.01226z" data-paper-data="{&quot;noHover&quot;:false,&quot;origItem&quot;:[&quot;Path&quot;,{&quot;applyMatrix&quot;:true,&quot;segments&quot;:[[633.43425,115.22108],[[633.47162,115.20635],[-0.0237,0.00828],[-0.0073,-0.28222]],[[633.33574,114.34842],[0.09087,0.29225],[-4.12378,-1.73061]],[[632.69311,115.35498],[-4.59006,2.21066],[0,0]],[[633.14793,115.35618],[-0.2133,-0.11515],[0,0]]],&quot;closed&quot;:true}]}" fill="#9c3f10" stroke="none"/><path d="M316.52619,58.2141v0c-0.03337,-0.00333 -0.06455,-0.01308 -0.09244,-0.02791c-3.11571,1.34404 -2.2339,-2.92838 0.60757,-1.34445c0.23531,0.56576 0.19333,0.95842 0.13425,1.54986l-0.00514,0.05147c0,0 -0.02485,0.24876 -0.27361,0.22391c-0.24876,-0.02485 -0.22391,-0.27361 -0.22391,-0.27361l0.00514,-0.05147c0.00374,-0.03749 0.00776,-0.07463 0.01187,-0.11145zM316.71713,57.61054c0,0 0.00684,-0.00323 0.01869,-0.00737c-0.00365,-0.14111 -0.02251,-0.28284 -0.06794,-0.42896c-2.06189,-0.8653 -2.61634,1.60861 -0.32131,0.50328c0,0 0.12076,-0.05698 0.22741,0.0006z" fill="#000000" stroke="none"/><path d="M304.80735,78.39465c0.05625,-0.37667 -0.11209,-0.53443 -0.2658,-0.88743c-0.02754,-0.06325 -0.05461,-0.13277 -0.07983,-0.21094c-0.14005,-0.43401 -0.19155,-1.24016 -0.2703,-1.65508c-0.3908,-2.05915 -0.98279,-4.24849 -0.67812,-6.13061c0.44103,-2.8088 3.08181,-5.99327 5.11807,-7.7653c2.49701,-1.79923 5.67933,-3.44316 8.83549,-3.56416c2.92264,-0.7548 6.38585,-0.38042 9.33058,0.09626c2.93844,0.47566 6.18198,0.80838 8.03487,3.39713c1.54114,2.13645 2.82282,4.08266 3.57716,6.6134c0.55719,1.77881 0.70153,3.69996 1.21802,5.43241c-2.70029,0.40556 -5.47319,-0.1568 -8.20828,0.28627c-3.50727,0.57056 -6.56146,1.50087 -10.2091,1.59282c-3.51212,0.15775 -5.28711,1.00681 -8.72785,1.71166c-2.70567,0.55572 -4.91012,1.00968 -7.67492,1.08356z" data-paper-data="{&quot;noHover&quot;:false,&quot;origItem&quot;:[&quot;Path&quot;,{&quot;applyMatrix&quot;:true,&quot;segments&quot;:[[[625.04414,154.56163],[-5.41133,1.11143],[6.88147,-1.40971]],[[642.42874,151.0992],[-7.02424,0.31551],[7.29527,-0.18389]],[[662.75107,147.96456],[-7.01455,1.14112],[5.47018,-0.88615]],[[679.15881,147.41331],[-5.40057,0.81111],[-1.03299,-3.46491]],[[676.71898,136.57804],[1.11439,3.55762],[-1.50867,-5.06147]],[[669.57648,123.39625],[3.08228,4.2729],[-3.70578,-5.17751]],[[653.55152,116.64487],[5.87687,0.95132],[-5.88946,-0.95336]],[[634.97199,116.45464],[5.84527,-1.50959],[-6.31234,0.242]],[[617.35131,123.53702],[4.99401,-3.59846],[-4.07251,3.54405]],[[607.12651,139.01649],[0.88206,-5.6176],[-0.61145,3.77727]],[[608.264,151.29096],[-0.77566,-4.11959],[0.3377,1.79356]],[[609.70522,156.74678],[0.24266,-1.62491],[5.52959,-0.14776]]],&quot;closed&quot;:true}]}" fill="#9c3f10" stroke="none"/><path d="M334.84328,70.96411c-0.85079,0.28409 -1.13487,-0.5667 -1.13487,-0.5667l-0.00121,-0.07887c-1.31667,-2.14805 -3.0561,-2.74711 -5.17025,-3.65125c-0.01104,0.02988 -0.02208,0.05979 -0.03315,0.08968c0.7311,1.46829 1.47411,2.93218 2.00824,4.53023l0.23748,0.40245c0,0 0.4317,0.78624 -0.35455,1.21795c-0.78625,0.4317 -1.21794,-0.35455 -1.21794,-0.35455l-0.36657,-0.69767c-1.12458,-3.3714 -3.16249,-6.15525 -4.10244,-9.63268c0,0 -0.23364,-0.86599 0.63236,-1.09963c0.866,-0.23364 1.09964,0.63235 1.09964,0.63235c0.26089,0.96891 0.6097,1.88371 1.00113,2.77281c0.31005,-0.73459 0.67016,-1.44142 1.16232,-2.07946c0,0 0.48527,-1.23685 0.5016,-1.35162c0.0698,-0.49043 0.52398,-0.83141 1.01441,-0.76161c0.49043,0.0698 0.83143,0.52396 0.76163,1.01439c-0.02835,0.19914 -0.28896,1.03475 -0.32819,1.116l-0.41086,0.90533c-0.39402,0.50332 -0.69432,1.05486 -0.95157,1.6302c2.4832,1.12798 4.47736,1.8568 6.04292,4.37431l0.17657,0.45349c0,0 0.28408,0.85077 -0.56669,1.13487z" fill="#ffbb66" stroke="none"/><path d="M327.39326,73.7242c-0.9685,0.24125 -1.20423,-0.81485 -1.20423,-0.81485c-1.27404,-2.49733 -3.15164,-3.313 -5.41843,-4.49967c-0.01484,0.0322 -0.02969,0.0644 -0.04458,0.0966c0.68349,1.69236 1.38058,3.38088 1.83431,5.20007l0.22849,0.46708c0,0 0.4106,0.90972 -0.49912,1.32032c-0.90972,0.41061 -1.32033,-0.49912 -1.32033,-0.49912l-0.34603,-0.80581c-0.95467,-3.83776 -2.97361,-7.10307 -3.71424,-11.04241c0,0 -0.18396,-0.98099 0.79703,-1.16495c0.981,-0.18396 1.16496,0.79704 1.16496,0.79704c0.20524,1.09752 0.51272,2.14267 0.86972,3.163c0.40778,-0.78799 0.86865,-1.54084 1.47006,-2.20587c0,0 0.64578,-1.32993 0.67388,-1.45583c0.12004,-0.538 0.65349,-0.87683 1.1915,-0.75679c0.27647,0.06168 0.82405,0.36557 0.86163,0.86045c0.03555,0.46815 -0.43148,1.129 -0.43932,1.17339c-0.00376,0.02706 -0.00865,0.0542 -0.0147,0.08134c-0.02303,0.10322 -0.06126,0.1991 -0.11185,0.28582l-0.53443,0.96861c-0.48082,0.52412 -0.86188,1.10989 -1.19724,1.72579c2.65675,1.46703 4.80568,2.4488 6.32371,5.37761l0.15648,0.51843c0,0 0.24125,0.96849 -0.72725,1.20974z" fill="#ffbb66" stroke="none"/><path d="M349.98835,72.94209c-0.01166,0.24973 -0.26138,0.23807 -0.26138,0.23807l-0.19236,-0.00898c-3.03001,-0.14145 -6.28789,-0.39172 -9.10487,0.88281c-0.06861,0.0152 -0.13727,0.02967 -0.20596,0.04342c0.00689,0.02023 0.01383,0.04045 0.02083,0.06063l-0.01092,0.36969c0,0 -0.0104,0.24978 -0.26019,0.23938c-0.24978,-0.0104 -0.23938,-0.26018 -0.23938,-0.26018l0.01594,-0.27526c-0.00564,-0.01592 -0.01125,-0.03184 -0.01681,-0.04779c-2.73077,0.41858 -5.51725,-0.15913 -8.27744,0.29192c-3.52159,0.57289 -6.5593,1.4813 -10.22394,1.5735c-3.48505,0.15671 -5.1952,0.85524 -8.60947,1.55467c-2.82042,0.57634 -4.99636,0.94769 -7.94226,1.16619c-0.02564,0.00343 -0.05447,0.00313 -0.08686,-0.00212c-0.07342,-0.01189 -0.12145,-0.04207 -0.15272,-0.07862c-0.03199,-0.03592 -0.0554,-0.0876 -0.05725,-0.16195c-0.00083,-0.03331 0.00289,-0.06229 0.00996,-0.08751c-0.01003,-1.16009 -0.51125,-2.34017 -0.84157,-3.65351c-0.45173,-1.79608 -0.74302,-3.74587 -0.48204,-5.35811c0.48979,-2.94814 3.14234,-6.18208 5.29539,-8.05167c2.54778,-1.8398 5.82536,-3.52981 9.04922,-3.64418c2.97712,-0.75757 6.444,-0.38884 9.44137,0.09637c3.09591,0.50115 6.37399,0.87233 8.33809,3.57675c1.58526,2.19762 2.80865,4.15861 3.64294,6.73413c0.56421,1.80611 0.71978,3.72038 1.23655,5.48122c0.0661,-0.01308 0.13216,-0.02682 0.19818,-0.04126c2.85739,-1.31199 6.20918,-1.05165 9.2865,-0.90799l0.19235,0.00898c0,0 0.24973,0.01165 0.23807,0.26138zM312.52207,77.28082c3.44074,-0.70485 5.18018,-1.57346 8.6923,-1.73122c3.64763,-0.09194 6.65389,-0.99676 10.16117,-1.56732c2.73509,-0.44307 5.50358,0.12993 8.20387,-0.27563c-0.5165,-1.73246 -0.66272,-3.63883 -1.21992,-5.41764c-0.75434,-2.53073 -2.03011,-4.45444 -3.57125,-6.59089c-1.85289,-2.58875 -5.07404,-2.90003 -8.01248,-3.37569c-2.94473,-0.47668 -6.36713,-0.84991 -9.28976,-0.09511c-3.15617,0.121 -6.31333,1.74196 -8.81034,3.54119c-2.03625,1.77202 -4.67137,4.93093 -5.1124,7.73974c-0.19278,1.19094 -0.0705,2.46464 0.1434,3.78668c0.12531,0.7745 0.28207,1.58963 0.42534,2.35056c0.11877,0.63078 0.34066,1.35845 0.50644,1.99566c0.06991,0.26871 0.25016,0.49126 0.21417,0.73225c2.76479,-0.07388 4.96379,-0.53686 7.66946,-1.09257z" fill="#000000" stroke="none"/><path d="M339.8124,54.5002c1.31757,-2.68162 4.94482,-7.1376 8.20254,-7.87432c1.24561,-0.2817 3.31245,0.93933 4.50239,1.33232c1.07666,1.10357 2.62899,1.45336 3.68944,2.71521c2.19846,2.61599 3.98258,7.71544 4.41677,11.08002c0.54597,4.19089 -0.97166,8.34382 -2.3678,12.36597c-0.33713,0.97125 -0.70549,3.64352 -1.72617,3.46162c-3.52819,-0.03862 -6.87507,1.31406 -10.35854,1.1915c-2.33843,-0.08228 -4.67759,-0.8257 -7.01424,-0.32389c-4.59229,-0.3632 -13.48303,-1.25713 -18.26946,-2.41419c-1.29199,-0.31232 2.48682,-0.43877 3.42069,-0.71431c0,0 7.83697,-1.35485 11.40291,-6.04579c4.01679,-5.28401 3.82989,-14.01281 4.10147,-14.77414z" data-paper-data="{&quot;noHover&quot;:false,&quot;origItem&quot;:[&quot;Path&quot;,{&quot;applyMatrix&quot;:true,&quot;segments&quot;:[[[441.41436,247.63531],[1.92159,-0.47172],[11.37748,-1.05998]],[[475.2591,241.606],[-10.97086,2.86188],[3.95929,-2.40376]],[[488.26233,237.75329],[-4.33379,1.33551],[6.45584,-1.98944]],[[506.42973,229.03027],[-6.48439,2.17156],[1.98441,-0.31562]],[[507.38262,221.61453],[0,1.99254],[0,-8.25153]],[[503.86599,197.54075],[3.6631,7.32621],[-2.93327,-5.88433]],[[488.78631,180.10737],[5.6878,3.39249],[-2.74356,-1.6364]],[[480.32962,177.48794],[2.67264,1.33632],[-2.42845,0.0367]],[[471.26514,177.91089],[2.10159,-1.30738],[-5.49642,3.41927]],[[462.46283,197.8571],[0.70809,-5.74722],[-0.02527,2.95723]],[[460.82616,206.04041],[0.15285,-2.83065],[-0.11378,2.10701]],[[460.24201,212.76477],[0.28216,-2.34338],[0.08468,0.22609]],[[460.13803,213.5981],[0.21442,-0.30931],[-0.97637,7.55893]],[[453.60104,234.84531],[3.59558,-5.53492],[-1.85043,3.69589]],[[446.7742,245.52015],[3.58746,-2.56667],[-1.53472,1.09802]]],&quot;closed&quot;:true}]}" fill="#752f0c" stroke="#000000"/></g></g></g></svg>