<svg version="1.1" xmlns="http://www.w3.org/2000/svg" xmlns:xlink="http://www.w3.org/1999/xlink" width="150.78788" height="310.21465" viewBox="0,0,150.78788,310.21465"><defs><radialGradient cx="320.3927" cy="178.82197" r="155.10733" gradientUnits="userSpaceOnUse" id="color-1"><stop offset="0" stop-color="#0047a6"/><stop offset="1" stop-color="#00a63d" stop-opacity="0.96078"/></radialGradient></defs><g transform="translate(-244.99877,-23.71465)"><g stroke="none" stroke-miterlimit="10"><path d="M244.99877,333.9293v-310.21465h150.78788v310.21465z" fill="url(#color-1)" stroke-width="0"/><path d="M346.88352,329.27598c0,0.79031 -12.02202,1.43099 -26.85195,1.43099c-14.82993,0 -26.85195,-0.64068 -26.85195,-1.43099c0,-0.79031 12.02203,-1.43098 26.85195,-1.43098c14.82993,0 26.85195,0.64067 26.85195,1.43098z" fill="#ffffff" stroke-width="0"/><path d="M258.77756,151.13564c0,-8.68293 7.0389,-15.72182 15.72182,-15.72182c8.68293,0 15.72182,7.0389 15.72182,15.72182c0,8.68293 -7.0389,15.72182 -15.72182,15.72182c-8.68293,0 -15.72182,-7.03889 -15.72182,-15.72182z" fill="#9966ff" stroke-width="0"/><path d="M305.20534,151.36065c0,-8.68293 7.03889,-15.72182 15.72182,-15.72182c8.68293,0 15.72183,7.0389 15.72183,15.72182c0,8.68293 -7.0389,15.72182 -15.72183,15.72182c-8.68293,0 -15.72182,-7.03889 -15.72182,-15.72182z" fill="#9966ff" stroke-width="0"/><path d="M350.7989,151.80202c0,-8.68293 7.0389,-15.72183 15.72182,-15.72183c8.68293,0 15.72182,7.0389 15.72182,15.72183c0,8.68293 -7.0389,15.72182 -15.72182,15.72182c-8.68293,0 -15.72182,-7.03889 -15.72182,-15.72182z" fill="#9966ff" stroke-width="0"/><path d="M258.78477,187.61191c0,-8.68293 7.0389,-15.72182 15.72182,-15.72182c8.68293,0 15.72182,7.0389 15.72182,15.72182c0,8.68293 -7.0389,15.72182 -15.72182,15.72182c-8.68293,0 -15.72182,-7.03889 -15.72182,-15.72182z" fill="#9966ff" stroke-width="0"/><path d="M305.21254,187.83692c0,-8.68293 7.03889,-15.72182 15.72182,-15.72182c8.68293,0 15.72183,7.0389 15.72183,15.72182c0,8.68293 -7.0389,15.72182 -15.72183,15.72182c-8.68293,0 -15.72182,-7.03889 -15.72182,-15.72182z" fill="#9966ff" stroke-width="0"/><path d="M350.80611,188.27828c0,-8.68293 7.0389,-15.72183 15.72182,-15.72183c8.68293,0 15.72182,7.0389 15.72182,15.72183c0,8.68293 -7.0389,15.72182 -15.72182,15.72182c-8.68293,0 -15.72182,-7.03889 -15.72182,-15.72182z" fill="#9966ff" stroke-width="0"/><path d="M258.57492,223.8711c0,-8.68293 7.03889,-15.72182 15.72182,-15.72182c8.68293,0 15.72183,7.0389 15.72183,15.72182c0,8.68293 -7.0389,15.72182 -15.72183,15.72182c-8.68293,0 -15.72182,-7.03889 -15.72182,-15.72182z" fill="#9966ff" stroke-width="0"/><path d="M305.0027,224.09611c0,-8.68293 7.0389,-15.72182 15.72182,-15.72182c8.68293,0 15.72182,7.0389 15.72182,15.72182c0,8.68293 -7.0389,15.72182 -15.72182,15.72182c-8.68293,0 -15.72182,-7.03889 -15.72182,-15.72182z" fill="#9966ff" stroke-width="0"/><path d="M350.59624,224.53748c0,-8.68293 7.03889,-15.72183 15.72182,-15.72183c8.68293,0 15.72183,7.0389 15.72183,15.72183c0,8.68293 -7.0389,15.72182 -15.72183,15.72182c-8.68293,0 -15.72182,-7.03889 -15.72182,-15.72182z" fill="#9966ff" stroke-width="0"/><text transform="translate(270.91148,157.97825) scale(0.5,0.5)" font-size="40" xml:space="preserve" fill="#000000" stroke-width="1" font-family="Pixel" font-weight="normal" text-anchor="start"><tspan x="0" dy="0">1</tspan></text><text transform="translate(314.76117,157.10994) scale(0.5,0.5)" font-size="40" xml:space="preserve" fill="#000000" stroke-width="1" font-family="Sans Serif" font-weight="normal" text-anchor="start"><tspan x="0" dy="0">2</tspan></text><text transform="translate(360.34752,159.06364) scale(0.5,0.5)" font-size="40" xml:space="preserve" fill="#000000" stroke-width="1" font-family="Sans Serif" font-weight="normal" text-anchor="start"><tspan x="0" dy="0">3</tspan></text><text transform="translate(267.43823,193.79608) scale(0.5,0.5)" font-size="40" xml:space="preserve" fill="#000000" stroke-width="1" font-family="Sans Serif" font-weight="normal" text-anchor="start"><tspan x="0" dy="0">4</tspan></text><text transform="translate(315.19534,194.01315) scale(0.5,0.5)" font-size="40" xml:space="preserve" fill="#000000" stroke-width="1" font-family="Sans Serif" font-weight="normal" text-anchor="start"><tspan x="0" dy="0">5</tspan></text><text transform="translate(360.13044,194.66439) scale(0.5,0.5)" font-size="40" xml:space="preserve" fill="#000000" stroke-width="1" font-family="Sans Serif" font-weight="normal" text-anchor="start"><tspan x="0" dy="0">6</tspan></text><text transform="translate(268.08948,230.19277) scale(0.5,0.5)" font-size="40" xml:space="preserve" fill="#000000" stroke-width="1" font-family="Sans Serif" font-weight="normal" text-anchor="start"><tspan x="0" dy="0">7</tspan></text><text transform="translate(314.97826,229.75862) scale(0.5,0.5)" font-size="40" xml:space="preserve" fill="#000000" stroke-width="1" font-family="Sans Serif" font-weight="normal" text-anchor="start"><tspan x="0" dy="0">8</tspan></text><text transform="translate(360.78167,230.84401) scale(0.5,0.5)" font-size="40" xml:space="preserve" fill="#000000" stroke-width="1" font-family="Sans Serif" font-weight="normal" text-anchor="start"><tspan x="0" dy="0">9</tspan></text><text transform="translate(268.99491,104.71501) scale(0.5,0.5)" font-size="40" xml:space="preserve" fill="#000000" stroke-width="1" font-family="Sans Serif" font-weight="normal" text-anchor="start"><tspan x="0" dy="0">555-954-91</tspan></text><text transform="translate(305.44555,81.91769) scale(0.19629,0.19629)" font-size="40" xml:space="preserve" fill="#ffffff" stroke-width="1" font-family="Sans Serif" font-weight="normal" text-anchor="start"><tspan x="0" dy="0">Calling</tspan></text></g></g></svg>