<svg version="1.1" xmlns="http://www.w3.org/2000/svg" xmlns:xlink="http://www.w3.org/1999/xlink" width="126.80582" height="38.36387" viewBox="0,0,126.80582,38.36387"><g transform="translate(-260.627,-63.40509)"><g data-paper-data="{&quot;isPaintingLayer&quot;:true}" fill-rule="nonzero" stroke-linejoin="miter" stroke-miterlimit="10" stroke-dasharray="" stroke-dashoffset="0" style="mix-blend-mode: normal"><path d="M261.07738,81.60134c0.65033,-5.53464 5.89115,-5.1296 10.02834,-4.48348c3.29152,1.00451 7.17835,3.15424 10.67563,2.06213c0,0 0.10247,-0.03153 0.22711,-0.01794l0.11416,-0.06101c1.10001,-0.3368 2.14547,-0.88605 3.11225,-1.50441c4.39024,-1.83334 8.63689,-4.29274 13.65248,-2.6238c1.60621,0.40614 3.53786,1.87087 5.80418,2.64378c1.95462,0.6666 4.37775,0.67222 4.46111,0.77003c0.88824,-0.01567 1.57281,-0.35057 2.37201,-0.74882c4.7858,-1.71308 8.16647,-3.35364 13.24034,-1.66631c3.88439,1.61564 6.64616,1.89486 10.6516,0.66143c0,0 0.20141,-0.06197 0.38295,0.0253c3.63925,-0.6924 5.64242,-1.75479 9.44676,-1.74666c2.14756,0.30367 5.39802,1.1996 7.65147,1.64502c1.13225,0.2238 2.36999,0.19993 2.36999,0.19993c1.62101,-0.02275 5.44017,-1.79998 6.97109,-1.84072c2.07468,-0.0552 2.47365,0.34935 4.32749,0.7765c2.00295,0.63993 3.84978,1.2548 5.86962,1.26051c0.07076,-0.06999 0.14076,-0.10499 0.14076,-0.10499c3.35359,-1.67468 7.39707,-3.2848 10.83889,-0.99808c3.27643,2.10923 4.60824,6.97736 3.28484,10.55007c-0.40896,0.08455 -0.81451,0.17966 -1.21407,0.28755c0.00396,-0.00789 0.00791,-0.01575 0.01182,-0.02359c1.56743,-3.13487 0.46953,-8.03227 -2.6284,-9.97614c-3.03499,-2.03091 -6.67984,-0.51828 -9.65344,0.95864c-0.10963,0.21643 -0.37331,0.26037 -0.37331,0.26037l-0.31905,0.04628c-2.09942,0 -4.85231,-1.20583 -6.93426,-1.35454c-1.66428,-0.38466 -3.96823,-0.50154 -6.02262,0.00532c-1.17054,0.2888 -3.31618,1.28342 -3.31618,1.28342c-3.18076,0.72357 -7.51484,-1.46384 -11.07552,-1.9781c-3.86372,0.00939 -5.87822,1.09166 -9.61094,1.81137c0,0 -0.11938,0.02273 -0.25164,-0.01306c-3.99993,1.15526 -6.95309,0.84767 -10.8985,-0.79935c-4.80018,-1.6037 -7.96889,0.03607 -12.49719,1.64956c-0.94619,0.47482 -1.77232,0.8268 -2.84105,0.82962l-0.34704,-0.0445c0,0 -0.08999,-0.01286 -0.18775,-0.06598c-3.35769,0.46277 -6.7615,-2.56062 -9.93355,-3.34377c-4.72058,-1.57634 -8.77949,0.83278 -12.90839,2.54925c-1.01494,0.65604 -3.67824,1.81461 -3.89463,1.73012c-3.65395,0.9579 -7.49574,-1.05569 -10.92268,-2.11981c-3.46077,-0.5229 -8.24757,-1.17575 -8.80639,3.56733c0.0026,1.95022 -0.81365,4.16073 -0.10239,5.99928c-0.34477,0.01335 -0.68904,0.03163 -1.03299,0.05639c-0.56375,-1.91121 0.13465,-4.12769 0.13708,-6.11414z" fill="#9e9215" stroke="none" stroke-width="0.5" stroke-linecap="butt"/><path d="" fill="#fffc51" stroke="none" stroke-width="0.5" stroke-linecap="butt"/><path d="M261.12699,81.2283c0.65033,-5.53464 5.89115,-5.1296 10.02834,-4.48348c3.29152,1.00451 7.17835,3.15424 10.67563,2.06213c0,0 0.10247,-0.03153 0.22711,-0.01794l0.11416,-0.06101c1.10001,-0.3368 2.14547,-0.88605 3.11225,-1.50441c4.39024,-1.83334 8.63689,-4.29274 13.65248,-2.6238c1.60621,0.40614 3.53786,1.87087 5.80418,2.64378c1.95462,0.6666 4.37775,0.67222 4.46111,0.77003c0.88824,-0.01567 1.57281,-0.35057 2.37201,-0.74882c4.7858,-1.71308 8.16647,-3.35364 13.24034,-1.66631c3.88439,1.61564 6.64616,1.89486 10.6516,0.66143c0,0 0.20141,-0.06197 0.38295,0.0253c3.63925,-0.6924 5.64242,-1.75479 9.44676,-1.74666c2.14756,0.30367 5.39802,1.1996 7.65147,1.64502c1.13225,0.2238 2.36999,0.19993 2.36999,0.19993c1.62101,-0.02275 5.44017,-1.79998 6.97109,-1.84072c2.07468,-0.0552 2.47365,0.34935 4.32749,0.7765c2.00295,0.63993 3.84978,1.2548 5.86962,1.26051c0.07076,-0.06999 0.14076,-0.10499 0.14076,-0.10499c3.35359,-1.67468 7.57354,-3.2848 11.01536,-0.99808c3.38663,2.18017 4.69562,7.30794 3.14228,10.906c-0.42471,0.08622 -0.84593,0.18365 -1.26079,0.29477c0.07231,-0.13473 0.13972,-0.26389 0.20111,-0.38673c1.56743,-3.13487 0.46953,-8.03227 -2.6284,-9.97614c-3.03499,-2.03091 -6.85631,-0.51828 -9.82991,0.95864c-0.10963,0.21643 -0.37331,0.26037 -0.37331,0.26037l-0.31905,0.04628c-2.09942,0 -4.85231,-1.20583 -6.93426,-1.35454c-1.66428,-0.38466 -3.96823,-0.50154 -6.02262,0.00532c-1.17054,0.2888 -3.31618,1.28342 -3.31618,1.28342c-3.18076,0.72357 -7.51484,-1.46384 -11.07552,-1.9781c-3.86372,0.00939 -5.87822,1.09166 -9.61094,1.81137c0,0 -0.11938,0.02273 -0.25164,-0.01306c-3.99993,1.15526 -6.95309,0.84767 -10.8985,-0.79935c-4.80018,-1.6037 -7.96889,0.03607 -12.49719,1.64956c-0.94619,0.47482 -1.77232,0.8268 -2.84105,0.82962l-0.34704,-0.0445c0,0 -0.08999,-0.01286 -0.18775,-0.06598c-3.35769,0.46277 -6.7615,-2.56062 -9.93355,-3.34377c-4.72058,-1.57634 -8.77949,0.83278 -12.90839,2.54925c-1.01494,0.65604 -3.67824,1.81461 -3.89463,1.73012c-3.65395,0.9579 -7.49574,-1.05569 -10.92268,-2.11981c-3.46077,-0.5229 -8.24757,-1.17575 -8.80639,3.56733c0.00278,2.08125 -0.92703,4.45894 0.06238,6.36464c-0.35859,0.01183 -0.71661,0.02863 -1.07425,0.05215c-0.77898,-1.98922 0.011,-4.36237 0.01358,-6.47526z" fill="#949014" stroke="none" stroke-width="0.5" stroke-linecap="butt"/><path d="M261.54053,81.57332l124.99159,0.04761l-0.07103,4.48668l-125.18187,0.14287z" fill="#000000" stroke="#000000" stroke-width="0.5" stroke-linecap="round"/><path d="M260.98388,81.44236c0.65033,-5.53464 5.89115,-5.1296 10.02834,-4.48348c3.29152,1.00451 7.17835,3.15424 10.67563,2.06213c0,0 0.10247,-0.03153 0.22711,-0.01794l0.11416,-0.06101c1.10001,-0.3368 2.14547,-0.88605 3.11225,-1.50441c4.39024,-1.83334 8.63689,-4.29274 13.65248,-2.6238c1.60621,0.40614 3.53786,1.87087 5.80418,2.64378c1.95462,0.6666 4.37775,0.67222 4.46111,0.77003c0.88824,-0.01567 1.57281,-0.35057 2.37201,-0.74882c4.7858,-1.71308 8.16647,-3.35364 13.24034,-1.66631c3.88439,1.61564 6.64616,1.89486 10.6516,0.66143c0,0 0.20141,-0.06197 0.38295,0.0253c3.63925,-0.6924 5.64242,-1.75479 9.44676,-1.74666c2.14756,0.30367 5.39802,1.1996 7.65147,1.64502c1.13225,0.2238 2.36999,0.19993 2.36999,0.19993c1.62101,-0.02275 5.44017,-1.79998 6.97109,-1.84072c2.07468,-0.0552 2.47365,0.34935 4.32749,0.7765c2.00295,0.63993 3.84978,1.2548 5.86962,1.26051c0.07076,-0.06999 0.14076,-0.10499 0.14076,-0.10499c3.35359,-1.67468 7.57354,-3.2848 11.01536,-0.99808c3.32377,2.1397 4.64632,7.11862 3.22581,10.70411c-0.41643,0.08564 -0.82937,0.18219 -1.23611,0.29198c0.03228,-0.0621 0.06329,-0.12281 0.09289,-0.18206c1.56743,-3.13487 0.46953,-8.03227 -2.6284,-9.97614c-3.03499,-2.03091 -6.85631,-0.51828 -9.82991,0.95864c-0.10963,0.21643 -0.37331,0.26037 -0.37331,0.26037l-0.31905,0.04628c-2.09942,0 -4.85231,-1.20583 -6.93426,-1.35454c-1.66428,-0.38466 -3.96823,-0.50154 -6.02262,0.00532c-1.17054,0.2888 -3.31618,1.28342 -3.31618,1.28342c-3.18076,0.72357 -7.51484,-1.46384 -11.07552,-1.9781c-3.86372,0.00939 -5.87822,1.09166 -9.61094,1.81137c0,0 -0.11938,0.02273 -0.25164,-0.01306c-3.99993,1.15526 -6.95309,0.84767 -10.8985,-0.79935c-4.80018,-1.6037 -7.96889,0.03607 -12.49719,1.64956c-0.94619,0.47482 -1.77232,0.8268 -2.84105,0.82962l-0.34704,-0.0445c0,0 -0.08999,-0.01286 -0.18775,-0.06598c-3.35769,0.46277 -6.7615,-2.56062 -9.93355,-3.34377c-4.72058,-1.57634 -8.77949,0.83278 -12.90839,2.54925c-1.01494,0.65604 -3.67824,1.81461 -3.89463,1.73012c-3.65395,0.9579 -7.49574,-1.05569 -10.92268,-2.11981c-3.46077,-0.5229 -8.24757,-1.17575 -8.80639,3.56733c0.00268,2.00715 -0.862,4.29001 -0.03613,6.15933c-0.34982,0.01381 -0.69913,0.03274 -1.04812,0.05841c-0.6551,-1.94721 0.08346,-4.23335 0.08596,-6.2762z" fill="#949014" stroke="none" stroke-width="0.5" stroke-linecap="butt"/><path d="M342.81815,82.64508c0,10.28568 -8.29512,18.62388 -18.52767,18.62388c-10.23255,0 -18.52767,-8.33819 -18.52767,-18.62388c0,-10.28568 8.29512,-18.62387 18.52767,-18.62387c10.23255,0 18.52767,8.33819 18.52767,18.62387z" fill="#34d3f0" stroke="#2b75d8" stroke-width="1" stroke-linecap="butt"/><path d="M323.37957,83.25466l-11.79265,-14.28335c0,0 3.14541,-2.4883 4.88043,-3.28878c0.88515,-0.40837 3.44716,-1.30862 4.70125,-1.54532c1.40382,-0.26496 4.59328,-0.23139 4.59328,-0.23139z" fill-opacity="0.9098" fill="#78fff6" stroke="#ffffff" stroke-width="1" stroke-linecap="round"/><path d="M326.77143,83.68589l13.49398,-10.31921c0,0 0.87352,1.5048 1.11527,2.28498c0.29986,0.96773 0.91441,3.37279 0.91441,3.37279z" fill-opacity="0.9098" fill="#78fff6" stroke="#ffffff" stroke-width="1" stroke-linecap="round"/><path d="M322.90075,100.92965c0,0 -0.62998,0.16222 -1.44832,0.06542c-0.78857,-0.09328 -1.75205,-0.44286 -2.49526,-0.58765c-1.10091,-0.21447 -3.98118,-1.5981 -3.98118,-1.5981l7.08623,-12.4383c0,0 2.05272,0.69764 2.08648,1.10558c0.14134,1.70788 -1.24794,13.45305 -1.24794,13.45305z" fill-opacity="0.9098" fill="#78fff6" stroke="#ffffff" stroke-width="1" stroke-linecap="round"/><path d="M328.09455,83.73572c0,2.01522 -1.53641,3.64887 -3.43168,3.64887c-1.89527,0 -3.43168,-1.63365 -3.43168,-3.64887c0,-2.01522 1.53641,-3.64887 3.43168,-3.64887c1.89527,0 3.43168,1.63365 3.43168,3.64887z" fill="#0db4d9" stroke="#ffffff" stroke-width="1" stroke-linecap="butt"/><path d="M342.70202,82.52895c0,10.28568 -8.29511,18.62388 -18.52767,18.62388c-10.23256,0 -18.52767,-8.33819 -18.52767,-18.62387c0,-10.28568 8.29512,-18.62387 18.52768,-18.62387c10.23256,0 18.52767,8.33819 18.52767,18.62387z" fill="none" stroke="#2b75d8" stroke-width="1" stroke-linecap="butt"/></g></g></svg>