<svg version="1.1" xmlns="http://www.w3.org/2000/svg" xmlns:xlink="http://www.w3.org/1999/xlink" width="143.53154" height="43.97805" viewBox="0,0,143.53154,43.97805"><g transform="translate(-253.08553,-223.83604)"><g data-paper-data="{&quot;isPaintingLayer&quot;:true}" fill-rule="nonzero" stroke-linejoin="miter" stroke-miterlimit="10" stroke-dasharray="" stroke-dashoffset="0" style="mix-blend-mode: normal"><path d="" data-paper-data="{&quot;noHover&quot;:false,&quot;origItem&quot;:[&quot;Path&quot;,{&quot;applyMatrix&quot;:true,&quot;segments&quot;:[[[221.33019,611.96032],[0,0],[1.18796,10.06976]],[[221.36313,643.0381],[0,-10.14116],[-0.01082,0.80922]],[[222.37905,649.44242],[-0.56482,-0.07888],[5.94232,0.82974]],[[237.63571,645.59822],[-5.346,1.24482],[7.56656,-1.7619]],[[260.99541,644.82514],[-7.30032,1.89456],[4.3596,-1.1314]],[[272.87549,643.28868],[-4.61756,0],[24.25608,0]],[[345.64369,643.28868],[-24.25608,0],[23.68548,0]],[[415.76687,650.04322],[-23.68518,-0.01642],[24.93328,2.65318]],[[491.68123,650.79056],[-25.0784,0],[7.84098,0]],[[513.72735,647.84332],[-7.36778,1.58762],[4.31242,-0.92924]],[[528.18835,647.78982],[-4.37994,0],[8.21388,0]],[[554.11037,647.94956],[-8.31786,-1.25608],[0,0]],[[553.75807,647.47264],[0,0],[-3.64264,-8.9295]],[[542.62191,621.33624],[2.6925,9.41838],[0,0]],[[542.56007,620.50168],[-0.0443,0.46308],[-0.1097,-0.35806]],[542.45035,619.85488],[[542.59341,619.75484],[0,0],[-1.77544,-4.49932]],[[539.13807,606.00906],[1.5284,4.46762],[-1.57736,-9.47816]],[[534.49709,578.17342],[2.16912,9.28794],[-1.10928,-4.74978]],[[529.36527,563.32176],[3.07118,3.97394],[0,0]],[[529.76527,560.52176],[-1.6,1.2],[0.01434,-0.01076]],[[529.80819,560.49016],[-0.01428,0.0103],[0.00188,-5.27972]],[[528.97029,544.70482],[-0.0112,5.32368],[-2.1504,-15.0527]],[[523.48693,499.47222],[0,15.39796],[0,0]],[[523.51493,499.17968],[-0.028,0.17636],[-0.15884,-0.19934]],[523.27667,498.82148],[[522.67131,497.41302],[0,0],[-0.92562,-5.5573]],[[520.57315,480.60606],[0.96248,5.50956],[-0.46928,-2.68624]],[[518.85143,473.4853],[0.0365,2.9397],[0,-14.52902]],[[519.69329,430.11106],[-0.03184,14.52712],[0,0]],[[519.27285,428.95634],[0,0],[0,-9.2368]],[[518.85827,401.30828],[-0.0265,9.18612],[-1.61258,-9.5129]],[[518.01837,372.68454],[0.86174,9.55806],[-0.44782,-4.96704]],[[515.51167,357.93596],[0.26216,4.96814],[0,0]],[[515.48019,357.8786],[0,0],[0.01976,-7.71342]],[[512.54005,334.89814],[1.48228,7.57258],[-0.01242,-9.1038]],[[508.32305,307.4744],[0.83256,9.1176],[-0.55138,-6.03826]],[[509.15327,289.59048],[-0.09852,5.94608],[0,0]],[[507.71657,287.75662],[0,0],[-2.98888,-8.91986]],[[498.83211,261.14078],[4.23272,8.6159],[-1.09152,-2.22188]],[[496.43565,255.04688],[1.52644,1.908],[-4.8944,-8.1382]],[[478.43733,239.57704],[7.71112,5.17192],[-4.29644,-2.88168]],[[465.67029,231.31364],[4.82126,2.19022],[-3.04232,-1.38209]],[[454.91642,226.43968],[3.65797,1.02479],[-7.70686,8.1729]],[[446.76641,259.57135],[1.99884,-10.65051],[0.23136,0.48694]],[446.99777,260.53312],[[446.99777,261.79734],[0,0],[0,8.20738]],[[451.95003,285.6006],[-3.24678,-7.50312],[1.50468,5.9756]],[[458.62347,300.173],[-2.44922,-5.26098],[2.68528,5.76808]],[[465.73275,318.60222],[-2.84728,-5.87724],[1.7803,3.67484]],[[474.70509,325.41452],[-2.9172,-2.2298],[0.99196,0.75824]],[[477.31917,328.0972],[-0.02184,-1.24838],[0.02664,1.523]],[[474.81887,331.92222],[0.83344,-1.275],[-14.04556,-1.20128]],[[432.70209,318.03136],[11.5827,8.03308],[0,0]],[[431.59873,317.75916],[0,0],[-9.92948,-7.45294]],[[402.28937,293.02182],[10.66306,6.29984],[-10.6143,-6.07522]],[[386.13435,262.78192],[0.97348,11.67922],[-0.39118,-4.69316]],[[385.70791,248.73362],[-0.02366,4.72596],[0.00172,-0.34318]],[[385.68947,247.38052],[-0.00106,0.50614],[-11.34958,7.02846]],[[354.42029,272.1936],[10.29542,-8.4106],[-5.94694,4.85822]],[[335.32497,285.77802],[6.27764,-4.4837],[-6.36068,4.2389]],[[314.84215,297.87798],[7.63564,-1.78408],[-5.64176,1.31822]],[[297.10485,297.51008],[5.78226,0],[-5.31998,0]],[[281.44501,295.18376],[4.71328,2.74608],[-6.09492,-2.6052]],[[263.76187,286.7637],[5.90316,2.97586],[-1.73494,-0.8746]],[[256.37617,283.72538],[1.1854,1.45742],[-1.77252,-2.17926]],[[257.08689,275.02426],[-1.40602,2.05674],[3.62346,-5.30046]],[[273.65417,266.03734],[-4.84858,3.69358],[4.42616,-2.65838]],[[286.22761,256.81298],[-3.24804,4.11838],[2.63124,-3.33628]],[[290.15057,240.51646],[1.32478,4.2424],[-1.05118,-3.36626]],[[280.91155,233.37344],[3.8945,1.39282],[1.0271,1.07764]],[[281.04235,235.79552],[0,0],[-6.38706,9.32508]],[[256.88315,259.25234],[7.28458,-8.61874],[-3.07222,3.63488]],[[250.28465,271.80452],[2.66882,-4.0151],[-2.95752,4.3673]],[[245.28343,285.52826],[1.54184,-4.70384],[-3.76512,11.48654]],[[237.78761,321.51686],[3.00796,-12.03186],[-5.78958,16.72838]],[[233.36625,374.9712],[0,-17.5994],[0,20.25506]],[[233.36625,435.7364],[0,-20.25506],[0,5.9887]],[[234.08407,453.4217],[-0.14384,-5.9486],[0.03238,0.19122]],[234.11645,453.7409],[[234.11645,458.24204],[0,0],[0,0.60852]],[[233.41589,459.76244],[0.42878,-0.36682],[0.1766,6.43228]],[[233.35655,479.1943],[0.78274,-6.24032],[-0.67576,5.38742]],[[228.76251,493.88324],[1.85264,-4.6309],[-0.73542,1.83828]],[[228.09997,501.74722],[0.53112,-2.1245],[-0.04642,1.69442]],[[226.52877,506.58354],[0.49122,-1.62232],[-2.04146,6.74218]],[[225.83857,528.82996],[1.15166,-7.02178],[-1.60248,9.77046]],[[220.60335,557.96398],[1.97636,-9.75194],[0,5.4645]],[[218.33669,573.84122],[0.91122,-5.25924],[-0.74118,4.27784]],[[218.33565,587.66186],[-0.13878,-4.50386],[1.16104,0.78548]],[219.01005,589.90724],[[218.40807,591.71318],[0,0],[0.3106,6.76616]],[[221.33031,611.96044],[-0.79476,-6.7368],[0,0]]],&quot;closed&quot;:true}]}" fill="#52402d" stroke="none" stroke-width="0.5" stroke-linecap="butt"/><path d="" data-paper-data="{&quot;noHover&quot;:false,&quot;origItem&quot;:[&quot;Path&quot;,{&quot;applyMatrix&quot;:true,&quot;segments&quot;:[[[221.33019,611.96032],[0,0],[1.18796,10.06976]],[[221.36313,643.0381],[0,-10.14116],[-0.01082,0.80922]],[[222.37905,649.44242],[-0.56482,-0.07888],[5.94232,0.82974]],[[237.63571,645.59822],[-5.346,1.24482],[7.56656,-1.7619]],[[260.99541,644.82514],[-7.30032,1.89456],[4.3596,-1.1314]],[[272.87549,643.28868],[-4.61756,0],[24.25608,0]],[[345.64369,643.28868],[-24.25608,0],[23.68548,0]],[[415.76687,650.04322],[-23.68518,-0.01642],[24.93328,2.65318]],[[491.68123,650.79056],[-25.0784,0],[7.84098,0]],[[513.72735,647.84332],[-7.36778,1.58762],[4.31242,-0.92924]],[[528.18835,647.78982],[-4.37994,0],[8.21388,0]],[[554.11037,647.94956],[-8.31786,-1.25608],[0,0]],[[553.75807,647.47264],[0,0],[-3.64264,-8.9295]],[[542.62191,621.33624],[2.6925,9.41838],[0,0]],[[542.56007,620.50168],[-0.0443,0.46308],[-0.1097,-0.35806]],[542.45035,619.85488],[[542.59341,619.75484],[0,0],[-1.77544,-4.49932]],[[539.13807,606.00906],[1.5284,4.46762],[-1.57736,-9.47816]],[[534.49709,578.17342],[2.16912,9.28794],[-1.10928,-4.74978]],[[529.36527,563.32176],[3.07118,3.97394],[0,0]],[[529.76527,560.52176],[-1.6,1.2],[0.01434,-0.01076]],[[529.80819,560.49016],[-0.01428,0.0103],[0.00188,-5.27972]],[[528.97029,544.70482],[-0.0112,5.32368],[-2.1504,-15.0527]],[[523.48693,499.47222],[0,15.39796],[0,0]],[[523.51493,499.17968],[-0.028,0.17636],[-0.15884,-0.19934]],[523.27667,498.82148],[[522.67131,497.41302],[0,0],[-0.92562,-5.5573]],[[520.57315,480.60606],[0.96248,5.50956],[-0.46928,-2.68624]],[[518.85143,473.4853],[0.0365,2.9397],[0,-14.52902]],[[519.69329,430.11106],[-0.03184,14.52712],[0,0]],[[519.27285,428.95634],[0,0],[0,-9.2368]],[[518.85827,401.30828],[-0.0265,9.18612],[-1.61258,-9.5129]],[[518.01837,372.68454],[0.86174,9.55806],[-0.44782,-4.96704]],[[515.51167,357.93596],[0.26216,4.96814],[0,0]],[[515.48019,357.8786],[0,0],[0.01976,-7.71342]],[[512.54005,334.89814],[1.48228,7.57258],[-0.01242,-9.1038]],[[508.32305,307.4744],[0.83256,9.1176],[-0.55138,-6.03826]],[[509.15327,289.59048],[-0.09852,5.94608],[0,0]],[[507.71657,287.75662],[0,0],[-2.98888,-8.91986]],[[498.83211,261.14078],[4.23272,8.6159],[-1.09152,-2.22188]],[[496.43565,255.04688],[1.52644,1.908],[-4.8944,-8.1382]],[[478.43733,239.57704],[7.71112,5.17192],[-4.29644,-2.88168]],[[465.67029,231.31364],[4.82126,2.19022],[-3.04232,-1.38209]],[[454.91642,226.43968],[3.65797,1.02479],[-7.70686,8.1729]],[[446.76641,259.57135],[1.99884,-10.65051],[0.23136,0.48694]],[446.99777,260.53312],[[446.99777,261.79734],[0,0],[0,8.20738]],[[451.95003,285.6006],[-3.24678,-7.50312],[1.50468,5.9756]],[[458.62347,300.173],[-2.44922,-5.26098],[2.68528,5.76808]],[[465.73275,318.60222],[-2.84728,-5.87724],[1.7803,3.67484]],[[474.70509,325.41452],[-2.9172,-2.2298],[0.99196,0.75824]],[[477.31917,328.0972],[-0.02184,-1.24838],[0.02664,1.523]],[[474.81887,331.92222],[0.83344,-1.275],[-14.04556,-1.20128]],[[432.70209,318.03136],[11.5827,8.03308],[0,0]],[[431.59873,317.75916],[0,0],[-9.92948,-7.45294]],[[402.28937,293.02182],[10.66306,6.29984],[-10.6143,-6.07522]],[[386.13435,262.78192],[0.97348,11.67922],[-0.39118,-4.69316]],[[385.70791,248.73362],[-0.02366,4.72596],[0.00172,-0.34318]],[[385.68947,247.38052],[-0.00106,0.50614],[-11.34958,7.02846]],[[354.42029,272.1936],[10.29542,-8.4106],[-5.94694,4.85822]],[[335.32497,285.77802],[6.27764,-4.4837],[-6.36068,4.2389]],[[314.84215,297.87798],[7.63564,-1.78408],[-5.64176,1.31822]],[[297.10485,297.51008],[5.78226,0],[-5.31998,0]],[[281.44501,295.18376],[4.71328,2.74608],[-6.09492,-2.6052]],[[263.76187,286.7637],[5.90316,2.97586],[-1.73494,-0.8746]],[[256.37617,283.72538],[1.1854,1.45742],[-1.77252,-2.17926]],[[257.08689,275.02426],[-1.40602,2.05674],[3.62346,-5.30046]],[[273.65417,266.03734],[-4.84858,3.69358],[4.42616,-2.65838]],[[286.22761,256.81298],[-3.24804,4.11838],[2.63124,-3.33628]],[[290.15057,240.51646],[1.32478,4.2424],[-1.05118,-3.36626]],[[280.91155,233.37344],[3.8945,1.39282],[1.0271,1.07764]],[[281.04235,235.79552],[0,0],[-6.38706,9.32508]],[[256.88315,259.25234],[7.28458,-8.61874],[-3.07222,3.63488]],[[250.28465,271.80452],[2.66882,-4.0151],[-2.95752,4.3673]],[[245.28343,285.52826],[1.54184,-4.70384],[-3.76512,11.48654]],[[237.78761,321.51686],[3.00796,-12.03186],[-5.78958,16.72838]],[[233.36625,374.9712],[0,-17.5994],[0,20.25506]],[[233.36625,435.7364],[0,-20.25506],[0,5.9887]],[[234.08407,453.4217],[-0.14384,-5.9486],[0.03238,0.19122]],[234.11645,453.7409],[[234.11645,458.24204],[0,0],[0,0.60852]],[[233.41589,459.76244],[0.42878,-0.36682],[0.1766,6.43228]],[[233.35655,479.1943],[0.78274,-6.24032],[-0.67576,5.38742]],[[228.76251,493.88324],[1.85264,-4.6309],[-0.73542,1.83828]],[[228.09997,501.74722],[0.53112,-2.1245],[-0.04642,1.69442]],[[226.52877,506.58354],[0.49122,-1.62232],[-2.04146,6.74218]],[[225.83857,528.82996],[1.15166,-7.02178],[-1.60248,9.77046]],[[220.60335,557.96398],[1.97636,-9.75194],[0,5.4645]],[[218.33669,573.84122],[0.91122,-5.25924],[-0.74118,4.27784]],[[218.33565,587.66186],[-0.13878,-4.50386],[1.16104,0.78548]],[219.01005,589.90724],[[218.40807,591.71318],[0,0],[0.3106,6.76616]],[[221.33031,611.96044],[-0.79476,-6.7368],[0,0]]],&quot;closed&quot;:true}]}" fill="#52402d" stroke="none" stroke-width="0.5" stroke-linecap="butt"/><path d="" fill="#000000" stroke="none" stroke-width="0.5" stroke-linecap="butt"/><path d="" data-paper-data="{&quot;noHover&quot;:false,&quot;origItem&quot;:[&quot;Path&quot;,{&quot;applyMatrix&quot;:true,&quot;segments&quot;:[[[583.25139,495.65874],[0,1],[0,-1]],[584.25139,494.65874],[[584.85269,494.65874],[0,0],[-4.84073,-2.95068]],[[574.08601,482.88011],[3.25773,4.74252],[-1.56105,-2.68651]],[[569.46039,484.48145],[1.08387,-1.6197],[3.21102,3.26736]],[[579.00685,494.67021],[-3.14521,-3.67254],[1.51706,1.77141]],[[583.91806,500.65874],[-2.06109,-0.8516],[0.97275,-0.37736]],[[586.18396,496.55072],[-0.10473,1.54633],[-0.32045,0.05949]],[[585.25139,496.65874],[0.30079,-0.01173],[0,0]],[584.25139,496.65874]],&quot;closed&quot;:true}],&quot;index&quot;:null}" fill="#744824" stroke="none" stroke-width="0.5" stroke-linecap="butt"/><path d="" data-paper-data="{&quot;index&quot;:null}" fill="#9966ff" stroke="none" stroke-width="0.5" stroke-linecap="butt"/><path d="" data-paper-data="{&quot;index&quot;:null}" fill="#ff0000" stroke="#000000" stroke-width="0.5" stroke-linecap="butt"/><path d="" data-paper-data="{&quot;noHover&quot;:false,&quot;origItem&quot;:[&quot;Path&quot;,{&quot;applyMatrix&quot;:true,&quot;segments&quot;:[[[535.12936,417.74145],[-5.02125,-0.00391],[0.96679,-0.10681]],[[541.48204,417.51231],[-0.30659,0.39793],[0.74755,-0.97026]],[[541.01796,410.80199],[0.54306,-0.04458],[-1.79076,-0.18637]],[[535.49104,410.53876],[1.79136,-0.41053],[0,0]],[535.21543,410.55066],[[534.97952,410.49495],[0.12013,0.05571],[-3.56273,0]],[[523.73824,410.49495],[3.56138,0],[-4.60362,0]],[[520.13041,417.03337],[-0.3822,-4.15558],[5.07196,-0.31925]]],&quot;closed&quot;:true}],&quot;index&quot;:null}" fill="#ff0000" stroke="none" stroke-width="0.5" stroke-linecap="butt"/><path d="" data-paper-data="{&quot;index&quot;:null}" fill="#020204" stroke="none" stroke-width="0.5" stroke-linecap="butt"/><path d="" data-paper-data="{&quot;index&quot;:null}" fill="#020204" stroke="none" stroke-width="0.5" stroke-linecap="butt"/><path d="" data-paper-data="{&quot;index&quot;:null}" fill="#000000" stroke="none" stroke-width="0.5" stroke-linecap="butt"/><path d="" data-paper-data="{&quot;index&quot;:null}" fill="none" stroke="#000000" stroke-width="0.5" stroke-linecap="round"/><path d="" data-paper-data="{&quot;index&quot;:null}" fill="#ffffff" stroke="none" stroke-width="0.5" stroke-linecap="butt"/><path d="" data-paper-data="{&quot;index&quot;:null}" fill="#ffffff" stroke="none" stroke-width="0.5" stroke-linecap="butt"/><path d="" data-paper-data="{&quot;index&quot;:null}" fill="#ffffff" stroke="none" stroke-width="0.5" stroke-linecap="butt"/><path d="" data-paper-data="{&quot;index&quot;:null}" fill="#ffffff" stroke="none" stroke-width="0.5" stroke-linecap="butt"/><path d="" data-paper-data="{&quot;noHover&quot;:false,&quot;origItem&quot;:[&quot;Path&quot;,{&quot;applyMatrix&quot;:true,&quot;segments&quot;:[[[221.33019,611.96032],[0,0],[1.18796,10.06976]],[[221.36313,643.0381],[0,-10.14116],[-0.01082,0.80922]],[[222.37905,649.44242],[-0.56482,-0.07888],[5.94232,0.82974]],[[237.63571,645.59822],[-5.346,1.24482],[7.56656,-1.7619]],[[260.99541,644.82514],[-7.30032,1.89456],[4.3596,-1.1314]],[[272.87549,643.28868],[-4.61756,0],[24.25608,0]],[[345.64369,643.28868],[-24.25608,0],[23.68548,0]],[[415.76687,650.04322],[-23.68518,-0.01642],[24.93328,2.65318]],[[491.68123,650.79056],[-25.0784,0],[7.84098,0]],[[513.72735,647.84332],[-7.36778,1.58762],[4.31242,-0.92924]],[[528.18835,647.78982],[-4.37994,0],[8.21388,0]],[[554.11037,647.94956],[-8.31786,-1.25608],[0,0]],[[553.75807,647.47264],[0,0],[-3.64264,-8.9295]],[[542.62191,621.33624],[2.6925,9.41838],[0,0]],[[542.56007,620.50168],[-0.0443,0.46308],[-0.1097,-0.35806]],[542.45035,619.85488],[[542.59341,619.75484],[0,0],[-1.77544,-4.49932]],[[539.13807,606.00906],[1.5284,4.46762],[-1.57736,-9.47816]],[[534.49709,578.17342],[2.16912,9.28794],[-1.10928,-4.74978]],[[529.36527,563.32176],[3.07118,3.97394],[0,0]],[[529.76527,560.52176],[-1.6,1.2],[0.01434,-0.01076]],[[529.80819,560.49016],[-0.01428,0.0103],[0.00188,-5.27972]],[[528.97029,544.70482],[-0.0112,5.32368],[-2.1504,-15.0527]],[[523.48693,499.47222],[0,15.39796],[0,0]],[[523.51493,499.17968],[-0.028,0.17636],[-0.15884,-0.19934]],[523.27667,498.82148],[[522.67131,497.41302],[0,0],[-0.92562,-5.5573]],[[520.57315,480.60606],[0.96248,5.50956],[-0.46928,-2.68624]],[[518.85143,473.4853],[0.0365,2.9397],[0,-14.52902]],[[519.69329,430.11106],[-0.03184,14.52712],[0,0]],[[519.27285,428.95634],[0,0],[0,-9.2368]],[[518.85827,401.30828],[-0.0265,9.18612],[-1.61258,-9.5129]],[[518.01837,372.68454],[0.86174,9.55806],[-0.44782,-4.96704]],[[515.51167,357.93596],[0.26216,4.96814],[0,0]],[[515.48019,357.8786],[0,0],[0.01976,-7.71342]],[[512.54005,334.89814],[1.48228,7.57258],[-0.01242,-9.1038]],[[508.32305,307.4744],[0.83256,9.1176],[-0.55138,-6.03826]],[[509.15327,289.59048],[-0.09852,5.94608],[0,0]],[[507.71657,287.75662],[0,0],[-2.98888,-8.91986]],[[498.83211,261.14078],[4.23272,8.6159],[-1.09152,-2.22188]],[[496.43565,255.04688],[1.52644,1.908],[-4.8944,-8.1382]],[[478.43733,239.57704],[7.71112,5.17192],[-4.29644,-2.88168]],[[465.67029,231.31364],[4.82126,2.19022],[-3.04232,-1.38209]],[[454.91642,226.43968],[3.65797,1.02479],[-7.70686,8.1729]],[[446.76641,259.57135],[1.99884,-10.65051],[0.23136,0.48694]],[446.99777,260.53312],[[446.99777,261.79734],[0,0],[0,8.20738]],[[451.95003,285.6006],[-3.24678,-7.50312],[1.50468,5.9756]],[[458.62347,300.173],[-2.44922,-5.26098],[2.68528,5.76808]],[[465.73275,318.60222],[-2.84728,-5.87724],[1.7803,3.67484]],[[474.70509,325.41452],[-2.9172,-2.2298],[0.99196,0.75824]],[[477.31917,328.0972],[-0.02184,-1.24838],[0.02664,1.523]],[[474.81887,331.92222],[0.83344,-1.275],[-14.04556,-1.20128]],[[432.70209,318.03136],[11.5827,8.03308],[0,0]],[[431.59873,317.75916],[0,0],[-9.92948,-7.45294]],[[402.28937,293.02182],[10.66306,6.29984],[-10.6143,-6.07522]],[[386.13435,262.78192],[0.97348,11.67922],[-0.39118,-4.69316]],[[385.70791,248.73362],[-0.02366,4.72596],[0.00172,-0.34318]],[[385.68947,247.38052],[-0.00106,0.50614],[-11.34958,7.02846]],[[354.42029,272.1936],[10.29542,-8.4106],[-5.94694,4.85822]],[[335.32497,285.77802],[6.27764,-4.4837],[-6.36068,4.2389]],[[314.84215,297.87798],[7.63564,-1.78408],[-5.64176,1.31822]],[[297.10485,297.51008],[5.78226,0],[-5.31998,0]],[[281.44501,295.18376],[4.71328,2.74608],[-6.09492,-2.6052]],[[263.76187,286.7637],[5.90316,2.97586],[-1.73494,-0.8746]],[[256.37617,283.72538],[1.1854,1.45742],[-1.77252,-2.17926]],[[257.08689,275.02426],[-1.40602,2.05674],[3.62346,-5.30046]],[[273.65417,266.03734],[-4.84858,3.69358],[4.42616,-2.65838]],[[286.22761,256.81298],[-3.24804,4.11838],[2.63124,-3.33628]],[[290.15057,240.51646],[1.32478,4.2424],[-1.05118,-3.36626]],[[280.91155,233.37344],[3.8945,1.39282],[1.0271,1.07764]],[[281.04235,235.79552],[0,0],[-6.38706,9.32508]],[[256.88315,259.25234],[7.28458,-8.61874],[-3.07222,3.63488]],[[250.28465,271.80452],[2.66882,-4.0151],[-2.95752,4.3673]],[[245.28343,285.52826],[1.54184,-4.70384],[-3.76512,11.48654]],[[237.78761,321.51686],[3.00796,-12.03186],[-5.78958,16.72838]],[[233.36625,374.9712],[0,-17.5994],[0,20.25506]],[[233.36625,435.7364],[0,-20.25506],[0,5.9887]],[[234.08407,453.4217],[-0.14384,-5.9486],[0.03238,0.19122]],[234.11645,453.7409],[[234.11645,458.24204],[0,0],[0,0.60852]],[[233.41589,459.76244],[0.42878,-0.36682],[0.1766,6.43228]],[[233.35655,479.1943],[0.78274,-6.24032],[-0.67576,5.38742]],[[228.76251,493.88324],[1.85264,-4.6309],[-0.73542,1.83828]],[[228.09997,501.74722],[0.53112,-2.1245],[-0.04642,1.69442]],[[226.52877,506.58354],[0.49122,-1.62232],[-2.04146,6.74218]],[[225.83857,528.82996],[1.15166,-7.02178],[-1.60248,9.77046]],[[220.60335,557.96398],[1.97636,-9.75194],[0,5.4645]],[[218.33669,573.84122],[0.91122,-5.25924],[-0.74118,4.27784]],[[218.33565,587.66186],[-0.13878,-4.50386],[1.16104,0.78548]],[219.01005,589.90724],[[218.40807,591.71318],[0,0],[0.3106,6.76616]],[[221.33031,611.96044],[-0.79476,-6.7368],[0,0]]],&quot;closed&quot;:true}]}" fill="#52402d" stroke="none" stroke-width="0.5" stroke-linecap="butt"/><path d="" data-paper-data="{&quot;noHover&quot;:false,&quot;origItem&quot;:[&quot;Path&quot;,{&quot;applyMatrix&quot;:true,&quot;segments&quot;:[[[221.33019,611.96032],[0,0],[1.18796,10.06976]],[[221.36313,643.0381],[0,-10.14116],[-0.01082,0.80922]],[[222.37905,649.44242],[-0.56482,-0.07888],[5.94232,0.82974]],[[237.63571,645.59822],[-5.346,1.24482],[7.56656,-1.7619]],[[260.99541,644.82514],[-7.30032,1.89456],[4.3596,-1.1314]],[[272.87549,643.28868],[-4.61756,0],[24.25608,0]],[[345.64369,643.28868],[-24.25608,0],[23.68548,0]],[[415.76687,650.04322],[-23.68518,-0.01642],[24.93328,2.65318]],[[491.68123,650.79056],[-25.0784,0],[7.84098,0]],[[513.72735,647.84332],[-7.36778,1.58762],[4.31242,-0.92924]],[[528.18835,647.78982],[-4.37994,0],[8.21388,0]],[[554.11037,647.94956],[-8.31786,-1.25608],[0,0]],[[553.75807,647.47264],[0,0],[-3.64264,-8.9295]],[[542.62191,621.33624],[2.6925,9.41838],[0,0]],[[542.56007,620.50168],[-0.0443,0.46308],[-0.1097,-0.35806]],[542.45035,619.85488],[[542.59341,619.75484],[0,0],[-1.77544,-4.49932]],[[539.13807,606.00906],[1.5284,4.46762],[-1.57736,-9.47816]],[[534.49709,578.17342],[2.16912,9.28794],[-1.10928,-4.74978]],[[529.36527,563.32176],[3.07118,3.97394],[0,0]],[[529.76527,560.52176],[-1.6,1.2],[0.01434,-0.01076]],[[529.80819,560.49016],[-0.01428,0.0103],[0.00188,-5.27972]],[[528.97029,544.70482],[-0.0112,5.32368],[-2.1504,-15.0527]],[[523.48693,499.47222],[0,15.39796],[0,0]],[[523.51493,499.17968],[-0.028,0.17636],[-0.15884,-0.19934]],[523.27667,498.82148],[[522.67131,497.41302],[0,0],[-0.92562,-5.5573]],[[520.57315,480.60606],[0.96248,5.50956],[-0.46928,-2.68624]],[[518.85143,473.4853],[0.0365,2.9397],[0,-14.52902]],[[519.69329,430.11106],[-0.03184,14.52712],[0,0]],[[519.27285,428.95634],[0,0],[0,-9.2368]],[[518.85827,401.30828],[-0.0265,9.18612],[-1.61258,-9.5129]],[[518.01837,372.68454],[0.86174,9.55806],[-0.44782,-4.96704]],[[515.51167,357.93596],[0.26216,4.96814],[0,0]],[[515.48019,357.8786],[0,0],[0.01976,-7.71342]],[[512.54005,334.89814],[1.48228,7.57258],[-0.01242,-9.1038]],[[508.32305,307.4744],[0.83256,9.1176],[-0.55138,-6.03826]],[[509.15327,289.59048],[-0.09852,5.94608],[0,0]],[[507.71657,287.75662],[0,0],[-2.98888,-8.91986]],[[498.83211,261.14078],[4.23272,8.6159],[-1.09152,-2.22188]],[[496.43565,255.04688],[1.52644,1.908],[-4.8944,-8.1382]],[[478.43733,239.57704],[7.71112,5.17192],[-4.29644,-2.88168]],[[465.67029,231.31364],[4.82126,2.19022],[-3.04232,-1.38209]],[[454.91642,226.43968],[3.65797,1.02479],[-7.70686,8.1729]],[[446.76641,259.57135],[1.99884,-10.65051],[0.23136,0.48694]],[446.99777,260.53312],[[446.99777,261.79734],[0,0],[0,8.20738]],[[451.95003,285.6006],[-3.24678,-7.50312],[1.50468,5.9756]],[[458.62347,300.173],[-2.44922,-5.26098],[2.68528,5.76808]],[[465.73275,318.60222],[-2.84728,-5.87724],[1.7803,3.67484]],[[474.70509,325.41452],[-2.9172,-2.2298],[0.99196,0.75824]],[[477.31917,328.0972],[-0.02184,-1.24838],[0.02664,1.523]],[[474.81887,331.92222],[0.83344,-1.275],[-14.04556,-1.20128]],[[432.70209,318.03136],[11.5827,8.03308],[0,0]],[[431.59873,317.75916],[0,0],[-9.92948,-7.45294]],[[402.28937,293.02182],[10.66306,6.29984],[-10.6143,-6.07522]],[[386.13435,262.78192],[0.97348,11.67922],[-0.39118,-4.69316]],[[385.70791,248.73362],[-0.02366,4.72596],[0.00172,-0.34318]],[[385.68947,247.38052],[-0.00106,0.50614],[-11.34958,7.02846]],[[354.42029,272.1936],[10.29542,-8.4106],[-5.94694,4.85822]],[[335.32497,285.77802],[6.27764,-4.4837],[-6.36068,4.2389]],[[314.84215,297.87798],[7.63564,-1.78408],[-5.64176,1.31822]],[[297.10485,297.51008],[5.78226,0],[-5.31998,0]],[[281.44501,295.18376],[4.71328,2.74608],[-6.09492,-2.6052]],[[263.76187,286.7637],[5.90316,2.97586],[-1.73494,-0.8746]],[[256.37617,283.72538],[1.1854,1.45742],[-1.77252,-2.17926]],[[257.08689,275.02426],[-1.40602,2.05674],[3.62346,-5.30046]],[[273.65417,266.03734],[-4.84858,3.69358],[4.42616,-2.65838]],[[286.22761,256.81298],[-3.24804,4.11838],[2.63124,-3.33628]],[[290.15057,240.51646],[1.32478,4.2424],[-1.05118,-3.36626]],[[280.91155,233.37344],[3.8945,1.39282],[1.0271,1.07764]],[[281.04235,235.79552],[0,0],[-6.38706,9.32508]],[[256.88315,259.25234],[7.28458,-8.61874],[-3.07222,3.63488]],[[250.28465,271.80452],[2.66882,-4.0151],[-2.95752,4.3673]],[[245.28343,285.52826],[1.54184,-4.70384],[-3.76512,11.48654]],[[237.78761,321.51686],[3.00796,-12.03186],[-5.78958,16.72838]],[[233.36625,374.9712],[0,-17.5994],[0,20.25506]],[[233.36625,435.7364],[0,-20.25506],[0,5.9887]],[[234.08407,453.4217],[-0.14384,-5.9486],[0.03238,0.19122]],[234.11645,453.7409],[[234.11645,458.24204],[0,0],[0,0.60852]],[[233.41589,459.76244],[0.42878,-0.36682],[0.1766,6.43228]],[[233.35655,479.1943],[0.78274,-6.24032],[-0.67576,5.38742]],[[228.76251,493.88324],[1.85264,-4.6309],[-0.73542,1.83828]],[[228.09997,501.74722],[0.53112,-2.1245],[-0.04642,1.69442]],[[226.52877,506.58354],[0.49122,-1.62232],[-2.04146,6.74218]],[[225.83857,528.82996],[1.15166,-7.02178],[-1.60248,9.77046]],[[220.60335,557.96398],[1.97636,-9.75194],[0,5.4645]],[[218.33669,573.84122],[0.91122,-5.25924],[-0.74118,4.27784]],[[218.33565,587.66186],[-0.13878,-4.50386],[1.16104,0.78548]],[219.01005,589.90724],[[218.40807,591.71318],[0,0],[0.3106,6.76616]],[[221.33031,611.96044],[-0.79476,-6.7368],[0,0]]],&quot;closed&quot;:true}]}" fill="#52402d" stroke="none" stroke-width="0.5" stroke-linecap="butt"/><path d="" fill="#000000" stroke="none" stroke-width="0.5" stroke-linecap="butt"/><path d="M381.43,267.20632c-1.66159,0.40605 -3.47781,0.38735 -3.80072,0.32112c-0.20756,-0.04257 -2.13795,-0.31631 -3.84261,-0.85634c-0.08292,-0.02627 -2.2423,-0.8222 -3.28639,-1.57193c-2.16294,-1.55315 -3.87041,-2.98087 -7.72168,-4.13746c-1.48034,-0.44456 -3.1428,-0.55577 -4.71294,-0.50293c-2.91234,0.098 -5.5071,0.76036 -6.03302,0.90658c-1.62608,0.4521 -3.74929,0.70325 -4.15305,0.68093c-0.67435,-0.03728 -1.48783,0.08243 -2.22058,0.07486c-1.22324,-0.01263 -2.25418,-0.13475 -2.27664,-0.13736c-0.17492,-0.02034 -1.51439,-0.21471 -2.79909,-0.61723c-1.45787,-0.45678 -2.87805,-1.1332 -3.04055,-1.25104c-0.69848,-0.5065 -1.6322,-1.14474 -2.59618,-2.51772c-0.07327,-0.10435 -0.66617,-1.09567 -1.32411,-2.11198c-0.3602,-0.55638 -0.88291,-1.01087 -1.01806,-1.58567c-0.09108,-0.38737 -0.38834,-0.65804 -0.57929,-1.11621c-0.25191,-0.60443 -0.4033,-1.41065 -0.48908,-2.00832c-0.62999,-4.3893 -0.24611,-9.2651 -0.24611,-9.2651c0,0 1.00226,-4.75984 1.44485,-5.50764c0.44071,-0.74463 0.98307,-2.27658 1.97746,-3.40704c1.62028,-1.84199 3.78445,-3.26199 3.78445,-3.26199c0,0 1.41105,-1.06788 3.54654,-1.70129c1.38098,-0.40961 3.37677,-0.53076 4.43975,-0.42346c0.50286,0.05076 2.02227,-0.09365 4.46446,0.06931c0.84763,0.05656 2.49556,0.11136 3.93783,0.5466c0.60333,0.18207 1.12875,0.74524 1.61168,0.89919c0.47921,0.15276 3.08953,2.07957 4.95177,2.58767c1.96058,0.53493 3.95957,0.4632 4.55122,0.47207c1.527,0.0229 2.56198,-0.2101 3.42272,-0.45989c1.23715,-0.35902 3.23042,-1.30517 3.31444,-1.34786c0.40147,-0.20398 2.92602,-1.21102 3.12984,-1.26558c4.43587,-1.18749 9.46419,-0.68153 9.97822,-0.47396c0.66319,0.2678 3.74917,2.13259 5.42219,3.83751c0.61365,0.62535 0.96668,1.19376 1.34545,1.73945c0.56374,0.81216 1.00667,1.48507 1.01521,1.50274c0.38122,0.78826 2.9768,7.27698 2.72145,13.12454c-0.23742,5.43709 -3.43344,10.10423 -3.62901,10.56462c-0.20178,0.475 -3.7942,4.54908 -6.2118,6.12548c-1.92819,1.25727 -4.2512,1.87315 -5.07861,2.07535z" fill="#ba7439" stroke="#000000" stroke-width="0.5" stroke-linecap="round"/><path d="M371.4059,245.88579c0,4.70789 -4.01306,8.52439 -8.96341,8.52439c-4.95036,0 -8.96341,-3.8165 -8.96341,-8.52439c0,-4.70789 4.01306,-8.52439 8.96341,-8.52439c4.95036,0 8.96341,3.8165 8.96341,8.52439z" fill="#623d1e" stroke="#482d16" stroke-width="0.5" stroke-linecap="butt"/><path d="M255.20665,227.41329l19.43573,2.85861l-1.45168,14.09738l-19.82632,-0.7462z" fill="#ba7439" stroke="#000000" stroke-width="0.5" stroke-linecap="round"/><path d="M379.05256,253.36742l1.18104,-10.79687l3.96294,0.32787l-1.18801,10.87474z" fill="none" stroke="#000000" stroke-width="0.5" stroke-linecap="round"/><path d="M274.52398,231.71954l57.78741,5.85456c0,0 -0.80568,3.05284 -0.96822,4.73404c-0.17708,1.83162 -0.05437,5.84313 -0.05437,5.84313l-57.84247,-5.83882z" fill="#ba7439" stroke="#000000" stroke-width="0.5" stroke-linecap="round"/><path d="M262.28441,240.26939c-0.73856,-0.07041 -1.28021,-0.72622 -1.20981,-1.46478c0.07041,-0.73856 0.72622,-1.2802 1.46477,-1.2098c0.73856,0.07041 1.28021,0.72621 1.2098,1.46476c-0.07041,0.73856 -0.72621,1.28022 -1.46477,1.20981z" fill="#000000" stroke="none" stroke-width="0.5" stroke-linecap="butt"/><path d="M262.88671,234.93579c-0.71741,-0.06839 -1.24356,-0.70541 -1.17517,-1.42282c0.06839,-0.71741 0.70543,-1.24355 1.42284,-1.17516c0.71741,0.06839 1.24355,0.70542 1.17516,1.42283c-0.06839,0.71741 -0.70541,1.24355 -1.42282,1.17516z" fill="#000000" stroke="none" stroke-width="0.5" stroke-linecap="butt"/><path d="M270.09329,236.49581c-0.36929,-0.03521 -0.64011,-0.3631 -0.6049,-0.73239c0.03521,-0.36929 0.3631,-0.64011 0.73239,-0.6049c0.36929,0.03521 0.64009,0.3631 0.60489,0.73239c-0.03521,0.36929 -0.36309,0.64011 -0.73237,0.6049z" fill="#000000" stroke="none" stroke-width="0.5" stroke-linecap="butt"/><path d="M269.79156,238.89186c-0.36929,-0.03521 -0.64009,-0.36309 -0.60489,-0.73238c0.03521,-0.36929 0.36309,-0.64011 0.73237,-0.6049c0.36929,0.03521 0.64011,0.3631 0.6049,0.73238c-0.03521,0.36929 -0.3631,0.6401 -0.73239,0.6049z" fill="#000000" stroke="none" stroke-width="0.5" stroke-linecap="butt"/><g fill="#000000" stroke="#000000" stroke-width="0.5"><path d="M258.53459,247.25936l0.2853,-3.40284l0.81889,0.01992l-0.32404,3.39915z" stroke-linecap="round"/><path d="M259.02908,246.32678c0.92644,0.08832 1.64167,0.53543 1.59752,0.99865c-0.04416,0.46322 -0.83099,0.76714 -1.75743,0.67882c-0.92644,-0.08832 -1.64168,-0.53543 -1.59752,-0.99864c0.04416,-0.46322 0.83099,-0.76715 1.75744,-0.67883z" stroke-linecap="butt"/></g><g data-paper-data="{&quot;index&quot;:null}" fill="#000000" stroke="#000000" stroke-width="0.5"><path d="M261.61846,224.90104l-0.32404,3.39915l-0.80791,-0.13516l0.36277,-3.39545z" stroke-linecap="round"/><path d="M259.56115,224.78014c0.04416,-0.46323 0.831,-0.76715 1.75744,-0.67883c0.92644,0.08832 1.64167,0.53542 1.59752,0.99865c-0.04416,0.46323 -0.83099,0.76715 -1.75743,0.67883c-0.92644,-0.08832 -1.64168,-0.53543 -1.59752,-0.99865z" stroke-linecap="butt"/></g><g data-paper-data="{&quot;index&quot;:null}" fill="#000000" stroke="#000000" stroke-width="0.5"><path d="M269.77545,226.06816l-0.32404,3.39915l-0.80792,-0.13515l0.36278,-3.39546z" stroke-linecap="round"/><path d="M267.71815,225.94726c0.04416,-0.46323 0.831,-0.76714 1.75743,-0.67883c0.92644,0.08832 1.64167,0.53542 1.59752,0.99865c-0.04416,0.46323 -0.83099,0.76714 -1.75743,0.67883c-0.92644,-0.08832 -1.64168,-0.53543 -1.59752,-0.99865z" stroke-linecap="butt"/></g><path d="M263.00399,239.8568l118.30518,11.68914" fill="none" stroke="#000000" stroke-width="0.5" stroke-linecap="round"/><path d="M263.89181,232.8855l118.24165,11.68429" fill="none" stroke="#000000" stroke-width="0.5" stroke-linecap="round"/><path d="M270.42872,238.58292l111.08103,11.00001" fill="none" stroke="#000000" stroke-width="0.5" stroke-linecap="round"/><path d="M270.78902,235.56102l111.09573,11.00245" fill="none" stroke="#000000" stroke-width="0.5" stroke-linecap="round"/><path d="M381.57694,249.27741c0.11246,0.01153 0.19421,0.11258 0.18261,0.22569c-0.0116,0.11311 -0.11217,0.19546 -0.22462,0.18393c-0.11246,-0.01153 -0.19421,-0.11258 -0.18261,-0.22569c0.0116,-0.11311 0.11217,-0.19546 0.22462,-0.18392z" fill="none" stroke="#000000" stroke-width="0.5" stroke-linecap="butt"/><path d="M381.31552,251.35942c0.11582,0.01188 0.2003,0.1132 0.1887,0.22631c-0.0116,0.11311 -0.11489,0.19518 -0.23071,0.1833c-0.11582,-0.01188 -0.2003,-0.11321 -0.1887,-0.22632c0.0116,-0.11311 0.11489,-0.19518 0.23071,-0.1833z" fill="none" stroke="#000000" stroke-width="0.5" stroke-linecap="butt"/><path d="M381.87242,246.33711c0.11246,0.01153 0.19421,0.11258 0.18261,0.22569c-0.0116,0.11311 -0.11217,0.19546 -0.22462,0.18393c-0.11246,-0.01153 -0.19421,-0.11258 -0.18261,-0.22569c0.0116,-0.11311 0.11217,-0.19546 0.22462,-0.18392z" fill="none" stroke="#000000" stroke-width="0.5" stroke-linecap="butt"/><path d="M382.07273,244.38409c0.11246,0.01153 0.19421,0.11258 0.18261,0.22569c-0.0116,0.11311 -0.11217,0.19546 -0.22462,0.18393c-0.11246,-0.01153 -0.19421,-0.11258 -0.18261,-0.22569c0.0116,-0.11311 0.11217,-0.19546 0.22462,-0.18392z" fill="none" stroke="#000000" stroke-width="0.5" stroke-linecap="butt"/><g><path d="M352.20838,258.43301c0,0 -2.0215,1.22601 -2.13381,0.44678c-0.06994,-0.48523 -0.88121,-1.0207 -0.64763,-1.87754c0.42343,-1.55325 2.05283,-3.57082 1.97101,-4.06661c-0.00882,-0.05348 -1.12532,0.27234 -1.99446,1.22486c-0.8989,0.98512 -1.55143,2.59803 -1.56099,2.54003c-0.07361,-0.44704 -1.68442,0.49774 -1.61385,-0.18138c0.04977,-0.47887 -0.58421,-0.89143 -0.43283,-1.48697c0.11476,-0.45152 0.80405,-0.87244 0.97862,-1.36705c0.14241,-0.40349 1.01458,-0.74024 1.17338,-1.15882c0.05795,-0.15272 0.83776,-0.59217 0.8944,-0.74597c0.06727,-0.18264 1.05415,-0.48365 1.11514,-0.66505c0.21801,-0.64841 -0.19273,-0.24767 -0.11105,-0.84383c0.04653,-0.33957 -2.31409,0.6507 -2.27764,0.2972c0.01719,-0.16674 -0.46817,0.413 -1.14802,0.82134c-0.47375,0.28455 -1.22704,0.46588 -1.19247,0.33741c0.0585,-0.2174 -1.05985,0.15722 -1.42036,-0.46652c-0.15518,-0.26849 -0.26643,-0.89073 -0.16435,-1.40241c0.08404,-0.42127 0.36939,-0.74975 0.40207,-0.899c0.20576,-0.93934 2.09449,-1.05059 3.01612,-1.8852c0.1828,-0.16553 2.54632,0.56641 3.30604,0.66635c0.9221,0.12133 0.2578,-0.38063 0.38836,-0.61413c0.11556,-0.20665 -1.98285,-1.19819 -1.87995,-1.4048c0.10202,-0.20483 -0.76351,-1.23581 -0.66592,-1.42649c0.15072,-0.29452 0.52889,-1.37654 0.6649,-1.61394c0.1558,-0.27194 0.82816,-0.07779 0.93657,-0.24907c0.13382,-0.21141 1.07754,-0.28049 1.07911,-0.2987c0.00854,-0.09869 0.4422,-0.42375 0.81791,0.59858c0.15585,0.42408 0.49576,1.54716 0.86925,1.78767c0.92838,0.59783 2.18058,-0.09778 2.18058,-0.09778c0,0 0.97929,-0.14278 1.70932,0.34307c0.14669,0.09763 0.44667,0.45347 0.54941,0.78152c0.09662,0.3085 0.02829,-0.25082 0.11191,-0.26556c0.14763,-0.02601 0.43911,0.71732 0.61576,0.68845c4.02678,-0.65809 15.08899,-2.62154 18.66004,-3.28972c0.18569,-0.03474 -2.24289,-12.52514 -2.11859,-13.22552c0.05785,-0.3259 0.62283,-0.17913 0.81268,-0.23504c0.54465,-0.16038 0.92963,-0.6239 1.33015,-0.51918c0.19042,0.04979 1.19093,-0.26175 1.30846,-0.25547c0.4026,0.02151 -0.41583,0.10852 -0.05882,0.02817c0.07052,-0.01587 0.58767,-0.25761 0.66851,-0.14689c0.40148,0.54978 0.67689,2.5846 1.08388,4.90573c0.67181,3.83149 1.39793,8.44312 1.39793,8.44312l0.50597,3.02826c0,0 0.14463,0.33749 -0.09999,0.61211c-0.25657,0.28804 -0.91386,0.5161 -1.40498,0.61657c-2.63001,0.53804 -14.5724,2.68561 -21.0771,3.7675c-0.29352,0.04883 -0.20387,0.4631 -0.16041,0.87781c0.07462,0.71213 -0.30805,1.5376 -0.91691,2.04988c-1.19659,1.0068 -3.21487,1.70259 -4.56151,2.0831c-0.80931,0.22868 -0.90588,3.74314 -0.90588,3.74314z" fill="#fffa4c" stroke="none" stroke-width="0" stroke-linecap="butt"/><path d="M350.62846,246.86606c0,0 -0.7541,-0.34979 -1.06378,-0.56003c-0.27315,-0.18543 -0.69853,-0.63638 -0.69853,-0.63638c0,0 -0.33097,-0.49403 -0.42143,-0.79664c-0.09185,-0.30725 -0.12552,-1.03318 -0.12552,-1.03318c0,0 0.1539,-0.70525 0.5688,-1.01209c0.14588,-0.10788 0.38565,-0.4278 0.68795,-0.55693c0.55992,-0.23918 1.24111,-0.13327 1.24111,-0.13327c0,0 0.31358,0.09485 0.44411,0.1546c0.15339,0.07022 0.51232,0.49197 0.51232,0.49197c0,0 0.17581,0.48504 0.20983,0.66214c0.04464,0.23237 0.14784,0.68441 0.14784,0.68441c0,0 0.22972,0.32163 0.36402,0.37408c0.07839,0.03061 0.2174,0.12997 0.34673,0.14005c0.21753,0.01695 0.48164,-0.00305 0.48164,-0.00305c0,0 0.96447,-0.21689 1.41468,-0.25743c0.38677,-0.03484 1.12531,0.02862 1.12531,0.02862c0,0 0.68792,0.29536 0.91171,0.49915c0.3516,0.32016 0.60758,0.79024 0.60758,0.79024l1.13263,3.68581l0.2037,0.63199c0,0 -0.02561,0.80454 -0.10829,0.99503c-0.04123,0.09501 -0.30685,1.22418 -1.05554,1.95094c-0.37619,0.36518 -0.7505,0.6041 -1.37677,0.83146c-0.15323,0.05564 -1.0427,0.06932 -1.23184,0.11604c-0.73639,0.18186 -1.35972,0.40187 -1.35972,0.40187c0,0 -0.22986,0.19639 -0.3137,0.29499c-0.07159,0.08421 -0.15841,0.26028 -0.15841,0.26028c0,0 -0.18263,0.42432 -0.24964,0.58003c-0.04517,0.10497 -0.08205,0.37569 -0.08205,0.37569c0,0 -0.23144,0.5532 -0.30756,0.94698c-0.04279,0.22133 -0.11003,1.21328 -0.11003,1.21328c0,0 -0.14902,0.58891 -0.34929,0.77963c-0.21042,0.20039 -0.8843,0.39512 -0.8843,0.39512c0,0 -0.76218,-0.0148 -0.98845,-0.09641c-0.10849,-0.03914 -0.26024,-0.17383 -0.37014,-0.33512c-0.14257,-0.20925 -0.23094,-0.45017 -0.23094,-0.45017c0,0 -0.05739,-0.18373 -0.09735,-0.35333c-0.03135,-0.13305 -0.04548,-0.23998 -0.05626,-0.35967c-0.01499,-0.16647 0.02033,-0.56893 0.12697,-0.91617c0.11821,-0.3849 0.30984,-0.70847 0.30984,-0.70847" fill="none" stroke="#000000" stroke-width="0.5" stroke-linecap="round"/><path d="M380.93937,241.75034l-4.55467,0.98482l-1.1515,-7.17332l-1.09464,-5.94559c0,0 0.34411,-0.33633 1.07579,-0.61145c0.29513,-0.11258 0.71495,-0.31617 1.08439,-0.3573c0.48345,-0.05381 0.7895,-0.22206 0.97619,-0.23576c0.16625,-0.01219 0.36364,-0.02196 0.47508,-0.02976c0.37333,-0.02617 0.73245,-0.02591 0.73245,-0.02591z" fill="#fffa4c" stroke="#000000" stroke-width="0.5" stroke-linecap="round"/><path d="M378.53913,228.50708c0,0 2.87525,15.3856 3.00068,16.0837c0.0041,0.02282 0.00623,0.23483 -0.05241,0.43938c-0.05088,0.17739 -0.16067,0.34776 -0.19143,0.4018c-0.11133,0.19567 -0.5077,0.32812 -0.5077,0.32812c0,0 -0.36703,0.1129 -0.91597,0.21249c-1.78871,0.32447 -21.25457,3.83719 -21.25457,3.83719" fill="none" stroke="#000000" stroke-width="0.5" stroke-linecap="round"/><path d="M376.06611,242.80501l-18.41611,3.15077" fill="none" stroke="#000000" stroke-width="0.5" stroke-linecap="round"/><path d="M348.11514,250.59024l-0.80546,0.36288c0,0 -1.15031,0.75001 -1.75605,0.8304c-0.64935,0.08618 -1.31874,-0.16571 -1.68751,-0.63359c-0.31762,-0.40299 -0.39442,-0.97552 -0.25207,-1.52148c0.16946,-0.64997 0.87709,-1.13109 1.38663,-1.47221c0.93827,-0.62812 2.3013,-1.00475 3.37211,-0.97856c0.7622,0.01864 1.76634,0.56576 1.76634,0.56576c0,0 0.34462,0.08355 0.42824,0.01365c0.25871,-0.21622 0.20103,-0.56342 0.20103,-0.56342l-0.09074,-0.26909" fill="none" stroke="#000000" stroke-width="0.5" stroke-linecap="round"/><path d="M349.91793,255.8696l0.33374,-0.66824l0.35363,-0.6661l0.34232,-0.74779c0,0 0.0153,-0.25153 -0.00914,-0.29604c-0.02631,-0.04794 -0.15577,-0.07032 -0.15577,-0.07032l-0.42721,0.07298c0,0 -0.45114,0.24211 -0.5295,0.2874c-0.14684,0.08488 -0.36205,0.32872 -0.36205,0.32872c0,0 -0.33709,0.43138 -0.45352,0.63347c-0.0928,0.16111 -0.35238,0.57544 -0.35238,0.57544c0,0 -0.30695,0.55141 -0.37477,0.70305c-0.03347,0.0748 -0.31023,0.46877 -0.31023,0.46877c0,0 -0.16004,0.16977 -0.32612,0.25052c-0.12084,0.05875 -0.60287,0.07746 -0.60287,0.07746l-0.70997,-0.36255c0,0 -0.40421,-0.22366 -0.50159,-0.58793c-0.04304,-0.16101 -0.07336,-0.66909 0.00947,-0.97432c0.12371,-0.45584 0.39325,-0.71159 0.39325,-0.71159l0.90393,-1.06094c0,0 0.31378,-0.34777 0.54566,-0.49867c0.22488,-0.14636 0.75045,-0.52422 1.23406,-0.80783c0.61538,-0.36088 1.11913,-0.84515 1.11913,-0.84515c0,0 0.06015,-0.22689 0.04938,-0.34497c-0.00961,-0.10531 -0.35428,-0.29067 -0.35428,-0.29067c0,0 -0.36981,-0.0414 -0.56471,-0.03602c-0.26811,0.0074 -1.00478,0.28196 -1.00478,0.28196" fill="none" stroke="#000000" stroke-width="0.5" stroke-linecap="round"/><path d="M362.1257,246.31649c-0.02787,0.26697 -0.29484,0.23909 -0.29484,0.23909l-0.2687,-0.02808c-0.79133,-0.08265 4.42835,0.7789 3.66967,1.58373c-0.19458,0.20642 -6.38405,1.46369 -6.57808,1.47599c-0.0566,0.00359 -0.35843,1.7823 -0.60273,1.81855c-0.11681,0.01733 -0.11387,-1.80925 -0.25569,-1.7899c-0.90873,0.12401 -2.21193,0.2531 -2.38568,-0.07716c-0.44313,-0.84227 1.59385,-2.89544 1.13629,-2.81653c0,0 -0.2645,0.0456 -0.31012,-0.2189c-0.04561,-0.2645 0.09434,-0.14556 0.09434,-0.14556c1.75505,-0.30258 7.50553,-1.25763 9.28033,-1.07226l-3.72387,0.7362c0,0 0.26696,0.02788 0.23908,0.29484z" fill="#fffa4c" stroke="none" stroke-width="0.5" stroke-linecap="butt"/><path d="M377.09886,237.8462c-0.14092,1.30511 1.30159,-2.20507 2.38689,-1.17067c0.32598,0.31069 1.34003,5.55264 1.42524,5.9101c0.1012,0.42449 -3.013,0.79703 -2.93193,1.24632c0,0 0.04765,0.26415 -0.21649,0.3118c-0.26414,0.04765 -0.31181,-0.21649 -0.31181,-0.21649c-0.0886,-0.49104 -0.62419,-0.3294 -0.73392,-0.79216c-0.22214,-0.93683 -0.48202,-2.72586 -0.47868,-3.85135c0.00219,-0.74046 0.25365,-0.81615 0.32697,-1.49519l0.01953,-0.18092c0,0 0.21933,0.02369 0.31476,0.03398c0.07959,0.0086 0.19944,0.20456 0.19944,0.20456z" fill="#fffa4c" stroke="none" stroke-width="0.5" stroke-linecap="butt"/></g><path d="M378.37024,229.60008l0.00686,0.28237c0,0 0.00597,0.24993 -0.24396,0.2559c-0.24993,0.00597 -0.2559,-0.24396 -0.2559,-0.24396l-0.00628,-0.26739c-0.02076,-0.24641 -0.03336,-0.494 -0.05108,-0.74062c-0.93906,0.48386 -1.50485,0.92517 -2.58979,0.84767c0.04578,0.14589 0.10732,0.28444 0.19344,0.40917l0.04199,0.17802c0,0 0,0.25 -0.25,0.25c-0.18862,0 -0.23493,-0.14232 -0.2463,-0.21219c-0.09603,-0.16113 -0.62753,-0.49092 -0.58779,-0.90252c0.01368,-0.14176 -0.00514,-0.18538 0.14205,-0.35556c0.20551,-0.23762 0.54169,-0.24235 0.8529,-0.34676c0,0 2.44793,-0.75996 2.7974,-0.66122c0.55234,0.15606 0.19646,1.50709 0.19646,1.50709z" fill="#fffa4c" stroke="none" stroke-width="0.5" stroke-linecap="butt"/><path d="M373.86185,229.43688c0,0 1.83831,-0.70791 2.69318,-0.92163c0.83008,-0.20752 2.36383,-0.34262 2.36383,-0.34262" fill="none" stroke="#000000" stroke-width="0.5" stroke-linecap="round"/><g stroke-width="0.5"><path d="M264.00716,255.45927l-0.10454,-12.31099l4.80884,0.08731l0.31362,12.22367z" fill="none" stroke="#000000" stroke-linecap="round"/><g><g fill="#000000" stroke="#000000"><path d="M262.55023,251.75532l0.21241,-3.79864l0.79087,0.00471l-0.24988,3.79536z" stroke-linecap="round"/><path d="M263.01032,250.70537c0.89596,0.07863 1.59466,0.56166 1.56062,1.07888c-0.03405,0.51723 -0.78797,0.87277 -1.68394,0.79414c-0.89596,-0.07863 -1.59468,-0.56166 -1.56064,-1.07888c0.03405,-0.51723 0.788,-0.87276 1.68396,-0.79414z" stroke-linecap="butt"/></g><g stroke="none" stroke-linecap="butt"><path d="M261.23171,248.23579l-0.01588,0.20031c-0.68889,2.29502 -0.62848,6.49237 0.51835,8.37266c2.10635,2.27832 7.2112,3.37572 9.65403,0.88189c1.76557,-2.71319 1.06081,-6.22055 1.38213,-9.13838c-0.02511,-0.07347 -0.02794,-0.13746 -0.02794,-0.13746l-0.01644,-0.36892c-0.05583,-1.25302 0.11201,-2.98903 -0.27877,-4.14904c-0.19668,-0.60933 -0.24831,-1.18744 -0.42606,-1.79157c-1.48208,-5.03745 -2.31191,0.8169 -2.7096,4.04296c0.00691,0.22672 0.01476,0.45232 0.02475,0.67626l0.03153,0.70766c0.00917,0.20583 -0.12038,0.38192 -0.28934,0.39329c-0.16898,0.01139 -0.31339,-0.14624 -0.32256,-0.35205l-0.03321,-0.74537h0.00002c-0.00451,-0.10426 -0.00851,-0.20899 -0.01215,-0.31413c-0.22406,-0.75824 -0.25785,-1.91322 -0.12288,-3.07063c-0.04944,-0.57352 -0.12666,-1.13836 -0.25346,-1.68318c-0.5272,-2.31087 -1.6666,-2.15328 -2.10271,0.33395c-0.35443,2.02134 -0.34634,3.93491 -0.33276,5.98471c0.00087,0.01898 0.00173,0.038 0.00259,0.05701l0.03288,0.73784c0.00917,0.20583 -0.12038,0.38193 -0.28934,0.39329c-0.16898,0.01139 -0.3134,-0.14624 -0.32256,-0.35205l-0.03253,-0.73029c-0.00197,-0.0441 -0.00399,-0.08811 -0.00605,-0.13205c-0.04086,-0.46018 -0.07284,-0.94639 -0.09161,-1.4468c-0.12784,-1.56982 -0.35218,-3.06919 -0.74992,-4.61619c-2.38946,-4.29149 -3.34686,3.61895 -3.39652,5.91583c0.17481,0.07773 0.18606,0.33044 0.18606,0.33044zM271.82696,258.21126c-2.71966,2.78459 -8.17847,1.70482 -10.54496,-0.89804c-1.22696,-1.98304 -1.32125,-6.31529 -0.74956,-8.73087c-0.08996,-0.10455 -0.09701,-0.26327 -0.09701,-0.26327c-0.10866,-2.43911 1.41012,-12.33191 4.55805,-6.65621c0.12595,0.47219 0.23559,0.94079 0.33105,1.4087c0.14832,-1.15199 0.41793,-2.23552 0.86062,-3.1083c1.18878,-2.34382 2.46616,0.42537 2.73907,1.5942c0.00694,0.0303 0.0137,0.06066 0.02037,0.09104c0.46347,-1.57197 1.2809,-2.67606 2.37963,-1.98126c1.0681,0.67542 1.29631,2.73693 1.69297,3.95482c0.34485,1.09578 0.28943,2.52716 0.30482,3.77497c0.23605,0.10902 0.57639,7.65168 -1.49505,10.81427z" fill="#000000"/><path d="M260.98494,247.89548c0.04968,-2.29689 1.20433,-10.45725 3.59378,-6.16576c0.39773,1.547 0.52677,3.36138 0.65461,4.93122c0.01879,0.50039 0.06612,0.96004 0.10698,1.42021c0.00112,0.0238 0.02336,0.23087 0.0922,0.35373c0.05827,0.10402 0.1649,0.12638 0.16581,0.1466c0,0 0.18384,-0.10526 0.22132,-0.17767c0.04479,-0.08655 0.02944,-0.30683 0.02944,-0.30683c-0.00085,-0.01903 -0.00063,-0.0401 -0.00149,-0.0591c-0.01359,-2.0498 -0.35864,-3.3643 -0.00422,-5.38564c0.26283,-1.49891 0.678,-2.96483 1.20416,-3.01315c0.22144,-0.02033 0.49878,-0.00949 0.70729,0.24355c0.3028,0.36744 0.5209,1.18909 0.64497,1.73288c0.06843,0.29399 0.34616,1.58502 0.413,2.77188c0.05702,1.01251 0.1223,3.27482 0.1223,3.27482c0.00917,0.20583 0.03236,0.25029 0.20134,0.2389c0.16898,-0.01139 0.18438,-0.13324 0.17523,-0.33907l-0.0261,-0.6956c-0.00998,-0.22397 -0.01238,-0.4411 -0.01929,-0.6678c0.17967,-1.45746 0.00258,-3.6886 0.39842,-4.99576c0.48034,-1.58624 1.58571,-1.91387 2.39823,0.84778c0.11552,0.39262 0.2338,0.7035 0.31952,1.09302c0.04618,0.20983 0.04547,0.49591 0.11433,0.70923c0.39079,1.16 0.23433,2.93166 0.29014,4.18467l0.01672,0.37272c0,0 0.0029,0.06543 0.02802,0.13891c-0.07076,0.64261 -0.09294,1.31685 -0.10335,2.00661c-0.03687,2.44213 0.07372,5.07877 -1.30302,7.19439c-2.44284,2.4938 -7.62597,1.39213 -9.73232,-0.88619c-0.49161,-0.80602 -1.03154,-1.84238 -1.07692,-3.58363c-0.01494,-0.57301 -0.02194,-1.10655 -0.01236,-1.64463c0.02921,-1.64117 0.45653,-3.70685 0.38131,-3.7403z" data-paper-data="{&quot;noHover&quot;:false,&quot;origItem&quot;:[&quot;Path&quot;,{&quot;applyMatrix&quot;:true,&quot;segments&quot;:[[519.9673,503.37539],[[519.92688,503.64191],[0,0],[-1.28902,3.00772]],[[521.52364,512.17191],[-1.73208,-2.61844],[3.26656,3.23732]],[[536.03402,514.97329],[-4.16118,3.11554],[3.07364,-3.47]],[[538.7445,504.83877],[-0.73532,3.8739],[-0.03556,-0.10054]],[538.70894,504.65239],[[538.70894,504.15745],[0,0],[0,-1.68106]],[[538.5559,498.58257],[0.55252,1.58684],[-0.27624,-0.83276]],[[537.99176,496.14777],[0.24576,0.8241],[-2.04916,-6.87166]],[[533.28348,501.31139],[0.88212,-4.27932],[-0.00518,0.30388]],[[533.27472,502.21819],[0,-0.30046],[0,0]],[[533.27472,503.16759],[0,0],[0,0.27614]],[[532.77472,503.66759],[0.27614,0],[-0.27614,0]],[[532.27472,503.16759],[0,0.27614],[0,0]],[532.27472,502.16759],[[532.27476,502.16759],[0,0],[0.00022,-0.13988]],[[532.27778,501.74633],[-0.00172,0.14094],[-0.31004,-1.03442]],[[532.30048,497.62797],[-0.30394,1.536],[-0.03894,-0.77162]],[[532.00968,495.35371],[0.16706,0.74016],[-0.69124,-3.13854]],[[528.55944,495.61089],[0.89112,-3.28762],[-0.7242,2.6718]],[[527.58286,503.58603],[0.12666,-2.74302],[0.00004,0.02548]],[[527.58294,503.66253],[0,-0.02552],[0,0]],[[527.58294,504.65241],[0,0],[0,0.27614]],[[527.08294,505.15241],[0.27614,0],[-0.27614,0]],[[526.58294,504.65241],[0,0.27614],[0,0]],[[526.58294,503.67265],[0,0],[0,-0.05916]],[[526.58266,503.49547],[0.00018,0.05896],[-0.03318,-0.61922]],[[526.5384,501.55199],[-0.00572,0.67102],[-0.09434,-2.11132]],[[525.65162,495.30981],[0.53574,2.1051],[-3.58168,-5.95566]],[[519.68816,502.91667],[0.24766,-3.06784],[0.27918,0.11972]],[519.96734,503.37543]],&quot;closed&quot;:true,&quot;fillColor&quot;:[0,0,0,1]}]}" fill="#fffa4c"/></g></g></g></g></g></svg>