<svg version="1.1" xmlns="http://www.w3.org/2000/svg" xmlns:xlink="http://www.w3.org/1999/xlink" width="131.00014" height="29.22977" viewBox="0,0,131.00014,29.22977"><g transform="translate(-254.44475,-255.52061)"><g data-paper-data="{&quot;isPaintingLayer&quot;:true}" fill-rule="nonzero" stroke-width="0.5" stroke-linejoin="miter" stroke-miterlimit="10" stroke-dasharray="" stroke-dashoffset="0" style="mix-blend-mode: normal"><path d="" data-paper-data="{&quot;noHover&quot;:false,&quot;origItem&quot;:[&quot;Path&quot;,{&quot;applyMatrix&quot;:true,&quot;segments&quot;:[[[221.33019,611.96032],[0,0],[1.18796,10.06976]],[[221.36313,643.0381],[0,-10.14116],[-0.01082,0.80922]],[[222.37905,649.44242],[-0.56482,-0.07888],[5.94232,0.82974]],[[237.63571,645.59822],[-5.346,1.24482],[7.56656,-1.7619]],[[260.99541,644.82514],[-7.30032,1.89456],[4.3596,-1.1314]],[[272.87549,643.28868],[-4.61756,0],[24.25608,0]],[[345.64369,643.28868],[-24.25608,0],[23.68548,0]],[[415.76687,650.04322],[-23.68518,-0.01642],[24.93328,2.65318]],[[491.68123,650.79056],[-25.0784,0],[7.84098,0]],[[513.72735,647.84332],[-7.36778,1.58762],[4.31242,-0.92924]],[[528.18835,647.78982],[-4.37994,0],[8.21388,0]],[[554.11037,647.94956],[-8.31786,-1.25608],[0,0]],[[553.75807,647.47264],[0,0],[-3.64264,-8.9295]],[[542.62191,621.33624],[2.6925,9.41838],[0,0]],[[542.56007,620.50168],[-0.0443,0.46308],[-0.1097,-0.35806]],[542.45035,619.85488],[[542.59341,619.75484],[0,0],[-1.77544,-4.49932]],[[539.13807,606.00906],[1.5284,4.46762],[-1.57736,-9.47816]],[[534.49709,578.17342],[2.16912,9.28794],[-1.10928,-4.74978]],[[529.36527,563.32176],[3.07118,3.97394],[0,0]],[[529.76527,560.52176],[-1.6,1.2],[0.01434,-0.01076]],[[529.80819,560.49016],[-0.01428,0.0103],[0.00188,-5.27972]],[[528.97029,544.70482],[-0.0112,5.32368],[-2.1504,-15.0527]],[[523.48693,499.47222],[0,15.39796],[0,0]],[[523.51493,499.17968],[-0.028,0.17636],[-0.15884,-0.19934]],[523.27667,498.82148],[[522.67131,497.41302],[0,0],[-0.92562,-5.5573]],[[520.57315,480.60606],[0.96248,5.50956],[-0.46928,-2.68624]],[[518.85143,473.4853],[0.0365,2.9397],[0,-14.52902]],[[519.69329,430.11106],[-0.03184,14.52712],[0,0]],[[519.27285,428.95634],[0,0],[0,-9.2368]],[[518.85827,401.30828],[-0.0265,9.18612],[-1.61258,-9.5129]],[[518.01837,372.68454],[0.86174,9.55806],[-0.44782,-4.96704]],[[515.51167,357.93596],[0.26216,4.96814],[0,0]],[[515.48019,357.8786],[0,0],[0.01976,-7.71342]],[[512.54005,334.89814],[1.48228,7.57258],[-0.01242,-9.1038]],[[508.32305,307.4744],[0.83256,9.1176],[-0.55138,-6.03826]],[[509.15327,289.59048],[-0.09852,5.94608],[0,0]],[[507.71657,287.75662],[0,0],[-2.98888,-8.91986]],[[498.83211,261.14078],[4.23272,8.6159],[-1.09152,-2.22188]],[[496.43565,255.04688],[1.52644,1.908],[-4.8944,-8.1382]],[[478.43733,239.57704],[7.71112,5.17192],[-4.29644,-2.88168]],[[465.67029,231.31364],[4.82126,2.19022],[-3.04232,-1.38209]],[[454.91642,226.43968],[3.65797,1.02479],[-7.70686,8.1729]],[[446.76641,259.57135],[1.99884,-10.65051],[0.23136,0.48694]],[446.99777,260.53312],[[446.99777,261.79734],[0,0],[0,8.20738]],[[451.95003,285.6006],[-3.24678,-7.50312],[1.50468,5.9756]],[[458.62347,300.173],[-2.44922,-5.26098],[2.68528,5.76808]],[[465.73275,318.60222],[-2.84728,-5.87724],[1.7803,3.67484]],[[474.70509,325.41452],[-2.9172,-2.2298],[0.99196,0.75824]],[[477.31917,328.0972],[-0.02184,-1.24838],[0.02664,1.523]],[[474.81887,331.92222],[0.83344,-1.275],[-14.04556,-1.20128]],[[432.70209,318.03136],[11.5827,8.03308],[0,0]],[[431.59873,317.75916],[0,0],[-9.92948,-7.45294]],[[402.28937,293.02182],[10.66306,6.29984],[-10.6143,-6.07522]],[[386.13435,262.78192],[0.97348,11.67922],[-0.39118,-4.69316]],[[385.70791,248.73362],[-0.02366,4.72596],[0.00172,-0.34318]],[[385.68947,247.38052],[-0.00106,0.50614],[-11.34958,7.02846]],[[354.42029,272.1936],[10.29542,-8.4106],[-5.94694,4.85822]],[[335.32497,285.77802],[6.27764,-4.4837],[-6.36068,4.2389]],[[314.84215,297.87798],[7.63564,-1.78408],[-5.64176,1.31822]],[[297.10485,297.51008],[5.78226,0],[-5.31998,0]],[[281.44501,295.18376],[4.71328,2.74608],[-6.09492,-2.6052]],[[263.76187,286.7637],[5.90316,2.97586],[-1.73494,-0.8746]],[[256.37617,283.72538],[1.1854,1.45742],[-1.77252,-2.17926]],[[257.08689,275.02426],[-1.40602,2.05674],[3.62346,-5.30046]],[[273.65417,266.03734],[-4.84858,3.69358],[4.42616,-2.65838]],[[286.22761,256.81298],[-3.24804,4.11838],[2.63124,-3.33628]],[[290.15057,240.51646],[1.32478,4.2424],[-1.05118,-3.36626]],[[280.91155,233.37344],[3.8945,1.39282],[1.0271,1.07764]],[[281.04235,235.79552],[0,0],[-6.38706,9.32508]],[[256.88315,259.25234],[7.28458,-8.61874],[-3.07222,3.63488]],[[250.28465,271.80452],[2.66882,-4.0151],[-2.95752,4.3673]],[[245.28343,285.52826],[1.54184,-4.70384],[-3.76512,11.48654]],[[237.78761,321.51686],[3.00796,-12.03186],[-5.78958,16.72838]],[[233.36625,374.9712],[0,-17.5994],[0,20.25506]],[[233.36625,435.7364],[0,-20.25506],[0,5.9887]],[[234.08407,453.4217],[-0.14384,-5.9486],[0.03238,0.19122]],[234.11645,453.7409],[[234.11645,458.24204],[0,0],[0,0.60852]],[[233.41589,459.76244],[0.42878,-0.36682],[0.1766,6.43228]],[[233.35655,479.1943],[0.78274,-6.24032],[-0.67576,5.38742]],[[228.76251,493.88324],[1.85264,-4.6309],[-0.73542,1.83828]],[[228.09997,501.74722],[0.53112,-2.1245],[-0.04642,1.69442]],[[226.52877,506.58354],[0.49122,-1.62232],[-2.04146,6.74218]],[[225.83857,528.82996],[1.15166,-7.02178],[-1.60248,9.77046]],[[220.60335,557.96398],[1.97636,-9.75194],[0,5.4645]],[[218.33669,573.84122],[0.91122,-5.25924],[-0.74118,4.27784]],[[218.33565,587.66186],[-0.13878,-4.50386],[1.16104,0.78548]],[219.01005,589.90724],[[218.40807,591.71318],[0,0],[0.3106,6.76616]],[[221.33031,611.96044],[-0.79476,-6.7368],[0,0]]],&quot;closed&quot;:true}]}" fill="#52402d" stroke="none" stroke-linecap="butt"/><path d="" data-paper-data="{&quot;noHover&quot;:false,&quot;origItem&quot;:[&quot;Path&quot;,{&quot;applyMatrix&quot;:true,&quot;segments&quot;:[[[221.33019,611.96032],[0,0],[1.18796,10.06976]],[[221.36313,643.0381],[0,-10.14116],[-0.01082,0.80922]],[[222.37905,649.44242],[-0.56482,-0.07888],[5.94232,0.82974]],[[237.63571,645.59822],[-5.346,1.24482],[7.56656,-1.7619]],[[260.99541,644.82514],[-7.30032,1.89456],[4.3596,-1.1314]],[[272.87549,643.28868],[-4.61756,0],[24.25608,0]],[[345.64369,643.28868],[-24.25608,0],[23.68548,0]],[[415.76687,650.04322],[-23.68518,-0.01642],[24.93328,2.65318]],[[491.68123,650.79056],[-25.0784,0],[7.84098,0]],[[513.72735,647.84332],[-7.36778,1.58762],[4.31242,-0.92924]],[[528.18835,647.78982],[-4.37994,0],[8.21388,0]],[[554.11037,647.94956],[-8.31786,-1.25608],[0,0]],[[553.75807,647.47264],[0,0],[-3.64264,-8.9295]],[[542.62191,621.33624],[2.6925,9.41838],[0,0]],[[542.56007,620.50168],[-0.0443,0.46308],[-0.1097,-0.35806]],[542.45035,619.85488],[[542.59341,619.75484],[0,0],[-1.77544,-4.49932]],[[539.13807,606.00906],[1.5284,4.46762],[-1.57736,-9.47816]],[[534.49709,578.17342],[2.16912,9.28794],[-1.10928,-4.74978]],[[529.36527,563.32176],[3.07118,3.97394],[0,0]],[[529.76527,560.52176],[-1.6,1.2],[0.01434,-0.01076]],[[529.80819,560.49016],[-0.01428,0.0103],[0.00188,-5.27972]],[[528.97029,544.70482],[-0.0112,5.32368],[-2.1504,-15.0527]],[[523.48693,499.47222],[0,15.39796],[0,0]],[[523.51493,499.17968],[-0.028,0.17636],[-0.15884,-0.19934]],[523.27667,498.82148],[[522.67131,497.41302],[0,0],[-0.92562,-5.5573]],[[520.57315,480.60606],[0.96248,5.50956],[-0.46928,-2.68624]],[[518.85143,473.4853],[0.0365,2.9397],[0,-14.52902]],[[519.69329,430.11106],[-0.03184,14.52712],[0,0]],[[519.27285,428.95634],[0,0],[0,-9.2368]],[[518.85827,401.30828],[-0.0265,9.18612],[-1.61258,-9.5129]],[[518.01837,372.68454],[0.86174,9.55806],[-0.44782,-4.96704]],[[515.51167,357.93596],[0.26216,4.96814],[0,0]],[[515.48019,357.8786],[0,0],[0.01976,-7.71342]],[[512.54005,334.89814],[1.48228,7.57258],[-0.01242,-9.1038]],[[508.32305,307.4744],[0.83256,9.1176],[-0.55138,-6.03826]],[[509.15327,289.59048],[-0.09852,5.94608],[0,0]],[[507.71657,287.75662],[0,0],[-2.98888,-8.91986]],[[498.83211,261.14078],[4.23272,8.6159],[-1.09152,-2.22188]],[[496.43565,255.04688],[1.52644,1.908],[-4.8944,-8.1382]],[[478.43733,239.57704],[7.71112,5.17192],[-4.29644,-2.88168]],[[465.67029,231.31364],[4.82126,2.19022],[-3.04232,-1.38209]],[[454.91642,226.43968],[3.65797,1.02479],[-7.70686,8.1729]],[[446.76641,259.57135],[1.99884,-10.65051],[0.23136,0.48694]],[446.99777,260.53312],[[446.99777,261.79734],[0,0],[0,8.20738]],[[451.95003,285.6006],[-3.24678,-7.50312],[1.50468,5.9756]],[[458.62347,300.173],[-2.44922,-5.26098],[2.68528,5.76808]],[[465.73275,318.60222],[-2.84728,-5.87724],[1.7803,3.67484]],[[474.70509,325.41452],[-2.9172,-2.2298],[0.99196,0.75824]],[[477.31917,328.0972],[-0.02184,-1.24838],[0.02664,1.523]],[[474.81887,331.92222],[0.83344,-1.275],[-14.04556,-1.20128]],[[432.70209,318.03136],[11.5827,8.03308],[0,0]],[[431.59873,317.75916],[0,0],[-9.92948,-7.45294]],[[402.28937,293.02182],[10.66306,6.29984],[-10.6143,-6.07522]],[[386.13435,262.78192],[0.97348,11.67922],[-0.39118,-4.69316]],[[385.70791,248.73362],[-0.02366,4.72596],[0.00172,-0.34318]],[[385.68947,247.38052],[-0.00106,0.50614],[-11.34958,7.02846]],[[354.42029,272.1936],[10.29542,-8.4106],[-5.94694,4.85822]],[[335.32497,285.77802],[6.27764,-4.4837],[-6.36068,4.2389]],[[314.84215,297.87798],[7.63564,-1.78408],[-5.64176,1.31822]],[[297.10485,297.51008],[5.78226,0],[-5.31998,0]],[[281.44501,295.18376],[4.71328,2.74608],[-6.09492,-2.6052]],[[263.76187,286.7637],[5.90316,2.97586],[-1.73494,-0.8746]],[[256.37617,283.72538],[1.1854,1.45742],[-1.77252,-2.17926]],[[257.08689,275.02426],[-1.40602,2.05674],[3.62346,-5.30046]],[[273.65417,266.03734],[-4.84858,3.69358],[4.42616,-2.65838]],[[286.22761,256.81298],[-3.24804,4.11838],[2.63124,-3.33628]],[[290.15057,240.51646],[1.32478,4.2424],[-1.05118,-3.36626]],[[280.91155,233.37344],[3.8945,1.39282],[1.0271,1.07764]],[[281.04235,235.79552],[0,0],[-6.38706,9.32508]],[[256.88315,259.25234],[7.28458,-8.61874],[-3.07222,3.63488]],[[250.28465,271.80452],[2.66882,-4.0151],[-2.95752,4.3673]],[[245.28343,285.52826],[1.54184,-4.70384],[-3.76512,11.48654]],[[237.78761,321.51686],[3.00796,-12.03186],[-5.78958,16.72838]],[[233.36625,374.9712],[0,-17.5994],[0,20.25506]],[[233.36625,435.7364],[0,-20.25506],[0,5.9887]],[[234.08407,453.4217],[-0.14384,-5.9486],[0.03238,0.19122]],[234.11645,453.7409],[[234.11645,458.24204],[0,0],[0,0.60852]],[[233.41589,459.76244],[0.42878,-0.36682],[0.1766,6.43228]],[[233.35655,479.1943],[0.78274,-6.24032],[-0.67576,5.38742]],[[228.76251,493.88324],[1.85264,-4.6309],[-0.73542,1.83828]],[[228.09997,501.74722],[0.53112,-2.1245],[-0.04642,1.69442]],[[226.52877,506.58354],[0.49122,-1.62232],[-2.04146,6.74218]],[[225.83857,528.82996],[1.15166,-7.02178],[-1.60248,9.77046]],[[220.60335,557.96398],[1.97636,-9.75194],[0,5.4645]],[[218.33669,573.84122],[0.91122,-5.25924],[-0.74118,4.27784]],[[218.33565,587.66186],[-0.13878,-4.50386],[1.16104,0.78548]],[219.01005,589.90724],[[218.40807,591.71318],[0,0],[0.3106,6.76616]],[[221.33031,611.96044],[-0.79476,-6.7368],[0,0]]],&quot;closed&quot;:true}]}" fill="#52402d" stroke="none" stroke-linecap="butt"/><path d="" fill="#000000" stroke="none" stroke-linecap="butt"/><path d="M259.71632,276.91787c0,0 0.45219,0.06667 0.45219,-0.45328c0,-0.51996 -0.53993,-0.52832 -0.53993,-0.52832l-0.32208,-0.00168c2.58576,-1.53422 4.08084,-3.72886 5.82101,-6.19475c0.83386,-1.39687 1.91164,0.00532 2.49061,0.84749c-1.71522,1.69887 -3.47822,3.46991 -5.15829,5.37946c-0.81036,0.92106 -1.53413,2.66547 -2.63509,3.10826c-0.51961,-0.19621 -1.17048,-1.34763 -1.22642,-2.15165c0.17117,0.03093 0.4255,-0.00877 0.58617,-0.00267l0.53184,-0.00287z" data-paper-data="{&quot;noHover&quot;:false,&quot;origItem&quot;:[&quot;Path&quot;,{&quot;applyMatrix&quot;:true,&quot;segments&quot;:[[[583.25139,495.65874],[0,1],[0,-1]],[584.25139,494.65874],[[584.85269,494.65874],[0,0],[-4.84073,-2.95068]],[[574.08601,482.88011],[3.25773,4.74252],[-1.56105,-2.68651]],[[569.46039,484.48145],[1.08387,-1.6197],[3.21102,3.26736]],[[579.00685,494.67021],[-3.14521,-3.67254],[1.51706,1.77141]],[[583.91806,500.65874],[-2.06109,-0.8516],[0.97275,-0.37736]],[[586.18396,496.55072],[-0.10473,1.54633],[-0.32045,0.05949]],[[585.25139,496.65874],[0.30079,-0.01173],[0,0]],[584.25139,496.65874]],&quot;closed&quot;:true}],&quot;index&quot;:null}" fill="#744824" stroke="none" stroke-linecap="butt"/><path d="M266.63709,271.49429c0,-1.36921 1.10996,-2.47917 2.47917,-2.47917c1.36921,0 2.47917,1.10996 2.47917,2.47917c0,1.36921 -1.10996,2.47917 -2.47917,2.47917c-1.36921,0 -2.47917,-1.10996 -2.47917,-2.47917z" fill="#9966ff" stroke="none" stroke-linecap="butt"/><path d="M268.82605,256.49618c2.80223,0.31019 2.32191,3.09449 2.32191,5.56597c0,0.572 0,1.144 0,1.71601v0.14329c0.4255,0.07762 1.03327,-0.02929 1.46601,-0.02929c0.80805,0 3.00619,-0.5156 3.6439,0.0578c0.83024,0.74652 0.61013,3.42106 0.61013,4.45623c0,2.32193 0.08674,4.67077 -0.13968,6.96759c-0.26315,2.58337 -1.29395,5.56671 -3.33756,7.2704c-2.3388,1.66508 -5.68104,2.1392 -8.52612,1.53928c-2.65875,-0.57544 -6.70312,-1.39143 -7.1643,-4.73765c-0.00322,-2.66538 -0.22227,-5.40665 1.00743,-7.86133c0.72883,-2.05548 1.972,-3.73096 2.10118,-5.92638c-0.72811,0.28256 -1.38885,0.65243 -2.08067,1.00014c-3.31636,1.29763 -5.35798,-1.36275 -3.04304,-4.14067c1.78726,-1.79026 3.95185,-1.96874 6.33155,-2.36603c0,0 0.01784,-0.00297 0.04473,-0.00252c0.02291,-0.01766 0.04057,-0.02649 0.04057,-0.02649c0.48878,-0.23442 1.04373,-0.41725 1.63672,-0.55987c0.12601,-3.25654 1.97319,-3.63313 5.08724,-3.06648z" fill="#ec00ff" stroke="#000000" stroke-linecap="butt"/><path d="M263.82378,259.44676c-0.15099,-2.07779 -0.39065,-3.30501 1.42809,-3.30501c1.40698,0 3.09877,-0.01022 4.50628,-0.01022c0.04746,0.02785 0.09409,0.0292 0.09409,0.0292l0.10957,-0.00485c0.41967,-0.12172 0.86281,-0.08031 1.30153,-0.00701c0.03824,1.12768 0.10939,2.24501 0.10873,3.38563c0,0 0,0.02034 0.0058,0.04942c-0.00306,0.07448 -0.00604,0.14898 -0.00893,0.22349c-0.61709,0.00718 -1.33843,-0.01721 -1.55154,0.01259c-1.98373,-0.00196 -3.98985,-0.53287 -5.99361,-0.37325z" data-paper-data="{&quot;noHover&quot;:false,&quot;origItem&quot;:[&quot;Path&quot;,{&quot;applyMatrix&quot;:true,&quot;segments&quot;:[[[535.12936,417.74145],[-5.02125,-0.00391],[0.96679,-0.10681]],[[541.48204,417.51231],[-0.30659,0.39793],[0.74755,-0.97026]],[[541.01796,410.80199],[0.54306,-0.04458],[-1.79076,-0.18637]],[[535.49104,410.53876],[1.79136,-0.41053],[0,0]],[535.21543,410.55066],[[534.97952,410.49495],[0.12013,0.05571],[-3.56273,0]],[[523.73824,410.49495],[3.56138,0],[-4.60362,0]],[[520.13041,417.03337],[-0.3822,-4.15558],[5.07196,-0.31925]]],&quot;closed&quot;:true}]}" fill="#ec00ff" stroke="none" stroke-linecap="butt"/><path d="M265.67389,259.60155c0.03961,0.05095 0.12439,0.19233 -0.017,0.33371c-0.17678,0.17678 -0.35355,0 -0.35355,0l-0.12894,-0.23249c0,-1.26482 -0.23649,-2.49832 -0.13855,-3.7799c0,0 0.01918,-0.24927 0.26844,-0.23009c0.24926,0.01917 0.23009,0.26844 0.23009,0.26844c-0.09562,1.23465 0.12742,2.42293 0.13951,3.64033z" fill="#020204" stroke="none" stroke-linecap="butt"/><path d="M269.16811,255.86813c0.23717,0.07906 0.15812,0.31623 0.15812,0.31623l-0.01503,0.00451c0,1.26191 -0.22285,2.47741 -0.22285,3.73287c0,0 0,0.25 -0.25,0.25c-0.25,0 -0.25,-0.25 -0.25,-0.25c0,-1.2568 0.22285,-2.4708 0.22285,-3.73287l0.04069,-0.16263c0,0 0.07906,-0.23717 0.31623,-0.15811z" fill="#020204" stroke="none" stroke-linecap="butt"/><path d="M265.70297,256.16418c-2.30181,0 -1.99502,1.19142 -1.80392,3.26921c2.52628,-0.15902 4.97009,0.34818 7.47068,0.354c-0.00647,0.16632 -0.01247,0.3327 -0.01785,0.49919c-2.57255,-0.00853 -5.08413,-0.55353 -7.68958,-0.33467c0,0 -0.24914,0.02076 -0.2699,-0.22838c-0.0045,-0.05391 0.00365,-0.09713 0.01918,-0.13176c-0.1987,-2.35993 -0.43115,-3.92758 2.2914,-3.92758c1.78287,0 3.56573,0 5.34859,0h0.1977c0.00394,0.16696 0.00892,0.33359 0.0146,0.5c-1.76753,0 -3.80008,0 -5.56089,0z" fill="#000000" stroke="none" stroke-linecap="butt"/><path d="M271.21437,260.05449l0.04546,-4.13649" fill="none" stroke="#000000" stroke-linecap="round"/><path d="M380.17332,276.77428l0.53184,0.00287c0.16067,-0.0061 0.415,0.0336 0.58617,0.00267c-0.05594,0.80402 -0.70681,1.95544 -1.22642,2.15165c-1.10096,-0.44279 -1.82473,-2.1872 -2.63509,-3.10826c-1.68007,-1.90955 -3.44307,-3.68059 -5.15829,-5.37946c0.57897,-0.84217 1.65675,-2.24436 2.49061,-0.84749c1.74017,2.46589 3.23525,4.66053 5.82101,6.19475l-0.32208,0.00168c0,0 -0.53993,0.00836 -0.53993,0.52832c0,0.51995 0.45219,0.45328 0.45219,0.45328z" data-paper-data="{&quot;noHover&quot;:false,&quot;origItem&quot;:[&quot;Path&quot;,{&quot;applyMatrix&quot;:true,&quot;segments&quot;:[[[583.25139,495.65874],[0,1],[0,-1]],[584.25139,494.65874],[[584.85269,494.65874],[0,0],[-4.84073,-2.95068]],[[574.08601,482.88011],[3.25773,4.74252],[-1.56105,-2.68651]],[[569.46039,484.48145],[1.08387,-1.6197],[3.21102,3.26736]],[[579.00685,494.67021],[-3.14521,-3.67254],[1.51706,1.77141]],[[583.91806,500.65874],[-2.06109,-0.8516],[0.97275,-0.37736]],[[586.18396,496.55072],[-0.10473,1.54633],[-0.32045,0.05949]],[[585.25139,496.65874],[0.30079,-0.01173],[0,0]],[584.25139,496.65874]],&quot;closed&quot;:true}],&quot;index&quot;:null}" fill="#744824" stroke="none" stroke-linecap="butt"/><path d="M370.77339,273.82984c-1.36921,0 -2.47917,-1.10996 -2.47917,-2.47917c0,-1.36921 1.10996,-2.47917 2.47917,-2.47917c1.36921,0 2.47917,1.10996 2.47917,2.47917c0,1.36921 -1.10996,2.47917 -2.47917,2.47917z" data-paper-data="{&quot;index&quot;:null}" fill="#9966ff" stroke="none" stroke-linecap="butt"/><path d="M376.15084,259.63075c0.59299,0.14262 1.14794,0.32545 1.63672,0.55987c0,0 0.01766,0.00883 0.04057,0.02649c0.02689,-0.00045 0.04473,0.00252 0.04473,0.00252c2.3797,0.39729 4.54429,0.57577 6.33155,2.36603c2.31494,2.77792 0.27332,5.4383 -3.04304,4.14067c-0.69182,-0.34771 -1.35256,-0.71758 -2.08067,-1.00014c0.12918,2.19542 1.37235,3.8709 2.10118,5.92638c1.2297,2.45468 1.01065,5.19595 1.00743,7.86133c-0.46118,3.34622 -4.50555,4.16221 -7.1643,4.73765c-2.84508,0.59992 -6.18732,0.1258 -8.52612,-1.53928c-2.04361,-1.70369 -3.07441,-4.68703 -3.33756,-7.2704c-0.22642,-2.29682 -0.13968,-4.64566 -0.13968,-6.96759c0,-1.03517 -0.22011,-3.70971 0.61013,-4.45623c0.63771,-0.5734 2.83585,-0.0578 3.6439,-0.0578c0.43274,0 1.04051,0.10691 1.46601,0.02929v-0.14329c0,-0.57201 0,-1.14401 0,-1.71601c0,-2.47148 -0.48032,-5.25578 2.32191,-5.56597c3.11405,-0.56665 4.96123,-0.19006 5.08724,3.06648z" data-paper-data="{&quot;index&quot;:null}" fill="#ec00ff" stroke="#000000" stroke-linecap="butt"/><path d="M376.06586,259.30314c-2.00376,-0.15962 -4.00988,0.37129 -5.99361,0.37325c-0.21311,-0.0298 -0.93445,-0.00541 -1.55154,-0.01259c-0.00289,-0.07451 -0.00587,-0.14901 -0.00893,-0.22349c0.0058,-0.02908 0.0058,-0.04942 0.0058,-0.04942c-0.00066,-1.14062 0.07049,-2.25795 0.10873,-3.38563c0.43872,-0.0733 0.88186,-0.11471 1.30153,0.00701l0.10957,0.00485c0,0 0.04663,-0.00135 0.09409,-0.0292c1.40751,0 3.0993,0.01022 4.50628,0.01022c1.81874,0 1.57908,1.22722 1.42809,3.30501z" data-paper-data="{&quot;noHover&quot;:false,&quot;origItem&quot;:[&quot;Path&quot;,{&quot;applyMatrix&quot;:true,&quot;segments&quot;:[[[535.12936,417.74145],[-5.02125,-0.00391],[0.96679,-0.10681]],[[541.48204,417.51231],[-0.30659,0.39793],[0.74755,-0.97026]],[[541.01796,410.80199],[0.54306,-0.04458],[-1.79076,-0.18637]],[[535.49104,410.53876],[1.79136,-0.41053],[0,0]],[535.21543,410.55066],[[534.97952,410.49495],[0.12013,0.05571],[-3.56273,0]],[[523.73824,410.49495],[3.56138,0],[-4.60362,0]],[[520.13041,417.03337],[-0.3822,-4.15558],[5.07196,-0.31925]]],&quot;closed&quot;:true}],&quot;index&quot;:null}" fill="#ec00ff" stroke="none" stroke-linecap="butt"/><path d="M374.35527,255.81763c0,0 -0.01917,-0.24927 0.23009,-0.26844c0.24926,-0.01918 0.26844,0.23009 0.26844,0.23009c0.09794,1.28158 -0.13855,2.51508 -0.13855,3.7799l-0.12894,0.23249c0,0 -0.17677,0.17678 -0.35355,0c-0.14139,-0.14138 -0.05661,-0.28276 -0.017,-0.33371c0.01209,-1.2174 0.23513,-2.40568 0.13951,-3.64033z" data-paper-data="{&quot;index&quot;:null}" fill="#020204" stroke="none" stroke-linecap="butt"/><path d="M370.72153,255.72453c0.23717,-0.07906 0.31623,0.15811 0.31623,0.15811l0.04069,0.16263c0,1.26207 0.22285,2.47607 0.22285,3.73287c0,0 0,0.25 -0.25,0.25c-0.25,0 -0.25,-0.25 -0.25,-0.25c0,-1.25546 -0.22285,-2.47096 -0.22285,-3.73287l-0.01503,-0.00451c0,0 -0.07905,-0.23717 0.15812,-0.31623z" data-paper-data="{&quot;index&quot;:null}" fill="#020204" stroke="none" stroke-linecap="butt"/><path d="M374.18667,256.02061c-1.76081,0 -3.79336,0 -5.56089,0c0.00568,-0.16641 0.01066,-0.33304 0.0146,-0.5h0.1977c1.78286,0 3.56572,0 5.34859,0c2.72255,0 2.4901,1.56765 2.2914,3.92758c0.01553,0.03463 0.02368,0.07785 0.01918,0.13176c-0.02076,0.24914 -0.2699,0.22838 -0.2699,0.22838c-2.60545,-0.21886 -5.11703,0.32614 -7.68958,0.33467c-0.00538,-0.16649 -0.01138,-0.33287 -0.01785,-0.49919c2.50059,-0.00582 4.9444,-0.51302 7.47068,-0.354c0.1911,-2.07779 0.49789,-3.26921 -1.80392,-3.26921z" data-paper-data="{&quot;index&quot;:null}" fill="#000000" stroke="none" stroke-linecap="butt"/><path d="M368.67528,259.91087l-0.04546,-4.13649" data-paper-data="{&quot;index&quot;:null}" fill="none" stroke="#000000" stroke-linecap="round"/></g></g></svg>