<svg version="1.1" xmlns="http://www.w3.org/2000/svg" xmlns:xlink="http://www.w3.org/1999/xlink" width="47.2267" height="49.58804" viewBox="0,0,47.2267,49.58804"><defs><linearGradient x1="97.28764" y1="252.01336" x2="144.51434" y2="252.01336" gradientUnits="userSpaceOnUse" id="color-1"><stop offset="0" stop-color="#a10000"/><stop offset="1" stop-color="#3f0000"/></linearGradient></defs><g transform="translate(-97.28764,-227.21934)"><g data-paper-data="{&quot;isPaintingLayer&quot;:true}" fill-rule="nonzero" stroke-linecap="butt" stroke-linejoin="miter" stroke-miterlimit="10" stroke-dasharray="" stroke-dashoffset="0" style="mix-blend-mode: normal"><path d="M128.64859,256.75929c0,0.20191 -8.08558,0.27161 -11.90111,0.23765c-1.0599,-0.00943 -1.65942,-0.28062 -1.71964,-0.2815c-1.01275,-0.01468 -1.8571,0.72713 -2.47575,0.7346c-0.09358,0.00113 -0.18102,0.12819 -0.34683,-0.29299c-0.11927,-0.30296 -0.23871,-0.56938 -0.20255,-1.08323c0.01498,-0.21283 0.27859,-0.61606 0.22803,-0.84729c-0.0789,-0.3609 -0.69145,-0.73788 -0.90224,-1.11116c-0.18642,-0.33012 0.02408,-0.65734 -0.00571,-0.968c-0.03264,-0.34045 0.31508,-0.56826 0.28408,-0.93251c-0.02543,-0.29881 -0.23682,-0.73076 -0.26113,-1.04075c-0.03122,-0.39816 -0.64478,-1.90624 -0.6689,-2.31461c-0.0103,-0.17449 1.1644,1.19598 1.15637,1.02126c-0.09634,-2.09444 -0.88619,-3.3021 -1.3664,-4.2599c-0.15343,-0.30601 -0.21033,-0.63521 -0.28731,-0.89638c-0.13361,-0.45335 0.25085,-1.6915 0.24006,-1.71021c-0.07279,-0.12617 0.01409,-0.33674 -0.01808,-0.46414c-0.09687,-0.3836 -0.199,-0.6577 -0.37847,-0.7702c-0.34169,-0.2142 -0.45237,-0.47791 -0.45237,-0.85897c0,-0.29691 0.03514,-0.79109 0.25591,-0.99769c0.26082,-0.24407 0.87481,-0.3348 1.30051,-0.3348c0.18178,0 0.45115,0.12374 1.33218,0.50258c0.05425,0.02333 0.33285,-0.01236 0.61897,-0.04928c0.3036,-0.03918 1.29043,-0.67014 1.35201,-0.64309c0.13395,0.05883 0.81282,-0.24667 0.9517,-0.18187c0.18494,0.08628 0.70182,0.10459 0.91541,0.18183c0.27558,0.09965 0.57052,0.41395 0.87951,0.50077c0.20806,0.05846 2.28863,-0.67744 2.50782,-0.6259c0.74776,0.17582 0.94758,0.32278 1.59178,0.49809c0.33195,0.09034 1.91273,-0.57576 2.22912,-0.48674c0.43108,0.12128 0.9244,0.16199 1.87663,0.29435c0.31415,0.04367 1.06889,-0.29947 1.42331,-0.24149c0.25406,0.04156 1.15259,0.1224 1.40333,0.27797c0.02077,0.01289 0.4135,-0.0965 0.56551,-0.21244c0.18103,-0.13809 0.93046,-0.19059 1.16293,-0.15185c0.28836,0.04804 0.55998,0.64122 0.67516,0.91278c0.19789,0.46657 -0.15574,1.37909 -0.33316,1.9076c-0.08047,0.23972 -0.04933,0.40044 -0.04613,0.4047c0.05634,0.07521 -0.04137,0.08629 -0.24302,0.05331c-0.17977,-0.0294 0.37329,-0.07864 0.25999,0.69124c-0.03184,0.21637 0.07973,0.64823 -0.01261,0.95382c-0.17272,0.57165 -0.58462,1.0967 -0.64507,1.7247c-0.07273,0.75559 -0.25081,1.80125 -0.18672,2.62298c0.04728,0.60617 -0.24999,0.60838 -0.27818,1.24303c-0.01545,0.34775 -0.18344,0.6418 -0.20316,0.98556c-0.01593,0.27776 -0.01436,0.83319 -0.03107,1.10727c-0.00959,0.15726 0.21283,0.35454 0.20571,0.50962c-0.0109,0.23723 0.23937,0.75014 0.23138,0.98018c-0.00274,0.07884 0.06086,0.26115 0.05,0.33408c-0.04914,0.33001 -0.23482,0.50237 -0.25279,0.81892c-0.02576,0.45383 -0.32106,0.77198 -0.32459,1.12973c-0.00469,0.47478 0.03721,0.65672 0.26616,0.86333c0.31187,0.28144 0.24734,0.4951 0.24734,0.50794z" fill="#fffd4d" stroke="none" stroke-width="NaN"/><path d="M122.99451,255.31667c-0.09637,0.00726 -0.10347,-0.0912 -0.10347,-0.0912l-0.00735,-0.10185c-0.02009,-0.27853 -0.04933,-0.53057 -0.18003,-0.78015c-0.30355,-0.74138 -0.58891,-1.67629 -1.3206,-2.09879c-0.54354,-0.37306 -1.47874,-0.29062 -2.12196,-0.24144c-0.02182,0.01191 -0.0431,0.01352 -0.0431,0.01352l-0.01196,0.00056c-0.50148,0.07846 -0.81511,0.41343 -1.0144,0.85531c-0.32401,0.71217 -0.41112,1.50072 -0.69995,2.21994c0,0 -0.03675,0.09131 -0.12612,0.05377c-0.08937,-0.03754 -0.05263,-0.12885 -0.05263,-0.12885c0.29087,-0.72112 0.38012,-1.51189 0.70331,-2.22781c0.2266,-0.49749 0.58544,-0.86476 1.13914,-0.96386c0.02332,-0.01433 0.04766,-0.01616 0.04766,-0.01616c0.69014,-0.05196 1.68343,-0.13663 2.28117,0.2668c0.76588,0.44223 1.07685,1.40381 1.39399,2.18228c0.14222,0.27086 0.17641,0.5482 0.19821,0.85038l0.00735,0.10185c0,0 0.0071,0.09846 -0.08927,0.10571z" fill="#000000" stroke="none" stroke-width="0.5"/><path d="M120.71812,252.02622c0,1.66595 0.17654,2.97411 -0.02032,3.72108c-0.10257,0.3892 -0.40483,0.67521 -0.67649,0.67521c-0.79305,0 -0.537,-1.47851 -0.537,-4.01249c0,-0.06529 0.00053,-0.82128 0.00159,-0.88627c0.03977,-2.45767 -0.16173,-4.61606 0.61089,-4.61606c0.12571,0 0.27779,-0.07 0.35954,0.04939c0.43399,0.63378 0.2618,2.93684 0.2618,5.06915z" fill="#fff649" stroke="none" stroke-width="0"/><path d="M119.52666,253.79553c0.00482,0.00275 0.00947,0.00568 0.01397,0.00877c-0.04111,0.11877 -0.0033,0.31157 -0.01185,0.44904c-0.0006,0.0067 -0.00115,0.01348 -0.00166,0.02033c-0.02425,0.23659 -0.11706,0.60746 -0.04388,0.89234c0.01922,0.07481 0.06585,0.10172 0.11791,0.09903c0.00745,0.18391 0.01276,0.37677 0.0003,0.53865c-0.00342,0.04441 -0.02532,0.08433 -0.08433,0.08433c-0.11258,0 -0.12197,-0.43824 -0.09785,-1.06617c0.00524,-0.13639 -0.0172,-0.95513 0.03472,-0.9848z" fill="#000000" stroke="none" stroke-width="0.5"/><path d="M119.41726,254.21523c0.00862,-0.09873 0.01896,-0.37046 0.01455,-0.47303c-0.00292,-0.06798 0.01073,-0.06992 0.02014,-0.08297c0.04133,-0.05728 0.1581,-0.02593 0.15813,0.05662c0.00017,0.54742 -0.05138,1.09756 0.00308,1.64226c0.00035,0.00313 0.00053,0.0063 0.00053,0.00952c0,0.00861 -0.00129,0.01692 -0.00369,0.02475c-0.0869,0.57664 -0.15212,0.47785 -0.18013,0.15938c-0.01835,-0.20865 -0.01248,-0.51158 -0.01507,-0.78064c-0.00248,-0.25795 -0.00564,-0.46311 0.00246,-0.55589z" fill="#000000" stroke="none" stroke-width="0.5"/><path d="M120.71192,255.05978c-0.08433,0 -0.08433,-0.08434 -0.08433,-0.08434v-0.01205c0,-0.3169 -0.0241,-0.63337 -0.0241,-0.95183c0,-0.60644 0,-1.21287 0,-1.81931c0,0 0,-0.00799 0.00246,-0.01905v-0.06436c0,-0.77456 -0.00073,-1.54912 0.0001,-2.32367c-0.08723,-0.86113 0.02986,-1.84739 -0.13516,-2.70882c-0.68331,-0.59625 -0.8552,0.44523 -0.88253,0.97464c0.02642,0.02784 0.02181,0.0693 0.02181,0.0693c-0.08844,0.79265 -0.02479,1.62254 -0.02479,2.41977c0,0.8686 0.02528,1.74031 0.0253,2.60621c0,0.18993 0,0.37986 0,0.56979c-0.14087,0.07498 -0.07055,0.35487 -0.08191,0.53729c-0.0006,0.0067 -0.00115,0.01348 -0.00166,0.02033c-0.02425,0.23659 -0.11706,0.60746 -0.04388,0.89234c0.00983,0.03828 0.02684,0.06402 0.04808,0.07966c0.01124,0.08906 0.02521,0.16868 0.04106,0.23389c0.00053,0.03911 0.00228,0.07735 0.00549,0.1144c-0.01213,0.00897 -0.02876,0.01512 -0.05152,0.01512c-0.08433,0 -0.08433,-0.08434 -0.08433,-0.08434c0,-0.5418 0,-1.13516 0,-1.70648c0,-0.22913 0,-0.45471 0,-0.67199c0.00003,-0.86588 -0.0253,-1.73762 -0.0253,-2.60621c0,-0.7672 -0.05705,-1.56313 0.01466,-2.329c-0.01466,-0.02321 -0.01466,-0.04948 -0.01466,-0.04948c0,-0.69118 0.41238,-1.85625 1.27368,-1.12456c0.03692,0.91005 -0.00554,1.83242 0.08413,2.73975c0.00077,0.77736 0.0001,1.55472 0.0001,2.33208v0.07591c0,0 0,0.00799 -0.00246,0.01905c0,0.60259 0,1.20517 0,1.80776c0,0.31849 0.0241,0.63484 0.0241,0.95183v0.01205c0,0 0,0.08433 -0.08434,0.08433z" fill="#000000" stroke="none" stroke-width="0.5"/><path d="M119.60495,257.19299c0,-0.04658 0.03776,-0.08434 0.08434,-0.08434c0.04658,0 0.08433,0.03776 0.08433,0.08434c0,0.04658 -0.03776,0.08433 -0.08433,0.08433c-0.04658,0 -0.08434,-0.03776 -0.08434,-0.08433z" fill="#9e9215" stroke="none" stroke-width="0.5"/><path d="M110.2275,242.31107c-0.08233,0.01829 -0.10062,-0.06403 -0.10062,-0.06403l-0.01459,-0.06707c-0.02995,-0.2976 -0.35665,-0.44245 -0.49566,-0.68174c-0.20523,-0.35329 -0.0447,-0.79742 -0.04422,-1.18866c0.10969,-0.93353 0.99366,-0.86521 1.69148,-0.75623c0.55518,0.16943 1.21077,0.53203 1.80066,0.34782c0,0 0.01728,-0.00532 0.03831,-0.00303l0.01926,-0.01029c0.18554,-0.05681 0.36188,-0.14945 0.52494,-0.25375c0.7405,-0.30923 1.45678,-0.72405 2.30276,-0.44256c0.27092,0.0685 0.59673,0.31556 0.97899,0.44593c0.32968,0.11243 0.73839,0.11338 0.75245,0.12988c0.14982,-0.00264 0.26529,-0.05913 0.40009,-0.1263c0.80722,-0.28894 1.37743,-0.56566 2.23324,-0.28106c0.65518,0.27251 1.12101,0.31961 1.7966,0.11156c0,0 0.03397,-0.01045 0.06459,0.00427c0.61383,-0.11679 0.9517,-0.29598 1.59338,-0.29461c0.36223,0.05122 0.91048,0.20234 1.29057,0.27746c0.19098,0.03775 0.39974,0.03372 0.39974,0.03372c0.27341,-0.00384 0.91759,-0.3036 1.17581,-0.31047c0.34994,-0.00931 0.41723,0.05893 0.72992,0.13097c0.33784,0.10794 0.64934,0.21165 0.99003,0.21261c0.01193,-0.0118 0.02374,-0.01771 0.02374,-0.01771c0.56565,-0.28247 1.24766,-0.55404 1.82819,-0.16834c0.5903,0.38001 0.80637,1.29096 0.50213,1.89943c-0.12598,0.25179 -0.51411,0.80867 -0.4948,1.1176c0.02467,0.01209 0.03844,0.03447 0.03844,0.03447c0.11931,0.19769 0.17216,0.43334 0.18116,0.67971c0.00629,0.01536 0.00964,0.03505 0.0013,0.05617c0.00417,0.41542 -0.11002,0.85515 -0.23603,1.19093c-0.0949,0.21836 -0.17289,0.44616 -0.24517,0.67484c0.0055,0.00363 -0.0683,0.2205 -0.07294,0.23573c-0.11421,0.50945 -0.35573,0.99743 -0.42878,1.51201c-0.04553,0.32073 0.0017,0.68473 0.00018,1.00816c0.15719,0.61832 -0.16743,0.24375 -0.06773,1.11165c0.00518,0.04507 -0.2106,0.57587 -0.18203,0.61775c0,0 0.05193,0.48363 -0.01825,0.53041c-0.07017,0.04678 -0.06141,0.063 -0.06141,0.063c-0.10593,-0.16188 0.08975,-1.10641 0.09992,-1.17053c0.03036,-0.19128 0.19849,-0.28729 0.18908,-0.40114c-0.02116,-0.25602 -0.05227,-0.42702 -0.12699,-0.73054c-0.00363,-0.88854 0.14558,-1.6173 0.39351,-2.44326l0.00227,-0.01918c0.10919,-0.3524 0.21448,-0.71309 0.36197,-1.05216c0.11569,-0.30874 0.23309,-0.73951 0.22817,-1.13733l-0.01436,-0.02527c-0.01802,-0.24363 -0.17682,-0.44749 -0.20565,-0.67932c-0.04581,-0.3684 0.34923,-0.93283 0.50727,-1.24913c0.26438,-0.52876 0.07919,-1.3548 -0.44333,-1.68267c-0.51191,-0.34255 -1.12669,-0.08742 -1.62824,0.16169c-0.01849,0.0365 -0.06296,0.04392 -0.06296,0.04392l-0.05381,0.00781c-0.35411,0 -0.81844,-0.20339 -1.1696,-0.22847c-0.28071,-0.06488 -0.66932,-0.08459 -1.01583,0.0009c-0.19743,0.04871 -0.55934,0.21647 -0.55934,0.21647c-0.5365,0.12205 -1.26753,-0.2469 -1.8681,-0.33364c-0.65169,0.00158 -0.99148,0.18413 -1.62108,0.30552c0,0 -0.02013,0.00383 -0.04244,-0.0022c-0.67467,0.19486 -1.17278,0.14298 -1.83825,-0.13483c-0.80965,-0.27049 -1.34411,0.00608 -2.1079,0.27823c-0.15959,0.08009 -0.29894,0.13946 -0.4792,0.13993l-0.05854,-0.00751c0,0 -0.01518,-0.00217 -0.03167,-0.01113c-0.56634,0.07806 -1.14046,-0.4319 -1.67549,-0.56399c-0.79622,-0.26588 -1.48084,0.14046 -2.17726,0.42998c-0.17119,0.11065 -0.62041,0.30607 -0.6569,0.29182c-0.61631,0.16157 -1.2643,-0.17806 -1.84233,-0.35755c-0.58373,-0.0882 -1.39111,-0.19831 -1.48537,0.6017c0.00048,0.35895 -0.16351,0.77019 0.0223,1.09513c0.15768,0.27575 0.46318,0.39989 0.51639,0.74311l0.01205,0.05278c0,0 0.0183,0.08233 -0.06403,0.10062z" fill="#9e9215" stroke="none" stroke-width="0.5"/><path d="M112.17654,255.12698c-0.08233,0.01829 -0.10062,-0.06403 -0.10062,-0.06403l-0.01405,-0.0683c-0.16855,-0.42157 -0.63861,-0.51746 -0.82207,-0.95728c-0.29003,-0.72579 0.3871,-1.15336 0.21747,-1.83011c0,0 -0.00231,-0.00752 -0.00147,-0.06385c0.00024,-0.01584 -0.01288,-0.04234 -0.00904,-0.06533c-0.06534,-0.46917 -0.60536,-2.55123 -0.80043,-2.94708c-0.00911,-0.03856 -0.04233,-0.36632 -0.05361,-0.42688c-0.01809,-0.09705 -0.08049,0.08507 -0.03809,0.02651c0.10101,-0.1395 0.56828,1.33445 0.71937,1.30932c0.45322,-0.07538 0.87847,-0.13102 1.31734,-0.26139c-0.05193,-0.34133 -0.49177,-0.54229 -0.75231,-0.74516c-0.00932,-0.0047 -0.01661,-0.01091 -0.02232,-0.01776c-0.00346,-0.00281 -0.00687,-0.00562 -0.01025,-0.00844c0,0 -0.06479,-0.05399 -0.0108,-0.11878c0.00014,-0.00018 0.00029,-0.00035 0.00044,-0.00052c0.00051,-0.48746 0.0234,-0.95517 0.10654,-1.435c-0.00937,-0.02416 -0.00569,-0.04804 -0.00569,-0.04804l0.01258,-0.08016c-0.0008,-0.26045 0.11518,-0.58275 -0.18835,-0.65056c-0.90843,-0.21446 -1.22065,-0.58051 -1.55304,-1.38406c-0.01289,-0.01479 -0.01837,-0.03013 -0.01837,-0.03013c-0.23159,-0.65357 -0.03747,-1.29216 0.15798,-1.92861c0.11786,-0.46943 -0.02378,-0.77405 -0.19729,-1.1896c-0.0134,-0.01729 -0.04175,-0.06487 0.00583,-0.11245c0.05963,-0.05964 0.11927,0 0.11927,0l0.02487,0.03385c0.19054,0.4573 0.337,0.80275 0.2098,1.31347c-0.17685,0.57361 -0.36691,1.16162 -0.18672,1.75116c0.00272,0.0049 0.00402,0.00813 0.00402,0.00813c0.32788,0.82002 0.58199,1.16523 1.47251,1.37411c0.42225,0.10544 0.31862,0.47085 0.31768,0.82756l-0.00144,0.0095c0.01222,0.02668 0.0069,0.0551 0.0069,0.0551c-0.09466,0.50402 -0.1184,0.9916 -0.1184,1.50253v0.01333c0.30066,0.23309 0.73012,0.43807 0.79271,0.83133c0.03689,0.04182 0.01769,0.08276 0.00427,0.10217c-0.0048,0.02381 -0.02112,0.06465 -0.07656,0.0673l-0.01451,0.01202c-0.40493,0.12317 -0.78518,0.18332 -1.20307,0.2493c-0.11482,0.01813 -0.68971,-1.46304 -0.76869,-1.36214c-0.03213,0.04105 0.0232,0.22632 0.03385,0.274c0.23003,0.45164 0.86893,2.58742 0.87027,3.09523c0,0 0.01108,0.03945 0.00609,0.10466c0.05922,0.60763 -0.47235,1.03443 -0.21316,1.68173c0.18074,0.43429 0.64818,0.52273 0.82252,0.9584l0.0221,0.09435c0,0 0.0183,0.08233 -0.06403,0.10062z" fill="#9e9215" stroke="none" stroke-width="0.5"/><path d="M117.14473,241.28245c-0.08433,0 -0.08433,-0.08433 -0.08433,-0.08433v-0.08435c0,-0.12799 -0.02701,-0.23804 -0.02811,-0.36549c0.00361,-0.5835 -0.95609,-0.48372 -1.195,-0.12191c0,0 -0.04678,0.07017 -0.11695,0.02339c-0.07017,-0.04678 -0.02339,-0.11695 -0.02339,-0.11695c0.32957,-0.49037 1.50007,-0.55035 1.50402,0.21547c-0.00137,0.1245 0.02811,0.23838 0.02811,0.36549v0.08435c0,0 0,0.08433 -0.08433,0.08433z" fill="#000000" stroke="none" stroke-width="0.5"/><path d="M123.34705,241.41227c-0.08433,0 -0.08434,-0.08433 -0.08434,-0.08433l0.00115,-0.01425c-0.03302,-0.20197 -0.00182,-0.40117 -0.00006,-0.60369c0.21111,-0.6465 1.28572,-0.54984 1.65315,-0.0954c0,0 0.05268,0.06585 -0.01317,0.11854c-0.06586,0.05268 -0.11854,-0.01317 -0.11854,-0.01317c-0.26598,-0.33687 -1.18474,-0.47688 -1.35495,0.01705c0.00189,0.18374 -0.0313,0.36563 -0.00006,0.54895l0.00115,0.04198c0,0 0,0.08433 -0.08433,0.08433z" fill="#000000" stroke="none" stroke-width="0.5"/><path d="M120.01025,247.32635c0,2.8094 -2.13846,5.08687 -4.7764,5.08687c-2.63793,0 -4.7764,-2.27747 -4.7764,-5.08687c0,-2.8094 2.13847,-5.08686 4.7764,-5.08686c2.63793,0 4.7764,2.27747 4.7764,5.08687z" fill="#fbfdfa" stroke="#000000" stroke-width="0"/><path d="M114.11811,253.06229c-0.01282,-0.00061 -0.02175,-0.00329 -0.02175,-0.00329c-0.3174,-0.09918 -0.77123,0.37305 -0.49107,0.64931c0.11958,0.11791 0.33511,0.23764 0.47585,0.11271c0.23182,-0.13631 0.17149,-0.53434 0.0526,-0.74103zM114.15438,252.90122c0.04333,-0.00563 0.07443,0.0317 0.07443,0.0317l0.05236,0.06515c0.15612,0.28838 0.20931,0.77033 -0.10375,0.96143c-0.21757,0.16218 -0.53419,0.0551 -0.70546,-0.14787c-0.36651,-0.43437 0.20907,-1.04894 0.67286,-0.91418c0,0 0.00382,0.00114 0.00955,0.00377z" fill="#fffc51" stroke="none" stroke-width="0.5"/><path d="M114.13844,253.07299c0.11889,0.2067 0.17864,0.61907 -0.05318,0.75539c-0.14073,0.12493 -0.36664,0.00352 -0.48621,-0.11439c-0.28015,-0.27626 0.18394,-0.76157 0.50134,-0.66239c0,0 0.00926,0.00287 0.02208,0.00347z" data-paper-data="{&quot;noHover&quot;:false,&quot;origItem&quot;:[&quot;Path&quot;,{&quot;applyMatrix&quot;:true,&quot;segments&quot;:[[[576.38862,314.41816],[0,0],[-0.152,-0.00718]],[[576.13068,314.37918],[0,0],[-3.76354,-1.17598]],[[570.3078,322.07832],[-3.32192,-3.2757],[1.41786,1.39814]],[[575.95014,323.41476],[-1.66872,1.48136],[2.74878,-1.61636]],[[576.57382,314.62794],[1.40976,2.45092],[0,0]]],&quot;closed&quot;:true,&quot;fillColor&quot;:[0,0,0,1]}]}" fill="#a8be04" stroke="none" stroke-width="0.5"/><path d="M111.97224,240.79374c-0.00034,0.0001 -0.00052,0.00014 -0.00052,0.00014c-0.42144,0.09289 -0.70478,1.02663 -0.36662,1.3316c0.08918,0.08042 0.31486,0.0657 0.42796,0.06993c0.43679,-0.27285 0.48418,-1.26536 -0.06053,-1.40153zM111.87909,240.64742c0.03863,-0.06729 0.1099,-0.03165 0.1099,-0.03165l0.02446,0.01448c0.72722,0.18181 0.64144,1.38887 0.06464,1.72772c-0.16518,0.00399 -0.43538,0.01803 -0.5734,-0.09696c-0.46177,-0.38472 -0.13101,-1.41525 0.37439,-1.61358z" fill="#fffc51" stroke="none" stroke-width="0.5"/><path d="M111.97326,240.78548c0.54471,0.13618 0.49803,1.14541 0.06124,1.41825c-0.1131,-0.00423 -0.34391,0.00976 -0.43309,-0.07067c-0.33816,-0.30497 -0.05042,-1.25469 0.37102,-1.34758c0,0 0.00019,-0.00004 0.00052,-0.00014z" data-paper-data="{&quot;noHover&quot;:false,&quot;origItem&quot;:[&quot;Path&quot;,{&quot;applyMatrix&quot;:true,&quot;segments&quot;:[[[550.94398,168.94384],[0,0],[-0.004,0.00112]],[[550.93786,168.94548],[0,0],[-4.99722,1.10148]],[[546.59068,184.73494],[-4.0097,-3.61618],[1.0574,0.95362]],[[551.66524,185.56418],[-1.34108,-0.05018],[5.17926,-3.23526]],[[550.94754,168.94548],[6.4589,1.61474],[0,0]]],&quot;closed&quot;:true,&quot;fillColor&quot;:[0,0,0,1]}]}" fill="#a8be04" stroke="none" stroke-width="0.5"/><path d="M128.16169,240.44351c-0.00748,0.00119 -0.01241,0.00119 -0.01241,0.00119c-0.75187,-0.00506 -0.00303,1.1848 0.42708,0.57166c0.10764,-0.33092 -0.12986,-0.36702 -0.33205,-0.51629l-0.04412,-0.01997c0,0 -0.0244,-0.0122 -0.03851,-0.0366zM128.22533,240.32018c0.0271,-0.00253 0.0503,0.00907 0.0503,0.00907l0.07406,0.03912c0.24851,0.22962 0.53098,0.26957 0.37699,0.72453c-0.65999,0.91373 -1.65888,-0.81078 -0.57739,-0.81687c0,0 0.05478,0 0.07604,0.04415z" fill="#fffc51" stroke="none" stroke-width="0.5"/><path d="M128.11144,240.44764c0.01528,0.02643 0.0426,0.03957 0.0426,0.03957l0.04903,0.02166c0.21904,0.16171 0.48352,0.21432 0.36691,0.57282c-0.46596,0.66423 -1.2868,-0.63818 -0.47228,-0.63271c0,0 0.00563,-0.00005 0.01374,-0.00134z" data-paper-data="{&quot;noHover&quot;:false,&quot;origItem&quot;:[&quot;Path&quot;,{&quot;applyMatrix&quot;:true,&quot;segments&quot;:[[[742.91028,164.79096],[0,0],[-0.08866,0.01412]],[[742.76318,164.80508],[0,0],[-8.91526,-0.05994]],[[747.82732,171.58358],[-5.10008,7.27028],[1.27638,-3.92392]],[[743.89002,165.46172],[2.39748,1.76998],[0,0]],[743.36688,165.22496],[[742.91026,164.79094],[0.16726,0.28934],[0,0]]],&quot;closed&quot;:true,&quot;fillColor&quot;:[0,0,0,1]}]}" fill="#a8be04" stroke="none" stroke-width="0.5"/><path d="M126.34859,253.38034c0.14317,-0.44045 0.70154,-0.70376 1.04093,-0.23419c0.1423,0.19688 0.14987,0.58813 0.14987,0.82325c-0.00475,0.22898 -0.21712,0.59377 -0.49081,0.46398c-0.25384,-0.12038 -0.56977,-0.65061 -0.69592,-0.90253l-0.02451,-0.03559c0,0 -0.04544,-0.06817 0.02044,-0.11492zM126.50247,253.4538l0.00105,0.00162c0.10221,0.20475 0.41071,0.74009 0.61383,0.82395c0.13826,0.05709 0.25737,-0.18588 0.25337,-0.30997c0,-0.19729 0.0023,-0.56078 -0.11803,-0.72463c-0.26823,-0.36523 -0.6595,-0.1187 -0.75021,0.20903z" fill="#fffc51" stroke="none" stroke-width="0.5"/><path d="M127.25768,253.23797c0.12033,0.16385 0.12003,0.53887 0.12003,0.73616c0.004,0.12408 -0.11968,0.3704 -0.25794,0.31332c-0.20311,-0.08386 -0.52156,-0.63111 -0.62376,-0.83585l-0.00104,-0.00163c0.09071,-0.32772 0.49448,-0.57722 0.76271,-0.21199z" data-paper-data="{&quot;noHover&quot;:false,&quot;origItem&quot;:[&quot;Path&quot;,{&quot;applyMatrix&quot;:true,&quot;segments&quot;:[[[723.23608,319.06042],[1.07562,-3.88598],[0,0]],[[723.24856,319.07956],[0,0],[1.21194,2.42778]],[[730.527,328.84956],[-2.40842,-0.9944],[1.6394,0.67688]],[[733.53132,325.17416],[0.04746,1.4713],[0,-2.33936]],[[732.13174,316.58186],[1.42686,1.94284],[-3.18056,-4.33076]]],&quot;closed&quot;:true,&quot;fillColor&quot;:[0,0,0,1]}]}" fill="#a8be04" stroke="none" stroke-width="0.5"/><path d="M125.78058,254.36621c-0.0247,0.02984 -0.06689,0.02985 -0.06689,0.02985c-0.2926,-0.00102 -0.61661,0.43724 -0.47277,0.73175c0.11458,0.23459 0.3558,0.33626 0.59708,0.36484c0.29462,0.04414 0.33037,-1.05822 0.01283,-1.12717zM125.70632,254.22747c0.0247,-0.02985 0.06689,-0.02985 0.06689,-0.02985l0.101,0.00081c0.48504,0.15406 0.53221,1.42956 -0.04671,1.46256c-0.30137,-0.03916 -0.60706,-0.16936 -0.74243,-0.46864c-0.18367,-0.40607 0.21136,-0.95714 0.62124,-0.96489z" fill="#9966ff" stroke="none" stroke-width="0.5"/><path d="M129.53959,247.15163c0,2.8094 -2.13847,5.08687 -4.7764,5.08687c-2.63793,0 -4.7764,-2.27747 -4.7764,-5.08687c0,-2.8094 2.13847,-5.08687 4.7764,-5.08687c2.63793,0 4.7764,2.27747 4.7764,5.08687z" fill="#fbfdfa" stroke="#000000" stroke-width="0"/><path d="M119.23073,247.12785c0,2.26217 -1.81261,4.09602 -4.04858,4.09602c-2.23597,0 -4.04858,-1.83385 -4.04858,-4.09602c0,-2.26217 1.81261,-4.09602 4.04858,-4.09602c2.23597,0 4.04858,1.83385 4.04858,4.09602z" fill="#3da9e8" stroke="#000000" stroke-width="0"/><path d="M128.59589,247.02761c0,2.21621 -1.75597,4.0128 -3.92206,4.0128c-2.16609,0 -3.92206,-1.79659 -3.92206,-4.0128c0,-2.21621 1.75597,-4.0128 3.92206,-4.0128c2.16609,0 3.92206,1.79659 3.92206,4.0128z" fill="#3da9e8" stroke="#000000" stroke-width="0"/><path d="M117.87698,247.02347c0,1.46735 -1.1612,2.65688 -2.59362,2.65688c-1.43242,0 -2.59362,-1.18952 -2.59362,-2.65688c0,-1.46735 1.1612,-2.65688 2.59362,-2.65688c1.43242,0 2.59362,1.18953 2.59362,2.65688z" fill="#000000" stroke="#000000" stroke-width="0"/><path d="M127.50504,246.84001c0,1.55469 -1.19661,2.81503 -2.67269,2.81503c-1.47609,0 -2.67269,-1.26033 -2.67269,-2.81503c0,-1.55469 1.19661,-2.81503 2.67269,-2.81503c1.47609,0 2.67269,1.26033 2.67269,2.81503z" fill="#000000" stroke="#000000" stroke-width="0"/><path d="M126.24593,252.17228c-0.00016,0.00008 -0.00032,0.00016 -0.00049,0.00024l-0.00024,0.03605c0.13638,0.52681 0.48371,0.96329 0.78462,1.4105c0.41675,0.59609 0.4932,1.74109 0.05367,2.34398c-0.5709,0.71159 -1.56995,0.50399 -2.32346,0.1237c-0.48694,-0.38771 -0.61587,-0.8479 -0.41026,-1.45313c0.0955,-0.28111 0.31421,-0.50815 0.38135,-0.80646c0.37409,-0.38917 0.83659,-0.92228 0.90049,-1.4631c-0.00663,-0.01058 -0.00948,-0.01913 -0.00948,-0.01913c-0.14586,-0.45197 0.2183,-0.50843 0.58112,-0.39134l0.08039,0.10555c0,0 0.03772,0.07543 -0.03772,0.11315zM125.80774,252.23974c0,0.60154 -0.49115,1.25024 -0.92789,1.66701c-0.04888,0.29074 -0.28184,0.50911 -0.36967,0.77903c-0.17439,0.53594 -0.08917,0.91294 0.34076,1.25889c0.67589,0.33382 1.58918,0.55434 2.09922,-0.08492c0.40394,-0.51757 0.31483,-1.63466 -0.05896,-2.14459c-0.31617,-0.47035 -0.67786,-0.92827 -0.81341,-1.48598l-0.00063,-0.11461c0,0 0,-0.01033 0.00362,-0.02376c-0.18536,-0.05733 -0.32429,-0.06556 -0.32553,0.06948c0.05248,0.01798 0.05248,0.07945 0.05248,0.07945z" fill="#6af2e7" stroke="none" stroke-width="0.5"/><path d="M125.83288,252.25187c0,0 -0.00034,-0.07975 -0.05376,-0.09805c0.00126,-0.13748 0.14405,-0.12904 0.33276,-0.07068c-0.00368,0.01367 -0.00368,0.02419 -0.00368,0.02419l0.00071,0.11669c0.13799,0.56778 0.51301,1.03919 0.83489,1.51803c0.38054,0.51914 0.46808,1.66685 0.05684,2.19376c-0.51925,0.65081 -1.45788,0.42669 -2.14598,0.08685c-0.4377,-0.3522 -0.52833,-0.74035 -0.35079,-1.28597c0.08942,-0.2748 0.32626,-0.50254 0.37602,-0.79853c0.44463,-0.42429 0.95288,-1.09105 0.95288,-1.70346z" data-paper-data="{&quot;noHover&quot;:false,&quot;origItem&quot;:[&quot;Path&quot;,{&quot;applyMatrix&quot;:true,&quot;segments&quot;:[[[357.49913,152.33234],[0,0],[0,3.56641]],[[351.99789,162.2156],[2.58932,-2.4709],[-0.2898,1.72374]],[[349.80623,166.83427],[0.52072,-1.60029],[-1.03391,3.17747]],[[351.82653,174.29792],[-2.54897,-2.05105],[4.00718,1.97911]],[[364.27226,173.79446],[-3.02391,3.79001],[2.39488,-3.06853]],[[363.92273,161.07974],[2.21608,3.02327],[-1.8745,-2.78859]],[[359.10024,152.26975],[0.80362,3.30652],[0,0]],[359.09649,151.59024],[[359.11793,151.44935],[-0.02144,0.07963],[-1.09895,-0.3399]],[[357.18798,151.8613],[0.00735,-0.80065],[0.31114,0.1066]],[357.49913,152.33235]],&quot;closed&quot;:true,&quot;fillColor&quot;:[0,0,0,1]}]}" fill="#b5f2ed" stroke="none" stroke-width="0.5"/><path d="M123.58091,251.44675c0.55528,0.01086 1.23877,-0.16926 1.76949,-0.26598c0.71094,-0.10163 1.45017,-0.15408 2.16725,-0.14548c0.34657,0.13179 0.33065,0.5086 0.11802,0.75175c-0.3578,0.40914 -0.83956,0.62882 -1.36842,0.71021c-0.90482,0.16425 -1.73858,0.0969 -2.53532,-0.34914c-0.21189,-0.14899 -0.41457,-0.32453 -0.36324,-0.58809c-0.00458,-0.01119 -0.00692,-0.02493 -0.00562,-0.04179c0.00647,-0.08409 0.09055,-0.07762 0.09055,-0.07762c0.0123,0.00097 0.02469,0.00184 0.03715,0.00259l0.00034,-0.00021c0,0 0.04964,-0.02708 0.0898,0.00376zM123.51848,251.61318l-0.00516,0.00214c-0.02332,0.15887 0.19604,0.31179 0.30843,0.39001c0.75611,0.42723 1.55771,0.48216 2.41759,0.32556c0.42895,-0.06597 0.87689,-0.22573 1.17835,-0.55633c0.11331,-0.12426 0.38687,-0.47075 0.0707,-0.57317c-0.70277,0.01162 -1.41333,0.04626 -2.11096,0.14586c-0.56164,0.10188 -1.28083,0.2886 -1.85895,0.26593z" fill="#6af2e7" stroke="none" stroke-width="0.5"/><path d="M125.37411,251.3395c0.69763,-0.0996 1.41955,-0.12903 2.12232,-0.14065c0.31618,0.10242 0.043,0.4513 -0.07031,0.57556c-0.30147,0.33061 -0.75121,0.49573 -1.18016,0.5617c-0.85988,0.1566 -1.67648,0.0974 -2.43259,-0.32983c-0.11238,-0.07822 -0.33176,-0.23288 -0.30845,-0.39174l0.00516,-0.00215c0.57811,0.02267 1.30239,-0.17101 1.86403,-0.27289z" data-paper-data="{&quot;noHover&quot;:false,&quot;origItem&quot;:[&quot;Path&quot;,{&quot;applyMatrix&quot;:true,&quot;segments&quot;:[[[343.92669,148.61766],[3.42749,0.13441],[0,0]],[[343.89611,148.63033],[0,0],[-0.13824,0.94189]],[[345.7247,150.94262],[-0.66629,-0.46375],[4.48278,2.53292]],[[360.05797,152.87278],[-5.09799,0.92845],[2.54315,-0.39112]],[[367.04413,149.57442],[-1.78731,1.96008],[0.67178,-0.73672]],[[367.46328,146.17626],[1.87453,0.6072],[-4.16656,0.06888]],[[354.94792,147.04105],[4.13609,-0.5905],[-3.32984,0.60403]]],&quot;closed&quot;:true,&quot;fillColor&quot;:[0,0,0,1]}]}" fill="#b5f2ed" stroke="none" stroke-width="0.5"/><path d="M125.22408,255.90993c-0.00673,-0.00379 -0.01083,-0.00806 -0.01083,-0.00806l-0.04411,-0.04844c-0.01288,-0.06094 -0.18129,-0.51435 0.05513,-0.45555c0.08574,0.02133 0.25163,0.31603 0.35368,0.37904c0.39457,0.24711 0.73693,-0.13346 0.93299,-0.44289c0.20069,-0.19528 0.5153,-0.19591 0.41005,0.15762c-0.07264,0.24399 -0.2939,0.32821 -0.46629,0.49338c-0.41504,0.25944 -0.86764,0.30518 -1.22297,-0.06397c0,0 -0.0041,-0.00426 -0.00764,-0.01113z" fill="#ffffff" stroke="none" stroke-width="0.5"/><path d="M128.8772,251.04242c-0.02367,-0.22064 0.19691,-1.28045 0.19691,-1.4771c0,0 0,-0.08433 0.08433,-0.08433c0.03298,0 0.02716,0.02757 0.03038,0.05362c0.00502,0.04056 0.00561,0.08625 0.00561,0.08625c0.02449,0.38157 -0.09191,1.46759 -0.1624,1.76671c-0.01784,0.07572 -0.04098,0.31871 -0.00471,0.53587c0.04974,0.29777 0.17189,0.58629 0.21376,0.68725c0.09004,0.21711 0.11381,0.26695 0.1579,0.47697c0.01661,0.07912 0.0851,0.22378 0.09498,0.4131c0.00734,0.14075 -0.04002,0.34442 -0.04673,0.36111c-0.20849,0.51918 -0.40655,0.93607 -0.48359,1.51277c-0.05032,0.26763 -0.13672,0.65094 -0.00328,0.90166c0.04595,0.08633 0.10762,0.14628 0.16661,0.21073c0.10783,0.11782 0.20666,0.23164 0.18399,0.41449c-0.00346,0.0279 -0.00975,0.05759 -0.01926,0.08939c0,0 0.02399,0.08874 -0.05662,0.06393c-0.08061,-0.0248 -0.0802,-0.10541 -0.0802,-0.10541c0.08193,-0.25722 -0.17953,-0.37828 -0.2926,-0.58207c-0.15598,-0.28111 -0.12198,-0.71571 -0.06519,-1.01943c0.08395,-0.6308 0.29546,-1.13142 0.52681,-1.70999l0.00187,-0.06619c0,-0.13586 -0.06126,-0.32854 -0.14192,-0.54691c-0.11778,-0.31884 -0.27694,-0.69242 -0.34719,-1.02378c-0.09801,-0.46231 0.05423,-0.83074 0.04051,-0.95865z" fill="#9e9215" stroke="none" stroke-width="0.5"/><path d="M114.3938,255.37287c0.00008,-0.00162 0.00026,-0.00428 0.00071,-0.00765c0.00759,-0.16521 0.06624,-0.5461 -0.09041,-0.63676c-0.34306,-0.19856 -0.81283,0.22165 -0.95332,0.49001c-0.13871,0.2928 -0.26472,0.66599 -0.18737,0.9965c0.10006,0.42758 0.63524,0.32823 0.82633,0.07333c0.20257,-0.28294 0.28841,-0.58965 0.40407,-0.91542zM114.54761,255.44376c-0.11913,0.33652 -0.2124,0.65029 -0.42178,0.94416c-0.27648,0.36847 -0.98623,0.43128 -1.12644,-0.13359c-0.09104,-0.36676 0.04627,-0.78562 0.2006,-1.11145c0.1773,-0.33181 0.93146,-0.94898 1.27665,-0.4688c0.1409,0.19599 0.08577,0.49408 0.08577,0.71997c0,0 0,0.02643 -0.0148,0.0497z" fill="#fffc51" stroke="none" stroke-width="0.5"/><path d="M114.40126,255.39128c-0.11916,0.33565 -0.21324,0.66287 -0.42195,0.95439c-0.09109,0.1215 -0.2599,0.20825 -0.42524,0.22277c-0.19204,0.01686 -0.37938,-0.06371 -0.43478,-0.30043c-0.07969,-0.34053 0.0497,-0.73697 0.19262,-1.03864c0.14475,-0.2765 0.63981,-0.71111 0.99327,-0.50654c0.1614,0.09341 0.1046,0.49026 0.09678,0.66048c-0.00046,0.00348 -0.00062,0.0063 -0.0007,0.00797z" data-paper-data="{&quot;noHover&quot;:false,&quot;origItem&quot;:[&quot;Path&quot;,{&quot;applyMatrix&quot;:true,&quot;segments&quot;:[[[579.65756,341.81574],[0,0],[0.0009,-0.01922]],[[579.66594,341.72498],[-0.00528,0.04008],[0.09002,-1.95902]],[[578.59386,334.17458],[1.85746,1.07506],[-4.06786,-2.3544]],[[567.2899,339.98488],[1.66584,-3.1821],[-1.6448,3.47186]],[[565.06814,351.8009],[-0.9171,-3.91902],[1.18646,5.07]],[[574.86632,352.6704],[-2.2658,3.02254],[2.40198,-3.3549]],[[579.65756,341.81576],[-1.37138,3.8629],[0,0]]],&quot;closed&quot;:true,&quot;fillColor&quot;:[0,0,0,1]}]}" fill="#a8be04" stroke="none" stroke-width="0.5"/><path d="M111.21162,243.51813l0.89124,-1.15804l4.39692,-0.58453c0,0 -0.532,0.50097 -0.68364,0.61067c-0.20653,0.1494 -0.58713,0.51122 -0.58713,0.51122c0,0 -1.44611,0.62603 -1.97556,0.72442c-0.43595,0.08101 -1.77072,-0.03144 -1.77072,-0.03144z" fill="#fffd4d" stroke="#fffd4d" stroke-width="0.5"/><path d="M111.14332,243.66892c0.02667,-0.08001 0.10667,-0.05334 0.10667,-0.05334l0.00948,0.00772c0.56621,0 1.1339,0.11589 1.70077,0.0462c0.80101,-0.16045 1.63637,-0.36664 2.30161,-0.86396c0.48004,-0.267 1.07235,-0.87236 1.1925,-1.42949c0,0 0.0183,-0.08233 0.10062,-0.06403c0.08233,0.01829 0.06403,0.10062 0.06403,0.10062c-0.13682,0.6009 -0.74095,1.24341 -1.26538,1.53442c-0.68072,0.51236 -1.54539,0.72498 -2.3666,0.88897c-0.57694,0.07004 -1.15171,-0.04406 -1.72755,-0.04406l-0.06282,-0.01637c0,0 -0.08001,-0.02667 -0.05334,-0.10668z" fill="#000000" stroke="none" stroke-width="0.5"/><path d="M127.74205,243.83403c-0.55266,-0.11377 -1.72991,-0.4159 -1.72991,-0.4159c0,0 -1.03495,-0.756 -1.25053,-0.92875c-0.15829,-0.12684 -0.48169,-0.61157 -0.48169,-0.61157l4.03879,0.35363l1.24217,1.49242c0,0 -1.36377,0.20385 -1.81883,0.11017z" data-paper-data="{&quot;index&quot;:null}" fill="#fffd4d" stroke="#fffd4d" stroke-width="0.5"/><path d="M129.46789,243.86344l-0.06281,0.01638c-0.57584,0 -1.15061,0.1141 -1.72755,0.04406c-0.82121,-0.164 -1.68588,-0.37661 -2.3666,-0.88897c-0.52444,-0.29101 -1.12856,-0.93352 -1.26538,-1.53442c0,0 -0.01829,-0.08233 0.06403,-0.10062c0.08233,-0.01829 0.10062,0.06403 0.10062,0.06403c0.12014,0.55713 0.71246,1.16249 1.1925,1.42949c0.66524,0.49732 1.50061,0.70351 2.30161,0.86396c0.56686,0.0697 1.13456,-0.0462 1.70077,-0.0462l0.00948,-0.00772c0,0 0.08001,-0.02667 0.10668,0.05334c0.02667,0.08001 -0.05334,0.10668 -0.05334,0.10668z" data-paper-data="{&quot;index&quot;:null}" fill="#000000" stroke="none" stroke-width="0.5"/><path d="M112.07787,256.94837c0,0 -0.11593,-0.2763 -0.11616,-0.37171c-0.0003,-0.12555 0.11451,-0.3163 0.11451,-0.3163c0,0 -0.10727,0.00102 0.05824,0.00247c0.15436,0.00136 0.21837,-0.01166 0.72933,0.0626c0.15818,0.02299 0.61487,0.30655 0.80368,0.30819c0.10963,0.00095 0.58095,-0.37033 0.69923,-0.36966c4.2916,0.02436 13.70681,0.13696 13.70681,0.13696l0.61828,0.0228c0,0 0.04041,0.01948 0.10834,0.10711c0.05,0.0645 0.16152,0.06442 0.22592,0.15065c0.07541,0.10097 0.32068,0.28914 0.28183,0.36977c-0.0634,0.13158 -0.50899,0.35013 -0.60886,0.46166c-0.115,0.12842 -0.26393,0.14436 -0.48807,0.16137c-0.21615,0.01641 -0.50498,0.03872 -0.75585,-0.09699c-0.09837,-0.05322 -0.33613,-0.28457 -0.57415,-0.35791c-0.22408,-0.06904 -0.65391,-0.03566 -0.82991,-0.03518c-0.01284,0.00003 -0.07677,0.0318 -0.08613,0.03204c-0.06435,0.00162 -0.05396,0.00605 -0.09945,0.0409c-0.11545,0.08846 -0.24655,0.17378 -0.33372,0.14414c-0.11329,-0.03852 -0.51775,-0.28786 -0.70157,-0.24747c-0.34767,0.07641 -0.80209,0.29814 -1.45181,0.31559c-0.18261,0.0049 -1.10071,-0.27104 -1.29202,-0.26554c-0.20331,0.00584 -0.49437,0.12271 -0.70379,0.12521c-0.4717,0.00564 -1.00977,-0.18271 -1.49189,-0.17039c-0.68508,0.01751 -1.07555,0.48183 -1.71353,0.47984c-0.35591,-0.00111 -0.83921,-0.42492 -1.19795,-0.41136c-0.46565,0.0176 -0.93201,0.23281 -1.26011,0.30608c-0.31804,0.07103 -0.66506,0.02102 -0.98529,0.02566c-0.16774,0.00243 -0.43458,-0.37325 -0.60646,-0.36174c-0.31022,0.02077 -0.38972,0.21687 -0.58319,0.33023c-0.18748,0.10985 -0.49055,0.13685 -0.68588,0.16836c-0.14143,0.02282 -0.22553,-0.08984 -0.32041,-0.15035c-0.09994,-0.06373 -0.20694,-0.07613 -0.20694,-0.07613z" fill="#fffd4d" stroke="none" stroke-width="0"/><path d="M117.06736,257.11356c0.46444,0.18736 1.05431,0.65229 1.58099,0.38781c0.21593,-0.07028 0.33101,-0.26766 0.54398,-0.33441c0.4495,-0.14088 1.03446,-0.01148 1.49112,0.02027c0.18091,0.03185 0.43708,0.14702 0.62337,0.11133c0.281,-0.05383 0.47887,-0.23558 0.78853,-0.20656c0.28491,0.0267 0.49751,0.18731 0.75718,0.28152c0.28211,0.103 0.64143,0.09789 0.93608,0.02955l0.01708,-0.00852c0.31346,-0.17093 0.60404,-0.26036 0.90331,-0.30712c0.30984,-0.04841 0.46031,0.24411 0.82383,0.24411c0.16963,0 0.55601,-0.32274 0.76298,-0.32119c0.1608,0.0012 0.31513,0.01997 0.4354,0.08287c0.42675,0.22317 0.52937,0.48689 1.06908,0.48689c0.44512,0 1.22834,-0.12533 1.36375,-0.63184c0,0 0.00593,-0.0895 0.08729,-0.0673c0.08136,0.02219 0.05917,0.10355 0.05917,0.10355c-0.16278,0.58722 -0.77925,0.75613 -1.30693,0.75613c-0.1761,0 -0.49846,-0.00584 -0.66056,-0.08972c-0.24282,-0.12564 -0.49659,-0.37455 -0.75879,-0.44072c-0.08799,-0.02221 -0.18134,-0.03374 -0.2767,-0.03923c-0.19247,-0.01109 -0.57232,0.33978 -0.75362,0.33978c-0.35038,0 -0.49486,-0.32849 -0.79893,-0.27556c-0.28048,0.04883 -0.54269,0.13516 -0.8298,0.28664c-0.0132,0.01478 -0.02799,0.02217 -0.02799,0.02217l-0.03308,0.01429c-0.00577,0.00143 -0.01155,0.00283 -0.01736,0.00421l-0.01041,0.00522c0,0 -0.02469,0.01234 -0.05288,0.00879c-0.31821,0.06522 -0.68814,0.06436 -0.98858,-0.04449c-0.24364,-0.08878 -0.44716,-0.24697 -0.71345,-0.27194c-0.2895,-0.02715 -0.47925,0.15789 -0.74536,0.20458c-0.21379,0.03751 -0.46546,-0.07327 -0.67332,-0.11005c-0.427,-0.03127 -0.99977,-0.16306 -1.41853,-0.02717c-0.20026,0.06498 -0.32142,0.25831 -0.53132,0.32975c-0.58163,0.28961 -1.19366,-0.18328 -1.70818,-0.38704c0,0 -0.00172,-0.00069 -0.00455,-0.00211l-0.01775,-0.00075c-0.6568,0.09923 -1.21906,0.42568 -1.88332,0.42568c-0.19997,0 -0.4279,0.02581 -0.60994,-0.0737c-0.12563,-0.06868 -0.16888,-0.32005 -0.31021,-0.29712c-0.26957,0.04374 -0.57857,0.30712 -0.86265,0.38527c-0.88004,0.29373 -1.4642,-0.41393 -1.4642,-1.25542c0,-0.41922 0.42932,-1.3259 0.06988,-1.66628c0,0 -0.05963,-0.05963 0,-0.11927c0.05963,-0.05964 0.11927,0 0.11927,0c0.42414,0.44018 -0.02048,1.26708 -0.02048,1.78555c0,0.73399 0.47483,1.35095 1.24666,1.09399c0.23823,-0.06435 0.70371,-0.41612 0.92652,-0.39184c0.12917,0.01407 0.25217,0.24676 0.37654,0.31735c0.14909,0.08462 0.3644,0.05281 0.52862,0.05281c0.65046,0 1.2124,-0.32287 1.85767,-0.42372l0.04897,-0.00098c0,0 0.01812,0 0.03757,0.0084c0.01416,0.00159 0.02405,0.00554 0.02405,0.00554z" fill="#9e9215" stroke="none" stroke-width="0.5"/><path d="M122.4978,255.35974l0.05564,0.07451c0.36382,0.65276 0.83079,-0.01765 0.83079,-0.50376c0,0 0,-0.08434 0.08433,-0.08434c0.08433,0 0.08434,0.08434 0.08434,0.08434c0,0.64286 -0.68919,1.41154 -1.14097,0.59553l-0.04905,-0.06508c0,0 -0.0506,-0.06747 0.01687,-0.11807c0.06747,-0.0506 0.11807,0.01687 0.11807,0.01687z" data-paper-data="{&quot;index&quot;:null}" fill="#000000" stroke="none" stroke-width="0.5"/><path d="M120.03196,256.27468c0.63975,0.10696 0.63719,-1.05728 0.63245,-1.32509c-0.00209,-0.1181 -0.13093,-0.43162 0.06046,-0.43162c0.12769,0 0.10822,0.80085 0.10821,0.81949c-0.00038,0.48295 -0.23437,1.06463 -0.79085,1.10592c-0.61486,0.04561 -0.67451,-0.77521 -0.619,-1.16804c0.00506,-0.0358 0.01947,-0.24635 0.03241,-0.35696c0.00003,0.08596 0.00765,0.16999 0.02759,0.24763c0.00983,0.03828 0.02684,0.06402 0.04809,0.07966c0.01124,0.08906 0.02521,0.16869 0.04106,0.23389c0.00171,0.12543 0.01589,0.24193 0.05081,0.3387c0.01642,0.22258 0.10836,0.40619 0.40877,0.45641z" fill="#000000" stroke="none" stroke-width="0.5"/><path d="M117.75022,255.22887c0.06747,0.0506 0.01687,0.11807 0.01687,0.11807l-0.04906,0.06508c-0.45179,0.816 -1.14097,0.04733 -1.14097,-0.59553c0,0 0,-0.08434 0.08433,-0.08434c0.08433,0 0.08434,0.08434 0.08434,0.08434c0,0.48612 0.46696,1.15652 0.83079,0.50376l0.05564,-0.07451c0,0 0.0506,-0.06747 0.11807,-0.01687z" fill="#000000" stroke="none" stroke-width="0.5"/><path d="M127.25768,253.23798c0.12033,0.16385 0.18982,0.46907 0.18982,0.66636c0.00175,0.05438 -0.05996,0.20912 -0.1246,0.29767c-0.01548,0.0212 -0.10677,-0.33885 -0.26987,-0.58693c-0.10003,-0.15214 -0.21533,-0.3148 -0.28141,-0.3995c-0.04829,-0.06189 -0.07393,-0.06038 -0.03011,-0.09081c0.05852,-0.04065 0.15561,-0.06629 0.24567,-0.05198c0.10972,0.01743 0.21279,0.08661 0.27049,0.16519z" data-paper-data="{&quot;noHover&quot;:false,&quot;origItem&quot;:[&quot;Path&quot;,{&quot;applyMatrix&quot;:true,&quot;segments&quot;:[[[723.23608,319.06042],[1.07562,-3.88598],[0,0]],[[723.24856,319.07956],[0,0],[1.21194,2.42778]],[[730.527,328.84956],[-2.40842,-0.9944],[1.6394,0.67688]],[[733.53132,325.17416],[0.04746,1.4713],[0,-2.33936]],[[732.13174,316.58186],[1.42686,1.94284],[-3.18056,-4.33076]]],&quot;closed&quot;:true,&quot;fillColor&quot;:[0,0,0,1]}]}" fill="#a8be04" stroke="none" stroke-width="0.5"/><g><path d="M124.92096,256.05079c-0.12891,0.00972 -0.1384,-0.12198 -0.1384,-0.12198l-0.00983,-0.13624c-0.02688,-0.37256 -0.06598,-0.70969 -0.24081,-1.04352c-0.40603,-0.99166 -0.78771,-2.24219 -1.76641,-2.80731c-0.72704,-0.499 -1.97794,-0.38873 -2.83831,-0.32295c-0.02919,0.01593 -0.05765,0.01808 -0.05765,0.01808l-0.016,0.00075c-0.67077,0.10495 -1.09028,0.553 -1.35684,1.14405c-0.43339,0.95259 -0.54991,2.00735 -0.93624,2.96937c0,0 -0.04915,0.12214 -0.1687,0.07192c-0.11954,-0.05021 -0.07039,-0.17235 -0.07039,-0.17235c0.38906,-0.96456 0.50844,-2.02228 0.94074,-2.97989c0.3031,-0.66544 0.78308,-1.15669 1.5237,-1.28924c0.0312,-0.01917 0.06375,-0.02162 0.06375,-0.02162c0.92313,-0.0695 2.25173,-0.18276 3.05127,0.35687c1.02443,0.59152 1.44038,1.87772 1.86459,2.91899c0.19023,0.3623 0.23597,0.73327 0.26512,1.13745l0.00983,0.13624c0,0 0.0095,0.1317 -0.11941,0.14139z" fill="#000000" stroke="none" stroke-width="0.5"/><path d="M120.2824,254.01613c0.00644,0.00368 0.01266,0.00759 0.01869,0.01173c-0.05499,0.15887 -0.00441,0.41676 -0.01585,0.60063c-0.00081,0.00896 -0.00154,0.01803 -0.00222,0.02719c-0.03244,0.31646 -0.15658,0.81253 -0.05869,1.19358c0.02571,0.10006 0.08808,0.13606 0.15772,0.13246c0.00997,0.246 0.01707,0.50397 0.0004,0.72049c-0.00457,0.0594 -0.03386,0.1128 -0.1128,0.1128c-0.15059,0 -0.16315,-0.58619 -0.13088,-1.4261c0.00701,-0.18243 -0.02301,-1.27757 0.04644,-1.31726z" fill="#000000" stroke="none" stroke-width="0.5"/><path d="M120.13607,254.57753c0.01152,-0.13206 0.02536,-0.49553 0.01946,-0.63272c-0.0039,-0.09093 0.01435,-0.09353 0.02694,-0.11098c0.05528,-0.07662 0.21147,-0.03468 0.21152,0.07574c0.00023,0.73222 -0.06872,1.46809 0.00412,2.19666c0.00047,0.00418 0.00071,0.00843 0.00071,0.01274c0,0.01151 -0.00173,0.02263 -0.00494,0.03311c-0.11623,0.77131 -0.20347,0.63917 -0.24094,0.21319c-0.02455,-0.27908 -0.01669,-0.68428 -0.02015,-1.04418c-0.00332,-0.34503 -0.00754,-0.61945 0.00329,-0.74355z" fill="#000000" stroke="none" stroke-width="0.5"/><path d="M107.84397,238.65467c-0.11012,0.02446 -0.13459,-0.08564 -0.13459,-0.08564l-0.01951,-0.08971c-0.04006,-0.39807 -0.47705,-0.59181 -0.66299,-0.91188c-0.27451,-0.47256 -0.05979,-1.06662 -0.05915,-1.58993c0.14672,-1.24868 1.32911,-1.15729 2.26251,-1.01153c0.7426,0.22663 1.61951,0.71163 2.40854,0.46524c0,0 0.02311,-0.00711 0.05124,-0.00406l0.02576,-0.01376c0.24817,-0.07599 0.48404,-0.19991 0.70216,-0.33942c0.99049,-0.41362 1.94857,-0.96848 3.08014,-0.59196c0.36238,0.09162 0.79818,0.42209 1.30948,0.59647c0.44098,0.15039 0.98766,0.15165 1.00647,0.17373c0.2004,-0.00353 0.35484,-0.07909 0.53515,-0.16894c1.07973,-0.38648 1.84243,-0.75662 2.98716,-0.37594c0.87636,0.36451 1.49945,0.42751 2.4031,0.14922c0,0 0.04544,-0.01398 0.08639,0.00571c0.82105,-0.15621 1.27298,-0.3959 2.13129,-0.39407c0.48451,0.06851 1.21785,0.27065 1.72625,0.37113c0.25545,0.05049 0.53469,0.04511 0.53469,0.04511c0.36571,-0.00513 1.22735,-0.40609 1.57275,-0.41528c0.46807,-0.01246 0.55809,0.07882 0.97634,0.17518c0.45189,0.14437 0.86855,0.2831 1.32425,0.28439c0.01596,-0.01578 0.03175,-0.02369 0.03175,-0.02369c0.7566,-0.37783 1.66885,-0.74108 2.44537,-0.22517c0.78958,0.5083 1.07859,1.72677 0.67164,2.54065c-0.16851,0.33679 -0.68766,1.08167 -0.66184,1.49489c0.033,0.01617 0.05141,0.04611 0.05141,0.04611c0.15959,0.26442 0.23028,0.57963 0.24231,0.90917c0.00841,0.02055 0.01289,0.04688 0.00174,0.07513c0.00557,0.55566 -0.14717,1.14383 -0.31571,1.59298c-0.12694,0.29207 -0.23126,0.59678 -0.32793,0.90266c0.00735,0.00485 -0.09136,0.29494 -0.09756,0.31531c-0.15276,0.68143 -0.47582,1.33415 -0.57353,2.02245c-0.0609,0.429 0.00227,0.91589 0.00024,1.3485c0.21026,0.82706 -0.22395,0.32604 -0.0906,1.48693c0.00693,0.06028 -0.2817,0.77028 -0.24349,0.82629c0,0 0.06946,0.6469 -0.02441,0.70947c-0.09386,0.06257 -0.08214,0.08427 -0.08214,0.08427c-0.14169,-0.21652 0.12005,-1.47992 0.13365,-1.56568c0.04061,-0.25586 0.2655,-0.38427 0.25291,-0.53656c-0.0283,-0.34245 -0.06991,-0.57118 -0.16986,-0.97716c-0.00485,-1.1885 0.19473,-2.16328 0.52636,-3.26807l0.00303,-0.02565c0.14605,-0.47137 0.28689,-0.95382 0.48417,-1.40736c0.15475,-0.41297 0.31178,-0.98916 0.3052,-1.52128l-0.01921,-0.0338c-0.02411,-0.32587 -0.23651,-0.59856 -0.27508,-0.90865c-0.06127,-0.49276 0.46712,-1.24775 0.67852,-1.67082c0.35363,-0.70726 0.10592,-1.81216 -0.593,-2.25072c-0.68472,-0.45819 -1.50704,-0.11693 -2.17791,0.21627c-0.02473,0.04882 -0.08422,0.05874 -0.08422,0.05874l-0.07197,0.01045c-0.47366,0 -1.09473,-0.27206 -1.56444,-0.3056c-0.37548,-0.08678 -0.89528,-0.11315 -1.35876,0.0012c-0.26408,0.06515 -0.74816,0.28954 -0.74816,0.28954c-0.71761,0.16325 -1.69544,-0.33025 -2.49874,-0.44627c-0.87169,0.00211 -1.32619,0.24629 -2.16834,0.40866c0,0 -0.02693,0.00512 -0.05677,-0.00294c-0.90243,0.26065 -1.56869,0.19125 -2.45882,-0.18035c-1.08298,-0.36181 -1.79786,0.00814 -2.8195,0.37216c-0.21347,0.10712 -0.39986,0.18654 -0.64098,0.18717l-0.0783,-0.01005c0,0 -0.02031,-0.00291 -0.04237,-0.01489c-0.75753,0.10441 -1.52546,-0.57771 -2.24112,-0.75438c-1.06501,-0.35564 -1.98075,0.18788 -2.91228,0.57513c-0.22898,0.148 -0.82985,0.40939 -0.87866,0.39034c-0.82437,0.21612 -1.69112,-0.23817 -2.46427,-0.47826c-0.78079,-0.11798 -1.86073,-0.26526 -1.98681,0.80482c0.00064,0.48013 -0.21871,1.0302 0.02983,1.46483c0.21091,0.36884 0.61955,0.53489 0.69072,0.99397l0.01612,0.0706c0,0 0.02448,0.11012 -0.08564,0.13459z" fill="#9e9215" stroke="none" stroke-width="0.5"/><path d="M110.45099,255.79707c-0.11012,0.02446 -0.13459,-0.08564 -0.13459,-0.08564l-0.01879,-0.09136c-0.22545,-0.56389 -0.8542,-0.69215 -1.09959,-1.28045c-0.38794,-0.9708 0.51778,-1.54272 0.29088,-2.44793c0,0 -0.00309,-0.01006 -0.00197,-0.0854c0.00032,-0.02119 -0.01722,-0.05663 -0.01209,-0.08739c-0.0874,-0.62756 -0.80972,-3.41249 -1.07065,-3.94197c-0.01218,-0.05158 -0.05662,-0.48998 -0.07171,-0.57099c-0.0242,-0.12982 -0.10767,0.11378 -0.05095,0.03546c0.13511,-0.18659 0.76013,1.78495 0.96222,1.75133c0.60622,-0.10083 1.17503,-0.17525 1.76205,-0.34964c-0.06946,-0.45656 -0.65778,-0.72536 -1.00628,-0.99672c-0.01247,-0.00629 -0.02221,-0.01459 -0.02986,-0.02375c-0.00463,-0.00375 -0.00919,-0.00752 -0.01371,-0.01128c0,0 -0.08667,-0.07221 -0.01444,-0.15888c0.00019,-0.00024 0.00039,-0.00047 0.00059,-0.0007c0.00068,-0.65202 0.0313,-1.27762 0.1425,-1.91944c-0.01253,-0.03232 -0.00761,-0.06425 -0.00761,-0.06425l0.01683,-0.10722c-0.00107,-0.34837 0.15406,-0.77948 -0.25194,-0.87018c-1.21511,-0.28686 -1.63273,-0.77648 -2.07732,-1.8513c-0.01725,-0.01979 -0.02458,-0.04031 -0.02458,-0.04031c-0.30977,-0.8742 -0.05012,-1.72838 0.21132,-2.57969c0.15765,-0.6279 -0.0318,-1.03536 -0.26389,-1.59119c-0.01793,-0.02312 -0.05585,-0.08677 0.0078,-0.15041c0.07976,-0.07977 0.15954,0 0.15954,0l0.03327,0.04527c0.25486,0.61168 0.45077,1.07374 0.28062,1.75688c-0.23655,0.76726 -0.49078,1.55377 -0.24975,2.34233c0.00364,0.00656 0.00538,0.01088 0.00538,0.01088c0.43857,1.09685 0.77846,1.55859 1.96961,1.83799c0.5648,0.14104 0.42618,0.62981 0.42492,1.10694l-0.00192,0.01271c0.01635,0.03568 0.00923,0.0737 0.00923,0.0737c-0.12662,0.67417 -0.15837,1.32635 -0.15837,2.00976v0.01783c0.40216,0.31178 0.9766,0.58596 1.06032,1.11198c0.04934,0.05594 0.02367,0.1107 0.00571,0.13667c-0.00642,0.03184 -0.02825,0.08648 -0.10241,0.09002l-0.01941,0.01607c-0.54163,0.16475 -1.05024,0.24521 -1.60921,0.33346c-0.15358,0.02425 -0.92255,-1.95694 -1.02819,-1.82198c-0.04297,0.05491 0.03103,0.30272 0.04527,0.3665c0.30769,0.60411 1.16227,3.4609 1.16406,4.14014c0,0 0.01482,0.05277 0.00815,0.13999c0.07921,0.81276 -0.63181,1.38364 -0.28512,2.24946c0.24176,0.58091 0.867,0.6992 1.10019,1.28194l0.02957,0.1262c0,0 0.02448,0.11012 -0.08564,0.13459z" fill="#9e9215" stroke="none" stroke-width="0.5"/><path d="M117.09637,237.2788c-0.1128,0 -0.1128,-0.1128 -0.1128,-0.1128v-0.11282c0,-0.1712 -0.03613,-0.3184 -0.0376,-0.48887c0.00483,-0.78048 -1.27886,-0.64702 -1.59842,-0.16306c0,0 -0.06257,0.09386 -0.15643,0.03129c-0.09386,-0.06257 -0.03129,-0.15643 -0.03129,-0.15643c0.44083,-0.65591 2.00647,-0.73615 2.01176,0.28821c-0.00183,0.16653 0.0376,0.31886 0.0376,0.48887v0.11282c0,0 0,0.1128 -0.1128,0.1128z" fill="#000000" stroke="none" stroke-width="0.5"/><path d="M125.39251,237.45245c-0.1128,0 -0.11281,-0.1128 -0.11281,-0.1128l0.00154,-0.01907c-0.04416,-0.27015 -0.00244,-0.53659 -0.00008,-0.80749c0.28238,-0.86475 1.71976,-0.73546 2.21123,-0.12761c0,0 0.07047,0.08808 -0.01761,0.15856c-0.08809,0.07047 -0.15856,-0.01761 -0.15856,-0.01761c-0.35577,-0.4506 -1.5847,-0.63787 -1.81237,0.02281c0.00253,0.24577 -0.04186,0.48906 -0.00008,0.73427l0.00154,0.05615c0,0 0,0.1128 -0.1128,0.1128z" fill="#000000" stroke="none" stroke-width="0.5"/><path d="M113.048,253.03536c-0.01715,-0.00082 -0.02909,-0.0044 -0.02909,-0.0044c-0.42455,-0.13266 -1.03159,0.49899 -0.65685,0.86851c0.15995,0.15772 0.44823,0.31786 0.63649,0.15076c0.31008,-0.18233 0.22939,-0.71473 0.07036,-0.99119zM113.09652,252.81992c0.05796,-0.00753 0.09956,0.0424 0.09956,0.0424l0.07004,0.08715c0.20883,0.38574 0.27997,1.03038 -0.13878,1.286c-0.29102,0.21693 -0.71453,0.0737 -0.94361,-0.19779c-0.49023,-0.58101 0.27965,-1.40305 0.90001,-1.22279c0,0 0.00511,0.00153 0.01277,0.00504z" fill="#fffc51" stroke="none" stroke-width="0.5"/><path d="M113.07519,253.04967c0.15903,0.27648 0.23895,0.82806 -0.07114,1.0104c-0.18824,0.16711 -0.49041,0.00471 -0.65035,-0.153c-0.37472,-0.36953 0.24604,-1.01867 0.67058,-0.886c0,0 0.01238,0.00384 0.02953,0.00464z" data-paper-data="{&quot;noHover&quot;:false,&quot;origItem&quot;:[&quot;Path&quot;,{&quot;applyMatrix&quot;:true,&quot;segments&quot;:[[[576.38862,314.41816],[0,0],[-0.152,-0.00718]],[[576.13068,314.37918],[0,0],[-3.76354,-1.17598]],[[570.3078,322.07832],[-3.32192,-3.2757],[1.41786,1.39814]],[[575.95014,323.41476],[-1.66872,1.48136],[2.74878,-1.61636]],[[576.57382,314.62794],[1.40976,2.45092],[0,0]]],&quot;closed&quot;:true,&quot;fillColor&quot;:[0,0,0,1]}]}" fill="#a8be04" stroke="none" stroke-width="0.5"/><path d="M110.17772,236.62511c-0.00045,0.00014 -0.0007,0.00019 -0.0007,0.00019c-0.56371,0.12425 -0.9427,1.37321 -0.49039,1.78113c0.11929,0.10757 0.42115,0.08788 0.57243,0.09354c0.58424,-0.36496 0.64763,-1.69253 -0.08097,-1.87467zM110.05312,236.4294c0.05167,-0.09 0.147,-0.04233 0.147,-0.04233l0.03271,0.01937c0.97272,0.24318 0.85798,1.85774 0.08646,2.31098c-0.22094,0.00533 -0.58236,0.02412 -0.76698,-0.12969c-0.61766,-0.5146 -0.17524,-1.89302 0.50078,-2.1583z" fill="#fffc51" stroke="none" stroke-width="0.5"/><path d="M110.17907,236.61405c0.72859,0.18215 0.66616,1.53209 0.08192,1.89704c-0.15128,-0.00566 -0.46001,0.01305 -0.5793,-0.09453c-0.45232,-0.40793 -0.06744,-1.67825 0.49627,-1.80251c0,0 0.00025,-0.00005 0.0007,-0.00019z" data-paper-data="{&quot;noHover&quot;:false,&quot;origItem&quot;:[&quot;Path&quot;,{&quot;applyMatrix&quot;:true,&quot;segments&quot;:[[[550.94398,168.94384],[0,0],[-0.004,0.00112]],[[550.93786,168.94548],[0,0],[-4.99722,1.10148]],[[546.59068,184.73494],[-4.0097,-3.61618],[1.0574,0.95362]],[[551.66524,185.56418],[-1.34108,-0.05018],[5.17926,-3.23526]],[[550.94754,168.94548],[6.4589,1.61474],[0,0]]],&quot;closed&quot;:true,&quot;fillColor&quot;:[0,0,0,1]}]}" fill="#a8be04" stroke="none" stroke-width="0.5"/><path d="M131.83252,236.15665c-0.01001,0.00159 -0.0166,0.00159 -0.0166,0.00159c-1.00569,-0.00677 -0.00406,1.58477 0.57125,0.76464c0.14398,-0.44264 -0.1737,-0.49092 -0.44415,-0.69058l-0.05902,-0.02671c0,0 -0.03264,-0.01631 -0.05151,-0.04895zM131.91764,235.99168c0.03625,-0.00339 0.06728,0.01213 0.06728,0.01213l0.09906,0.05232c0.3324,0.30713 0.71023,0.36057 0.50426,0.96912c-0.88279,1.2222 -2.2189,-1.08448 -0.77231,-1.09263c0,0 0.07327,0 0.10171,0.05906z" fill="#fffc51" stroke="none" stroke-width="0.5"/><path d="M131.7653,236.16217c0.02044,0.03535 0.05699,0.05293 0.05699,0.05293l0.06558,0.02897c0.29298,0.2163 0.64675,0.28667 0.49078,0.76619c-0.62326,0.88847 -1.7212,-0.85362 -0.63171,-0.8463c0,0 0.00753,-0.00006 0.01837,-0.00179z" data-paper-data="{&quot;noHover&quot;:false,&quot;origItem&quot;:[&quot;Path&quot;,{&quot;applyMatrix&quot;:true,&quot;segments&quot;:[[[742.91028,164.79096],[0,0],[-0.08866,0.01412]],[[742.76318,164.80508],[0,0],[-8.91526,-0.05994]],[[747.82732,171.58358],[-5.10008,7.27028],[1.27638,-3.92392]],[[743.89002,165.46172],[2.39748,1.76998],[0,0]],[743.36688,165.22496],[[742.91026,164.79094],[0.16726,0.28934],[0,0]]],&quot;closed&quot;:true,&quot;fillColor&quot;:[0,0,0,1]}]}" fill="#a8be04" stroke="none" stroke-width="0.5"/><path d="M129.40734,253.46078c0.1915,-0.58914 0.93837,-0.94134 1.39234,-0.31325c0.19034,0.26335 0.20046,0.78668 0.20046,1.10116c-0.00636,0.30628 -0.29042,0.79422 -0.6565,0.62062c-0.33953,-0.16102 -0.76211,-0.87025 -0.93085,-1.20721l-0.03279,-0.04761c0,0 -0.06078,-0.09118 0.02734,-0.15371zM129.61316,253.55904l0.0014,0.00216c0.13672,0.27387 0.54936,0.98993 0.82105,1.10211c0.18493,0.07637 0.34426,-0.24863 0.33891,-0.41461c0,-0.26389 0.00307,-0.7501 -0.15788,-0.96926c-0.35879,-0.48853 -0.88214,-0.15877 -1.00348,0.2796z" fill="#fffc51" stroke="none" stroke-width="0.5"/><path d="M130.62332,253.27035c0.16095,0.21916 0.16055,0.72078 0.16055,0.98468c0.00535,0.16597 -0.16008,0.49544 -0.34501,0.4191c-0.27168,-0.11217 -0.69763,-0.84417 -0.83434,-1.11802l-0.00139,-0.00218c0.12133,-0.43835 0.66141,-0.77208 1.02019,-0.28355z" data-paper-data="{&quot;noHover&quot;:false,&quot;origItem&quot;:[&quot;Path&quot;,{&quot;applyMatrix&quot;:true,&quot;segments&quot;:[[[723.23608,319.06042],[1.07562,-3.88598],[0,0]],[[723.24856,319.07956],[0,0],[1.21194,2.42778]],[[730.527,328.84956],[-2.40842,-0.9944],[1.6394,0.67688]],[[733.53132,325.17416],[0.04746,1.4713],[0,-2.33936]],[[732.13174,316.58186],[1.42686,1.94284],[-3.18056,-4.33076]]],&quot;closed&quot;:true,&quot;fillColor&quot;:[0,0,0,1]}]}" fill="#a8be04" stroke="none" stroke-width="0.5"/><path d="M128.64757,254.77947c-0.03304,0.03992 -0.08947,0.03993 -0.08947,0.03993c-0.39137,-0.00136 -0.82477,0.58485 -0.63237,0.97878c0.15326,0.31378 0.47592,0.44978 0.79864,0.48801c0.39408,0.05904 0.4419,-1.41546 0.01716,-1.50769zM128.54825,254.59389c0.03304,-0.03993 0.08947,-0.03993 0.08947,-0.03993l0.1351,0.00109c0.64878,0.20607 0.71187,1.91216 -0.06248,1.9563c-0.40311,-0.05238 -0.812,-0.22653 -0.99307,-0.62685c-0.24567,-0.54315 0.28271,-1.28026 0.83096,-1.29062z" fill="#9966ff" stroke="none" stroke-width="0.5"/><path d="M129.27002,251.8449c-0.00021,0.0001 -0.00043,0.00021 -0.00066,0.00032l-0.00032,0.04822c0.18242,0.70466 0.647,1.28848 1.0495,1.88666c0.55744,0.79733 0.6597,2.32886 0.07178,3.13528c-0.76363,0.95181 -2.09994,0.67413 -3.10783,0.16546c-0.65132,-0.5186 -0.82378,-1.13414 -0.54876,-1.94369c0.12774,-0.37601 0.42028,-0.67969 0.51009,-1.07871c0.50038,-0.52055 1.11902,-1.23363 1.20448,-1.95702c-0.00887,-0.01415 -0.01268,-0.02559 -0.01268,-0.02559c-0.1951,-0.60455 0.29199,-0.68007 0.7773,-0.52345l0.10753,0.14118c0,0 0.05045,0.10089 -0.05045,0.15135zM128.6839,251.93513c0,0.80461 -0.65696,1.6723 -1.24114,2.22977c-0.06538,0.38889 -0.37698,0.68098 -0.49447,1.04202c-0.23326,0.71687 -0.11927,1.22114 0.4558,1.68388c0.90406,0.44651 2.12567,0.74148 2.80788,-0.11359c0.54031,-0.69229 0.42112,-2.1865 -0.07886,-2.86857c-0.4229,-0.62914 -0.9067,-1.24164 -1.08801,-1.98762l-0.00085,-0.15331c0,0 0,-0.01382 0.00484,-0.03178c-0.24793,-0.07668 -0.43377,-0.08769 -0.43542,0.09293c0.07019,0.02405 0.07019,0.10628 0.07019,0.10628z" fill="#6af2e7" stroke="none" stroke-width="0.5"/><path d="M128.71753,251.95136c0,0 -0.00045,-0.10667 -0.07191,-0.13116c0.00168,-0.1839 0.19268,-0.1726 0.4451,-0.09454c-0.00493,0.01828 -0.00493,0.03236 -0.00493,0.03236l0.00095,0.15609c0.18458,0.75946 0.6862,1.39001 1.11674,2.03049c0.50901,0.6944 0.6261,2.22956 0.07603,2.93434c-0.69454,0.87051 -1.95004,0.57073 -2.87043,0.11617c-0.58547,-0.4711 -0.70669,-0.99028 -0.46921,-1.7201c0.11961,-0.36757 0.43641,-0.67219 0.50296,-1.06811c0.59473,-0.56753 1.27456,-1.45938 1.27456,-2.27853z" data-paper-data="{&quot;noHover&quot;:false,&quot;origItem&quot;:[&quot;Path&quot;,{&quot;applyMatrix&quot;:true,&quot;segments&quot;:[[[357.49913,152.33234],[0,0],[0,3.56641]],[[351.99789,162.2156],[2.58932,-2.4709],[-0.2898,1.72374]],[[349.80623,166.83427],[0.52072,-1.60029],[-1.03391,3.17747]],[[351.82653,174.29792],[-2.54897,-2.05105],[4.00718,1.97911]],[[364.27226,173.79446],[-3.02391,3.79001],[2.39488,-3.06853]],[[363.92273,161.07974],[2.21608,3.02327],[-1.8745,-2.78859]],[[359.10024,152.26975],[0.80362,3.30652],[0,0]],[359.09649,151.59024],[[359.11793,151.44935],[-0.02144,0.07963],[-1.09895,-0.3399]],[[357.18798,151.8613],[0.00735,-0.80065],[0.31114,0.1066]],[357.49913,152.33235]],&quot;closed&quot;:true,&quot;fillColor&quot;:[0,0,0,1]}]}" fill="#b5f2ed" stroke="none" stroke-width="0.5"/><path d="M125.70532,250.87444c0.74273,0.01453 1.65696,-0.2264 2.36685,-0.35577c0.95094,-0.13593 1.93973,-0.2061 2.89888,-0.19459c0.46357,0.17628 0.44227,0.6803 0.15787,1.00554c-0.47858,0.54726 -1.12298,0.8411 -1.83038,0.94997c-1.21027,0.2197 -2.3255,0.12961 -3.39122,-0.46701c-0.28342,-0.19929 -0.55452,-0.43408 -0.48586,-0.78662c-0.00613,-0.01497 -0.00926,-0.03335 -0.00752,-0.0559c0.00866,-0.11248 0.12112,-0.10383 0.12112,-0.10383c0.01645,0.0013 0.03303,0.00246 0.04969,0.00346l0.00045,-0.00028c0,0 0.0664,-0.03623 0.12011,0.00503zM125.62182,251.09705l-0.0069,0.00287c-0.0312,0.2125 0.26222,0.41705 0.41255,0.52167c1.01136,0.57146 2.08358,0.64493 3.23374,0.43546c0.57376,-0.08825 1.17292,-0.30194 1.57615,-0.74414c0.15156,-0.16621 0.51748,-0.62967 0.09457,-0.76666c-0.94002,0.01554 -1.89045,0.06188 -2.82359,0.1951c-0.75125,0.13627 -1.71323,0.38603 -2.48651,0.3557z" fill="#6af2e7" stroke="none" stroke-width="0.5"/><path d="M128.10388,250.73098c0.93314,-0.13323 1.89877,-0.17259 2.83879,-0.18813c0.42292,0.13699 0.05752,0.60365 -0.09405,0.76986c-0.40324,0.44222 -1.0048,0.66309 -1.57857,0.75132c-1.15016,0.20947 -2.24244,0.13028 -3.2538,-0.44117c-0.15031,-0.10462 -0.44376,-0.31149 -0.41258,-0.52398l0.0069,-0.00288c0.77327,0.03032 1.74206,-0.22874 2.49331,-0.36502z" data-paper-data="{&quot;noHover&quot;:false,&quot;origItem&quot;:[&quot;Path&quot;,{&quot;applyMatrix&quot;:true,&quot;segments&quot;:[[[343.92669,148.61766],[3.42749,0.13441],[0,0]],[[343.89611,148.63033],[0,0],[-0.13824,0.94189]],[[345.7247,150.94262],[-0.66629,-0.46375],[4.48278,2.53292]],[[360.05797,152.87278],[-5.09799,0.92845],[2.54315,-0.39112]],[[367.04413,149.57442],[-1.78731,1.96008],[0.67178,-0.73672]],[[367.46328,146.17626],[1.87453,0.6072],[-4.16656,0.06888]],[[354.94792,147.04105],[4.13609,-0.5905],[-3.32984,0.60403]]],&quot;closed&quot;:true,&quot;fillColor&quot;:[0,0,0,1]}]}" fill="#b5f2ed" stroke="none" stroke-width="0.5"/><path d="M127.9032,256.84433c-0.009,-0.00507 -0.01448,-0.01078 -0.01448,-0.01078l-0.059,-0.06479c-0.01722,-0.08151 -0.24249,-0.68799 0.07374,-0.60934c0.11468,0.02853 0.33657,0.42272 0.47308,0.507c0.52777,0.33053 0.98571,-0.17851 1.24795,-0.5924c0.26844,-0.2612 0.68926,-0.26205 0.54848,0.21084c-0.09717,0.32636 -0.39312,0.43901 -0.6237,0.65994c-0.55515,0.34702 -1.16055,0.4082 -1.63582,-0.08557c0,0 -0.00548,-0.0057 -0.01022,-0.01489z" fill="#ffffff" stroke="none" stroke-width="0.5"/><path d="M132.78957,250.33361c-0.03166,-0.29513 0.26339,-1.71271 0.26339,-1.97575c0,0 0,-0.1128 0.1128,-0.1128c0.04411,0 0.03633,0.03688 0.04064,0.07172c0.00671,0.05426 0.00751,0.11536 0.00751,0.11536c0.03275,0.51039 -0.12293,1.96303 -0.21723,2.36313c-0.02387,0.10129 -0.05481,0.4263 -0.0063,0.71678c0.06653,0.3983 0.22992,0.78421 0.28592,0.91926c0.12044,0.2904 0.15223,0.35707 0.2112,0.63799c0.02221,0.10583 0.11383,0.29932 0.12705,0.55255c0.00982,0.18827 -0.05354,0.46069 -0.06251,0.48302c-0.27888,0.69445 -0.5438,1.25208 -0.64684,2.02346c-0.06731,0.35798 -0.18287,0.87069 -0.00439,1.20605c0.06146,0.11548 0.14396,0.19566 0.22285,0.28187c0.14423,0.15759 0.27643,0.30984 0.2461,0.55442c-0.00463,0.03731 -0.01304,0.07703 -0.02576,0.11957c0,0 0.03209,0.1187 -0.07574,0.08552c-0.10782,-0.03317 -0.10728,-0.141 -0.10728,-0.141c0.10959,-0.34405 -0.24014,-0.50598 -0.39137,-0.77857c-0.20864,-0.37601 -0.16316,-0.95732 -0.0872,-1.36358c0.11229,-0.84375 0.3952,-1.51337 0.70466,-2.28726l0.0025,-0.08854c0,-0.18172 -0.08194,-0.43945 -0.18984,-0.73154c-0.15754,-0.42648 -0.37044,-0.92617 -0.46439,-1.36939c-0.13109,-0.61838 0.07254,-1.11118 0.05418,-1.28228z" fill="#9e9215" stroke="none" stroke-width="0.5"/><path d="M113.41676,256.12596c0.0001,-0.00216 0.00035,-0.00572 0.00095,-0.01023c0.01015,-0.22098 0.0886,-0.73046 -0.12093,-0.85172c-0.45887,-0.26559 -1.08723,0.29648 -1.27515,0.65543c-0.18554,0.39165 -0.35409,0.89082 -0.25063,1.33291c0.13384,0.57192 0.84969,0.43903 1.10529,0.09809c0.27096,-0.37846 0.38578,-0.78871 0.54047,-1.22446zM113.6225,256.22079c-0.15935,0.45013 -0.2841,0.86982 -0.56417,1.2629c-0.36982,0.49286 -1.31916,0.57688 -1.50671,-0.17869c-0.12177,-0.49057 0.06189,-1.05084 0.26832,-1.48666c0.23716,-0.44382 1.2459,-1.26934 1.70763,-0.62706c0.18847,0.26215 0.11473,0.66088 0.11473,0.96302c0,0 0,0.03535 -0.0198,0.06648z" fill="#fffc51" stroke="none" stroke-width="0.5"/><path d="M113.3196,256.11488c-0.15939,0.44897 -0.28522,0.88665 -0.56439,1.27658c-0.12184,0.16252 -0.34764,0.27855 -0.5688,0.29797c-0.25687,0.02255 -0.50746,-0.08521 -0.58155,-0.40185c-0.10659,-0.45549 0.06648,-0.98576 0.25765,-1.38927c0.19361,-0.36984 0.8558,-0.95117 1.32859,-0.67754c0.21589,0.12494 0.13991,0.65576 0.12945,0.88345c-0.00062,0.00465 -0.00083,0.00843 -0.00094,0.01066z" data-paper-data="{&quot;noHover&quot;:false,&quot;origItem&quot;:[&quot;Path&quot;,{&quot;applyMatrix&quot;:true,&quot;segments&quot;:[[[579.65756,341.81574],[0,0],[0.0009,-0.01922]],[[579.66594,341.72498],[-0.00528,0.04008],[0.09002,-1.95902]],[[578.59386,334.17458],[1.85746,1.07506],[-4.06786,-2.3544]],[[567.2899,339.98488],[1.66584,-3.1821],[-1.6448,3.47186]],[[565.06814,351.8009],[-0.9171,-3.91902],[1.18646,5.07]],[[574.86632,352.6704],[-2.2658,3.02254],[2.40198,-3.3549]],[[579.65756,341.81576],[-1.37138,3.8629],[0,0]]],&quot;closed&quot;:true,&quot;fillColor&quot;:[0,0,0,1]}]}" fill="#a8be04" stroke="none" stroke-width="0.5"/><path d="M109.16032,240.26921l1.19211,-1.54898l5.88126,-0.78186c0,0 -0.7116,0.67009 -0.91442,0.81682c-0.27625,0.19983 -1.03534,0.7838 -1.03534,0.7838c0,0 -1.77001,0.65166 -2.47819,0.78326c-0.58312,0.10836 -2.28277,0.04366 -2.28277,0.04366z" fill="#fffd4d" stroke="#fffd4d" stroke-width="0.5"/><path d="M109.06896,240.47091c0.03567,-0.10702 0.14268,-0.07135 0.14268,-0.07135l0.01268,0.01032c0.75735,0 1.51669,0.15501 2.27493,0.0618c1.07142,-0.21461 2.18879,-0.49041 3.0786,-1.15562c0.6421,-0.35713 1.43436,-1.16686 1.59507,-1.91206c0,0 0.02448,-0.11012 0.13459,-0.08564c0.11012,0.02446 0.08564,0.13459 0.08564,0.13459c-0.18301,0.80376 -0.99108,1.66317 -1.69256,2.05242c-0.91052,0.68533 -2.0671,0.96973 -3.16553,1.18908c-0.7717,0.09368 -1.54051,-0.05893 -2.31075,-0.05893l-0.08403,-0.0219c0,0 -0.10702,-0.03567 -0.07135,-0.14269z" fill="#000000" stroke="none" stroke-width="0.5"/><path d="M133.57967,240.73109l-0.08401,0.02191c-0.77024,0 -1.53905,0.15262 -2.31075,0.05893c-1.09844,-0.21937 -2.25501,-0.50375 -3.16553,-1.18908c-0.70149,-0.38925 -1.50954,-1.24867 -1.69256,-2.05242c0,0 -0.02446,-0.11012 0.08564,-0.13459c0.11012,-0.02446 0.13459,0.08564 0.13459,0.08564c0.1607,0.74521 0.95297,1.55493 1.59507,1.91206c0.88982,0.66521 2.00719,0.94101 3.0786,1.15562c0.75822,0.09323 1.51757,-0.0618 2.27493,-0.0618l0.01268,-0.01032c0,0 0.10702,-0.03567 0.14269,0.07135c0.03567,0.10702 -0.07135,0.14269 -0.07135,0.14269z" data-paper-data="{&quot;index&quot;:null}" fill="#000000" stroke="none" stroke-width="0.5"/><path d="M110.319,258.23333c0,0 -0.15506,-0.36958 -0.15538,-0.4972c-0.0004,-0.16794 0.15317,-0.42308 0.15317,-0.42308c0,0 -0.14349,0.00136 0.0779,0.0033c0.20647,0.00182 0.29208,-0.01559 0.97554,0.08374c0.21158,0.03075 0.82245,0.41004 1.07499,0.41223c0.14664,0.00128 0.77707,-0.49535 0.93528,-0.49445c5.74039,0.03259 18.33405,0.18319 18.33405,0.18319l0.82701,0.0305c0,0 0.05405,0.02605 0.14492,0.14327c0.06688,0.08628 0.21604,0.08616 0.30219,0.20151c0.10087,0.13506 0.42894,0.38675 0.37697,0.49459c-0.0848,0.176 -0.68082,0.46832 -0.8144,0.61751c-0.15382,0.17177 -0.35303,0.1931 -0.65284,0.21584c-0.28912,0.02195 -0.67546,0.05179 -1.01102,-0.12973c-0.13157,-0.07119 -0.4496,-0.38063 -0.76798,-0.47874c-0.29973,-0.09235 -0.87466,-0.0477 -1.11008,-0.04706c-0.01717,0.00004 -0.10269,0.04253 -0.11521,0.04286c-0.08607,0.00216 -0.07217,0.00809 -0.13303,0.05471c-0.15442,0.11832 -0.32979,0.23244 -0.44638,0.1928c-0.15154,-0.05153 -0.69254,-0.38504 -0.93842,-0.33101c-0.46504,0.10221 -1.07287,0.39879 -1.94192,0.42213c-0.24426,0.00656 -1.47229,-0.36254 -1.72819,-0.35518c-0.27194,0.00781 -0.66127,0.16414 -0.94138,0.16748c-0.63094,0.00754 -1.35065,-0.2444 -1.99553,-0.22791c-0.91635,0.02343 -1.43864,0.64449 -2.292,0.64182c-0.47606,-0.00149 -1.12252,-0.56837 -1.60236,-0.55023c-0.62284,0.02354 -1.24665,0.3114 -1.68551,0.40941c-0.4254,0.09501 -0.88958,0.02811 -1.31791,0.03432c-0.22437,0.00325 -0.58129,-0.49926 -0.81119,-0.48385c-0.41495,0.02778 -0.52128,0.29009 -0.78007,0.44171c-0.25077,0.14694 -0.65615,0.18305 -0.91743,0.22519c-0.18918,0.03053 -0.30166,-0.12017 -0.42857,-0.20111c-0.13368,-0.08524 -0.2768,-0.10183 -0.2768,-0.10183z" fill="#fffd4d" stroke="none" stroke-width="0"/><path d="M116.99288,258.45429c0.62123,0.25061 1.41023,0.8725 2.11471,0.51873c0.28882,-0.09401 0.44275,-0.35802 0.72762,-0.4473c0.60125,-0.18844 1.38368,-0.01535 1.99451,0.02712c0.24198,0.04261 0.58463,0.19665 0.83381,0.14891c0.37586,-0.072 0.64053,-0.31511 1.05473,-0.27629c0.38109,0.03571 0.66546,0.25054 1.01279,0.37655c0.37735,0.13778 0.85797,0.13094 1.25209,0.03952l0.02285,-0.0114c0.41928,-0.22863 0.80795,-0.34825 1.20826,-0.4108c0.41443,-0.06476 0.6157,0.32652 1.10195,0.32652c0.2269,0 0.74371,-0.43169 1.02055,-0.42962c0.21508,0.0016 0.42151,0.02671 0.58239,0.11085c0.57081,0.29851 0.70808,0.65126 1.42999,0.65126c0.59539,0 1.64301,-0.16764 1.82413,-0.84514c0,0 0.00793,-0.11971 0.11675,-0.09002c0.10883,0.02968 0.07915,0.13851 0.07915,0.13851c-0.21774,0.78546 -1.04232,1.01139 -1.74813,1.01139c-0.23555,0 -0.66674,-0.00781 -0.88355,-0.12001c-0.3248,-0.16805 -0.66424,-0.501 -1.01495,-0.5895c-0.1177,-0.02971 -0.24255,-0.04513 -0.37011,-0.05248c-0.25745,-0.01483 -0.76553,0.45449 -1.00804,0.45449c-0.46866,0 -0.66191,-0.43939 -1.06864,-0.36859c-0.37516,0.06531 -0.7259,0.18079 -1.10993,0.3834c-0.01765,0.01977 -0.03744,0.02966 -0.03744,0.02966l-0.04425,0.01912c-0.00772,0.00191 -0.01545,0.00379 -0.02322,0.00563l-0.01392,0.00699c0,0 -0.03303,0.0165 -0.07073,0.01175c-0.42563,0.08724 -0.92045,0.08609 -1.32231,-0.05951c-0.32588,-0.11875 -0.59812,-0.33034 -0.9543,-0.36374c-0.38723,-0.03631 -0.64104,0.21119 -0.99698,0.27365c-0.28597,0.05018 -0.62259,-0.098 -0.90062,-0.1472c-0.57115,-0.04182 -1.33728,-0.2181 -1.8974,-0.03634c-0.26786,0.08692 -0.42993,0.34551 -0.71069,0.44107c-0.77798,0.38738 -1.59663,-0.24515 -2.28484,-0.5177c0,0 -0.0023,-0.00092 -0.00609,-0.00282l-0.02374,-0.001c-0.87852,0.13272 -1.6306,0.56938 -2.51911,0.56938c-0.26748,0 -0.57235,0.03452 -0.81585,-0.09858c-0.16804,-0.09186 -0.22589,-0.42809 -0.41494,-0.39743c-0.36057,0.0585 -0.77389,0.4108 -1.15387,0.51533c-1.17713,0.39289 -1.9585,-0.55366 -1.9585,-1.67924c0,-0.56074 0.57425,-1.77351 0.09347,-2.2288c0,0 -0.07976,-0.07976 0,-0.15954c0.07976,-0.07977 0.15954,0 0.15954,0c0.56732,0.58878 -0.02739,1.69483 -0.02739,2.38833c0,0.98178 0.63513,1.80701 1.66751,1.46331c0.31866,-0.08607 0.94127,-0.5566 1.23931,-0.52412c0.17278,0.01882 0.33729,0.33007 0.50365,0.42448c0.19943,0.11319 0.48742,0.07063 0.70707,0.07063c0.87005,0 1.6217,-0.43187 2.48479,-0.56677l0.0655,-0.00131c0,0 0.02424,0 0.05025,0.01123c0.01894,0.00212 0.03217,0.00741 0.03217,0.00741z" fill="#9e9215" stroke="none" stroke-width="0.5"/><path d="M124.25657,256.1084l0.07442,0.09967c0.48664,0.87313 1.11126,-0.0236 1.11126,-0.67383c0,0 0,-0.11281 0.1128,-0.11281c0.1128,0 0.11281,0.11281 0.11281,0.11281c0,0.85989 -0.92185,1.88805 -1.52615,0.79657l-0.0656,-0.08705c0,0 -0.06768,-0.09024 0.02257,-0.15793c0.09024,-0.06768 0.15793,0.02257 0.15793,0.02257z" data-paper-data="{&quot;index&quot;:null}" fill="#000000" stroke="none" stroke-width="0.5"/><path d="M120.95829,257.33221c0.85572,0.14307 0.85229,-1.41421 0.84596,-1.77243c-0.00279,-0.15797 -0.17513,-0.57733 0.08087,-0.57733c0.1708,0 0.14475,1.0712 0.14474,1.09613c-0.00051,0.64599 -0.31349,1.42404 -1.05783,1.47927c-0.82243,0.06101 -0.90222,-1.03691 -0.82797,-1.56236c0.00677,-0.04789 0.02604,-0.32951 0.04335,-0.47746c0.00004,0.11498 0.01023,0.22738 0.03691,0.33123c0.01315,0.0512 0.0359,0.08563 0.06433,0.10655c0.01504,0.11913 0.03372,0.22563 0.05493,0.31284c0.00229,0.16777 0.02125,0.3236 0.06797,0.45304c0.02196,0.29772 0.14494,0.54332 0.54677,0.61049z" fill="#000000" stroke="none" stroke-width="0.5"/><path d="M117.90626,255.93336c0.09024,0.06768 0.02257,0.15793 0.02257,0.15793l-0.06562,0.08705c-0.60431,1.09147 -1.52615,0.0633 -1.52615,-0.79657c0,0 0,-0.11281 0.1128,-0.11281c0.1128,0 0.11281,0.11281 0.11281,0.11281c0,0.65023 0.6246,1.54694 1.11126,0.67383l0.07442,-0.09967c0,0 0.06768,-0.09024 0.15793,-0.02257z" fill="#000000" stroke="none" stroke-width="0.5"/></g><path d="M144.51434,252.01336c0,13.69336 -10.57205,24.79402 -23.61335,24.79402c-13.04129,0 -23.61335,-11.10066 -23.61335,-24.79402c0,-13.69336 10.57205,-24.79402 23.61335,-24.79402c13.04129,0 23.61335,11.10066 23.61335,24.79402z" fill="url(#color-1)" stroke="#0b61a3" stroke-width="0"/><text transform="translate(100.57054,262.40454) scale(0.50881,0.66456)" font-size="40" xml:space="preserve" fill="#ffffff" fill-rule="nonzero" stroke="none" stroke-width="1" stroke-linecap="butt" stroke-linejoin="miter" stroke-miterlimit="10" stroke-dasharray="" stroke-dashoffset="0" font-family="&quot;GenEiPOPlePw-Bk&quot;, Sans Serif" font-weight="normal" text-anchor="start" style="mix-blend-mode: normal"><tspan x="0" dy="0"></tspan></text></g></g></svg>