<svg version="1.1" xmlns="http://www.w3.org/2000/svg" xmlns:xlink="http://www.w3.org/1999/xlink" width="291.95577" height="157.70337" viewBox="0,0,291.95577,157.70337"><g transform="translate(-96.94999,12.75337)"><g data-paper-data="{&quot;isPaintingLayer&quot;:true}" fill="#9966ff" fill-rule="nonzero" stroke="none" stroke-linecap="butt" stroke-linejoin="miter" stroke-miterlimit="10" stroke-dasharray="" stroke-dashoffset="0" style="mix-blend-mode: normal"><path d="M315.53035,112.58902c2.0399,-1.44527 3.48517,0.59462 3.48517,0.59462l1.73371,2.44824c0.98415,1.25827 1.9683,2.51655 2.95245,3.77482c1.67948,1.88378 3.96308,3.17031 6.18566,4.36592c7.24176,3.89561 14.40428,6.08622 22.43287,7.92002c4.45424,1.0174 8.97965,2.66754 13.59534,1.79384c3.70023,-0.70042 8.23898,-6.79685 10.41077,-9.45261c1.63161,-1.99522 2.87232,-4.30395 4.60885,-6.20856c0.84273,-0.92429 2.24361,-1.48417 2.6341,-2.67246c0.42097,-1.28106 -0.28951,-2.68132 -0.43426,-4.02198c0,0 -0.04695,-0.77841 0.34634,-1.49195c0.17472,-1.38805 0.55671,-2.77699 0.40734,-4.16364c-0.34185,-3.17338 -2.02163,-6.05705 -2.89908,-9.12581c-1.85801,-6.49809 -3.87595,-12.36623 -6.35013,-18.65334c-6.48644,-16.4826 -13.85634,-32.58064 -21.06741,-48.77106c-5.83582,-13.11243 -14.88425,-25.69175 -24.11169,-36.67593l-0.70765,-0.52639c0,0 -1.93108,-1.58775 -0.34334,-3.51882c1.58775,-1.93108 3.51882,-0.34334 3.51882,-0.34334l1.36501,1.17775c9.50837,11.38004 18.80668,24.30182 24.84629,37.85243c7.24101,16.25765 14.63919,32.42315 21.15264,48.97438c2.52873,6.42573 4.60579,12.46832 6.50479,19.10975c0.19822,0.69324 3.01755,9.54319 3.06297,9.96486c0.19584,1.81802 -0.2901,3.64554 -0.43516,5.4683c0,0 -0.03904,0.44211 -0.27051,0.93732c0.14442,1.82915 0.71021,3.72015 0.1395,5.44433c-0.13714,0.41429 -4.18462,4.9129 -5.17249,6.24596c-2.89433,3.9057 -5.80716,7.47931 -9.30934,10.88021c-2.11483,2.05367 -3.68024,3.78253 -6.68538,4.42174c-5.50862,1.17173 -10.61031,-0.55779 -15.9197,-1.77051c-10.89381,-2.48826 -23.47646,-5.51187 -31.32169,-13.93022c-1.0486,-1.33941 -2.09719,-2.67881 -3.14578,-4.01822l-1.80364,-2.54447c0,0 -1.44527,-2.0399 0.59462,-3.48517z" stroke-width="0.5"/><text transform="translate(97.69999,139.2) scale(0.5,0.5)" font-size="40" xml:space="preserve" fill="#9966ff" fill-rule="nonzero" stroke="none" stroke-width="1" stroke-linecap="butt" stroke-linejoin="miter" stroke-miterlimit="10" stroke-dasharray="" stroke-dashoffset="0" font-family="Serif" font-weight="normal" text-anchor="start" style="mix-blend-mode: normal"><tspan x="0" dy="0">reset.test.hook.frame 2</tspan></text></g></g></svg>