<svg version="1.1" xmlns="http://www.w3.org/2000/svg" xmlns:xlink="http://www.w3.org/1999/xlink" width="128.96821" height="30.32821" viewBox="0,0,128.96821,30.32821"><g transform="translate(-259.57857,-67.10741)"><g data-paper-data="{&quot;isPaintingLayer&quot;:true}" fill-rule="nonzero" stroke-linejoin="miter" stroke-miterlimit="10" stroke-dasharray="" stroke-dashoffset="0" style="mix-blend-mode: normal"><path d="M266.03329,83.56369v-6.00055h16.91063v6.00055z" fill="#fffd4d" stroke="#fffd4d" stroke-width="0.5" stroke-linecap="butt"/><path d="" fill="#fffc51" stroke="none" stroke-width="0.5" stroke-linecap="butt"/><path d="M259.83642,79.55651c0,0 0.17371,-5.60052 0.21574,-7.62993c0.01681,-0.81132 0.43967,-2.49101 1.30453,-3.42035c0.88774,-0.95394 2.23129,-1.14718 3.30176,-1.14882c21.76418,-0.03331 111.66018,-0.1748 119.52616,-0.18685c0.63009,-0.00097 2.40768,0.44137 3.1593,1.43753c0.92303,1.22334 0.76731,3.09318 0.76731,3.69524c0.00003,2.20163 0.00014,7.64661 0.00014,7.64661z" fill="#000000" stroke="#000000" stroke-width="0.5" stroke-linecap="round"/><path d="M259.94325,94.96341v-18.32411h4.36812v18.32411c0,0 -1.27014,0.50895 -2.06593,0.50895c-0.61064,0 -2.30219,-0.50895 -2.30219,-0.50895z" fill="#000000" stroke="#000000" stroke-width="0.5" stroke-linecap="butt"/><path d="M289.15816,74.97857v-7.80981h72.02394v7.33564z" fill="#b53000" stroke="none" stroke-width="0" stroke-linecap="butt"/><path d="M384.27298,96.67667l-0.18574,-18.83311h4.20954v18.83311c0,0 -1.06631,0.50895 -2.07986,0.50895c-0.66234,0 -1.94395,-0.50895 -1.94395,-0.50895z" fill="#000000" stroke="#000000" stroke-width="0.5" stroke-linecap="butt"/></g></g></svg>