<svg version="1.1" xmlns="http://www.w3.org/2000/svg" xmlns:xlink="http://www.w3.org/1999/xlink" width="121.22439" height="120.58145" viewBox="0,0,121.22439,120.58145"><defs><linearGradient x1="302.26817" y1="171.92305" x2="331.73185" y2="171.92305" gradientUnits="userSpaceOnUse" id="color-1"><stop offset="0" stop-color="#000000"/><stop offset="1" stop-color="#232323"/></linearGradient><linearGradient x1="274.02499" y1="171.99406" x2="296.60199" y2="171.99406" gradientUnits="userSpaceOnUse" id="color-2"><stop offset="0" stop-color="#000000"/><stop offset="1" stop-color="#232323"/></linearGradient><linearGradient x1="336.22592" y1="171.88755" x2="359.65487" y2="171.88755" gradientUnits="userSpaceOnUse" id="color-3"><stop offset="0" stop-color="#000000"/><stop offset="1" stop-color="#232323"/></linearGradient></defs><g transform="translate(-255.56057,-121.10214)"><g data-paper-data="{&quot;isPaintingLayer&quot;:true}" fill-rule="nonzero" stroke-linejoin="miter" stroke-miterlimit="10" stroke-dasharray="" stroke-dashoffset="0" style="mix-blend-mode: normal"><path d="M345.21067,237.27548l-1.40012,1.84338l-2.2002,1.08433l-1.53347,-0.10845l-1.4668,-1.84337l-0.46671,-2.27711l0.33336,-56.06987h6.93398l0.20002,54.55182z" data-paper-data="{&quot;index&quot;:null}" fill="#67c4e6" stroke="#000000" stroke-width="0.5" stroke-linecap="round"/><path d="M288.18047,235.62518l0.20002,-56.50999h6.93398l0.33336,58.04316l-0.46672,2.29977l-1.4668,1.86172l-1.53347,0.10953l-2.2002,-1.09512l-1.40013,-1.86173z" data-paper-data="{&quot;index&quot;:null}" fill="#67c4e6" stroke="#000000" stroke-width="0.5" stroke-linecap="round"/><path d="M364.31536,153.45306l0.21483,30.45839l-95.55392,0.51537l-1.60097,0.02113l-0.38961,-33.16605c0,0 0.84832,1.28181 2.2348,1.30181c0.64898,0.00937 1.14574,0.65774 2.59193,0.64795c0.62637,-0.00423 6.41712,-2.44586 7.17619,-2.45479c0.35696,-0.0042 0.69088,0.01374 1.02812,0.34064c0.55709,0.53998 1.12322,1.50203 1.81714,1.49675c0.56374,-0.00429 1.64897,0.31534 2.25206,0.30961c0.35658,-0.00338 11.32788,-2.60435 11.69729,-2.60834c1.00174,-0.01081 6.04246,2.90218 7.09947,2.89498c0.28686,-0.00196 0.56172,-0.03666 0.83209,-0.0857c0.68484,-0.12423 1.3409,-0.34046 2.09024,-0.34948c0.5253,-0.00632 2.8084,-2.20462 3.34073,-2.21196c0.33312,-0.00459 4.25899,-0.33365 4.59402,-0.33786c0.39103,-0.00491 5.62712,1.12681 6.01878,1.12256c0.41893,-0.00454 1.45654,0.27683 2.42232,0.02844c1.48841,-0.38282 3.03594,-1.35424 3.67209,-1.36091c0.71231,-0.00747 1.38039,0.90493 2.01006,0.89473c1.22375,-0.01983 2.93468,1.5552 3.91088,1.34041c0.49959,-0.10992 2.322,0.09261 3.36933,0.0123c0.36854,-0.02825 0.57185,-0.02425 0.68349,-0.17421c0.12442,-0.16714 0.54537,-0.16388 0.70036,-0.23898c0.34894,-0.16906 0.47528,-0.2665 0.82677,-0.27109c0.57441,-0.00751 0.6105,-0.35624 1.1529,-0.35302c0.06047,0.00037 1.33903,-0.60537 1.28765,-0.57467c-1.5038,0.89855 0.17348,-0.70441 2.43894,-0.47465c0.39325,0.03989 1.82403,0.84166 2.89491,1.16062c0.93142,0.27742 1.51359,0.07738 1.87533,0.10883c0.41941,0.03646 3.92433,-1.62699 4.33365,-1.58106c0.5392,0.06051 2.39977,0.85674 2.90787,0.92811c0.86085,0.12096 3.07517,1.93791 3.79349,2.03794c3.93371,0.54782 3.34744,0.29739 4.92539,0.15675c0.84542,-0.07534 1.23583,-0.57604 1.23583,-0.57604z" fill="#f4f8f3" stroke="#000000" stroke-width="0.5" stroke-linecap="round"/><path d="" fill="#000000" stroke="none" stroke-width="0.5" stroke-linecap="butt"/><path d="" fill="#66f4ff" stroke="none" stroke-width="0.5" stroke-linecap="butt"/><path d="" data-paper-data="{&quot;index&quot;:null}" fill="#66f4ff" stroke="none" stroke-width="0.5" stroke-linecap="butt"/><path d="" fill="#66f4ff" stroke="none" stroke-width="0.5" stroke-linecap="butt"/><path d="" fill="#66f4ff" stroke="none" stroke-width="0.5" stroke-linecap="butt"/><path d="M364.13683,153.51354l0.21483,30.45839l-95.55392,0.51537l-1.60097,0.02113l-0.38961,-33.16605c0,0 0.84832,1.28181 2.2348,1.30181c0.64898,0.00937 1.14574,0.65774 2.59193,0.64795c0.62637,-0.00423 6.41712,-2.44586 7.17619,-2.45479c0.35696,-0.0042 0.69088,0.01374 1.02812,0.34064c0.55709,0.53997 1.12322,1.50203 1.81714,1.49675c0.56374,-0.00429 1.64897,0.31535 2.25206,0.30962c0.35658,-0.00338 11.32788,-2.60435 11.69729,-2.60834c1.00174,-0.01082 6.04246,2.90218 7.09947,2.89498c0.28686,-0.00196 0.56172,-0.03666 0.83209,-0.0857c0.68484,-0.12422 1.3409,-0.34045 2.09024,-0.34948c0.5253,-0.00632 2.8084,-2.20461 3.34073,-2.21195c0.33312,-0.00459 4.25899,-0.33366 4.59402,-0.33786c0.39103,-0.00491 5.62712,1.12681 6.01878,1.12256c0.41893,-0.00454 1.45654,0.27683 2.42232,0.02844c1.48841,-0.38282 3.03594,-1.35424 3.67209,-1.36091c0.71231,-0.00746 1.38039,0.90493 2.01006,0.89473c1.22375,-0.01983 2.93468,1.5552 3.91088,1.34041c0.49959,-0.10992 2.322,0.09261 3.36933,0.01229c0.36854,-0.02826 0.57185,-0.02425 0.68349,-0.17421c0.12442,-0.16714 0.54537,-0.16389 0.70036,-0.23898c0.34894,-0.16906 0.47528,-0.2665 0.82677,-0.27109c0.57441,-0.00751 0.6105,-0.35624 1.1529,-0.35302c0.06047,0.00037 1.33903,-0.60537 1.28765,-0.57467c-1.5038,0.89855 0.17348,-0.70441 2.43894,-0.47465c0.39325,0.03989 1.82403,0.84166 2.89491,1.16063c0.93142,0.27742 1.51359,0.07737 1.87533,0.10883c0.41941,0.03645 3.92433,-1.62699 4.33365,-1.58106c0.5392,0.06051 2.39977,0.85674 2.90787,0.92811c0.86085,0.12096 3.07517,1.93791 3.79349,2.03794c3.93371,0.54782 3.34744,0.29739 4.92539,0.15676c0.84542,-0.07534 1.23583,-0.57604 1.23583,-0.57604z" fill="none" stroke="#000000" stroke-width="0.5" stroke-linecap="round"/><path d="M368.13269,121.83231c0.45502,0.06727 0.65285,-0.0167 0.68565,-0.18811c2.25662,0.06838 3.82756,2.58169 4.94581,4.25905c0.4273,1.16694 1.11752,2.26069 1.38768,3.59886c0.25951,1.28544 0.08655,3.06267 0.65918,4.2307c0.4151,2.58284 0.72395,5.15771 0.72395,7.78205c0,3.09308 -2.24941,4.47032 -5.25872,4.90827c-2.79346,0.02112 -0.51816,1.01353 -3.21293,-0.06759c-2.61784,-0.88964 -2.05638,-5.5779 -1.35689,-7.59214c1.05396,-3.04672 2.75133,-7.21702 3.54021,-10.37097c0.31627,-1.2674 -3.73566,-7.64128 -2.11395,-6.56014z" data-paper-data="{&quot;noHover&quot;:false,&quot;origItem&quot;:[&quot;Path&quot;,{&quot;applyMatrix&quot;:true,&quot;segments&quot;:[[[273.23414,152.39607],[0.0328,0.17141],[-2.25662,0.06838]],[[267.6027,156.64807],[1.11824,-1.67736],[-0.4273,1.16694]],[[266.22965,160.23355],[0.27016,-1.33817],[-0.25952,1.28544]],[[265.58001,164.43753],[0.57263,-1.16803],[-0.4151,2.58284]],[[264.8422,172.1822],[0,-2.62434],[0,3.09309]],[[270.07461,177.07606],[-3.00931,-0.43795],[2.79345,0.02112]],[[278.25584,176.58401],[-2.69477,1.08112],[2.61784,-0.88964]],[[279.5891,168.01622],[0.69949,2.01424],[-1.05395,-3.04672]],[[277.20773,158.42042],[0.78889,3.15395],[-0.31628,-1.26739]],[[273.91699,152.58394],[1.62171,-1.08114],[-0.45502,0.06727]]],&quot;closed&quot;:true}],&quot;index&quot;:null}" fill="#f5f5f5" stroke="#000000" stroke-width="0.5" stroke-linecap="butt"/><path d="M263.06999,121.54658c1.62171,-1.08114 -1.43022,5.29273 -1.11395,6.56013c0.13352,0.53382 -0.13141,1.09674 0.05344,1.67842c0.21421,0.67407 0.26674,2.07165 0.67003,2.75557c1.30488,2.21284 3.43361,3.14637 4.10246,5.07985c0.50178,1.44492 0.29176,4.06619 -0.42964,6.16473c-0.28424,0.82685 -0.04447,2.17595 -0.7844,2.42741c-2.69477,1.08112 -1.70518,-0.05415 -4.49864,-0.07527c-3.00931,-0.43795 -5.25872,-1.81519 -5.25872,-4.90827c0,-2.62434 0.30885,-5.19921 0.72395,-7.78205c0.57263,-1.16803 0.39967,-2.94526 0.65918,-4.2307c0.27016,-1.33817 0.96038,-2.43192 1.38768,-3.59886c1.11824,-1.67736 1.54633,-4.19067 3.80295,-4.25905c0.0328,0.17141 0.23063,0.25538 0.68565,0.18811z" data-paper-data="{&quot;noHover&quot;:false,&quot;origItem&quot;:[&quot;Path&quot;,{&quot;applyMatrix&quot;:true,&quot;segments&quot;:[[[273.23414,152.39607],[0.0328,0.17141],[-2.25662,0.06838]],[[267.6027,156.64807],[1.11824,-1.67736],[-0.4273,1.16694]],[[266.22965,160.23355],[0.27016,-1.33817],[-0.25952,1.28544]],[[265.58001,164.43753],[0.57263,-1.16803],[-0.4151,2.58284]],[[264.8422,172.1822],[0,-2.62434],[0,3.09309]],[[270.07461,177.07606],[-3.00931,-0.43795],[2.79345,0.02112]],[[278.25584,176.58401],[-2.69477,1.08112],[2.61784,-0.88964]],[[279.5891,168.01622],[0.69949,2.01424],[-1.05395,-3.04672]],[[277.20773,158.42042],[0.78889,3.15395],[-0.31628,-1.26739]],[[273.91699,152.58394],[1.62171,-1.08114],[-0.45502,0.06727]]],&quot;closed&quot;:true}],&quot;index&quot;:null}" fill="#f5f5f5" stroke="#000000" stroke-width="0.5" stroke-linecap="butt"/><path d="M302.26817,168.5507l29.39268,0.21299l0.07099,6.53171h-29.46368z" fill="url(#color-1)" stroke="#000000" stroke-width="0.5" stroke-linecap="round"/><path d="M296.53098,168.55072l0.071,6.88669h-22.57699v-6.7447z" fill="url(#color-2)" stroke="#000000" stroke-width="0.5" stroke-linecap="round"/><path d="M359.58387,168.5507l0.071,6.7447l-23.42895,-0.071l0.071,-6.74469z" fill="url(#color-3)" stroke="#000000" stroke-width="0.5" stroke-linecap="round"/><path d="M364.65159,166.04491h-96.91938" fill="none" stroke="#000000" stroke-width="0.5" stroke-linecap="round"/><path d="M267.49564,184.04851v-18.02497h96.58757v17.72491z" fill="#67c4e6" stroke="none" stroke-width="0" stroke-linecap="butt"/><path d="M310.94067,166.04491l0.20015,18.30366" fill="none" stroke="#000000" stroke-width="0.5" stroke-linecap="round"/><path d="M317.66735,173.04672c0,1.16003 -0.94039,2.10042 -2.10042,2.10042c-1.16003,0 -2.10042,-0.94039 -2.10042,-2.10042c0,-1.16003 0.94039,-2.10042 2.10042,-2.10042c1.16003,0 2.10042,0.94039 2.10042,2.10042z" fill="#67c4e6" stroke="#000000" stroke-width="0.5" stroke-linecap="butt"/><path d="M364.57985,173.49797c0,0 -3.00291,-1.14056 -5.15723,-2.372c-2.56986,-1.46897 -5.68975,-5.01318 -5.68975,-5.01318" fill="none" stroke="#000000" stroke-width="0.5" stroke-linecap="round"/><path d="M278.72271,165.96994c0,0 -3.11989,3.54421 -5.68975,5.01318c-2.15432,1.23144 -5.15723,2.372 -5.15723,2.372" data-paper-data="{&quot;index&quot;:null}" fill="none" stroke="#000000" stroke-width="0.5" stroke-linecap="round"/></g></g></svg>