<svg version="1.1" xmlns="http://www.w3.org/2000/svg" xmlns:xlink="http://www.w3.org/1999/xlink" width="154.8213" height="110.31285" viewBox="0,0,154.8213,110.31285"><g transform="translate(-246.58721,-46.79307)"><g data-paper-data="{&quot;isPaintingLayer&quot;:true}" fill-rule="nonzero" stroke-linejoin="miter" stroke-miterlimit="10" stroke-dasharray="" stroke-dashoffset="0" style="mix-blend-mode: normal"><g><g stroke="#171283"><path d="M282.86159,70.31328c0,3.23605 1.36072,3.20616 0.39288,5.53158c-1.26205,3.03233 -10.77102,-0.14922 -12.92229,-0.14922c-0.7916,0 -1.37552,-0.26215 -2.08336,-0.74461c-1.21247,-0.8264 -2.77544,6.74377 -4.07383,16.42942c-0.89262,6.65873 -1.56714,15.24794 -2.2913,19.05055c-0.4882,2.56358 -4.3733,3.26313 -5.1164,0.7615c-0.4841,-1.62968 0.1735,-4.84593 0.10641,-7.95503c-0.08468,-3.92458 -0.80048,-7.88784 -0.58715,-10.60885c0.5813,-7.41471 1.62844,-17.15804 3.29125,-23.67769c1.75433,-6.87854 4.11413,-10.3484 4.18561,-10.79591c0.44773,-2.8034 1.34901,-5.21335 2.53524,-6.89912c1.1334,-1.61069 2.52694,-2.56027 4.03353,-2.56027c3.80102,0 12.52941,14.16181 12.52941,21.61765z" fill="#ffffff" stroke-width="0" stroke-linecap="butt"/><path d="M256.58721,130.10344c0,10.61893 18.39166,18.68182 7.77273,18.68182c-10.61893,0 -16.77273,-10.79016 -16.77273,-21.40909c0,-10.61893 4.79016,-18.40909 15.40909,-18.40909c4.68447,0 0.71591,1.50132 -1.52488,4.70065c-2.83873,4.05303 -4.88421,10.50125 -4.88421,16.43571z" fill="#2f6ad3" stroke-width="2" stroke-linecap="butt"/><path d="M256.92042,110.49092c0,0 -2.03298,-17.17032 0.8451,-33.20839c1.61413,-8.99468 3.87553,-17.78414 6.48605,-23.32424c1.23034,-2.61106 4.13022,-6.17266 5.96989,-5.92759c6.02718,0.80289 12.69831,16.97531 13.37008,26.39013c0.44726,6.2684 -16.08289,0.45507 -16.08289,0.45507l-1.94118,8.20542" fill="none" stroke-width="1.5" stroke-linecap="round"/></g><path d="M277.42101,75.18275l-0.13243,-0.27768c-2.87212,-4.3081 -5.63925,-8.87853 -7.00666,-13.88879c0,0 -0.19747,-0.72354 0.52606,-0.92101c0.72354,-0.19747 0.92101,0.52607 0.92101,0.52607c1.32473,4.85385 4.02304,9.27802 6.80752,13.45145l0.22602,0.4389c0,0 0.33553,0.67076 -0.33523,1.00629c-0.67076,0.33553 -1.00629,-0.33523 -1.00629,-0.33523z" data-paper-data="{&quot;index&quot;:null}" fill="#635ba6" stroke="none" stroke-width="0.5" stroke-linecap="butt"/><path d="M281.23765,75.35718l-0.10523,-0.28909c-2.44634,-4.56336 -4.76307,-9.37777 -5.64439,-14.49596c0,0 -0.12727,-0.73912 0.61185,-0.86639c0.73912,-0.12727 0.8664,0.61185 0.8664,0.61185c0.8538,4.9584 3.11602,9.62065 5.48803,14.04156l0.18295,0.45853c0,0 0.26976,0.69981 -0.43005,0.96956c-0.69981,0.26975 -0.96956,-0.43005 -0.96956,-0.43005z" data-paper-data="{&quot;index&quot;:null}" fill="#635ba6" stroke="none" stroke-width="0.5" stroke-linecap="butt"/></g><g><path d="M386.3106,100.09023v9.35294" data-paper-data="{&quot;index&quot;:null}" fill="none" stroke="#171283" stroke-width="1.5" stroke-linecap="round"/><path d="M377.66354,48.20787c1.5066,0 2.90014,0.94958 4.03354,2.56027c1.18624,1.68577 2.08751,4.09572 2.53524,6.89912c0.07147,0.44751 2.43127,3.91737 4.18561,10.79592c1.66281,6.51965 2.70995,16.26297 3.29125,23.67768c0.21333,2.72101 -0.50247,6.68428 -0.58715,10.60885c-0.06709,3.1091 0.59051,6.32535 0.10641,7.95503c-0.7431,2.50162 -4.6282,1.80208 -5.1164,-0.7615c-0.72416,-3.80261 -1.39868,-12.39182 -2.2913,-19.05055c-1.2984,-9.68565 -2.86137,-17.25582 -4.07383,-16.42942c-0.70784,0.48246 -1.29176,0.74461 -2.08336,0.74461c-2.15127,0 -11.66024,3.18156 -12.92229,0.14922c-0.96783,-2.32542 0.39288,-2.29552 0.39288,-5.53158c0,-7.45584 8.72839,-21.61765 12.52941,-21.61765z" data-paper-data="{&quot;index&quot;:null}" fill="#ffffff" stroke="#171283" stroke-width="0" stroke-linecap="butt"/><path d="M386.5243,114.53057c-2.24079,-3.19933 -6.20934,-4.70065 -1.52488,-4.70065c10.61893,0 15.40909,7.79017 15.40909,18.4091c0,10.61893 -3.31169,20.46172 -13.93062,20.46172c-5.61045,0 5.14801,-5.8497 4.97903,-11.45761c-0.05347,-1.77436 -0.0484,-3.93381 -0.0484,-6.27684c0,-5.93447 -2.04549,-12.38268 -4.88421,-16.43572z" data-paper-data="{&quot;index&quot;:null}" fill="#2f6ad3" stroke="#171283" stroke-width="2" stroke-linecap="butt"/><path d="M369.56842,77.05613c-0.67076,-0.33553 -0.33522,-1.00629 -0.33522,-1.00629l0.22602,-0.4389c2.78448,-4.17343 5.48279,-8.59761 6.80752,-13.45146c0,0 0.19747,-0.72354 0.92101,-0.52607c0.72354,0.19747 0.52606,0.92101 0.52606,0.92101c-1.36741,5.01026 -4.13455,9.58069 -7.00666,13.88879l-0.13243,0.27769c0,0 -0.33553,0.67075 -1.00629,0.33522z" data-paper-data="{&quot;index&quot;:null}" fill="#635ba6" stroke="none" stroke-width="0.5" stroke-linecap="butt"/><path d="M365.78851,77.32539c-0.69981,-0.26975 -0.43005,-0.96956 -0.43005,-0.96956l0.18295,-0.45853c2.37201,-4.42091 4.63423,-9.08316 5.48803,-14.04156c0,0 0.12727,-0.73912 0.8664,-0.61185c0.73912,0.12727 0.61185,0.86639 0.61185,0.86639c-0.88132,5.11819 -3.19805,9.9326 -5.64439,14.49596l-0.10522,0.28909c0,0 -0.26975,0.6998 -0.96957,0.43005z" data-paper-data="{&quot;index&quot;:null}" fill="#635ba6" stroke="none" stroke-width="0.5" stroke-linecap="butt"/><path d="M382.42825,82.97258l-1.94118,-8.29412c0,0 -16.53015,5.87617 -16.08289,-0.45999c0.67177,-9.5166 7.3429,-25.86383 13.37008,-26.6754c1.83966,-0.24771 4.73955,3.35239 5.96989,5.99167c2.61052,5.59999 4.87193,14.48446 6.48605,23.57637c2.87809,16.21143 0.84511,33.56736 0.84511,33.56736" data-paper-data="{&quot;index&quot;:null}" fill="none" stroke="#171283" stroke-width="1.5" stroke-linecap="round"/></g><path d="M392.11722,136.80283c0,0 -0.67062,3.0225 -2.33124,5.23245c-3.07542,4.09276 -8.80792,8.95542 -14.75757,11.75208c-13.76155,6.46867 -29.60635,-2.01344 -41.53886,-8.16936c-4.2921,-2.21427 -5.06412,-8.2098 -10.30885,-7.18177c-4.03981,0.79185 -5.2198,4.53747 -9.92132,7.51283c-5.50975,3.48684 -14.68096,6.72666 -19.54903,8.08301c-18.48451,5.15016 -42.61154,-11.08844 -36.88439,-32.86943c2.31331,-8.79778 13.86955,-34.91403 69.32104,-32.23375c0,0 46.74148,1.34704 59.75976,20.08389c8.07608,11.62368 6.21046,27.79004 6.21046,27.79004z" fill-opacity="0.74118" fill="#4ab9c4" stroke="#006f6e" stroke-width="2" stroke-linecap="round"/><path d="M375.45974,107.21449c-1.00839,2.08941 -3.67209,2.41787 -6.98038,1.26689c-1.78138,-0.61976 -2.98644,-3.14413 -5.63636,-3.9062c-3.90704,-1.1236 -8.10452,-1.76549 -10.56706,-3.11189c-2.30947,-1.2627 -3.03425,-3.21306 -2.28345,-4.76874c1.55136,-3.21447 8.70285,-2.73771 16.27408,-0.56035c7.57122,2.17736 10.74453,7.86581 9.19317,11.08028z" fill-opacity="0.92549" fill="#ffffff" stroke="#03536f" stroke-width="1" stroke-linecap="butt"/><path d="M265.27212,92.56543c-0.57162,-2.07354 -0.67653,-2.80099 -1.73549,-3.40911c-2.0162,-1.15784 -1.67386,-3.58349 -1.67386,-5.64324c0,-1.6049 0.20732,-4.27618 1.51005,-5.39291c1.539,-1.31927 4.16177,-1.0596 6.67367,-1.0596c1.0726,0 2.91209,0.66884 8.11075,2.71666c0.32012,0.1261 2.71411,-0.81691 4.40245,-1.0165c1.79144,-0.21178 7.61431,-3.6224 7.9777,-3.4762c0.7904,0.31802 4.79615,-1.33333 5.61564,-0.9831c1.09123,0.46636 3.89111,1.06546 5.15144,1.48298c1.6261,0.53867 3.85463,2.22549 5.67787,2.6948c1.22768,0.31601 12.76846,-2.91978 14.06181,-2.6412c4.41224,0.95038 7.8958,0.77949 11.69697,1.72712c1.95869,0.48831 9.47956,-3.377 11.34644,-2.89584c2.54361,0.65557 5.45455,0.87561 11.07324,1.59106c1.85368,0.23604 6.3071,-1.61876 8.3984,-1.30534c1.49912,0.22466 6.551,0.91165 8.03047,1.75258c0.12257,0.06966 2.68993,-0.77164 3.58686,-1.39838c1.06818,-0.74641 5.49028,-1.03022 6.86205,-0.82084c1.7015,0.25971 3.30424,3.46608 3.98386,4.93395c0.73426,1.58586 1.15237,4.38959 0.38073,6.7663c-0.4555,1.40298 -1.02984,1.70684 -1.41843,2.76725c-0.47484,1.29579 -1.21922,2.94235 -1.20037,2.96539c0.5776,0.70628 -0.65446,-0.38993 -0.54135,-0.67787c0.44805,-1.14061 -0.85147,-7.55603 -4.30739,-11.36441c-2.05289,-2.26226 -4.12396,0.5088 -6.20018,-0.03764c-4.35367,-1.14585 -9.75196,-0.64811 -15.36808,-1.03992c-3.69428,-0.25773 -7.19912,-1.32592 -11.56403,-1.99832c-2.80802,-0.43256 -7.03636,2.3938 -11.46726,2.33803c-5.64905,-0.0711 -8.87688,-0.94996 -12.66082,-0.92647c-4.72315,0.02933 -11.62145,3.61636 -15.20351,2.52794c-5.27738,-1.60355 -6.86894,-4.58647 -12.40532,-4.49141c-2.62844,0.04513 -8.00021,4.92943 -10.66437,5.19933c-3.96557,0.40174 -8.47228,-3.35667 -12.64943,-0.7618c-4.3422,2.6974 -5.45415,11.97242 -5.48053,11.87671z" fill="#fffd4d" stroke="none" stroke-width="NaN" stroke-linecap="butt"/><path d="M265.73869,93.02639c-0.48577,0.10846 -0.59373,-0.37963 -0.59373,-0.37963l-0.08606,-0.39766c-0.17672,-1.7644 -2.10443,-2.62316 -2.92469,-4.04188c-1.21102,-2.09456 -0.26376,-4.72773 -0.26094,-7.04725c0.64724,-5.53464 5.8632,-5.1296 9.98076,-4.48348c3.2759,1.00451 7.14429,3.15424 10.62498,2.06213c0,0 0.10198,-0.03153 0.22603,-0.01794l0.11362,-0.06101c1.09479,-0.3368 2.13529,-0.88605 3.09748,-1.50441c4.36941,-1.83334 8.59591,-4.29274 13.58771,-2.6238c1.59859,0.40614 3.52107,1.87087 5.77664,2.64378c1.94535,0.6666 4.35698,0.67222 4.43994,0.77003c0.88403,-0.01567 1.56535,-0.35057 2.36076,-0.74882c4.76309,-1.71308 8.12772,-3.35364 13.17752,-1.66631c3.86596,1.61564 6.61463,1.89486 10.60106,0.66143c0,0 5.89725,-1.7297 9.78307,-1.72136c2.13737,0.30367 5.37241,1.1996 7.61517,1.64502c1.12688,0.2238 2.35875,0.19993 2.35875,0.19993c1.61332,-0.02275 5.41436,-1.79998 6.93802,-1.84072c2.06484,-0.0552 2.46191,0.34935 4.30696,0.7765c1.99345,0.63993 3.83151,1.2548 5.84177,1.26051c0.07042,-0.06999 0.14009,-0.10499 0.14009,-0.10499c3.33768,-1.67468 7.36197,-3.2848 10.78746,-0.99808c3.48315,2.25299 4.75807,7.65379 2.96289,11.26126c-0.48599,0.97595 -2.96866,6.31587 -3.08578,5.88967c-0.06202,-0.22571 1.87273,-5.68765 2.1956,-6.3369c1.55999,-3.13487 0.4673,-8.03227 -2.61593,-9.97614c-3.02059,-2.03091 -6.64815,-0.51828 -9.60764,0.95864c-0.10911,0.21643 -0.37154,0.26037 -0.37154,0.26037l-0.31754,0.04628c-2.08946,0 -4.82929,-1.20583 -6.90136,-1.35454c-1.65638,-0.38466 -3.9494,-0.50154 -5.99405,0.00532c-1.16499,0.2888 -3.30045,1.28342 -3.30045,1.28342c-3.16567,0.72357 -7.47919,-1.46384 -11.02297,-1.9781c-3.84539,0.00939 -5.85033,1.09166 -9.56534,1.81137c0,0 -0.11881,0.02273 -0.25045,-0.01306c-3.98095,1.15526 -6.9201,0.84767 -10.84679,-0.79935c-4.77741,-1.6037 -7.93108,0.03607 -12.4379,1.64956c-0.9417,0.47482 -1.76391,0.8268 -2.82757,0.82962l-0.34539,-0.0445c0,0 -0.08956,-0.01286 -0.18686,-0.06598c-3.34176,0.46277 -6.72942,-2.56062 -9.88642,-3.34377c-4.69818,-1.57634 -8.73784,0.83278 -12.84715,2.54925c-1.01012,0.65604 -3.66079,1.81461 -3.87615,1.73012c-3.63661,0.9579 -7.46018,-1.05569 -10.87086,-2.11981c-3.44435,-0.5229 -8.20844,-1.17575 -8.76461,3.56733c0.00283,2.12815 -0.96481,4.56625 0.13159,6.49274c0.9304,1.63483 2.73302,2.37082 3.047,4.40571l0.07108,0.31289c0,0 0.10796,0.4881 -0.37782,0.59656z" fill="#9e9215" stroke="none" stroke-width="0.5" stroke-linecap="butt"/><path d="" fill="#fffc51" stroke="none" stroke-width="0.5" stroke-linecap="butt"/></g></g></svg>