<svg version="1.1" xmlns="http://www.w3.org/2000/svg" xmlns:xlink="http://www.w3.org/1999/xlink" width="126.74731" height="67.59831" viewBox="0,0,126.74731,67.59831"><g transform="translate(-261.29343,-51.87872)"><g data-paper-data="{&quot;isPaintingLayer&quot;:true}" fill-rule="nonzero" stroke-linejoin="miter" stroke-miterlimit="10" stroke-dasharray="" stroke-dashoffset="0" style="mix-blend-mode: normal"><path d="M306.58585,86.43423c-0.5,0 -0.5,-0.5 -0.5,-0.5v-0.50006c0,-0.75885 -0.16015,-1.41129 -0.16668,-2.1669c0.0214,-3.45941 -5.66843,-2.86784 -7.08486,-0.72276c0,0 -0.27735,0.41602 -0.69338,0.13867c-0.41602,-0.27735 -0.13868,-0.69338 -0.13868,-0.69338c1.95394,-2.90729 8.89355,-3.26289 8.91692,1.27746c-0.00813,0.73811 0.16668,1.41326 0.16668,2.16691v0.50006c0,0 0,0.5 -0.5,0.5z" fill="#000000" stroke="none" stroke-width="0.5" stroke-linecap="butt"/><path d="M343.35784,87.20391c-0.5,0 -0.5,-0.5 -0.5,-0.5l0.0068,-0.08448c-0.19575,-1.19742 -0.01077,-2.37842 -0.00034,-3.57914c1.2516,-3.83293 7.62269,-3.25987 9.80114,-0.56561c0,0 0.31235,0.39044 -0.07808,0.70279c-0.39044,0.31235 -0.70279,-0.07809 -0.70279,-0.07809c-1.57692,-1.99719 -7.02402,-2.82732 -8.03318,0.1011c0.01119,1.08937 -0.18557,2.16774 -0.00035,3.25457l0.0068,0.24887c0,0 0,0.5 -0.5,0.5z" fill="#000000" stroke="none" stroke-width="0.5" stroke-linecap="butt"/><path d="M371.90267,81.46036c-0.04433,0.00706 -0.07355,0.00706 -0.07355,0.00706c-4.45763,-0.02997 -0.01797,7.02439 2.53207,3.38925c0.63819,-1.96196 -0.76991,-2.17594 -1.96865,-3.06093l-0.26157,-0.11838c0,0 -0.14468,-0.07234 -0.22831,-0.21701z" fill="#fffc51" stroke="none" stroke-width="0.5" stroke-linecap="butt"/><path d="M371.8955,81.41089c0.08363,0.14467 0.23316,0.21655 0.23316,0.21655l0.26835,0.11853c1.19874,0.88499 2.64617,1.1729 2.00798,3.13486c-2.55004,3.63514 -7.04227,-3.49257 -2.58464,-3.4626c0,0 0.03084,-0.00026 0.07517,-0.00732z" data-paper-data="{&quot;noHover&quot;:false,&quot;origItem&quot;:[&quot;Path&quot;,{&quot;applyMatrix&quot;:true,&quot;segments&quot;:[[[742.91028,164.79096],[0,0],[-0.08866,0.01412]],[[742.76318,164.80508],[0,0],[-8.91526,-0.05994]],[[747.82732,171.58358],[-5.10008,7.27028],[1.27638,-3.92392]],[[743.89002,165.46172],[2.39748,1.76998],[0,0]],[743.36688,165.22496],[[742.91026,164.79094],[0.16726,0.28934],[0,0]]],&quot;closed&quot;:true,&quot;fillColor&quot;:[0,0,0,1]}]}" fill="#a8be04" stroke="none" stroke-width="0.5" stroke-linecap="butt"/><path d="M357.30562,88.58304l-0.12053,0.08995c-2.62709,4.39332 -7.79533,-0.03801 -10.88529,-1.23354c-1.2161,-0.47051 -2.92448,-0.15573 -4.19032,-0.15573c-3.8183,0 -6.23518,2.23202 -9.50847,4.08767c-2.20579,1.25047 -4.87642,1.22696 -7.29414,0.90305c-5.47716,-1.70728 -10.96953,-5.5695 -16.62495,-5.43227c-3.88648,0.52341 -6.11419,3.19567 -9.59269,4.45544c-1.86906,0.6769 -5.10302,0.26135 -7.00644,-0.15087c-3.67179,-0.69014 -7.64741,-1.9202 -11.32634,-2.16984c-2.05717,-0.1396 -4.00581,0.29474 -6.07464,0.29474c-3.55063,0.01066 -8.49338,3.53258 -10.96918,-0.52023c0,0 -0.13015,-0.21107 -0.34585,-0.24762c-0.02659,-0.25281 -0.14074,-0.60404 -0.37478,-1.04611c-1.10163,-2.08087 -0.12945,-4.72002 -0.13229,-7.0187c0.55882,-5.12316 5.44527,-4.40983 8.90604,-3.84503c3.42694,1.14939 7.16926,3.31334 10.82321,2.27868c0.21639,0.09126 2.88001,-1.16304 3.89495,-1.87165c4.1289,-1.85402 8.18968,-4.46491 12.91026,-2.76225c3.17205,0.8459 6.57573,4.11203 9.93342,3.61218c0.09776,0.05738 0.18774,0.07129 0.18774,0.07129l0.3471,0.04786c1.06873,-0.00304 1.8971,-0.38951 2.84329,-0.90238c4.5283,-1.74278 7.74571,-3.5453 12.54589,-1.81309c3.94541,1.77901 6.93892,2.13872 10.93885,0.89088c0.13226,0.03866 0.25189,0.01458 0.25189,0.01458c3.73272,-0.77739 5.75002,-1.93984 9.61374,-1.94998c3.56068,0.55547 7.8972,2.9274 11.07796,2.14584c0,0 2.14547,-1.07525 3.31601,-1.38719c2.05439,-0.54747 4.35862,-0.41968 6.0229,-0.0042c2.08195,0.16063 4.83524,1.46588 6.93466,1.46588l0.21984,-0.03647c0,0 0.26371,-0.04723 0.37334,-0.281c2.9736,-1.59527 6.71764,-3.24284 9.75263,-1.04918c3.09793,2.09964 4.19618,7.39848 2.62875,10.78456c-0.13321,0.28796 -0.22559,0.537 -0.28386,0.74669c-0.52479,0.59684 -0.94253,1.44746 -1.55823,1.70759c-1.00051,0.4227 -2.40987,-0.34494 -3.28389,-0.72688c-2.2037,-0.96301 -4.26703,-1.3745 -6.58275,-1.8684c-2.65592,-0.01174 -4.61467,0.11129 -7.10603,1.01338c-2.13636,0.77354 -3.85306,2.72408 -6.25189,1.96086c-1.14275,-0.35243 -2.20712,-0.70623 -3.41005,-0.70841l-0.44453,0.25686c0,0 -0.13738,0.14887 -0.1553,0.35306z" data-paper-data="{&quot;noHover&quot;:false,&quot;origItem&quot;:[&quot;Path&quot;,{&quot;applyMatrix&quot;:true,&quot;segments&quot;:[[218.82587,208.84193],[[219.27033,208.60457],[0,0],[1.20293,0.00202]],[[222.68042,209.26017],[-1.14275,-0.32628],[2.39884,0.7066]],[[228.93196,207.44789],[-2.13636,0.71615],[2.49137,-0.83516]],[[236.13778,206.51609],[-2.65592,-0.01087],[2.31571,0.45726]],[[242.72045,208.24712],[-2.2037,-0.89156],[0.87402,0.35361]],[[245.90464,208.91233],[-1.00051,0.39134],[0.6157,-0.24083]],[[247.46278,207.33282],[-0.52479,0.55256],[0.05827,-0.19414]],[[247.74662,206.64209],[-0.13321,0.26659],[1.56743,-3.13487]],[[245.11822,196.66595],[3.09793,1.94387],[-3.03499,-2.03091]],[[235.46478,197.62459],[2.9736,-1.47692],[-0.10963,0.21643]],[235.09147,197.88496],[[234.77242,197.93124],[0,0],[-2.09942,0]],[[227.83816,196.5767],[2.08195,0.14871],[-1.66428,-0.38466]],[[221.81554,196.58202],[2.05439,-0.50686],[-1.17054,0.2888]],[[218.49936,197.86544],[0,0],[-3.18076,0.72357]],[[207.42384,195.88734],[3.56068,0.51426],[-3.86372,0.00939]],[[197.8129,197.69871],[3.73272,-0.71971],[0,0]],[[197.56126,197.68565],[0.13226,0.03579],[-3.99993,1.15526]],[[186.66276,196.8863],[3.94541,1.64702],[-4.80018,-1.6037]],[[174.16557,198.53586],[4.5283,-1.61349],[-0.94619,0.47482]],[[171.32452,199.36548],[1.06873,-0.00282],[0,0]],[170.97748,199.32098],[[170.78973,199.255],[0.09776,0.05312],[-3.35769,0.46277]],[[160.85618,195.91123],[3.17205,0.78315],[-4.72058,-1.57634]],[[147.94779,198.46048],[4.1289,-1.71647],[-1.01494,0.65604]],[[144.05316,200.1906],[0.21639,0.08449],[-3.65395,0.9579]],[[133.13048,198.07079],[3.42694,1.06412],[-3.46077,-0.5229]],[[124.32409,201.63812],[0.55882,-4.74308],[0.00284,2.12815]],[[124.45631,208.13086],[-1.10163,-1.92649],[0.23404,0.40928]],[[124.83103,209.09856],[-0.02659,-0.23405],[0.2157,0.03384]],[[125.17686,209.3276],[0,0],[2.4758,3.75213]],[[136.04655,209.81924],[-3.55063,0.00987],[2.06883,0]],[[142.22047,209.53449],[-2.05717,-0.12924],[3.67893,0.23112]],[[153.54593,211.53837],[-3.67179,-0.63894],[1.90342,0.38164]],[[160.45571,211.70344],[-1.86906,0.62668],[3.4785,-1.1663]],[[170.14519,207.55368],[-3.88648,0.48458],[5.65542,-0.12705]],[[186.7182,212.54367],[-5.47716,-1.58062],[2.41772,0.29987]],[[193.97978,211.72244],[-2.20579,1.1577],[3.27329,-1.71797]],[[203.47512,207.96209],[-3.8183,0],[1.26584,0]],[[207.76335,208.12655],[-1.2161,-0.43561],[3.08996,1.10684]],[[218.55014,209.2514],[-2.62709,4.06738],[0,0]],[[218.67065,209.16827],[0,0],[0.01791,-0.18904]]],&quot;closed&quot;:true}]}" fill="#ffffff" stroke="none" stroke-width="0.5" stroke-linecap="butt"/><path d="M357.41145,87.78668l0.44446,-0.23736c1.20293,0.00202 2.26733,0.32932 3.41009,0.6556c2.39884,0.7066 4.11519,-1.09613 6.25155,-1.81228c2.49137,-0.83516 4.5499,-0.94266 7.20582,-0.9318c2.31571,0.45726 4.37897,0.83946 6.58267,1.73102c0.87402,0.35361 2.18369,1.05656 3.18419,0.66522c0.6157,-0.24083 1.03335,-1.02695 1.55814,-1.57951c0.05827,-0.19414 0.15063,-0.42414 0.28384,-0.69073c1.56743,-3.13487 0.46953,-8.03227 -2.6284,-9.97614c-3.03499,-2.03091 -6.67984,-0.51828 -9.65344,0.95864c-0.10963,0.21643 -0.37331,0.26037 -0.37331,0.26037l-0.31905,0.04628c-2.09942,0 -4.85231,-1.20583 -6.93426,-1.35454c-1.66428,-0.38466 -3.96823,-0.50154 -6.02262,0.00532c-1.17054,0.2888 -3.31618,1.28342 -3.31618,1.28342c-3.18076,0.72357 -7.51484,-1.46384 -11.07552,-1.9781c-3.86372,0.00939 -5.87822,1.09166 -9.61094,1.81137c0,0 -0.11938,0.02273 -0.25164,-0.01306c-3.99993,1.15526 -6.95309,0.84767 -10.8985,-0.79935c-4.80018,-1.6037 -7.96889,0.03607 -12.49719,1.64956c-0.94619,0.47482 -1.77232,0.8268 -2.84105,0.82962l-0.34704,-0.0445c0,0 -0.08999,-0.01286 -0.18775,-0.06598c-3.35769,0.46277 -6.7615,-2.56062 -9.93355,-3.34377c-4.72058,-1.57634 -8.77949,0.83278 -12.90839,2.54925c-1.01494,0.65604 -3.67824,1.81461 -3.89463,1.73012c-3.65395,0.9579 -7.49574,-1.05569 -10.92268,-2.11981c-3.46077,-0.5229 -8.24757,-1.17575 -8.80639,3.56733c0.00284,2.12815 -0.96941,4.56625 0.13222,6.49274c0.27063,0.47327 0.72055,1.19674 0.72055,1.19674c2.4758,3.75213 7.31906,0.50151 10.86969,0.49164c2.06883,0 4.11676,-0.41399 6.17393,-0.28475c3.67893,0.23112 7.65367,1.36494 11.32546,2.00388c1.90342,0.38164 5.04071,0.79175 6.90977,0.16508c3.4785,-1.1663 5.803,-3.66518 9.68948,-4.14976c5.65542,-0.12705 11.09585,3.40937 16.57301,4.98999c2.41772,0.29987 5.0558,0.33648 7.26159,-0.82123c3.27329,-1.71797 5.67703,-3.76035 9.49534,-3.76035c1.26584,0 3.07213,-0.27116 4.28823,0.16446c3.08996,1.10684 8.1597,5.19223 10.78679,1.12485l0.12051,-0.08312c0.01791,-0.18904 0.15522,-0.32635 0.15522,-0.32635zM384.85796,88.78701c-2.0598,0.88694 -4.41044,-1.14935 -6.30348,-1.61585c-1.29366,-0.3188 -2.61548,-0.4487 -3.92966,-0.71519c-1.47752,0.00725 -3.21141,-0.27943 -4.6493,0.07883c-3.02829,0.75451 -5.68094,3.55187 -8.98424,2.63164c-0.9037,-0.25837 -1.7523,-0.53005 -2.67593,-0.59996c-0.05953,0.07311 -0.12015,0.11352 -0.12015,0.11352l-0.35237,0.22324c-3.04412,4.44088 -8.23917,0.45425 -11.78464,-0.87515c-1.0855,-0.40702 -2.86587,-0.12126 -3.99749,-0.12126c-3.62558,0 -5.9435,2.03632 -9.07609,3.66822c-2.40317,1.25191 -5.2523,1.22393 -7.88127,0.89306c-5.37203,-1.53105 -10.78421,-5.08824 -16.29958,-4.97237c-3.77883,0.47366 -6.03963,2.97038 -9.43793,4.09831c-2.04932,0.68019 -5.33365,0.28496 -7.41785,-0.12794c-3.6328,-0.63367 -7.56645,-1.76457 -11.20406,-1.98882c-2.03394,-0.12539 -4.06406,0.28668 -6.11179,0.28668c-4.05852,-0.01304 -9.02956,3.41347 -11.96645,-0.93694c0,0 -1.00074,-1.10985 -1.28614,-2.84954c-0.26866,-1.63766 0.17694,-3.85858 0.17889,-5.4531c0.65033,-5.53464 6.24409,-5.1296 10.38128,-4.48348c3.29152,1.00451 7.17835,3.15424 10.67563,2.06213c0,0 0.10247,-0.03153 0.22711,-0.01794l0.11416,-0.06101c1.10001,-0.3368 2.14547,-0.88605 3.11225,-1.50441c4.39024,-1.83334 8.63689,-4.29274 13.65248,-2.6238c1.60621,0.40614 3.53786,1.87087 5.80418,2.64378c1.95462,0.6666 4.37775,0.67222 4.46111,0.77003c0.88824,-0.01567 1.57281,-0.35057 2.37201,-0.74882c4.7858,-1.71308 8.16647,-3.35364 13.24034,-1.66631c3.88439,1.61564 6.64616,1.89486 10.6516,0.66143c0,0 5.92536,-1.7297 9.82971,-1.72136c2.14756,0.30367 5.39802,1.1996 7.65147,1.64502c1.13225,0.2238 2.36999,0.19993 2.36999,0.19993c1.62101,-0.02275 5.44017,-1.79998 6.97109,-1.84072c2.07468,-0.0552 2.47365,0.34935 4.32749,0.7765c2.00295,0.63993 3.84978,1.2548 5.86962,1.26051c0.07076,-0.06999 0.14076,-0.10499 0.14076,-0.10499c3.35359,-1.67468 7.39707,-3.2848 10.83889,-0.99808c3.49975,2.25299 4.78075,7.65379 2.97701,11.26126c-0.00786,0.01572 -0.01576,0.03126 -0.0237,0.04663c0,0 -0.81466,1.52172 -1.18621,1.95052c-0.4069,0.46959 -1.15875,0.75581 -1.15875,0.75581z" fill="#96c5d4" stroke="none" stroke-width="0.5" stroke-linecap="butt"/><path d="M345.06537,72.45703c1.68267,-2.33567 1.51409,-7.29692 1.65841,-6.93146c0.0684,0.17322 1.16541,0.23165 1.65938,0.86164c0.37293,0.47563 0.14411,1.47055 0.32788,1.99276c0.54708,1.55464 0.53209,4.42507 0.15118,6.26865c-0.46137,2.23299 -3.71599,4.27179 -3.74205,4.4773c-0.69256,5.46167 -16.23387,2.32134 -22.34911,2.32134c-4.61663,0 -9.73584,-2.48434 -13.20574,-6.05257c-1.13666,-1.16888 -2.09635,-2.45406 -2.8034,-3.80633c-0.68532,-1.3107 -1.40947,-3.87028 -1.40947,-5.30944c0,-4.15391 1.29669,-8.02115 4.42275,-10.43271c2.48553,-1.91743 7.15347,-3.58188 10.5174,-3.58188c6.63127,0 11.26213,2.34239 14.64418,8.04638c0.3861,0.65116 1.18743,0.88232 1.1259,1.97005c-0.01403,0.24811 0.58601,5.50115 1.28398,8.73602c0,0 2.95772,2.22455 4.34935,2.39325c1.32834,0.16102 3.36937,-0.95298 3.36937,-0.95298z" fill="#ffffff" stroke="#000000" stroke-width="0" stroke-linecap="butt"/><path d="M321.11209,65.1753c0.35355,-0.35355 0.70711,0 0.70711,0l0.09048,0.10421c2.10011,1.40007 2.69806,4.2747 3.50551,6.69707c0.75392,1.13089 1.12335,2.46859 1.94517,3.57904c1.89333,2.5583 6.75537,4.0302 9.6123,5.17214c4.8411,1.61144 9.52605,-2.53545 11.19318,-6.70326c0.47721,-1.43365 0.91188,-7.40687 -1.05483,-8.09928v0.44919c0,1.12176 0.01102,2.2439 -0.01338,3.36542c-0.75019,1.57837 -1.31158,3.16731 -3.09219,3.86425c-3.4668,1.35693 -7.64606,-1.07029 -7.64606,-4.72925c0,-6.54977 -2.3891,-11.25457 -8.19276,-14.29051c-8.94424,-4.67886 -22.31249,-0.05414 -22.31249,10.03998c-0.00639,3.59786 2.13287,7.50056 3.42908,10.7066c0.30852,0.76308 -0.00456,2.91116 -0.50707,1.63985c-1.3102,-3.31474 -3.91592,-8.62539 -3.922,-12.34645c0,-10.75809 14.01538,-15.65835 23.69517,-10.96386c6.29263,3.05178 8.81008,8.2208 8.81008,15.2144c0,2.97942 3.5247,4.94566 6.35628,3.77216c1.44316,-0.59809 1.74185,-1.89359 2.40873,-3.13691c-0.03625,-1.04397 -0.01338,-2.09114 -0.01338,-3.13567v-0.75013c0,0 0,-0.07698 0.0302,-0.17053c-0.00398,-0.0285 -0.0061,-0.05898 -0.0061,-0.09159c0,-0.5 0.5,-0.5 0.5,-0.5c3.55223,0.11816 3.27283,7.10014 2.46971,9.50629c-1.8714,4.6785 -7.09864,9.09316 -12.47612,7.29829c-3.07549,-1.23102 -7.98792,-2.76811 -10.05655,-5.49571c-0.87838,-1.15819 -1.26364,-2.56765 -2.05528,-3.7551c-0.74206,-2.22618 -1.27573,-5.04693 -3.1619,-6.30437l-0.24289,-0.22916c0,0 -0.35355,-0.35355 0,-0.70711z" fill="#96c5d4" stroke="none" stroke-width="0.5" stroke-linecap="butt"/><path d="M305.6511,78.77656c0,0 2.75815,-1.44197 2.75815,-2.96346c0,-1.32697 -0.82261,-3.53287 -0.82261,-3.53287h7.93588v8.62543z" fill="#ffffff" stroke="none" stroke-width="0" stroke-linecap="butt"/><path d="M307.56289,72.16553c0.49694,-0.05346 1.18121,1.36479 1.18121,1.36479l0.07501,0.65362c0.16428,1.44586 0.05225,2.66217 -1.04344,3.73654c0,0 -0.65571,0.32075 -1.00926,-0.02159c-0.06119,-0.05925 -0.29545,-0.01058 -0.31977,-0.06805c-0.11623,-0.27461 0.62194,-0.59504 0.62194,-0.59504c0.87752,-0.83659 0.88838,-1.80917 0.75666,-2.94493l-0.075,-0.65363c0,0 -0.68427,-1.41825 -0.18733,-1.47172z" fill="#96c5d4" stroke="none" stroke-width="0.5" stroke-linecap="butt"/><g><g stroke="none" stroke-width="0.5" stroke-linecap="butt"><path d="M267.03023,95.94196c-0.15895,-1.15967 -1.31226,-4.5848 -2.14069,-5.48803c0.48269,0.05242 0.20077,-0.25197 0.74589,-0.29667c0.38131,-0.03127 1.7002,0.19774 1.7002,0.19774c2.22503,1.31665 2.53815,4.81383 2.53815,6.84716c0,2.34871 -2.777,4.91532 -1.60736,7.23074c0.55291,1.09456 1.81875,1.73351 2.91521,2.4902l-0.11219,0.28397c-0.95614,1.41575 -1.9132,2.87247 -2.68359,4.34771c-0.21169,0.40538 -0.58847,1.83549 -0.63869,2.1655c-1.63355,-2.63414 -3.06341,-4.21386 -3.17497,-6.54699c-0.07418,-1.55152 0.78768,-3.82166 1.11084,-5.73397c0.93149,-2.03387 1.68148,-3.05852 1.34721,-5.49738z" data-paper-data="{&quot;noHover&quot;:false,&quot;origItem&quot;:[&quot;Path&quot;,{&quot;applyMatrix&quot;:true,&quot;segments&quot;:[[[400.23674,373.5684],[1.37801,-4.06775],[-0.47808,3.82461]],[[398.54398,384.90968],[-0.10975,-3.10304],[0.16504,4.66627]],[[403.1983,397.99366],[-2.41661,-5.26829],[0.07429,-0.66003]],[[404.1384,393.66272],[-0.31317,0.81076],[1.13969,-2.95047]],[[408.07058,384.97629],[-1.41447,2.8315],[0,0]],[[408.32293,384.58868],[0,0],[-1.62206,-1.51336]],[[403.97681,379.61825],[0.81796,2.18912],[-1.73032,-4.63085]],[[406.31477,365.15323],[0,4.69742],[0,-4.06667]],[[402.01599,352.6368],[3.29163,2.6333],[0,0]],[401.77142,352.40088],[[401.50283,351.9485],[0.08716,0.27096],[-0.87397,-0.0057]],[[398.98867,351.65914],[0.81233,0.11928],[1.22556,1.80645]],[[402.14717,362.63645],[-0.23514,-2.31934],[0.49451,4.87771]]],&quot;closed&quot;:true}]}" fill="#ffffff"/><path d="M263.66964,89.14914c0.087,0.01943 0.17305,0.03896 0.25833,0.05846c0.16979,-0.0274 0.32175,0.05513 0.36971,0.08485c1.24597,0.44773 1.14941,0.91053 3.40158,0.95082c1.85736,1.52142 2.44071,4.59513 2.44071,6.91857c0,2.01264 -1.9493,5.07502 -1.19072,6.96384c0.41179,1.02532 1.40951,1.59307 2.15675,2.33841c0,0 0.29987,0.29986 0.07112,0.62343c0.01097,0.18075 -0.08973,0.3318 -0.08973,0.3318l-0.13097,0.1895c-0.84085,1.68023 -1.64681,3.41795 -2.24315,5.20477c-0.13509,0.40477 -0.36911,1.89011 -0.78832,2.01389c-0.3621,0.10692 -0.68922,-0.30848 -1.03383,-0.46272c-1.35462,-2.55033 -2.274,-4.17782 -2.41877,-7.16556c-0.06667,-1.37591 0.06252,-2.9554 0.39173,-4.27936c0.91303,-3.67184 1.9649,-5.77501 0.75477,-8.71824c-0.24715,-0.60111 -0.55545,-1.97732 -1.09928,-3.15995c-0.24239,-0.52711 -0.63762,-1.22788 -0.913,-1.44027c-0.13789,-0.03106 0.06305,-0.45224 0.06305,-0.45224zM266.1892,101.45767c-0.23904,1.91231 -0.90125,4.11912 -0.84638,5.67064c0.08252,2.33314 1.11885,3.90784 2.32716,6.54199c0.03715,-0.33002 0.31347,-1.76009 0.47005,-2.16547c0.56984,-1.47523 1.25886,-2.92747 1.96609,-4.34322l0.12618,-0.1938c-0.81103,-0.75668 -1.76408,-1.39065 -2.17306,-2.48521c-0.86516,-2.31543 1.16898,-4.8838 1.16898,-7.23251c0,-2.03333 -0.50358,-4.94156 -2.14939,-6.25821l-0.12229,-0.11796c0,0 -0.09071,-0.09071 -0.13429,-0.22619c-0.43699,-0.00285 -0.85092,-0.08504 -1.25708,-0.14468c0.61278,0.90322 1.46168,4.32898 1.57925,5.48865c0.24725,2.43885 -0.26621,3.4321 -0.95522,5.46598z" fill="#96c5d4"/></g><path d="M267.77884,114.63476c0,0 0.73083,-2.63508 1.23443,-3.93707c0.47031,-1.21593 2.12271,-4.2415 2.12271,-4.2415" fill="none" stroke="#000000" stroke-width="1" stroke-linecap="round"/></g><path d="M385.66646,88.28884c-0.24484,0.55914 -3.02717,1.03223 -3.07895,0.32711c-0.05081,-0.0592 -0.08031,-0.12985 -0.08031,-0.20569c0,-0.20891 0.22386,-0.37826 0.5,-0.37826c0.13534,0 0.25813,0.04069 0.34815,0.10677c1.01193,-0.19996 2.50034,-0.28207 2.31111,0.15008z" fill="#96c5d4" stroke="none" stroke-width="0.5" stroke-linecap="butt"/><g stroke="none" stroke-width="0.5" stroke-linecap="butt"><path d="M384.49958,88.34524c-0.87428,1.54611 -1.73453,3.60704 -1.32909,5.29913c0.40351,1.68401 1.37012,2.96843 1.37012,4.80924c0,1.97901 -0.66394,3.78182 -1.18101,5.31254c-0.28514,0.84414 -0.41739,1.48389 0.00182,2.49262c0.10738,0.25839 -0.44471,0.8539 -0.23879,1.22371c0.26754,0.48046 0.27323,0.80995 0.27323,0.80995c-0.03677,0.86822 -1.94552,5.65922 -2.70945,5.24053c-0.46931,-0.25721 -0.44682,-1.39338 -0.79735,-2.66724c-0.21476,-0.78044 0.33654,-1.79313 0.10948,-2.55154c-0.32412,-1.08263 0.06469,-2.08542 0.10087,-2.41209c0.12759,-1.15224 1.46437,-2.78919 1.98176,-4.07092c0.27354,-1.33249 0.32256,-2.83983 0.09398,-4.20005c-0.4998,-2.9742 -2.96666,-5.41915 -0.62941,-8.3244c0.12427,-0.10745 0.2508,-0.21482 0.37507,-0.32227l0.15353,-0.41277c0.09389,0.00714 0.53349,-0.00656 0.53349,-0.00656c0.48285,-0.09865 1.4214,-0.18714 1.89173,-0.21988z" data-paper-data="{&quot;noHover&quot;:false,&quot;origItem&quot;:[&quot;Path&quot;,{&quot;applyMatrix&quot;:true,&quot;segments&quot;:[[[660.85752,370.73864],[0.88233,-0.18141],[0,0]],[[660.55909,370.75087],[0.17158,0.01313],[0,0]],[[660.19632,371.00413],[0,0],[-0.22708,0.19761]],[[659.51507,371.59695],[0.22708,-0.19761],[-4.27089,5.34277]],[[660.76324,386.7782],[-0.9133,-5.46957],[0.41769,2.50145]],[[660.34126,394.7971],[0.49985,-2.45045],[-0.94544,2.35711]],[[656.52885,405.32543],[0.23314,-2.11897],[-0.311,2.82662]],[[662.03916,406.14802],[-0.73589,3.35709],[0,0]],[[660.67092,401.43306],[-0.22496,0.22702],[0,0]],[[660.68718,401.20842],[0,0],[1.23469,-4.11162]],[[663.59583,388.21707],[0,4.27042],[0,-3.38525]],[[661.36115,379.99147],[0.73734,3.09691],[-0.74088,-3.11176]],[[663.45631,370.50037],[-1.59759,2.8433],[-0.85943,0.0602]]],&quot;closed&quot;:true}]}" fill="#fbfdfa"/><path d="M385.49267,87.40738c0.13832,0.13351 0.17775,0.26702 0.17131,0.38348c0.13623,0.25714 -0.04911,0.52552 -0.04911,0.52552c-2.61663,3.78205 -0.28489,5.73719 -0.28489,9.63098c0,2.36844 -0.8385,4.79976 -1.54561,7.07704l0.02308,0.00409c0,0 -0.1565,0.58153 0.04025,1.19962c0.14958,0.4699 0.44404,1.19029 0.28711,1.63828c-0.35028,0.99999 -1.66309,1.52975 -2.73829,1.17353c-3.19295,-1.05786 -1.14836,-4.97972 0.10107,-8.00685c0.89447,-4.42257 -3.51699,-8.69952 -0.28611,-12.59553c0.16281,-0.13809 0.32563,-0.27617 0.48843,-0.41426l0.34673,-0.38071c0,0 0.54356,0.19386 0.83492,0.40096c0.27627,-0.02765 0.76682,0.12277 1.04037,0.11061c0.36359,-0.01616 0.61654,-0.25199 0.97267,-0.35964l0.41622,-0.38713c0,0 -0.20514,-0.37353 0.18183,0zM382.73694,88.71454c0,0 -0.06942,0.0134 -0.16332,0.00646l-0.19853,0.13378c-0.12427,0.10439 -0.24854,0.20876 -0.37282,0.31315c-2.33724,2.82227 0.18326,5.13011 0.68306,8.01935c0.22858,1.32136 0.13491,2.85239 -0.13863,4.14682c-0.5174,1.24512 -1.95876,4.44217 -2.08634,5.56149c-0.17019,1.49313 2.61281,2.20788 3.01552,0.43453c0,0 -0.10217,-0.57736 -0.28258,-0.78496c-0.49535,-0.56998 -0.45729,-1.82434 -0.45729,-1.82434c0.67568,-2.17192 1.49946,-4.51765 1.49946,-6.77346c0,-1.78823 -0.81942,-2.70919 -1.22293,-4.3451c-0.40545,-1.64375 0.2723,-3.51164 1.14658,-5.01359c-0.47033,0.0318 -0.93934,0.03003 -1.42219,0.12587z" fill="#96c5d4"/><path d="M383.51439,110.36524c0.22249,0.52159 0.19437,1.58155 0.19437,1.58155c-0.03852,0.90947 -0.12399,1.86827 -0.81651,2.72715c-0.84037,1.04224 -3.14351,1.59713 -3.57024,0.57225c-0.38475,-0.92407 0.43602,-1.99258 0.58511,-3.11498c0.10066,-0.75774 0.43797,-3.01734 0.15338,-4.15271c-0.16611,-0.66268 0.43921,-0.73739 0.4543,-0.87363c0.07983,-0.72094 3.10784,-0.89039 3.27889,0.3244c0.14501,1.02988 -0.27929,2.93598 -0.27929,2.93598z" data-paper-data="{&quot;noHover&quot;:false,&quot;origItem&quot;:[&quot;Path&quot;,{&quot;applyMatrix&quot;:true,&quot;segments&quot;:[[[660.85752,370.73864],[0.88233,-0.18141],[0,0]],[[660.55909,370.75087],[0.17158,0.01313],[0,0]],[[660.19632,371.00413],[0,0],[-0.22708,0.19761]],[[659.51507,371.59695],[0.22708,-0.19761],[-4.27089,5.34277]],[[660.76324,386.7782],[-0.9133,-5.46957],[0.41769,2.50145]],[[660.34126,394.7971],[0.49985,-2.45045],[-0.94544,2.35711]],[[656.52885,405.32543],[0.23314,-2.11897],[-0.311,2.82662]],[[662.03916,406.14802],[-0.73589,3.35709],[0,0]],[[660.67092,401.43306],[-0.22496,0.22702],[0,0]],[[660.68718,401.20842],[0,0],[1.23469,-4.11162]],[[663.59583,388.21707],[0,4.27042],[0,-3.38525]],[[661.36115,379.99147],[0.73734,3.09691],[-0.74088,-3.11176]],[[663.45631,370.50037],[-1.59759,2.8433],[-0.85943,0.0602]]],&quot;closed&quot;:true}]}" fill="#fbfdfa"/><path d="M383.38335,104.3357c0.53073,0 0.53073,0.51229 0.53073,0.51229c0,0.17819 0,0.62365 0,0.80184c0,3.27884 2.37,10.99327 -3.91702,10.47771c-1.01921,-0.27438 -1.30633,-0.10438 -1.63902,-1.30527c-0.34985,-1.26277 1.38146,-2.16756 1.37619,-3.31469c-0.00519,-1.13133 0.07352,-1.90034 -0.30469,-2.816c-0.39186,-0.94868 0.15391,-2.64981 0.50144,-3.5732c0,0 0.18138,-0.48145 0.68014,-0.30638c0.49877,0.17507 0.3174,0.65651 0.3174,0.65651c-0.24048,0.63772 -0.80571,2.2418 -0.51386,2.84157c0.52534,1.0796 0.38394,1.78449 0.38052,3.22881c-0.00236,0.99434 -2.47274,3.30271 -0.63203,3.57668c4.56763,0.3585 2.94718,-4.53015 2.64731,-6.5967c-0.1309,-0.90205 0.04217,-1.95292 0.04217,-2.86906c0,-0.17819 0,-0.35637 0,-0.53456v-0.26728c0,0 0,-0.51229 0.53072,-0.51229z" fill="#96c5d4"/></g><path d="M378.17698,110.30775c0,0 1.04397,3.28552 1.27333,4.5689c0.2456,1.37421 0.45958,4.10038 0.45958,4.10038" fill="none" stroke="#000000" stroke-width="1" stroke-linecap="round"/><path d="M267.47536,91.75546c0,0 -0.81961,-1.21984 -0.92296,-1.68027c-0.08056,-0.35884 -0.00811,-1.21638 -0.00811,-1.21638l-2.94837,-1.75868c0,0 1.22562,2.03972 1.79647,2.94357c0.40774,0.64558 1.20363,2.12557 1.20363,2.12557z" fill="#ffffff" stroke="#ffffff" stroke-width="0.5" stroke-linecap="round"/><path d="M381.84201,89.6408c0,0 3.70964,-7.03747 2.62845,-5.32558c-0.26607,0.42127 1.00589,0.63569 0.87949,1.871c-0.0673,0.65775 -1.60583,2.77742 -1.60583,2.77742z" data-paper-data="{&quot;index&quot;:null}" fill="#ffffff" stroke="#ffffff" stroke-width="0.5" stroke-linecap="round"/></g></g></svg>