<svg version="1.1" xmlns="http://www.w3.org/2000/svg" xmlns:xlink="http://www.w3.org/1999/xlink" width="121.76984" height="75.45393" viewBox="0,0,121.76984,75.45393"><g transform="translate(-255.55613,-121.44714)"><g data-paper-data="{&quot;isPaintingLayer&quot;:true}" fill-rule="nonzero" stroke-linejoin="miter" stroke-miterlimit="10" stroke-dasharray="" stroke-dashoffset="0" style="mix-blend-mode: normal"><path d="M327.10089,181.39502c0,-0.29055 0.29055,-0.29055 0.29055,-0.29055h0.49417c1.50437,0 3.00892,0.00677 4.51324,-0.00402c3.93845,-0.21229 7.91135,-0.16071 11.8722,-0.16071c3.7156,0 7.50699,-0.19731 10.9115,1.50736c0.70277,0.27142 2.02928,0.44906 2.43572,1.10129c1.03569,1.66201 0.18826,6.4106 -0.70049,7.95537c-0.74656,1.26426 -0.7982,2.94065 -1.98505,3.98737c-1.73534,1.53045 -4.82432,1.39495 -6.95085,1.39495c-3.69274,0 -7.56112,0.1636 -11.19027,-0.5898c-3.3761,-0.71283 -8.41346,-1.97681 -10.32302,-5.17994c-0.91044,-2.71774 -0.58306,-7.01294 1.08791,-9.43079h-0.16505c0,0 -0.29055,0.00001 -0.29055,-0.29054zM328.17958,181.68564c0.01141,0.11588 -0.06155,0.21315 -0.06155,0.21315c-1.64727,2.15333 -1.9599,6.44408 -1.12153,8.97475c1.81616,3.00538 6.74858,4.18561 9.91514,4.8542c3.57333,0.76906 7.42994,0.57726 11.07022,0.57726c1.92757,0 5.00369,0.19088 6.55647,-1.24062c1.10431,-1.01806 1.17439,-2.62171 1.87673,-3.85208c0.82376,-1.40823 1.57554,-5.81368 0.70889,-7.35841c-0.25101,-0.4474 -1.67233,-0.67958 -2.17655,-0.8754c-3.33392,-1.6647 -7.03848,-1.45766 -10.67637,-1.45766c-3.954,0 -7.92284,-0.06411 -11.85394,0.16042c-1.41242,0.01053 -2.82504,0.00513 -4.23751,0.00438z" fill="#008638" stroke="none" stroke-width="0.5" stroke-linecap="butt"/><path d="M332.37745,181.6508c3.93111,-0.22454 7.95385,-0.1779 11.90785,-0.1779c3.63788,0 7.37343,-0.18041 10.70735,1.4843c0.50422,0.19582 1.92756,0.43299 2.17857,0.88039c0.86665,1.54472 0.11692,5.97482 -0.70685,7.38305c-0.70234,1.23037 -0.77704,2.84813 -1.88135,3.86619c-1.55278,1.4315 -4.64256,1.25739 -6.57013,1.25739c-3.64028,0 -7.55755,0.19285 -11.13088,-0.57621c-3.16656,-0.66859 -8.11886,-1.88218 -9.93502,-4.88756c-0.83837,-2.53067 -0.52067,-6.85121 1.1266,-9.00454c0,0 0.07327,-0.09788 0.06186,-0.21376c1.41247,0.00074 2.82958,-0.00081 4.24199,-0.01134z" data-paper-data="{&quot;noHover&quot;:false,&quot;origItem&quot;:[&quot;Path&quot;,{&quot;applyMatrix&quot;:true,&quot;segments&quot;:[[[656.35918,362.52085],[2.82495,0.00149],[0.02281,0.23176]],[[656.23609,362.94715],[0,0],[-3.29453,4.30666]],[[653.99302,381.46361],[-1.67674,-5.06134],[3.63232,6.01076]],[[673.82331,391.17201],[-6.33312,-1.33718],[7.14666,1.53812]],[[695.96375,392.32653],[-7.28056,0],[3.85514,0]],[[709.0767,389.84528],[-3.10557,2.86301],[2.20862,-2.03612]],[[712.83015,382.14113],[-1.40468,2.46074],[1.64753,-2.81646]],[[714.24792,366.85736],[1.73331,3.08945],[-0.50202,-0.8948]],[[709.89483,365.10657],[1.00844,0.39164],[-6.66784,-3.32941]],[[688.54209,362.19124],[7.27577,0],[-7.908,0]],[[664.83421,362.51208],[7.86221,-0.44907],[-2.82483,0.02106]]],&quot;closed&quot;:true}]}" fill="#00d00f" stroke="none" stroke-width="0.5" stroke-linecap="butt"/><path d="M276.03614,180.50541c0,-0.29055 0.29054,-0.29055 0.29054,-0.29055h0.49417c1.50437,0 3.00892,0.00677 4.51324,-0.00401c3.93845,-0.21229 7.91134,-0.16071 11.87219,-0.16071c3.7156,0 7.50699,-0.19731 10.9115,1.50736c0.70277,0.27142 2.02928,0.44906 2.43572,1.10129c1.03569,1.66201 0.18826,6.4106 -0.70049,7.95537c-0.74656,1.26426 -0.7982,2.94066 -1.98505,3.98738c-1.73534,1.53045 -4.82432,1.67842 -6.95085,1.67842c-3.69274,0 -7.56112,0.1636 -11.19027,-0.58979c-3.3761,-0.71283 -8.41346,-1.97681 -10.32302,-5.17994c-0.91044,-2.71774 -0.58306,-7.29642 1.08791,-9.71427h-0.16506c0,0 -0.29054,0.00001 -0.29054,-0.29054zM277.11485,180.79603c0.01141,0.11588 -0.06155,0.21315 -0.06155,0.21315c-1.64727,2.15333 -1.9599,6.72756 -1.12153,9.25823c1.81616,3.00538 6.74858,4.18561 9.91514,4.8542c3.57333,0.76906 7.42994,0.57726 11.07022,0.57726c1.92757,0 5.00369,-0.0926 6.55648,-1.5241c1.10431,-1.01806 1.17438,-2.6217 1.87672,-3.85207c0.82376,-1.40823 1.57554,-5.81368 0.70889,-7.35841c-0.25101,-0.4474 -1.67233,-0.67957 -2.17654,-0.87539c-3.33392,-1.6647 -7.03849,-1.45767 -10.67637,-1.45767c-3.954,0 -7.92284,-0.06411 -11.85394,0.16042c-1.41242,0.01053 -2.82504,0.00513 -4.23751,0.00438z" fill="#008638" stroke="none" stroke-width="0.5" stroke-linecap="butt"/><path d="M281.31271,180.7612c3.93111,-0.22454 7.95385,-0.1779 11.90785,-0.1779c3.63788,0 7.37344,-0.18041 10.70736,1.48429c0.50422,0.19582 1.92757,0.43299 2.17858,0.88039c0.86665,1.54472 0.11691,5.97483 -0.70686,7.38306c-0.70234,1.23037 -0.77704,2.84812 -1.88135,3.86618c-1.55278,1.4315 -4.64256,1.54087 -6.57013,1.54087c-3.64028,0 -7.55755,0.19285 -11.13088,-0.57621c-3.16656,-0.66859 -8.11886,-1.88218 -9.93502,-4.88756c-0.83837,-2.53067 -0.52066,-7.13469 1.1266,-9.28802c0,0 0.07328,-0.09788 0.06187,-0.21376c1.41247,0.00074 2.82957,-0.00081 4.24199,-0.01134z" data-paper-data="{&quot;noHover&quot;:false,&quot;origItem&quot;:[&quot;Path&quot;,{&quot;applyMatrix&quot;:true,&quot;segments&quot;:[[[554.22969,361.30859],[2.82495,0.00149],[0.02281,0.23176]],[[554.1066,361.73489],[0,0],[-3.29453,4.30666]],[[551.86353,380.25135],[-1.67674,-5.06134],[3.63232,6.01076]],[[571.69382,389.95975],[-6.33312,-1.33718],[7.14666,1.53812]],[[593.83426,391.11427],[-7.28056,0],[3.85514,0]],[[606.94721,388.63302],[-3.10557,2.86301],[2.20862,-2.03612]],[[610.70066,380.92887],[-1.40468,2.46074],[1.64753,-2.81646]],[[612.11843,365.6451],[1.73331,3.08945],[-0.50202,-0.8948]],[[607.76534,363.89431],[1.00844,0.39164],[-6.66784,-3.32941]],[[586.4126,360.97898],[7.27577,0],[-7.908,0]],[[562.70472,361.29982],[7.86221,-0.44907],[-2.82483,0.02106]]],&quot;closed&quot;:true}]}" fill="#00d00f" stroke="none" stroke-width="0.5" stroke-linecap="butt"/><path d="" fill="#000000" stroke="none" stroke-width="0.5" stroke-linecap="butt"/><path d="" fill="#66f4ff" stroke="none" stroke-width="0.5" stroke-linecap="butt"/><path d="" data-paper-data="{&quot;index&quot;:null}" fill="#66f4ff" stroke="none" stroke-width="0.5" stroke-linecap="butt"/><path d="" fill="#66f4ff" stroke="none" stroke-width="0.5" stroke-linecap="butt"/><path d="" fill="#66f4ff" stroke="none" stroke-width="0.5" stroke-linecap="butt"/><path d="M364.52196,152.83104l0.21483,28.92435l-95.55392,0.48941l-1.60097,0.02007l-0.38961,-31.49564c0,0 0.84832,1.21725 2.2348,1.23624c0.64898,0.0089 1.14574,0.62461 2.59193,0.61532c0.62637,-0.00402 6.41712,-2.32267 7.17619,-2.33115c0.35696,-0.00399 0.69088,0.01305 1.02812,0.32348c0.55709,0.51278 1.12322,1.42638 1.81714,1.42137c0.56374,-0.00407 1.64897,0.29946 2.25206,0.29402c0.35658,-0.00321 11.32788,-2.47318 11.69729,-2.47697c1.00174,-0.01027 6.04246,2.75601 7.09947,2.74917c1.01344,-0.00655 1.87716,-0.40131 2.92233,-0.41327c0.5253,-0.006 2.8084,-2.09358 3.34073,-2.10055c0.33312,-0.00436 4.25899,-0.31685 4.59402,-0.32084c0.39103,-0.00466 5.62712,1.07006 6.01878,1.06602c0.41893,-0.00431 1.45654,0.26289 2.42232,0.02701c1.48841,-0.36354 3.03594,-1.28603 3.67209,-1.29237c0.71231,-0.00709 1.38039,0.85935 2.01006,0.84967c1.22375,-0.01883 2.93468,1.47687 3.91088,1.2729c0.49959,-0.10438 2.322,0.08795 3.36933,0.01168c0.36854,-0.02683 0.57185,-0.02303 0.68349,-0.16544c0.12442,-0.15872 0.54537,-0.15563 0.70036,-0.22694c0.34894,-0.16055 0.47528,-0.25308 0.82677,-0.25744c0.57441,-0.00713 0.6105,-0.3383 1.1529,-0.33524c0.06047,0.00035 1.33903,-0.57488 1.28765,-0.54573c-1.5038,0.85329 0.17348,-0.66893 2.43894,-0.45074c0.39325,0.03788 1.82403,0.79927 2.89491,1.10217c0.93142,0.26345 1.51359,0.07348 1.87533,0.10335c0.41941,0.03462 3.92433,-1.54505 4.33365,-1.50143c0.5392,0.05746 2.39977,0.81359 2.90787,0.88137c0.86085,0.11487 3.07517,1.84031 3.79349,1.9353c3.93371,0.52023 3.34744,0.28241 4.92539,0.14886c0.84542,-0.07155 1.23583,-0.54703 1.23583,-0.54703z" fill="#00d00f" stroke="#008638" stroke-width="0.5" stroke-linecap="round"/><text transform="translate(303.35271,162.35324) scale(0.18617,0.18617)" font-size="40" xml:space="preserve" fill="#2751ff" fill-rule="nonzero" stroke="#001cdc" stroke-width="1" stroke-linecap="butt" stroke-linejoin="miter" stroke-miterlimit="10" stroke-dasharray="" stroke-dashoffset="0" font-family="&quot;SpongeBoyTT1-Regular&quot;, Sans Serif" font-weight="normal" text-anchor="start" style="mix-blend-mode: normal"><tspan x="0" dy="0">BEST</tspan></text><text transform="translate(299.23612,170.75315) scale(0.18716,0.18716)" font-size="40" xml:space="preserve" fill="#2751ff" fill-rule="nonzero" stroke="#001cdc" stroke-width="1" stroke-linecap="butt" stroke-linejoin="miter" stroke-miterlimit="10" stroke-dasharray="" stroke-dashoffset="0" font-family="&quot;SpongeBoyTT1-Regular&quot;, Sans Serif" font-weight="normal" text-anchor="start" style="mix-blend-mode: normal"><tspan x="0" dy="0">FRIEND</tspan></text><g fill="#ff0000" stroke="#ff0000" stroke-width="1" stroke-linecap="round"><path d="M329.2373,174.85181l-30.23298,0.22867l0.03872,-3.04897l30.23298,-0.15245z"/><path d="M329.2373,171.80285v-3.31575l7.54996,4.3829l-7.47253,5.10703l-0.07743,-5.06892z"/></g><path d="M368.67371,122.17731c0.45502,0.06727 0.65285,-0.0167 0.68565,-0.18811c2.25662,0.06838 3.82756,2.58169 4.94581,4.25905c0.4273,1.16694 1.11752,2.26069 1.38768,3.59886c0.25951,1.28544 0.08655,3.06267 0.65918,4.2307c0.4151,2.58284 0.72395,5.15771 0.72395,7.78205c0,3.09308 -2.24941,4.47032 -5.25872,4.90827c-2.79346,0.02112 -0.51816,1.01353 -3.21293,-0.06759c-2.61784,-0.88964 -2.05638,-5.5779 -1.35689,-7.59214c1.05396,-3.04672 2.75133,-7.21702 3.54021,-10.37097c0.31627,-1.2674 -3.73566,-7.64128 -2.11395,-6.56014z" data-paper-data="{&quot;noHover&quot;:false,&quot;origItem&quot;:[&quot;Path&quot;,{&quot;applyMatrix&quot;:true,&quot;segments&quot;:[[[273.23414,152.39607],[0.0328,0.17141],[-2.25662,0.06838]],[[267.6027,156.64807],[1.11824,-1.67736],[-0.4273,1.16694]],[[266.22965,160.23355],[0.27016,-1.33817],[-0.25952,1.28544]],[[265.58001,164.43753],[0.57263,-1.16803],[-0.4151,2.58284]],[[264.8422,172.1822],[0,-2.62434],[0,3.09309]],[[270.07461,177.07606],[-3.00931,-0.43795],[2.79345,0.02112]],[[278.25584,176.58401],[-2.69477,1.08112],[2.61784,-0.88964]],[[279.5891,168.01622],[0.69949,2.01424],[-1.05395,-3.04672]],[[277.20773,158.42042],[0.78889,3.15395],[-0.31628,-1.26739]],[[273.91699,152.58394],[1.62171,-1.08114],[-0.45502,0.06727]]],&quot;closed&quot;:true}],&quot;index&quot;:null}" fill="#00d00f" stroke="#000000" stroke-width="0.5" stroke-linecap="butt"/><path d="M263.06556,121.89158c1.62171,-1.08114 -1.43022,5.29273 -1.11395,6.56013c0.13352,0.53382 -0.13141,1.09674 0.05344,1.67842c0.21421,0.67407 0.26674,2.07165 0.67003,2.75557c1.30488,2.21284 3.43361,3.14637 4.10246,5.07985c0.50178,1.44492 0.29176,4.06619 -0.42964,6.16473c-0.28424,0.82685 -0.04447,2.17595 -0.7844,2.42741c-2.69477,1.08112 -1.70518,-0.05415 -4.49864,-0.07527c-3.00931,-0.43795 -5.25872,-1.81519 -5.25872,-4.90827c0,-2.62434 0.30885,-5.19921 0.72395,-7.78205c0.57263,-1.16803 0.39967,-2.94526 0.65918,-4.2307c0.27016,-1.33817 0.96038,-2.43192 1.38768,-3.59886c1.11824,-1.67736 1.54633,-4.19067 3.80295,-4.25905c0.0328,0.17141 0.23063,0.25538 0.68565,0.18811z" data-paper-data="{&quot;noHover&quot;:false,&quot;origItem&quot;:[&quot;Path&quot;,{&quot;applyMatrix&quot;:true,&quot;segments&quot;:[[[273.23414,152.39607],[0.0328,0.17141],[-2.25662,0.06838]],[[267.6027,156.64807],[1.11824,-1.67736],[-0.4273,1.16694]],[[266.22965,160.23355],[0.27016,-1.33817],[-0.25952,1.28544]],[[265.58001,164.43753],[0.57263,-1.16803],[-0.4151,2.58284]],[[264.8422,172.1822],[0,-2.62434],[0,3.09309]],[[270.07461,177.07606],[-3.00931,-0.43795],[2.79345,0.02112]],[[278.25584,176.58401],[-2.69477,1.08112],[2.61784,-0.88964]],[[279.5891,168.01622],[0.69949,2.01424],[-1.05395,-3.04672]],[[277.20773,158.42042],[0.78889,3.15395],[-0.31628,-1.26739]],[[273.91699,152.58394],[1.62171,-1.08114],[-0.45502,0.06727]]],&quot;closed&quot;:true}],&quot;index&quot;:null}" fill="#00d00f" stroke="#000000" stroke-width="0.5" stroke-linecap="butt"/></g></g></svg>