<svg version="1.1" xmlns="http://www.w3.org/2000/svg" xmlns:xlink="http://www.w3.org/1999/xlink" width="47.2267" height="49.58804" viewBox="0,0,47.2267,49.58804"><defs><linearGradient x1="97.41264" y1="252.01336" x2="144.63934" y2="252.01336" gradientUnits="userSpaceOnUse" id="color-1"><stop offset="0" stop-color="#fdff00"/><stop offset="1" stop-color="#004917"/></linearGradient></defs><g transform="translate(-97.41264,-227.21934)"><g data-paper-data="{&quot;isPaintingLayer&quot;:true}" fill-rule="nonzero" stroke-linecap="butt" stroke-linejoin="miter" stroke-miterlimit="10" stroke-dasharray="" stroke-dashoffset="0" style="mix-blend-mode: normal"><path d="M128.64859,256.75929c0,0.20191 -8.08558,0.27161 -11.90111,0.23765c-1.0599,-0.00943 -1.65942,-0.28062 -1.71964,-0.2815c-1.01275,-0.01468 -1.8571,0.72713 -2.47575,0.7346c-0.09358,0.00113 -0.18102,0.12819 -0.34683,-0.29299c-0.11927,-0.30296 -0.23871,-0.56938 -0.20255,-1.08323c0.01498,-0.21283 0.27859,-0.61606 0.22803,-0.84729c-0.0789,-0.3609 -0.69145,-0.73788 -0.90224,-1.11116c-0.18642,-0.33012 0.02408,-0.65734 -0.00571,-0.968c-0.03264,-0.34045 0.31508,-0.56826 0.28408,-0.93251c-0.02543,-0.29881 -0.23682,-0.73076 -0.26113,-1.04075c-0.03122,-0.39816 -0.64478,-1.90624 -0.6689,-2.31461c-0.0103,-0.17449 1.1644,1.19598 1.15637,1.02126c-0.09634,-2.09444 -0.88619,-3.3021 -1.3664,-4.2599c-0.15343,-0.30601 -0.21033,-0.63521 -0.28731,-0.89638c-0.13361,-0.45335 0.25085,-1.6915 0.24006,-1.71021c-0.07279,-0.12617 0.01409,-0.33674 -0.01808,-0.46414c-0.09687,-0.3836 -0.199,-0.6577 -0.37847,-0.7702c-0.34169,-0.2142 -0.45237,-0.47791 -0.45237,-0.85897c0,-0.29691 0.03514,-0.79109 0.25591,-0.99769c0.26082,-0.24407 0.87481,-0.3348 1.30051,-0.3348c0.18178,0 0.45115,0.12374 1.33218,0.50258c0.05425,0.02333 0.33285,-0.01236 0.61897,-0.04928c0.3036,-0.03918 1.29043,-0.67014 1.35201,-0.64309c0.13395,0.05883 0.81282,-0.24667 0.9517,-0.18187c0.18494,0.08628 0.70182,0.10459 0.91541,0.18183c0.27558,0.09965 0.57052,0.41395 0.87951,0.50077c0.20806,0.05846 2.28863,-0.67744 2.50782,-0.6259c0.74776,0.17582 0.94758,0.32278 1.59178,0.49809c0.33195,0.09034 1.91273,-0.57576 2.22912,-0.48674c0.43108,0.12128 0.9244,0.16199 1.87663,0.29435c0.31415,0.04367 1.06889,-0.29947 1.42331,-0.24149c0.25406,0.04156 1.15259,0.1224 1.40333,0.27797c0.02077,0.01289 0.4135,-0.0965 0.56551,-0.21244c0.18103,-0.13809 0.93046,-0.19059 1.16293,-0.15185c0.28836,0.04804 0.55998,0.64122 0.67516,0.91278c0.19789,0.46657 -0.15574,1.37909 -0.33316,1.9076c-0.08047,0.23972 -0.04933,0.40044 -0.04613,0.4047c0.05634,0.07521 -0.04137,0.08629 -0.24302,0.05331c-0.17977,-0.0294 0.37329,-0.07864 0.25999,0.69124c-0.03184,0.21637 0.07973,0.64823 -0.01261,0.95382c-0.17272,0.57165 -0.58462,1.0967 -0.64507,1.7247c-0.07273,0.75559 -0.25081,1.80125 -0.18672,2.62298c0.04728,0.60617 -0.24999,0.60838 -0.27818,1.24303c-0.01545,0.34775 -0.18344,0.6418 -0.20316,0.98556c-0.01593,0.27776 -0.01436,0.83319 -0.03107,1.10727c-0.00959,0.15726 0.21283,0.35454 0.20571,0.50962c-0.0109,0.23723 0.23937,0.75014 0.23138,0.98018c-0.00274,0.07884 0.06086,0.26115 0.05,0.33408c-0.04914,0.33001 -0.23482,0.50237 -0.25279,0.81892c-0.02576,0.45383 -0.32106,0.77198 -0.32459,1.12973c-0.00469,0.47478 0.03721,0.65672 0.26616,0.86333c0.31187,0.28144 0.24734,0.4951 0.24734,0.50794z" fill="#fffd4d" stroke="none" stroke-width="NaN"/><path d="M122.99451,255.31667c-0.09637,0.00726 -0.10347,-0.0912 -0.10347,-0.0912l-0.00735,-0.10185c-0.02009,-0.27853 -0.04933,-0.53057 -0.18003,-0.78015c-0.30355,-0.74138 -0.58891,-1.67629 -1.3206,-2.09879c-0.54354,-0.37306 -1.47874,-0.29062 -2.12196,-0.24144c-0.02182,0.01191 -0.0431,0.01352 -0.0431,0.01352l-0.01196,0.00056c-0.50148,0.07846 -0.81511,0.41343 -1.0144,0.85531c-0.32401,0.71217 -0.41112,1.50072 -0.69995,2.21994c0,0 -0.03675,0.09131 -0.12612,0.05377c-0.08937,-0.03754 -0.05263,-0.12885 -0.05263,-0.12885c0.29087,-0.72112 0.38012,-1.51189 0.70331,-2.22781c0.2266,-0.49749 0.58544,-0.86476 1.13914,-0.96386c0.02332,-0.01433 0.04766,-0.01616 0.04766,-0.01616c0.69014,-0.05196 1.68343,-0.13663 2.28117,0.2668c0.76588,0.44223 1.07685,1.40381 1.39399,2.18228c0.14222,0.27086 0.17641,0.5482 0.19821,0.85038l0.00735,0.10185c0,0 0.0071,0.09846 -0.08927,0.10571z" fill="#000000" stroke="none" stroke-width="0.5"/><path d="M120.71812,252.02622c0,1.66595 0.17654,2.97411 -0.02032,3.72108c-0.10257,0.3892 -0.40483,0.67521 -0.67649,0.67521c-0.79305,0 -0.537,-1.47851 -0.537,-4.01249c0,-0.06529 0.00053,-0.82128 0.00159,-0.88627c0.03977,-2.45767 -0.16173,-4.61606 0.61089,-4.61606c0.12571,0 0.27779,-0.07 0.35954,0.04939c0.43399,0.63378 0.2618,2.93684 0.2618,5.06915z" fill="#fff649" stroke="none" stroke-width="0"/><path d="M119.52666,253.79553c0.00482,0.00275 0.00947,0.00568 0.01397,0.00877c-0.04111,0.11877 -0.0033,0.31157 -0.01185,0.44904c-0.0006,0.0067 -0.00115,0.01348 -0.00166,0.02033c-0.02425,0.23659 -0.11706,0.60746 -0.04388,0.89234c0.01922,0.07481 0.06585,0.10172 0.11791,0.09903c0.00745,0.18391 0.01276,0.37677 0.0003,0.53865c-0.00342,0.04441 -0.02532,0.08433 -0.08433,0.08433c-0.11258,0 -0.12197,-0.43824 -0.09785,-1.06617c0.00524,-0.13639 -0.0172,-0.95513 0.03472,-0.9848z" fill="#000000" stroke="none" stroke-width="0.5"/><path d="M119.41726,254.21523c0.00862,-0.09873 0.01896,-0.37046 0.01455,-0.47303c-0.00292,-0.06798 0.01073,-0.06992 0.02014,-0.08297c0.04133,-0.05728 0.1581,-0.02593 0.15813,0.05662c0.00017,0.54742 -0.05138,1.09756 0.00308,1.64226c0.00035,0.00313 0.00053,0.0063 0.00053,0.00952c0,0.00861 -0.00129,0.01692 -0.00369,0.02475c-0.0869,0.57664 -0.15212,0.47785 -0.18013,0.15938c-0.01835,-0.20865 -0.01248,-0.51158 -0.01507,-0.78064c-0.00248,-0.25795 -0.00564,-0.46311 0.00246,-0.55589z" fill="#000000" stroke="none" stroke-width="0.5"/><path d="M120.71192,255.05978c-0.08433,0 -0.08433,-0.08434 -0.08433,-0.08434v-0.01205c0,-0.3169 -0.0241,-0.63337 -0.0241,-0.95183c0,-0.60644 0,-1.21287 0,-1.81931c0,0 0,-0.00799 0.00246,-0.01905v-0.06436c0,-0.77456 -0.00073,-1.54912 0.0001,-2.32367c-0.08723,-0.86113 0.02986,-1.84739 -0.13516,-2.70882c-0.68331,-0.59625 -0.8552,0.44523 -0.88253,0.97464c0.02642,0.02784 0.02181,0.0693 0.02181,0.0693c-0.08844,0.79265 -0.02479,1.62254 -0.02479,2.41977c0,0.8686 0.02528,1.74031 0.0253,2.60621c0,0.18993 0,0.37986 0,0.56979c-0.14087,0.07498 -0.07055,0.35487 -0.08191,0.53729c-0.0006,0.0067 -0.00115,0.01348 -0.00166,0.02033c-0.02425,0.23659 -0.11706,0.60746 -0.04388,0.89234c0.00983,0.03828 0.02684,0.06402 0.04808,0.07966c0.01124,0.08906 0.02521,0.16868 0.04106,0.23389c0.00053,0.03911 0.00228,0.07735 0.00549,0.1144c-0.01213,0.00897 -0.02876,0.01512 -0.05152,0.01512c-0.08433,0 -0.08433,-0.08434 -0.08433,-0.08434c0,-0.5418 0,-1.13516 0,-1.70648c0,-0.22913 0,-0.45471 0,-0.67199c0.00003,-0.86588 -0.0253,-1.73762 -0.0253,-2.60621c0,-0.7672 -0.05705,-1.56313 0.01466,-2.329c-0.01466,-0.02321 -0.01466,-0.04948 -0.01466,-0.04948c0,-0.69118 0.41238,-1.85625 1.27368,-1.12456c0.03692,0.91005 -0.00554,1.83242 0.08413,2.73975c0.00077,0.77736 0.0001,1.55472 0.0001,2.33208v0.07591c0,0 0,0.00799 -0.00246,0.01905c0,0.60259 0,1.20517 0,1.80776c0,0.31849 0.0241,0.63484 0.0241,0.95183v0.01205c0,0 0,0.08433 -0.08434,0.08433z" fill="#000000" stroke="none" stroke-width="0.5"/><path d="M119.60495,257.19299c0,-0.04658 0.03776,-0.08434 0.08434,-0.08434c0.04658,0 0.08433,0.03776 0.08433,0.08434c0,0.04658 -0.03776,0.08433 -0.08433,0.08433c-0.04658,0 -0.08434,-0.03776 -0.08434,-0.08433z" fill="#9e9215" stroke="none" stroke-width="0.5"/><path d="M110.2275,242.31107c-0.08233,0.01829 -0.10062,-0.06403 -0.10062,-0.06403l-0.01459,-0.06707c-0.02995,-0.2976 -0.35665,-0.44245 -0.49566,-0.68174c-0.20523,-0.35329 -0.0447,-0.79742 -0.04422,-1.18866c0.10969,-0.93353 0.99366,-0.86521 1.69148,-0.75623c0.55518,0.16943 1.21077,0.53203 1.80066,0.34782c0,0 0.01728,-0.00532 0.03831,-0.00303l0.01926,-0.01029c0.18554,-0.05681 0.36188,-0.14945 0.52494,-0.25375c0.7405,-0.30923 1.45678,-0.72405 2.30276,-0.44256c0.27092,0.0685 0.59673,0.31556 0.97899,0.44593c0.32968,0.11243 0.73839,0.11338 0.75245,0.12988c0.14982,-0.00264 0.26529,-0.05913 0.40009,-0.1263c0.80722,-0.28894 1.37743,-0.56566 2.23324,-0.28106c0.65518,0.27251 1.12101,0.31961 1.7966,0.11156c0,0 0.03397,-0.01045 0.06459,0.00427c0.61383,-0.11679 0.9517,-0.29598 1.59338,-0.29461c0.36223,0.05122 0.91048,0.20234 1.29057,0.27746c0.19098,0.03775 0.39974,0.03372 0.39974,0.03372c0.27341,-0.00384 0.91759,-0.3036 1.17581,-0.31047c0.34994,-0.00931 0.41723,0.05893 0.72992,0.13097c0.33784,0.10794 0.64934,0.21165 0.99003,0.21261c0.01193,-0.0118 0.02374,-0.01771 0.02374,-0.01771c0.56565,-0.28247 1.24766,-0.55404 1.82819,-0.16834c0.5903,0.38001 0.80637,1.29096 0.50213,1.89943c-0.12598,0.25179 -0.51411,0.80867 -0.4948,1.1176c0.02467,0.01209 0.03844,0.03447 0.03844,0.03447c0.11931,0.19769 0.17216,0.43334 0.18116,0.67971c0.00629,0.01536 0.00964,0.03505 0.0013,0.05617c0.00417,0.41542 -0.11002,0.85515 -0.23603,1.19093c-0.0949,0.21836 -0.17289,0.44616 -0.24517,0.67484c0.0055,0.00363 -0.0683,0.2205 -0.07294,0.23573c-0.11421,0.50945 -0.35573,0.99743 -0.42878,1.51201c-0.04553,0.32073 0.0017,0.68473 0.00018,1.00816c0.15719,0.61832 -0.16743,0.24375 -0.06773,1.11165c0.00518,0.04507 -0.2106,0.57587 -0.18203,0.61775c0,0 0.05193,0.48363 -0.01825,0.53041c-0.07017,0.04678 -0.06141,0.063 -0.06141,0.063c-0.10593,-0.16188 0.08975,-1.10641 0.09992,-1.17053c0.03036,-0.19128 0.19849,-0.28729 0.18908,-0.40114c-0.02116,-0.25602 -0.05227,-0.42702 -0.12699,-0.73054c-0.00363,-0.88854 0.14558,-1.6173 0.39351,-2.44326l0.00227,-0.01918c0.10919,-0.3524 0.21448,-0.71309 0.36197,-1.05216c0.11569,-0.30874 0.23309,-0.73951 0.22817,-1.13733l-0.01436,-0.02527c-0.01802,-0.24363 -0.17682,-0.44749 -0.20565,-0.67932c-0.04581,-0.3684 0.34923,-0.93283 0.50727,-1.24913c0.26438,-0.52876 0.07919,-1.3548 -0.44333,-1.68267c-0.51191,-0.34255 -1.12669,-0.08742 -1.62824,0.16169c-0.01849,0.0365 -0.06296,0.04392 -0.06296,0.04392l-0.05381,0.00781c-0.35411,0 -0.81844,-0.20339 -1.1696,-0.22847c-0.28071,-0.06488 -0.66932,-0.08459 -1.01583,0.0009c-0.19743,0.04871 -0.55934,0.21647 -0.55934,0.21647c-0.5365,0.12205 -1.26753,-0.2469 -1.8681,-0.33364c-0.65169,0.00158 -0.99148,0.18413 -1.62108,0.30552c0,0 -0.02013,0.00383 -0.04244,-0.0022c-0.67467,0.19486 -1.17278,0.14298 -1.83825,-0.13483c-0.80965,-0.27049 -1.34411,0.00608 -2.1079,0.27823c-0.15959,0.08009 -0.29894,0.13946 -0.4792,0.13993l-0.05854,-0.00751c0,0 -0.01518,-0.00217 -0.03167,-0.01113c-0.56634,0.07806 -1.14046,-0.4319 -1.67549,-0.56399c-0.79622,-0.26588 -1.48084,0.14046 -2.17726,0.42998c-0.17119,0.11065 -0.62041,0.30607 -0.6569,0.29182c-0.61631,0.16157 -1.2643,-0.17806 -1.84233,-0.35755c-0.58373,-0.0882 -1.39111,-0.19831 -1.48537,0.6017c0.00048,0.35895 -0.16351,0.77019 0.0223,1.09513c0.15768,0.27575 0.46318,0.39989 0.51639,0.74311l0.01205,0.05278c0,0 0.0183,0.08233 -0.06403,0.10062z" fill="#9e9215" stroke="none" stroke-width="0.5"/><path d="M112.17654,255.12698c-0.08233,0.01829 -0.10062,-0.06403 -0.10062,-0.06403l-0.01405,-0.0683c-0.16855,-0.42157 -0.63861,-0.51746 -0.82207,-0.95728c-0.29003,-0.72579 0.3871,-1.15336 0.21747,-1.83011c0,0 -0.00231,-0.00752 -0.00147,-0.06385c0.00024,-0.01584 -0.01288,-0.04234 -0.00904,-0.06533c-0.06534,-0.46917 -0.60536,-2.55123 -0.80043,-2.94708c-0.00911,-0.03856 -0.04233,-0.36632 -0.05361,-0.42688c-0.01809,-0.09705 -0.08049,0.08507 -0.03809,0.02651c0.10101,-0.1395 0.56828,1.33445 0.71937,1.30932c0.45322,-0.07538 0.87847,-0.13102 1.31734,-0.26139c-0.05193,-0.34133 -0.49177,-0.54229 -0.75231,-0.74516c-0.00932,-0.0047 -0.01661,-0.01091 -0.02232,-0.01776c-0.00346,-0.00281 -0.00687,-0.00562 -0.01025,-0.00844c0,0 -0.06479,-0.05399 -0.0108,-0.11878c0.00014,-0.00018 0.00029,-0.00035 0.00044,-0.00052c0.00051,-0.48746 0.0234,-0.95517 0.10654,-1.435c-0.00937,-0.02416 -0.00569,-0.04804 -0.00569,-0.04804l0.01258,-0.08016c-0.0008,-0.26045 0.11518,-0.58275 -0.18835,-0.65056c-0.90843,-0.21446 -1.22065,-0.58051 -1.55304,-1.38406c-0.01289,-0.01479 -0.01837,-0.03013 -0.01837,-0.03013c-0.23159,-0.65357 -0.03747,-1.29216 0.15798,-1.92861c0.11786,-0.46943 -0.02378,-0.77405 -0.19729,-1.1896c-0.0134,-0.01729 -0.04175,-0.06487 0.00583,-0.11245c0.05963,-0.05964 0.11927,0 0.11927,0l0.02487,0.03385c0.19054,0.4573 0.337,0.80275 0.2098,1.31347c-0.17685,0.57361 -0.36691,1.16162 -0.18672,1.75116c0.00272,0.0049 0.00402,0.00813 0.00402,0.00813c0.32788,0.82002 0.58199,1.16523 1.47251,1.37411c0.42225,0.10544 0.31862,0.47085 0.31768,0.82756l-0.00144,0.0095c0.01222,0.02668 0.0069,0.0551 0.0069,0.0551c-0.09466,0.50402 -0.1184,0.9916 -0.1184,1.50253v0.01333c0.30066,0.23309 0.73012,0.43807 0.79271,0.83133c0.03689,0.04182 0.01769,0.08276 0.00427,0.10217c-0.0048,0.02381 -0.02112,0.06465 -0.07656,0.0673l-0.01451,0.01202c-0.40493,0.12317 -0.78518,0.18332 -1.20307,0.2493c-0.11482,0.01813 -0.68971,-1.46304 -0.76869,-1.36214c-0.03213,0.04105 0.0232,0.22632 0.03385,0.274c0.23003,0.45164 0.86893,2.58742 0.87027,3.09523c0,0 0.01108,0.03945 0.00609,0.10466c0.05922,0.60763 -0.47235,1.03443 -0.21316,1.68173c0.18074,0.43429 0.64818,0.52273 0.82252,0.9584l0.0221,0.09435c0,0 0.0183,0.08233 -0.06403,0.10062z" fill="#9e9215" stroke="none" stroke-width="0.5"/><path d="M117.14473,241.28245c-0.08433,0 -0.08433,-0.08433 -0.08433,-0.08433v-0.08435c0,-0.12799 -0.02701,-0.23804 -0.02811,-0.36549c0.00361,-0.5835 -0.95609,-0.48372 -1.195,-0.12191c0,0 -0.04678,0.07017 -0.11695,0.02339c-0.07017,-0.04678 -0.02339,-0.11695 -0.02339,-0.11695c0.32957,-0.49037 1.50007,-0.55035 1.50402,0.21547c-0.00137,0.1245 0.02811,0.23838 0.02811,0.36549v0.08435c0,0 0,0.08433 -0.08433,0.08433z" fill="#000000" stroke="none" stroke-width="0.5"/><path d="M123.34705,241.41227c-0.08433,0 -0.08434,-0.08433 -0.08434,-0.08433l0.00115,-0.01425c-0.03302,-0.20197 -0.00182,-0.40117 -0.00006,-0.60369c0.21111,-0.6465 1.28572,-0.54984 1.65315,-0.0954c0,0 0.05268,0.06585 -0.01317,0.11854c-0.06586,0.05268 -0.11854,-0.01317 -0.11854,-0.01317c-0.26598,-0.33687 -1.18474,-0.47688 -1.35495,0.01705c0.00189,0.18374 -0.0313,0.36563 -0.00006,0.54895l0.00115,0.04198c0,0 0,0.08433 -0.08433,0.08433z" fill="#000000" stroke="none" stroke-width="0.5"/><path d="M120.01025,247.32635c0,2.8094 -2.13846,5.08687 -4.7764,5.08687c-2.63793,0 -4.7764,-2.27747 -4.7764,-5.08687c0,-2.8094 2.13847,-5.08686 4.7764,-5.08686c2.63793,0 4.7764,2.27747 4.7764,5.08687z" fill="#fbfdfa" stroke="#000000" stroke-width="0"/><path d="M114.11811,253.06229c-0.01282,-0.00061 -0.02175,-0.00329 -0.02175,-0.00329c-0.3174,-0.09918 -0.77123,0.37305 -0.49107,0.64931c0.11958,0.11791 0.33511,0.23764 0.47585,0.11271c0.23182,-0.13631 0.17149,-0.53434 0.0526,-0.74103zM114.15438,252.90122c0.04333,-0.00563 0.07443,0.0317 0.07443,0.0317l0.05236,0.06515c0.15612,0.28838 0.20931,0.77033 -0.10375,0.96143c-0.21757,0.16218 -0.53419,0.0551 -0.70546,-0.14787c-0.36651,-0.43437 0.20907,-1.04894 0.67286,-0.91418c0,0 0.00382,0.00114 0.00955,0.00377z" fill="#fffc51" stroke="none" stroke-width="0.5"/><path d="M114.13844,253.07299c0.11889,0.2067 0.17864,0.61907 -0.05318,0.75539c-0.14073,0.12493 -0.36664,0.00352 -0.48621,-0.11439c-0.28015,-0.27626 0.18394,-0.76157 0.50134,-0.66239c0,0 0.00926,0.00287 0.02208,0.00347z" data-paper-data="{&quot;noHover&quot;:false,&quot;origItem&quot;:[&quot;Path&quot;,{&quot;applyMatrix&quot;:true,&quot;segments&quot;:[[[576.38862,314.41816],[0,0],[-0.152,-0.00718]],[[576.13068,314.37918],[0,0],[-3.76354,-1.17598]],[[570.3078,322.07832],[-3.32192,-3.2757],[1.41786,1.39814]],[[575.95014,323.41476],[-1.66872,1.48136],[2.74878,-1.61636]],[[576.57382,314.62794],[1.40976,2.45092],[0,0]]],&quot;closed&quot;:true,&quot;fillColor&quot;:[0,0,0,1]}]}" fill="#a8be04" stroke="none" stroke-width="0.5"/><path d="M111.97224,240.79374c-0.00034,0.0001 -0.00052,0.00014 -0.00052,0.00014c-0.42144,0.09289 -0.70478,1.02663 -0.36662,1.3316c0.08918,0.08042 0.31486,0.0657 0.42796,0.06993c0.43679,-0.27285 0.48418,-1.26536 -0.06053,-1.40153zM111.87909,240.64742c0.03863,-0.06729 0.1099,-0.03165 0.1099,-0.03165l0.02446,0.01448c0.72722,0.18181 0.64144,1.38887 0.06464,1.72772c-0.16518,0.00399 -0.43538,0.01803 -0.5734,-0.09696c-0.46177,-0.38472 -0.13101,-1.41525 0.37439,-1.61358z" fill="#fffc51" stroke="none" stroke-width="0.5"/><path d="M111.97326,240.78548c0.54471,0.13618 0.49803,1.14541 0.06124,1.41825c-0.1131,-0.00423 -0.34391,0.00976 -0.43309,-0.07067c-0.33816,-0.30497 -0.05042,-1.25469 0.37102,-1.34758c0,0 0.00019,-0.00004 0.00052,-0.00014z" data-paper-data="{&quot;noHover&quot;:false,&quot;origItem&quot;:[&quot;Path&quot;,{&quot;applyMatrix&quot;:true,&quot;segments&quot;:[[[550.94398,168.94384],[0,0],[-0.004,0.00112]],[[550.93786,168.94548],[0,0],[-4.99722,1.10148]],[[546.59068,184.73494],[-4.0097,-3.61618],[1.0574,0.95362]],[[551.66524,185.56418],[-1.34108,-0.05018],[5.17926,-3.23526]],[[550.94754,168.94548],[6.4589,1.61474],[0,0]]],&quot;closed&quot;:true,&quot;fillColor&quot;:[0,0,0,1]}]}" fill="#a8be04" stroke="none" stroke-width="0.5"/><path d="M128.16169,240.44351c-0.00748,0.00119 -0.01241,0.00119 -0.01241,0.00119c-0.75187,-0.00506 -0.00303,1.1848 0.42708,0.57166c0.10764,-0.33092 -0.12986,-0.36702 -0.33205,-0.51629l-0.04412,-0.01997c0,0 -0.0244,-0.0122 -0.03851,-0.0366zM128.22533,240.32018c0.0271,-0.00253 0.0503,0.00907 0.0503,0.00907l0.07406,0.03912c0.24851,0.22962 0.53098,0.26957 0.37699,0.72453c-0.65999,0.91373 -1.65888,-0.81078 -0.57739,-0.81687c0,0 0.05478,0 0.07604,0.04415z" fill="#fffc51" stroke="none" stroke-width="0.5"/><path d="M128.11144,240.44764c0.01528,0.02643 0.0426,0.03957 0.0426,0.03957l0.04903,0.02166c0.21904,0.16171 0.48352,0.21432 0.36691,0.57282c-0.46596,0.66423 -1.2868,-0.63818 -0.47228,-0.63271c0,0 0.00563,-0.00005 0.01374,-0.00134z" data-paper-data="{&quot;noHover&quot;:false,&quot;origItem&quot;:[&quot;Path&quot;,{&quot;applyMatrix&quot;:true,&quot;segments&quot;:[[[742.91028,164.79096],[0,0],[-0.08866,0.01412]],[[742.76318,164.80508],[0,0],[-8.91526,-0.05994]],[[747.82732,171.58358],[-5.10008,7.27028],[1.27638,-3.92392]],[[743.89002,165.46172],[2.39748,1.76998],[0,0]],[743.36688,165.22496],[[742.91026,164.79094],[0.16726,0.28934],[0,0]]],&quot;closed&quot;:true,&quot;fillColor&quot;:[0,0,0,1]}]}" fill="#a8be04" stroke="none" stroke-width="0.5"/><path d="M126.34859,253.38034c0.14317,-0.44045 0.70154,-0.70376 1.04093,-0.23419c0.1423,0.19688 0.14987,0.58813 0.14987,0.82325c-0.00475,0.22898 -0.21712,0.59377 -0.49081,0.46398c-0.25384,-0.12038 -0.56977,-0.65061 -0.69592,-0.90253l-0.02451,-0.03559c0,0 -0.04544,-0.06817 0.02044,-0.11492zM126.50247,253.4538l0.00105,0.00162c0.10221,0.20475 0.41071,0.74009 0.61383,0.82395c0.13826,0.05709 0.25737,-0.18588 0.25337,-0.30997c0,-0.19729 0.0023,-0.56078 -0.11803,-0.72463c-0.26823,-0.36523 -0.6595,-0.1187 -0.75021,0.20903z" fill="#fffc51" stroke="none" stroke-width="0.5"/><path d="M127.25768,253.23797c0.12033,0.16385 0.12003,0.53887 0.12003,0.73616c0.004,0.12408 -0.11968,0.3704 -0.25794,0.31332c-0.20311,-0.08386 -0.52156,-0.63111 -0.62376,-0.83585l-0.00104,-0.00163c0.09071,-0.32772 0.49448,-0.57722 0.76271,-0.21199z" data-paper-data="{&quot;noHover&quot;:false,&quot;origItem&quot;:[&quot;Path&quot;,{&quot;applyMatrix&quot;:true,&quot;segments&quot;:[[[723.23608,319.06042],[1.07562,-3.88598],[0,0]],[[723.24856,319.07956],[0,0],[1.21194,2.42778]],[[730.527,328.84956],[-2.40842,-0.9944],[1.6394,0.67688]],[[733.53132,325.17416],[0.04746,1.4713],[0,-2.33936]],[[732.13174,316.58186],[1.42686,1.94284],[-3.18056,-4.33076]]],&quot;closed&quot;:true,&quot;fillColor&quot;:[0,0,0,1]}]}" fill="#a8be04" stroke="none" stroke-width="0.5"/><path d="M125.78058,254.36621c-0.0247,0.02984 -0.06689,0.02985 -0.06689,0.02985c-0.2926,-0.00102 -0.61661,0.43724 -0.47277,0.73175c0.11458,0.23459 0.3558,0.33626 0.59708,0.36484c0.29462,0.04414 0.33037,-1.05822 0.01283,-1.12717zM125.70632,254.22747c0.0247,-0.02985 0.06689,-0.02985 0.06689,-0.02985l0.101,0.00081c0.48504,0.15406 0.53221,1.42956 -0.04671,1.46256c-0.30137,-0.03916 -0.60706,-0.16936 -0.74243,-0.46864c-0.18367,-0.40607 0.21136,-0.95714 0.62124,-0.96489z" fill="#9966ff" stroke="none" stroke-width="0.5"/><path d="M129.53959,247.15163c0,2.8094 -2.13847,5.08687 -4.7764,5.08687c-2.63793,0 -4.7764,-2.27747 -4.7764,-5.08687c0,-2.8094 2.13847,-5.08687 4.7764,-5.08687c2.63793,0 4.7764,2.27747 4.7764,5.08687z" fill="#fbfdfa" stroke="#000000" stroke-width="0"/><path d="M119.23073,247.12785c0,2.26217 -1.81261,4.09602 -4.04858,4.09602c-2.23597,0 -4.04858,-1.83385 -4.04858,-4.09602c0,-2.26217 1.81261,-4.09602 4.04858,-4.09602c2.23597,0 4.04858,1.83385 4.04858,4.09602z" fill="#3da9e8" stroke="#000000" stroke-width="0"/><path d="M128.59589,247.02761c0,2.21621 -1.75597,4.0128 -3.92206,4.0128c-2.16609,0 -3.92206,-1.79659 -3.92206,-4.0128c0,-2.21621 1.75597,-4.0128 3.92206,-4.0128c2.16609,0 3.92206,1.79659 3.92206,4.0128z" fill="#3da9e8" stroke="#000000" stroke-width="0"/><path d="M117.87698,247.02347c0,1.46735 -1.1612,2.65688 -2.59362,2.65688c-1.43242,0 -2.59362,-1.18952 -2.59362,-2.65688c0,-1.46735 1.1612,-2.65688 2.59362,-2.65688c1.43242,0 2.59362,1.18953 2.59362,2.65688z" fill="#000000" stroke="#000000" stroke-width="0"/><path d="M127.50504,246.84001c0,1.55469 -1.19661,2.81503 -2.67269,2.81503c-1.47609,0 -2.67269,-1.26033 -2.67269,-2.81503c0,-1.55469 1.19661,-2.81503 2.67269,-2.81503c1.47609,0 2.67269,1.26033 2.67269,2.81503z" fill="#000000" stroke="#000000" stroke-width="0"/><path d="M126.24593,252.17228c-0.00016,0.00008 -0.00032,0.00016 -0.00049,0.00024l-0.00024,0.03605c0.13638,0.52681 0.48371,0.96329 0.78462,1.4105c0.41675,0.59609 0.4932,1.74109 0.05367,2.34398c-0.5709,0.71159 -1.56995,0.50399 -2.32346,0.1237c-0.48694,-0.38771 -0.61587,-0.8479 -0.41026,-1.45313c0.0955,-0.28111 0.31421,-0.50815 0.38135,-0.80646c0.37409,-0.38917 0.83659,-0.92228 0.90049,-1.4631c-0.00663,-0.01058 -0.00948,-0.01913 -0.00948,-0.01913c-0.14586,-0.45197 0.2183,-0.50843 0.58112,-0.39134l0.08039,0.10555c0,0 0.03772,0.07543 -0.03772,0.11315zM125.80774,252.23974c0,0.60154 -0.49115,1.25024 -0.92789,1.66701c-0.04888,0.29074 -0.28184,0.50911 -0.36967,0.77903c-0.17439,0.53594 -0.08917,0.91294 0.34076,1.25889c0.67589,0.33382 1.58918,0.55434 2.09922,-0.08492c0.40394,-0.51757 0.31483,-1.63466 -0.05896,-2.14459c-0.31617,-0.47035 -0.67786,-0.92827 -0.81341,-1.48598l-0.00063,-0.11461c0,0 0,-0.01033 0.00362,-0.02376c-0.18536,-0.05733 -0.32429,-0.06556 -0.32553,0.06948c0.05248,0.01798 0.05248,0.07945 0.05248,0.07945z" fill="#6af2e7" stroke="none" stroke-width="0.5"/><path d="M125.83288,252.25187c0,0 -0.00034,-0.07975 -0.05376,-0.09805c0.00126,-0.13748 0.14405,-0.12904 0.33276,-0.07068c-0.00368,0.01367 -0.00368,0.02419 -0.00368,0.02419l0.00071,0.11669c0.13799,0.56778 0.51301,1.03919 0.83489,1.51803c0.38054,0.51914 0.46808,1.66685 0.05684,2.19376c-0.51925,0.65081 -1.45788,0.42669 -2.14598,0.08685c-0.4377,-0.3522 -0.52833,-0.74035 -0.35079,-1.28597c0.08942,-0.2748 0.32626,-0.50254 0.37602,-0.79853c0.44463,-0.42429 0.95288,-1.09105 0.95288,-1.70346z" data-paper-data="{&quot;noHover&quot;:false,&quot;origItem&quot;:[&quot;Path&quot;,{&quot;applyMatrix&quot;:true,&quot;segments&quot;:[[[357.49913,152.33234],[0,0],[0,3.56641]],[[351.99789,162.2156],[2.58932,-2.4709],[-0.2898,1.72374]],[[349.80623,166.83427],[0.52072,-1.60029],[-1.03391,3.17747]],[[351.82653,174.29792],[-2.54897,-2.05105],[4.00718,1.97911]],[[364.27226,173.79446],[-3.02391,3.79001],[2.39488,-3.06853]],[[363.92273,161.07974],[2.21608,3.02327],[-1.8745,-2.78859]],[[359.10024,152.26975],[0.80362,3.30652],[0,0]],[359.09649,151.59024],[[359.11793,151.44935],[-0.02144,0.07963],[-1.09895,-0.3399]],[[357.18798,151.8613],[0.00735,-0.80065],[0.31114,0.1066]],[357.49913,152.33235]],&quot;closed&quot;:true,&quot;fillColor&quot;:[0,0,0,1]}]}" fill="#b5f2ed" stroke="none" stroke-width="0.5"/><path d="M123.58091,251.44675c0.55528,0.01086 1.23877,-0.16926 1.76949,-0.26598c0.71094,-0.10163 1.45017,-0.15408 2.16725,-0.14548c0.34657,0.13179 0.33065,0.5086 0.11802,0.75175c-0.3578,0.40914 -0.83956,0.62882 -1.36842,0.71021c-0.90482,0.16425 -1.73858,0.0969 -2.53532,-0.34914c-0.21189,-0.14899 -0.41457,-0.32453 -0.36324,-0.58809c-0.00458,-0.01119 -0.00692,-0.02493 -0.00562,-0.04179c0.00647,-0.08409 0.09055,-0.07762 0.09055,-0.07762c0.0123,0.00097 0.02469,0.00184 0.03715,0.00259l0.00034,-0.00021c0,0 0.04964,-0.02708 0.0898,0.00376zM123.51848,251.61318l-0.00516,0.00214c-0.02332,0.15887 0.19604,0.31179 0.30843,0.39001c0.75611,0.42723 1.55771,0.48216 2.41759,0.32556c0.42895,-0.06597 0.87689,-0.22573 1.17835,-0.55633c0.11331,-0.12426 0.38687,-0.47075 0.0707,-0.57317c-0.70277,0.01162 -1.41333,0.04626 -2.11096,0.14586c-0.56164,0.10188 -1.28083,0.2886 -1.85895,0.26593z" fill="#6af2e7" stroke="none" stroke-width="0.5"/><path d="M125.37411,251.3395c0.69763,-0.0996 1.41955,-0.12903 2.12232,-0.14065c0.31618,0.10242 0.043,0.4513 -0.07031,0.57556c-0.30147,0.33061 -0.75121,0.49573 -1.18016,0.5617c-0.85988,0.1566 -1.67648,0.0974 -2.43259,-0.32983c-0.11238,-0.07822 -0.33176,-0.23288 -0.30845,-0.39174l0.00516,-0.00215c0.57811,0.02267 1.30239,-0.17101 1.86403,-0.27289z" data-paper-data="{&quot;noHover&quot;:false,&quot;origItem&quot;:[&quot;Path&quot;,{&quot;applyMatrix&quot;:true,&quot;segments&quot;:[[[343.92669,148.61766],[3.42749,0.13441],[0,0]],[[343.89611,148.63033],[0,0],[-0.13824,0.94189]],[[345.7247,150.94262],[-0.66629,-0.46375],[4.48278,2.53292]],[[360.05797,152.87278],[-5.09799,0.92845],[2.54315,-0.39112]],[[367.04413,149.57442],[-1.78731,1.96008],[0.67178,-0.73672]],[[367.46328,146.17626],[1.87453,0.6072],[-4.16656,0.06888]],[[354.94792,147.04105],[4.13609,-0.5905],[-3.32984,0.60403]]],&quot;closed&quot;:true,&quot;fillColor&quot;:[0,0,0,1]}]}" fill="#b5f2ed" stroke="none" stroke-width="0.5"/><path d="M125.22408,255.90993c-0.00673,-0.00379 -0.01083,-0.00806 -0.01083,-0.00806l-0.04411,-0.04844c-0.01288,-0.06094 -0.18129,-0.51435 0.05513,-0.45555c0.08574,0.02133 0.25163,0.31603 0.35368,0.37904c0.39457,0.24711 0.73693,-0.13346 0.93299,-0.44289c0.20069,-0.19528 0.5153,-0.19591 0.41005,0.15762c-0.07264,0.24399 -0.2939,0.32821 -0.46629,0.49338c-0.41504,0.25944 -0.86764,0.30518 -1.22297,-0.06397c0,0 -0.0041,-0.00426 -0.00764,-0.01113z" fill="#ffffff" stroke="none" stroke-width="0.5"/><path d="M128.8772,251.04242c-0.02367,-0.22064 0.19691,-1.28045 0.19691,-1.4771c0,0 0,-0.08433 0.08433,-0.08433c0.03298,0 0.02716,0.02757 0.03038,0.05362c0.00502,0.04056 0.00561,0.08625 0.00561,0.08625c0.02449,0.38157 -0.09191,1.46759 -0.1624,1.76671c-0.01784,0.07572 -0.04098,0.31871 -0.00471,0.53587c0.04974,0.29777 0.17189,0.58629 0.21376,0.68725c0.09004,0.21711 0.11381,0.26695 0.1579,0.47697c0.01661,0.07912 0.0851,0.22378 0.09498,0.4131c0.00734,0.14075 -0.04002,0.34442 -0.04673,0.36111c-0.20849,0.51918 -0.40655,0.93607 -0.48359,1.51277c-0.05032,0.26763 -0.13672,0.65094 -0.00328,0.90166c0.04595,0.08633 0.10762,0.14628 0.16661,0.21073c0.10783,0.11782 0.20666,0.23164 0.18399,0.41449c-0.00346,0.0279 -0.00975,0.05759 -0.01926,0.08939c0,0 0.02399,0.08874 -0.05662,0.06393c-0.08061,-0.0248 -0.0802,-0.10541 -0.0802,-0.10541c0.08193,-0.25722 -0.17953,-0.37828 -0.2926,-0.58207c-0.15598,-0.28111 -0.12198,-0.71571 -0.06519,-1.01943c0.08395,-0.6308 0.29546,-1.13142 0.52681,-1.70999l0.00187,-0.06619c0,-0.13586 -0.06126,-0.32854 -0.14192,-0.54691c-0.11778,-0.31884 -0.27694,-0.69242 -0.34719,-1.02378c-0.09801,-0.46231 0.05423,-0.83074 0.04051,-0.95865z" fill="#9e9215" stroke="none" stroke-width="0.5"/><path d="M114.3938,255.37287c0.00008,-0.00162 0.00026,-0.00428 0.00071,-0.00765c0.00759,-0.16521 0.06624,-0.5461 -0.09041,-0.63676c-0.34306,-0.19856 -0.81283,0.22165 -0.95332,0.49001c-0.13871,0.2928 -0.26472,0.66599 -0.18737,0.9965c0.10006,0.42758 0.63524,0.32823 0.82633,0.07333c0.20257,-0.28294 0.28841,-0.58965 0.40407,-0.91542zM114.54761,255.44376c-0.11913,0.33652 -0.2124,0.65029 -0.42178,0.94416c-0.27648,0.36847 -0.98623,0.43128 -1.12644,-0.13359c-0.09104,-0.36676 0.04627,-0.78562 0.2006,-1.11145c0.1773,-0.33181 0.93146,-0.94898 1.27665,-0.4688c0.1409,0.19599 0.08577,0.49408 0.08577,0.71997c0,0 0,0.02643 -0.0148,0.0497z" fill="#fffc51" stroke="none" stroke-width="0.5"/><path d="M114.40126,255.39128c-0.11916,0.33565 -0.21324,0.66287 -0.42195,0.95439c-0.09109,0.1215 -0.2599,0.20825 -0.42524,0.22277c-0.19204,0.01686 -0.37938,-0.06371 -0.43478,-0.30043c-0.07969,-0.34053 0.0497,-0.73697 0.19262,-1.03864c0.14475,-0.2765 0.63981,-0.71111 0.99327,-0.50654c0.1614,0.09341 0.1046,0.49026 0.09678,0.66048c-0.00046,0.00348 -0.00062,0.0063 -0.0007,0.00797z" data-paper-data="{&quot;noHover&quot;:false,&quot;origItem&quot;:[&quot;Path&quot;,{&quot;applyMatrix&quot;:true,&quot;segments&quot;:[[[579.65756,341.81574],[0,0],[0.0009,-0.01922]],[[579.66594,341.72498],[-0.00528,0.04008],[0.09002,-1.95902]],[[578.59386,334.17458],[1.85746,1.07506],[-4.06786,-2.3544]],[[567.2899,339.98488],[1.66584,-3.1821],[-1.6448,3.47186]],[[565.06814,351.8009],[-0.9171,-3.91902],[1.18646,5.07]],[[574.86632,352.6704],[-2.2658,3.02254],[2.40198,-3.3549]],[[579.65756,341.81576],[-1.37138,3.8629],[0,0]]],&quot;closed&quot;:true,&quot;fillColor&quot;:[0,0,0,1]}]}" fill="#a8be04" stroke="none" stroke-width="0.5"/><path d="M111.21162,243.51813l0.89124,-1.15804l4.39692,-0.58453c0,0 -0.532,0.50097 -0.68364,0.61067c-0.20653,0.1494 -0.58713,0.51122 -0.58713,0.51122c0,0 -1.44611,0.62603 -1.97556,0.72442c-0.43595,0.08101 -1.77072,-0.03144 -1.77072,-0.03144z" fill="#fffd4d" stroke="#fffd4d" stroke-width="0.5"/><path d="M111.14332,243.66892c0.02667,-0.08001 0.10667,-0.05334 0.10667,-0.05334l0.00948,0.00772c0.56621,0 1.1339,0.11589 1.70077,0.0462c0.80101,-0.16045 1.63637,-0.36664 2.30161,-0.86396c0.48004,-0.267 1.07235,-0.87236 1.1925,-1.42949c0,0 0.0183,-0.08233 0.10062,-0.06403c0.08233,0.01829 0.06403,0.10062 0.06403,0.10062c-0.13682,0.6009 -0.74095,1.24341 -1.26538,1.53442c-0.68072,0.51236 -1.54539,0.72498 -2.3666,0.88897c-0.57694,0.07004 -1.15171,-0.04406 -1.72755,-0.04406l-0.06282,-0.01637c0,0 -0.08001,-0.02667 -0.05334,-0.10668z" fill="#000000" stroke="none" stroke-width="0.5"/><path d="M127.74205,243.83403c-0.55266,-0.11377 -1.72991,-0.4159 -1.72991,-0.4159c0,0 -1.03495,-0.756 -1.25053,-0.92875c-0.15829,-0.12684 -0.48169,-0.61157 -0.48169,-0.61157l4.03879,0.35363l1.24217,1.49242c0,0 -1.36377,0.20385 -1.81883,0.11017z" data-paper-data="{&quot;index&quot;:null}" fill="#fffd4d" stroke="#fffd4d" stroke-width="0.5"/><path d="M129.46789,243.86344l-0.06281,0.01638c-0.57584,0 -1.15061,0.1141 -1.72755,0.04406c-0.82121,-0.164 -1.68588,-0.37661 -2.3666,-0.88897c-0.52444,-0.29101 -1.12856,-0.93352 -1.26538,-1.53442c0,0 -0.01829,-0.08233 0.06403,-0.10062c0.08233,-0.01829 0.10062,0.06403 0.10062,0.06403c0.12014,0.55713 0.71246,1.16249 1.1925,1.42949c0.66524,0.49732 1.50061,0.70351 2.30161,0.86396c0.56686,0.0697 1.13456,-0.0462 1.70077,-0.0462l0.00948,-0.00772c0,0 0.08001,-0.02667 0.10668,0.05334c0.02667,0.08001 -0.05334,0.10668 -0.05334,0.10668z" data-paper-data="{&quot;index&quot;:null}" fill="#000000" stroke="none" stroke-width="0.5"/><path d="M112.07787,256.94837c0,0 -0.11593,-0.2763 -0.11616,-0.37171c-0.0003,-0.12555 0.11451,-0.3163 0.11451,-0.3163c0,0 -0.10727,0.00102 0.05824,0.00247c0.15436,0.00136 0.21837,-0.01166 0.72933,0.0626c0.15818,0.02299 0.61487,0.30655 0.80368,0.30819c0.10963,0.00095 0.58095,-0.37033 0.69923,-0.36966c4.2916,0.02436 13.70681,0.13696 13.70681,0.13696l0.61828,0.0228c0,0 0.04041,0.01948 0.10834,0.10711c0.05,0.0645 0.16152,0.06442 0.22592,0.15065c0.07541,0.10097 0.32068,0.28914 0.28183,0.36977c-0.0634,0.13158 -0.50899,0.35013 -0.60886,0.46166c-0.115,0.12842 -0.26393,0.14436 -0.48807,0.16137c-0.21615,0.01641 -0.50498,0.03872 -0.75585,-0.09699c-0.09837,-0.05322 -0.33613,-0.28457 -0.57415,-0.35791c-0.22408,-0.06904 -0.65391,-0.03566 -0.82991,-0.03518c-0.01284,0.00003 -0.07677,0.0318 -0.08613,0.03204c-0.06435,0.00162 -0.05396,0.00605 -0.09945,0.0409c-0.11545,0.08846 -0.24655,0.17378 -0.33372,0.14414c-0.11329,-0.03852 -0.51775,-0.28786 -0.70157,-0.24747c-0.34767,0.07641 -0.80209,0.29814 -1.45181,0.31559c-0.18261,0.0049 -1.10071,-0.27104 -1.29202,-0.26554c-0.20331,0.00584 -0.49437,0.12271 -0.70379,0.12521c-0.4717,0.00564 -1.00977,-0.18271 -1.49189,-0.17039c-0.68508,0.01751 -1.07555,0.48183 -1.71353,0.47984c-0.35591,-0.00111 -0.83921,-0.42492 -1.19795,-0.41136c-0.46565,0.0176 -0.93201,0.23281 -1.26011,0.30608c-0.31804,0.07103 -0.66506,0.02102 -0.98529,0.02566c-0.16774,0.00243 -0.43458,-0.37325 -0.60646,-0.36174c-0.31022,0.02077 -0.38972,0.21687 -0.58319,0.33023c-0.18748,0.10985 -0.49055,0.13685 -0.68588,0.16836c-0.14143,0.02282 -0.22553,-0.08984 -0.32041,-0.15035c-0.09994,-0.06373 -0.20694,-0.07613 -0.20694,-0.07613z" fill="#fffd4d" stroke="none" stroke-width="0"/><path d="M117.06736,257.11356c0.46444,0.18736 1.05431,0.65229 1.58099,0.38781c0.21593,-0.07028 0.33101,-0.26766 0.54398,-0.33441c0.4495,-0.14088 1.03446,-0.01148 1.49112,0.02027c0.18091,0.03185 0.43708,0.14702 0.62337,0.11133c0.281,-0.05383 0.47887,-0.23558 0.78853,-0.20656c0.28491,0.0267 0.49751,0.18731 0.75718,0.28152c0.28211,0.103 0.64143,0.09789 0.93608,0.02955l0.01708,-0.00852c0.31346,-0.17093 0.60404,-0.26036 0.90331,-0.30712c0.30984,-0.04841 0.46031,0.24411 0.82383,0.24411c0.16963,0 0.55601,-0.32274 0.76298,-0.32119c0.1608,0.0012 0.31513,0.01997 0.4354,0.08287c0.42675,0.22317 0.52937,0.48689 1.06908,0.48689c0.44512,0 1.22834,-0.12533 1.36375,-0.63184c0,0 0.00593,-0.0895 0.08729,-0.0673c0.08136,0.02219 0.05917,0.10355 0.05917,0.10355c-0.16278,0.58722 -0.77925,0.75613 -1.30693,0.75613c-0.1761,0 -0.49846,-0.00584 -0.66056,-0.08972c-0.24282,-0.12564 -0.49659,-0.37455 -0.75879,-0.44072c-0.08799,-0.02221 -0.18134,-0.03374 -0.2767,-0.03923c-0.19247,-0.01109 -0.57232,0.33978 -0.75362,0.33978c-0.35038,0 -0.49486,-0.32849 -0.79893,-0.27556c-0.28048,0.04883 -0.54269,0.13516 -0.8298,0.28664c-0.0132,0.01478 -0.02799,0.02217 -0.02799,0.02217l-0.03308,0.01429c-0.00577,0.00143 -0.01155,0.00283 -0.01736,0.00421l-0.01041,0.00522c0,0 -0.02469,0.01234 -0.05288,0.00879c-0.31821,0.06522 -0.68814,0.06436 -0.98858,-0.04449c-0.24364,-0.08878 -0.44716,-0.24697 -0.71345,-0.27194c-0.2895,-0.02715 -0.47925,0.15789 -0.74536,0.20458c-0.21379,0.03751 -0.46546,-0.07327 -0.67332,-0.11005c-0.427,-0.03127 -0.99977,-0.16306 -1.41853,-0.02717c-0.20026,0.06498 -0.32142,0.25831 -0.53132,0.32975c-0.58163,0.28961 -1.19366,-0.18328 -1.70818,-0.38704c0,0 -0.00172,-0.00069 -0.00455,-0.00211l-0.01775,-0.00075c-0.6568,0.09923 -1.21906,0.42568 -1.88332,0.42568c-0.19997,0 -0.4279,0.02581 -0.60994,-0.0737c-0.12563,-0.06868 -0.16888,-0.32005 -0.31021,-0.29712c-0.26957,0.04374 -0.57857,0.30712 -0.86265,0.38527c-0.88004,0.29373 -1.4642,-0.41393 -1.4642,-1.25542c0,-0.41922 0.42932,-1.3259 0.06988,-1.66628c0,0 -0.05963,-0.05963 0,-0.11927c0.05963,-0.05964 0.11927,0 0.11927,0c0.42414,0.44018 -0.02048,1.26708 -0.02048,1.78555c0,0.73399 0.47483,1.35095 1.24666,1.09399c0.23823,-0.06435 0.70371,-0.41612 0.92652,-0.39184c0.12917,0.01407 0.25217,0.24676 0.37654,0.31735c0.14909,0.08462 0.3644,0.05281 0.52862,0.05281c0.65046,0 1.2124,-0.32287 1.85767,-0.42372l0.04897,-0.00098c0,0 0.01812,0 0.03757,0.0084c0.01416,0.00159 0.02405,0.00554 0.02405,0.00554z" fill="#9e9215" stroke="none" stroke-width="0.5"/><path d="M122.4978,255.35974l0.05564,0.07451c0.36382,0.65276 0.83079,-0.01765 0.83079,-0.50376c0,0 0,-0.08434 0.08433,-0.08434c0.08433,0 0.08434,0.08434 0.08434,0.08434c0,0.64286 -0.68919,1.41154 -1.14097,0.59553l-0.04905,-0.06508c0,0 -0.0506,-0.06747 0.01687,-0.11807c0.06747,-0.0506 0.11807,0.01687 0.11807,0.01687z" data-paper-data="{&quot;index&quot;:null}" fill="#000000" stroke="none" stroke-width="0.5"/><path d="M120.03196,256.27468c0.63975,0.10696 0.63719,-1.05728 0.63245,-1.32509c-0.00209,-0.1181 -0.13093,-0.43162 0.06046,-0.43162c0.12769,0 0.10822,0.80085 0.10821,0.81949c-0.00038,0.48295 -0.23437,1.06463 -0.79085,1.10592c-0.61486,0.04561 -0.67451,-0.77521 -0.619,-1.16804c0.00506,-0.0358 0.01947,-0.24635 0.03241,-0.35696c0.00003,0.08596 0.00765,0.16999 0.02759,0.24763c0.00983,0.03828 0.02684,0.06402 0.04809,0.07966c0.01124,0.08906 0.02521,0.16869 0.04106,0.23389c0.00171,0.12543 0.01589,0.24193 0.05081,0.3387c0.01642,0.22258 0.10836,0.40619 0.40877,0.45641z" fill="#000000" stroke="none" stroke-width="0.5"/><path d="M117.75022,255.22887c0.06747,0.0506 0.01687,0.11807 0.01687,0.11807l-0.04906,0.06508c-0.45179,0.816 -1.14097,0.04733 -1.14097,-0.59553c0,0 0,-0.08434 0.08433,-0.08434c0.08433,0 0.08434,0.08434 0.08434,0.08434c0,0.48612 0.46696,1.15652 0.83079,0.50376l0.05564,-0.07451c0,0 0.0506,-0.06747 0.11807,-0.01687z" fill="#000000" stroke="none" stroke-width="0.5"/><path d="M127.25768,253.23798c0.12033,0.16385 0.18982,0.46907 0.18982,0.66636c0.00175,0.05438 -0.05996,0.20912 -0.1246,0.29767c-0.01548,0.0212 -0.10677,-0.33885 -0.26987,-0.58693c-0.10003,-0.15214 -0.21533,-0.3148 -0.28141,-0.3995c-0.04829,-0.06189 -0.07393,-0.06038 -0.03011,-0.09081c0.05852,-0.04065 0.15561,-0.06629 0.24567,-0.05198c0.10972,0.01743 0.21279,0.08661 0.27049,0.16519z" data-paper-data="{&quot;noHover&quot;:false,&quot;origItem&quot;:[&quot;Path&quot;,{&quot;applyMatrix&quot;:true,&quot;segments&quot;:[[[723.23608,319.06042],[1.07562,-3.88598],[0,0]],[[723.24856,319.07956],[0,0],[1.21194,2.42778]],[[730.527,328.84956],[-2.40842,-0.9944],[1.6394,0.67688]],[[733.53132,325.17416],[0.04746,1.4713],[0,-2.33936]],[[732.13174,316.58186],[1.42686,1.94284],[-3.18056,-4.33076]]],&quot;closed&quot;:true,&quot;fillColor&quot;:[0,0,0,1]}]}" fill="#a8be04" stroke="none" stroke-width="0.5"/><path d="M144.63934,252.01336c0,13.69336 -10.57205,24.79402 -23.61335,24.79402c-13.04129,0 -23.61335,-11.10066 -23.61335,-24.79402c0,-13.69336 10.57205,-24.79402 23.61335,-24.79402c13.04129,0 23.61335,11.10066 23.61335,24.79402z" fill="url(#color-1)" stroke="#0b61a3" stroke-width="0"/><text transform="translate(103.86541,268.52627) scale(0.23168,0.23768)" font-size="40" xml:space="preserve" fill="#000000" fill-rule="nonzero" stroke="none" stroke-width="1" stroke-linecap="butt" stroke-linejoin="miter" stroke-miterlimit="10" stroke-dasharray="" stroke-dashoffset="0" font-family="&quot;SpongeBoyTT1-Regular&quot;, Sans Serif" font-weight="normal" text-anchor="start" style="mix-blend-mode: normal"><tspan x="0" dy="0">Faces</tspan></text><g><path d="M133.15274,258.05735c0,0.289 -11.57316,0.38876 -17.03445,0.34015c-1.51707,-0.01349 -2.37518,-0.40166 -2.46138,-0.40292c-1.44958,-0.02102 -2.65812,1.04077 -3.54363,1.05146c-0.13394,0.00163 -0.2591,0.18348 -0.49642,-0.41937c-0.17072,-0.43363 -0.34168,-0.81497 -0.28992,-1.55047c0.02144,-0.30463 0.39876,-0.88179 0.32639,-1.21275c-0.11293,-0.51657 -0.98969,-1.05615 -1.2914,-1.59044c-0.26683,-0.47251 0.03447,-0.94087 -0.00816,-1.38554c-0.04672,-0.4873 0.45099,-0.81336 0.40661,-1.33474c-0.03639,-0.4277 -0.33897,-1.04597 -0.37376,-1.48967c-0.04469,-0.56991 -0.9229,-2.72846 -0.95742,-3.31298c-0.01474,-0.24975 1.66664,1.71184 1.65514,1.46177c-0.13789,-2.99783 -1.26843,-4.7264 -1.95577,-6.09734c-0.21961,-0.43801 -0.30105,-0.9092 -0.41123,-1.28302c-0.19125,-0.64889 0.35906,-2.4211 0.34362,-2.44787c-0.10418,-0.18059 0.02017,-0.48199 -0.02587,-0.66433c-0.13866,-0.54906 -0.28484,-0.9414 -0.54171,-1.10241c-0.48907,-0.30659 -0.64749,-0.68405 -0.64749,-1.22947c0,-0.42498 0.05029,-1.13231 0.36629,-1.42803c0.37332,-0.34934 1.25215,-0.47922 1.86147,-0.47922c0.26019,0 0.64574,0.17711 1.90679,0.71936c0.07766,0.0334 0.47641,-0.01769 0.88596,-0.07054c0.43455,-0.05608 1.84704,-0.95919 1.93519,-0.92048c0.19173,0.08421 1.16341,-0.35306 1.3622,-0.26032c0.26472,0.1235 1.00454,0.1497 1.31026,0.26026c0.39445,0.14263 0.8166,0.5925 1.25887,0.71676c0.2978,0.08368 3.27579,-0.96964 3.58953,-0.89586c1.07029,0.25165 1.3563,0.462 2.27836,0.71293c0.47513,0.1293 2.73775,-0.82409 3.19062,-0.69669c0.61702,0.1736 1.32312,0.23186 2.68607,0.42131c0.44966,0.0625 1.52994,-0.42864 2.03723,-0.34565c0.36365,0.0595 1.64974,0.17519 2.00863,0.39787c0.02973,0.01846 0.59185,-0.13812 0.80943,-0.30408c0.25912,-0.19766 1.3318,-0.2728 1.66454,-0.21736c0.41274,0.06875 0.80152,0.9178 0.96638,1.30649c0.28324,0.66782 -0.22291,1.97393 -0.47686,2.73041c-0.11517,0.34312 -0.0706,0.57316 -0.06602,0.57926c0.08064,0.10765 0.35353,1.45346 0.06491,1.40626c-0.25731,-0.04208 0.12156,-1.44252 -0.04061,-0.34058c-0.04557,0.3097 0.11411,0.92783 -0.01805,1.36524c-0.24722,0.81822 -0.83679,1.56975 -0.92331,2.46862c-0.1041,1.0815 -0.359,2.57819 -0.26725,3.75435c0.06767,0.86764 -0.35783,0.8708 -0.39817,1.77919c-0.02212,0.49774 -0.26257,0.91863 -0.29079,1.41066c-0.02279,0.39756 -0.02056,1.19258 -0.04447,1.58487c-0.01373,0.22508 0.30463,0.50747 0.29443,0.72943c-0.0156,0.33956 0.34261,1.0737 0.33118,1.40297c-0.00392,0.11285 0.08712,0.37379 0.07157,0.47818c-0.07034,0.47236 -0.3361,0.71905 -0.36183,1.17215c-0.03688,0.64958 -0.45954,1.10496 -0.4646,1.61702c-0.00671,0.67957 0.05326,0.93998 0.38096,1.23571c0.44639,0.40283 0.35403,0.70865 0.35403,0.72703z" fill="#fffd4d" stroke="none" stroke-width="NaN"/><path d="M125.05986,255.99248c-0.13794,0.0104 -0.1481,-0.13053 -0.1481,-0.13053l-0.01052,-0.14579c-0.02876,-0.39867 -0.0706,-0.75943 -0.25769,-1.11666c-0.43449,-1.06116 -0.84292,-2.39933 -1.89021,-3.00406c-0.77799,-0.53397 -2.11656,-0.41597 -3.03723,-0.34558c-0.03124,0.01705 -0.06169,0.01935 -0.06169,0.01935l-0.01712,0.0008c-0.71778,0.11231 -1.16669,0.59176 -1.45193,1.22423c-0.46376,1.01935 -0.58845,2.14804 -1.00186,3.17748c0,0 -0.05259,0.1307 -0.18052,0.07696c-0.12792,-0.05373 -0.07532,-0.18443 -0.07532,-0.18443c0.41633,-1.03216 0.54407,-2.16401 1.00667,-3.18874c0.32434,-0.71208 0.83796,-1.23776 1.63049,-1.3796c0.03339,-0.02051 0.06822,-0.02314 0.06822,-0.02314c0.98783,-0.07437 2.40954,-0.19557 3.26512,0.38188c1.09623,0.63298 1.54133,2.00932 1.99527,3.12357c0.20356,0.38769 0.25251,0.78466 0.2837,1.21717l0.01052,0.14579c0,0 0.01017,0.14093 -0.12778,0.1513z" fill="#000000" stroke="none" stroke-width="0.5"/><path d="M121.80159,251.28275c0,2.38452 0.25268,4.25695 -0.02908,5.3261c-0.14682,0.55708 -0.57945,0.96645 -0.96829,0.96645c-1.13513,0 -0.76862,-2.11624 -0.76862,-5.74321c0,-0.09346 0.00076,-1.17552 0.00227,-1.26855c0.05693,-3.51775 -0.23149,-6.60711 0.87439,-6.60711c0.17993,0 0.39761,-0.10019 0.51463,0.07069c0.62118,0.90714 0.37472,4.2036 0.37472,7.25564z" fill="#fff649" stroke="none" stroke-width="0"/><path d="M120.09621,253.81522c0.00689,0.00394 0.01355,0.00812 0.02,0.01255c-0.05884,0.17 -0.00472,0.44597 -0.01696,0.64273c-0.00087,0.00959 -0.00165,0.01929 -0.00238,0.0291c-0.03471,0.33864 -0.16755,0.86948 -0.0628,1.27723c0.02751,0.10707 0.09425,0.1456 0.16877,0.14174c0.01067,0.26324 0.01827,0.53929 0.00043,0.77099c-0.00489,0.06356 -0.03623,0.12071 -0.12071,0.12071c-0.16114,0 -0.17458,-0.62727 -0.14005,-1.52605c0.0075,-0.19522 -0.02462,-1.36711 0.04969,-1.40958z" fill="#000000" stroke="none" stroke-width="0.5"/><path d="M119.93962,254.41596c0.01233,-0.14132 0.02714,-0.53026 0.02082,-0.67706c-0.00417,-0.0973 0.01536,-0.10009 0.02883,-0.11876c0.05915,-0.08199 0.22629,-0.03711 0.22634,0.08105c0.00025,0.78354 -0.07354,1.57098 0.00441,2.35061c0.0005,0.00447 0.00076,0.00902 0.00076,0.01363c0,0.01232 -0.00185,0.02422 -0.00529,0.03543c-0.12438,0.82537 -0.21773,0.68397 -0.25783,0.22813c-0.02627,-0.29864 -0.01786,-0.73224 -0.02156,-1.11736c-0.00355,-0.36921 -0.00807,-0.66286 0.00352,-0.79566z" fill="#000000" stroke="none" stroke-width="0.5"/><path d="M121.79272,255.62478c-0.12071,0 -0.12071,-0.12072 -0.12071,-0.12072v-0.01725c0,-0.45359 -0.03449,-0.90657 -0.03449,-1.36239c0,-0.86801 0,-1.73602 0,-2.60403c0,0 0,-0.01144 0.00352,-0.02727v-0.09212c0,-1.10865 -0.00104,-2.2173 0.00015,-3.32595c-0.12486,-1.23256 0.04274,-2.64423 -0.19346,-3.87722c-0.97805,-0.85343 -1.22408,0.63728 -1.26319,1.39503c0.03782,0.03985 0.03121,0.09919 0.03121,0.09919c-0.12658,1.13455 -0.03548,2.3224 -0.03548,3.4635c0,1.24326 0.03618,2.49097 0.03621,3.73035c0,0.27186 0,0.54371 0,0.81555c-0.20163,0.10732 -0.10097,0.50794 -0.11724,0.76904c-0.00087,0.00959 -0.00165,0.01929 -0.00238,0.0291c-0.03471,0.33864 -0.16755,0.86948 -0.0628,1.27723c0.01407,0.05479 0.03842,0.09163 0.06882,0.11402c0.01609,0.12748 0.03608,0.24143 0.05878,0.33477c0.00076,0.05598 0.00326,0.11071 0.00785,0.16374c-0.01736,0.01284 -0.04116,0.02165 -0.07374,0.02165c-0.12071,0 -0.12071,-0.12072 -0.12071,-0.12072c0,-0.77549 0,-1.6248 0,-2.44253c0,-0.32797 0,-0.65084 0,-0.96184c0.00004,-1.23936 -0.03621,-2.48711 -0.03621,-3.73035c0,-1.09812 -0.08166,-2.23737 0.02098,-3.33357c-0.02098,-0.03323 -0.02098,-0.07082 -0.02098,-0.07082c0,-0.98932 0.59025,-2.65692 1.82306,-1.60962c0.05284,1.30258 -0.00793,2.6228 0.12042,3.92149c0.00109,1.11266 0.00015,2.22532 0.00015,3.33798v0.10866c0,0 0,0.01144 -0.00352,0.02727c0,0.86251 0,1.725 0,2.58751c0,0.45587 0.03449,0.90867 0.03449,1.36239v0.01725c0,0 0,0.12071 -0.12072,0.12071z" fill="#000000" stroke="none" stroke-width="0.5"/><path d="M106.78602,237.37714c-0.11784,0.02617 -0.14402,-0.09164 -0.14402,-0.09164l-0.02088,-0.096c-0.04287,-0.42597 -0.51048,-0.63329 -0.70946,-0.97579c-0.29375,-0.50568 -0.06398,-1.14137 -0.0633,-1.70136c0.157,-1.33619 1.42226,-1.2384 2.42108,-1.08242c0.79465,0.24251 1.73301,0.7615 2.57734,0.49785c0,0 0.02473,-0.00761 0.05483,-0.00434l0.02757,-0.01472c0.26556,-0.08132 0.51796,-0.21392 0.75137,-0.36321c1.05991,-0.44261 2.08514,-1.03636 3.29601,-0.63345c0.38778,0.09804 0.85412,0.45167 1.40126,0.63827c0.47189,0.16093 1.05688,0.16228 1.07701,0.18591c0.21445,-0.00378 0.37971,-0.08463 0.57266,-0.18078c1.1554,-0.41357 1.97156,-0.80965 3.19652,-0.40229c0.93778,0.39006 1.60454,0.45747 2.57152,0.15968c0,0 0.04862,-0.01496 0.09244,0.00611c0.87859,-0.16716 1.3622,-0.42365 2.28066,-0.42169c0.51847,0.07331 1.3032,0.28962 1.84723,0.39714c0.27335,0.05403 0.57216,0.04827 0.57216,0.04827c0.39134,-0.00549 1.31337,-0.43455 1.68298,-0.44439c0.50087,-0.01333 0.5972,0.08434 1.04477,0.18746c0.48356,0.15449 0.92942,0.30294 1.41706,0.30432c0.01708,-0.01689 0.03398,-0.02535 0.03398,-0.02535c0.80963,-0.40431 1.78581,-0.79302 2.61675,-0.24095c0.84492,0.54392 1.15418,1.84779 0.71871,2.71871c-0.18032,0.36039 -0.73585,1.15748 -0.70823,1.59966c0.03531,0.0173 0.05501,0.04934 0.05501,0.04934c0.17077,0.28295 0.24642,0.62025 0.25929,0.97289c0.009,0.02199 0.01379,0.05017 0.00186,0.0804c0.00596,0.5946 -0.15748,1.224 -0.33784,1.70462c-0.13584,0.31254 -0.24747,0.63861 -0.35091,0.96592c0.00787,0.00519 -0.09776,0.31561 -0.1044,0.33741c-0.16347,0.72919 -0.50917,1.42765 -0.61373,2.16419c-0.06517,0.45907 0.00243,0.98008 0.00026,1.44301c0.225,0.88502 -0.23965,0.34889 -0.09695,1.59114c0.00742,0.0645 -0.30144,0.82427 -0.26056,0.8842c0,0 0.07433,0.69224 -0.02612,0.75919c-0.10044,0.06696 -0.0879,0.09018 -0.0879,0.09018c-0.15162,-0.23169 0.12846,-1.58364 0.14302,-1.67541c0.04346,-0.27379 0.28411,-0.4112 0.27064,-0.57417c-0.03028,-0.36645 -0.07481,-0.61121 -0.18176,-1.04564c-0.00519,-1.2718 0.20838,-2.31489 0.56325,-3.49711l0.00324,-0.02745c0.15629,-0.50441 0.307,-1.02067 0.5181,-1.506c0.1656,-0.44191 0.33363,-1.05849 0.32659,-1.6279l-0.02056,-0.03617c-0.0258,-0.34871 -0.25309,-0.64051 -0.29436,-0.97233c-0.06556,-0.5273 0.49986,-1.3352 0.72607,-1.78792c0.37841,-0.75683 0.11334,-1.93917 -0.63456,-2.40846c-0.73271,-0.4903 -1.61266,-0.12513 -2.33055,0.23143c-0.02646,0.05224 -0.09012,0.06286 -0.09012,0.06286l-0.07701,0.01118c-0.50686,0 -1.17145,-0.29113 -1.67408,-0.32702c-0.4018,-0.09286 -0.95803,-0.12108 -1.45399,0.00128c-0.28259,0.06972 -0.8006,0.30983 -0.8006,0.30983c-0.7679,0.17469 -1.81427,-0.3534 -2.67387,-0.47755c-0.93278,0.00226 -1.41914,0.26355 -2.32031,0.4373c0,0 -0.02882,0.00548 -0.06075,-0.00315c-0.96568,0.27892 -1.67863,0.20465 -2.63115,-0.19299c-1.15888,-0.38717 -1.92386,0.00871 -3.01711,0.39824c-0.22843,0.11463 -0.42788,0.19961 -0.6859,0.20029l-0.08379,-0.01075c0,0 -0.02173,-0.00311 -0.04534,-0.01593c-0.81062,0.11173 -1.63237,-0.6182 -2.39819,-0.80725c-1.13965,-0.38057 -2.11957,0.20105 -3.11639,0.61544c-0.24503,0.15837 -0.88801,0.43808 -0.94024,0.4177c-0.88215,0.23127 -1.80964,-0.25486 -2.63698,-0.51178c-0.83551,-0.12625 -1.99114,-0.28385 -2.12606,0.86123c0.00068,0.51378 -0.23404,1.1024 0.03192,1.56749c0.22569,0.39469 0.66297,0.57238 0.73913,1.06363l0.01725,0.07555c0,0 0.0262,0.11784 -0.09164,0.14402z" fill="#9e9215" stroke="none" stroke-width="0.5"/><path d="M109.57576,255.72097c-0.11784,0.02617 -0.14402,-0.09164 -0.14402,-0.09164l-0.02011,-0.09776c-0.24125,-0.60341 -0.91407,-0.74066 -1.17666,-1.37019c-0.41513,-1.03884 0.55407,-1.65084 0.31127,-2.61949c0,0 -0.00331,-0.01077 -0.00211,-0.09139c0.00034,-0.02268 -0.01843,-0.0606 -0.01294,-0.09351c-0.09353,-0.67154 -0.86647,-3.65166 -1.14569,-4.21824c-0.01303,-0.0552 -0.06059,-0.52432 -0.07674,-0.61101c-0.0259,-0.13892 -0.11522,0.12175 -0.05452,0.03795c0.14458,-0.19967 0.8134,1.91005 1.02966,1.87407c0.64871,-0.1079 1.25738,-0.18753 1.88554,-0.37414c-0.07433,-0.48856 -0.70388,-0.7762 -1.07681,-1.06658c-0.01334,-0.00673 -0.02377,-0.01561 -0.03195,-0.02541c-0.00495,-0.00401 -0.00983,-0.00805 -0.01467,-0.01207c0,0 -0.09274,-0.07727 -0.01545,-0.17002c0.0002,-0.00026 0.00042,-0.0005 0.00063,-0.00075c0.00073,-0.69772 0.03349,-1.36716 0.15249,-2.05396c-0.01341,-0.03459 -0.00814,-0.06875 -0.00814,-0.06875l0.01801,-0.11473c-0.00114,-0.37279 0.16486,-0.83411 -0.2696,-0.93117c-1.30027,-0.30696 -1.74716,-0.8309 -2.22291,-1.98105c-0.01846,-0.02118 -0.0263,-0.04314 -0.0263,-0.04314c-0.33148,-0.93547 -0.05363,-1.84951 0.22613,-2.76049c0.1687,-0.67191 -0.03403,-1.10792 -0.28238,-1.70271c-0.01919,-0.02474 -0.05976,-0.09285 0.00835,-0.16095c0.08535,-0.08536 0.17072,0 0.17072,0l0.0356,0.04844c0.27272,0.65455 0.48236,1.14899 0.30029,1.88001c-0.25313,0.82103 -0.52518,1.66267 -0.26725,2.50649c0.0039,0.00702 0.00576,0.01164 0.00576,0.01164c0.46931,1.17372 0.83302,1.66782 2.10765,1.96681c0.60438,0.15092 0.45605,0.67395 0.4547,1.18452l-0.00205,0.0136c0.0175,0.03818 0.00988,0.07887 0.00988,0.07887c-0.13549,0.72142 -0.16947,1.41931 -0.16947,2.15061v0.01908c0.43035,0.33363 1.04505,0.62703 1.13463,1.18991c0.0528,0.05986 0.02533,0.11846 0.00611,0.14625c-0.00687,0.03407 -0.03023,0.09254 -0.10959,0.09633l-0.02077,0.0172c-0.57959,0.1763 -1.12385,0.2624 -1.72199,0.35683c-0.16434,0.02595 -0.98721,-2.09409 -1.10025,-1.94967c-0.04598,0.05876 0.0332,0.32394 0.04844,0.39219c0.32925,0.64645 1.24373,3.70346 1.24564,4.4303c0,0 0.01586,0.05647 0.00872,0.1498c0.08476,0.86972 -0.67609,1.48061 -0.3051,2.40711c0.2587,0.62162 0.92776,0.7482 1.1773,1.37179l0.03164,0.13504c0,0 0.0262,0.11784 -0.09164,0.14402z" fill="#9e9215" stroke="none" stroke-width="0.5"/><path d="M116.68688,235.90484c-0.12071,0 -0.12071,-0.12071 -0.12071,-0.12071v-0.12073c0,-0.1832 -0.03866,-0.34072 -0.04024,-0.52313c0.00517,-0.83518 -1.36849,-0.69237 -1.71045,-0.17449c0,0 -0.06696,0.10044 -0.16739,0.03348c-0.10044,-0.06696 -0.03348,-0.16739 -0.03348,-0.16739c0.47173,-0.70188 2.14709,-0.78774 2.15275,0.30841c-0.00196,0.1782 0.04024,0.34121 0.04024,0.52313v0.12073c0,0 0,0.12071 -0.12071,0.12071z" fill="#000000" stroke="none" stroke-width="0.5"/><path d="M125.56446,236.09066c-0.12071,0 -0.12072,-0.12071 -0.12072,-0.12071l0.00165,-0.02041c-0.04725,-0.28908 -0.00261,-0.5742 -0.00009,-0.86408c0.30217,-0.92536 1.84029,-0.787 2.3662,-0.13655c0,0 0.07541,0.09425 -0.01884,0.16967c-0.09426,0.07541 -0.16967,-0.01884 -0.16967,-0.01884c-0.3807,-0.48218 -1.69576,-0.68258 -1.93939,0.02441c0.00271,0.26299 -0.04479,0.52334 -0.00009,0.78573l0.00165,0.06009c0,0 0,0.12071 -0.12071,0.12071z" fill="#000000" stroke="none" stroke-width="0.5"/><path d="M120.78839,244.55567c0,4.02119 -3.06084,7.281 -6.83662,7.281c-3.77575,0 -6.83662,-3.25982 -6.83662,-7.281c0,-4.02119 3.06086,-7.28099 6.83662,-7.28099c3.77575,0 6.83662,3.25982 6.83662,7.281z" fill="#fbfdfa" stroke="#000000" stroke-width="0"/><path d="M112.35478,252.76571c-0.01835,-0.00088 -0.03113,-0.00471 -0.03113,-0.00471c-0.4543,-0.14196 -1.10389,0.53396 -0.70289,0.92938c0.17116,0.16877 0.47964,0.34014 0.6811,0.16133c0.33181,-0.19511 0.24547,-0.76482 0.07529,-1.06066zM112.4067,252.53517c0.06202,-0.00806 0.10654,0.04537 0.10654,0.04537l0.07495,0.09326c0.22347,0.41277 0.29959,1.10259 -0.14851,1.37613c-0.31142,0.23213 -0.76461,0.07887 -1.00974,-0.21165c-0.52459,-0.62173 0.29925,-1.50138 0.96309,-1.30849c0,0 0.00547,0.00164 0.01366,0.00539z" fill="#fffc51" stroke="none" stroke-width="0.5"/><path d="M112.38388,252.78102c0.17018,0.29586 0.2557,0.88609 -0.07613,1.08121c-0.20143,0.17882 -0.52478,0.00504 -0.69593,-0.16372c-0.40098,-0.39543 0.26328,-1.09006 0.71758,-0.9481c0,0 0.01325,0.00411 0.0316,0.00497z" data-paper-data="{&quot;noHover&quot;:false,&quot;origItem&quot;:[&quot;Path&quot;,{&quot;applyMatrix&quot;:true,&quot;segments&quot;:[[[576.38862,314.41816],[0,0],[-0.152,-0.00718]],[[576.13068,314.37918],[0,0],[-3.76354,-1.17598]],[[570.3078,322.07832],[-3.32192,-3.2757],[1.41786,1.39814]],[[575.95014,323.41476],[-1.66872,1.48136],[2.74878,-1.61636]],[[576.57382,314.62794],[1.40976,2.45092],[0,0]]],&quot;closed&quot;:true,&quot;fillColor&quot;:[0,0,0,1]}]}" fill="#a8be04" stroke="none" stroke-width="0.5"/><path d="M109.28334,235.20534c-0.00048,0.00015 -0.00075,0.0002 -0.00075,0.0002c-0.60322,0.13296 -1.00877,1.46945 -0.52476,1.90596c0.12765,0.11511 0.45067,0.09404 0.61255,0.1001c0.62519,-0.39054 0.69302,-1.81115 -0.08664,-2.00606zM109.15,234.99591c0.05529,-0.09631 0.1573,-0.0453 0.1573,-0.0453l0.035,0.02073c1.04089,0.26022 0.91811,1.98794 0.09252,2.47295c-0.23642,0.0057 -0.62317,0.02581 -0.82073,-0.13878c-0.66095,-0.55067 -0.18752,-2.02569 0.53588,-2.30957z" fill="#fffc51" stroke="none" stroke-width="0.5"/><path d="M109.28478,235.1935c0.77965,0.19492 0.71285,1.63947 0.08766,2.02999c-0.16188,-0.00606 -0.49225,0.01396 -0.6199,-0.10116c-0.48402,-0.43652 -0.07217,-1.79587 0.53105,-1.92884c0,0 0.00027,-0.00005 0.00075,-0.0002z" data-paper-data="{&quot;noHover&quot;:false,&quot;origItem&quot;:[&quot;Path&quot;,{&quot;applyMatrix&quot;:true,&quot;segments&quot;:[[[550.94398,168.94384],[0,0],[-0.004,0.00112]],[[550.93786,168.94548],[0,0],[-4.99722,1.10148]],[[546.59068,184.73494],[-4.0097,-3.61618],[1.0574,0.95362]],[[551.66524,185.56418],[-1.34108,-0.05018],[5.17926,-3.23526]],[[550.94754,168.94548],[6.4589,1.61474],[0,0]]],&quot;closed&quot;:true,&quot;fillColor&quot;:[0,0,0,1]}]}" fill="#a8be04" stroke="none" stroke-width="0.5"/><path d="M132.45582,234.70405c-0.01071,0.0017 -0.01776,0.0017 -0.01776,0.0017c-1.07617,-0.00724 -0.00434,1.69584 0.61129,0.81823c0.15407,-0.47366 -0.18587,-0.52533 -0.47528,-0.73898l-0.06316,-0.02858c0,0 -0.03493,-0.01745 -0.05512,-0.05238zM132.54691,234.52752c0.03879,-0.00363 0.072,0.01298 0.072,0.01298l0.106,0.05599c0.3557,0.32866 0.76001,0.38584 0.5396,1.03704c-0.94466,1.30786 -2.37441,-1.16049 -0.82644,-1.16921c0,0 0.07841,0 0.10884,0.0632z" fill="#fffc51" stroke="none" stroke-width="0.5"/><path d="M132.38389,234.70995c0.02187,0.03783 0.06098,0.05664 0.06098,0.05664l0.07018,0.031c0.31351,0.23146 0.69208,0.30676 0.52518,0.81989c-0.66694,0.95074 -1.84183,-0.91345 -0.67598,-0.90561c0,0 0.00806,-0.00006 0.01966,-0.00192z" data-paper-data="{&quot;noHover&quot;:false,&quot;origItem&quot;:[&quot;Path&quot;,{&quot;applyMatrix&quot;:true,&quot;segments&quot;:[[[742.91028,164.79096],[0,0],[-0.08866,0.01412]],[[742.76318,164.80508],[0,0],[-8.91526,-0.05994]],[[747.82732,171.58358],[-5.10008,7.27028],[1.27638,-3.92392]],[[743.89002,165.46172],[2.39748,1.76998],[0,0]],[743.36688,165.22496],[[742.91026,164.79094],[0.16726,0.28934],[0,0]]],&quot;closed&quot;:true,&quot;fillColor&quot;:[0,0,0,1]}]}" fill="#a8be04" stroke="none" stroke-width="0.5"/><path d="M129.86067,253.22094c0.20492,-0.63043 1.00414,-1.00731 1.48992,-0.3352c0.20368,0.28181 0.21451,0.84181 0.21451,1.17834c-0.00681,0.32775 -0.31077,0.84988 -0.70251,0.66412c-0.36333,-0.17231 -0.81552,-0.93124 -0.99609,-1.29182l-0.03509,-0.05095c0,0 -0.06504,-0.09757 0.02926,-0.16448zM130.08092,253.32609l0.0015,0.00231c0.1463,0.29306 0.58786,1.05931 0.87859,1.17935c0.19789,0.08172 0.36839,-0.26606 0.36266,-0.44367c0,-0.28238 0.00329,-0.80267 -0.16895,-1.03719c-0.38394,-0.52277 -0.94397,-0.1699 -1.07381,0.2992z" fill="#fffc51" stroke="none" stroke-width="0.5"/><path d="M131.16187,253.01717c0.17223,0.23452 0.1718,0.7713 0.1718,1.05369c0.00572,0.1776 -0.1713,0.53016 -0.36919,0.44847c-0.29072,-0.12003 -0.74652,-0.90333 -0.89282,-1.19638l-0.00149,-0.00233c0.12983,-0.46907 0.70777,-0.82619 1.09169,-0.30342z" data-paper-data="{&quot;noHover&quot;:false,&quot;origItem&quot;:[&quot;Path&quot;,{&quot;applyMatrix&quot;:true,&quot;segments&quot;:[[[723.23608,319.06042],[1.07562,-3.88598],[0,0]],[[723.24856,319.07956],[0,0],[1.21194,2.42778]],[[730.527,328.84956],[-2.40842,-0.9944],[1.6394,0.67688]],[[733.53132,325.17416],[0.04746,1.4713],[0,-2.33936]],[[732.13174,316.58186],[1.42686,1.94284],[-3.18056,-4.33076]]],&quot;closed&quot;:true,&quot;fillColor&quot;:[0,0,0,1]}]}" fill="#a8be04" stroke="none" stroke-width="0.5"/><path d="M129.04765,254.63206c-0.03536,0.04272 -0.09574,0.04273 -0.09574,0.04273c-0.4188,-0.00146 -0.88257,0.62584 -0.67669,1.04738c0.164,0.33577 0.50928,0.4813 0.85461,0.52221c0.4217,0.06318 0.47287,-1.51466 0.01836,-1.61336zM128.94137,254.43347c0.03536,-0.04273 0.09574,-0.04273 0.09574,-0.04273l0.14457,0.00117c0.69425,0.22051 0.76176,2.04617 -0.06686,2.09341c-0.43136,-0.05605 -0.86891,-0.24241 -1.06267,-0.67078c-0.26289,-0.58122 0.30252,-1.36999 0.8892,-1.38107z" fill="#9966ff" stroke="none" stroke-width="0.5"/><path d="M134.42804,244.30559c0,4.02119 -3.06086,7.281 -6.83662,7.281c-3.77575,0 -6.83662,-3.25982 -6.83662,-7.281c0,-4.02119 3.06086,-7.281 6.83662,-7.281c3.77575,0 6.83662,3.25982 6.83662,7.281z" fill="#fbfdfa" stroke="#000000" stroke-width="0"/><path d="M119.67265,244.27155c0,3.23792 -2.59444,5.86276 -5.79487,5.86276c-3.20042,0 -5.79487,-2.62486 -5.79487,-5.86276c0,-3.23792 2.59444,-5.86276 5.79487,-5.86276c3.20042,0 5.79487,2.62486 5.79487,5.86276z" fill="#3da9e8" stroke="#000000" stroke-width="0"/><path d="M133.07731,244.12809c0,3.17213 -2.51337,5.74365 -5.61377,5.74365c-3.10039,0 -5.61377,-2.57151 -5.61377,-5.74365c0,-3.17213 2.51337,-5.74365 5.61377,-5.74365c3.10039,0 5.61377,2.57151 5.61377,5.74365z" fill="#3da9e8" stroke="#000000" stroke-width="0"/><path d="M117.73498,244.12215c0,2.10027 -1.66207,3.80288 -3.71233,3.80288c-2.05027,0 -3.71233,-1.70259 -3.71233,-3.80288c0,-2.10027 1.66207,-3.80288 3.71233,-3.80288c2.05027,0 3.71233,1.70261 3.71233,3.80288z" fill="#000000" stroke="#000000" stroke-width="0"/><path d="M131.51592,243.85956c0,2.22527 -1.71275,4.02924 -3.82551,4.02924c-2.11278,0 -3.82551,-1.80395 -3.82551,-4.02924c0,-2.22527 1.71275,-4.02924 3.82551,-4.02924c2.11278,0 3.82551,1.80395 3.82551,4.02924z" fill="#000000" stroke="#000000" stroke-width="0"/><path d="M129.71373,251.49181c-0.00022,0.00011 -0.00046,0.00022 -0.00071,0.00034l-0.00034,0.0516c0.1952,0.75405 0.69235,1.37878 1.12305,2.01889c0.59651,0.85321 0.70594,2.49208 0.07681,3.35502c-0.81715,1.01852 -2.24712,0.72138 -3.32564,0.17706c-0.69697,-0.55495 -0.88151,-1.21363 -0.58722,-2.07991c0.13669,-0.40236 0.44974,-0.72733 0.54584,-1.15431c0.53545,-0.55703 1.19745,-1.32009 1.2889,-2.09418c-0.00949,-0.01514 -0.01357,-0.02738 -0.01357,-0.02738c-0.20877,-0.64692 0.31245,-0.72773 0.83178,-0.56014l0.11507,0.15107c0,0 0.05399,0.10796 -0.05399,0.16196zM129.08653,251.58837c0,0.861 -0.703,1.7895 -1.32813,2.38604c-0.06996,0.41615 -0.4034,0.72871 -0.52913,1.11505c-0.24961,0.76711 -0.12763,1.30672 0.48774,1.8019c0.96742,0.4778 2.27465,0.79345 3.00467,-0.12155c0.57818,-0.74081 0.45063,-2.33974 -0.08439,-3.06961c-0.45254,-0.67323 -0.97025,-1.32866 -1.16426,-2.12692l-0.00091,-0.16405c0,0 0,-0.01479 0.00518,-0.03401c-0.26531,-0.08205 -0.46417,-0.09384 -0.46594,0.09944c0.07511,0.02574 0.07511,0.11373 0.07511,0.11373z" fill="#6af2e7" stroke="none" stroke-width="0.5"/><path d="M129.12252,251.60574c0,0 -0.00048,-0.11415 -0.07695,-0.14035c0.0018,-0.19679 0.20618,-0.1847 0.4763,-0.10117c-0.00528,0.01956 -0.00528,0.03463 -0.00528,0.03463l0.00102,0.16703c0.19752,0.81269 0.73429,1.48743 1.19501,2.1728c0.54468,0.74307 0.66998,2.38582 0.08136,3.13999c-0.74322,0.93152 -2.08671,0.61073 -3.07161,0.12431c-0.6265,-0.50412 -0.75622,-1.05968 -0.50209,-1.84065c0.12799,-0.39333 0.467,-0.7193 0.53821,-1.14297c0.63641,-0.60731 1.36389,-1.56166 1.36389,-2.43822z" data-paper-data="{&quot;noHover&quot;:false,&quot;origItem&quot;:[&quot;Path&quot;,{&quot;applyMatrix&quot;:true,&quot;segments&quot;:[[[357.49913,152.33234],[0,0],[0,3.56641]],[[351.99789,162.2156],[2.58932,-2.4709],[-0.2898,1.72374]],[[349.80623,166.83427],[0.52072,-1.60029],[-1.03391,3.17747]],[[351.82653,174.29792],[-2.54897,-2.05105],[4.00718,1.97911]],[[364.27226,173.79446],[-3.02391,3.79001],[2.39488,-3.06853]],[[363.92273,161.07974],[2.21608,3.02327],[-1.8745,-2.78859]],[[359.10024,152.26975],[0.80362,3.30652],[0,0]],[359.09649,151.59024],[[359.11793,151.44935],[-0.02144,0.07963],[-1.09895,-0.3399]],[[357.18798,151.8613],[0.00735,-0.80065],[0.31114,0.1066]],[357.49913,152.33235]],&quot;closed&quot;:true,&quot;fillColor&quot;:[0,0,0,1]}]}" fill="#b5f2ed" stroke="none" stroke-width="0.5"/><path d="M125.89919,250.45334c0.79478,0.01555 1.77309,-0.24227 2.53273,-0.3807c1.01759,-0.14546 2.07568,-0.22054 3.10205,-0.20823c0.49606,0.18863 0.47327,0.72798 0.16893,1.07601c-0.51212,0.58561 -1.20168,0.90005 -1.95866,1.01655c-1.29509,0.2351 -2.48848,0.13869 -3.62889,-0.49974c-0.30328,-0.21326 -0.59338,-0.4645 -0.51991,-0.84175c-0.00656,-0.01602 -0.00991,-0.03569 -0.00805,-0.05982c0.00927,-0.12036 0.12961,-0.11111 0.12961,-0.11111c0.0176,0.00139 0.03534,0.00263 0.05317,0.0037l0.00048,-0.0003c0,0 0.07105,-0.03877 0.12853,0.00538zM125.80984,250.69155l-0.00738,0.00307c-0.03339,0.22739 0.2806,0.44628 0.44146,0.55823c1.08224,0.61151 2.22961,0.69013 3.46038,0.46598c0.61397,-0.09444 1.25512,-0.3231 1.68662,-0.79629c0.16218,-0.17786 0.55375,-0.6738 0.1012,-0.82039c-1.0059,0.01663 -2.02294,0.06622 -3.02148,0.20877c-0.8039,0.14582 -1.8333,0.41309 -2.66078,0.38063z" fill="#6af2e7" stroke="none" stroke-width="0.5"/><path d="M128.46586,250.29983c0.99854,-0.14257 2.03185,-0.18469 3.03775,-0.20132c0.45256,0.14659 0.06155,0.64596 -0.10064,0.82382c-0.4315,0.47321 -1.07522,0.70956 -1.6892,0.80398c-1.23077,0.22415 -2.3996,0.13941 -3.48184,-0.47209c-0.16084,-0.11195 -0.47486,-0.33332 -0.4415,-0.5607l0.00738,-0.00308c0.82746,0.03244 1.86415,-0.24477 2.66805,-0.3906z" data-paper-data="{&quot;noHover&quot;:false,&quot;origItem&quot;:[&quot;Path&quot;,{&quot;applyMatrix&quot;:true,&quot;segments&quot;:[[[343.92669,148.61766],[3.42749,0.13441],[0,0]],[[343.89611,148.63033],[0,0],[-0.13824,0.94189]],[[345.7247,150.94262],[-0.66629,-0.46375],[4.48278,2.53292]],[[360.05797,152.87278],[-5.09799,0.92845],[2.54315,-0.39112]],[[367.04413,149.57442],[-1.78731,1.96008],[0.67178,-0.73672]],[[367.46328,146.17626],[1.87453,0.6072],[-4.16656,0.06888]],[[354.94792,147.04105],[4.13609,-0.5905],[-3.32984,0.60403]]],&quot;closed&quot;:true,&quot;fillColor&quot;:[0,0,0,1]}]}" fill="#b5f2ed" stroke="none" stroke-width="0.5"/><path d="M128.25111,256.84163c-0.00963,-0.00543 -0.01549,-0.01154 -0.01549,-0.01154l-0.06314,-0.06933c-0.01843,-0.08722 -0.25949,-0.73621 0.07891,-0.65205c0.12272,0.03053 0.36016,0.45235 0.50624,0.54253c0.56476,0.3537 1.05479,-0.19102 1.33541,-0.63392c0.28725,-0.27951 0.73757,-0.28042 0.58692,0.22562c-0.10398,0.34923 -0.42067,0.46978 -0.66741,0.70619c-0.59406,0.37134 -1.24189,0.43681 -1.75047,-0.09157c0,0 -0.00586,-0.0061 -0.01094,-0.01593z" fill="#ffffff" stroke="none" stroke-width="0.5"/><path d="M133.47995,249.87461c-0.03388,-0.31581 0.28185,-1.83275 0.28185,-2.11422c0,0 0,-0.12071 0.12071,-0.12071c0.0472,0 0.03888,0.03946 0.04349,0.07675c0.00718,0.05806 0.00804,0.12345 0.00804,0.12345c0.03505,0.54616 -0.13155,2.10061 -0.23245,2.52875c-0.02554,0.10839 -0.05865,0.45618 -0.00674,0.76702c0.07119,0.42622 0.24603,0.83917 0.30596,0.98369c0.12888,0.31075 0.1629,0.3821 0.226,0.6827c0.02377,0.11325 0.12181,0.3203 0.13595,0.59128c0.01051,0.20146 -0.05729,0.49298 -0.06689,0.51687c-0.29843,0.74312 -0.58191,1.33983 -0.69217,2.16527c-0.07203,0.38307 -0.19569,0.93171 -0.0047,1.29058c0.06577,0.12357 0.15405,0.20937 0.23847,0.30162c0.15434,0.16863 0.2958,0.33156 0.26335,0.59328c-0.00495,0.03992 -0.01395,0.08243 -0.02757,0.12795c0,0 0.03434,0.12702 -0.08105,0.09151c-0.11538,-0.03549 -0.1148,-0.15088 -0.1148,-0.15088c0.11727,-0.36816 -0.25697,-0.54144 -0.4188,-0.83314c-0.22326,-0.40236 -0.1746,-1.02441 -0.09331,-1.45915c0.12016,-0.90288 0.4229,-1.61944 0.75405,-2.44756l0.00268,-0.09475c0,-0.19446 -0.08768,-0.47025 -0.20315,-0.78281c-0.16858,-0.45637 -0.3964,-0.99108 -0.49694,-1.46536c-0.14028,-0.66172 0.07762,-1.18906 0.05798,-1.37215z" fill="#9e9215" stroke="none" stroke-width="0.5"/><path d="M112.74939,256.07291c0.00011,-0.00231 0.00037,-0.00612 0.00102,-0.01095c0.01086,-0.23647 0.09481,-0.78165 -0.12941,-0.91141c-0.49103,-0.2842 -1.16343,0.31726 -1.36452,0.70137c-0.19854,0.4191 -0.37891,0.95325 -0.2682,1.42633c0.14322,0.612 0.90924,0.4698 1.18275,0.10496c0.28995,-0.40498 0.41282,-0.84399 0.57835,-1.31028zM112.96954,256.17439c-0.17052,0.48168 -0.30401,0.93078 -0.60371,1.35141c-0.39574,0.5274 -1.41161,0.61731 -1.61231,-0.19121c-0.1303,-0.52495 0.06623,-1.12449 0.28713,-1.59085c0.25378,-0.47493 1.33322,-1.3583 1.82731,-0.67101c0.20168,0.28052 0.12277,0.7072 0.12277,1.03051c0,0 0,0.03783 -0.02119,0.07114z" fill="#fffc51" stroke="none" stroke-width="0.5"/><path d="M112.64542,256.06106c-0.17056,0.48044 -0.30521,0.94879 -0.60395,1.36605c-0.13038,0.17391 -0.372,0.29807 -0.60866,0.31885c-0.27487,0.02413 -0.54303,-0.09118 -0.62231,-0.43001c-0.11406,-0.48741 0.07114,-1.05485 0.27571,-1.48664c0.20718,-0.39576 0.91578,-1.01783 1.4217,-0.72503c0.23102,0.1337 0.14972,0.70172 0.13852,0.94537c-0.00066,0.00498 -0.00089,0.00902 -0.00101,0.01141z" data-paper-data="{&quot;noHover&quot;:false,&quot;origItem&quot;:[&quot;Path&quot;,{&quot;applyMatrix&quot;:true,&quot;segments&quot;:[[[579.65756,341.81574],[0,0],[0.0009,-0.01922]],[[579.66594,341.72498],[-0.00528,0.04008],[0.09002,-1.95902]],[[578.59386,334.17458],[1.85746,1.07506],[-4.06786,-2.3544]],[[567.2899,339.98488],[1.66584,-3.1821],[-1.6448,3.47186]],[[565.06814,351.8009],[-0.9171,-3.91902],[1.18646,5.07]],[[574.86632,352.6704],[-2.2658,3.02254],[2.40198,-3.3549]],[[579.65756,341.81576],[-1.37138,3.8629],[0,0]]],&quot;closed&quot;:true,&quot;fillColor&quot;:[0,0,0,1]}]}" fill="#a8be04" stroke="none" stroke-width="0.5"/><path d="M108.19463,239.10484l1.27566,-1.65754l6.29345,-0.83666c0,0 -0.76147,0.71705 -0.97851,0.87407c-0.29561,0.21384 -1.1079,0.83873 -1.1079,0.83873c0,0 -1.89406,0.69733 -2.65187,0.83816c-0.62399,0.11595 -2.44276,0.04672 -2.44276,0.04672z" fill="#fffd4d" stroke="#fffd4d" stroke-width="0.5"/><path d="M108.09687,239.32067c0.03817,-0.11452 0.15268,-0.07635 0.15268,-0.07635l0.01357,0.01104c0.81043,0 1.62299,0.16587 2.43437,0.06613c1.14651,-0.22965 2.34219,-0.52478 3.29436,-1.23661c0.6871,-0.38216 1.53489,-1.24864 1.70686,-2.04607c0,0 0.0262,-0.11784 0.14402,-0.09164c0.11784,0.02617 0.09164,0.14402 0.09164,0.14402c-0.19584,0.86009 -1.06054,1.77973 -1.81118,2.19626c-0.97433,0.73336 -2.21197,1.03769 -3.38739,1.27242c-0.82578,0.10025 -1.64848,-0.06306 -2.4727,-0.06306l-0.08992,-0.02343c0,0 -0.11452,-0.03817 -0.07635,-0.15269z" fill="#000000" stroke="none" stroke-width="0.5"/><path d="M130.98382,239.28184c-0.79104,-0.16285 -1.42128,-0.64114 -1.42128,-0.64114c0,0 -1.4355,-0.9445 -1.74406,-1.19176c-0.22656,-0.18155 -0.91876,-1.01294 -0.91876,-1.01294l5.78086,0.82719l1.77796,2.13615c0,0 -2.82337,0.01661 -3.47471,-0.11747z" data-paper-data="{&quot;index&quot;:null}" fill="#fffd4d" stroke="#fffd4d" stroke-width="0.5"/><path d="M134.32542,239.59909l-0.0899,0.02345c-0.82422,0 -1.64691,0.16332 -2.4727,0.06306c-1.17542,-0.23474 -2.41305,-0.53906 -3.38739,-1.27242c-0.75065,-0.41653 -1.61534,-1.33618 -1.81118,-2.19626c0,0 -0.02617,-0.11784 0.09164,-0.14402c0.11784,-0.02617 0.14402,0.09164 0.14402,0.09164c0.17196,0.79744 1.01976,1.66391 1.70686,2.04607c0.95218,0.71183 2.14786,1.00696 3.29436,1.23661c0.81136,0.09976 1.62393,-0.06613 2.43437,-0.06613l0.01357,-0.01104c0,0 0.11452,-0.03817 0.15269,0.07635c0.03817,0.11452 -0.07635,0.15269 -0.07635,0.15269z" data-paper-data="{&quot;index&quot;:null}" fill="#000000" stroke="none" stroke-width="0.5"/><path d="M109.43452,258.32798c0,0 -0.16593,-0.39548 -0.16627,-0.53205c-0.00043,-0.17971 0.1639,-0.45273 0.1639,-0.45273c0,0 -0.15355,0.00146 0.08336,0.00353c0.22094,0.00195 0.31255,-0.01668 1.04391,0.08961c0.22641,0.03291 0.88009,0.43878 1.15033,0.44112c0.15692,0.00137 0.83153,-0.53007 1.00083,-0.5291c6.14271,0.03487 19.619,0.19603 19.619,0.19603l0.88497,0.03264c0,0 0.05784,0.02788 0.15508,0.15331c0.07157,0.09233 0.23118,0.0922 0.32337,0.21563c0.10794,0.14453 0.459,0.41386 0.40339,0.52925c-0.09074,0.18834 -0.72854,0.50114 -0.87148,0.66079c-0.1646,0.18381 -0.37777,0.20663 -0.69859,0.23097c-0.30938,0.02349 -0.7228,0.05542 -1.08188,-0.13882c-0.14079,-0.07618 -0.48111,-0.40731 -0.8218,-0.51229c-0.32074,-0.09882 -0.93596,-0.05104 -1.18788,-0.05036c-0.01837,0.00004 -0.10989,0.04551 -0.12328,0.04586c-0.0921,0.00231 -0.07723,0.00866 -0.14235,0.05854c-0.16524,0.12661 -0.3529,0.24873 -0.47766,0.20631c-0.16216,-0.05514 -0.74108,-0.41203 -1.00419,-0.35421c-0.49763,0.10937 -1.14806,0.42674 -2.07802,0.45172c-0.26138,0.00702 -1.57548,-0.38795 -1.84931,-0.38007c-0.291,0.00836 -0.70762,0.17564 -1.00736,0.17922c-0.67516,0.00807 -1.44531,-0.26153 -2.13539,-0.24388c-0.98057,0.02507 -1.53947,0.68966 -2.45264,0.6868c-0.50942,-0.00159 -1.20119,-0.6082 -1.71466,-0.58879c-0.66649,0.02519 -1.33402,0.33322 -1.80364,0.4381c-0.45521,0.10167 -0.95193,0.03008 -1.41028,0.03673c-0.2401,0.00348 -0.62203,-0.53425 -0.86804,-0.51776c-0.44403,0.02973 -0.55781,0.31042 -0.83474,0.47267c-0.26835,0.15724 -0.70214,0.19588 -0.98173,0.24097c-0.20244,0.03267 -0.3228,-0.12859 -0.45861,-0.2152c-0.14305,-0.09121 -0.2962,-0.10897 -0.2962,-0.10897z" fill="#fffd4d" stroke="none" stroke-width="0"/><path d="M116.57614,258.56443c0.66477,0.26817 1.50907,0.93365 2.26292,0.55509c0.30906,-0.1006 0.47378,-0.38311 0.77862,-0.47865c0.64339,-0.20165 1.48066,-0.01643 2.1343,0.02902c0.25894,0.0456 0.6256,0.21043 0.89225,0.15935c0.4022,-0.07705 0.68542,-0.33719 1.12865,-0.29565c0.4078,0.03821 0.7121,0.2681 1.08377,0.40294c0.4038,0.14744 0.9181,0.14012 1.33984,0.04229l0.02445,-0.0122c0.44867,-0.24465 0.86458,-0.37266 1.29294,-0.43959c0.44348,-0.0693 0.65885,0.3494 1.17918,0.3494c0.2428,0 0.79583,-0.46195 1.09208,-0.45973c0.23015,0.00171 0.45105,0.02858 0.62321,0.11862c0.61082,0.31943 0.75771,0.6969 1.53021,0.6969c0.63712,0 1.75816,-0.17939 1.95197,-0.90437c0,0 0.00849,-0.1281 0.12493,-0.09633c0.11646,0.03176 0.0847,0.14822 0.0847,0.14822c-0.233,0.84051 -1.11537,1.08227 -1.87065,1.08227c-0.25206,0 -0.71347,-0.00836 -0.94547,-0.12842c-0.34756,-0.17983 -0.71079,-0.53611 -1.08608,-0.63082c-0.12595,-0.03179 -0.25955,-0.04829 -0.39605,-0.05616c-0.27549,-0.01587 -0.81918,0.48634 -1.07869,0.48634c-0.50151,0 -0.7083,-0.47018 -1.14354,-0.39442c-0.40145,0.06989 -0.77677,0.19346 -1.18772,0.41027c-0.01889,0.02116 -0.04006,0.03174 -0.04006,0.03174l-0.04735,0.02046c-0.00826,0.00204 -0.01653,0.00406 -0.02485,0.00602l-0.0149,0.00748c0,0 -0.03534,0.01766 -0.07569,0.01257c-0.45546,0.09335 -0.98496,0.09212 -1.41498,-0.06368c-0.34872,-0.12707 -0.64004,-0.35349 -1.02118,-0.38923c-0.41437,-0.03885 -0.68597,0.22599 -1.06685,0.29283c-0.30601,0.0537 -0.66622,-0.10487 -0.96374,-0.15752c-0.61118,-0.04475 -1.431,-0.23339 -2.03038,-0.03889c-0.28663,0.09301 -0.46006,0.36973 -0.7605,0.47198c-0.83251,0.41453 -1.70853,-0.26233 -2.44497,-0.55398c0,0 -0.00246,-0.00098 -0.00652,-0.00302l-0.0254,-0.00107c-0.94009,0.14202 -1.74488,0.60929 -2.69566,0.60929c-0.28623,0 -0.61246,0.03694 -0.87303,-0.10549c-0.17982,-0.0983 -0.24172,-0.45809 -0.44402,-0.42528c-0.38584,0.0626 -0.82813,0.43959 -1.23474,0.55145c-1.25963,0.42043 -2.09576,-0.59246 -2.09576,-1.79693c0,-0.60004 0.6145,-1.89781 0.10002,-2.38501c0,0 -0.08535,-0.08535 0,-0.17072c0.08535,-0.08536 0.17072,0 0.17072,0c0.60708,0.63004 -0.02931,1.81361 -0.02931,2.55572c0,1.05059 0.67964,1.93365 1.78438,1.56587c0.34099,-0.0921 1.00724,-0.59561 1.32617,-0.56085c0.18489,0.02014 0.36093,0.3532 0.53895,0.45423c0.21341,0.12112 0.52158,0.07558 0.75663,0.07558c0.93103,0 1.73536,-0.46214 2.65894,-0.60649l0.07009,-0.0014c0,0 0.02594,0 0.05377,0.01202c0.02027,0.00227 0.03442,0.00793 0.03442,0.00793z" fill="#9e9215" stroke="none" stroke-width="0.5"/><path d="M124.34891,256.05412l0.07964,0.10666c0.52075,0.93432 1.18914,-0.02525 1.18914,-0.72106c0,0 0,-0.12072 0.12071,-0.12072c0.12071,0 0.12072,0.12072 0.12072,0.12072c0,0.92016 -0.98646,2.02037 -1.63311,0.8524l-0.0702,-0.09315c0,0 -0.07242,-0.09656 0.02415,-0.169c0.09656,-0.07242 0.169,0.02415 0.169,0.02415z" data-paper-data="{&quot;index&quot;:null}" fill="#000000" stroke="none" stroke-width="0.5"/><path d="M120.81947,257.36371c0.91569,0.1531 0.91202,-1.51333 0.90525,-1.89665c-0.00299,-0.16904 -0.1874,-0.61779 0.08654,-0.61779c0.18277,0 0.15489,1.14628 0.15488,1.17295c-0.00055,0.69126 -0.33546,1.52384 -1.13197,1.58295c-0.88007,0.06529 -0.96545,-1.10958 -0.886,-1.67186c0.00724,-0.05125 0.02787,-0.3526 0.04639,-0.51092c0.00004,0.12304 0.01095,0.24332 0.0395,0.35444c0.01407,0.05479 0.03842,0.09163 0.06884,0.11402c0.01609,0.12748 0.03608,0.24144 0.05878,0.33477c0.00245,0.17953 0.02274,0.34628 0.07273,0.48479c0.0235,0.31859 0.1551,0.5814 0.58509,0.65328z" fill="#000000" stroke="none" stroke-width="0.5"/><path d="M117.55353,255.86682c0.09656,0.07242 0.02415,0.169 0.02415,0.169l-0.07022,0.09315c-0.64666,1.16797 -1.63311,0.06774 -1.63311,-0.8524c0,0 0,-0.12072 0.12071,-0.12072c0.12071,0 0.12072,0.12072 0.12072,0.12072c0,0.6958 0.66838,1.65536 1.18914,0.72106l0.07964,-0.10666c0,0 0.07242,-0.09656 0.169,-0.02415z" fill="#000000" stroke="none" stroke-width="0.5"/></g></g></g></svg>