<svg version="1.1" xmlns="http://www.w3.org/2000/svg" xmlns:xlink="http://www.w3.org/1999/xlink" width="47.2267" height="51.49973" viewBox="0,0,47.2267,51.49973"><defs><linearGradient x1="97.41264" y1="252.01336" x2="144.63934" y2="252.01336" gradientUnits="userSpaceOnUse" id="color-1"><stop offset="0" stop-color="#fdff00"/><stop offset="1" stop-color="#004917"/></linearGradient></defs><g transform="translate(-97.41264,-227.21934)"><g data-paper-data="{&quot;isPaintingLayer&quot;:true}" fill-rule="nonzero" stroke-linecap="butt" stroke-linejoin="miter" stroke-miterlimit="10" stroke-dasharray="" stroke-dashoffset="0" style="mix-blend-mode: normal"><path d="M128.64859,256.75929c0,0.20191 -8.08558,0.27161 -11.90111,0.23765c-1.0599,-0.00943 -1.65942,-0.28062 -1.71964,-0.2815c-1.01275,-0.01468 -1.8571,0.72713 -2.47575,0.7346c-0.09358,0.00113 -0.18102,0.12819 -0.34683,-0.29299c-0.11927,-0.30296 -0.23871,-0.56938 -0.20255,-1.08323c0.01498,-0.21283 0.27859,-0.61606 0.22803,-0.84729c-0.0789,-0.3609 -0.69145,-0.73788 -0.90224,-1.11116c-0.18642,-0.33012 0.02408,-0.65734 -0.00571,-0.968c-0.03264,-0.34045 0.31508,-0.56826 0.28408,-0.93251c-0.02543,-0.29881 -0.23682,-0.73076 -0.26113,-1.04075c-0.03122,-0.39816 -0.64478,-1.90624 -0.6689,-2.31461c-0.0103,-0.17449 1.1644,1.19598 1.15637,1.02126c-0.09634,-2.09444 -0.88619,-3.3021 -1.3664,-4.2599c-0.15343,-0.30601 -0.21033,-0.63521 -0.28731,-0.89638c-0.13361,-0.45335 0.25085,-1.6915 0.24006,-1.71021c-0.07279,-0.12617 0.01409,-0.33674 -0.01808,-0.46414c-0.09687,-0.3836 -0.199,-0.6577 -0.37847,-0.7702c-0.34169,-0.2142 -0.45237,-0.47791 -0.45237,-0.85897c0,-0.29691 0.03514,-0.79109 0.25591,-0.99769c0.26082,-0.24407 0.87481,-0.3348 1.30051,-0.3348c0.18178,0 0.45115,0.12374 1.33218,0.50258c0.05425,0.02333 0.33285,-0.01236 0.61897,-0.04928c0.3036,-0.03918 1.29043,-0.67014 1.35201,-0.64309c0.13395,0.05883 0.81282,-0.24667 0.9517,-0.18187c0.18494,0.08628 0.70182,0.10459 0.91541,0.18183c0.27558,0.09965 0.57052,0.41395 0.87951,0.50077c0.20806,0.05846 2.28863,-0.67744 2.50782,-0.6259c0.74776,0.17582 0.94758,0.32278 1.59178,0.49809c0.33195,0.09034 1.91273,-0.57576 2.22912,-0.48674c0.43108,0.12128 0.9244,0.16199 1.87663,0.29435c0.31415,0.04367 1.06889,-0.29947 1.42331,-0.24149c0.25406,0.04156 1.15259,0.1224 1.40333,0.27797c0.02077,0.01289 0.4135,-0.0965 0.56551,-0.21244c0.18103,-0.13809 0.93046,-0.19059 1.16293,-0.15185c0.28836,0.04804 0.55998,0.64122 0.67516,0.91278c0.19789,0.46657 -0.15574,1.37909 -0.33316,1.9076c-0.08047,0.23972 -0.04933,0.40044 -0.04613,0.4047c0.05634,0.07521 -0.04137,0.08629 -0.24302,0.05331c-0.17977,-0.0294 0.37329,-0.07864 0.25999,0.69124c-0.03184,0.21637 0.07973,0.64823 -0.01261,0.95382c-0.17272,0.57165 -0.58462,1.0967 -0.64507,1.7247c-0.07273,0.75559 -0.25081,1.80125 -0.18672,2.62298c0.04728,0.60617 -0.24999,0.60838 -0.27818,1.24303c-0.01545,0.34775 -0.18344,0.6418 -0.20316,0.98556c-0.01593,0.27776 -0.01436,0.83319 -0.03107,1.10727c-0.00959,0.15726 0.21283,0.35454 0.20571,0.50962c-0.0109,0.23723 0.23937,0.75014 0.23138,0.98018c-0.00274,0.07884 0.06086,0.26115 0.05,0.33408c-0.04914,0.33001 -0.23482,0.50237 -0.25279,0.81892c-0.02576,0.45383 -0.32106,0.77198 -0.32459,1.12973c-0.00469,0.47478 0.03721,0.65672 0.26616,0.86333c0.31187,0.28144 0.24734,0.4951 0.24734,0.50794z" fill="#fffd4d" stroke="none" stroke-width="NaN"/><path d="M122.99451,255.31667c-0.09637,0.00726 -0.10347,-0.0912 -0.10347,-0.0912l-0.00735,-0.10185c-0.02009,-0.27853 -0.04933,-0.53057 -0.18003,-0.78015c-0.30355,-0.74138 -0.58891,-1.67629 -1.3206,-2.09879c-0.54354,-0.37306 -1.47874,-0.29062 -2.12196,-0.24144c-0.02182,0.01191 -0.0431,0.01352 -0.0431,0.01352l-0.01196,0.00056c-0.50148,0.07846 -0.81511,0.41343 -1.0144,0.85531c-0.32401,0.71217 -0.41112,1.50072 -0.69995,2.21994c0,0 -0.03675,0.09131 -0.12612,0.05377c-0.08937,-0.03754 -0.05263,-0.12885 -0.05263,-0.12885c0.29087,-0.72112 0.38012,-1.51189 0.70331,-2.22781c0.2266,-0.49749 0.58544,-0.86476 1.13914,-0.96386c0.02332,-0.01433 0.04766,-0.01616 0.04766,-0.01616c0.69014,-0.05196 1.68343,-0.13663 2.28117,0.2668c0.76588,0.44223 1.07685,1.40381 1.39399,2.18228c0.14222,0.27086 0.17641,0.5482 0.19821,0.85038l0.00735,0.10185c0,0 0.0071,0.09846 -0.08927,0.10571z" fill="#000000" stroke="none" stroke-width="0.5"/><path d="M120.71812,252.02622c0,1.66595 0.17654,2.97411 -0.02032,3.72108c-0.10257,0.3892 -0.40483,0.67521 -0.67649,0.67521c-0.79305,0 -0.537,-1.47851 -0.537,-4.01249c0,-0.06529 0.00053,-0.82128 0.00159,-0.88627c0.03977,-2.45767 -0.16173,-4.61606 0.61089,-4.61606c0.12571,0 0.27779,-0.07 0.35954,0.04939c0.43399,0.63378 0.2618,2.93684 0.2618,5.06915z" fill="#fff649" stroke="none" stroke-width="0"/><path d="M119.52666,253.79553c0.00482,0.00275 0.00947,0.00568 0.01397,0.00877c-0.04111,0.11877 -0.0033,0.31157 -0.01185,0.44904c-0.0006,0.0067 -0.00115,0.01348 -0.00166,0.02033c-0.02425,0.23659 -0.11706,0.60746 -0.04388,0.89234c0.01922,0.07481 0.06585,0.10172 0.11791,0.09903c0.00745,0.18391 0.01276,0.37677 0.0003,0.53865c-0.00342,0.04441 -0.02532,0.08433 -0.08433,0.08433c-0.11258,0 -0.12197,-0.43824 -0.09785,-1.06617c0.00524,-0.13639 -0.0172,-0.95513 0.03472,-0.9848z" fill="#000000" stroke="none" stroke-width="0.5"/><path d="M119.41726,254.21523c0.00862,-0.09873 0.01896,-0.37046 0.01455,-0.47303c-0.00292,-0.06798 0.01073,-0.06992 0.02014,-0.08297c0.04133,-0.05728 0.1581,-0.02593 0.15813,0.05662c0.00017,0.54742 -0.05138,1.09756 0.00308,1.64226c0.00035,0.00313 0.00053,0.0063 0.00053,0.00952c0,0.00861 -0.00129,0.01692 -0.00369,0.02475c-0.0869,0.57664 -0.15212,0.47785 -0.18013,0.15938c-0.01835,-0.20865 -0.01248,-0.51158 -0.01507,-0.78064c-0.00248,-0.25795 -0.00564,-0.46311 0.00246,-0.55589z" fill="#000000" stroke="none" stroke-width="0.5"/><path d="M120.71192,255.05978c-0.08433,0 -0.08433,-0.08434 -0.08433,-0.08434v-0.01205c0,-0.3169 -0.0241,-0.63337 -0.0241,-0.95183c0,-0.60644 0,-1.21287 0,-1.81931c0,0 0,-0.00799 0.00246,-0.01905v-0.06436c0,-0.77456 -0.00073,-1.54912 0.0001,-2.32367c-0.08723,-0.86113 0.02986,-1.84739 -0.13516,-2.70882c-0.68331,-0.59625 -0.8552,0.44523 -0.88253,0.97464c0.02642,0.02784 0.02181,0.0693 0.02181,0.0693c-0.08844,0.79265 -0.02479,1.62254 -0.02479,2.41977c0,0.8686 0.02528,1.74031 0.0253,2.60621c0,0.18993 0,0.37986 0,0.56979c-0.14087,0.07498 -0.07055,0.35487 -0.08191,0.53729c-0.0006,0.0067 -0.00115,0.01348 -0.00166,0.02033c-0.02425,0.23659 -0.11706,0.60746 -0.04388,0.89234c0.00983,0.03828 0.02684,0.06402 0.04808,0.07966c0.01124,0.08906 0.02521,0.16868 0.04106,0.23389c0.00053,0.03911 0.00228,0.07735 0.00549,0.1144c-0.01213,0.00897 -0.02876,0.01512 -0.05152,0.01512c-0.08433,0 -0.08433,-0.08434 -0.08433,-0.08434c0,-0.5418 0,-1.13516 0,-1.70648c0,-0.22913 0,-0.45471 0,-0.67199c0.00003,-0.86588 -0.0253,-1.73762 -0.0253,-2.60621c0,-0.7672 -0.05705,-1.56313 0.01466,-2.329c-0.01466,-0.02321 -0.01466,-0.04948 -0.01466,-0.04948c0,-0.69118 0.41238,-1.85625 1.27368,-1.12456c0.03692,0.91005 -0.00554,1.83242 0.08413,2.73975c0.00077,0.77736 0.0001,1.55472 0.0001,2.33208v0.07591c0,0 0,0.00799 -0.00246,0.01905c0,0.60259 0,1.20517 0,1.80776c0,0.31849 0.0241,0.63484 0.0241,0.95183v0.01205c0,0 0,0.08433 -0.08434,0.08433z" fill="#000000" stroke="none" stroke-width="0.5"/><path d="M119.60495,257.19299c0,-0.04658 0.03776,-0.08434 0.08434,-0.08434c0.04658,0 0.08433,0.03776 0.08433,0.08434c0,0.04658 -0.03776,0.08433 -0.08433,0.08433c-0.04658,0 -0.08434,-0.03776 -0.08434,-0.08433z" fill="#9e9215" stroke="none" stroke-width="0.5"/><path d="M110.2275,242.31107c-0.08233,0.01829 -0.10062,-0.06403 -0.10062,-0.06403l-0.01459,-0.06707c-0.02995,-0.2976 -0.35665,-0.44245 -0.49566,-0.68174c-0.20523,-0.35329 -0.0447,-0.79742 -0.04422,-1.18866c0.10969,-0.93353 0.99366,-0.86521 1.69148,-0.75623c0.55518,0.16943 1.21077,0.53203 1.80066,0.34782c0,0 0.01728,-0.00532 0.03831,-0.00303l0.01926,-0.01029c0.18554,-0.05681 0.36188,-0.14945 0.52494,-0.25375c0.7405,-0.30923 1.45678,-0.72405 2.30276,-0.44256c0.27092,0.0685 0.59673,0.31556 0.97899,0.44593c0.32968,0.11243 0.73839,0.11338 0.75245,0.12988c0.14982,-0.00264 0.26529,-0.05913 0.40009,-0.1263c0.80722,-0.28894 1.37743,-0.56566 2.23324,-0.28106c0.65518,0.27251 1.12101,0.31961 1.7966,0.11156c0,0 0.03397,-0.01045 0.06459,0.00427c0.61383,-0.11679 0.9517,-0.29598 1.59338,-0.29461c0.36223,0.05122 0.91048,0.20234 1.29057,0.27746c0.19098,0.03775 0.39974,0.03372 0.39974,0.03372c0.27341,-0.00384 0.91759,-0.3036 1.17581,-0.31047c0.34994,-0.00931 0.41723,0.05893 0.72992,0.13097c0.33784,0.10794 0.64934,0.21165 0.99003,0.21261c0.01193,-0.0118 0.02374,-0.01771 0.02374,-0.01771c0.56565,-0.28247 1.24766,-0.55404 1.82819,-0.16834c0.5903,0.38001 0.80637,1.29096 0.50213,1.89943c-0.12598,0.25179 -0.51411,0.80867 -0.4948,1.1176c0.02467,0.01209 0.03844,0.03447 0.03844,0.03447c0.11931,0.19769 0.17216,0.43334 0.18116,0.67971c0.00629,0.01536 0.00964,0.03505 0.0013,0.05617c0.00417,0.41542 -0.11002,0.85515 -0.23603,1.19093c-0.0949,0.21836 -0.17289,0.44616 -0.24517,0.67484c0.0055,0.00363 -0.0683,0.2205 -0.07294,0.23573c-0.11421,0.50945 -0.35573,0.99743 -0.42878,1.51201c-0.04553,0.32073 0.0017,0.68473 0.00018,1.00816c0.15719,0.61832 -0.16743,0.24375 -0.06773,1.11165c0.00518,0.04507 -0.2106,0.57587 -0.18203,0.61775c0,0 0.05193,0.48363 -0.01825,0.53041c-0.07017,0.04678 -0.06141,0.063 -0.06141,0.063c-0.10593,-0.16188 0.08975,-1.10641 0.09992,-1.17053c0.03036,-0.19128 0.19849,-0.28729 0.18908,-0.40114c-0.02116,-0.25602 -0.05227,-0.42702 -0.12699,-0.73054c-0.00363,-0.88854 0.14558,-1.6173 0.39351,-2.44326l0.00227,-0.01918c0.10919,-0.3524 0.21448,-0.71309 0.36197,-1.05216c0.11569,-0.30874 0.23309,-0.73951 0.22817,-1.13733l-0.01436,-0.02527c-0.01802,-0.24363 -0.17682,-0.44749 -0.20565,-0.67932c-0.04581,-0.3684 0.34923,-0.93283 0.50727,-1.24913c0.26438,-0.52876 0.07919,-1.3548 -0.44333,-1.68267c-0.51191,-0.34255 -1.12669,-0.08742 -1.62824,0.16169c-0.01849,0.0365 -0.06296,0.04392 -0.06296,0.04392l-0.05381,0.00781c-0.35411,0 -0.81844,-0.20339 -1.1696,-0.22847c-0.28071,-0.06488 -0.66932,-0.08459 -1.01583,0.0009c-0.19743,0.04871 -0.55934,0.21647 -0.55934,0.21647c-0.5365,0.12205 -1.26753,-0.2469 -1.8681,-0.33364c-0.65169,0.00158 -0.99148,0.18413 -1.62108,0.30552c0,0 -0.02013,0.00383 -0.04244,-0.0022c-0.67467,0.19486 -1.17278,0.14298 -1.83825,-0.13483c-0.80965,-0.27049 -1.34411,0.00608 -2.1079,0.27823c-0.15959,0.08009 -0.29894,0.13946 -0.4792,0.13993l-0.05854,-0.00751c0,0 -0.01518,-0.00217 -0.03167,-0.01113c-0.56634,0.07806 -1.14046,-0.4319 -1.67549,-0.56399c-0.79622,-0.26588 -1.48084,0.14046 -2.17726,0.42998c-0.17119,0.11065 -0.62041,0.30607 -0.6569,0.29182c-0.61631,0.16157 -1.2643,-0.17806 -1.84233,-0.35755c-0.58373,-0.0882 -1.39111,-0.19831 -1.48537,0.6017c0.00048,0.35895 -0.16351,0.77019 0.0223,1.09513c0.15768,0.27575 0.46318,0.39989 0.51639,0.74311l0.01205,0.05278c0,0 0.0183,0.08233 -0.06403,0.10062z" fill="#9e9215" stroke="none" stroke-width="0.5"/><path d="M112.17654,255.12698c-0.08233,0.01829 -0.10062,-0.06403 -0.10062,-0.06403l-0.01405,-0.0683c-0.16855,-0.42157 -0.63861,-0.51746 -0.82207,-0.95728c-0.29003,-0.72579 0.3871,-1.15336 0.21747,-1.83011c0,0 -0.00231,-0.00752 -0.00147,-0.06385c0.00024,-0.01584 -0.01288,-0.04234 -0.00904,-0.06533c-0.06534,-0.46917 -0.60536,-2.55123 -0.80043,-2.94708c-0.00911,-0.03856 -0.04233,-0.36632 -0.05361,-0.42688c-0.01809,-0.09705 -0.08049,0.08507 -0.03809,0.02651c0.10101,-0.1395 0.56828,1.33445 0.71937,1.30932c0.45322,-0.07538 0.87847,-0.13102 1.31734,-0.26139c-0.05193,-0.34133 -0.49177,-0.54229 -0.75231,-0.74516c-0.00932,-0.0047 -0.01661,-0.01091 -0.02232,-0.01776c-0.00346,-0.00281 -0.00687,-0.00562 -0.01025,-0.00844c0,0 -0.06479,-0.05399 -0.0108,-0.11878c0.00014,-0.00018 0.00029,-0.00035 0.00044,-0.00052c0.00051,-0.48746 0.0234,-0.95517 0.10654,-1.435c-0.00937,-0.02416 -0.00569,-0.04804 -0.00569,-0.04804l0.01258,-0.08016c-0.0008,-0.26045 0.11518,-0.58275 -0.18835,-0.65056c-0.90843,-0.21446 -1.22065,-0.58051 -1.55304,-1.38406c-0.01289,-0.01479 -0.01837,-0.03013 -0.01837,-0.03013c-0.23159,-0.65357 -0.03747,-1.29216 0.15798,-1.92861c0.11786,-0.46943 -0.02378,-0.77405 -0.19729,-1.1896c-0.0134,-0.01729 -0.04175,-0.06487 0.00583,-0.11245c0.05963,-0.05964 0.11927,0 0.11927,0l0.02487,0.03385c0.19054,0.4573 0.337,0.80275 0.2098,1.31347c-0.17685,0.57361 -0.36691,1.16162 -0.18672,1.75116c0.00272,0.0049 0.00402,0.00813 0.00402,0.00813c0.32788,0.82002 0.58199,1.16523 1.47251,1.37411c0.42225,0.10544 0.31862,0.47085 0.31768,0.82756l-0.00144,0.0095c0.01222,0.02668 0.0069,0.0551 0.0069,0.0551c-0.09466,0.50402 -0.1184,0.9916 -0.1184,1.50253v0.01333c0.30066,0.23309 0.73012,0.43807 0.79271,0.83133c0.03689,0.04182 0.01769,0.08276 0.00427,0.10217c-0.0048,0.02381 -0.02112,0.06465 -0.07656,0.0673l-0.01451,0.01202c-0.40493,0.12317 -0.78518,0.18332 -1.20307,0.2493c-0.11482,0.01813 -0.68971,-1.46304 -0.76869,-1.36214c-0.03213,0.04105 0.0232,0.22632 0.03385,0.274c0.23003,0.45164 0.86893,2.58742 0.87027,3.09523c0,0 0.01108,0.03945 0.00609,0.10466c0.05922,0.60763 -0.47235,1.03443 -0.21316,1.68173c0.18074,0.43429 0.64818,0.52273 0.82252,0.9584l0.0221,0.09435c0,0 0.0183,0.08233 -0.06403,0.10062z" fill="#9e9215" stroke="none" stroke-width="0.5"/><path d="M117.14473,241.28245c-0.08433,0 -0.08433,-0.08433 -0.08433,-0.08433v-0.08435c0,-0.12799 -0.02701,-0.23804 -0.02811,-0.36549c0.00361,-0.5835 -0.95609,-0.48372 -1.195,-0.12191c0,0 -0.04678,0.07017 -0.11695,0.02339c-0.07017,-0.04678 -0.02339,-0.11695 -0.02339,-0.11695c0.32957,-0.49037 1.50007,-0.55035 1.50402,0.21547c-0.00137,0.1245 0.02811,0.23838 0.02811,0.36549v0.08435c0,0 0,0.08433 -0.08433,0.08433z" fill="#000000" stroke="none" stroke-width="0.5"/><path d="M123.34705,241.41227c-0.08433,0 -0.08434,-0.08433 -0.08434,-0.08433l0.00115,-0.01425c-0.03302,-0.20197 -0.00182,-0.40117 -0.00006,-0.60369c0.21111,-0.6465 1.28572,-0.54984 1.65315,-0.0954c0,0 0.05268,0.06585 -0.01317,0.11854c-0.06586,0.05268 -0.11854,-0.01317 -0.11854,-0.01317c-0.26598,-0.33687 -1.18474,-0.47688 -1.35495,0.01705c0.00189,0.18374 -0.0313,0.36563 -0.00006,0.54895l0.00115,0.04198c0,0 0,0.08433 -0.08433,0.08433z" fill="#000000" stroke="none" stroke-width="0.5"/><path d="M120.01025,247.32635c0,2.8094 -2.13846,5.08687 -4.7764,5.08687c-2.63793,0 -4.7764,-2.27747 -4.7764,-5.08687c0,-2.8094 2.13847,-5.08686 4.7764,-5.08686c2.63793,0 4.7764,2.27747 4.7764,5.08687z" fill="#fbfdfa" stroke="#000000" stroke-width="0"/><path d="M114.11811,253.06229c-0.01282,-0.00061 -0.02175,-0.00329 -0.02175,-0.00329c-0.3174,-0.09918 -0.77123,0.37305 -0.49107,0.64931c0.11958,0.11791 0.33511,0.23764 0.47585,0.11271c0.23182,-0.13631 0.17149,-0.53434 0.0526,-0.74103zM114.15438,252.90122c0.04333,-0.00563 0.07443,0.0317 0.07443,0.0317l0.05236,0.06515c0.15612,0.28838 0.20931,0.77033 -0.10375,0.96143c-0.21757,0.16218 -0.53419,0.0551 -0.70546,-0.14787c-0.36651,-0.43437 0.20907,-1.04894 0.67286,-0.91418c0,0 0.00382,0.00114 0.00955,0.00377z" fill="#fffc51" stroke="none" stroke-width="0.5"/><path d="M114.13844,253.07299c0.11889,0.2067 0.17864,0.61907 -0.05318,0.75539c-0.14073,0.12493 -0.36664,0.00352 -0.48621,-0.11439c-0.28015,-0.27626 0.18394,-0.76157 0.50134,-0.66239c0,0 0.00926,0.00287 0.02208,0.00347z" data-paper-data="{&quot;noHover&quot;:false,&quot;origItem&quot;:[&quot;Path&quot;,{&quot;applyMatrix&quot;:true,&quot;segments&quot;:[[[576.38862,314.41816],[0,0],[-0.152,-0.00718]],[[576.13068,314.37918],[0,0],[-3.76354,-1.17598]],[[570.3078,322.07832],[-3.32192,-3.2757],[1.41786,1.39814]],[[575.95014,323.41476],[-1.66872,1.48136],[2.74878,-1.61636]],[[576.57382,314.62794],[1.40976,2.45092],[0,0]]],&quot;closed&quot;:true,&quot;fillColor&quot;:[0,0,0,1]}]}" fill="#a8be04" stroke="none" stroke-width="0.5"/><path d="M111.97224,240.79374c-0.00034,0.0001 -0.00052,0.00014 -0.00052,0.00014c-0.42144,0.09289 -0.70478,1.02663 -0.36662,1.3316c0.08918,0.08042 0.31486,0.0657 0.42796,0.06993c0.43679,-0.27285 0.48418,-1.26536 -0.06053,-1.40153zM111.87909,240.64742c0.03863,-0.06729 0.1099,-0.03165 0.1099,-0.03165l0.02446,0.01448c0.72722,0.18181 0.64144,1.38887 0.06464,1.72772c-0.16518,0.00399 -0.43538,0.01803 -0.5734,-0.09696c-0.46177,-0.38472 -0.13101,-1.41525 0.37439,-1.61358z" fill="#fffc51" stroke="none" stroke-width="0.5"/><path d="M111.97326,240.78548c0.54471,0.13618 0.49803,1.14541 0.06124,1.41825c-0.1131,-0.00423 -0.34391,0.00976 -0.43309,-0.07067c-0.33816,-0.30497 -0.05042,-1.25469 0.37102,-1.34758c0,0 0.00019,-0.00004 0.00052,-0.00014z" data-paper-data="{&quot;noHover&quot;:false,&quot;origItem&quot;:[&quot;Path&quot;,{&quot;applyMatrix&quot;:true,&quot;segments&quot;:[[[550.94398,168.94384],[0,0],[-0.004,0.00112]],[[550.93786,168.94548],[0,0],[-4.99722,1.10148]],[[546.59068,184.73494],[-4.0097,-3.61618],[1.0574,0.95362]],[[551.66524,185.56418],[-1.34108,-0.05018],[5.17926,-3.23526]],[[550.94754,168.94548],[6.4589,1.61474],[0,0]]],&quot;closed&quot;:true,&quot;fillColor&quot;:[0,0,0,1]}]}" fill="#a8be04" stroke="none" stroke-width="0.5"/><path d="M128.16169,240.44351c-0.00748,0.00119 -0.01241,0.00119 -0.01241,0.00119c-0.75187,-0.00506 -0.00303,1.1848 0.42708,0.57166c0.10764,-0.33092 -0.12986,-0.36702 -0.33205,-0.51629l-0.04412,-0.01997c0,0 -0.0244,-0.0122 -0.03851,-0.0366zM128.22533,240.32018c0.0271,-0.00253 0.0503,0.00907 0.0503,0.00907l0.07406,0.03912c0.24851,0.22962 0.53098,0.26957 0.37699,0.72453c-0.65999,0.91373 -1.65888,-0.81078 -0.57739,-0.81687c0,0 0.05478,0 0.07604,0.04415z" fill="#fffc51" stroke="none" stroke-width="0.5"/><path d="M128.11144,240.44764c0.01528,0.02643 0.0426,0.03957 0.0426,0.03957l0.04903,0.02166c0.21904,0.16171 0.48352,0.21432 0.36691,0.57282c-0.46596,0.66423 -1.2868,-0.63818 -0.47228,-0.63271c0,0 0.00563,-0.00005 0.01374,-0.00134z" data-paper-data="{&quot;noHover&quot;:false,&quot;origItem&quot;:[&quot;Path&quot;,{&quot;applyMatrix&quot;:true,&quot;segments&quot;:[[[742.91028,164.79096],[0,0],[-0.08866,0.01412]],[[742.76318,164.80508],[0,0],[-8.91526,-0.05994]],[[747.82732,171.58358],[-5.10008,7.27028],[1.27638,-3.92392]],[[743.89002,165.46172],[2.39748,1.76998],[0,0]],[743.36688,165.22496],[[742.91026,164.79094],[0.16726,0.28934],[0,0]]],&quot;closed&quot;:true,&quot;fillColor&quot;:[0,0,0,1]}]}" fill="#a8be04" stroke="none" stroke-width="0.5"/><path d="M126.34859,253.38034c0.14317,-0.44045 0.70154,-0.70376 1.04093,-0.23419c0.1423,0.19688 0.14987,0.58813 0.14987,0.82325c-0.00475,0.22898 -0.21712,0.59377 -0.49081,0.46398c-0.25384,-0.12038 -0.56977,-0.65061 -0.69592,-0.90253l-0.02451,-0.03559c0,0 -0.04544,-0.06817 0.02044,-0.11492zM126.50247,253.4538l0.00105,0.00162c0.10221,0.20475 0.41071,0.74009 0.61383,0.82395c0.13826,0.05709 0.25737,-0.18588 0.25337,-0.30997c0,-0.19729 0.0023,-0.56078 -0.11803,-0.72463c-0.26823,-0.36523 -0.6595,-0.1187 -0.75021,0.20903z" fill="#fffc51" stroke="none" stroke-width="0.5"/><path d="M127.25768,253.23797c0.12033,0.16385 0.12003,0.53887 0.12003,0.73616c0.004,0.12408 -0.11968,0.3704 -0.25794,0.31332c-0.20311,-0.08386 -0.52156,-0.63111 -0.62376,-0.83585l-0.00104,-0.00163c0.09071,-0.32772 0.49448,-0.57722 0.76271,-0.21199z" data-paper-data="{&quot;noHover&quot;:false,&quot;origItem&quot;:[&quot;Path&quot;,{&quot;applyMatrix&quot;:true,&quot;segments&quot;:[[[723.23608,319.06042],[1.07562,-3.88598],[0,0]],[[723.24856,319.07956],[0,0],[1.21194,2.42778]],[[730.527,328.84956],[-2.40842,-0.9944],[1.6394,0.67688]],[[733.53132,325.17416],[0.04746,1.4713],[0,-2.33936]],[[732.13174,316.58186],[1.42686,1.94284],[-3.18056,-4.33076]]],&quot;closed&quot;:true,&quot;fillColor&quot;:[0,0,0,1]}]}" fill="#a8be04" stroke="none" stroke-width="0.5"/><path d="M125.78058,254.36621c-0.0247,0.02984 -0.06689,0.02985 -0.06689,0.02985c-0.2926,-0.00102 -0.61661,0.43724 -0.47277,0.73175c0.11458,0.23459 0.3558,0.33626 0.59708,0.36484c0.29462,0.04414 0.33037,-1.05822 0.01283,-1.12717zM125.70632,254.22747c0.0247,-0.02985 0.06689,-0.02985 0.06689,-0.02985l0.101,0.00081c0.48504,0.15406 0.53221,1.42956 -0.04671,1.46256c-0.30137,-0.03916 -0.60706,-0.16936 -0.74243,-0.46864c-0.18367,-0.40607 0.21136,-0.95714 0.62124,-0.96489z" fill="#9966ff" stroke="none" stroke-width="0.5"/><path d="M129.53959,247.15163c0,2.8094 -2.13847,5.08687 -4.7764,5.08687c-2.63793,0 -4.7764,-2.27747 -4.7764,-5.08687c0,-2.8094 2.13847,-5.08687 4.7764,-5.08687c2.63793,0 4.7764,2.27747 4.7764,5.08687z" fill="#fbfdfa" stroke="#000000" stroke-width="0"/><path d="M119.23073,247.12785c0,2.26217 -1.81261,4.09602 -4.04858,4.09602c-2.23597,0 -4.04858,-1.83385 -4.04858,-4.09602c0,-2.26217 1.81261,-4.09602 4.04858,-4.09602c2.23597,0 4.04858,1.83385 4.04858,4.09602z" fill="#3da9e8" stroke="#000000" stroke-width="0"/><path d="M128.59589,247.02761c0,2.21621 -1.75597,4.0128 -3.92206,4.0128c-2.16609,0 -3.92206,-1.79659 -3.92206,-4.0128c0,-2.21621 1.75597,-4.0128 3.92206,-4.0128c2.16609,0 3.92206,1.79659 3.92206,4.0128z" fill="#3da9e8" stroke="#000000" stroke-width="0"/><path d="M117.87698,247.02347c0,1.46735 -1.1612,2.65688 -2.59362,2.65688c-1.43242,0 -2.59362,-1.18952 -2.59362,-2.65688c0,-1.46735 1.1612,-2.65688 2.59362,-2.65688c1.43242,0 2.59362,1.18953 2.59362,2.65688z" fill="#000000" stroke="#000000" stroke-width="0"/><path d="M127.50504,246.84001c0,1.55469 -1.19661,2.81503 -2.67269,2.81503c-1.47609,0 -2.67269,-1.26033 -2.67269,-2.81503c0,-1.55469 1.19661,-2.81503 2.67269,-2.81503c1.47609,0 2.67269,1.26033 2.67269,2.81503z" fill="#000000" stroke="#000000" stroke-width="0"/><path d="M126.24593,252.17228c-0.00016,0.00008 -0.00032,0.00016 -0.00049,0.00024l-0.00024,0.03605c0.13638,0.52681 0.48371,0.96329 0.78462,1.4105c0.41675,0.59609 0.4932,1.74109 0.05367,2.34398c-0.5709,0.71159 -1.56995,0.50399 -2.32346,0.1237c-0.48694,-0.38771 -0.61587,-0.8479 -0.41026,-1.45313c0.0955,-0.28111 0.31421,-0.50815 0.38135,-0.80646c0.37409,-0.38917 0.83659,-0.92228 0.90049,-1.4631c-0.00663,-0.01058 -0.00948,-0.01913 -0.00948,-0.01913c-0.14586,-0.45197 0.2183,-0.50843 0.58112,-0.39134l0.08039,0.10555c0,0 0.03772,0.07543 -0.03772,0.11315zM125.80774,252.23974c0,0.60154 -0.49115,1.25024 -0.92789,1.66701c-0.04888,0.29074 -0.28184,0.50911 -0.36967,0.77903c-0.17439,0.53594 -0.08917,0.91294 0.34076,1.25889c0.67589,0.33382 1.58918,0.55434 2.09922,-0.08492c0.40394,-0.51757 0.31483,-1.63466 -0.05896,-2.14459c-0.31617,-0.47035 -0.67786,-0.92827 -0.81341,-1.48598l-0.00063,-0.11461c0,0 0,-0.01033 0.00362,-0.02376c-0.18536,-0.05733 -0.32429,-0.06556 -0.32553,0.06948c0.05248,0.01798 0.05248,0.07945 0.05248,0.07945z" fill="#6af2e7" stroke="none" stroke-width="0.5"/><path d="M125.83288,252.25187c0,0 -0.00034,-0.07975 -0.05376,-0.09805c0.00126,-0.13748 0.14405,-0.12904 0.33276,-0.07068c-0.00368,0.01367 -0.00368,0.02419 -0.00368,0.02419l0.00071,0.11669c0.13799,0.56778 0.51301,1.03919 0.83489,1.51803c0.38054,0.51914 0.46808,1.66685 0.05684,2.19376c-0.51925,0.65081 -1.45788,0.42669 -2.14598,0.08685c-0.4377,-0.3522 -0.52833,-0.74035 -0.35079,-1.28597c0.08942,-0.2748 0.32626,-0.50254 0.37602,-0.79853c0.44463,-0.42429 0.95288,-1.09105 0.95288,-1.70346z" data-paper-data="{&quot;noHover&quot;:false,&quot;origItem&quot;:[&quot;Path&quot;,{&quot;applyMatrix&quot;:true,&quot;segments&quot;:[[[357.49913,152.33234],[0,0],[0,3.56641]],[[351.99789,162.2156],[2.58932,-2.4709],[-0.2898,1.72374]],[[349.80623,166.83427],[0.52072,-1.60029],[-1.03391,3.17747]],[[351.82653,174.29792],[-2.54897,-2.05105],[4.00718,1.97911]],[[364.27226,173.79446],[-3.02391,3.79001],[2.39488,-3.06853]],[[363.92273,161.07974],[2.21608,3.02327],[-1.8745,-2.78859]],[[359.10024,152.26975],[0.80362,3.30652],[0,0]],[359.09649,151.59024],[[359.11793,151.44935],[-0.02144,0.07963],[-1.09895,-0.3399]],[[357.18798,151.8613],[0.00735,-0.80065],[0.31114,0.1066]],[357.49913,152.33235]],&quot;closed&quot;:true,&quot;fillColor&quot;:[0,0,0,1]}]}" fill="#b5f2ed" stroke="none" stroke-width="0.5"/><path d="M123.58091,251.44675c0.55528,0.01086 1.23877,-0.16926 1.76949,-0.26598c0.71094,-0.10163 1.45017,-0.15408 2.16725,-0.14548c0.34657,0.13179 0.33065,0.5086 0.11802,0.75175c-0.3578,0.40914 -0.83956,0.62882 -1.36842,0.71021c-0.90482,0.16425 -1.73858,0.0969 -2.53532,-0.34914c-0.21189,-0.14899 -0.41457,-0.32453 -0.36324,-0.58809c-0.00458,-0.01119 -0.00692,-0.02493 -0.00562,-0.04179c0.00647,-0.08409 0.09055,-0.07762 0.09055,-0.07762c0.0123,0.00097 0.02469,0.00184 0.03715,0.00259l0.00034,-0.00021c0,0 0.04964,-0.02708 0.0898,0.00376zM123.51848,251.61318l-0.00516,0.00214c-0.02332,0.15887 0.19604,0.31179 0.30843,0.39001c0.75611,0.42723 1.55771,0.48216 2.41759,0.32556c0.42895,-0.06597 0.87689,-0.22573 1.17835,-0.55633c0.11331,-0.12426 0.38687,-0.47075 0.0707,-0.57317c-0.70277,0.01162 -1.41333,0.04626 -2.11096,0.14586c-0.56164,0.10188 -1.28083,0.2886 -1.85895,0.26593z" fill="#6af2e7" stroke="none" stroke-width="0.5"/><path d="M125.37411,251.3395c0.69763,-0.0996 1.41955,-0.12903 2.12232,-0.14065c0.31618,0.10242 0.043,0.4513 -0.07031,0.57556c-0.30147,0.33061 -0.75121,0.49573 -1.18016,0.5617c-0.85988,0.1566 -1.67648,0.0974 -2.43259,-0.32983c-0.11238,-0.07822 -0.33176,-0.23288 -0.30845,-0.39174l0.00516,-0.00215c0.57811,0.02267 1.30239,-0.17101 1.86403,-0.27289z" data-paper-data="{&quot;noHover&quot;:false,&quot;origItem&quot;:[&quot;Path&quot;,{&quot;applyMatrix&quot;:true,&quot;segments&quot;:[[[343.92669,148.61766],[3.42749,0.13441],[0,0]],[[343.89611,148.63033],[0,0],[-0.13824,0.94189]],[[345.7247,150.94262],[-0.66629,-0.46375],[4.48278,2.53292]],[[360.05797,152.87278],[-5.09799,0.92845],[2.54315,-0.39112]],[[367.04413,149.57442],[-1.78731,1.96008],[0.67178,-0.73672]],[[367.46328,146.17626],[1.87453,0.6072],[-4.16656,0.06888]],[[354.94792,147.04105],[4.13609,-0.5905],[-3.32984,0.60403]]],&quot;closed&quot;:true,&quot;fillColor&quot;:[0,0,0,1]}]}" fill="#b5f2ed" stroke="none" stroke-width="0.5"/><path d="M125.22408,255.90993c-0.00673,-0.00379 -0.01083,-0.00806 -0.01083,-0.00806l-0.04411,-0.04844c-0.01288,-0.06094 -0.18129,-0.51435 0.05513,-0.45555c0.08574,0.02133 0.25163,0.31603 0.35368,0.37904c0.39457,0.24711 0.73693,-0.13346 0.93299,-0.44289c0.20069,-0.19528 0.5153,-0.19591 0.41005,0.15762c-0.07264,0.24399 -0.2939,0.32821 -0.46629,0.49338c-0.41504,0.25944 -0.86764,0.30518 -1.22297,-0.06397c0,0 -0.0041,-0.00426 -0.00764,-0.01113z" fill="#ffffff" stroke="none" stroke-width="0.5"/><path d="M128.8772,251.04242c-0.02367,-0.22064 0.19691,-1.28045 0.19691,-1.4771c0,0 0,-0.08433 0.08433,-0.08433c0.03298,0 0.02716,0.02757 0.03038,0.05362c0.00502,0.04056 0.00561,0.08625 0.00561,0.08625c0.02449,0.38157 -0.09191,1.46759 -0.1624,1.76671c-0.01784,0.07572 -0.04098,0.31871 -0.00471,0.53587c0.04974,0.29777 0.17189,0.58629 0.21376,0.68725c0.09004,0.21711 0.11381,0.26695 0.1579,0.47697c0.01661,0.07912 0.0851,0.22378 0.09498,0.4131c0.00734,0.14075 -0.04002,0.34442 -0.04673,0.36111c-0.20849,0.51918 -0.40655,0.93607 -0.48359,1.51277c-0.05032,0.26763 -0.13672,0.65094 -0.00328,0.90166c0.04595,0.08633 0.10762,0.14628 0.16661,0.21073c0.10783,0.11782 0.20666,0.23164 0.18399,0.41449c-0.00346,0.0279 -0.00975,0.05759 -0.01926,0.08939c0,0 0.02399,0.08874 -0.05662,0.06393c-0.08061,-0.0248 -0.0802,-0.10541 -0.0802,-0.10541c0.08193,-0.25722 -0.17953,-0.37828 -0.2926,-0.58207c-0.15598,-0.28111 -0.12198,-0.71571 -0.06519,-1.01943c0.08395,-0.6308 0.29546,-1.13142 0.52681,-1.70999l0.00187,-0.06619c0,-0.13586 -0.06126,-0.32854 -0.14192,-0.54691c-0.11778,-0.31884 -0.27694,-0.69242 -0.34719,-1.02378c-0.09801,-0.46231 0.05423,-0.83074 0.04051,-0.95865z" fill="#9e9215" stroke="none" stroke-width="0.5"/><path d="M114.3938,255.37287c0.00008,-0.00162 0.00026,-0.00428 0.00071,-0.00765c0.00759,-0.16521 0.06624,-0.5461 -0.09041,-0.63676c-0.34306,-0.19856 -0.81283,0.22165 -0.95332,0.49001c-0.13871,0.2928 -0.26472,0.66599 -0.18737,0.9965c0.10006,0.42758 0.63524,0.32823 0.82633,0.07333c0.20257,-0.28294 0.28841,-0.58965 0.40407,-0.91542zM114.54761,255.44376c-0.11913,0.33652 -0.2124,0.65029 -0.42178,0.94416c-0.27648,0.36847 -0.98623,0.43128 -1.12644,-0.13359c-0.09104,-0.36676 0.04627,-0.78562 0.2006,-1.11145c0.1773,-0.33181 0.93146,-0.94898 1.27665,-0.4688c0.1409,0.19599 0.08577,0.49408 0.08577,0.71997c0,0 0,0.02643 -0.0148,0.0497z" fill="#fffc51" stroke="none" stroke-width="0.5"/><path d="M114.40126,255.39128c-0.11916,0.33565 -0.21324,0.66287 -0.42195,0.95439c-0.09109,0.1215 -0.2599,0.20825 -0.42524,0.22277c-0.19204,0.01686 -0.37938,-0.06371 -0.43478,-0.30043c-0.07969,-0.34053 0.0497,-0.73697 0.19262,-1.03864c0.14475,-0.2765 0.63981,-0.71111 0.99327,-0.50654c0.1614,0.09341 0.1046,0.49026 0.09678,0.66048c-0.00046,0.00348 -0.00062,0.0063 -0.0007,0.00797z" data-paper-data="{&quot;noHover&quot;:false,&quot;origItem&quot;:[&quot;Path&quot;,{&quot;applyMatrix&quot;:true,&quot;segments&quot;:[[[579.65756,341.81574],[0,0],[0.0009,-0.01922]],[[579.66594,341.72498],[-0.00528,0.04008],[0.09002,-1.95902]],[[578.59386,334.17458],[1.85746,1.07506],[-4.06786,-2.3544]],[[567.2899,339.98488],[1.66584,-3.1821],[-1.6448,3.47186]],[[565.06814,351.8009],[-0.9171,-3.91902],[1.18646,5.07]],[[574.86632,352.6704],[-2.2658,3.02254],[2.40198,-3.3549]],[[579.65756,341.81576],[-1.37138,3.8629],[0,0]]],&quot;closed&quot;:true,&quot;fillColor&quot;:[0,0,0,1]}]}" fill="#a8be04" stroke="none" stroke-width="0.5"/><path d="M111.21162,243.51813l0.89124,-1.15804l4.39692,-0.58453c0,0 -0.532,0.50097 -0.68364,0.61067c-0.20653,0.1494 -0.58713,0.51122 -0.58713,0.51122c0,0 -1.44611,0.62603 -1.97556,0.72442c-0.43595,0.08101 -1.77072,-0.03144 -1.77072,-0.03144z" fill="#fffd4d" stroke="#fffd4d" stroke-width="0.5"/><path d="M111.14332,243.66892c0.02667,-0.08001 0.10667,-0.05334 0.10667,-0.05334l0.00948,0.00772c0.56621,0 1.1339,0.11589 1.70077,0.0462c0.80101,-0.16045 1.63637,-0.36664 2.30161,-0.86396c0.48004,-0.267 1.07235,-0.87236 1.1925,-1.42949c0,0 0.0183,-0.08233 0.10062,-0.06403c0.08233,0.01829 0.06403,0.10062 0.06403,0.10062c-0.13682,0.6009 -0.74095,1.24341 -1.26538,1.53442c-0.68072,0.51236 -1.54539,0.72498 -2.3666,0.88897c-0.57694,0.07004 -1.15171,-0.04406 -1.72755,-0.04406l-0.06282,-0.01637c0,0 -0.08001,-0.02667 -0.05334,-0.10668z" fill="#000000" stroke="none" stroke-width="0.5"/><path d="M127.74205,243.83403c-0.55266,-0.11377 -1.72991,-0.4159 -1.72991,-0.4159c0,0 -1.03495,-0.756 -1.25053,-0.92875c-0.15829,-0.12684 -0.48169,-0.61157 -0.48169,-0.61157l4.03879,0.35363l1.24217,1.49242c0,0 -1.36377,0.20385 -1.81883,0.11017z" data-paper-data="{&quot;index&quot;:null}" fill="#fffd4d" stroke="#fffd4d" stroke-width="0.5"/><path d="M129.46789,243.86344l-0.06281,0.01638c-0.57584,0 -1.15061,0.1141 -1.72755,0.04406c-0.82121,-0.164 -1.68588,-0.37661 -2.3666,-0.88897c-0.52444,-0.29101 -1.12856,-0.93352 -1.26538,-1.53442c0,0 -0.01829,-0.08233 0.06403,-0.10062c0.08233,-0.01829 0.10062,0.06403 0.10062,0.06403c0.12014,0.55713 0.71246,1.16249 1.1925,1.42949c0.66524,0.49732 1.50061,0.70351 2.30161,0.86396c0.56686,0.0697 1.13456,-0.0462 1.70077,-0.0462l0.00948,-0.00772c0,0 0.08001,-0.02667 0.10668,0.05334c0.02667,0.08001 -0.05334,0.10668 -0.05334,0.10668z" data-paper-data="{&quot;index&quot;:null}" fill="#000000" stroke="none" stroke-width="0.5"/><path d="M112.07787,256.94837c0,0 -0.11593,-0.2763 -0.11616,-0.37171c-0.0003,-0.12555 0.11451,-0.3163 0.11451,-0.3163c0,0 -0.10727,0.00102 0.05824,0.00247c0.15436,0.00136 0.21837,-0.01166 0.72933,0.0626c0.15818,0.02299 0.61487,0.30655 0.80368,0.30819c0.10963,0.00095 0.58095,-0.37033 0.69923,-0.36966c4.2916,0.02436 13.70681,0.13696 13.70681,0.13696l0.61828,0.0228c0,0 0.04041,0.01948 0.10834,0.10711c0.05,0.0645 0.16152,0.06442 0.22592,0.15065c0.07541,0.10097 0.32068,0.28914 0.28183,0.36977c-0.0634,0.13158 -0.50899,0.35013 -0.60886,0.46166c-0.115,0.12842 -0.26393,0.14436 -0.48807,0.16137c-0.21615,0.01641 -0.50498,0.03872 -0.75585,-0.09699c-0.09837,-0.05322 -0.33613,-0.28457 -0.57415,-0.35791c-0.22408,-0.06904 -0.65391,-0.03566 -0.82991,-0.03518c-0.01284,0.00003 -0.07677,0.0318 -0.08613,0.03204c-0.06435,0.00162 -0.05396,0.00605 -0.09945,0.0409c-0.11545,0.08846 -0.24655,0.17378 -0.33372,0.14414c-0.11329,-0.03852 -0.51775,-0.28786 -0.70157,-0.24747c-0.34767,0.07641 -0.80209,0.29814 -1.45181,0.31559c-0.18261,0.0049 -1.10071,-0.27104 -1.29202,-0.26554c-0.20331,0.00584 -0.49437,0.12271 -0.70379,0.12521c-0.4717,0.00564 -1.00977,-0.18271 -1.49189,-0.17039c-0.68508,0.01751 -1.07555,0.48183 -1.71353,0.47984c-0.35591,-0.00111 -0.83921,-0.42492 -1.19795,-0.41136c-0.46565,0.0176 -0.93201,0.23281 -1.26011,0.30608c-0.31804,0.07103 -0.66506,0.02102 -0.98529,0.02566c-0.16774,0.00243 -0.43458,-0.37325 -0.60646,-0.36174c-0.31022,0.02077 -0.38972,0.21687 -0.58319,0.33023c-0.18748,0.10985 -0.49055,0.13685 -0.68588,0.16836c-0.14143,0.02282 -0.22553,-0.08984 -0.32041,-0.15035c-0.09994,-0.06373 -0.20694,-0.07613 -0.20694,-0.07613z" fill="#fffd4d" stroke="none" stroke-width="0"/><path d="M117.06736,257.11356c0.46444,0.18736 1.05431,0.65229 1.58099,0.38781c0.21593,-0.07028 0.33101,-0.26766 0.54398,-0.33441c0.4495,-0.14088 1.03446,-0.01148 1.49112,0.02027c0.18091,0.03185 0.43708,0.14702 0.62337,0.11133c0.281,-0.05383 0.47887,-0.23558 0.78853,-0.20656c0.28491,0.0267 0.49751,0.18731 0.75718,0.28152c0.28211,0.103 0.64143,0.09789 0.93608,0.02955l0.01708,-0.00852c0.31346,-0.17093 0.60404,-0.26036 0.90331,-0.30712c0.30984,-0.04841 0.46031,0.24411 0.82383,0.24411c0.16963,0 0.55601,-0.32274 0.76298,-0.32119c0.1608,0.0012 0.31513,0.01997 0.4354,0.08287c0.42675,0.22317 0.52937,0.48689 1.06908,0.48689c0.44512,0 1.22834,-0.12533 1.36375,-0.63184c0,0 0.00593,-0.0895 0.08729,-0.0673c0.08136,0.02219 0.05917,0.10355 0.05917,0.10355c-0.16278,0.58722 -0.77925,0.75613 -1.30693,0.75613c-0.1761,0 -0.49846,-0.00584 -0.66056,-0.08972c-0.24282,-0.12564 -0.49659,-0.37455 -0.75879,-0.44072c-0.08799,-0.02221 -0.18134,-0.03374 -0.2767,-0.03923c-0.19247,-0.01109 -0.57232,0.33978 -0.75362,0.33978c-0.35038,0 -0.49486,-0.32849 -0.79893,-0.27556c-0.28048,0.04883 -0.54269,0.13516 -0.8298,0.28664c-0.0132,0.01478 -0.02799,0.02217 -0.02799,0.02217l-0.03308,0.01429c-0.00577,0.00143 -0.01155,0.00283 -0.01736,0.00421l-0.01041,0.00522c0,0 -0.02469,0.01234 -0.05288,0.00879c-0.31821,0.06522 -0.68814,0.06436 -0.98858,-0.04449c-0.24364,-0.08878 -0.44716,-0.24697 -0.71345,-0.27194c-0.2895,-0.02715 -0.47925,0.15789 -0.74536,0.20458c-0.21379,0.03751 -0.46546,-0.07327 -0.67332,-0.11005c-0.427,-0.03127 -0.99977,-0.16306 -1.41853,-0.02717c-0.20026,0.06498 -0.32142,0.25831 -0.53132,0.32975c-0.58163,0.28961 -1.19366,-0.18328 -1.70818,-0.38704c0,0 -0.00172,-0.00069 -0.00455,-0.00211l-0.01775,-0.00075c-0.6568,0.09923 -1.21906,0.42568 -1.88332,0.42568c-0.19997,0 -0.4279,0.02581 -0.60994,-0.0737c-0.12563,-0.06868 -0.16888,-0.32005 -0.31021,-0.29712c-0.26957,0.04374 -0.57857,0.30712 -0.86265,0.38527c-0.88004,0.29373 -1.4642,-0.41393 -1.4642,-1.25542c0,-0.41922 0.42932,-1.3259 0.06988,-1.66628c0,0 -0.05963,-0.05963 0,-0.11927c0.05963,-0.05964 0.11927,0 0.11927,0c0.42414,0.44018 -0.02048,1.26708 -0.02048,1.78555c0,0.73399 0.47483,1.35095 1.24666,1.09399c0.23823,-0.06435 0.70371,-0.41612 0.92652,-0.39184c0.12917,0.01407 0.25217,0.24676 0.37654,0.31735c0.14909,0.08462 0.3644,0.05281 0.52862,0.05281c0.65046,0 1.2124,-0.32287 1.85767,-0.42372l0.04897,-0.00098c0,0 0.01812,0 0.03757,0.0084c0.01416,0.00159 0.02405,0.00554 0.02405,0.00554z" fill="#9e9215" stroke="none" stroke-width="0.5"/><path d="M122.4978,255.35974l0.05564,0.07451c0.36382,0.65276 0.83079,-0.01765 0.83079,-0.50376c0,0 0,-0.08434 0.08433,-0.08434c0.08433,0 0.08434,0.08434 0.08434,0.08434c0,0.64286 -0.68919,1.41154 -1.14097,0.59553l-0.04905,-0.06508c0,0 -0.0506,-0.06747 0.01687,-0.11807c0.06747,-0.0506 0.11807,0.01687 0.11807,0.01687z" data-paper-data="{&quot;index&quot;:null}" fill="#000000" stroke="none" stroke-width="0.5"/><path d="M120.03196,256.27468c0.63975,0.10696 0.63719,-1.05728 0.63245,-1.32509c-0.00209,-0.1181 -0.13093,-0.43162 0.06046,-0.43162c0.12769,0 0.10822,0.80085 0.10821,0.81949c-0.00038,0.48295 -0.23437,1.06463 -0.79085,1.10592c-0.61486,0.04561 -0.67451,-0.77521 -0.619,-1.16804c0.00506,-0.0358 0.01947,-0.24635 0.03241,-0.35696c0.00003,0.08596 0.00765,0.16999 0.02759,0.24763c0.00983,0.03828 0.02684,0.06402 0.04809,0.07966c0.01124,0.08906 0.02521,0.16869 0.04106,0.23389c0.00171,0.12543 0.01589,0.24193 0.05081,0.3387c0.01642,0.22258 0.10836,0.40619 0.40877,0.45641z" fill="#000000" stroke="none" stroke-width="0.5"/><path d="M117.75022,255.22887c0.06747,0.0506 0.01687,0.11807 0.01687,0.11807l-0.04906,0.06508c-0.45179,0.816 -1.14097,0.04733 -1.14097,-0.59553c0,0 0,-0.08434 0.08433,-0.08434c0.08433,0 0.08434,0.08434 0.08434,0.08434c0,0.48612 0.46696,1.15652 0.83079,0.50376l0.05564,-0.07451c0,0 0.0506,-0.06747 0.11807,-0.01687z" fill="#000000" stroke="none" stroke-width="0.5"/><path d="M127.25768,253.23798c0.12033,0.16385 0.18982,0.46907 0.18982,0.66636c0.00175,0.05438 -0.05996,0.20912 -0.1246,0.29767c-0.01548,0.0212 -0.10677,-0.33885 -0.26987,-0.58693c-0.10003,-0.15214 -0.21533,-0.3148 -0.28141,-0.3995c-0.04829,-0.06189 -0.07393,-0.06038 -0.03011,-0.09081c0.05852,-0.04065 0.15561,-0.06629 0.24567,-0.05198c0.10972,0.01743 0.21279,0.08661 0.27049,0.16519z" data-paper-data="{&quot;noHover&quot;:false,&quot;origItem&quot;:[&quot;Path&quot;,{&quot;applyMatrix&quot;:true,&quot;segments&quot;:[[[723.23608,319.06042],[1.07562,-3.88598],[0,0]],[[723.24856,319.07956],[0,0],[1.21194,2.42778]],[[730.527,328.84956],[-2.40842,-0.9944],[1.6394,0.67688]],[[733.53132,325.17416],[0.04746,1.4713],[0,-2.33936]],[[732.13174,316.58186],[1.42686,1.94284],[-3.18056,-4.33076]]],&quot;closed&quot;:true,&quot;fillColor&quot;:[0,0,0,1]}]}" fill="#a8be04" stroke="none" stroke-width="0.5"/><path d="M144.63934,252.01336c0,13.69336 -10.57205,24.79402 -23.61335,24.79402c-13.04129,0 -23.61335,-11.10066 -23.61335,-24.79402c0,-13.69336 10.57205,-24.79402 23.61335,-24.79402c13.04129,0 23.61335,11.10066 23.61335,24.79402z" fill="url(#color-1)" stroke="#0b61a3" stroke-width="0"/><g><path d="M130.4017,251.21109c0,0.2336 -9.35447,0.31423 -13.76877,0.27494c-1.22623,-0.0109 -1.91983,-0.32466 -1.98951,-0.32568c-1.17168,-0.01699 -2.14853,0.84124 -2.86428,0.84988c-0.10826,0.00132 -0.20943,0.14831 -0.40125,-0.33897c-0.13799,-0.3505 -0.27618,-0.65873 -0.23434,-1.25323c0.01733,-0.24623 0.32231,-0.71274 0.26382,-0.98025c-0.09128,-0.41754 -0.79996,-0.85368 -1.04383,-1.28554c-0.21568,-0.38193 0.02786,-0.7605 -0.0066,-1.11992c-0.03776,-0.39388 0.36453,-0.65743 0.32866,-1.07886c-0.02941,-0.34571 -0.27399,-0.84545 -0.30211,-1.20409c-0.03612,-0.46065 -0.74597,-2.20539 -0.77387,-2.67785c-0.01191,-0.20187 1.34713,1.38366 1.33783,1.18153c-0.11146,-2.42312 -1.02526,-3.8203 -1.58083,-4.92842c-0.17751,-0.35404 -0.24334,-0.7349 -0.33239,-1.03705c-0.15459,-0.52449 0.29022,-1.95695 0.27774,-1.97859c-0.08421,-0.14597 0.0163,-0.38959 -0.02091,-0.53697c-0.11208,-0.4438 -0.23023,-0.76092 -0.43786,-0.89107c-0.39531,-0.24781 -0.52336,-0.55291 -0.52336,-0.99377c0,-0.34351 0.04065,-0.91523 0.29607,-1.15426c0.30175,-0.28237 1.0121,-0.38735 1.50461,-0.38735c0.21031,0 0.52195,0.14316 1.54124,0.58145c0.06277,0.027 0.38508,-0.0143 0.71611,-0.05702c0.35124,-0.04533 1.49294,-0.7753 1.56419,-0.74401c0.15497,0.06807 0.94037,-0.28537 1.10105,-0.21041c0.21397,0.09982 0.81196,0.121 1.05907,0.21037c0.31883,0.11529 0.66005,0.47891 1.01753,0.57935c0.24071,0.06764 2.64779,-0.78375 2.90138,-0.72411c0.8651,0.20341 1.09628,0.37343 1.84158,0.57625c0.38404,0.10451 2.2129,-0.6661 2.57895,-0.56313c0.49873,0.14032 1.06946,0.18741 2.17112,0.34054c0.36346,0.05052 1.23664,-0.34647 1.64667,-0.27939c0.29393,0.04809 1.33347,0.1416 1.62356,0.32159c0.02403,0.01492 0.47839,-0.11164 0.65425,-0.24578c0.20944,-0.15977 1.07648,-0.2205 1.34543,-0.17569c0.33361,0.05557 0.64786,0.74185 0.78112,1.05602c0.22894,0.53979 -0.18018,1.59551 -0.38544,2.20696c-0.09309,0.27734 -0.05707,0.46328 -0.05336,0.46821c0.06518,0.08701 0.28575,1.17482 0.05247,1.13667c-0.20798,-0.03401 0.09826,-1.16597 -0.03282,-0.27529c-0.03683,0.25033 0.09223,0.74996 -0.01459,1.10351c-0.19983,0.66136 -0.67637,1.26881 -0.7463,1.99536c-0.08414,0.87417 -0.29018,2.08392 -0.21602,3.0346c0.0547,0.7013 -0.28923,0.70386 -0.32184,1.4381c-0.01788,0.40232 -0.21223,0.74252 -0.23504,1.14022c-0.01842,0.32134 -0.01662,0.96395 -0.03594,1.28103c-0.0111,0.18193 0.24623,0.41018 0.23798,0.58959c-0.01261,0.27446 0.27693,0.86786 0.26769,1.13401c-0.00317,0.09122 0.07042,0.30213 0.05785,0.38651c-0.05686,0.3818 -0.27167,0.5812 -0.29246,0.94744c-0.02981,0.52505 -0.37144,0.89313 -0.37553,1.30702c-0.00542,0.54929 0.04305,0.75978 0.30793,0.99881c0.36081,0.3256 0.28616,0.57279 0.28616,0.58765z" fill="#fffd4d" stroke="none" stroke-width="NaN"/><path d="M123.86031,249.54207c-0.1115,0.00841 -0.11971,-0.10551 -0.11971,-0.10551l-0.0085,-0.11784c-0.02325,-0.32224 -0.05707,-0.61384 -0.20829,-0.90258c-0.35119,-0.85772 -0.68132,-1.93935 -1.52784,-2.42815c-0.62884,-0.4316 -1.71079,-0.33622 -2.45496,-0.27933c-0.02525,0.01378 -0.04986,0.01564 -0.04986,0.01564l-0.01384,0.00065c-0.58017,0.09078 -0.94302,0.47831 -1.17358,0.98953c-0.37485,0.82393 -0.47564,1.73624 -0.80979,2.56832c0,0 -0.04251,0.10564 -0.14591,0.06221c-0.1034,-0.04343 -0.06088,-0.14907 -0.06088,-0.14907c0.33652,-0.83428 0.43977,-1.74915 0.81368,-2.57743c0.26216,-0.57557 0.67731,-1.00047 1.31791,-1.11512c0.02699,-0.01658 0.05514,-0.0187 0.05514,-0.0187c0.79845,-0.06011 1.94761,-0.15808 2.63916,0.30867c0.88607,0.51163 1.24584,1.62411 1.61276,2.52475c0.16454,0.31337 0.2041,0.63423 0.22931,0.98383l0.0085,0.11784c0,0 0.00822,0.11391 -0.10328,0.12229z" fill="#000000" stroke="none" stroke-width="0.5"/><path d="M121.22668,245.73525c0,1.92738 0.20424,3.44085 -0.02351,4.30503c-0.11867,0.45028 -0.46836,0.78117 -0.78266,0.78117c-0.91751,0 -0.62127,-1.71054 -0.62127,-4.64218c0,-0.07554 0.00061,-0.95016 0.00183,-1.02536c0.04602,-2.84336 -0.18711,-5.34046 0.70676,-5.34046c0.14544,0 0.32138,-0.08098 0.41597,0.05714c0.50209,0.73323 0.30288,3.39773 0.30288,5.86466z" fill="#fff649" stroke="none" stroke-width="0"/><path d="M119.84824,247.78222c0.00557,0.00318 0.01095,0.00656 0.01617,0.01014c-0.04756,0.13741 -0.00382,0.36047 -0.01371,0.51951c-0.0007,0.00775 -0.00133,0.01559 -0.00192,0.02352c-0.02806,0.27372 -0.13543,0.70279 -0.05076,1.03237c0.02224,0.08654 0.07618,0.11769 0.13642,0.11457c0.00862,0.21277 0.01477,0.4359 0.00035,0.62318c-0.00395,0.05137 -0.02928,0.09757 -0.09757,0.09757c-0.13025,0 -0.14111,-0.50702 -0.1132,-1.23349c0.00606,-0.15779 -0.0199,-1.10502 0.04016,-1.13935z" fill="#000000" stroke="none" stroke-width="0.5"/><path d="M119.72167,248.26779c0.00997,-0.11423 0.02194,-0.4286 0.01683,-0.54726c-0.00337,-0.07865 0.01242,-0.0809 0.0233,-0.09599c0.04781,-0.06627 0.18291,-0.03 0.18295,0.06551c0.0002,0.63333 -0.05944,1.26981 0.00356,1.89997c0.0004,0.00361 0.00061,0.00729 0.00061,0.01102c0,0.00996 -0.0015,0.01958 -0.00428,0.02864c-0.10054,0.66714 -0.17599,0.55285 -0.2084,0.1844c-0.02123,-0.24139 -0.01444,-0.59186 -0.01743,-0.90315c-0.00287,-0.29843 -0.00652,-0.53578 0.00285,-0.64312z" fill="#000000" stroke="none" stroke-width="0.5"/><path d="M121.21951,249.24486c-0.09757,0 -0.09757,-0.09758 -0.09757,-0.09758v-0.01394c0,-0.36663 -0.02788,-0.73277 -0.02788,-1.10121c0,-0.7016 0,-1.40321 0,-2.10481c0,0 0,-0.00925 0.00285,-0.02204v-0.07446c0,-0.89611 -0.00084,-1.79222 0.00012,-2.68833c-0.10092,-0.99627 0.03455,-2.1373 -0.15637,-3.13392c-0.79055,-0.68982 -0.98941,0.51511 -1.02102,1.12759c0.03057,0.03221 0.02523,0.08017 0.02523,0.08017c-0.10231,0.91705 -0.02868,1.87717 -0.02868,2.79951c0,1.00491 0.02924,2.01343 0.02927,3.0152c0,0.21974 0,0.43948 0,0.6592c-0.16298,0.08675 -0.08161,0.41056 -0.09476,0.62161c-0.0007,0.00775 -0.00133,0.01559 -0.00192,0.02352c-0.02806,0.27372 -0.13543,0.70279 -0.05076,1.03237c0.01137,0.04429 0.03105,0.07406 0.05563,0.09216c0.01301,0.10304 0.02916,0.19515 0.04751,0.27059c0.00061,0.04525 0.00264,0.08949 0.00635,0.13235c-0.01403,0.01038 -0.03327,0.0175 -0.0596,0.0175c-0.09757,0 -0.09757,-0.09758 -0.09757,-0.09758c0,-0.62682 0,-1.31331 0,-1.97427c0,-0.26509 0,-0.52607 0,-0.77745c0.00003,-1.00176 -0.02927,-2.01031 -0.02927,-3.0152c0,-0.8876 -0.066,-1.80844 0.01696,-2.69449c-0.01696,-0.02686 -0.01696,-0.05724 -0.01696,-0.05724c0,-0.79966 0.47709,-2.14756 1.47356,-1.30104c0.04271,1.05286 -0.00641,2.11998 0.09733,3.1697c0.00088,0.89935 0.00012,1.7987 0.00012,2.69806v0.08783c0,0 0,0.00925 -0.00285,0.02204c0,0.69716 0,1.3943 0,2.09146c0,0.36848 0.02788,0.73447 0.02788,1.10121v0.01394c0,0 0,0.09757 -0.09758,0.09757z" fill="#000000" stroke="none" stroke-width="0.5"/><path d="M109.08975,234.49548c-0.09525,0.02115 -0.11641,-0.07407 -0.11641,-0.07407l-0.01688,-0.0776c-0.03465,-0.34431 -0.41262,-0.51188 -0.57345,-0.78872c-0.23744,-0.40874 -0.05171,-0.92256 -0.05116,-1.37519c0.1269,-1.08003 1.1496,-1.00099 1.95693,-0.87491c0.64231,0.19602 1.40077,0.61551 2.08324,0.40241c0,0 0.01999,-0.00615 0.04432,-0.00351l0.02228,-0.0119c0.21465,-0.06573 0.41866,-0.17291 0.60732,-0.29358c0.85671,-0.35776 1.6854,-0.83768 2.66413,-0.51201c0.31344,0.07924 0.69038,0.36508 1.13262,0.51591c0.38142,0.13008 0.85427,0.13117 0.87054,0.15027c0.17334,-0.00306 0.30692,-0.06841 0.46288,-0.14612c0.9339,-0.33428 1.59359,-0.65443 2.58371,-0.32517c0.758,0.31528 1.29693,0.36977 2.07853,0.12907c0,0 0.0393,-0.01209 0.07472,0.00494c0.71016,-0.13511 1.10105,-0.34243 1.84343,-0.34085c0.41907,0.05926 1.05336,0.2341 1.4931,0.321c0.22095,0.04367 0.46247,0.03902 0.46247,0.03902c0.31632,-0.00444 1.06158,-0.35124 1.36034,-0.3592c0.40485,-0.01077 0.48271,0.06817 0.84448,0.15152c0.39086,0.12487 0.75124,0.24486 1.1454,0.24598c0.01381,-0.01365 0.02747,-0.02049 0.02747,-0.02049c0.65442,-0.3268 1.44345,-0.64099 2.11509,-0.19476c0.68294,0.43965 0.93291,1.49355 0.58093,2.19751c-0.14575,0.2913 -0.59478,0.93558 -0.57246,1.29299c0.02854,0.01398 0.04446,0.03988 0.04446,0.03988c0.13803,0.22871 0.19918,0.50134 0.20958,0.78638c0.00727,0.01777 0.01115,0.04055 0.0015,0.06499c0.00482,0.48061 -0.12729,0.98935 -0.27307,1.37783c-0.1098,0.25262 -0.20003,0.51618 -0.28364,0.78074c0.00636,0.0042 -0.07902,0.2551 -0.08439,0.27273c-0.13213,0.5894 -0.41156,1.15396 -0.49607,1.74929c-0.05268,0.37106 0.00196,0.79219 0.00021,1.16637c0.18187,0.71535 -0.19371,0.282 -0.07836,1.2861c0.006,0.05213 -0.24365,0.66625 -0.21061,0.71469c0,0 0.06008,0.55953 -0.02111,0.61365c-0.08118,0.05412 -0.07105,0.07289 -0.07105,0.07289c-0.12255,-0.18727 0.10383,-1.28004 0.1156,-1.35422c0.03513,-0.2213 0.22964,-0.33237 0.21876,-0.4641c-0.02448,-0.2962 -0.06047,-0.49403 -0.14691,-0.84518c-0.0042,-1.02798 0.16843,-1.8711 0.45527,-2.82668l0.00262,-0.02219c0.12633,-0.40771 0.24814,-0.825 0.41877,-1.21728c0.13385,-0.35719 0.26967,-0.85557 0.26398,-1.31582l-0.01662,-0.02924c-0.02085,-0.28186 -0.20457,-0.51772 -0.23793,-0.78592c-0.05299,-0.42621 0.40403,-1.07923 0.58688,-1.44516c0.30586,-0.61174 0.09161,-1.56741 -0.51291,-1.94673c-0.59224,-0.3963 -1.3035,-0.10114 -1.88376,0.18706c-0.02139,0.04223 -0.07284,0.05081 -0.07284,0.05081l-0.06225,0.00904c-0.40969,0 -0.94687,-0.23532 -1.35314,-0.26433c-0.32477,-0.07506 -0.77437,-0.09787 -1.17525,0.00103c-0.22841,0.05635 -0.64712,0.25043 -0.64712,0.25043c-0.62069,0.1412 -1.46646,-0.28565 -2.16126,-0.386c-0.75396,0.00183 -1.14708,0.21302 -1.87548,0.35347c0,0 -0.02329,0.00443 -0.0491,-0.00255c-0.78055,0.22545 -1.35682,0.16542 -2.12673,-0.15599c-0.93671,-0.31295 -1.55504,0.00704 -2.4387,0.32189c-0.18464,0.09265 -0.34585,0.16134 -0.55441,0.16189l-0.06773,-0.00869c0,0 -0.01756,-0.00251 -0.03665,-0.01288c-0.65522,0.09031 -1.31943,-0.49968 -1.93843,-0.65249c-0.92117,-0.30761 -1.71323,0.16251 -2.51895,0.49745c-0.19806,0.12801 -0.71777,0.3541 -0.75999,0.33762c-0.71303,0.18693 -1.46271,-0.206 -2.13144,-0.41367c-0.67533,-0.10205 -1.60942,-0.22943 -1.71847,0.69612c0.00055,0.41528 -0.18917,0.89106 0.0258,1.26699c0.18242,0.31902 0.53587,0.46265 0.59743,0.85972l0.01394,0.06107c0,0 0.02118,0.09525 -0.07407,0.11641z" fill="#9e9215" stroke="none" stroke-width="0.5"/><path d="M111.34466,249.32261c-0.09525,0.02115 -0.11641,-0.07407 -0.11641,-0.07407l-0.01625,-0.07902c-0.195,-0.48773 -0.73883,-0.59867 -0.95108,-1.10751c-0.33555,-0.83968 0.44785,-1.33436 0.2516,-2.11731c0,0 -0.00268,-0.00871 -0.00171,-0.07387c0.00027,-0.01833 -0.0149,-0.04898 -0.01046,-0.07558c-0.0756,-0.5428 -0.70036,-2.9516 -0.92605,-3.40956c-0.01053,-0.04462 -0.04897,-0.4238 -0.06203,-0.49387c-0.02093,-0.11229 -0.09313,0.09841 -0.04407,0.03067c0.11686,-0.16139 0.65746,1.54387 0.83226,1.51479c0.52435,-0.08721 1.01633,-0.15158 1.52406,-0.30241c-0.06008,-0.3949 -0.56894,-0.62739 -0.87037,-0.86211c-0.01078,-0.00544 -0.01921,-0.01262 -0.02582,-0.02054c-0.004,-0.00324 -0.00795,-0.00651 -0.01186,-0.00976c0,0 -0.07496,-0.06246 -0.01249,-0.13743c0.00016,-0.00021 0.00034,-0.0004 0.00051,-0.00061c0.00059,-0.56396 0.02707,-1.10506 0.12326,-1.6602c-0.01084,-0.02796 -0.00658,-0.05557 -0.00658,-0.05557l0.01456,-0.09274c-0.00092,-0.30132 0.13325,-0.6742 -0.21791,-0.75266c-1.051,-0.24811 -1.41221,-0.67161 -1.79676,-1.60126c-0.01492,-0.01712 -0.02126,-0.03487 -0.02126,-0.03487c-0.26793,-0.75613 -0.04335,-1.49494 0.18278,-2.23128c0.13636,-0.5431 -0.02751,-0.89552 -0.22824,-1.37628c-0.01551,-0.02 -0.0483,-0.07505 0.00675,-0.13009c0.06899,-0.069 0.13799,0 0.13799,0l0.02878,0.03915c0.22044,0.52907 0.38989,0.92872 0.24272,1.51959c-0.2046,0.66363 -0.4245,1.34392 -0.21602,2.02597c0.00315,0.00567 0.00466,0.00941 0.00466,0.00941c0.37934,0.94871 0.67332,1.34808 1.70359,1.58975c0.48851,0.12199 0.36862,0.54475 0.36753,0.95744l-0.00166,0.01099c0.01415,0.03086 0.00799,0.06375 0.00799,0.06375c-0.10952,0.58312 -0.13698,1.14721 -0.13698,1.73832v0.01542c0.34785,0.26967 0.8447,0.50682 0.91711,0.96179c0.04268,0.04838 0.02047,0.09575 0.00494,0.11821c-0.00555,0.02754 -0.02443,0.0748 -0.08858,0.07786l-0.01679,0.0139c-0.46848,0.1425 -0.9084,0.2121 -1.39187,0.28842c-0.13283,0.02098 -0.79795,-1.69263 -0.88932,-1.5759c-0.03717,0.0475 0.02684,0.26184 0.03915,0.317c0.26613,0.52252 1.00529,2.99347 1.00684,3.58097c0,0 0.01282,0.04564 0.00705,0.12108c0.06851,0.70299 -0.54648,1.19676 -0.24661,1.94564c0.2091,0.50245 0.7499,0.60476 0.9516,1.1088l0.02557,0.10915c0,0 0.02118,0.09525 -0.07407,0.11641z" fill="#9e9215" stroke="none" stroke-width="0.5"/><path d="M117.09251,233.30544c-0.09757,0 -0.09757,-0.09757 -0.09757,-0.09757v-0.09758c0,-0.14808 -0.03125,-0.2754 -0.03253,-0.42284c0.00418,-0.67507 -1.10614,-0.55964 -1.38254,-0.14104c0,0 -0.05412,0.08118 -0.1353,0.02706c-0.08118,-0.05412 -0.02706,-0.1353 -0.02706,-0.1353c0.38129,-0.56732 1.73547,-0.63672 1.74005,0.24928c-0.00158,0.14404 0.03253,0.2758 0.03253,0.42284v0.09758c0,0 0,0.09757 -0.09757,0.09757z" fill="#000000" stroke="none" stroke-width="0.5"/><path d="M124.26817,233.45563c-0.09757,0 -0.09758,-0.09757 -0.09758,-0.09757l0.00133,-0.0165c-0.03819,-0.23366 -0.00211,-0.46412 -0.00007,-0.69843c0.24424,-0.74796 1.48749,-0.63612 1.91258,-0.11037c0,0 0.06095,0.07618 -0.01523,0.13714c-0.07619,0.06095 -0.13714,-0.01523 -0.13714,-0.01523c-0.30772,-0.38974 -1.37067,-0.55172 -1.56759,0.01973c0.00219,0.21257 -0.0362,0.42301 -0.00007,0.6351l0.00133,0.04857c0,0 0,0.09757 -0.09757,0.09757z" fill="#000000" stroke="none" stroke-width="0.5"/><path d="M120.40772,240.29782c0,3.25029 -2.47405,5.88516 -5.52597,5.88516c-3.0519,0 -5.52597,-2.63488 -5.52597,-5.88516c0,-3.25029 2.47406,-5.88515 5.52597,-5.88515c3.0519,0 5.52597,2.63488 5.52597,5.88516z" fill="#fbfdfa" stroke="#000000" stroke-width="0"/><path d="M113.59092,246.93391c-0.01483,-0.00071 -0.02516,-0.00381 -0.02516,-0.00381c-0.36721,-0.11474 -0.89226,0.43159 -0.56814,0.75121c0.13835,0.13642 0.38769,0.27493 0.55053,0.1304c0.2682,-0.15771 0.19841,-0.6182 0.06086,-0.85732zM113.63288,246.74756c0.05013,-0.00651 0.08612,0.03667 0.08612,0.03667l0.06058,0.07538c0.18063,0.33364 0.24216,0.89121 -0.12004,1.11231c-0.25172,0.18763 -0.61803,0.06375 -0.81616,-0.17107c-0.42402,-0.50254 0.24188,-1.21355 0.77846,-1.05764c0,0 0.00442,0.00133 0.01104,0.00436z" fill="#fffc51" stroke="none" stroke-width="0.5"/><path d="M113.61444,246.94628c0.13755,0.23914 0.20668,0.71622 -0.06154,0.87393c-0.16281,0.14454 -0.42417,0.00407 -0.56251,-0.13233c-0.32411,-0.31962 0.21281,-0.88108 0.58001,-0.76634c0,0 0.01071,0.00332 0.02554,0.00402z" data-paper-data="{&quot;noHover&quot;:false,&quot;origItem&quot;:[&quot;Path&quot;,{&quot;applyMatrix&quot;:true,&quot;segments&quot;:[[[576.38862,314.41816],[0,0],[-0.152,-0.00718]],[[576.13068,314.37918],[0,0],[-3.76354,-1.17598]],[[570.3078,322.07832],[-3.32192,-3.2757],[1.41786,1.39814]],[[575.95014,323.41476],[-1.66872,1.48136],[2.74878,-1.61636]],[[576.57382,314.62794],[1.40976,2.45092],[0,0]]],&quot;closed&quot;:true,&quot;fillColor&quot;:[0,0,0,1]}]}" fill="#a8be04" stroke="none" stroke-width="0.5"/><path d="M111.1083,232.74004c-0.00039,0.00012 -0.00061,0.00016 -0.00061,0.00016c-0.48758,0.10747 -0.81538,1.18774 -0.42416,1.54057c0.10318,0.09304 0.36427,0.07601 0.49512,0.08091c0.50533,-0.31567 0.56016,-1.46393 -0.07003,-1.62148zM111.00053,232.57076c0.04469,-0.07785 0.12714,-0.03662 0.12714,-0.03662l0.02829,0.01676c0.84134,0.21033 0.7421,1.60683 0.07478,1.99886c-0.1911,0.00461 -0.5037,0.02086 -0.66339,-0.11217c-0.53424,-0.4451 -0.15157,-1.63734 0.43315,-1.8668z" fill="#fffc51" stroke="none" stroke-width="0.5"/><path d="M111.10947,232.73047c0.63018,0.15755 0.57619,1.32517 0.07085,1.64082c-0.13085,-0.0049 -0.39788,0.01128 -0.50106,-0.08177c-0.39123,-0.35283 -0.05833,-1.45158 0.42924,-1.55906c0,0 0.00022,-0.00004 0.00061,-0.00016z" data-paper-data="{&quot;noHover&quot;:false,&quot;origItem&quot;:[&quot;Path&quot;,{&quot;applyMatrix&quot;:true,&quot;segments&quot;:[[[550.94398,168.94384],[0,0],[-0.004,0.00112]],[[550.93786,168.94548],[0,0],[-4.99722,1.10148]],[[546.59068,184.73494],[-4.0097,-3.61618],[1.0574,0.95362]],[[551.66524,185.56418],[-1.34108,-0.05018],[5.17926,-3.23526]],[[550.94754,168.94548],[6.4589,1.61474],[0,0]]],&quot;closed&quot;:true,&quot;fillColor&quot;:[0,0,0,1]}]}" fill="#a8be04" stroke="none" stroke-width="0.5"/><path d="M129.83838,232.33485c-0.00866,0.00137 -0.01436,0.00137 -0.01436,0.00137c-0.86986,-0.00585 -0.00351,1.37073 0.4941,0.66137c0.12453,-0.38285 -0.15024,-0.42462 -0.38416,-0.59731l-0.05105,-0.0231c0,0 -0.02823,-0.0141 -0.04455,-0.04234zM129.91201,232.19216c0.03135,-0.00293 0.0582,0.01049 0.0582,0.01049l0.08568,0.04526c0.28751,0.26565 0.61431,0.31187 0.43615,0.83823c-0.76356,1.05713 -1.91921,-0.93801 -0.668,-0.94506c0,0 0.06338,0 0.08797,0.05108z" fill="#fffc51" stroke="none" stroke-width="0.5"/><path d="M129.78024,232.33962c0.01768,0.03058 0.04929,0.04578 0.04929,0.04578l0.05673,0.02506c0.25341,0.18709 0.5594,0.24795 0.4245,0.66271c-0.53908,0.76847 -1.48873,-0.73833 -0.54639,-0.732c0,0 0.00651,-0.00005 0.01589,-0.00155z" data-paper-data="{&quot;noHover&quot;:false,&quot;origItem&quot;:[&quot;Path&quot;,{&quot;applyMatrix&quot;:true,&quot;segments&quot;:[[[742.91028,164.79096],[0,0],[-0.08866,0.01412]],[[742.76318,164.80508],[0,0],[-8.91526,-0.05994]],[[747.82732,171.58358],[-5.10008,7.27028],[1.27638,-3.92392]],[[743.89002,165.46172],[2.39748,1.76998],[0,0]],[743.36688,165.22496],[[742.91026,164.79094],[0.16726,0.28934],[0,0]]],&quot;closed&quot;:true,&quot;fillColor&quot;:[0,0,0,1]}]}" fill="#a8be04" stroke="none" stroke-width="0.5"/><path d="M127.74075,247.30187c0.16563,-0.50957 0.81164,-0.8142 1.20429,-0.27094c0.16463,0.22778 0.17339,0.68043 0.17339,0.95244c-0.0055,0.26492 -0.25119,0.68695 -0.56783,0.5368c-0.29368,-0.13928 -0.65918,-0.75271 -0.80513,-1.04417l-0.02836,-0.04118c0,0 -0.05257,-0.07886 0.02365,-0.13295zM127.91878,247.38686l0.00121,0.00187c0.11825,0.23688 0.47516,0.85623 0.71016,0.95326c0.15995,0.06605 0.29777,-0.21505 0.29313,-0.35861c0,-0.22824 0.00266,-0.64879 -0.13656,-0.83835c-0.31033,-0.42255 -0.763,-0.13733 -0.86795,0.24184z" fill="#fffc51" stroke="none" stroke-width="0.5"/><path d="M128.7925,247.13716c0.13921,0.18956 0.13886,0.62343 0.13886,0.85169c0.00462,0.14355 -0.13846,0.42852 -0.29841,0.36249c-0.23499,-0.09702 -0.6034,-0.73015 -0.72166,-0.96702l-0.0012,-0.00188c0.10494,-0.37914 0.57208,-0.6678 0.8824,-0.24525z" data-paper-data="{&quot;noHover&quot;:false,&quot;origItem&quot;:[&quot;Path&quot;,{&quot;applyMatrix&quot;:true,&quot;segments&quot;:[[[723.23608,319.06042],[1.07562,-3.88598],[0,0]],[[723.24856,319.07956],[0,0],[1.21194,2.42778]],[[730.527,328.84956],[-2.40842,-0.9944],[1.6394,0.67688]],[[733.53132,325.17416],[0.04746,1.4713],[0,-2.33936]],[[732.13174,316.58186],[1.42686,1.94284],[-3.18056,-4.33076]]],&quot;closed&quot;:true,&quot;fillColor&quot;:[0,0,0,1]}]}" fill="#a8be04" stroke="none" stroke-width="0.5"/><path d="M127.0836,248.44246c-0.02858,0.03453 -0.07739,0.03454 -0.07739,0.03454c-0.33851,-0.00118 -0.71337,0.50586 -0.54696,0.84659c0.13256,0.2714 0.41165,0.38903 0.69077,0.4221c0.34086,0.05107 0.38222,-1.22428 0.01484,-1.30406zM126.99769,248.28194c0.02858,-0.03454 0.07739,-0.03454 0.07739,-0.03454l0.11685,0.00095c0.56116,0.17824 0.61572,1.6539 -0.05404,1.69208c-0.34866,-0.0453 -0.70233,-0.19594 -0.85895,-0.54218c-0.21249,-0.46979 0.24452,-1.10735 0.71873,-1.1163z" fill="#9966ff" stroke="none" stroke-width="0.5"/><path d="M131.43251,240.09568c0,3.25029 -2.47406,5.88516 -5.52597,5.88516c-3.0519,0 -5.52597,-2.63488 -5.52597,-5.88516c0,-3.25029 2.47406,-5.88516 5.52597,-5.88516c3.0519,0 5.52597,2.63488 5.52597,5.88516z" fill="#fbfdfa" stroke="#000000" stroke-width="0"/><path d="M119.50588,240.06816c0,2.61718 -2.09706,4.73881 -4.68393,4.73881c-2.58687,0 -4.68393,-2.12165 -4.68393,-4.73881c0,-2.61718 2.09706,-4.73881 4.68393,-4.73881c2.58687,0 4.68393,2.12165 4.68393,4.73881z" fill="#3da9e8" stroke="#000000" stroke-width="0"/><path d="M130.34073,239.95221c0,2.564 -2.03153,4.64253 -4.53755,4.64253c-2.50601,0 -4.53755,-2.07853 -4.53755,-4.64253c0,-2.564 2.03153,-4.64253 4.53755,-4.64253c2.50601,0 4.53755,2.07853 4.53755,4.64253z" fill="#3da9e8" stroke="#000000" stroke-width="0"/><path d="M117.93968,239.94741c0,1.69763 -1.34343,3.07383 -3.00064,3.07383c-1.65721,0 -3.00064,-1.37619 -3.00064,-3.07383c0,-1.69763 1.34343,-3.07383 3.00064,-3.07383c1.65721,0 3.00064,1.3762 3.00064,3.07383z" fill="#000000" stroke="#000000" stroke-width="0"/><path d="M129.07867,239.73516c0,1.79866 -1.3844,3.25679 -3.09212,3.25679c-1.70774,0 -3.09212,-1.45811 -3.09212,-3.25679c0,-1.79866 1.3844,-3.25679 3.09212,-3.25679c1.70774,0 3.09212,1.45811 3.09212,3.25679z" fill="#000000" stroke="#000000" stroke-width="0"/><path d="M127.62198,245.90423c-0.00018,0.00009 -0.00037,0.00018 -0.00057,0.00027l-0.00027,0.04171c0.15778,0.60949 0.55962,1.11445 0.90775,1.63185c0.48215,0.68964 0.5706,2.01432 0.06208,2.71183c-0.66049,0.82326 -1.81632,0.58308 -2.68808,0.14312c-0.56335,-0.44856 -0.71252,-0.98096 -0.47464,-1.68117c0.11049,-0.32522 0.36352,-0.58789 0.4412,-0.93302c0.4328,-0.45024 0.96789,-1.06702 1.0418,-1.6927c-0.00767,-0.01224 -0.01097,-0.02213 -0.01097,-0.02213c-0.16875,-0.5229 0.25255,-0.58822 0.67232,-0.45276l0.09301,0.12211c0,0 0.04364,0.08726 -0.04364,0.13091zM127.11502,245.98228c0,0.69594 -0.56823,1.44643 -1.07351,1.92861c-0.05655,0.33637 -0.32606,0.58901 -0.42769,0.90128c-0.20176,0.62005 -0.10316,1.05621 0.39424,1.45646c0.78196,0.3862 1.83858,0.64134 2.42864,-0.09825c0.46734,-0.59879 0.36424,-1.89119 -0.06821,-2.48113c-0.36578,-0.54416 -0.78424,-1.07394 -0.94106,-1.71917l-0.00074,-0.1326c0,0 0,-0.01195 0.00419,-0.02749c-0.21445,-0.06632 -0.37518,-0.07585 -0.37661,0.08038c0.06071,0.02081 0.06071,0.09193 0.06071,0.09193z" fill="#6af2e7" stroke="none" stroke-width="0.5"/><path d="M127.14411,245.99632c0,0 -0.00039,-0.09227 -0.0622,-0.11344c0.00145,-0.15906 0.16665,-0.14929 0.38499,-0.08177c-0.00427,0.01581 -0.00427,0.02799 -0.00427,0.02799l0.00082,0.13501c0.15965,0.65689 0.59352,1.20227 0.96591,1.75625c0.44026,0.60062 0.54154,1.92843 0.06576,2.53802c-0.60074,0.75294 -1.68667,0.49365 -2.48275,0.10048c-0.50639,-0.40748 -0.61124,-0.85653 -0.40583,-1.48778c0.10345,-0.31792 0.37747,-0.5814 0.43503,-0.92385c0.5144,-0.49088 1.10242,-1.26227 1.10242,-1.97079z" data-paper-data="{&quot;noHover&quot;:false,&quot;origItem&quot;:[&quot;Path&quot;,{&quot;applyMatrix&quot;:true,&quot;segments&quot;:[[[357.49913,152.33234],[0,0],[0,3.56641]],[[351.99789,162.2156],[2.58932,-2.4709],[-0.2898,1.72374]],[[349.80623,166.83427],[0.52072,-1.60029],[-1.03391,3.17747]],[[351.82653,174.29792],[-2.54897,-2.05105],[4.00718,1.97911]],[[364.27226,173.79446],[-3.02391,3.79001],[2.39488,-3.06853]],[[363.92273,161.07974],[2.21608,3.02327],[-1.8745,-2.78859]],[[359.10024,152.26975],[0.80362,3.30652],[0,0]],[359.09649,151.59024],[[359.11793,151.44935],[-0.02144,0.07963],[-1.09895,-0.3399]],[[357.18798,151.8613],[0.00735,-0.80065],[0.31114,0.1066]],[357.49913,152.33235]],&quot;closed&quot;:true,&quot;fillColor&quot;:[0,0,0,1]}]}" fill="#b5f2ed" stroke="none" stroke-width="0.5"/><path d="M124.53873,245.06484c0.64241,0.01257 1.43317,-0.19582 2.04718,-0.30772c0.82251,-0.11757 1.67775,-0.17826 2.50736,-0.16831c0.40096,0.15247 0.38254,0.58842 0.13654,0.86973c-0.41394,0.47334 -0.97131,0.7275 -1.58317,0.82167c-1.04681,0.19003 -2.01141,0.1121 -2.9332,-0.40393c-0.24514,-0.17238 -0.47962,-0.37545 -0.42024,-0.68038c-0.0053,-0.01295 -0.00801,-0.02885 -0.00651,-0.04835c0.00749,-0.09729 0.10476,-0.08981 0.10476,-0.08981c0.01423,0.00112 0.02856,0.00213 0.04298,0.00299l0.00039,-0.00024c0,0 0.05743,-0.03134 0.10389,0.00435zM124.46651,245.25739l-0.00597,0.00248c-0.02699,0.1838 0.22681,0.36072 0.35683,0.45121c0.87476,0.49428 1.80217,0.55783 2.79699,0.37665c0.49627,-0.07633 1.0145,-0.26116 1.36328,-0.64363c0.13109,-0.14376 0.44759,-0.54463 0.0818,-0.66311c-0.81306,0.01344 -1.63512,0.05352 -2.44223,0.16875c-0.64978,0.11786 -1.48184,0.3339 -2.15068,0.30766z" fill="#6af2e7" stroke="none" stroke-width="0.5"/><path d="M126.61334,244.94076c0.80711,-0.11524 1.64232,-0.14928 2.45538,-0.16272c0.3658,0.11849 0.04975,0.52212 -0.08135,0.66589c-0.34878,0.38249 -0.86909,0.57353 -1.36536,0.64985c-0.99482,0.18118 -1.93957,0.11268 -2.81434,-0.38159c-0.13001,-0.09049 -0.38382,-0.26942 -0.35686,-0.45321l0.00597,-0.00249c0.66883,0.02622 1.50677,-0.19785 2.15656,-0.31572z" data-paper-data="{&quot;noHover&quot;:false,&quot;origItem&quot;:[&quot;Path&quot;,{&quot;applyMatrix&quot;:true,&quot;segments&quot;:[[[343.92669,148.61766],[3.42749,0.13441],[0,0]],[[343.89611,148.63033],[0,0],[-0.13824,0.94189]],[[345.7247,150.94262],[-0.66629,-0.46375],[4.48278,2.53292]],[[360.05797,152.87278],[-5.09799,0.92845],[2.54315,-0.39112]],[[367.04413,149.57442],[-1.78731,1.96008],[0.67178,-0.73672]],[[367.46328,146.17626],[1.87453,0.6072],[-4.16656,0.06888]],[[354.94792,147.04105],[4.13609,-0.5905],[-3.32984,0.60403]]],&quot;closed&quot;:true,&quot;fillColor&quot;:[0,0,0,1]}]}" fill="#b5f2ed" stroke="none" stroke-width="0.5"/><path d="M126.43976,250.22843c-0.00778,-0.00439 -0.01252,-0.00933 -0.01252,-0.00933l-0.05104,-0.05604c-0.0149,-0.0705 -0.20974,-0.59507 0.06378,-0.52705c0.09919,0.02468 0.29111,0.36563 0.40919,0.43852c0.45649,0.28589 0.85258,-0.1544 1.0794,-0.51239c0.23218,-0.22593 0.59617,-0.22666 0.4744,0.18237c-0.08405,0.28228 -0.34002,0.37972 -0.53946,0.57081c-0.48017,0.30015 -1.00381,0.35307 -1.41489,-0.07402c0,0 -0.00474,-0.00493 -0.00884,-0.01288z" fill="#ffffff" stroke="none" stroke-width="0.5"/><path d="M130.66618,244.59706c-0.02738,-0.25527 0.22782,-1.48139 0.22782,-1.7089c0,0 0,-0.09757 0.09757,-0.09757c0.03815,0 0.03143,0.0319 0.03515,0.06204c0.0058,0.04693 0.0065,0.09978 0.0065,0.09978c0.02833,0.44146 -0.10633,1.6979 -0.18789,2.04396c-0.02064,0.08761 -0.04741,0.36873 -0.00545,0.61997c0.05754,0.34451 0.19886,0.67829 0.2473,0.79511c0.10417,0.25118 0.13167,0.30885 0.18267,0.55182c0.01921,0.09154 0.09846,0.2589 0.10989,0.47793c0.0085,0.16284 -0.04631,0.39847 -0.05407,0.41778c-0.24122,0.60066 -0.47035,1.08297 -0.55947,1.75017c-0.05822,0.30963 -0.15817,0.75309 -0.0038,1.04316c0.05316,0.09988 0.12452,0.16923 0.19275,0.2438c0.12475,0.1363 0.23909,0.268 0.21286,0.47954c-0.004,0.03227 -0.01128,0.06663 -0.02228,0.10342c0,0 0.02776,0.10267 -0.06551,0.07397c-0.09326,-0.02869 -0.09279,-0.12195 -0.09279,-0.12195c0.09479,-0.29758 -0.20771,-0.43764 -0.33851,-0.67342c-0.18046,-0.32522 -0.14113,-0.82802 -0.07542,-1.17942c0.09712,-0.72979 0.34183,-1.30898 0.60949,-1.97834l0.00217,-0.07659c0,-0.15718 -0.07087,-0.3801 -0.1642,-0.63274c-0.13626,-0.36888 -0.32041,-0.80108 -0.40167,-1.18444c-0.11339,-0.53486 0.06274,-0.96111 0.04686,-1.10909z" fill="#9e9215" stroke="none" stroke-width="0.5"/><path d="M113.90988,249.60708c0.00009,-0.00187 0.0003,-0.00495 0.00082,-0.00885c0.00878,-0.19114 0.07663,-0.6318 -0.1046,-0.73668c-0.39689,-0.22972 -0.94039,0.25644 -1.10293,0.56691c-0.16048,0.33875 -0.30627,0.7705 -0.21678,1.15289c0.11576,0.49467 0.73493,0.37973 0.956,0.08484c0.23436,-0.32734 0.33368,-0.68219 0.46747,-1.05909zM114.08782,249.68911c-0.13783,0.38934 -0.24573,0.75234 -0.48797,1.09233c-0.31987,0.42629 -1.14099,0.49897 -1.30321,-0.15455c-0.10532,-0.42431 0.05353,-0.90891 0.23208,-1.28587c0.20513,-0.38388 1.07763,-1.0979 1.477,-0.54237c0.16302,0.22674 0.09923,0.57162 0.09923,0.83295c0,0 0,0.03058 -0.01713,0.0575z" fill="#fffc51" stroke="none" stroke-width="0.5"/><path d="M113.82584,249.59751c-0.13786,0.38833 -0.2467,0.7669 -0.48817,1.10416c-0.10538,0.14057 -0.30068,0.24093 -0.49197,0.25772c-0.22217,0.0195 -0.43893,-0.0737 -0.50301,-0.34757c-0.09219,-0.39397 0.0575,-0.85262 0.22285,-1.20164c0.16746,-0.31989 0.74022,-0.8227 1.14915,-0.58603c0.18673,0.10807 0.12102,0.56719 0.11196,0.76413c-0.00053,0.00403 -0.00072,0.00729 -0.00082,0.00922z" data-paper-data="{&quot;noHover&quot;:false,&quot;origItem&quot;:[&quot;Path&quot;,{&quot;applyMatrix&quot;:true,&quot;segments&quot;:[[[579.65756,341.81574],[0,0],[0.0009,-0.01922]],[[579.66594,341.72498],[-0.00528,0.04008],[0.09002,-1.95902]],[[578.59386,334.17458],[1.85746,1.07506],[-4.06786,-2.3544]],[[567.2899,339.98488],[1.66584,-3.1821],[-1.6448,3.47186]],[[565.06814,351.8009],[-0.9171,-3.91902],[1.18646,5.07]],[[574.86632,352.6704],[-2.2658,3.02254],[2.40198,-3.3549]],[[579.65756,341.81576],[-1.37138,3.8629],[0,0]]],&quot;closed&quot;:true,&quot;fillColor&quot;:[0,0,0,1]}]}" fill="#a8be04" stroke="none" stroke-width="0.5"/><path d="M110.22831,235.89196l1.0311,-1.33977l5.08693,-0.67626c0,0 -0.61549,0.57958 -0.79092,0.7065c-0.23894,0.17284 -0.8955,0.67794 -0.8955,0.67794c0,0 -1.53095,0.56364 -2.14348,0.67748c-0.50436,0.09372 -1.97446,0.03776 -1.97446,0.03776z" fill="#fffd4d" stroke="#fffd4d" stroke-width="0.5"/><path d="M110.14929,236.06642c0.03085,-0.09257 0.12341,-0.06171 0.12341,-0.06171l0.01097,0.00892c0.65506,0 1.31185,0.13407 1.96768,0.05345c0.92671,-0.18562 1.89317,-0.42417 2.6628,-0.99954c0.55538,-0.3089 1.24064,-1.00926 1.37964,-1.65382c0,0 0.02118,-0.09525 0.11641,-0.07407c0.09525,0.02115 0.07407,0.11641 0.07407,0.11641c-0.1583,0.6952 -0.85722,1.43854 -1.46396,1.77521c-0.78754,0.59277 -1.78791,0.83875 -2.73799,1.02848c-0.66747,0.08103 -1.33245,-0.05097 -1.99866,-0.05097l-0.07268,-0.01894c0,0 -0.09257,-0.03085 -0.06171,-0.12342z" fill="#000000" stroke="none" stroke-width="0.5"/><path d="M128.64858,236.03503c-0.63939,-0.13163 -1.14881,-0.51823 -1.14881,-0.51823c0,0 -1.1603,-0.76343 -1.40971,-0.96329c-0.18313,-0.14675 -0.74262,-0.81875 -0.74262,-0.81875l4.67261,0.66861l1.43711,1.72663c0,0 -2.2821,0.01343 -2.80857,-0.09495z" data-paper-data="{&quot;index&quot;:null}" fill="#fffd4d" stroke="#fffd4d" stroke-width="0.5"/><path d="M131.34956,236.29146l-0.07267,0.01895c-0.66621,0 -1.33118,0.13201 -1.99866,0.05097c-0.95008,-0.18974 -1.95044,-0.43572 -2.73799,-1.02848c-0.60674,-0.33668 -1.30566,-1.08002 -1.46396,-1.77521c0,0 -0.02115,-0.09525 0.07407,-0.11641c0.09525,-0.02115 0.11641,0.07407 0.11641,0.07407c0.13899,0.64456 0.82426,1.34492 1.37964,1.65382c0.76964,0.57536 1.73609,0.81392 2.6628,0.99954c0.65581,0.08063 1.31261,-0.05345 1.96768,-0.05345l0.01097,-0.00892c0,0 0.09257,-0.03085 0.12342,0.06171c0.03085,0.09257 -0.06171,0.12342 -0.06171,0.12342z" data-paper-data="{&quot;index&quot;:null}" fill="#000000" stroke="none" stroke-width="0.5"/><path d="M111.2305,251.42983c0,0 -0.13412,-0.31966 -0.13439,-0.43005c-0.00035,-0.14526 0.13248,-0.36594 0.13248,-0.36594c0,0 -0.12411,0.00118 0.06738,0.00285c0.17858,0.00158 0.25263,-0.01348 0.84378,0.07243c0.183,0.0266 0.71137,0.35466 0.9298,0.35655c0.12684,0.00111 0.67212,-0.42845 0.80896,-0.42767c4.96509,0.02819 15.85784,0.15845 15.85784,0.15845l0.71531,0.02638c0,0 0.04675,0.02254 0.12535,0.12392c0.05785,0.07463 0.18686,0.07452 0.26138,0.17429c0.08725,0.11682 0.37101,0.33452 0.32606,0.42779c-0.07334,0.15223 -0.58887,0.40507 -0.70441,0.53411c-0.13304,0.14857 -0.30535,0.16702 -0.56466,0.18669c-0.25007,0.01899 -0.58423,0.0448 -0.87447,-0.11221c-0.1138,-0.06158 -0.38888,-0.32922 -0.66425,-0.41408c-0.25925,-0.07988 -0.75653,-0.04126 -0.96015,-0.04071c-0.01485,0.00003 -0.08882,0.03679 -0.09965,0.03707c-0.07444,0.00187 -0.06242,0.007 -0.11506,0.04732c-0.13356,0.10234 -0.28525,0.20105 -0.38609,0.16676c-0.13107,-0.04457 -0.59901,-0.33304 -0.81168,-0.2863c-0.40223,0.0884 -0.92797,0.34493 -1.67964,0.36512c-0.21127,0.00567 -1.27344,-0.31358 -1.49478,-0.30721c-0.23521,0.00676 -0.57196,0.14197 -0.81424,0.14486c-0.54572,0.00652 -1.16823,-0.21139 -1.72601,-0.19713c-0.79258,0.02026 -1.24434,0.55745 -1.98244,0.55513c-0.41176,-0.00129 -0.97091,-0.4916 -1.38594,-0.47591c-0.53872,0.02036 -1.07827,0.26934 -1.45786,0.35411c-0.36794,0.08218 -0.76944,0.02431 -1.13992,0.02969c-0.19407,0.00281 -0.50278,-0.43183 -0.70163,-0.4185c-0.3589,0.02403 -0.45087,0.25091 -0.67471,0.38205c-0.2169,0.1271 -0.56753,0.15833 -0.79352,0.19477c-0.16363,0.02641 -0.26092,-0.10394 -0.37069,-0.17394c-0.11563,-0.07372 -0.23942,-0.08808 -0.23942,-0.08808z" fill="#fffd4d" stroke="none" stroke-width="0"/><path d="M117.003,251.62095c0.53733,0.21676 1.21977,0.75466 1.8291,0.44867c0.24981,-0.08131 0.38295,-0.30966 0.62935,-0.38689c0.52005,-0.16299 1.1968,-0.01328 1.72513,0.02346c0.2093,0.03686 0.50567,0.17009 0.7212,0.1288c0.32509,-0.06228 0.55402,-0.27255 0.91228,-0.23897c0.32962,0.03088 0.57558,0.2167 0.876,0.32569c0.32639,0.11917 0.74209,0.11326 1.08298,0.03418l0.01976,-0.00986c0.36266,-0.19775 0.69883,-0.30122 1.04507,-0.35532c0.35846,-0.05601 0.53254,0.28242 0.95312,0.28242c0.19625,0 0.64326,-0.37339 0.88272,-0.3716c0.18603,0.00138 0.36458,0.0231 0.50373,0.09588c0.49372,0.25819 0.61245,0.5633 1.23685,0.5633c0.51498,0 1.4211,-0.145 1.57776,-0.73099c0,0 0.00686,-0.10354 0.10098,-0.07786c0.09413,0.02567 0.06846,0.1198 0.06846,0.1198c-0.18833,0.67938 -0.90154,0.87479 -1.51203,0.87479c-0.20374,0 -0.57669,-0.00676 -0.76421,-0.1038c-0.28093,-0.14535 -0.57452,-0.43333 -0.87787,-0.50989c-0.1018,-0.0257 -0.20979,-0.03903 -0.32012,-0.04539c-0.22268,-0.01283 -0.66213,0.3931 -0.87189,0.3931c-0.40537,0 -0.57251,-0.38004 -0.92431,-0.31881c-0.32449,0.05649 -0.62786,0.15637 -0.96002,0.33162c-0.01527,0.0171 -0.03238,0.02566 -0.03238,0.02566l-0.03827,0.01654c-0.00668,0.00165 -0.01336,0.00328 -0.02009,0.00487l-0.01204,0.00605c0,0 -0.02856,0.01427 -0.06118,0.01016c-0.36814,0.07545 -0.79613,0.07446 -1.14371,-0.05147c-0.28187,-0.10271 -0.51734,-0.28572 -0.82541,-0.31461c-0.33493,-0.0314 -0.55446,0.18267 -0.86232,0.23669c-0.24734,0.04341 -0.5385,-0.08477 -0.77898,-0.12732c-0.49401,-0.03617 -1.15666,-0.18865 -1.64114,-0.03143c-0.23168,0.07518 -0.37186,0.29885 -0.6147,0.3815c-0.67291,0.33506 -1.38099,-0.21204 -1.97624,-0.44778c0,0 -0.00199,-0.00079 -0.00527,-0.00244l-0.02053,-0.00086c-0.75987,0.11479 -1.41037,0.49248 -2.17887,0.49248c-0.23136,0 -0.49505,0.02986 -0.70566,-0.08527c-0.14535,-0.07945 -0.19538,-0.37027 -0.3589,-0.34375c-0.31187,0.0506 -0.66937,0.35532 -0.99803,0.44573c-1.01815,0.33983 -1.69398,-0.47888 -1.69398,-1.45244c0,-0.48501 0.49669,-1.53398 0.08085,-1.92778c0,0 -0.06899,-0.06899 0,-0.13799c0.06899,-0.069 0.13799,0 0.13799,0c0.4907,0.50925 -0.02369,1.46592 -0.02369,2.06576c0,0.84918 0.54935,1.56295 1.4423,1.26568c0.27562,-0.07444 0.81414,-0.48143 1.07193,-0.45333c0.14944,0.01628 0.29174,0.28549 0.43563,0.36715c0.1725,0.0979 0.42159,0.06109 0.61158,0.06109c0.75254,0 1.40267,-0.37354 2.14919,-0.49022l0.05665,-0.00113c0,0 0.02097,0 0.04346,0.00972c0.01638,0.00183 0.02782,0.00641 0.02782,0.00641z" fill="#9e9215" stroke="none" stroke-width="0.5"/><path d="M123.28565,249.5919l0.06437,0.08621c0.42092,0.7552 0.96117,-0.02041 0.96117,-0.58283c0,0 0,-0.09758 0.09757,-0.09758c0.09757,0 0.09758,0.09758 0.09758,0.09758c0,0.74376 -0.79735,1.63304 -1.32003,0.68899l-0.05674,-0.07529c0,0 -0.05854,-0.07805 0.01952,-0.1366c0.07805,-0.05854 0.1366,0.01952 0.1366,0.01952z" data-paper-data="{&quot;index&quot;:null}" fill="#000000" stroke="none" stroke-width="0.5"/><path d="M120.43284,250.65042c0.74014,0.12375 0.73718,-1.22321 0.7317,-1.53304c-0.00242,-0.13663 -0.15147,-0.49935 0.06995,-0.49935c0.14773,0 0.1252,0.92653 0.12519,0.94808c-0.00044,0.55874 -0.27115,1.2317 -0.91496,1.27948c-0.71135,0.05277 -0.78036,-0.89686 -0.71614,-1.35135c0.00585,-0.04142 0.02253,-0.285 0.0375,-0.41297c0.00003,0.09945 0.00885,0.19667 0.03193,0.28649c0.01137,0.04429 0.03105,0.07406 0.05564,0.09216c0.01301,0.10304 0.02916,0.19515 0.04751,0.27059c0.00198,0.14511 0.01838,0.27989 0.05879,0.39185c0.01899,0.25751 0.12537,0.46994 0.47292,0.52804z" fill="#000000" stroke="none" stroke-width="0.5"/><path d="M117.79301,249.4405c0.07805,0.05854 0.01952,0.1366 0.01952,0.1366l-0.05676,0.07529c-0.52269,0.94406 -1.32003,0.05475 -1.32003,-0.68899c0,0 0,-0.09758 0.09757,-0.09758c0.09757,0 0.09758,0.09758 0.09758,0.09758c0,0.56241 0.54024,1.33801 0.96117,0.58283l0.06437,-0.08621c0,0 0.05854,-0.07805 0.1366,-0.01952z" fill="#000000" stroke="none" stroke-width="0.5"/></g><text transform="translate(110.11541,272.17781) scale(0.55445,0.56881)" font-size="40" xml:space="preserve" fill="#000000" fill-rule="nonzero" stroke="none" stroke-width="1" stroke-linecap="butt" stroke-linejoin="miter" stroke-miterlimit="10" stroke-dasharray="" stroke-dashoffset="0" font-family="&quot;GenEiPOPlePw-Bk&quot;, Sans Serif" font-weight="normal" text-anchor="start" style="mix-blend-mode: normal"><tspan x="0" dy="0"></tspan></text></g></g></svg>