<svg version="1.1" xmlns="http://www.w3.org/2000/svg" xmlns:xlink="http://www.w3.org/1999/xlink" width="105.17345" height="40.01545" viewBox="0,0,105.17345,40.01545"><g transform="translate(-274.30427,-256.38975)"><g data-paper-data="{&quot;isPaintingLayer&quot;:true}" fill-rule="nonzero" stroke="none" stroke-linecap="butt" stroke-linejoin="miter" stroke-miterlimit="10" stroke-dasharray="" stroke-dashoffset="0" style="mix-blend-mode: normal"><path d="M379.47772,283.31668c0,7.22859 -23.54387,13.08852 -52.58672,13.08852c-29.04285,0 -52.58673,-5.85993 -52.58673,-13.08852c0,-7.22859 23.54388,-13.08852 52.58673,-13.08852c29.04285,0 52.58672,5.85993 52.58672,13.08852z" fill-opacity="0.59608" fill="#000000" stroke-width="0"/><g><path d="M275.18271,280.45019l0.39452,-3.14279c0,0 3.0674,-7.1398 3.49628,-7.08596c0.3686,0.04627 5.71044,-2.66086 8.69092,-1.6156c1.69238,0.59352 2.59326,1.33823 3.78113,2.75241c1.10192,1.31186 2.47836,3.31987 4.27987,3.34155c0.60563,0.0073 1.51403,-1.34851 1.48383,-3.01123c-0.02751,-1.5143 -0.99548,-3.34238 -0.50791,-3.46735c0.55888,-0.14324 -0.11837,-2.33223 -0.97914,-4.374c-0.53098,-1.2595 -1.51621,-2.79376 -1.17619,-2.76943c0.16459,0.01178 -0.14877,-1.1513 0.0427,-2.08493c0.21621,-1.05433 0.95972,-1.89341 1.58099,-1.8669c0.51223,0.02186 0.56837,1.28502 1.19434,1.46626c0.28612,0.08283 1.58391,1.96774 1.89644,2.05936c0.49753,0.14586 2.2556,0.04048 2.76458,0.13747c0.39641,0.07554 2.89213,-1.56191 3.24022,-1.49202c0.1853,0.0372 0.3113,-0.42984 0.4903,-0.85238c0.22467,-0.53037 0.49497,-1.0391 0.64095,-0.94268c0.56146,0.37082 1.65967,1.11137 1.80001,2.11306c0.06649,0.47464 0.55947,0.82988 0.47024,1.31228c-0.16412,0.88716 -0.97613,1.82708 -0.70086,2.06618c0.31637,0.2748 -0.15035,0.59033 -0.22745,0.92754c-0.21504,0.94053 -1.03199,2.109 -1.33275,3.48897c-0.17596,0.80727 -0.72958,2.04674 -0.43484,2.8021c0.39361,1.00874 1.7258,1.43928 1.95728,1.57118c3.64904,2.07908 1.53951,6.29451 1.53951,6.29451c0,0 -0.7569,0.58164 -0.82369,1.14353c-0.04039,0.33983 0.60513,0.69952 0.58728,0.8417c-0.00357,0.02849 1.08286,1.97199 0.65101,2.74792c-0.86164,1.54824 -2.66629,2.06712 -3.38404,2.5426c-0.71317,0.47245 -1.05407,-1.61106 -1.71319,-1.01166c-0.46852,0.42607 0.17128,1.67556 -0.32347,1.9344c-1.69979,0.88931 -5.23695,-0.04812 -6.03286,0.04623c-0.29387,0.03483 -0.22338,-3.12178 -0.22338,-3.12178c0,0 -0.1479,1.57237 -3.23127,1.92383c-2.26506,0.2582 -6.43783,-0.59229 -8.90749,-0.58424c-1.27533,0.00416 -2.97352,-0.66186 -3.99498,-0.72479c-1.02296,-0.06302 -3.98292,-1.32616 -4.40634,-1.37931c-0.64206,-0.08059 -2.58253,-1.98602 -2.58253,-1.98602z" fill="#a35520" stroke-width="0"/><path d="M308.5467,261.96799c0.3069,0.20393 0.29508,-0.2267 0.16548,-0.10089c-0.13673,0.13274 -0.40053,0.81636 -0.40053,0.81636c-0.19996,1.59292 -0.51182,3.44331 -1.11261,4.93495c-0.15754,0.39114 -0.92877,1.86979 -0.73539,2.32459c0.05244,0.12333 2.00618,1.81907 2.36627,2.21487c1.33636,1.46891 1.57053,2.83815 1.34343,4.64731c-0.09354,0.66308 -0.57033,1.30013 -0.93244,1.82535c-2.93478,4.25683 -13.12582,3.92397 -17.0266,3.43431c-4.84889,-0.60868 -16.63083,-0.36491 -16.64061,-7.06872c1.23635,-4.64334 5.40886,-6.90047 9.10535,-7.22814c1.78762,-0.15846 3.42959,0.72726 4.9197,1.55667c1.3191,0.73423 2.39702,1.65748 3.47398,3.33673c1.04734,2.48024 3.14537,2.04886 3.50686,-0.85277c0.37101,-2.97819 -1.47338,-6.39116 -1.75512,-9.258c0,0 0.19756,0.49355 0.95214,0.42338c0.75456,-0.07017 0.75081,0.67133 0.75081,0.67133c0.3093,3.37758 2.17909,6.79141 0.72684,10.22758c-1.482,3.50659 -4.37421,1.60266 -5.40204,-0.87774c-4.0621,-6.27346 -12.82217,-5.16144 -14.93583,2.25885c-0.0108,5.11843 11.81686,5.3858 15.42006,5.83811c4.28383,0.53775 8.33703,-0.19435 12.54204,-1.09631c1.56232,-0.33511 3.96181,-1.39906 4.13857,-3.10774c0.28389,-2.26154 -0.21659,-3.66707 -2.13784,-5.03174c-0.60788,-0.43178 -1.13918,-0.3422 -1.42531,-1.02855c-0.69821,-1.67489 1.57379,-5.82719 1.82371,-7.81808l0.39673,-0.43127c0,0 0.24169,-1.02951 0.87239,-0.61044z" fill="#000000" stroke-width="0.5"/><path d="M308.33788,278.97303c0.33894,-0.16825 0.50845,0.16923 0.50845,0.16923l0.10687,0.22913c0.10531,0.13483 0.21062,0.26966 0.31593,0.40451c2.43249,3.22432 -0.71287,5.21355 -3.26476,5.96834c-0.08301,0.04724 -0.16865,0.04761 -0.2385,0.03325c-0.07594,-0.00803 -0.164,-0.03767 -0.23061,-0.1196l-0.17955,-0.13548c-0.21347,-0.27331 -0.3786,-0.56969 -0.6117,-0.78207c-0.02423,0.36597 -0.01381,0.71265 0.08195,1.08649c0.01343,0.04098 0.0191,0.08049 0.02121,0.11231c0.00614,0.09191 -0.00884,0.25128 -0.16439,0.34242l-0.07053,0.11678c-0.57358,0.25008 -0.95063,0.37424 -1.56523,0.31286l-0.41741,0.03969c-1.10785,-0.14187 -3.06554,0.25466 -4.15987,-0.02099c-0.12533,-0.02284 -0.19906,-0.0844 -0.24218,-0.15342c-0.05057,-0.06746 -0.08165,-0.16237 -0.05227,-0.29365l0.02695,-0.16482c-0.06272,-0.91199 0.09888,-2.273 -0.21666,-3.12415c0,0 -0.12617,-0.35575 0.23118,-0.48084c0.35735,-0.12511 0.48351,0.23066 0.48351,0.23066c0.32999,0.96241 0.17856,2.29963 0.25788,3.32018l-0.00073,0.00706c0.94622,0.21214 2.78361,-0.18941 3.76612,-0.06829l0.27969,-0.04474c0,0 0.01789,-0.00213 0.04632,-0.0016c0.02843,-0.00037 0.0463,0.00187 0.0463,0.00187c0.40266,0.05783 0.63781,-0.00547 0.95443,-0.13846c-0.09927,-0.51871 -0.08288,-1.00454 -0.0246,-1.54743l0.01537,-0.12274c0.00038,-0.04083 0.00778,-0.08592 0.02444,-0.13564c0.03526,-0.10525 0.09127,-0.16916 0.1528,-0.20695c0.06086,-0.03882 0.14303,-0.06142 0.25371,-0.04753c0.06446,0.00809 0.11649,0.0258 0.15846,0.04956c0.51573,0.21049 0.73621,0.40609 1.04353,0.81171c0.0582,0.07682 0.1607,0.28472 0.22408,0.36719c1.9729,-0.61289 4.91537,-2.14342 2.77289,-4.7496c-0.10531,-0.13483 -0.21061,-0.26966 -0.31593,-0.40451l-0.18653,-0.35497c0,0 -0.16951,-0.33748 0.16942,-0.50574z" fill="#000000" stroke-width="0.5"/><path d="M276.3025,275.4075c0.35343,0.13654 0.21667,0.48805 0.21667,0.48805l-0.15064,0.38688c-0.67751,2.02236 -1.5674,3.81011 0.59778,5.24881c3.2019,2.16526 6.72616,2.25529 10.52919,2.73269c1.96178,0.24626 9.15268,1.25881 10.36815,-0.66505c0,0 0.21019,-0.31353 0.52553,-0.10398c0.31534,0.20954 0.10516,0.52306 0.10516,0.52306c-1.60627,2.30274 -8.65887,1.29976 -11.09279,0.99423c-3.95269,-0.49618 -7.49993,-0.65553 -10.85562,-2.85392c-2.50695,-1.66582 -1.68038,-3.77464 -0.89059,-6.13214l0.15696,-0.40369c0,0 0.13678,-0.35152 0.4902,-0.21498z" fill="#000000" stroke-width="0.5"/><path d="M296.61501,256.5474c0,0 0.37866,-0.01494 0.39416,0.36186c0.01549,0.37681 -0.36315,0.39176 -0.36315,0.39176c-1.87785,-0.01441 -2.32316,4.53171 -0.54061,5.76021c0.11953,-0.18327 0.36326,-0.15267 0.36326,-0.15267c3.41342,0.42848 6.21566,0.56007 9.55986,0.23658c1.17705,-0.22829 1.89794,-0.91197 2.17332,-1.72849c0.41324,-1.22535 -0.17685,-2.74984 -1.73434,-3.48343l-0.20583,-0.00634c0,0 -0.37606,-0.04721 -0.32909,-0.42134c0.04697,-0.37414 0.42302,-0.32693 0.42302,-0.32693l0.43883,0.07459c3.27105,1.57685 2.99149,5.90576 -0.65568,6.63824c-3.11483,0.27685 -8.06756,0.15772 -11.15631,-0.1874c-0.00017,0.00179 -0.90867,-1.51647 -1.02054,-2.52234c-0.23043,-2.07171 0.51028,-4.4899 2.65311,-4.63431z" fill="#000000" stroke-width="0.5"/><path d="M306.23253,257.57749c0.38254,0.14779 0.12173,0.81813 0.12173,0.81813l-0.14587,0.34794c-0.46314,0.68737 -0.63886,1.10823 -1.45035,1.45267c-3.18786,2.04497 -7.44234,0.94292 -8.20717,-2.85988c0,0 -0.21214,-0.56887 0.19008,-0.64845c0.40221,-0.07958 0.61433,0.48927 0.61433,0.48927c0.66355,3.30152 4.27623,4.0349 7.02196,2.29553c0.70086,-0.281 0.74489,-0.57797 1.14852,-1.18274l0.0634,-0.18991c0,0 0.26081,-0.67035 0.64334,-0.52256z" fill="#000000" stroke-width="0.5"/></g><g data-paper-data="{&quot;index&quot;:null}"><path d="M377.18747,280.29264c0,0 -1.94047,1.90543 -2.58253,1.98602c-0.42342,0.05315 -3.38338,1.31629 -4.40634,1.37931c-1.02146,0.06293 -2.71965,0.72895 -3.99498,0.72479c-2.46966,-0.00805 -6.64243,0.84244 -8.90749,0.58424c-3.08337,-0.35146 -3.23127,-1.92383 -3.23127,-1.92383c0,0 0.07049,3.15661 -0.22338,3.12178c-0.79591,-0.09435 -4.33307,0.84308 -6.03286,-0.04623c-0.49475,-0.25884 0.14505,-1.50833 -0.32347,-1.9344c-0.65912,-0.5994 -1.00002,1.48411 -1.71319,1.01166c-0.71775,-0.47548 -2.5224,-0.99436 -3.38404,-2.5426c-0.43185,-0.77593 0.65458,-2.71943 0.65101,-2.74792c-0.01785,-0.14218 0.62768,-0.50187 0.58728,-0.8417c-0.06679,-0.56189 -0.82369,-1.14353 -0.82369,-1.14353c0,0 -2.10953,-4.21543 1.53951,-6.29451c0.23148,-0.1319 1.56367,-0.56244 1.95728,-1.57118c0.29474,-0.75536 -0.25888,-1.99483 -0.43484,-2.8021c-0.30076,-1.37997 -1.11771,-2.54844 -1.33275,-3.48897c-0.0771,-0.33721 -0.54382,-0.65274 -0.22745,-0.92754c0.27527,-0.2391 -0.53674,-1.17902 -0.70086,-2.06618c-0.08923,-0.4824 0.40375,-0.83764 0.47024,-1.31228c0.14034,-1.00169 1.23855,-1.74224 1.80001,-2.11306c0.14598,-0.09642 0.41628,0.41231 0.64095,0.94268c0.179,0.42254 0.305,0.88958 0.4903,0.85238c0.34809,-0.06989 2.84381,1.56756 3.24022,1.49202c0.50898,-0.09699 2.26705,0.00839 2.76458,-0.13747c0.31253,-0.09162 1.61032,-1.97653 1.89644,-2.05936c0.62597,-0.18124 0.68211,-1.4444 1.19434,-1.46626c0.62127,-0.02651 1.36478,0.81257 1.58099,1.8669c0.19147,0.93363 -0.12189,2.09671 0.0427,2.08493c0.34002,-0.02433 -0.64521,1.50993 -1.17619,2.76943c-0.86077,2.04177 -1.53802,4.23076 -0.97914,4.374c0.48757,0.12497 -0.4804,1.95305 -0.50791,3.46735c-0.0302,1.66272 0.8782,3.01853 1.48383,3.01123c1.80151,-0.02168 3.17795,-2.02969 4.27987,-3.34155c1.18787,-1.41418 2.08875,-2.15889 3.78113,-2.75241c2.98048,-1.04526 8.32232,1.66187 8.69092,1.6156c0.42888,-0.05384 3.49628,7.08596 3.49628,7.08596l0.39452,3.14279z" fill="#a35520" stroke-width="0"/><path d="M343.82346,261.81042c0.6307,-0.41907 0.87239,0.61044 0.87239,0.61044l0.39673,0.43127c0.24992,1.99089 2.52192,6.14319 1.82371,7.81808c-0.28613,0.68635 -0.81743,0.59677 -1.42531,1.02855c-1.92125,1.36467 -2.42173,2.7702 -2.13784,5.03174c0.17676,1.70868 2.57625,2.77263 4.13857,3.10774c4.20501,0.90196 8.25821,1.63406 12.54204,1.09631c3.6032,-0.45231 15.43086,-0.71968 15.42006,-5.83811c-2.11366,-7.42029 -10.87373,-8.53231 -14.93583,-2.25885c-1.02783,2.4804 -3.92004,4.38433 -5.40204,0.87774c-1.45225,-3.43617 0.41754,-6.85 0.72684,-10.22758c0,0 -0.00375,-0.7415 0.75081,-0.67133c0.75458,0.07017 0.95214,-0.42338 0.95214,-0.42338c-0.28174,2.86684 -2.12613,6.27981 -1.75512,9.258c0.36149,2.90163 2.45952,3.33301 3.50686,0.85277c1.07696,-1.67925 2.15488,-2.6025 3.47398,-3.33673c1.49011,-0.82941 3.13208,-1.71513 4.9197,-1.55667c3.69649,0.32767 7.869,2.5848 9.10535,7.22814c-0.00978,6.70381 -11.79172,6.46004 -16.64061,7.06872c-3.90078,0.48966 -14.09182,0.82252 -17.0266,-3.43431c-0.36211,-0.52522 -0.8389,-1.16227 -0.93244,-1.82535c-0.2271,-1.80916 0.00707,-3.1784 1.34343,-4.64731c0.36009,-0.3958 2.31383,-2.09154 2.36627,-2.21487c0.19338,-0.4548 -0.57785,-1.93345 -0.73539,-2.32459c-0.60079,-1.49164 -0.91265,-3.34203 -1.11261,-4.93495c0,0 -0.2638,-0.68362 -0.40053,-0.81636c-0.1296,-0.12581 -0.14142,0.30482 0.16548,0.10089z" fill="#000000" stroke-width="0.5"/><path d="M344.03229,278.81548c0.33893,0.16826 0.16942,0.50574 0.16942,0.50574l-0.18653,0.35497c-0.10532,0.13485 -0.21062,0.26968 -0.31593,0.40451c-2.14248,2.60618 0.79999,4.13671 2.77289,4.7496c0.06338,-0.08247 0.16588,-0.29037 0.22408,-0.36719c0.30732,-0.40562 0.5278,-0.60122 1.04353,-0.81171c0.04197,-0.02376 0.094,-0.04147 0.15846,-0.04956c0.11068,-0.01389 0.19285,0.00871 0.25371,0.04753c0.06153,0.03779 0.11754,0.1017 0.1528,0.20695c0.01666,0.04972 0.02406,0.09481 0.02444,0.13564l0.01537,0.12274c0.05828,0.54289 0.07467,1.02872 -0.0246,1.54743c0.31662,0.13299 0.55177,0.19629 0.95443,0.13846c0,0 0.01787,-0.00224 0.0463,-0.00187c0.02843,-0.00053 0.04632,0.0016 0.04632,0.0016l0.27969,0.04474c0.98251,-0.12112 2.8199,0.28043 3.76612,0.06829l-0.00073,-0.00706c0.07932,-1.02055 -0.07211,-2.35777 0.25788,-3.32018c0,0 0.12616,-0.35577 0.48351,-0.23066c0.35735,0.12509 0.23118,0.48084 0.23118,0.48084c-0.31554,0.85115 -0.15394,2.21216 -0.21666,3.12415l0.02695,0.16482c0.02938,0.13128 -0.0017,0.22619 -0.05227,0.29365c-0.04312,0.06902 -0.11685,0.13058 -0.24218,0.15342c-1.09433,0.27565 -3.05202,-0.12088 -4.15987,0.02099l-0.41741,-0.03969c-0.6146,0.06138 -0.99165,-0.06278 -1.56523,-0.31286l-0.07053,-0.11678c-0.15555,-0.09114 -0.17053,-0.25051 -0.16439,-0.34242c0.00211,-0.03182 0.00778,-0.07133 0.02121,-0.11231c0.09576,-0.37384 0.10618,-0.72052 0.08195,-1.08649c-0.2331,0.21238 -0.39823,0.50876 -0.6117,0.78207l-0.17955,0.13548c-0.06661,0.08193 -0.15467,0.11157 -0.23061,0.1196c-0.06985,0.01436 -0.15549,0.01399 -0.2385,-0.03325c-2.55189,-0.75479 -5.69725,-2.74402 -3.26476,-5.96834c0.10531,-0.13485 0.21062,-0.26968 0.31593,-0.40451l0.10687,-0.22913c0,0 0.16951,-0.33748 0.50845,-0.16923z" fill="#000000" stroke-width="0.5"/><path d="M376.06771,275.2499c0.35342,-0.13654 0.4902,0.21498 0.4902,0.21498l0.15696,0.40369c0.78979,2.3575 1.61636,4.46632 -0.89059,6.13214c-3.35569,2.19839 -6.90293,2.35774 -10.85562,2.85392c-2.43392,0.30553 -9.48652,1.30851 -11.09279,-0.99423c0,0 -0.21018,-0.31352 0.10516,-0.52306c0.31534,-0.20955 0.52553,0.10398 0.52553,0.10398c1.21547,1.92386 8.40637,0.91131 10.36815,0.66505c3.80303,-0.4774 7.32729,-0.56743 10.52919,-2.73269c2.16518,-1.4387 1.27529,-3.22645 0.59778,-5.24881l-0.15064,-0.38688c0,0 -0.13676,-0.35151 0.21667,-0.48805z" fill="#000000" stroke-width="0.5"/><path d="M355.75519,256.38982c2.14283,0.14441 2.88354,2.5626 2.65311,4.63431c-0.11187,1.00587 -1.02037,2.52413 -1.02054,2.52234c-3.08875,0.34512 -8.04148,0.46425 -11.15631,0.1874c-3.64717,-0.73248 -3.92673,-5.06139 -0.65568,-6.63824l0.43883,-0.07459c0,0 0.37605,-0.04721 0.42302,0.32693c0.04697,0.37413 -0.32909,0.42134 -0.32909,0.42134l-0.20583,0.00634c-1.55749,0.73359 -2.14758,2.25808 -1.73434,3.48343c0.27538,0.81652 0.99627,1.5002 2.17332,1.72849c3.3442,0.32349 6.14644,0.1919 9.55986,-0.23658c0,0 0.24373,-0.0306 0.36326,0.15267c1.78255,-1.2285 1.33724,-5.77462 -0.54061,-5.76021c0,0 -0.37864,-0.01495 -0.36315,-0.39176c0.0155,-0.3768 0.39416,-0.36186 0.39416,-0.36186z" fill="#000000" stroke-width="0.5"/><path d="M346.13771,257.41992c0.38253,-0.14779 0.64334,0.52256 0.64334,0.52256l0.0634,0.18991c0.40363,0.60477 0.44766,0.90174 1.14852,1.18274c2.74573,1.73937 6.35841,1.00599 7.02196,-2.29553c0,0 0.21212,-0.56885 0.61433,-0.48927c0.40222,0.07958 0.19008,0.64845 0.19008,0.64845c-0.76483,3.8028 -5.01931,4.90485 -8.20717,2.85988c-0.81149,-0.34444 -0.98721,-0.7653 -1.45035,-1.45267l-0.14587,-0.34794c0,0 -0.26081,-0.67034 0.12173,-0.81813z" fill="#000000" stroke-width="0.5"/></g></g></g></svg>