<svg version="1.1" xmlns="http://www.w3.org/2000/svg" xmlns:xlink="http://www.w3.org/1999/xlink" width="98.08812" height="28.96102" viewBox="0,0,98.08812,28.96102"><g transform="translate(-276.47927,-255.85244)"><g data-paper-data="{&quot;isPaintingLayer&quot;:true}" fill-rule="nonzero" stroke-linejoin="miter" stroke-miterlimit="10" stroke-dasharray="" stroke-dashoffset="0" style="mix-blend-mode: normal"><path d="M370.25272,271.72494c0,7.22859 -20.99189,13.08852 -46.88672,13.08852c-25.89483,0 -46.88673,-5.85993 -46.88673,-13.08852c0,-7.22859 20.9919,-13.08852 46.88673,-13.08852c25.89483,0 46.88672,5.85993 46.88672,13.08852z" fill-opacity="0.59608" fill="#000000" stroke="none" stroke-width="0" stroke-linecap="butt"/><path d="M304.05623,260.22855l-1.14544,1.21282l-1.41495,0.33689l-1.954,-0.74116l-1.34758,-1.41497" fill="none" stroke="#000000" stroke-width="0.5" stroke-linecap="round"/><path d="M359.14344,271.0413c-1.08643,-0.36838 -1.93918,-1.01201 -2.90615,-1.52422c0.06588,3.0381 -1.29606,3.65887 -4.14194,3.7503c-3.8067,0.1223 -10.45818,-0.4359 -9.28954,-5.93731c1.10828,-1.22023 0.12126,-1.81674 -0.26444,-3.08939c-0.69672,-2.29887 0.02668,-6.37231 2.14147,-7.52494c0.8829,-0.32817 2.43555,-1.34051 3.33314,-0.5959c0.59313,0.49205 0.586,2.04037 1.08817,2.70518c1.36028,1.80086 4.011,1.02404 5.11359,-0.51329c1.15436,-4.01942 4.1108,1.30659 5.17587,2.02053c0.60005,0.40223 4.06358,-1.88645 4.87807,-2.11887c4.06746,-1.14689 9.09328,-1.93587 9.99964,3.19952c0.22537,0.13106 0.23469,0.42109 0.23469,0.42109c0.12199,3.79717 0.36252,7.164 -2.69963,9.96883c-1.1661,0.32115 -2.1399,1.07577 -3.39016,1.17849c-3.41731,0.28077 -6.12537,-1.01882 -9.27281,-1.94z" data-paper-data="{&quot;index&quot;:null}" fill="#000000" stroke="none" stroke-width="0.5" stroke-linecap="butt"/><path d="M293.47835,271.14234c-3.14744,0.92118 -5.8555,2.22077 -9.27281,1.94c-1.25026,-0.10272 -2.22406,-0.85734 -3.39016,-1.17849c-3.06215,-2.80483 -2.82162,-6.17166 -2.69963,-9.96883c0,0 0.00932,-0.29003 0.23469,-0.42109c0.90636,-5.13539 5.93218,-4.34641 9.99964,-3.19952c0.81449,0.23242 4.27802,2.5211 4.87807,2.11887c1.06507,-0.71394 4.02151,-6.03995 5.17587,-2.02053c1.10259,1.53733 3.75331,2.31415 5.11359,0.51329c0.50217,-0.66481 0.49504,-2.21313 1.08817,-2.70518c0.89759,-0.74461 2.45024,0.26773 3.33314,0.5959c2.11479,1.15263 2.83819,5.22607 2.14147,7.52494c-0.3857,1.27265 -1.37272,1.86916 -0.26444,3.08939c1.16864,5.50141 -5.48284,6.05961 -9.28954,5.93731c-2.84588,-0.09143 -4.20782,-0.7122 -4.14194,-3.7503c-0.96697,0.51221 -1.81972,1.15584 -2.90615,1.52422z" fill="#000000" stroke="none" stroke-width="0.5" stroke-linecap="butt"/></g></g></svg>