<svg version="1.1" xmlns="http://www.w3.org/2000/svg" xmlns:xlink="http://www.w3.org/1999/xlink" width="121.22439" height="117.98187" viewBox="0,0,121.22439,117.98187"><g transform="translate(-255.82888,-121.44715)"><g data-paper-data="{&quot;isPaintingLayer&quot;:true}" fill-rule="nonzero" stroke-linejoin="miter" stroke-miterlimit="10" stroke-dasharray="" stroke-dashoffset="0" style="mix-blend-mode: normal"><path d="M288.63141,233.55288v-48.80521h6.45032v48.80521c0,0 0.2305,3.91185 -0.38274,5.27813c-0.21757,0.48474 -1.09417,0.25803 -1.44423,0.05078c-0.85718,0.70786 -2.74237,-0.20024 -3.17469,-0.20024c-0.37018,0 -0.96046,0.09518 -1.18076,-0.6344c-0.39827,-1.31899 -0.26791,-4.49427 -0.26791,-4.49427z" fill="#fffd4d" stroke="#000000" stroke-width="0.5" stroke-linecap="butt"/><path d="M338.60917,233.27769v-48.80521h6.45032v48.80521c0,0 0.2305,4.07729 -0.38274,5.44359c-0.21757,0.48474 -0.86916,-0.07286 -1.21922,0.21623c-0.85718,0.70786 -2.96738,-0.36567 -3.3997,-0.36567c-0.37019,0 -0.96046,0.09518 -1.18076,-0.63442c-0.39827,-1.31899 -0.26791,-4.6597 -0.26791,-4.6597z" fill="#fffd4d" stroke="#000000" stroke-width="0.5" stroke-linecap="butt"/><path d="" fill="#000000" stroke="none" stroke-width="0.5" stroke-linecap="butt"/><path d="" fill="#66f4ff" stroke="none" stroke-width="0.5" stroke-linecap="butt"/><path d="" data-paper-data="{&quot;index&quot;:null}" fill="#66f4ff" stroke="none" stroke-width="0.5" stroke-linecap="butt"/><path d="" fill="#66f4ff" stroke="none" stroke-width="0.5" stroke-linecap="butt"/><path d="" fill="#66f4ff" stroke="none" stroke-width="0.5" stroke-linecap="butt"/><text transform="translate(298.18816,161.72905) scale(0.18454,0.18454)" font-size="40" xml:space="preserve" fill="#ff0000" fill-rule="nonzero" stroke="none" stroke-width="1" stroke-linecap="butt" stroke-linejoin="miter" stroke-miterlimit="10" stroke-dasharray="" stroke-dashoffset="0" font-family="&quot;SpongeBoyTT1-Regular&quot;, Sans Serif" font-weight="normal" text-anchor="start" style="mix-blend-mode: normal"><tspan x="0" dy="0">   THE</tspan><tspan x="0" dy="46.15px">KRUSTY</tspan><tspan x="0" dy="46.15px">  KRAB</tspan></text><path d="M368.401,122.17731c0.45502,0.06727 0.65285,-0.0167 0.68565,-0.18811c2.25662,0.06838 3.82756,2.58169 4.94581,4.25905c0.4273,1.16694 1.11752,2.26069 1.38768,3.59886c0.25951,1.28544 0.08655,3.06267 0.65918,4.2307c0.4151,2.58284 0.72395,5.15771 0.72395,7.78205c0,3.09308 -2.24941,4.47032 -5.25872,4.90827c-2.79346,0.02112 -0.51816,1.01353 -3.21293,-0.06759c-2.61784,-0.88964 -2.05638,-5.5779 -1.35689,-7.59214c1.05396,-3.04672 2.75133,-7.21702 3.54021,-10.37097c0.31627,-1.2674 -3.73566,-7.64128 -2.11395,-6.56014z" data-paper-data="{&quot;noHover&quot;:false,&quot;origItem&quot;:[&quot;Path&quot;,{&quot;applyMatrix&quot;:true,&quot;segments&quot;:[[[273.23414,152.39607],[0.0328,0.17141],[-2.25662,0.06838]],[[267.6027,156.64807],[1.11824,-1.67736],[-0.4273,1.16694]],[[266.22965,160.23355],[0.27016,-1.33817],[-0.25952,1.28544]],[[265.58001,164.43753],[0.57263,-1.16803],[-0.4151,2.58284]],[[264.8422,172.1822],[0,-2.62434],[0,3.09309]],[[270.07461,177.07606],[-3.00931,-0.43795],[2.79345,0.02112]],[[278.25584,176.58401],[-2.69477,1.08112],[2.61784,-0.88964]],[[279.5891,168.01622],[0.69949,2.01424],[-1.05395,-3.04672]],[[277.20773,158.42042],[0.78889,3.15395],[-0.31628,-1.26739]],[[273.91699,152.58394],[1.62171,-1.08114],[-0.45502,0.06727]]],&quot;closed&quot;:true}],&quot;index&quot;:null}" fill="#c98113" stroke="#000000" stroke-width="0.5" stroke-linecap="butt"/><path d="M263.3383,121.89158c1.62171,-1.08114 -1.43022,5.29273 -1.11395,6.56013c0.13352,0.53382 -0.13141,1.09674 0.05344,1.67842c0.21421,0.67407 0.26674,2.07165 0.67003,2.75557c1.30488,2.21284 3.43361,3.14637 4.10246,5.07985c0.50178,1.44492 0.29176,4.06619 -0.42964,6.16473c-0.28424,0.82685 -0.04447,2.17595 -0.7844,2.42741c-2.69477,1.08112 -1.70518,-0.05415 -4.49864,-0.07527c-3.00931,-0.43795 -5.25872,-1.81519 -5.25872,-4.90827c0,-2.62434 0.30885,-5.19921 0.72395,-7.78205c0.57263,-1.16803 0.39967,-2.94526 0.65918,-4.2307c0.27016,-1.33817 0.96038,-2.43192 1.38768,-3.59886c1.11824,-1.67736 1.54633,-4.19067 3.80295,-4.25905c0.0328,0.17141 0.23063,0.25538 0.68565,0.18811z" data-paper-data="{&quot;noHover&quot;:false,&quot;origItem&quot;:[&quot;Path&quot;,{&quot;applyMatrix&quot;:true,&quot;segments&quot;:[[[273.23414,152.39607],[0.0328,0.17141],[-2.25662,0.06838]],[[267.6027,156.64807],[1.11824,-1.67736],[-0.4273,1.16694]],[[266.22965,160.23355],[0.27016,-1.33817],[-0.25952,1.28544]],[[265.58001,164.43753],[0.57263,-1.16803],[-0.4151,2.58284]],[[264.8422,172.1822],[0,-2.62434],[0,3.09309]],[[270.07461,177.07606],[-3.00931,-0.43795],[2.79345,0.02112]],[[278.25584,176.58401],[-2.69477,1.08112],[2.61784,-0.88964]],[[279.5891,168.01622],[0.69949,2.01424],[-1.05395,-3.04672]],[[277.20773,158.42042],[0.78889,3.15395],[-0.31628,-1.26739]],[[273.91699,152.58394],[1.62171,-1.08114],[-0.45502,0.06727]]],&quot;closed&quot;:true}],&quot;index&quot;:null}" fill="#c98113" stroke="#000000" stroke-width="0.5" stroke-linecap="butt"/><path d="M267.59032,185.20992v-18.09243c0,0 93.01445,-0.75822 96.78396,-0.77328c0.2346,-0.00095 0.59508,0.57958 0.59508,0.57958l0.38725,18.28612z" fill="#000000" stroke="#000000" stroke-width="0" stroke-linecap="butt"/><path d="M364.50266,153.08749l0.0577,13.71226l-95.39679,0.32968l-1.60097,0.01938l-0.39719,-17.6468l98.27964,1.30113z" fill="#c98113" stroke="#000000" stroke-width="0.5" stroke-linecap="round"/><path d="M268.08307,169.77224l20.82368,0.06l37.46274,-0.05969l38.4784,-0.30477l0.65049,15.53718l-97.63371,0.09196l-0.07774,-1.59452l-0.37501,-30.82876" fill="none" stroke="#000000" stroke-width="0.5" stroke-linecap="round"/><path d="M297.17306,172.15223l0.071,6.88669h-22.57699v-6.7447z" fill="#000000" stroke="#000000" stroke-width="0.5" stroke-linecap="round"/><path d="M360.22593,172.15223l0.071,6.7447l-23.42895,-0.071l0.071,-6.74469z" fill="#000000" stroke="#000000" stroke-width="0.5" stroke-linecap="round"/><path d="M313.21695,153.17047c0,-0.27614 0.22386,-0.5 0.5,-0.5c0.27614,0 0.5,0.22386 0.5,0.5c0,0.27614 -0.22386,0.5 -0.5,0.5c-0.27614,0 -0.5,-0.22386 -0.5,-0.5z" fill="#9e9215" stroke="none" stroke-width="0.5" stroke-linecap="butt"/><path d="M303.17608,168.28321l0.50586,-18.51297l6.97667,-0.05944l4.97165,8.5l5.39616,-8.27008l6.69035,-0.11496l-0.23436,18.42804l-7.01065,-0.05718l-0.01088,-9.03596l-4.26782,5.67362h-2.20951l-3.80745,-5.48974l-0.48361,8.87506z" fill="#849ec7" stroke="#39358a" stroke-width="1" stroke-linecap="round"/><g fill="#339261" stroke="none" stroke-width="0.5" stroke-linecap="butt"><path d="M283.30128,171.97467c0.33408,0.01938 0.31311,0.32795 0.31311,0.32795c-0.00699,0.10287 -0.02098,0.3086 -0.02797,0.41147c-0.11541,1.69804 -2.46904,3.76208 -3.90592,1.60304c-0.34733,-0.5219 -0.13491,-1.36941 -0.09623,-1.93839c0,0 0.02097,-0.30858 0.35505,-0.28921c0.33408,0.01938 0.31311,0.32795 0.31311,0.32795c-0.02751,0.40472 -0.2456,1.20085 0.00014,1.57843c1.08063,1.66034 2.5915,-0.22904 2.66569,-1.32058c0.00699,-0.10287 0.01398,-0.20573 0.02097,-0.3086l0.00699,-0.10287c0,0 0.02097,-0.30858 0.35505,-0.28921z"/><path d="M286.64865,171.86209c0.33408,0.01938 0.31311,0.32795 0.31311,0.32795c-0.00699,0.10287 -0.02097,0.3086 -0.02797,0.41147c-0.11541,1.69803 -2.46903,3.76208 -3.90591,1.60304c-0.34733,-0.5219 -0.13491,-1.3694 -0.09624,-1.93839c0,0 0.02097,-0.30859 0.35505,-0.28921c0.33408,0.01938 0.31311,0.32796 0.31311,0.32796c-0.02751,0.40472 -0.24561,1.20085 0.00014,1.57843c1.08063,1.66034 2.5915,-0.22903 2.66569,-1.32057c0.00699,-0.10287 0.01398,-0.20574 0.02097,-0.3086l0.00699,-0.10287c0,0 0.02097,-0.30858 0.35505,-0.28921z"/><path d="M290.04167,171.79167c0.33408,0.01938 0.31311,0.32795 0.31311,0.32795c-0.00699,0.10287 -0.02097,0.3086 -0.02797,0.41147c-0.11541,1.69803 -2.46903,3.76208 -3.90591,1.60305c-0.34733,-0.5219 -0.13492,-1.36941 -0.09625,-1.9384c0,0 0.02098,-0.30858 0.35506,-0.28921c0.33408,0.01938 0.3131,0.32795 0.3131,0.32795c-0.02751,0.40472 -0.2456,1.20085 0.00015,1.57843c1.08063,1.66034 2.5915,-0.22904 2.66568,-1.32057c0.00699,-0.10287 0.01398,-0.20574 0.02097,-0.3086l0.00699,-0.10286c0,0 0.02097,-0.30859 0.35505,-0.28921z"/><path d="M288.03316,174.5745c0.33408,0.01938 0.31311,0.32795 0.31311,0.32795c-0.00699,0.10287 -0.02097,0.30861 -0.02797,0.41147c-0.11541,1.69803 -2.46903,3.76208 -3.90591,1.60304c-0.34733,-0.5219 -0.13491,-1.3694 -0.09624,-1.93839c0,0 0.02097,-0.30858 0.35505,-0.28921c0.33408,0.01938 0.31311,0.32795 0.31311,0.32795c-0.02751,0.40472 -0.2456,1.20085 0.00015,1.57843c1.08063,1.66034 2.5915,-0.22904 2.66569,-1.32057c0.00699,-0.10287 0.01398,-0.20574 0.02098,-0.3086l0.00699,-0.10286c0,0 0.02097,-0.30859 0.35505,-0.28921z"/><path d="M284.62461,174.75707c0.33408,0.01938 0.31311,0.32795 0.31311,0.32795c-0.00699,0.10287 -0.02097,0.30861 -0.02797,0.41147c-0.11541,1.69803 -2.46903,3.76208 -3.90591,1.60304c-0.34733,-0.5219 -0.13491,-1.3694 -0.09624,-1.93839c0,0 0.02097,-0.30858 0.35505,-0.28921c0.33408,0.01938 0.31311,0.32795 0.31311,0.32795c-0.02751,0.40472 -0.2456,1.20085 0.00015,1.57843c1.08063,1.66034 2.5915,-0.22904 2.66568,-1.32057c0.00699,-0.10287 0.01398,-0.20574 0.02098,-0.3086l0.00699,-0.10286c0,0 0.02097,-0.30859 0.35505,-0.28921z"/><path d="M286.19172,177.63814c0.33408,0.01938 0.3131,0.32795 0.3131,0.32795c-0.00699,0.10287 -0.02097,0.3086 -0.02796,0.41147c-0.11541,1.69803 -2.46903,3.76208 -3.90591,1.60305c-0.34733,-0.5219 -0.13491,-1.3694 -0.09624,-1.93839c0,0 0.02097,-0.30859 0.35505,-0.28921c0.33408,0.01938 0.31311,0.32795 0.31311,0.32795c-0.02751,0.40472 -0.2456,1.20085 0.00015,1.57843c1.08063,1.66034 2.5915,-0.22903 2.66568,-1.32057c0.00699,-0.10287 0.01398,-0.20574 0.02097,-0.3086l0.00699,-0.10287c0,0 0.02098,-0.30858 0.35506,-0.2892z"/></g><g fill="#339261" stroke="none" stroke-width="0.5" stroke-linecap="butt"><path d="M312.96854,171.87115c0.29374,0.01704 0.2753,0.28835 0.2753,0.28835c-0.00615,0.09044 -0.01845,0.27133 -0.02459,0.36178c-0.10147,1.49299 -2.17088,3.30779 -3.43425,1.40947c-0.30539,-0.45888 -0.11862,-1.20405 -0.08461,-1.70432c0,0 0.01843,-0.27132 0.31217,-0.25428c0.29374,0.01704 0.2753,0.28835 0.2753,0.28835c-0.02419,0.35585 -0.21594,1.05584 0.00013,1.38783c0.95014,1.45984 2.27856,-0.20138 2.34379,-1.16111c0.00615,-0.09044 0.0123,-0.18088 0.01844,-0.27133l0.00615,-0.09045c0,0 0.01844,-0.27132 0.31218,-0.25428z"/><path d="M315.9117,171.77217c0.29374,0.01704 0.2753,0.28835 0.2753,0.28835c-0.00615,0.09044 -0.01844,0.27134 -0.02459,0.36178c-0.10147,1.49298 -2.17088,3.30779 -3.43425,1.40947c-0.30539,-0.45888 -0.11862,-1.20405 -0.08462,-1.70432c0,0 0.01844,-0.27132 0.31218,-0.25429c0.29374,0.01704 0.2753,0.28835 0.2753,0.28835c-0.02419,0.35585 -0.21595,1.05584 0.00013,1.38782c0.95014,1.45984 2.27856,-0.20137 2.34379,-1.1611c0.00615,-0.09044 0.01229,-0.18089 0.01844,-0.27134l0.00615,-0.09044c0,0 0.01844,-0.27132 0.31218,-0.25428z"/><path d="M318.895,171.71025c0.29374,0.01704 0.2753,0.28835 0.2753,0.28835c-0.00615,0.09044 -0.01845,0.27133 -0.0246,0.36178c-0.10147,1.49298 -2.17088,3.30779 -3.43425,1.40947c-0.30539,-0.45888 -0.11862,-1.20404 -0.08462,-1.70432c0,0 0.01844,-0.27133 0.31218,-0.25429c0.29374,0.01704 0.27529,0.28836 0.27529,0.28836c-0.02419,0.35585 -0.21595,1.05584 0.00013,1.38782c0.95014,1.45984 2.27856,-0.20138 2.34379,-1.1611c0.00615,-0.09044 0.01229,-0.18089 0.01844,-0.27134l0.00615,-0.09044c0,0 0.01843,-0.27132 0.31217,-0.25429z"/><path d="M317.12902,174.15704c0.29374,0.01704 0.27529,0.28835 0.27529,0.28835c-0.00615,0.09044 -0.01844,0.27133 -0.02459,0.36178c-0.10147,1.49298 -2.17088,3.30779 -3.43426,1.40947c-0.30539,-0.45888 -0.11861,-1.20404 -0.08461,-1.70432c0,0 0.01844,-0.27132 0.31218,-0.25428c0.29374,0.01704 0.27529,0.28835 0.27529,0.28835c-0.02419,0.35585 -0.21595,1.05585 0.00013,1.38783c0.95014,1.45984 2.27857,-0.20138 2.3438,-1.16111c0.00615,-0.09044 0.01229,-0.18089 0.01844,-0.27134l0.00615,-0.09044c0,0 0.01844,-0.27132 0.31218,-0.25429z"/><path d="M314.13208,174.31757c0.29374,0.01704 0.2753,0.28834 0.2753,0.28834c-0.00615,0.09044 -0.01844,0.27134 -0.02459,0.36178c-0.10147,1.49298 -2.17089,3.30779 -3.43426,1.40947c-0.30539,-0.45888 -0.11861,-1.20404 -0.08461,-1.70432c0,0 0.01844,-0.27132 0.31218,-0.25428c0.29374,0.01704 0.27529,0.28835 0.27529,0.28835c-0.02419,0.35585 -0.21595,1.05584 0.00013,1.38783c0.95014,1.45984 2.27856,-0.20138 2.34379,-1.1611c0.00615,-0.09044 0.0123,-0.1809 0.01845,-0.27134l0.00615,-0.09044c0,0 0.01844,-0.27132 0.31218,-0.25428z"/><path d="M315.50994,176.85073c0.29374,0.01704 0.27529,0.28834 0.27529,0.28834c-0.00615,0.09044 -0.01844,0.27134 -0.02459,0.36178c-0.10147,1.49298 -2.17088,3.30779 -3.43426,1.40947c-0.30539,-0.45888 -0.11861,-1.20404 -0.08461,-1.70432c0,0 0.01844,-0.27132 0.31218,-0.25428c0.29374,0.01704 0.27529,0.28834 0.27529,0.28834c-0.02419,0.35585 -0.21594,1.05585 0.00013,1.38783c0.95014,1.45984 2.27856,-0.20138 2.34379,-1.1611c0.00615,-0.09044 0.01229,-0.18089 0.01844,-0.27134l0.00615,-0.09045c0,0 0.01844,-0.27132 0.31218,-0.25428z"/></g><g fill="#339261" stroke="none" stroke-width="0.5" stroke-linecap="butt"><path d="M344.46518,172.67276c0.28222,0.01637 0.2645,0.27704 0.2645,0.27704c-0.0059,0.0869 -0.01773,0.26069 -0.02363,0.34759c-0.09749,1.43441 -2.0857,3.17798 -3.29949,1.35415c-0.29341,-0.44088 -0.11396,-1.1568 -0.08129,-1.63744c0,0 0.01771,-0.26067 0.29992,-0.24431c0.28222,0.01637 0.2645,0.27704 0.2645,0.27704c-0.02324,0.34188 -0.20746,1.01441 0.00013,1.33337c0.91285,1.40256 2.18915,-0.19349 2.25182,-1.11555c0.0059,-0.0869 0.01182,-0.17379 0.01772,-0.26069l0.0059,-0.08689c0,0 0.01771,-0.26068 0.29992,-0.24431z"/><path d="M347.29286,172.57766c0.28222,0.01637 0.26449,0.27703 0.26449,0.27703c-0.00591,0.0869 -0.01772,0.26069 -0.02362,0.34758c-0.09749,1.4344 -2.08569,3.178 -3.29949,1.35417c-0.29341,-0.44088 -0.11397,-1.15679 -0.0813,-1.63745c0,0 0.01772,-0.26067 0.29993,-0.24431c0.28222,0.01637 0.26449,0.27704 0.26449,0.27704c-0.02324,0.34188 -0.20748,1.01441 0.00012,1.33337c0.91285,1.40256 2.18915,-0.19348 2.25182,-1.11554c0.00591,-0.0869 0.01181,-0.17379 0.01772,-0.26069l0.00591,-0.08689c0,0 0.01771,-0.26067 0.29993,-0.2443z"/><path d="M350.15909,172.51817c0.28222,0.01637 0.2645,0.27704 0.2645,0.27704c-0.00591,0.0869 -0.01772,0.26069 -0.02362,0.34758c-0.09749,1.4344 -2.08569,3.17799 -3.29949,1.35416c-0.29341,-0.44088 -0.11398,-1.15679 -0.08131,-1.63745c0,0 0.01772,-0.26067 0.29994,-0.24431c0.28222,0.01637 0.26449,0.27704 0.26449,0.27704c-0.02324,0.34188 -0.20748,1.01441 0.00012,1.33337c0.91285,1.40256 2.18915,-0.19348 2.25182,-1.11554c0.00591,-0.0869 0.01181,-0.17379 0.01772,-0.26068l0.00591,-0.08689c0,0 0.01771,-0.26068 0.29992,-0.24431z"/><path d="M348.46241,174.86896c0.28222,0.01637 0.26449,0.27702 0.26449,0.27702c-0.00591,0.0869 -0.01771,0.26069 -0.02362,0.34759c-0.09749,1.4344 -2.0857,3.17799 -3.29949,1.35416c-0.29341,-0.44088 -0.11397,-1.15679 -0.0813,-1.63745c0,0 0.01771,-0.26067 0.29993,-0.2443c0.28222,0.01637 0.2645,0.27704 0.2645,0.27704c-0.02324,0.34188 -0.20747,1.01441 0.00013,1.33337c0.91285,1.40256 2.18915,-0.19348 2.25182,-1.11554c0.00591,-0.0869 0.01181,-0.1738 0.01772,-0.26069l0.00591,-0.08688c0,0 0.01771,-0.26067 0.29993,-0.2443z"/><path d="M345.58306,175.02318c0.28222,0.01637 0.26449,0.27703 0.26449,0.27703c-0.00591,0.0869 -0.01771,0.26069 -0.02362,0.34759c-0.09749,1.4344 -2.0857,3.17798 -3.29949,1.35415c-0.29341,-0.44088 -0.11397,-1.15679 -0.0813,-1.63744c0,0 0.01772,-0.26068 0.29993,-0.24431c0.28222,0.01637 0.26449,0.27704 0.26449,0.27704c-0.02324,0.34188 -0.20747,1.01441 0.00013,1.33337c0.91285,1.40256 2.18915,-0.19348 2.25182,-1.11554c0.00591,-0.0869 0.01181,-0.17379 0.01772,-0.26069l0.0059,-0.08689c0,0 0.01771,-0.26067 0.29993,-0.2443z"/><path d="M346.90686,177.45694c0.28222,0.01637 0.2645,0.27703 0.2645,0.27703c-0.00591,0.0869 -0.01772,0.26069 -0.02362,0.34758c-0.09749,1.4344 -2.0857,3.17799 -3.2995,1.35416c-0.29341,-0.44088 -0.11397,-1.15679 -0.0813,-1.63744c0,0 0.01772,-0.26067 0.29993,-0.24431c0.28222,0.01637 0.2645,0.27704 0.2645,0.27704c-0.02324,0.34188 -0.20747,1.01441 0.00013,1.33337c0.91285,1.40256 2.18915,-0.19348 2.25182,-1.11554c0.00591,-0.0869 0.01181,-0.1738 0.01772,-0.26069l0.0059,-0.08689c0,0 0.01772,-0.26067 0.29993,-0.2443z"/></g><path d="M288.41419,235.95601l0.20213,-29.51034h7.00743l0.33689,30.27071l-0.47166,1.14059l-1.48234,0.92333l-1.54972,0.05432l-2.22351,-0.54314l-1.41495,-0.92333z" fill="#ffffff" stroke="#000000" stroke-width="0.5" stroke-linecap="round"/><path d="M345.18011,237.26165l-1.41496,0.96804l-2.22351,0.56944l-1.54973,-0.05695l-1.48234,-0.96804l-0.47166,-1.19582l0.33689,-31.73658h7.00743l0.20213,30.9394z" data-paper-data="{&quot;index&quot;:null}" fill="#ffffff" stroke="#000000" stroke-width="0.5" stroke-linecap="round"/><path d="M295.41457,214.31994l-6.72583,0.34095l0.05932,-2.21611l6.66651,-0.25002z" fill="#00c4ff" stroke="#000000" stroke-width="0.5" stroke-linecap="round"/><path d="M288.66827,217.53611l6.75423,-0.1932l0.13315,2.12518l-6.9237,0.20455z" fill="#ff0000" stroke="#000000" stroke-width="0.5" stroke-linecap="round"/><path d="M345.26988,213.53671l-6.86688,0.34095l0.06056,-2.21611l6.80632,-0.25002z" fill="#00c4ff" stroke="#000000" stroke-width="0.5" stroke-linecap="round"/><path d="M338.38253,216.75288l6.75423,-0.1932l0.13315,2.12518l-6.9237,0.20455z" fill="#ff0000" stroke="#000000" stroke-width="0.5" stroke-linecap="round"/></g></g></svg>