<svg version="1.1" xmlns="http://www.w3.org/2000/svg" xmlns:xlink="http://www.w3.org/1999/xlink" width="66.43219" height="69.7538" viewBox="0,0,66.43219,69.7538"><defs><linearGradient x1="138.41694" y1="317.52562" x2="204.84913" y2="317.52562" gradientUnits="userSpaceOnUse" id="color-1"><stop offset="0" stop-color="#e200ff"/><stop offset="1" stop-color="#6d0040"/></linearGradient></defs><g transform="translate(-138.41694,-282.64871)"><g data-paper-data="{&quot;isPaintingLayer&quot;:true}" fill-rule="nonzero" stroke-linecap="butt" stroke-linejoin="miter" stroke-miterlimit="10" stroke-dasharray="" stroke-dashoffset="0" style="mix-blend-mode: normal"><path d="M204.84913,317.52562c0,19.26197 -14.87135,34.8769 -33.2161,34.8769c-18.34475,0 -33.21609,-15.61491 -33.21609,-34.8769c0,-19.26198 14.87135,-34.8769 33.21609,-34.8769c18.34474,0 33.2161,15.61491 33.2161,34.8769z" fill="url(#color-1)" stroke="#0b61a3" stroke-width="0"/><text transform="translate(138.93719,318.51096) scale(0.31235,0.34692)" font-size="40" xml:space="preserve" fill="#ffffff" fill-rule="nonzero" stroke="none" stroke-width="1" stroke-linecap="butt" stroke-linejoin="miter" stroke-miterlimit="10" stroke-dasharray="" stroke-dashoffset="0" font-family="&quot;GenEiPOPlePw-Bk&quot;, Sans Serif" font-weight="normal" text-anchor="start" style="mix-blend-mode: normal"><tspan x="0" dy="0">sombrero</tspan></text><g data-paper-data="{&quot;index&quot;:null}"><path d="M175.98328,340.04132c-0.32524,1.01093 -1.32593,3.85038 -1.32593,3.85038c-0.0066,-0.00134 -0.38276,-0.72188 -0.55819,-0.94236c-0.21488,-0.35637 -0.50096,-0.513 -0.83459,-0.75008c-0.45651,-0.3244 -0.82412,-0.73194 -1.30306,-1.02975c-0.69383,-0.43144 -1.54241,-0.54514 -2.35847,-0.63664c-0.60268,-0.06462 -1.23169,-0.29401 -1.85137,-0.26469c-0.13518,0.00639 -0.59333,0.13658 -0.70503,0.04819c-0.0203,-0.01606 -0.00168,-0.04846 0.01054,-0.06815c0.16086,0.01056 0.16109,-0.13902 0.16109,-0.13902l0.00515,-0.04618c0.09113,-0.1871 0.08147,-0.22512 0.1051,-0.42388c0,0 0.00533,-0.04834 -0.01518,-0.09649c0.07729,-0.29371 0.19347,-0.60063 0.2894,-0.8535c0.21297,-0.57162 0.53109,-1.14918 0.71258,-1.7178c0.31921,-1.00013 0.50827,-2.04121 1.08213,-2.95163c0.07199,-0.55478 0.42565,-0.99396 0.62809,-1.48513c0.30349,-0.73633 0.499,-1.64043 0.95109,-2.31055c0.55732,-1.1973 1.77076,-3.34691 3.32478,-3.16645c0.9697,0.10873 2.12144,0.38036 3.00311,0.90106c0.22743,0.13432 0.4369,0.28521 0.62064,0.45417c0.24136,0.22193 0.38701,0.14969 0.57554,0.39709c0.67432,0.84463 1.84202,1.94057 0.95387,3.06439c-0.04469,0.02799 -0.06784,0.07126 -0.06784,0.07126l-0.1588,0.30335c-0.07538,0.64324 -0.62153,1.35368 -0.85802,1.98926c-0.16801,0.45154 -0.25986,1.18072 -0.56344,1.52288c-0.55237,1.44166 -1.10008,2.92441 -1.8232,4.28028z" data-paper-data="{&quot;noHover&quot;:false,&quot;origItem&quot;:[&quot;Path&quot;,{&quot;applyMatrix&quot;:true,&quot;segments&quot;:[[[346.63229,37.85079],[-0.03179,0],[0.75,0]],[347.38229,38.60079],[[347.38229,39.35092],[0,0],[-0.00277,0.41528]],[[347.34222,40.72548],[0.03035,-0.48656],[0.4905,-1.04055]],[[349.31624,37.85934],[-0.86508,0.86791],[1.10148,-1.43614]],[[353.28155,35.02104],[-1.55692,0.86303],[2.13036,-1.1809]],[[359.40179,31.202],[-2.2144,1.0551],[3.20797,-1.52851]],[[369.88617,29.59941],[-3.57156,0],[2.63623,0.01279]],[[378.00764,29.35906],[-2.66419,-0.42704],[0.58118,0.09315]],[[381.0297,29.91088],[-0.52564,0.3279],[0.09551,-0.05958]],[[381.08841,29.68139],[0.04329,0.09101],[-0.70036,-0.03234]],[380.38804,28.93251],[[380.38804,28.73054],[0,0],[-0.3032,-0.85287]],[[380.138,26.84883],[0.00581,0.87053],[0,0]],[[380.24998,26.43955],[-0.11198,0.1982],[-0.19172,-1.30691]],[[379.41027,22.61333],[0.29212,1.13947],[-0.64348,-2.5739]],[[377.15756,14.85217],[0.50883,2.54564],[-0.89499,-4.4775]],[[373.90702,1.60024],[2.03912,4.21319],[-0.0423,-2.4328]],[[371.91881,-5.10586],[0.63696,2.22105],[-0.95489,-3.32967]],[[368.94322,-15.53794],[1.62928,3.11557],[-1.82858,-5.44512]],[[356.13388,-30.82758],[6.80428,-0.02681],[-5.33873,0]],[[339.8373,-26.73158],[4.27208,-3.12685],[-1.15077,0.84228]],[[337.16095,-25.29628],[0.93476,-0.97795],[-3.32392,3.32392]],[[331.56725,-12.52686],[-3.29411,-5.28788],[0.17958,0.14261]],[331.82606,-12.18617],[[332.36626,-10.79925],[0,0],[0.01405,2.81673]],[[335.11672,-1.79776],[-0.71414,-2.86175],[0.50734,2.03306]],[[336.81643,5.04183],[-1.14633,-1.62601],[1.68874,6.49892]],[[342.60041,24.38475],[-2.46837,-6.21085],[0.91583,4.52711]],[[346.54089,37.85472],[-1.00465,-4.55624],[0.02916,-0.00258]]],&quot;closed&quot;:true}]}" fill="#d42f37" stroke="#000000" stroke-width="0.5"/><path d="M171.61205,343.8839c0.10253,-0.20708 0.32407,-0.11125 0.32407,-0.11125l0.26208,0.11558c0.30142,0.23397 0.61353,0.46492 0.91571,0.70521c0.16237,0.11001 0.31953,0.23861 0.47127,0.39371c0.20537,0.18233 0.64078,-0.00738 0.8169,0.19595c0.03361,0.03245 0.11315,0.578 -0.07891,0.917c-0.11991,0.21164 -0.50975,0.27609 -0.57819,0.28998c-0.61517,0.12486 -1.44184,0.09673 -2.04762,0.30775c-0.26504,0.09233 -5.69496,1.27167 -7.8727,1.03429c-0.73991,-0.22082 -1.95221,-0.23748 -2.49588,-0.77181c-0.65658,-0.64531 -0.12557,-2.14407 0.87784,-3.0821c0.58943,-0.55102 1.6823,-0.81128 1.88333,-0.85135c1.37766,-0.27458 2.65331,-0.49919 4.05108,-0.35269c1.12982,0.11841 1.82793,0.56066 2.81834,0.99417c0.21781,0.09533 0.43058,0.17537 0.63801,0.25044c0.00388,-0.01126 0.00873,-0.02289 0.01467,-0.03489z" data-paper-data="{&quot;index&quot;:null}" fill="#14130d" stroke="none" stroke-width="0.5"/><path d="M173.6732,342.11703c0.33411,0.39714 0.93564,0.94441 0.97778,1.49933c-0.12315,0.2769 -0.18901,0.56925 -0.26456,0.85568c-0.00494,0.01872 -0.05374,0.45091 -0.05738,0.48526c-0.0072,0.06813 0.06378,0.19804 -0.00825,0.20579c-0.14409,0.0155 -0.28353,0.34578 -0.42541,0.30849c-0.36564,-0.0961 -0.72259,-0.67277 -1.03219,-0.81673c-1.40905,-0.87031 -3.09194,-1.33957 -4.74735,-1.52519c-0.56816,-0.06371 -0.81619,-0.2733 -1.35542,-0.1668c-0.01893,0.00374 -0.32497,0.05087 -0.43926,0.05654c0.03755,-0.13161 -0.06245,-0.55537 -0.05095,-0.65544c0.00558,-0.0485 0.16964,-0.18781 0.16932,-0.23719c-0.00206,-0.30916 0.1576,-0.60396 0.22067,-0.90696c0.01161,-0.05578 0.0758,-0.4109 0.08154,-0.47092c0.16857,-0.34766 0.08644,-0.63902 0.40337,-0.91932c0.07573,-0.06697 0.79061,0.07213 0.88896,0.06784c0.57481,-0.02511 1.09754,0.00652 1.68431,0.07231c1.10652,0.12407 1.95015,0.47934 2.86526,1.11002c0.40935,0.28212 0.7028,0.72908 1.08956,1.03728z" data-paper-data="{&quot;noHover&quot;:false,&quot;origItem&quot;:[&quot;Path&quot;,{&quot;applyMatrix&quot;:true,&quot;segments&quot;:[[[348.18908,44.66636],[0.42532,-2.37808],[0.37532,1.25651]],[[348.87286,48.48232],[-0.177,-1.27466],[0.01157,0.08329]],[[348.88254,50.60279],[0.00089,-0.15023],[-0.00177,0.29797]],[[348.82112,51.49461],[-0.29002,-0.0684],[2.07522,0.48945]],[[355.34678,47.65951],[-1.84272,0.65541],[6.14022,-3.07879]],[[373.88683,43.85179],[-6.83134,0],[2.34459,0]],[[380.10517,44.6341],[-2.14894,-0.72166],[0.07542,0.02533]],[[381.2506,44.71679],[-0.46321,-0.07991],[-0.0929,-0.58705]],[[381.13817,42.8515],[0.00117,0.43811],[-0.0048,-1.78642]],[[380.39773,37.72076],[-0.02943,1.91401],[-0.52813,-1.58438]],[[379.35751,31.87991],[1.16356,1.36513],[-0.27803,-0.32618]],[[376.7672,31.83986],[0.39886,0.06624],[-2.33112,-0.38713]],[[369.88617,31.34946],[2.42142,0],[-4.56624,0]],[[357.76053,34.74872],[4.01769,-2.28245],[-1.79721,1.02099]],[[352.85874,38.68071],[1.71704,-1.14469],[-1.54313,1.55459]]],&quot;closed&quot;:true}]}" fill="#ffc241" stroke="none" stroke-width="0.5"/><path d="M174.4254,332.32574c-0.01431,-0.09028 0.0687,-0.14987 0.0687,-0.14987l0.03374,-0.0083c0.12582,-0.19961 0.12706,-0.43512 0.16904,-0.66635c-0.0457,-0.19424 0.39737,-1.85127 0.25873,-2.00579c-0.01104,-0.0123 -0.15806,0.08051 -0.2692,0.23601c-0.27091,0.37905 -0.6571,1.07668 -0.7279,1.14042c-0.40701,0.36641 -0.51574,0.88742 -0.76801,1.34236c0.00016,0.0056 0.00033,0.01124 0.0005,0.01691l-0.00905,0.00005l0.03955,0.01345l-0.06514,0.19145c-0.0238,0.07423 -0.09898,0.12182 -0.1782,0.10881c-0.08717,-0.01432 -0.14623,-0.09659 -0.13191,-0.18377l0.02536,-0.15437c-0.00818,-0.2149 0.00047,-0.57817 -0.16309,-0.74714c-0.17075,-0.17641 -0.58488,0.50548 -0.61669,0.59879c-0.15606,0.45774 -0.14046,0.91494 -0.26769,1.36349l0.04462,0.00733l-0.03821,0.23263c-0.01432,0.08717 -0.09659,0.14623 -0.18377,0.13191c-0.06775,-0.01113 -0.11852,-0.0633 -0.13106,-0.12692l-0.02951,-0.13342c-0.0759,-0.06008 -0.13902,-0.13552 -0.21523,-0.19531c-0.04923,-0.03862 -0.14939,-0.16287 -0.15826,-0.10093c-0.08636,0.60264 -0.20053,1.24454 -0.30307,1.86107c-0.06643,0.39941 -0.23799,0.8812 -0.59949,0.36678c-0.1549,0.01606 -0.34104,0.74398 -0.39592,0.89825c-0.21084,0.59269 -0.36457,1.1894 -0.56523,1.78169c-0.06918,0.20419 -0.09908,0.59481 -0.23903,0.74748c0.31463,-0.25147 0.83661,-0.21797 1.21776,-0.25754c1.08649,-0.11281 1.9229,-0.19726 2.39956,0.97435c0.25667,-0.6583 0.97614,-0.7793 1.02775,-1.57037c0.00583,-0.08938 0.04933,-0.31296 -0.00138,-0.39391c-0.02215,-0.03537 -0.36345,0.10074 -0.39008,0.11134c-0.06806,0.02708 -0.14003,0.04237 -0.21358,0.04997l0.00662,0.02993l-0.17354,0.03839c-0.02035,0.00499 -0.04203,0.00605 -0.06402,0.00244c-0.08717,-0.01432 -0.14623,-0.09659 -0.13191,-0.18377c0.00504,-0.03063 0.01846,-0.05779 0.03753,-0.07952l0.12529,-0.14778c0.08836,-0.10385 0.18398,-0.20197 0.2859,-0.29255c0.38187,-0.63946 0.90305,-1.16942 1.41088,-1.69042c0.17078,-0.1752 0.44145,-0.38388 0.26516,-0.67077c-0.02108,-0.03431 -0.2115,-0.0771 -0.39608,-0.11185l0.00013,0.05796l-0.20184,0.00047c-0.00965,0.00019 -0.01945,-0.00049 -0.02932,-0.00211c-0.08717,-0.01431 -0.14623,-0.09659 -0.13191,-0.18376c0.00859,-0.05229 0.04164,-0.09447 0.08552,-0.11676l0.14765,-0.077c0.04333,-0.022 0.08666,-0.04399 0.12999,-0.06598c0.20168,-0.19739 0.54703,-0.56795 0.63867,-0.83501c0.05308,-0.15468 0.19398,-0.99765 0.00409,-1.11734c-0.16095,-0.10145 -0.4298,0.20079 -0.53734,0.30444c0,0 -0.11544,0.11071 -0.22616,-0.00473c-0.11071,-0.11544 0.00473,-0.22616 0.00473,-0.22616c0.04178,-0.03988 0.08362,-0.0761 0.12533,-0.10866zM174.90156,332.10997c0.34461,-0.03417 0.59514,0.24756 0.56113,0.83562c-0.03338,0.5772 -0.32724,1.07626 -0.71875,1.48689c0.22679,0.11956 0.45337,0.45048 0.43017,0.6874c-0.03192,0.32607 -0.32499,0.50083 -0.51756,0.72778c-0.42795,0.50436 -0.89958,0.92442 -1.26103,1.50836c0.19031,-0.03445 0.39254,-0.02143 0.47805,0.05663c0.03195,0.02917 0.12568,0.40011 0.12828,0.46593c0.02637,0.66773 -0.29875,1.12674 -0.83305,1.47599c-0.18367,0.12006 -0.29911,0.41815 -0.5062,0.57264c-0.41355,-0.20943 -0.40767,-0.70906 -0.77561,-0.91942c-0.83019,-0.47463 -2.18747,0.06333 -3.07395,0.13674c-0.16482,-0.92194 0.402,-2.24264 0.76967,-3.09237c0.1861,-0.43012 0.19233,-0.87072 0.74784,-0.88353c0.03686,0.03491 0.09876,0.09868 0.1365,0.15438c0.02191,-0.25304 0.12619,-0.88096 0.13609,-0.94127c0.04702,-0.2863 0.06378,-1.20991 0.29832,-1.38481c0.23241,-0.17331 0.47484,0.00263 0.66711,0.18322c0.01016,-0.15416 0.07054,-0.32657 0.09367,-0.46743c0.0674,-0.41034 0.0929,-0.83075 0.34858,-1.17836c0.36535,-0.49671 0.86955,-0.49822 1.09042,0.06855c0.00243,0.00624 0.00479,0.01243 0.00708,0.01859c0.02048,-0.04384 0.03924,-0.08601 0.05328,-0.12515c0.08833,-0.2463 0.60373,-0.86921 0.9788,-1.39902c0.39247,-0.5544 0.65024,-1.00375 0.97891,-0.66936c0.21904,0.22284 -0.16197,1.78123 -0.10265,2.06447c-0.03267,0.21565 -0.05013,0.42115 -0.11509,0.61749z" fill="#b1872c" stroke="none" stroke-width="0.5"/><path d="M174.41705,332.30801c-0.0417,0.03256 -0.06691,0.05292 -0.10868,0.0928c0,0 -0.11502,0.11119 -0.00431,0.22663c0.11071,0.11544 0.22651,0.00516 0.22651,0.00516c0.10753,-0.10366 0.37655,-0.40567 0.5375,-0.30422c0.18989,0.11969 0.05054,0.96557 -0.00254,1.12025c-0.09163,0.26705 -0.43637,0.64036 -0.63804,0.83774c-0.04333,0.02199 -0.08664,0.04425 -0.12997,0.06625l-0.14763,0.07737c-0.04389,0.02228 -0.07692,0.06512 -0.08551,0.11742c-0.01432,0.08717 0.04469,0.17043 0.13186,0.18475c0.00986,0.00162 -0.00322,0.00008 0.00643,-0.00012l0.20183,-0.00038l0.02279,-0.05622c0.18458,0.03476 0.37497,0.07791 0.39605,0.11222c0.17629,0.2869 -0.09508,0.49854 -0.26585,0.67375c-0.50782,0.521 -1.03548,1.05755 -1.41735,1.69702c-0.10192,0.09058 -0.1989,0.18915 -0.28726,0.293l-0.12586,0.14792c-0.01908,0.02172 -0.03269,0.04892 -0.03772,0.07955c-0.01432,0.08717 0.04008,0.14693 0.12726,0.16125c0.02199,0.00361 0.04346,0.00261 0.06381,-0.0024l0.17296,-0.03823l-0.00663,-0.02993c0.07356,-0.00759 0.14483,-0.02264 0.21289,-0.04973c0.02663,-0.0106 0.36669,-0.14617 0.38885,-0.11081c0.05071,0.08096 0.01715,0.32527 0.01132,0.41464c-0.05161,0.79107 -0.77458,0.91302 -1.03124,1.57132c-0.47666,-1.17161 -1.31905,-1.08812 -2.40554,-0.97532c-0.38115,0.03957 -0.90502,0.00498 -1.21965,0.25645c0.13995,-0.15267 0.16937,-0.54365 0.23855,-0.74784c0.20066,-0.59228 0.35253,-1.19085 0.56336,-1.78354c0.05488,-0.15426 0.23967,-0.88431 0.39457,-0.90038c0.3615,0.51442 0.53282,0.03213 0.59926,-0.36728c0.10254,-0.61653 0.22044,-1.27222 0.30681,-1.87485c0.00887,-0.06193 0.10946,0.06201 0.15869,0.10063c0.07621,0.05979 0.13991,0.13487 0.21582,0.19495l0.04152,0.15302c0.01254,0.06362 0.05138,0.09615 0.11913,0.10728c0.08717,0.01432 0.17204,-0.04583 0.18636,-0.13301l0.03919,-0.23286l-0.04504,-0.00724c0.12723,-0.44855 0.11425,-0.90603 0.2703,-1.36378c0.03182,-0.09331 0.44818,-0.77496 0.61894,-0.59856c0.16356,0.16897 0.1563,0.53261 0.16448,0.74752l-0.02524,0.15441c-0.01432,0.08717 0.04564,0.1698 0.13282,0.18412c0.07922,0.01301 0.15492,-0.03433 0.17872,-0.10856l0.05484,-0.17089l-0.03938,-0.01338l0.01893,-0.02081c-0.00017,-0.00568 -0.00037,-0.01132 -0.00054,-0.01693c0.25227,-0.45493 0.36129,-0.9758 0.76831,-1.34221c0.0708,-0.06374 0.45724,-0.76124 0.72814,-1.1403c0.11114,-0.15551 0.25837,-0.2482 0.26941,-0.23589c0.13864,0.15452 -0.30264,1.81282 -0.25694,2.00706c-0.04198,0.23123 -0.04248,0.46745 -0.16829,0.66706l-0.05016,0.02439c0,0 -0.0665,0.04361 -0.05218,0.13388z" data-paper-data="{&quot;noHover&quot;:false,&quot;origItem&quot;:[&quot;Path&quot;,{&quot;applyMatrix&quot;:true,&quot;segments&quot;:[[[596.79634,39.85154],[0,0],[0.36278,0.28322]],[[597.88654,40.79669],[-0.36336,-0.3469],[0,0]],[[597.92767,42.76397],[0.96307,-1.0042],[-0.96307,1.0042]],[[595.9604,42.8051],[0,0],[-0.9354,-0.90169]],[[591.28632,40.15689],[1.40004,-0.88249],[-1.65178,1.04116]],[[591.32189,49.87625],[-0.46169,-1.34547],[0.79708,2.32297]],[[596.87741,57.13967],[-1.75434,-1.71702],[0.37691,0.19131]],[[598.00817,57.71361],[-0.37691,-0.19132],[0,0]],[[599.29256,58.38342],[0,0],[0.38177,0.19386]],[[600.03651,59.39909],[-0.07472,-0.45491],[0.12456,0.75829]],[[598.88904,60.99757],[0.75829,-0.12454],[-0.08581,0.01409]],[[598.63404,61.0159],[0.08392,0.00169],[0,0]],[596.87831,61.01178],[[596.8795,60.50759],[0,0],[-1.60558,0.30232]],[[593.43412,61.48057],[0.18339,-0.29848],[-1.5335,2.49564]],[[595.74065,67.31542],[-1.48552,-1.52407],[4.41738,4.532]],[[608.0134,82.01974],[-3.32172,-5.56245],[0.88657,0.78787]],[[610.50035,84.56451],[-0.76858,-0.90336],[0,0]],[[611.59019,85.85001],[0,0],[0.16595,0.18899]],[[611.91666,86.54169],[-0.04377,-0.26644],[0.12456,0.75829]],[[610.76919,88.14018],[0.75829,-0.12454],[-0.19127,0.03141]],[[610.21234,88.11891],[0.17704,0.04349],[0,0]],[608.70281,87.78497],[[608.76038,87.52458],[0,0],[-0.63989,-0.06609]],[[606.90247,87.08994],[0.592,0.23562],[-0.23168,-0.09221]],[[603.50928,86.1214],[0.1927,-0.30763],[-0.44112,0.70422]],[[603.49724,89.54791],[-0.05071,-0.77746],[0.44897,6.88118]],[[612.43729,103.20799],[-2.23264,-5.72634],[4.14635,-10.19142]],[[633.31017,94.73245],[-9.45094,-0.98122],[3.3155,0.34422]],[[643.90306,96.97267],[-2.73684,-2.18748],[-1.21737,-1.32805]],[[641.82383,90.47058],[0.60176,1.77619],[-1.74548,-5.15207]],[[636.90711,74.97231],[1.83399,5.15557],[-0.47735,-1.34192]],[[633.46315,67.1588],[1.34744,0.13972],[-3.14458,4.47481]],[[628.24841,63.96834],[0.57785,3.47437],[-0.89198,-5.36301]],[[625.61209,47.77957],[0.75123,5.24215],[-0.07719,-0.53875]],[[624.23548,48.65758],[0.42818,-0.33596],[-0.66292,0.52012]],[[622.36325,50.35652],[0.66023,-0.52262],[0,0]],[[622.1065,51.51711],[0,0],[-0.10906,0.55344]],[[620.96648,52.62119],[0.58933,-0.09679],[-0.75829,0.12456]],[[619.36799,51.47372],[0.12454,0.75829],[0,0]],[619.03563,49.45018],[[619.4238,49.38642],[0,0],[-1.10675,-3.90176]],[[617.09524,37.52592],[1.35746,3.98177],[-0.27673,-0.81169]],[[611.73081,32.31728],[1.48535,-1.53449],[-1.42276,1.46982]],[[610.31212,38.81642],[0.07119,-1.86937],[0,0]],[[610.53268,40.15924],[0,0],[0.12456,0.75829]],[[609.38521,41.75773],[0.75829,-0.12454],[-0.68915,0.1132]],[[607.83511,40.81126],[0.20701,0.64566],[0,0]],[607.2685,39.14593],[607.6125,39.02889],[[607.53378,39.02849],[0,0],[0.00151,-0.04934]],[[607.53814,38.88143],[-0.00139,0.0487],[-2.19438,-3.95736]],[[600.85752,27.20473],[3.54045,3.18727],[-0.6159,-0.55446]],[[594.5258,17.2846],[2.3565,3.29727],[-0.96676,-1.35271]],[[592.18415,15.23162],[0.09606,-0.10705],[-1.20602,1.34411]],[[594.43477,32.67929],[0.39754,-1.68962],[0.36518,2.0114]],[[595.90516,38.47565],[-1.0944,-1.73634],[0,0]],[596.19864,38.54784],[[596.7963,39.85149],[0.12449,-0.78528],[0,0]]],&quot;closed&quot;:true,&quot;fillColor&quot;:[0,0,0,1],&quot;strokeWidth&quot;:0.5}]}" fill="#ffc241" stroke="none" stroke-width="0.25"/><path d="M174.50119,343.6841c-0.04214,-0.55492 -0.64411,-1.0974 -0.97822,-1.49454c-0.38675,-0.3082 -0.67773,-0.74949 -1.08709,-1.03161c-0.91511,-0.63068 -1.74475,-0.9821 -2.85126,-1.10617c-0.58678,-0.06579 -1.10521,-0.10003 -1.68002,-0.07492c-0.09835,0.0043 -0.55299,-0.12821 -0.62872,-0.06123c-0.31694,0.2803 -0.23314,0.95864 -0.40172,1.30631c-0.04191,0.43813 -0.26395,0.74415 -0.31088,1.1522c-0.01151,0.10007 -0.03749,0.29153 -0.07504,0.42314c0.11429,-0.00567 0.26076,0.01598 0.27968,0.01223c0.53924,-0.1065 0.95876,-0.07349 1.52691,-0.00979c1.6554,0.18563 2.98612,0.50348 4.39517,1.37379c0.42974,0.19982 0.96766,1.10904 1.48308,1.05359c0.07203,-0.00775 0.00076,-0.13731 0.00797,-0.20544c0.00363,-0.03435 0.05174,-0.46552 0.05667,-0.48424c0.07555,-0.28643 0.14032,-0.57643 0.26346,-0.85332zM174.85221,343.59332c0.05169,0.06779 -0.27405,1.1835 -0.30766,1.46911c-0.01739,0.14782 -0.02046,0.38096 -0.19009,0.46655c-0.67851,0.34236 -1.34196,-0.84985 -1.83904,-1.05442c-1.37844,-0.84733 -2.64053,-1.15062 -4.259,-1.3321c-0.59629,-0.06686 -1.06661,-0.03468 -1.62583,-0.01099c-0.14378,0.00609 -0.37955,0.14319 -0.50836,0.02819c-0.1788,-0.15963 0.01443,-0.41343 0.04926,-0.5614c0.12068,-0.51269 0.2851,-0.94805 0.35005,-1.47145c0.19576,-0.40374 0.10374,-1.1805 0.52451,-1.48234c0.24853,-0.17829 0.57099,-0.00041 0.83828,-0.01244c0.59519,-0.02679 1.13336,0.00914 1.73874,0.07702c1.16338,0.13045 2.07169,0.50728 3.02851,1.17293c0.42577,0.29621 0.72871,0.74734 1.13157,1.06838c0.39532,0.46336 0.97193,1.01963 1.06906,1.64296z" fill="#b1872c" stroke="none" stroke-width="0.5"/></g></g></g></svg>