<svg version="1.1" xmlns="http://www.w3.org/2000/svg" xmlns:xlink="http://www.w3.org/1999/xlink" width="62.15627" height="39.83314" viewBox="0,0,62.15627,39.83314"><g transform="translate(-296.06444,-41.63233)"><g data-paper-data="{&quot;isPaintingLayer&quot;:true}" fill-rule="nonzero" stroke-linecap="butt" stroke-linejoin="miter" stroke-miterlimit="10" stroke-dasharray="" stroke-dashoffset="0" style="mix-blend-mode: normal"><path d="M304.39182,76.63635c-0.02762,0.03572 -0.06965,0.06935 -0.13195,0.09699c-0.27159,0.12048 -0.41476,-0.10085 -0.42951,-0.12524c-0.08576,-0.03278 -0.17839,-0.10361 -0.17839,-0.25661c0,-0.02917 0.00337,-0.05535 0.00941,-0.07885c-1.24917,-2.75707 0.17184,-6.75192 0.48575,-9.53791c0.4419,-3.62316 2.19938,-7.55246 3.38476,-11.12416c1.33418,-4.01857 2.87577,-6.73852 6.83564,-9.08487c2.19136,-1.93745 8.59401,-3.96449 11.58805,-4.00392c3.94687,0.04699 8.0596,-0.88945 12.10475,-0.88945c3.83649,0 9.70544,4.25882 10.91551,7.54873c0,2.90221 2.52932,9.78895 -2.55507,8.67745c-0.83342,-0.24605 -6.77443,-2.92767 -6.67171,-2.68473c0.37502,0.88701 0.49667,0.72374 0.48262,1.66091c1.938,2.73416 4.17001,7.53662 4.39706,10.78781c0.19509,2.96238 1.44326,8.74111 -0.98863,11.1466c-4.26999,0.1644 -8.32092,-0.48091 -12.54406,-0.94923c-4.24314,-0.47055 -8.50989,-0.87278 -12.6814,-1.65574c-3.55132,-0.66994 -8.91617,-0.30197 -12.39723,0.4701c-0.54187,0.00247 -1.08373,0.0022 -1.62561,0.00214z" fill="#ff0000" stroke="none" stroke-width="0.5"/><path d="M311.90927,72.59698c3.10753,-1.61041 5.61414,-1.91073 9.2808,-0.87237c3.76963,1.0607 7.5895,0.45213 11.33485,-0.31776c3.9547,-0.79995 7.38101,-0.35779 10.70708,1.05452c0.99187,0.37419 1.91117,1.14409 3.1219,1.20678c2.42641,0.12565 3.74941,-0.87793 6.33761,0.02921c1.98196,0.37298 3.59872,2.60447 1.7804,3.57497c-0.412,0.2199 -2.37789,0.02136 -2.96079,0.00642c-1.07611,-0.2423 -5.35017,-0.5218 -6.16304,0.11442c-0.51291,0.40144 -0.27744,1.6961 -0.98712,2.31522c-3.2261,1.81844 -6.36107,1.06161 -10.01639,0.10472c-1.58194,-0.41353 -2.89269,-1.21634 -4.44807,-1.59862c-1.84493,-0.45344 -3.78829,0.69801 -5.22804,1.05548c-2.20542,1.2318 -6.75966,2.44723 -9.84492,1.73308c-3.44289,-0.95867 -4.76532,-3.35799 -8.83644,-1.56678c-2.67973,1.18047 -6.57733,2.22815 -9.65708,0.76188c0.17484,-1.82331 4.60093,-2.99454 6.09272,-4.59573c0.0509,-1.88874 -2.52699,-0.87609 -3.50951,-2.0557c-0.58994,-0.70827 1.91474,-1.49255 2.67765,-1.67259c3.34519,-0.81348 6.06869,0.46157 8.77047,1.26668c0.03611,0.01652 0.07192,0.02631 0.10625,0.03136c0.06557,0.01923 0.02127,0.01714 0.08696,0.03576c0,0 0.25974,0.07298 0.38946,-0.07396c0.07397,-0.08378 0.02177,-0.14424 -0.03707,-0.18025c0.30101,-0.13682 0.67338,-0.20969 1.00232,-0.35675z" data-paper-data="{&quot;noHover&quot;:false,&quot;origItem&quot;:[&quot;Path&quot;,{&quot;applyMatrix&quot;:true,&quot;segments&quot;:[[[621.21384,106.00773],[0.51886,-0.4164],[0.10143,0.1096]],[[621.27836,106.55462],[0.12749,-0.25499],[-0.22361,0.44721]],[[620.60754,106.77822],[0,0],[-0.11324,-0.05667]],[[620.26815,106.60539],[0.11302,0.05851],[-0.05918,-0.01539]],[[620.08505,106.50982],[0.06224,0.05027],[-4.65715,-2.45029]],[[605.15726,102.71653],[5.76623,-2.47578],[-1.31506,0.54794]],[[600.54477,107.79402],[-1.0169,-2.15559],[1.69362,3.59005]],[[606.59556,114.03762],[0.08774,-5.74824],[-2.57145,4.87309]],[[596.09052,127.99675],[0.30138,-5.5491],[5.30868,4.46248]],[[612.73556,125.67341],[-4.61915,3.59267],[7.01755,-5.4514]],[[627.94995,130.40835],[-5.93464,-2.91764],[5.31818,2.17347]],[[644.86126,125.09768],[-3.80157,3.74889],[2.48176,-1.08791]],[[653.77904,121.91634],[-3.18018,-1.37999],[2.68106,1.1634]],[[661.44104,126.78798],[-2.72684,-1.25854],[6.30081,2.9122]],[[678.69149,126.49762],[-5.56094,5.5343],[1.22331,-1.88426]],[[680.38832,119.47229],[-0.88411,1.22175],[1.40119,-1.9363]],[[691.21081,119.14351],[-1.85493,-0.73742],[1.00477,0.04547]],[[696.115,119.1089],[-0.71018,0.66924],[3.13431,-2.95365]],[[693.04704,108.2515],[3.41639,1.13514],[-4.46137,-2.76083]],[[682.12357,108.16749],[4.18249,0.38239],[-2.087,-0.19081]],[[676.7463,104.50886],[1.70973,1.13881],[-5.73328,-4.29826]],[[658.32096,101.34254],[6.81686,-2.43458],[-6.456,2.34312]],[[638.89669,102.31788],[6.49784,3.22815],[-6.32035,-3.16017]],[[622.93922,104.92772],[5.35655,-4.90118],[-0.56701,0.44757]]],&quot;closed&quot;:true}]}" fill="#ffffff" stroke="#bbbbbb" stroke-width="0.5"/><path d="M330.24243,52.15926c-0.22704,-0.21165 0,-0.42331 0,-0.42331l0.37027,-0.22119c0.28645,0 0.57289,0 0.85934,0c3.68294,0 5.75302,1.69942 8.75863,3.38056c0,0 0.27533,0.154 0.11013,0.41067c-0.1652,0.25667 -0.44052,0.10267 -0.44052,0.10267c-2.91112,-1.62828 -4.86952,-3.29525 -8.42824,-3.29525c-0.28645,0 -0.57289,0 -0.85934,0l0.08382,0.04585c0,0 -0.22705,0.21165 -0.45408,0z" fill="#000000" stroke="none" stroke-width="0.5"/><path d="M355.25096,57.16925c0,3.66451 -2.79593,6.63519 -6.24488,6.63519c-3.44895,0 -6.24488,-2.97067 -6.24488,-6.63519c0,-3.66451 2.79593,-6.63519 6.24488,-6.63519c3.44895,0 6.24488,2.97067 6.24488,6.63519z" fill="none" stroke="#000000" stroke-width="0.5"/><path d="M341.59956,55.45178c0,1.60712 0.88689,3.13749 0.88689,4.78919v0.26607c0,0 0,0.21387 -0.19781,0.24598c0.15862,1.15604 -0.05176,2.81134 0.66449,3.67185c1.43661,1.72599 2.87779,-0.08205 4.29147,-0.07655c0.80764,0.59088 1.49025,2.07982 2.62516,1.78495c0.87269,-0.22675 1.23246,-1.59255 1.91776,-1.99166c0.66462,-0.38707 1.70895,0.26763 2.3565,0.3051c1.14446,0.09375 0.68906,-2.0354 0.99803,-2.54448c0.29162,-0.48048 4.20058,-1.72425 1.87919,-3.1228c-1.82518,-0.92467 0.72675,-3.41723 0.22906,-5.13877c-0.08694,-0.30071 -0.6369,-0.50716 -1.19177,-0.73546v0.08221c0,0 0,0.24999 -0.24999,0.25l-0.00001,0c-0.24999,-0.00001 -0.24999,-0.25 -0.24999,-0.25v-0.22303c0.00107,-0.02613 0.00202,-0.05213 0.00284,-0.078c-0.27995,-0.13726 -0.51998,-0.29146 -0.64651,-0.48125c-0.71432,-2.12964 -2.52283,-1.3616 -3.98741,-1.94559l0.00136,0.0515c0,0 0,0.25 -0.25,0.25c-0.25,0 -0.25,-0.25 -0.25,-0.25l0.01073,-0.2621c-0.00466,-0.00654 -0.00932,-0.01308 -0.01399,-0.01962c-0.87759,-0.40746 -2.09854,-0.91094 -2.90825,-0.37113c-0.60927,0.01606 -1.85412,0.69479 -2.3839,0.44326c-0.11154,-0.05296 -0.19932,-0.11711 -0.26634,-0.18932c-2.50112,0.15952 -2.99324,1.27884 -2.97103,3.8559c-0.00184,0.4671 -0.22108,0.94655 -0.50912,1.43575c0.21265,0.02357 0.21265,0.248 0.21265,0.248zM340.20427,58.9136c0.33932,0.68576 1.25575,0.45777 1.77393,1.04773c-0.08553,-1.47149 -0.80809,-2.85031 -0.87385,-4.301c-0.6726,1.05226 -1.44848,2.14497 -0.90008,3.25326zM352.46277,49.8644c2.48763,-1.24382 3.45505,0.26331 3.58428,2.61565c0.62544,0.24244 1.39541,0.29416 1.66519,0.96928c0.60125,1.50467 -1.72474,4.26463 -0.44004,4.89765c2.71575,1.9212 -1.21529,2.97912 -1.68932,3.79118c-0.4895,0.83856 0.21363,2.73635 -1.45532,2.80828c-0.47401,-0.03409 -1.63798,-0.66166 -2.10413,-0.36399c-1.03777,0.66269 -1.39541,2.53071 -3.08982,2.02614c-0.70145,-0.20888 -1.26478,-1.30784 -1.84974,-1.78679c-1.52688,0.01117 -2.89704,1.85579 -4.51463,-0.07655c-0.88533,-1.05759 -0.5129,-2.95959 -0.8287,-4.21637c-0.31686,-1.02801 -1.52255,-0.47783 -1.99822,-1.42393c-1.01482,-2.01845 1.66144,-3.6212 1.65371,-5.33691c0.03044,-2.77692 0.62967,-4.12211 3.29338,-4.34318c0.01021,-0.45006 0.38025,-0.94835 0.75423,-1.12474c1.52731,-0.72036 2.98523,-0.56385 4.37018,0.3532c0.43814,0.29895 0.74948,0.70637 1.03796,1.14809c0.12892,0.0274 0.25711,0.04124 0.38461,0.03661c0.39358,-0.01429 0.79934,-0.00417 1.19736,0.04437c0.01704,-0.01199 0.02902,-0.01798 0.02902,-0.01798zM355.36402,51.98545c0.0569,0.08535 0.12356,0.15821 0.19772,0.22139c-0.05519,-1.67789 -0.73325,-2.64923 -2.26821,-2.14881c0.92477,0.27763 1.71383,0.85049 2.07049,1.92742zM345.79634,49.59839c0.50734,-0.11928 1.0604,-0.43986 1.57607,-0.41875c0.9203,-0.61353 1.79275,-0.09666 2.63102,0.30291c-0.13975,-0.15743 -0.29251,-0.30036 -0.46692,-0.41319c-1.09232,-0.7332 -2.00609,-0.88014 -3.24844,-0.52557c-0.08488,0.02423 -0.99737,0.53888 -1.16013,0.85543c0.1356,-0.00486 0.27592,-0.00728 0.42114,-0.00728c0,0 0.22005,0 0.24725,0.20645z" fill="#bbbbbb" stroke="none" stroke-width="0.5"/><path d="M353.25617,50.02481c1.53496,-0.50042 2.28564,0.5396 2.34083,2.21749c-0.07416,-0.06318 -0.21177,-0.20651 -0.26867,-0.29186c-0.35666,-1.07693 -1.14739,-1.648 -2.07216,-1.92563z" data-paper-data="{&quot;noHover&quot;:false,&quot;origItem&quot;:[&quot;Path&quot;,{&quot;applyMatrix&quot;:true,&quot;segments&quot;:[[[355.36402,51.98545],[-0.35666,-1.07693],[0.0569,0.08535]],[[355.56174,52.20684],[-0.07416,-0.06318],[-0.05519,-1.67789]],[[353.29353,50.05803],[1.53496,-0.50042],[0.92477,0.27763]]],&quot;closed&quot;:true,&quot;fillColor&quot;:[0,0,0,1],&quot;strokeWidth&quot;:0.5}]}" fill="#ffffff" stroke="none" stroke-width="0.25"/><path d="M345.5001,49.40197c-0.14522,0 -0.28584,0.00088 -0.42143,0.00574c0.16276,-0.31656 1.07719,-0.85582 1.16207,-0.88005c1.24234,-0.35457 2.2534,-0.18921 3.34571,0.54399c0.1744,0.11283 0.22825,0.24335 0.368,0.40078c-0.83827,-0.39958 -1.69643,-0.87031 -2.61673,-0.25678c-0.51567,-0.0211 -1.08124,0.27997 -1.58858,0.39925c-0.0272,-0.20645 -0.24904,-0.21294 -0.24904,-0.21294z" data-paper-data="{&quot;noHover&quot;:false,&quot;origItem&quot;:[&quot;Path&quot;,{&quot;applyMatrix&quot;:true,&quot;segments&quot;:[[[692.02664,94.42323],[-0.05441,-0.41289],[1.01468,-0.23856]],[[695.17878,93.58573],[-1.03133,-0.04221],[1.8406,-1.22707]],[[700.44082,94.19156],[-1.67654,-0.79916],[-0.2795,-0.31486]],[[699.50699,93.36517],[0.3488,0.22567],[-2.18463,-1.4664]],[[693.01011,92.31402],[2.48469,-0.70913],[-0.16976,0.04845]],[[690.68985,94.02489],[0.32551,-0.63312],[0.27119,-0.00972]],[[691.53213,94.01034],[-0.29043,0],[0,0]]],&quot;closed&quot;:true}]}" fill="#ffffff" stroke="none" stroke-width="0.5"/><path d="M350.94197,50.2628l-0.00145,-0.05153c1.46458,0.58399 3.29668,-0.16979 4.011,1.95985c0.43048,0.64572 2.18279,0.8912 2.34356,1.44729c0.4977,1.72154 -2.04938,4.24234 -0.2242,5.16701c2.3214,1.39854 -1.59541,2.66375 -1.88703,3.14423c-0.30897,0.50908 0.13564,2.65002 -1.00882,2.55627c-0.64756,-0.03747 -1.7021,-0.68592 -2.36672,-0.29885c-0.6853,0.39911 -1.06,1.7691 -1.93269,1.99585c-1.13491,0.29488 -1.83553,-1.19522 -2.64317,-1.7861c-1.41369,-0.0055 -2.87606,1.79129 -4.31267,0.0653c-0.79556,-0.95581 -0.46116,-2.91131 -0.74577,-4.05493c-0.39792,-1.13483 -1.6166,-0.67332 -2.01933,-1.48722c-0.88615,-1.79086 1.69173,-3.57238 1.69804,-5.17692c-0.02221,-2.57706 0.49052,-3.71596 2.99164,-3.87548c0.06702,0.07221 0.15558,0.13596 0.26713,0.18893c0.52977,0.25153 1.78825,-0.43157 2.39752,-0.44762c0.80971,-0.53981 2.04867,-0.03607 2.92626,0.37139c0.00467,0.00655 0.00944,0.01311 0.0141,0.01965l-0.01046,0.26215c0,0 0.00193,0.25044 0.25193,0.25044c0.25,0 0.25114,-0.2497 0.25114,-0.2497z" data-paper-data="{&quot;noHover&quot;:false,&quot;origItem&quot;:[&quot;Path&quot;,{&quot;applyMatrix&quot;:true,&quot;segments&quot;:[[[701.79158,96.34853],[0.5,0],[-0.5,0]],[701.29158,95.84853],[[701.31304,95.32433],[0,0],[-0.00932,-0.01307]],[[701.28505,95.28508],[0.00934,0.01309],[-1.75518,-0.81492]],[[695.46856,94.54282],[1.61942,-1.07961],[-1.21853,0.03212]],[[690.70077,95.42934],[1.05954,0.50307],[-0.22309,-0.10592]],[[690.16809,95.0507],[0.13403,0.14442],[-5.00225,0.31904]],[[684.22603,102.7625],[-0.04442,-5.15413],[-0.01261,3.20908]],[[680.8425,113.05364],[-1.77229,-3.58172],[0.80547,1.62781]],[[684.87518,116.0046],[-0.79583,-2.26965],[0.56923,2.28723]],[[686.34022,124.07619],[-1.59111,-1.91162],[2.87322,3.45198]],[[694.92316,123.92309],[-2.82737,-0.011],[1.61529,1.18176]],[[700.17348,127.49299],[-2.26982,0.58976],[1.74538,-0.45349]],[[704.009,123.50966],[-1.3706,0.79822],[1.32924,-0.77413]],[[708.72201,124.11986],[-1.29511,-0.07494],[2.28892,0.18751]],[[710.71807,119.03091],[-0.61795,1.01816],[0.58323,-0.96096]],[[714.47645,112.78531],[4.64279,2.79709],[-3.65037,-1.84935]],[[714.93456,102.50778],[0.99539,3.44308],[-0.32153,-1.11219]],[[710.26368,99.63671],[0.86096,1.29145],[-1.42863,-4.25929]],[[702.28887,95.74552],[2.92917,1.16799],[0,0]],[702.29158,95.84853]],&quot;closed&quot;:true}]}" fill="#ffffff" stroke="none" stroke-width="0.5"/><path d="M347.17557,56.95572c-0.17678,0.17678 -0.35355,0 -0.35355,0l-0.15564,-0.17122c-0.88764,-1.67646 -3.20471,-0.3133 -2.66437,1.25358c0,0 0.07906,0.23717 -0.15811,0.31623c-0.23717,0.07906 -0.31623,-0.15811 -0.31623,-0.15811c-0.69437,-2.14163 2.40768,-3.85686 3.58051,-1.64583l0.0674,0.05181c0,0 0.17678,0.17678 0,0.35355z" fill="#bbbbbb" stroke="none" stroke-width="0.5"/><path d="M352.63984,60.85878c-0.17678,0.17678 -0.35355,0 -0.35355,0l-0.07341,-0.08028c-1.01769,-0.68266 -2.32263,-2.34104 -3.20622,-0.54227c0,0 -0.1118,0.22361 -0.33541,0.1118c-0.22361,-0.1118 -0.1118,-0.33541 -0.1118,-0.33541c1.1095,-2.18611 2.62788,-0.5127 3.93079,0.34985l0.14962,0.14275c0,0 0.17678,0.17678 0,0.35355z" fill="#bbbbbb" stroke="none" stroke-width="0.5"/><path d="M355.42773,57.29027c-0.17678,0.17678 -0.35355,0 -0.35355,0l-0.11152,-0.11152c-1.00155,-1.00833 -2.09483,-1.63272 -2.70849,0.23683c0,0 -0.07906,0.23717 -0.31623,0.15811c-0.23717,-0.07906 -0.15811,-0.31623 -0.15811,-0.31623c0.74626,-2.20981 2.25856,-1.70011 3.53639,-0.43227l0.11152,0.11152c0,0 0.17678,0.17678 0,0.35355z" fill="#bbbbbb" stroke="none" stroke-width="0.5"/><path d="M347.11031,62.15867c-0.17831,0 -0.22944,-0.12718 -0.2441,-0.20012c-0.75694,-0.32001 -1.597,-0.07768 -2.32047,0.28524c0,0 -0.22361,0.1118 -0.33541,-0.1118c-0.1118,-0.22361 0.1118,-0.33541 0.1118,-0.33541c0.92838,-0.46278 1.94293,-0.68726 2.89998,-0.22303l0.1382,0.33512c0,0 0,0.25 -0.25,0.25z" fill="#bbbbbb" stroke="none" stroke-width="0.5"/><path d="M350.85559,52.27206c-0.17678,0.17678 -0.35355,0 -0.35355,0l-0.09251,-0.09251c-0.69627,-0.76505 -2.73185,-0.35428 -2.28144,0.95183c0,0 0.07906,0.23717 -0.15811,0.31623c-0.23717,0.07906 -0.31623,-0.15811 -0.31623,-0.15811c-0.59905,-1.84765 1.97914,-2.52372 3.10933,-1.4635l0.09251,0.09251c0,0 0.17678,0.17678 0,0.35355z" fill="#bbbbbb" stroke="none" stroke-width="0.5"/></g></g></svg>