<svg version="1.1" xmlns="http://www.w3.org/2000/svg" xmlns:xlink="http://www.w3.org/1999/xlink" width="99.16099" height="45.49962" viewBox="0,0,99.16099,45.49962"><g transform="translate(-266.35527,-149.26177)"><g data-paper-data="{&quot;isPaintingLayer&quot;:true}" fill-rule="nonzero" stroke-linejoin="miter" stroke-miterlimit="10" stroke-dasharray="" stroke-dashoffset="0" style="mix-blend-mode: normal"><path d="M345.68399,174.75435c3.79525,0.00501 4.84068,4.85772 8.62977,4.78733c-0.14473,0.52077 0.18047,0.98249 0.14432,1.51724c-0.1368,2.02371 0.00133,4.18502 0.52447,6.11536c0.25522,0.94174 1.26264,2.25495 0.37863,2.75654c-3.12984,2.74908 -8.02747,4.12133 -11.94624,4.11678c-4.08305,0 -7.93351,0.07484 -11.43917,-2.42381c-0.7427,-0.52639 -1.15179,-1.82489 -1.33798,-3.40184c-0.34908,-2.95658 0.08533,-6.89201 0.57347,-8.55303l0.03038,-0.05618c0,0 0.06702,-0.15194 0.05494,-0.33028c3.88247,-0.22843 7.75397,-1.86579 11.68687,-2.42771z" data-paper-data="{&quot;noHover&quot;:false,&quot;origItem&quot;:[&quot;Path&quot;,{&quot;applyMatrix&quot;:true,&quot;segments&quot;:[[[600.0597,426.4568],[0,0],[-7.5905,0.00884]],[[577.4863,425.32288],[7.57818,0.12412],[1.38496,4.39334]],[[576.16108,438.72902],[1.32276,-4.30312],[-0.51044,1.66054]],[[576.21646,443.56994],[-1.76802,-0.88444],[6.25968,4.84736]],[[599.20326,450.75268],[-7.83752,0.00802],[8.1661,0]],[[621.98186,446.5415],[-7.01132,4.40578],[4.27036,-2.66838]],[[623.51512,425.54534],[1.497,4.49098],[0,0]],[623.45456,425.44668],[[623.34568,424.86616],[-0.02416,0.31446],[-7.76494,-0.40278]],[[600.05968,426.4568],[7.8658,0.99082],[0,0]]],&quot;closed&quot;:true,&quot;fillColor&quot;:[0,0,0,1]}],&quot;index&quot;:null}" fill="#ad6310" stroke="none" stroke-width="0.5" stroke-linecap="butt"/><path d="M329.9429,180.50016c-0.2236,-0.44721 0.22361,-0.67082 0.22361,-0.67082l0.51832,-0.22253c4.11873,-0.40759 8.15055,1.26023 12.30449,0.74482c4.06212,-0.0044 8.0185,-0.57507 12.08724,-0.57507c0,0 0.5,0 0.5,0.5c0,0.14528 -0.04221,0.24834 -0.1021,0.32146c-0.93889,2.10172 -0.15952,4.51051 0.48164,6.59224c0.40558,1.31686 0.95816,2.72307 -0.43159,3.55022c-3.26224,2.54965 -7.9536,3.75328 -12.04483,3.75715c-4.29315,0 -8.21947,0.04047 -11.91929,-2.25759c-2.5777,-1.61141 -2.1199,-8.59166 -1.2487,-11.46288c-0.12805,-0.01301 -0.27016,-0.07976 -0.36877,-0.27699zM343.05148,181.34972c-3.9329,0.49541 -7.76053,-0.99671 -11.643,-0.79532c0.01208,0.15723 -0.05444,0.29026 -0.05444,0.29026l-0.03028,0.04933c-0.7485,2.24549 -1.36855,9.16389 0.76663,10.49808c3.50566,2.20289 7.30625,2.10559 11.3893,2.10559c3.91876,0.00401 8.36356,-1.16769 11.4934,-3.59137c0.88401,-0.44222 0.28291,-1.59019 0.02769,-2.42046c-0.66138,-2.15156 -1.35509,-4.5064 -0.66261,-6.70307c-3.78909,0.06206 -7.49145,0.57138 -11.2867,0.56696z" data-paper-data="{&quot;index&quot;:null}" fill="#000000" stroke="none" stroke-width="0.5" stroke-linecap="butt"/><path d="M343.05164,181.29972c3.79525,0.00442 7.54122,-0.47904 11.33031,-0.5411c-0.69248,2.19667 0.00741,4.57761 0.66879,6.72917c0.25522,0.83027 0.85496,1.98804 -0.02905,2.43026c-3.12984,2.42368 -7.61979,3.6335 -11.53855,3.62949c-4.08305,0 -7.93351,0.06598 -11.43917,-2.13691c-2.13518,-1.33419 -1.51301,-8.29433 -0.76451,-10.53982l0.03038,-0.04952c0,0 0.06703,-0.13396 0.05495,-0.29119c3.88247,-0.20139 7.75397,1.26503 11.68687,0.76962z" data-paper-data="{&quot;noHover&quot;:false,&quot;origItem&quot;:[&quot;Path&quot;,{&quot;applyMatrix&quot;:true,&quot;segments&quot;:[[[351.92704,212.28989],[0,0],[-3.9329,0.49541]],[[340.28404,211.49457],[3.88247,-0.20139],[0.01208,0.15723]],[340.2296,211.78483],[[340.19932,211.83416],[0,0],[-0.7485,2.24549]],[[340.96595,222.33224],[-2.13518,-1.33419],[3.50566,2.20289]],[[352.35525,224.43783],[-4.08305,0],[3.91876,0.00401]],[[363.84865,220.84646],[-3.12984,2.42368],[0.88401,-0.44222]],[[363.87634,218.426],[0.25522,0.83027],[-0.66138,-2.15156]],[[363.21373,211.72293],[-0.69248,2.19667],[-3.78909,0.06206]],[[351.92703,212.28989],[3.79525,0.00442],[0,0]]],&quot;closed&quot;:true,&quot;fillColor&quot;:[0,0,0,1]}]}" fill="#3a92cf" stroke="none" stroke-width="0.5" stroke-linecap="butt"/><path d="M291.22235,177.11845c3.9329,0.56192 7.8044,2.19928 11.68687,2.42771c-0.01208,0.17834 0.05494,0.33028 0.05494,0.33028l0.03038,0.05618c0.48814,1.66102 0.92255,5.59645 0.57347,8.55303c-0.18619,1.57695 -0.59528,2.87545 -1.33798,3.40184c-3.50566,2.49865 -7.35612,2.42381 -11.43917,2.42381c-3.91876,0.00455 -8.81639,-1.3677 -11.94624,-4.11678c-0.88401,-0.50159 0.12341,-1.8148 0.37863,-2.75654c0.52314,-1.93034 0.66127,-4.09165 0.52447,-6.11536c-0.03615,-0.53475 0.28905,-0.99647 0.14432,-1.51724c3.78909,0.07039 4.83452,-4.78232 8.62977,-4.78733z" data-paper-data="{&quot;noHover&quot;:false,&quot;origItem&quot;:[&quot;Path&quot;,{&quot;applyMatrix&quot;:true,&quot;segments&quot;:[[[600.0597,426.4568],[0,0],[-7.5905,0.00884]],[[577.4863,425.32288],[7.57818,0.12412],[1.38496,4.39334]],[[576.16108,438.72902],[1.32276,-4.30312],[-0.51044,1.66054]],[[576.21646,443.56994],[-1.76802,-0.88444],[6.25968,4.84736]],[[599.20326,450.75268],[-7.83752,0.00802],[8.1661,0]],[[621.98186,446.5415],[-7.01132,4.40578],[4.27036,-2.66838]],[[623.51512,425.54534],[1.497,4.49098],[0,0]],[623.45456,425.44668],[[623.34568,424.86616],[-0.02416,0.31446],[-7.76494,-0.40278]],[[600.05968,426.4568],[7.8658,0.99082],[0,0]]],&quot;closed&quot;:true,&quot;fillColor&quot;:[0,0,0,1]}]}" fill="#ad6310" stroke="none" stroke-width="0.5" stroke-linecap="butt"/><path d="M304.26283,180.76388c-0.09861,0.19723 -0.24072,0.26398 -0.36877,0.27699c0.8712,2.87122 1.329,9.85147 -1.2487,11.46288c-3.69982,2.29806 -7.62614,2.25759 -11.91929,2.25759c-4.09123,-0.00387 -8.78259,-1.2075 -12.04483,-3.75715c-1.38975,-0.82715 -0.83717,-2.23336 -0.43159,-3.55022c0.64116,-2.08173 1.42053,-4.49052 0.48164,-6.59224c-0.05989,-0.07312 -0.1021,-0.17618 -0.1021,-0.32146c0,-0.5 0.5,-0.5 0.5,-0.5c4.06874,0 8.02512,0.57067 12.08724,0.57507c4.15394,0.51541 8.18576,-1.15241 12.30449,-0.74482l0.51832,0.22253c0,0 0.44721,0.22361 0.22361,0.67082zM291.15429,181.61343c-3.79525,0.00442 -7.49761,-0.5049 -11.2867,-0.56696c0.69248,2.19667 -0.00123,4.55151 -0.66261,6.70307c-0.25522,0.83027 -0.85632,1.97824 0.02769,2.42046c3.12984,2.42368 7.57464,3.59538 11.4934,3.59137c4.08305,0 7.88364,0.0973 11.3893,-2.10559c2.13518,-1.33419 1.51513,-8.25259 0.76663,-10.49808l-0.03028,-0.04933c0,0 -0.06652,-0.13303 -0.05444,-0.29026c-3.88247,-0.20139 -7.7101,1.29073 -11.643,0.79532z" fill="#000000" stroke="none" stroke-width="0.5" stroke-linecap="butt"/><path d="M291.15411,181.56343c3.9329,0.49541 7.8044,-0.97101 11.68687,-0.76962c-0.01208,0.15723 0.05495,0.29119 0.05495,0.29119l0.03038,0.04952c0.7485,2.24549 1.37067,9.20563 -0.76451,10.53982c-3.50566,2.20289 -7.35612,2.13691 -11.43917,2.13691c-3.91876,0.00401 -8.40871,-1.20581 -11.53855,-3.62949c-0.88401,-0.44222 -0.28427,-1.59999 -0.02905,-2.43026c0.66138,-2.15156 1.36127,-4.5325 0.66879,-6.72917c3.78909,0.06206 7.53506,0.54552 11.33031,0.5411z" data-paper-data="{&quot;noHover&quot;:false,&quot;origItem&quot;:[&quot;Path&quot;,{&quot;applyMatrix&quot;:true,&quot;segments&quot;:[[[300.02986,212.5536],[0,0],[-3.79525,0.00442]],[[288.74316,211.98664],[3.78909,0.06206],[0.69248,2.19667]],[[288.08056,218.68971],[0.66138,-2.15156],[-0.25522,0.83027]],[[288.10825,221.11017],[-0.88401,-0.44222],[3.12984,2.42368]],[[299.60165,224.70154],[-3.91876,0.00401],[4.08305,0]],[[310.99095,222.59595],[-3.50566,2.20289],[2.13518,-1.33419]],[[311.75757,212.09787],[0.7485,2.24549],[0,0]],[311.7273,212.04854],[[311.67286,211.75828],[-0.01208,0.15723],[-3.88247,-0.20139]],[[300.02986,212.5536],[3.9329,0.49541],[0,0]]],&quot;closed&quot;:true,&quot;fillColor&quot;:[0,0,0,1]}]}" fill="#3a92cf" stroke="none" stroke-width="0.5" stroke-linecap="butt"/><path d="M267.34753,182.04805v-15.50258c0,0 93.01445,-0.64968 96.78396,-0.66259c0.2346,-0.00081 0.59508,0.49662 0.59508,0.49662l0.38725,15.66854z" fill="#3a92cf" stroke="#000000" stroke-width="0" stroke-linecap="butt"/><path d="M363.66474,153.47746l0.15266,13.0136l-95.39679,0.37453l-1.60097,0.02202l-0.20479,-15.81442c0,0 2.1416,2.73902 2.92339,2.71707c0.30852,-0.00867 2.11862,0.44674 2.75499,0.41761c0.45803,-0.02096 5.74313,-2.70641 6.35327,-2.73817c0.09699,-0.00505 0.7301,-0.10637 1.22143,0.2608c0.66241,0.49499 1.30003,1.53092 2.21763,1.8704c1.54368,0.5711 3.07351,0.18242 3.32783,0.17006c1.09364,-0.05315 8.8732,-2.58697 10.2154,-2.66204c0.5298,-0.02963 6.77134,2.88431 7.32846,2.85435c0.38407,-0.02066 2.21073,0.31954 3.68102,-0.74736c1.70309,-1.23584 3.65257,-2.21535 4.08481,-2.24146c0.31619,-0.01909 3.99625,0.30107 6.78697,0.75413c1.69758,0.2756 3.00626,0.77983 3.2014,0.76827c0,0 2.74219,-1.41029 4.65596,-1.38802c0.68561,0.00797 3.18456,1.05613 5.18868,1.59541c1.82717,0.49167 3.16288,0.4802 3.9272,0.46093c0.60512,-0.01526 7.09484,-2.02122 7.6913,-2.02905c1.79554,-0.02358 2.98781,1.27477 4.64558,1.23424c0.97391,-0.02381 1.8268,-0.79215 2.62973,-1.18264c0.86417,-0.42028 1.67048,-0.46303 2.50754,-0.4358c0.57065,0.01856 3.0888,1.09103 4.56629,2.43143c1.84767,1.67623 4.26175,0.78296 4.64154,0.79163c1.64544,0.03757 2.49948,-0.49752 2.49948,-0.49752z" fill="#ffffff" stroke="#000000" stroke-width="0.5" stroke-linecap="round"/><path d="M267.84028,166.61037l20.82368,0.06l37.46274,-0.05969l38.4784,-0.30477l0.65049,15.53718l-97.63371,0.09196l-0.07774,-1.59452l-0.37501,-30.82876" fill="none" stroke="#000000" stroke-width="0.5" stroke-linecap="round"/><path d="" fill="#000000" stroke="none" stroke-width="0.5" stroke-linecap="butt"/><path d="" fill="#66f4ff" stroke="none" stroke-width="0.5" stroke-linecap="butt"/><path d="" data-paper-data="{&quot;index&quot;:null}" fill="#66f4ff" stroke="none" stroke-width="0.5" stroke-linecap="butt"/><path d="" fill="#66f4ff" stroke="none" stroke-width="0.5" stroke-linecap="butt"/><path d="" fill="#66f4ff" stroke="none" stroke-width="0.5" stroke-linecap="butt"/></g></g></svg>