<svg version="1.1" xmlns="http://www.w3.org/2000/svg" xmlns:xlink="http://www.w3.org/1999/xlink" width="65.96776" height="69.26612" viewBox="0,0,65.96776,69.26612"><defs><linearGradient x1="107.66326" y1="108.0417" x2="173.63102" y2="108.0417" gradientUnits="userSpaceOnUse" id="color-1"><stop offset="0" stop-color="#4100db"/><stop offset="1" stop-color="#00c6db"/></linearGradient></defs><g transform="translate(-107.66326,-73.40864)"><g data-paper-data="{&quot;isPaintingLayer&quot;:true}" fill-rule="nonzero" stroke-linejoin="miter" stroke-miterlimit="10" stroke-dasharray="" stroke-dashoffset="0" style="mix-blend-mode: normal"><text transform="translate(115.11876,128.95331) scale(0.32984,0.32984)" font-size="40" xml:space="preserve" fill="#db00b7" fill-rule="nonzero" stroke="none" stroke-width="1" stroke-linecap="butt" stroke-linejoin="miter" stroke-miterlimit="10" stroke-dasharray="" stroke-dashoffset="0" font-family="Sans Serif" font-weight="normal" text-anchor="start" style="mix-blend-mode: normal"><tspan x="0" dy="0">glasses</tspan></text><path d="M128.19736,102.72673c0,0.49476 -0.49476,0.49476 -0.49476,0.49476l-0.49936,-0.02539c-2.26538,-0.77655 -4.4135,-1.66891 -6.50733,-2.93678c-0.96273,-0.58296 -2.484,-2.05865 -3.62326,-2.00989c0,0 -0.49476,0 -0.49476,-0.49476c0,-0.49476 0.49476,-0.49476 0.49476,-0.49476c1.47934,0.03823 2.89361,1.40032 4.13592,2.15305c2.0269,1.22813 4.1019,2.1256 6.30758,2.84441l0.18644,-0.02539c0,0 0.49476,0 0.49476,0.49476z" fill="#db00b7" stroke="none" stroke-width="0.5" stroke-linecap="butt"/><path d="M150.76474,94.78751c-0.16069,0.46793 -0.62862,0.30724 -0.62862,0.30724l-0.2948,-0.1065c-3.63258,-0.72159 -7.66633,-2.15725 -11.00234,-3.77705c0,0 -0.44439,-0.21749 -0.2269,-0.66188c0.21749,-0.44439 0.66188,-0.2269 0.66188,-0.2269c3.19653,1.57878 7.24904,3.05734 10.75316,3.69391l0.43038,0.14254c0,0 0.46793,0.16069 0.30724,0.62862z" fill="#db00b7" stroke="none" stroke-width="0.5" stroke-linecap="butt"/><path d="M144.50476,103.58398c0,4.82918 -3.988,8.74399 -8.90743,8.74399c-4.91944,0 -8.90743,-3.91482 -8.90743,-8.74399c0,-4.82918 3.988,-8.74399 8.90743,-8.74399c4.91944,0 8.90743,3.91482 8.90743,8.74399z" fill="#db00b7" stroke="none" stroke-width="0" stroke-linecap="butt"/><path d="M159.24956,99.04055c0,4.68714 -3.49263,8.48682 -7.80102,8.48682c-4.30838,0 -7.80102,-3.79968 -7.80102,-8.48682c0,-4.68714 3.49263,-8.48682 7.80102,-8.48682c4.30838,0 7.80102,3.79968 7.80102,8.48682z" fill="#db00b7" stroke="none" stroke-width="0" stroke-linecap="butt"/><path d="M173.63102,108.0417c0,19.12732 -14.76738,34.63306 -32.98388,34.63306c-18.21649,0 -32.98388,-15.50575 -32.98388,-34.63306c0,-19.12732 14.76738,-34.63306 32.98388,-34.63306c18.21649,0 32.98388,15.50575 32.98388,34.63306z" fill="url(#color-1)" stroke="#0b61a3" stroke-width="0" stroke-linecap="butt"/><text transform="translate(114.2218,112.35456) scale(0.4241,0.4241)" font-size="40" xml:space="preserve" fill="#ffffff" fill-rule="nonzero" stroke="none" stroke-width="1" stroke-linecap="butt" stroke-linejoin="miter" stroke-miterlimit="10" stroke-dasharray="" stroke-dashoffset="0" font-family="&quot;GenEiPOPlePw-Bk&quot;, Sans Serif" font-weight="normal" text-anchor="start" style="mix-blend-mode: normal"><tspan x="0" dy="0">gafas</tspan></text><g><path d="M141.79094,126.09979c0.01606,0.24396 -0.20961,0.25881 -0.20961,0.25881c-0.25244,0.01661 -0.64258,0.04228 -0.89502,0.0589c0,0 -0.22567,0.01485 -0.24172,-0.22911c-0.01606,-0.24396 0.03917,-0.3971 0.03917,-0.3971c0.25244,-0.01661 0.20654,-0.01359 0.45899,-0.03021l0.61963,-0.04077c0,0 0.21252,0.13552 0.22857,0.37948z" fill="#000000" stroke="none" stroke-width="0.5" stroke-linecap="butt"/><path d="M139.00214,117.55576c0,0 1.27878,0.93069 1.62464,3.59012c0.28921,2.2239 -0.30033,6.44929 -1.40599,8.13122c-1.47613,2.24549 -3.26401,5.18049 -4.98305,6.17533c-1.9689,1.13944 -3.78418,0.16845 -3.85787,0.11425c-0.33412,-0.24577 -0.85966,-0.65398 -1.42157,-1.17388c-1.75776,-1.62633 -4.28808,-4.45631 -5.3641,-7.60589c-0.22439,-0.65682 -0.52151,-1.36872 -0.6751,-2.41911c-0.18844,-1.28879 -0.09398,-3.34242 0.09539,-4.08258c0.16421,-0.64186 0.85225,-2.0029 2.3108,-2.39187c0.99812,-0.26618 0.72436,-0.06399 1.94848,-0.15738c1.04408,-0.07966 1.64446,-0.00649 2.26768,0.67821c0.59966,0.65881 1.32424,1.91378 2.26368,2.31933c0.13657,0.05896 2.02296,-2.39957 2.18067,-2.40257c0,0 0.38466,-0.56176 1.09708,-0.85782c0.6477,-0.26916 1.65227,-0.44444 2.04155,-0.49121c0.87314,-0.1049 1.8777,0.57384 1.8777,0.57384z" fill-opacity="0.56471" fill="#ff00fb" stroke-opacity="0.58039" stroke="#000000" stroke-width="1" stroke-linecap="round"/><path d="M157.82261,117.95057c0,0 1.27879,0.9307 1.62464,3.59012c0.28921,2.2239 -0.30033,6.44929 -1.40599,8.13122c-1.47613,2.24549 -3.26401,5.18049 -4.98305,6.17533c-1.9689,1.13944 -3.78419,0.16844 -3.85788,0.11424c-0.33412,-0.24577 -0.85966,-0.65398 -1.42157,-1.17388c-1.75776,-1.62633 -4.28809,-4.45632 -5.36409,-7.60589c-0.22439,-0.65682 -0.52151,-1.36872 -0.6751,-2.41911c-0.18844,-1.28879 -0.09398,-3.34242 0.09538,-4.08258c0.16421,-0.64186 0.85225,-2.0029 2.3108,-2.39187c0.99812,-0.26618 0.72436,-0.06399 1.94848,-0.15738c1.04408,-0.07966 1.64446,-0.00649 2.26768,0.67821c0.59966,0.65881 1.32424,1.91378 2.26368,2.31933c0.13657,0.05896 2.02296,-2.39957 2.18067,-2.40257c0,0 0.38466,-0.56176 1.09708,-0.85782c0.6477,-0.26916 1.65227,-0.44444 2.04155,-0.49121c0.87314,-0.1049 1.8777,0.57384 1.8777,0.57384z" fill-opacity="0.56471" fill="#ff00fb" stroke-opacity="0.58039" stroke="#000000" stroke-width="1" stroke-linecap="round"/></g></g></g></svg>