<svg version="1.1" xmlns="http://www.w3.org/2000/svg" xmlns:xlink="http://www.w3.org/1999/xlink" width="121.22439" height="81.45241" viewBox="0,0,121.22439,81.45241"><g transform="translate(-255.82891,-121.44716)"><g data-paper-data="{&quot;isPaintingLayer&quot;:true}" fill-rule="nonzero" stroke-linejoin="miter" stroke-miterlimit="10" stroke-dasharray="" stroke-dashoffset="0" style="mix-blend-mode: normal"><path d="M354.98391,181.12942c-0.1368,2.02371 0.00133,4.18502 0.52447,6.11536c0.25522,0.94174 1.26264,2.25495 0.37863,2.75654c-3.12985,2.74908 -8.02748,4.12133 -11.94624,4.11678c-4.08305,0 -7.93351,0.07484 -11.43917,-2.42381c-0.7427,-0.52639 -1.15179,-1.82489 -1.33798,-3.40184c-0.24282,-2.05655 -0.10655,-4.58671 0.1632,-6.49559c4.06011,0.34497 8.88355,0.19039 11.7582,-0.07704c0.98929,0 1.94503,-0.14366 2.8475,-0.41125c0.3077,0.00804 0.64966,-0.00858 0.99151,-0.03628c2.61929,0.09204 5.21123,-0.03081 7.14648,-0.17457c0.30514,-0.00254 0.61028,-0.00503 0.91542,-0.00745c-0.00047,0.013 -0.00113,0.02605 -0.00201,0.03914z" data-paper-data="{&quot;noHover&quot;:false,&quot;origItem&quot;:[&quot;Path&quot;,{&quot;applyMatrix&quot;:true,&quot;segments&quot;:[[[600.0597,426.4568],[0,0],[-7.5905,0.00884]],[[577.4863,425.32288],[7.57818,0.12412],[1.38496,4.39334]],[[576.16108,438.72902],[1.32276,-4.30312],[-0.51044,1.66054]],[[576.21646,443.56994],[-1.76802,-0.88444],[6.25968,4.84736]],[[599.20326,450.75268],[-7.83752,0.00802],[8.1661,0]],[[621.98186,446.5415],[-7.01132,4.40578],[4.27036,-2.66838]],[[623.51512,425.54534],[1.497,4.49098],[0,0]],[623.45456,425.44668],[[623.34568,424.86616],[-0.02416,0.31446],[-7.76494,-0.40278]],[[600.05968,426.4568],[7.8658,0.99082],[0,0]]],&quot;closed&quot;:true,&quot;fillColor&quot;:[0,0,0,1]}],&quot;index&quot;:null}" fill="#c7941d" stroke="none" stroke-width="0.5" stroke-linecap="butt"/><path d="M356.48198,187.26078c0.40558,1.31686 0.95816,2.72307 -0.43159,3.55022c-3.26224,2.54965 -7.9536,3.75328 -12.04483,3.75715c-4.29315,0 -8.21947,0.04047 -11.91929,-2.25759c-2.34229,-1.46425 -2.1782,-7.36146 -1.47505,-10.58061c0.33027,0.03384 0.66697,0.06405 1.00853,0.09085c-0.6189,2.789 -0.91305,8.44859 0.99651,9.6418c3.50566,2.20289 7.30625,2.10559 11.3893,2.10559c3.91876,0.00401 8.36356,-1.16769 11.4934,-3.59137c0.88401,-0.44222 0.28291,-1.59019 0.02769,-2.42046c-0.6375,-2.07388 -1.30504,-4.33662 -0.73226,-6.46454c0.34787,-0.00279 0.69573,-0.00549 1.04359,-0.00809c-0.67541,1.99952 0.04467,4.23118 0.644,6.17706z" data-paper-data="{&quot;index&quot;:null}" fill="#000000" stroke="none" stroke-width="0.5" stroke-linecap="butt"/><path d="M302.55039,192.76511c-3.69982,2.29806 -7.62614,2.25759 -11.91929,2.25759c-4.09123,-0.00387 -8.78259,-1.2075 -12.04483,-3.75715c-1.38975,-0.82715 -0.83717,-2.23336 -0.43159,-3.55022c0.55579,-1.80457 1.21545,-3.8549 0.76966,-5.73794c0.33948,0.00245 0.67897,0.00488 1.01844,0.00729c0.38112,1.99818 -0.23886,4.09416 -0.83277,6.02622c-0.25522,0.83027 -0.85632,1.97824 0.02769,2.42046c3.12984,2.42368 7.57464,3.59538 11.4934,3.59137c4.08305,0 7.88364,0.0973 11.3893,-2.10559c1.9712,-1.23173 1.59412,-7.22285 0.93563,-9.90267c0.34303,-0.00287 0.68605,-0.00593 1.02907,-0.00922c0.73642,3.17437 0.95176,9.268 -1.43471,10.75986z" fill="#000000" stroke="none" stroke-width="0.5" stroke-linecap="butt"/><path d="M303.47308,188.747c-0.18619,1.57695 -0.59528,2.87545 -1.33798,3.40184c-3.50566,2.49865 -7.35612,2.42381 -11.43917,2.42381c-3.91876,0.00455 -8.81639,-1.3677 -11.94624,-4.11678c-0.88401,-0.50159 0.12341,-1.8148 0.37863,-2.75654c0.48892,-1.80407 0.64155,-3.80987 0.54775,-5.71654c7.86667,0.05606 15.73334,0.09758 23.59875,0.02896c0.29255,1.93286 0.45139,4.5914 0.19826,6.73525z" data-paper-data="{&quot;noHover&quot;:false,&quot;origItem&quot;:[&quot;Path&quot;,{&quot;applyMatrix&quot;:true,&quot;segments&quot;:[[[600.0597,426.4568],[0,0],[-7.5905,0.00884]],[[577.4863,425.32288],[7.57818,0.12412],[1.38496,4.39334]],[[576.16108,438.72902],[1.32276,-4.30312],[-0.51044,1.66054]],[[576.21646,443.56994],[-1.76802,-0.88444],[6.25968,4.84736]],[[599.20326,450.75268],[-7.83752,0.00802],[8.1661,0]],[[621.98186,446.5415],[-7.01132,4.40578],[4.27036,-2.66838]],[[623.51512,425.54534],[1.497,4.49098],[0,0]],[623.45456,425.44668],[[623.34568,424.86616],[-0.02416,0.31446],[-7.76494,-0.40278]],[[600.05968,426.4568],[7.8658,0.99082],[0,0]]],&quot;closed&quot;:true,&quot;fillColor&quot;:[0,0,0,1]}]}" fill="#c7941d" stroke="none" stroke-width="0.5" stroke-linecap="butt"/><path d="M345.32517,181.62542c0.07873,-0.02125 0.15707,-0.04344 0.23501,-0.06655c0.3077,0.00804 0.64966,-0.00858 0.99152,-0.03628c0.15535,0.00546 0.31059,0.01016 0.46562,0.01415c-0.56312,0.03492 -1.12696,0.06556 -1.69214,0.08868z" data-paper-data="{&quot;index&quot;:null}" fill="#000000" stroke="none" stroke-width="0.5" stroke-linecap="butt"/><path d="M345.69749,181.37513c0.07873,-0.02125 0.15707,-0.04344 0.23501,-0.06655c0.3077,0.00804 0.64966,-0.00858 0.99152,-0.03628c0.15535,0.00546 0.31059,0.01016 0.46562,0.01415c-0.56312,0.03492 -1.12696,0.06556 -1.69214,0.08868z" data-paper-data="{&quot;index&quot;:null}" fill="#000000" stroke="none" stroke-width="0.5" stroke-linecap="butt"/><path d="M267.55915,182.01462v-15.50258c0,0 93.01445,-0.64968 96.78396,-0.66259c0.2346,-0.00081 0.59508,0.49662 0.59508,0.49662l0.38725,15.66854z" fill="#c7941d" stroke="#000000" stroke-width="0" stroke-linecap="butt"/><path d="M364.64878,153.21594l-0.11955,12.74152l-95.39679,0.37453l-1.60097,0.02202l-0.39719,-15.26153c0,0 0.40531,0.10139 1.5872,1.27129c0.24885,0.00375 1.10399,0.5162 1.79203,0.88321c0.85267,0.45482 1.50254,0.60398 2.19875,0.58613c0.94833,-0.02432 5.70986,-2.63463 6.99455,-2.68887c0.85061,-0.03591 3.18247,2.31877 4.15337,2.27853c0.39328,-0.0163 3.64848,-0.2769 6.99084,-1.05986c0.86871,-0.2035 1.36602,-0.5008 2.20869,-0.78945c1.33245,-0.45641 2.86357,-0.89116 3.03707,-0.89916c1.34202,-0.06187 3.33575,1.12104 4.95947,1.99095c0.97408,0.52186 1.58809,0.93109 2.48351,0.89135c0.5598,-0.02484 1.81613,0.04561 3.68542,-0.71499c1.61829,-0.65847 3.87359,-2.16183 4.37361,-2.18853c0.86026,-0.04595 6.77602,0.52828 7.64276,0.482c0.65184,-0.03481 1.92199,0.90475 2.56932,0.86897c0.44484,-0.02459 3.81294,-1.46773 4.25494,-1.4934c0.45211,-0.02626 2.80963,1.09868 5.02899,1.76603c1.42928,0.42978 3.00874,0.51417 3.29417,0.49725c0,0 1.23798,0.11133 3.33936,-0.47588c1.83429,-0.51257 4.11963,-1.63755 5.24995,-1.72975c0.64904,-0.05294 2.70445,1.41092 3.63416,1.37663c0.72095,-0.02659 4.15516,-1.83842 4.96471,-1.88739c0.77729,-0.04702 2.35603,0.11352 2.92752,0.6113c1.55851,1.35751 3.19275,2.39469 5.244,2.64796c0.77389,0.09555 1.03555,0.1992 1.57867,0.19734c2.87083,-0.00985 3.32147,-0.29819 3.32147,-0.29819z" fill="#ffffff" stroke="#000000" stroke-width="0.5" stroke-linecap="round"/><path d="M302.87908,168.95692l29.39268,0.21299l0.07099,6.53171h-29.46368z" fill="#000000" stroke="#000000" stroke-width="0.5" stroke-linecap="round"/><path d="M268.0519,166.57692l20.82368,0.06l37.46274,-0.05969l38.4784,-0.30477l0.65049,15.53718l-97.63371,0.09196l-0.07774,-1.59452l-0.37501,-29.49938" fill="none" stroke="#000000" stroke-width="0.5" stroke-linecap="round"/><path d="M297.14189,168.95692l0.071,6.88669h-22.57699v-6.7447z" fill="#000000" stroke="#000000" stroke-width="0.5" stroke-linecap="round"/><path d="M360.1948,168.95692l0.071,6.7447l-23.42895,-0.071l0.071,-6.74469z" fill="#000000" stroke="#000000" stroke-width="0.5" stroke-linecap="round"/><path d="M337.47848,152.55442l-5.99467,7.31932l-8.02509,-8.15787c0,0 1.40279,-0.79854 2.19734,-0.88948c1.28346,-0.14689 4.18238,1.3939 6.91476,1.88377c2.50221,0.4486 4.90766,-0.15574 4.90766,-0.15574z" fill="none" stroke="#000000" stroke-width="0.5" stroke-linecap="round"/><path d="M309.01921,152.08898l-7.46013,8.20558l-8.50939,-8.51236c0,0 1.69637,-0.76675 2.37455,-0.82864c0.31088,-0.02837 1.26693,-0.32274 2.34318,0.08599c1.06403,0.4041 2.24554,1.51143 3.03726,1.47025c0.4964,-0.02582 2.50393,1.07793 3.00219,1.01235c3.97562,-0.52328 5.21233,-1.43316 5.21233,-1.43316z" fill="none" stroke="#000000" stroke-width="0.5" stroke-linecap="round"/><path d="M322.44757,164.90488c0,0 0.05208,1.35916 0.12858,1.92011c0.06211,0.4555 -2.97517,3.14996 -2.97517,3.14996l-3.7813,2.84659l-6.03309,-5.86314v-1.88357l2.68649,-8.91904l0.04248,-1.75805l-2.23057,-2.89896c0,0 0.82508,-0.93994 1.52064,-0.92952c1.15172,0.01725 5.22889,0.07082 7.55028,0.4582c1.35326,0.22582 1.95596,0.87903 1.95596,0.87903l-2.65543,2.47157l0.08497,1.85957l3.70617,8.66725z" fill="#ff0000" stroke="#000000" stroke-width="0.5" stroke-linecap="round"/><path d="" fill="#000000" stroke="none" stroke-width="0.5" stroke-linecap="butt"/><path d="" fill="#66f4ff" stroke="none" stroke-width="0.5" stroke-linecap="butt"/><path d="" data-paper-data="{&quot;index&quot;:null}" fill="#66f4ff" stroke="none" stroke-width="0.5" stroke-linecap="butt"/><path d="" fill="#66f4ff" stroke="none" stroke-width="0.5" stroke-linecap="butt"/><path d="" fill="#66f4ff" stroke="none" stroke-width="0.5" stroke-linecap="butt"/><path d="M368.40103,122.17732c0.45502,0.06727 0.65285,-0.0167 0.68565,-0.18811c2.25662,0.06838 3.82756,2.58169 4.94581,4.25905c0.4273,1.16694 1.11752,2.26069 1.38768,3.59886c0.25951,1.28544 0.08655,3.06267 0.65918,4.2307c0.4151,2.58284 0.72395,5.15771 0.72395,7.78205c0,3.09308 -2.24941,4.47032 -5.25872,4.90827c-2.79346,0.02112 -0.51816,1.01353 -3.21293,-0.06759c-2.61784,-0.88964 -2.05638,-5.5779 -1.35689,-7.59214c1.05396,-3.04672 2.75133,-7.21702 3.54021,-10.37097c0.31627,-1.2674 -3.73566,-7.64128 -2.11395,-6.56014z" data-paper-data="{&quot;noHover&quot;:false,&quot;origItem&quot;:[&quot;Path&quot;,{&quot;applyMatrix&quot;:true,&quot;segments&quot;:[[[273.23414,152.39607],[0.0328,0.17141],[-2.25662,0.06838]],[[267.6027,156.64807],[1.11824,-1.67736],[-0.4273,1.16694]],[[266.22965,160.23355],[0.27016,-1.33817],[-0.25952,1.28544]],[[265.58001,164.43753],[0.57263,-1.16803],[-0.4151,2.58284]],[[264.8422,172.1822],[0,-2.62434],[0,3.09309]],[[270.07461,177.07606],[-3.00931,-0.43795],[2.79345,0.02112]],[[278.25584,176.58401],[-2.69477,1.08112],[2.61784,-0.88964]],[[279.5891,168.01622],[0.69949,2.01424],[-1.05395,-3.04672]],[[277.20773,158.42042],[0.78889,3.15395],[-0.31628,-1.26739]],[[273.91699,152.58394],[1.62171,-1.08114],[-0.45502,0.06727]]],&quot;closed&quot;:true}],&quot;index&quot;:null}" fill="#ffffff" stroke="#000000" stroke-width="0.5" stroke-linecap="butt"/><path d="M263.33833,121.89159c1.62171,-1.08114 -1.43022,5.29273 -1.11395,6.56013c0.13352,0.53382 -0.13141,1.09674 0.05344,1.67842c0.21421,0.67407 0.26674,2.07165 0.67003,2.75557c1.30488,2.21284 3.43361,3.14637 4.10246,5.07985c0.50178,1.44492 0.29176,4.06619 -0.42964,6.16473c-0.28424,0.82685 -0.04447,2.17595 -0.7844,2.42741c-2.69477,1.08112 -1.70518,-0.05415 -4.49864,-0.07527c-3.00931,-0.43795 -5.25872,-1.81519 -5.25872,-4.90827c0,-2.62434 0.30885,-5.19921 0.72395,-7.78205c0.57263,-1.16803 0.39967,-2.94526 0.65918,-4.2307c0.27016,-1.33817 0.96038,-2.43192 1.38768,-3.59886c1.11824,-1.67736 1.54633,-4.19067 3.80295,-4.25905c0.0328,0.17141 0.23063,0.25538 0.68565,0.18811z" data-paper-data="{&quot;noHover&quot;:false,&quot;origItem&quot;:[&quot;Path&quot;,{&quot;applyMatrix&quot;:true,&quot;segments&quot;:[[[273.23414,152.39607],[0.0328,0.17141],[-2.25662,0.06838]],[[267.6027,156.64807],[1.11824,-1.67736],[-0.4273,1.16694]],[[266.22965,160.23355],[0.27016,-1.33817],[-0.25952,1.28544]],[[265.58001,164.43753],[0.57263,-1.16803],[-0.4151,2.58284]],[[264.8422,172.1822],[0,-2.62434],[0,3.09309]],[[270.07461,177.07606],[-3.00931,-0.43795],[2.79345,0.02112]],[[278.25584,176.58401],[-2.69477,1.08112],[2.61784,-0.88964]],[[279.5891,168.01622],[0.69949,2.01424],[-1.05395,-3.04672]],[[277.20773,158.42042],[0.78889,3.15395],[-0.31628,-1.26739]],[[273.91699,152.58394],[1.62171,-1.08114],[-0.45502,0.06727]]],&quot;closed&quot;:true}],&quot;index&quot;:null}" fill="#ffffff" stroke="#000000" stroke-width="0.5" stroke-linecap="butt"/><path d="" fill="#000000" stroke="none" stroke-width="0.5" stroke-linecap="butt"/><path d="" fill="#66f4ff" stroke="none" stroke-width="0.5" stroke-linecap="butt"/><path d="" data-paper-data="{&quot;index&quot;:null}" fill="#66f4ff" stroke="none" stroke-width="0.5" stroke-linecap="butt"/><path d="" fill="#66f4ff" stroke="none" stroke-width="0.5" stroke-linecap="butt"/><path d="" fill="#66f4ff" stroke="none" stroke-width="0.5" stroke-linecap="butt"/><g stroke-linecap="butt"><path d="M345.2249,175.37696c0.0784,-0.02377 0.15641,-0.0486 0.23403,-0.07446c0.30642,0.00899 0.64695,-0.0096 0.98738,-0.04059c0.1547,0.00611 0.30929,0.01137 0.46368,0.01584c-0.56077,0.03907 -1.12226,0.07336 -1.68508,0.09921z" data-paper-data="{&quot;index&quot;:null}" fill="#000000" stroke="none" stroke-width="0.5"/><path d="M345.59567,175.09692c0.0784,-0.02377 0.15641,-0.0486 0.23403,-0.07446c0.30642,0.00899 0.64695,-0.0096 0.98738,-0.04059c0.1547,0.00611 0.30929,0.01137 0.46368,0.01584c-0.56077,0.03907 -1.12226,0.07336 -1.68508,0.09921z" data-paper-data="{&quot;index&quot;:null}" fill="#000000" stroke="none" stroke-width="0.5"/><path d="M337.58165,189.19341c0.24153,-0.06784 0.3019,0.20351 0.3019,0.20351l0.04284,0.19594c0.9587,3.29002 -0.70106,5.75837 -0.27832,9.04032c0.06905,0.76565 1.31883,3.02781 0.63674,3.65942c-1.7861,1.65393 -2.40319,-2.92352 -2.17241,-3.86386c0.69183,-2.79034 0.33847,-4.95337 0.60757,-7.69555c0,0 0.02749,-0.278 0.27493,-0.2471c0.24743,0.03089 0.21994,0.30889 0.21994,0.30889c-0.27424,2.75045 0.06892,4.97773 -0.62269,7.78348c-0.19696,0.79025 -0.18604,3.88741 1.37082,3.28727c0.13055,-0.05033 -0.77665,-2.85874 -0.80886,-3.16212c-0.40818,-3.24919 1.26512,-5.72848 0.29991,-8.93388l-0.05353,-0.23717c0,0 -0.06038,-0.27136 0.18114,-0.3392z" fill="#cc0000" stroke="#730000" stroke-width="0.5"/><path d="M338.80223,188.66989c0.24152,-0.06784 0.3019,0.20352 0.3019,0.20352l0.04285,0.19594c0.9587,3.29 -0.70106,5.75837 -0.27832,9.04032c0.06905,0.76566 1.31884,3.02781 0.63674,3.65941c-1.7861,1.65393 -2.40318,-2.92352 -2.17241,-3.86385c0.69183,-2.79033 0.33847,-4.95336 0.60757,-7.69554c0,0 0.02749,-0.27801 0.27493,-0.24711c0.24743,0.03089 0.21995,0.30889 0.21995,0.30889c-0.27424,2.75045 0.06892,4.97772 -0.62269,7.78348c-0.19696,0.79025 -0.18604,3.88741 1.37082,3.28728c0.13055,-0.05033 -0.77665,-2.85874 -0.80885,-3.16211c-0.40817,-3.24919 1.26512,-5.72848 0.29991,-8.93388l-0.05353,-0.23717c0,0 -0.06038,-0.27136 0.18114,-0.3392z" fill="#cc0000" stroke="#730000" stroke-width="0.5"/><path d="M340.16736,188.57948c0.24152,-0.06784 0.3019,0.20352 0.3019,0.20352l0.04285,0.19594c0.9587,3.29 -0.70106,5.75837 -0.27832,9.04032c0.06905,0.76566 1.31884,3.02781 0.63674,3.65941c-1.7861,1.65393 -2.40318,-2.92352 -2.17241,-3.86385c0.69183,-2.79033 0.33847,-4.95337 0.60757,-7.69555c0,0 0.02749,-0.27801 0.27493,-0.24711c0.24743,0.03089 0.21994,0.30889 0.21994,0.30889c-0.27424,2.75045 0.06892,4.97772 -0.62269,7.78348c-0.19696,0.79025 -0.18604,3.88741 1.37082,3.28728c0.13055,-0.05033 -0.77665,-2.85874 -0.80885,-3.16211c-0.40817,-3.24919 1.26512,-5.72848 0.29991,-8.93388l-0.05353,-0.23717c0,0 -0.06038,-0.27136 0.18114,-0.3392z" fill="#cc0000" stroke="#730000" stroke-width="0.5"/><path d="M341.86979,188.48906c0.24152,-0.06784 0.3019,0.20352 0.3019,0.20352l0.04285,0.19594c0.9587,3.29 -0.70106,5.75839 -0.27832,9.04032c0.06905,0.76566 1.31884,3.02781 0.63674,3.65941c-1.7861,1.65393 -2.40318,-2.92352 -2.17241,-3.86386c0.69183,-2.79033 0.33847,-4.95336 0.60757,-7.69554c0,0 0.02749,-0.27801 0.27493,-0.24711c0.24743,0.03089 0.21995,0.30889 0.21995,0.30889c-0.27424,2.75045 0.06892,4.97772 -0.62269,7.78348c-0.19696,0.79025 -0.18604,3.88741 1.37082,3.28727c0.13055,-0.05033 -0.77666,-2.85874 -0.80886,-3.16211c-0.40817,-3.24919 1.26512,-5.72848 0.29991,-8.93386l-0.05353,-0.23717c0,0 -0.06038,-0.27136 0.18114,-0.3392z" fill="#cc0000" stroke="#730000" stroke-width="0.5"/><path d="M343.42768,188.61521c0.24152,-0.06784 0.3019,0.20352 0.3019,0.20352l0.04285,0.19594c0.9587,3.29 -0.70106,5.75837 -0.27832,9.04032c0.06905,0.76566 1.31884,3.02781 0.63674,3.65941c-1.7861,1.65393 -2.40318,-2.92352 -2.17241,-3.86385c0.69183,-2.79033 0.33847,-4.95337 0.60757,-7.69555c0,0 0.02749,-0.27801 0.27493,-0.24711c0.24743,0.03089 0.21995,0.30889 0.21995,0.30889c-0.27424,2.75045 0.06892,4.97772 -0.62269,7.78348c-0.19696,0.79025 -0.18604,3.88741 1.37082,3.28728c0.13055,-0.05033 -0.77665,-2.85874 -0.80885,-3.16211c-0.40817,-3.24919 1.26512,-5.72848 0.29991,-8.93388l-0.05353,-0.23717c0,0 -0.06038,-0.27136 0.18114,-0.3392z" fill="#cc0000" stroke="#730000" stroke-width="0.5"/><path d="M344.7928,188.30823c0.24152,-0.06784 0.3019,0.20352 0.3019,0.20352l0.04285,0.19594c0.9587,3.29 -0.70106,5.75837 -0.27832,9.04032c0.06905,0.76566 1.31884,3.02781 0.63674,3.65941c-1.7861,1.65393 -2.40318,-2.92352 -2.17241,-3.86385c0.69183,-2.79033 0.33847,-4.95336 0.60757,-7.69554c0,0 0.02749,-0.27801 0.27493,-0.24711c0.24743,0.03089 0.21995,0.30889 0.21995,0.30889c-0.27424,2.75045 0.06892,4.97772 -0.62269,7.78348c-0.19696,0.79025 -0.18604,3.88741 1.37082,3.28727c0.13055,-0.05033 -0.77666,-2.85874 -0.80886,-3.16211c-0.40817,-3.24919 1.26512,-5.72848 0.29991,-8.93386l-0.05353,-0.23717c0,0 -0.06038,-0.27136 0.18114,-0.3392z" fill="#cc0000" stroke="#730000" stroke-width="0.5"/><path d="M346.54342,188.16368c0.24152,-0.06784 0.3019,0.20352 0.3019,0.20352l0.04285,0.19594c0.9587,3.29 -0.70106,5.75839 -0.27832,9.04032c0.06905,0.76566 1.31884,3.02781 0.63674,3.65941c-1.7861,1.65393 -2.40318,-2.92352 -2.17241,-3.86385c0.69183,-2.79033 0.33847,-4.95337 0.60756,-7.69555c0,0 0.02749,-0.27801 0.27493,-0.24711c0.24743,0.03089 0.21995,0.30889 0.21995,0.30889c-0.27424,2.75045 0.06892,4.97772 -0.62269,7.78348c-0.19696,0.79025 -0.18604,3.88741 1.37082,3.28728c0.13055,-0.05033 -0.77666,-2.85874 -0.80886,-3.16211c-0.40817,-3.24919 1.26512,-5.72848 0.29991,-8.93388l-0.05353,-0.23717c0,0 -0.06038,-0.27136 0.18114,-0.3392z" fill="#cc0000" stroke="#730000" stroke-width="0.5"/><path d="M347.76399,187.85672c0.24152,-0.06784 0.3019,0.20352 0.3019,0.20352l0.04285,0.19594c0.9587,3.29 -0.70106,5.75839 -0.27832,9.04032c0.06905,0.76566 1.31884,3.02781 0.63674,3.65941c-1.7861,1.65393 -2.40318,-2.92352 -2.17241,-3.86385c0.69183,-2.79033 0.33847,-4.95337 0.60757,-7.69555c0,0 0.02749,-0.27801 0.27493,-0.24711c0.24743,0.03089 0.21995,0.30889 0.21995,0.30889c-0.27424,2.75045 0.06892,4.97772 -0.62269,7.78348c-0.19696,0.79025 -0.18604,3.88741 1.37082,3.28728c0.13055,-0.05033 -0.77665,-2.85874 -0.80885,-3.16211c-0.40817,-3.24919 1.26512,-5.72848 0.29991,-8.93388l-0.05353,-0.23717c0,0 -0.06038,-0.27136 0.18114,-0.3392z" fill="#cc0000" stroke="#730000" stroke-width="0.5"/><path d="M348.88819,187.60388c0.24152,-0.06784 0.3019,0.20352 0.3019,0.20352l0.04285,0.19594c0.24378,0.83658 0.07732,1.34935 0.05978,2.10657c-0.05144,2.22067 -0.65334,4.48636 -0.3381,6.93376c0.06905,0.76566 1.31884,3.02781 0.63674,3.65941c-1.7861,1.65393 -2.40318,-2.92352 -2.17241,-3.86386c0.13301,-0.53648 0.22739,-1.04978 0.29498,-1.54844c0.28398,-2.09504 0.09522,-3.93214 0.31258,-6.1471c0,0 0.02749,-0.27801 0.27493,-0.24711c0.24743,0.03089 0.21994,0.30889 0.21994,0.30889c-0.27424,2.75045 0.06892,4.97772 -0.62269,7.78348c-0.19696,0.79025 -0.18604,3.88741 1.37082,3.28728c0.13055,-0.05033 -0.77665,-2.85874 -0.80885,-3.16211c-0.40817,-3.24919 1.26512,-5.72848 0.29991,-8.93388l-0.05353,-0.23717c0,0 -0.06038,-0.27136 0.18114,-0.3392z" fill="#cc0000" stroke="#730000" stroke-width="0.5"/><path d="M349.35585,199.02785c0.12401,0.30915 0.35743,0.95472 0.22616,1.13218c-0.12974,0.17539 -0.28797,0.50694 -0.50329,0.69057c-0.24481,0.20879 -0.74832,-0.03563 -1.18279,-0.00034c-0.14317,0.01163 -0.44843,0.02787 -0.65652,0.10773c-0.27634,0.10606 -0.46198,0.27899 -0.65589,0.26028c-0.27868,-0.02689 -0.45708,-0.27609 -0.77105,-0.24612c-0.26868,0.02563 -0.66493,0.31924 -0.99284,0.42273c-0.16542,0.0522 -0.54161,-0.22926 -0.70332,-0.19835c-0.12044,0.02302 -0.12724,0.23919 -0.23662,0.35894c-0.1159,0.12691 -0.33403,0.1565 -0.44896,0.13418c-0.0649,-0.01261 -0.30754,0.02545 -0.40074,-0.08104c-0.10099,-0.11538 -0.05408,-0.37463 -0.16321,-0.35183c-0.41289,0.08626 -0.89293,0.24797 -1.13583,0.24797c-0.41459,0 -0.23192,-0.4998 -0.58139,-0.50774c-0.2388,-0.00542 -0.55002,0.67632 -0.85749,0.73369c-0.13843,0.02584 -0.36044,-0.33227 -0.53542,-0.26633c-0.31372,0.11825 -0.5668,0.26417 -0.7739,0.3058c-0.19108,0.03841 -0.24688,-0.31354 -0.46053,-0.22044c-0.14835,0.06464 -0.26729,0.44809 -0.45095,0.61752c-0.14289,0.13182 -0.35623,0.06383 -0.45123,0.06887c-0.26062,0.01382 -0.46268,-0.04571 -0.63686,-0.18797c-0.70296,-0.57416 -0.35306,-4.33285 -0.35306,-5.10571c0,-0.6241 0.39918,-6.25451 0.91583,-6.84542c1.05512,-1.20677 7.77263,-3.95533 9.8539,-3.95533c1.96225,0 1.4699,3.97791 0.9855,7.37983c-0.28096,1.97319 0.97051,5.50636 0.97051,5.50636z" fill="#cc0000" stroke="#730000" stroke-width="0"/><path d="M339.05037,191.88517c0.23618,0.08845 0.15745,0.35381 0.15745,0.35381l-0.07705,0.25969c-0.34283,1.14929 -0.87322,2.08895 -0.87322,3.33067c0,2.00516 0.27608,4.16584 0.49886,6.15434c0,0 0.03088,0.27755 -0.21615,0.31225c-0.24703,0.03469 -0.27792,-0.24286 -0.27792,-0.24286c-0.22217,-2.01204 -0.5027,-4.19491 -0.5027,-6.22374c0,-1.31769 0.54043,-2.29247 0.89877,-3.50757l0.07705,-0.25969c0,0 0.07873,-0.26535 0.31491,-0.1769z" fill="#730000" stroke="none" stroke-width="0.5"/><path d="M340.33143,191.55002c0.23618,0.08845 0.15745,0.35381 0.15745,0.35381l-0.07705,0.25969c-0.34283,1.14929 -0.87321,2.08895 -0.87321,3.33066c0,2.00516 0.27608,4.16584 0.49886,6.15434c0,0 0.03088,0.27755 -0.21615,0.31225c-0.24703,0.03469 -0.27792,-0.24286 -0.27792,-0.24286c-0.22217,-2.01204 -0.5027,-4.19491 -0.5027,-6.22374c0,-1.31769 0.54043,-2.29247 0.89877,-3.50757l0.07704,-0.25969c0,0 0.07873,-0.26535 0.31491,-0.1769z" fill="#730000" stroke="none" stroke-width="0.5"/><path d="M341.49694,191.12829c0.23618,0.08845 0.15745,0.35381 0.15745,0.35381l-0.07705,0.25969c-0.34283,1.14929 -0.87321,2.08895 -0.87321,3.33066c0,2.00516 0.27608,4.16584 0.49886,6.15434c0,0 0.03088,0.27755 -0.21615,0.31225c-0.24703,0.03469 -0.27792,-0.24286 -0.27792,-0.24286c-0.22217,-2.01204 -0.5027,-4.19491 -0.5027,-6.22374c0,-1.31769 0.54043,-2.29247 0.89877,-3.50757l0.07704,-0.25969c0,0 0.07873,-0.26535 0.31491,-0.1769z" fill="#730000" stroke="none" stroke-width="0.5"/><path d="M347.44261,190.71701c0.2459,0.04371 0.207,0.31997 0.207,0.31997l-0.03807,0.27037c-0.17029,1.19692 -0.55621,2.22165 -0.37481,3.44653c0.29292,1.97798 0.88091,4.05843 1.39115,5.97889c0,0 0.07101,0.2681 -0.16761,0.34787c-0.23862,0.07979 -0.30962,-0.18831 -0.30962,-0.18831c-0.51309,-1.94378 -1.1087,-4.04532 -1.40508,-6.04663c-0.19249,-1.29981 0.1982,-2.36104 0.37417,-3.62574l0.03806,-0.27037c0,0 0.0389,-0.27628 0.2848,-0.23257z" fill="#730000" stroke="none" stroke-width="0.5"/><path d="M343.18202,191.24706c0.23618,0.08845 0.15746,0.3538 0.15746,0.3538l-0.07705,0.25969c-0.34283,1.14929 -0.87322,2.08895 -0.87322,3.33067c0,2.00516 0.27608,4.16585 0.49886,6.15434c0,0 0.03088,0.27754 -0.21615,0.31225c-0.24703,0.03469 -0.27792,-0.24286 -0.27792,-0.24286c-0.22217,-2.01204 -0.5027,-4.19491 -0.5027,-6.22374c0,-1.31769 0.54043,-2.29247 0.89877,-3.50757l0.07705,-0.25969c0,0 0.07873,-0.26535 0.31491,-0.1769z" fill="#730000" stroke="none" stroke-width="0.5"/><path d="M344.6557,191.08502c0.23618,0.08845 0.15746,0.3538 0.15746,0.3538l-0.07705,0.25969c-0.34283,1.14929 -0.87322,2.08895 -0.87322,3.33067c0,2.00516 0.27608,4.16585 0.49886,6.15434c0,0 0.03088,0.27754 -0.21615,0.31225c-0.24703,0.03469 -0.27792,-0.24286 -0.27792,-0.24286c-0.22217,-2.01204 -0.5027,-4.19491 -0.5027,-6.22374c0,-1.31769 0.54043,-2.29247 0.89877,-3.50757l0.07705,-0.25969c0,0 0.07873,-0.26535 0.31491,-0.1769z" fill="#730000" stroke="none" stroke-width="0.5"/><path d="M345.65372,190.80336c0.2393,0.07715 0.17063,0.34601 0.17063,0.34601l-0.0672,0.26311c-0.29927,1.16454 -0.7938,2.12857 -0.74706,3.36919c0.07547,2.00337 0.43264,4.149 0.73007,6.12515c0,0 0.0413,0.27583 -0.2042,0.32224c-0.24551,0.0464 -0.28681,-0.22943 -0.28681,-0.22943c-0.2977,-1.99969 -0.66015,-4.16727 -0.73652,-6.19428c-0.0496,-1.31651 0.45366,-2.3161 0.76593,-3.54714l0.0672,-0.26311c0,0 0.06867,-0.26886 0.30797,-0.19171z" fill="#730000" stroke="none" stroke-width="0.5"/><path d="M346.71635,190.66776c0.24314,0.06008 0.18968,0.33326 0.18968,0.33326l-0.05233,0.26734c-0.23345,1.1834 -0.67302,2.18047 -0.55689,3.41531c0.18753,1.99406 0.66416,4.11019 1.07167,6.06139c0,0 0.05666,0.27236 -0.18575,0.33603c-0.24242,0.06366 -0.29909,-0.20869 -0.29909,-0.20869c-0.40912,-1.97467 -0.89223,-4.11234 -1.08198,-6.12993c-0.12323,-1.3104 0.32304,-2.34357 0.56576,-3.59426l0.05233,-0.26734c0,0 0.05348,-0.27317 0.29663,-0.21311z" fill="#730000" stroke="none" stroke-width="0.5"/><path d="M267.17282,162.67341v-12.91541h97.6254v12.91541z" fill="#5ca947" stroke="#457f35" stroke-width="0.5"/><path d="M283.85699,162.33247v-12.12681h9.21513v12.12681z" fill="#cc0000" stroke="#7d2117" stroke-width="0.5"/><path d="M307.56242,162.32189v-12.12681h9.21513v12.12681z" fill="#cc0000" stroke="#7d2117" stroke-width="0.5"/><path d="M330.5186,162.31661v-12.12681h9.21513v12.12681z" fill="#cc0000" stroke="#7d2117" stroke-width="0.5"/><path d="M267.38642,162.3544v-12.12682h7.00262v12.12682z" fill="#cc0000" stroke="#7d2117" stroke-width="0.5"/><path d="M336.63243,192.86554v-45.25211c0,0 2.01329,-0.76336 4.00834,-0.92358c1.58136,-0.12699 3.26099,-0.04675 4.20114,-0.04675c2.07153,0 4.38812,0.97033 4.38812,0.97033v45.25211z" fill="#6fcc56" stroke="#457f35" stroke-width="0.5"/><path d="M337.08837,164.81626v-8.59253h11.60904v8.59253z" fill="#cc0000" stroke="#7d2117" stroke-width="0.5"/><path d="M337.06002,183.8107v-8.59253h11.74484v8.59253z" fill="#cc0000" stroke="#7d2117" stroke-width="0.5"/><path d="M359.24623,162.47323v-12.3268h5.07766v12.3268z" fill="#cc0000" stroke="#7d2117" stroke-width="0.5"/></g></g></g></svg>