<svg version="1.1" xmlns="http://www.w3.org/2000/svg" xmlns:xlink="http://www.w3.org/1999/xlink" width="24.88588" height="45.16324" viewBox="0,0,24.88588,45.16324"><g transform="translate(-310.76752,-33.68586)"><g data-paper-data="{&quot;isPaintingLayer&quot;:true}" fill-rule="nonzero" stroke-linejoin="miter" stroke-miterlimit="10" stroke-dasharray="" stroke-dashoffset="0" style="mix-blend-mode: normal"><path d="M326.22067,35.26396c0,0.87156 -1.26926,1.5781 -2.83497,1.5781c-1.56571,0 -2.83497,-0.70655 -2.83497,-1.5781c0,-0.87156 1.26926,-1.5781 2.83497,-1.5781c1.56571,0 2.83497,0.70655 2.83497,1.5781z" fill="#000000" stroke="none" stroke-width="NaN" stroke-linecap="butt"/><path d="M335.03664,47.67814c0,6.05766 -1.53462,16.70101 -2.4159,24.52295c-0.31342,2.78181 -0.93607,4.50505 -1.12852,6.0613c-0.12249,0.99046 0.02502,-1.71207 -0.83125,-1.71207c-1.14076,0 -5.63362,0.21384 -10.06859,0.06395c-1.86743,-0.06311 -5.66411,0.61431 -6.32333,0.06806c-0.37493,-0.31068 -0.22273,2.30139 -0.33009,1.90843c-0.3478,-1.27301 -0.10893,-1.68761 -0.50801,-3.35219c-0.21031,-2.2459 -0.42511,-3.9125 -0.74355,-6.60278c-0.25554,-2.15889 -0.05743,-3.15344 -0.55209,-5.19018c-0.46047,-1.89601 -0.9111,-5.98312 -0.9111,-7.48706c0,-3.67565 -1.16958,-9.89899 0.23466,-13.04067c0.36623,-0.81937 0.83055,-1.39981 1.36723,-2.21494c0.71641,-1.0881 1.97784,-2.63646 2.89099,-3.21437c2.61832,-1.65705 6.28936,-1.0279 8.58079,-1.0279c5.98473,0 10.73877,1.63434 10.73877,11.21748z" fill="#ffffff" stroke="#000000" stroke-width="0" stroke-linecap="butt"/><path d="M314.18608,76.98107c0,0 -0.42262,1.56039 -0.84823,-2.69599c-0.32326,-3.23279 -1.71262,-13.16327 -2.00223,-17.05564c-0.13997,-1.88121 -0.62832,-4.47245 -0.67042,-6.82419c-0.05649,-3.15516 0.36106,-5.87923 0.36106,-5.87923c0,0 -0.03869,-0.59677 0.45574,-1.80503c0.21338,-0.52144 0.91672,-1.54745 1.11863,-2.04185c0.52517,-1.2859 2.60545,-3.13146 3.67972,-3.56345c0.47214,-0.18986 1.35179,-0.71247 2.6549,-0.7365c0.85301,-0.01573 1.06401,-0.0476 1.60795,-0.05295c0.13342,-0.00131 1.57122,-0.0483 2.85065,0.01233c0.77425,0.03669 1.59815,0.06614 1.73257,0.06587c0.84464,0.08371 2.3812,0.14575 3.55634,0.37628c1.25032,0.24528 3.03121,1.04979 3.22525,1.15906c0.89859,0.91987 0.80795,1.48975 1.16815,1.88184c0.7579,1.14963 1.10543,1.48235 1.17558,2.1248c0.47661,1.22428 0.44413,1.93483 0.44413,1.93483c0,0 0.27364,2.58981 0.4257,5.49634c0.19242,3.67795 -0.55035,8.00021 -0.5529,8.08663c-0.06452,2.1945 -1.60061,10.14004 -2.28666,16.20946c-0.53568,4.73905 -1.36177,3.27848 -1.36177,3.27848" fill="none" stroke="#ff0000" stroke-width="1" stroke-linecap="round"/><g stroke-width="1"><path d="M325.563,42.43042c0,1.31242 -1.03722,2.37634 -2.31669,2.37634c-1.27947,0 -2.31669,-1.06392 -2.31669,-2.37634c0,-1.31242 1.03721,-2.37634 2.31669,-2.37634c1.27947,0 2.31669,1.06393 2.31669,2.37634z" fill="none" stroke="#0026d0" stroke-linecap="butt"/><path d="M323.22828,63.81132l0.05473,-18.82629" fill="none" stroke="#0026d0" stroke-linecap="round"/><path d="M319.08736,49.52429l8.40576,-0.0689" fill="none" stroke="#0026d0" stroke-linecap="round"/><path d="M329.9475,60.44778c0.23631,0.22387 -0.09699,0.49666 -0.09699,0.49666l-0.11451,0.1889c-0.96219,1.27174 -2.03973,2.20694 -3.47065,2.91268c-0.26016,0.12831 -0.7789,0.17851 -1.04391,0.29799c-3.28628,0.36122 -7.79073,-0.21899 -9.81915,-3.16307c0,0 -0.18336,-0.26896 0.08559,-0.45232c0.26896,-0.18336 0.45232,0.0856 0.45232,0.0856c1.41503,2.10121 4.34428,2.8672 6.98092,2.97258c0.77408,0.03094 1.37905,0.0818 2.05697,0.01594c0.18549,-0.08659 0.954,-0.25482 1.13601,-0.34558c0.5085,-0.25359 1.17825,-0.92848 1.25282,-0.98005c0.69603,-0.48138 1.36228,-1.11681 1.88639,-1.80953l0.23402,-0.24384c0,0 0.22386,-0.19983 0.46017,0.02404z" fill="#0026d0" stroke="none" stroke-linecap="butt"/></g><path d="M313.08551,78.34928c0,0 -0.5657,-5.53021 0.99071,-8.36185c0.65499,-1.19164 3.0989,-2.62782 4.4968,-3.40263c1.92441,-1.06665 4.65754,-1.17344 4.65754,-1.17344c0,0 5.09903,-0.43315 6.2188,1.01819c0.98602,1.27798 1.84116,0.95293 2.79492,3.57597c1.5837,4.35549 0.26489,8.295 0.26489,8.295c0,0 -6.51293,0.20694 -9.75784,0.21508c-3.22957,0.00811 -9.66581,-0.16631 -9.66581,-0.16631z" fill="#0086ff" stroke="#0021b7" stroke-width="1" stroke-linecap="round"/></g></g></svg>