<svg version="1.1" xmlns="http://www.w3.org/2000/svg" xmlns:xlink="http://www.w3.org/1999/xlink" width="121.22439" height="73.57559" viewBox="0,0,121.22439,73.57559"><g transform="translate(-255.82891,-121.44716)"><g data-paper-data="{&quot;isPaintingLayer&quot;:true}" fill-rule="nonzero" stroke-linejoin="miter" stroke-miterlimit="10" stroke-dasharray="" stroke-dashoffset="0" style="mix-blend-mode: normal"><path d="M354.98391,181.12942c-0.1368,2.02371 0.00133,4.18502 0.52447,6.11536c0.25522,0.94174 1.26264,2.25495 0.37863,2.75654c-3.12985,2.74908 -8.02748,4.12133 -11.94624,4.11678c-4.08305,0 -7.93351,0.07484 -11.43917,-2.42381c-0.7427,-0.52639 -1.15179,-1.82489 -1.33798,-3.40184c-0.24282,-2.05655 -0.10655,-4.58671 0.1632,-6.49559c4.06011,0.34497 8.88355,0.19039 11.7582,-0.07704c0.98929,0 1.94503,-0.14366 2.8475,-0.41125c0.3077,0.00804 0.64966,-0.00858 0.99151,-0.03628c2.61929,0.09204 5.21123,-0.03081 7.14648,-0.17457c0.30514,-0.00254 0.61028,-0.00503 0.91542,-0.00745c-0.00047,0.013 -0.00113,0.02605 -0.00201,0.03914z" data-paper-data="{&quot;noHover&quot;:false,&quot;origItem&quot;:[&quot;Path&quot;,{&quot;applyMatrix&quot;:true,&quot;segments&quot;:[[[600.0597,426.4568],[0,0],[-7.5905,0.00884]],[[577.4863,425.32288],[7.57818,0.12412],[1.38496,4.39334]],[[576.16108,438.72902],[1.32276,-4.30312],[-0.51044,1.66054]],[[576.21646,443.56994],[-1.76802,-0.88444],[6.25968,4.84736]],[[599.20326,450.75268],[-7.83752,0.00802],[8.1661,0]],[[621.98186,446.5415],[-7.01132,4.40578],[4.27036,-2.66838]],[[623.51512,425.54534],[1.497,4.49098],[0,0]],[623.45456,425.44668],[[623.34568,424.86616],[-0.02416,0.31446],[-7.76494,-0.40278]],[[600.05968,426.4568],[7.8658,0.99082],[0,0]]],&quot;closed&quot;:true,&quot;fillColor&quot;:[0,0,0,1]}],&quot;index&quot;:null}" fill="#c7941d" stroke="none" stroke-width="0.5" stroke-linecap="butt"/><path d="M356.48198,187.26078c0.40558,1.31686 0.95816,2.72307 -0.43159,3.55022c-3.26224,2.54965 -7.9536,3.75328 -12.04483,3.75715c-4.29315,0 -8.21947,0.04047 -11.91929,-2.25759c-2.34229,-1.46425 -2.1782,-7.36146 -1.47505,-10.58061c0.33027,0.03384 0.66697,0.06405 1.00853,0.09085c-0.6189,2.789 -0.91305,8.44859 0.99651,9.6418c3.50566,2.20289 7.30625,2.10559 11.3893,2.10559c3.91876,0.00401 8.36356,-1.16769 11.4934,-3.59137c0.88401,-0.44222 0.28291,-1.59019 0.02769,-2.42046c-0.6375,-2.07388 -1.30504,-4.33662 -0.73226,-6.46454c0.34787,-0.00279 0.69573,-0.00549 1.04359,-0.00809c-0.67541,1.99952 0.04467,4.23118 0.644,6.17706z" data-paper-data="{&quot;index&quot;:null}" fill="#000000" stroke="none" stroke-width="0.5" stroke-linecap="butt"/><path d="M302.55039,192.76511c-3.69982,2.29806 -7.62614,2.25759 -11.91929,2.25759c-4.09123,-0.00387 -8.78259,-1.2075 -12.04483,-3.75715c-1.38975,-0.82715 -0.83717,-2.23336 -0.43159,-3.55022c0.55579,-1.80457 1.21545,-3.8549 0.76966,-5.73794c0.33948,0.00245 0.67897,0.00488 1.01844,0.00729c0.38112,1.99818 -0.23886,4.09416 -0.83277,6.02622c-0.25522,0.83027 -0.85632,1.97824 0.02769,2.42046c3.12984,2.42368 7.57464,3.59538 11.4934,3.59137c4.08305,0 7.88364,0.0973 11.3893,-2.10559c1.9712,-1.23173 1.59412,-7.22285 0.93563,-9.90267c0.34303,-0.00287 0.68605,-0.00593 1.02907,-0.00922c0.73642,3.17437 0.95176,9.268 -1.43471,10.75986z" fill="#000000" stroke="none" stroke-width="0.5" stroke-linecap="butt"/><path d="M303.47308,188.747c-0.18619,1.57695 -0.59528,2.87545 -1.33798,3.40184c-3.50566,2.49865 -7.35612,2.42381 -11.43917,2.42381c-3.91876,0.00455 -8.81639,-1.3677 -11.94624,-4.11678c-0.88401,-0.50159 0.12341,-1.8148 0.37863,-2.75654c0.48892,-1.80407 0.64155,-3.80987 0.54775,-5.71654c7.86667,0.05606 15.73334,0.09758 23.59875,0.02896c0.29255,1.93286 0.45139,4.5914 0.19826,6.73525z" data-paper-data="{&quot;noHover&quot;:false,&quot;origItem&quot;:[&quot;Path&quot;,{&quot;applyMatrix&quot;:true,&quot;segments&quot;:[[[600.0597,426.4568],[0,0],[-7.5905,0.00884]],[[577.4863,425.32288],[7.57818,0.12412],[1.38496,4.39334]],[[576.16108,438.72902],[1.32276,-4.30312],[-0.51044,1.66054]],[[576.21646,443.56994],[-1.76802,-0.88444],[6.25968,4.84736]],[[599.20326,450.75268],[-7.83752,0.00802],[8.1661,0]],[[621.98186,446.5415],[-7.01132,4.40578],[4.27036,-2.66838]],[[623.51512,425.54534],[1.497,4.49098],[0,0]],[623.45456,425.44668],[[623.34568,424.86616],[-0.02416,0.31446],[-7.76494,-0.40278]],[[600.05968,426.4568],[7.8658,0.99082],[0,0]]],&quot;closed&quot;:true,&quot;fillColor&quot;:[0,0,0,1]}]}" fill="#c7941d" stroke="none" stroke-width="0.5" stroke-linecap="butt"/><path d="M345.32517,181.62542c0.07873,-0.02125 0.15707,-0.04344 0.23501,-0.06655c0.3077,0.00804 0.64966,-0.00858 0.99152,-0.03628c0.15535,0.00546 0.31059,0.01016 0.46562,0.01415c-0.56312,0.03492 -1.12696,0.06556 -1.69214,0.08868z" data-paper-data="{&quot;index&quot;:null}" fill="#000000" stroke="none" stroke-width="0.5" stroke-linecap="butt"/><path d="M345.69749,181.37513c0.07873,-0.02125 0.15707,-0.04344 0.23501,-0.06655c0.3077,0.00804 0.64966,-0.00858 0.99152,-0.03628c0.15535,0.00546 0.31059,0.01016 0.46562,0.01415c-0.56312,0.03492 -1.12696,0.06556 -1.69214,0.08868z" data-paper-data="{&quot;index&quot;:null}" fill="#000000" stroke="none" stroke-width="0.5" stroke-linecap="butt"/><path d="M267.55915,182.01462v-15.50258c0,0 93.01445,-0.64968 96.78396,-0.66259c0.2346,-0.00081 0.59508,0.49662 0.59508,0.49662l0.38725,15.66854z" fill="#c7941d" stroke="#000000" stroke-width="0" stroke-linecap="butt"/><path d="M365.3324,181.79136l-97.57146,0.05233l-0.62667,-31.09543l97.23127,-0.36494z" fill="#644ba4" stroke="#000000" stroke-width="0.5" stroke-linecap="round"/><path d="" fill="#000000" stroke="none" stroke-width="0.5" stroke-linecap="butt"/><path d="" fill="#66f4ff" stroke="none" stroke-width="0.5" stroke-linecap="butt"/><path d="" data-paper-data="{&quot;index&quot;:null}" fill="#66f4ff" stroke="none" stroke-width="0.5" stroke-linecap="butt"/><path d="" fill="#66f4ff" stroke="none" stroke-width="0.5" stroke-linecap="butt"/><path d="" fill="#66f4ff" stroke="none" stroke-width="0.5" stroke-linecap="butt"/><path d="M368.40103,122.17732c0.45502,0.06727 0.65285,-0.0167 0.68565,-0.18811c2.25662,0.06838 3.82756,2.58169 4.94581,4.25905c0.4273,1.16694 1.11752,2.26069 1.38768,3.59886c0.25951,1.28544 0.08655,3.06267 0.65918,4.2307c0.4151,2.58284 0.72395,5.15771 0.72395,7.78205c0,3.09308 -2.24941,4.47032 -5.25872,4.90827c-2.79346,0.02112 -0.51816,1.01353 -3.21293,-0.06759c-2.61784,-0.88964 -2.05638,-5.5779 -1.35689,-7.59214c1.05396,-3.04672 2.75133,-7.21702 3.54021,-10.37097c0.31627,-1.2674 -3.73566,-7.64128 -2.11395,-6.56014z" data-paper-data="{&quot;noHover&quot;:false,&quot;origItem&quot;:[&quot;Path&quot;,{&quot;applyMatrix&quot;:true,&quot;segments&quot;:[[[273.23414,152.39607],[0.0328,0.17141],[-2.25662,0.06838]],[[267.6027,156.64807],[1.11824,-1.67736],[-0.4273,1.16694]],[[266.22965,160.23355],[0.27016,-1.33817],[-0.25952,1.28544]],[[265.58001,164.43753],[0.57263,-1.16803],[-0.4151,2.58284]],[[264.8422,172.1822],[0,-2.62434],[0,3.09309]],[[270.07461,177.07606],[-3.00931,-0.43795],[2.79345,0.02112]],[[278.25584,176.58401],[-2.69477,1.08112],[2.61784,-0.88964]],[[279.5891,168.01622],[0.69949,2.01424],[-1.05395,-3.04672]],[[277.20773,158.42042],[0.78889,3.15395],[-0.31628,-1.26739]],[[273.91699,152.58394],[1.62171,-1.08114],[-0.45502,0.06727]]],&quot;closed&quot;:true}],&quot;index&quot;:null}" fill="#ffffff" stroke="#000000" stroke-width="0.5" stroke-linecap="butt"/><path d="M263.33833,121.89159c1.62171,-1.08114 -1.43022,5.29273 -1.11395,6.56013c0.13352,0.53382 -0.13141,1.09674 0.05344,1.67842c0.21421,0.67407 0.26674,2.07165 0.67003,2.75557c1.30488,2.21284 3.43361,3.14637 4.10246,5.07985c0.50178,1.44492 0.29176,4.06619 -0.42964,6.16473c-0.28424,0.82685 -0.04447,2.17595 -0.7844,2.42741c-2.69477,1.08112 -1.70518,-0.05415 -4.49864,-0.07527c-3.00931,-0.43795 -5.25872,-1.81519 -5.25872,-4.90827c0,-2.62434 0.30885,-5.19921 0.72395,-7.78205c0.57263,-1.16803 0.39967,-2.94526 0.65918,-4.2307c0.27016,-1.33817 0.96038,-2.43192 1.38768,-3.59886c1.11824,-1.67736 1.54633,-4.19067 3.80295,-4.25905c0.0328,0.17141 0.23063,0.25538 0.68565,0.18811z" data-paper-data="{&quot;noHover&quot;:false,&quot;origItem&quot;:[&quot;Path&quot;,{&quot;applyMatrix&quot;:true,&quot;segments&quot;:[[[273.23414,152.39607],[0.0328,0.17141],[-2.25662,0.06838]],[[267.6027,156.64807],[1.11824,-1.67736],[-0.4273,1.16694]],[[266.22965,160.23355],[0.27016,-1.33817],[-0.25952,1.28544]],[[265.58001,164.43753],[0.57263,-1.16803],[-0.4151,2.58284]],[[264.8422,172.1822],[0,-2.62434],[0,3.09309]],[[270.07461,177.07606],[-3.00931,-0.43795],[2.79345,0.02112]],[[278.25584,176.58401],[-2.69477,1.08112],[2.61784,-0.88964]],[[279.5891,168.01622],[0.69949,2.01424],[-1.05395,-3.04672]],[[277.20773,158.42042],[0.78889,3.15395],[-0.31628,-1.26739]],[[273.91699,152.58394],[1.62171,-1.08114],[-0.45502,0.06727]]],&quot;closed&quot;:true}],&quot;index&quot;:null}" fill="#ffffff" stroke="#000000" stroke-width="0.5" stroke-linecap="butt"/><path d="" fill="#000000" stroke="none" stroke-width="0.5" stroke-linecap="butt"/><path d="" fill="#66f4ff" stroke="none" stroke-width="0.5" stroke-linecap="butt"/><path d="" data-paper-data="{&quot;index&quot;:null}" fill="#66f4ff" stroke="none" stroke-width="0.5" stroke-linecap="butt"/><path d="" fill="#66f4ff" stroke="none" stroke-width="0.5" stroke-linecap="butt"/><path d="" fill="#66f4ff" stroke="none" stroke-width="0.5" stroke-linecap="butt"/><path d="M326.03591,164.20192l-0.28614,20.72978l9.63342,-0.07764l-0.28615,-35.86951l-8.39347,-0.07764l-10.7124,11.72358l-9.31208,-11.72358h-9.06114l-0.19076,35.79187h9.15652v-20.5745l9.31208,11.1801z" fill="#809fc7" stroke="#37319f" stroke-width="1.5" stroke-linecap="round"/></g></g></svg>