<svg version="1.1" xmlns="http://www.w3.org/2000/svg" xmlns:xlink="http://www.w3.org/1999/xlink" width="796.70435" height="472.88992" viewBox="0,0,796.70435,472.88992"><g transform="translate(68.38129,38.93254)"><g stroke-miterlimit="10"><path d="M-68.38129,387.97047v-426.90301h796.70435v426.90301z" fill="#fffd4d" stroke="none" stroke-width="0" stroke-linecap="butt"/><text transform="translate(51.62326,134.53161) scale(0.43788,0.43788)" font-size="40" xml:space="preserve" fill="#8b2c00" stroke="none" stroke-width="1" stroke-linecap="butt" font-family="&quot;SpongeBoyTT1-Regular&quot;, Sans Serif" font-weight="normal" text-anchor="start"><tspan x="0" dy="0"> </tspan><tspan x="0" dy="46.150000000000006px">NONE OF THE CHARACTERS, SHOWS, SFX, OR SONGS</tspan><tspan x="0" dy="46.150000000000006px">IN THIS GAME ARE OWNED BY ME. </tspan><tspan x="0" dy="46.150000000000006px"> </tspan><tspan x="0" dy="46.150000000000006px">MUSIC: "CAILFORNIA LULLABYE" BY JOSH WOODWARD </tspan><tspan x="0" dy="46.150000000000006px">(HIS WEBSITE: https://www.joshwoodward.com/)</tspan></text><path d="M442.09746,432.19241l-1.11163,1.17702l-1.37319,0.32695l-1.89632,-0.71929l-1.3078,-1.3732" fill="none" stroke="#000000" stroke-width="0.5" stroke-linecap="round"/><path d="M4.31346,102.09699v-98.0991h241.69344v98.0991z" fill="#ffffff" stroke="#000000" stroke-width="0.5" stroke-linecap="butt"/><text transform="translate(14.6237,23.7165) scale(0.41086,0.38376)" font-size="40" xml:space="preserve" fill="#000000" stroke="none" stroke-width="1" stroke-linecap="butt" font-family="&quot;SpongeBoyTT1-Regular&quot;, Sans Serif" font-weight="normal" text-anchor="start"><tspan x="0" dy="0">THIS GAME IS FAN-MADE.</tspan><tspan x="0" dy="48px">I AM NOT AFFILIATED</tspan><tspan x="0" dy="48px">WITH NICKELODEON</tspan><tspan x="0" dy="48px">AT ALL. I'M JUST A HUGE</tspan><tspan x="0" dy="48px">FAN OF THE SHOW.</tspan></text><text transform="translate(34.88057,336.87581) scale(0.36137,0.36137)" font-size="40" xml:space="preserve" fill="#8b2c00" stroke="none" stroke-width="1" stroke-linecap="butt" font-family="&quot;SpongeBoyTT1-Regular&quot;, Sans Serif" font-weight="normal" text-anchor="start"><tspan x="0" dy="0">THANKS FOR PLAYING DRESS THE SPUNCH 2!</tspan><tspan x="0" dy="46.150000000000006px">IT MEANS A LOT TO ME!</tspan></text><text transform="translate(546.65677,354.20569) scale(0.30803,0.30803)" font-size="40" xml:space="preserve" fill="#00901d" stroke="none" stroke-width="1" stroke-linecap="butt" font-family="&quot;SpongeBoyTT1-Regular&quot;, Sans Serif" font-weight="normal" text-anchor="start"><tspan x="0" dy="0">Version 1.3</tspan><tspan x="0" dy="48px"> </tspan></text><g stroke-linecap="butt"><g fill="#000000" stroke="none" stroke-width="0.5"><path d="M476.45092,328.01813c0,0 -0.17481,0.52382 -0.69863,0.34901c-0.52382,-0.17481 -0.34901,-0.69863 -0.34901,-0.69863l0.17016,-0.50579c1.11898,-6.00404 6.9906,-2.65399 8.32029,1.33987c0,0 0.17444,0.52394 -0.34952,0.69838c-0.52394,0.17444 -0.69838,-0.34952 -0.69838,-0.34952c-1.00548,-3.02007 -5.29323,-6.21924 -6.20338,-1.41133l-0.19154,0.57801z"/><path d="M449.30376,337.60951c-0.31448,0.45391 -0.76841,0.13942 -0.76841,0.13942l-0.49979,-0.34785c-3.61047,-3.30284 -5.1249,1.82804 -4.11942,4.84812c0,0 0.17444,0.52394 -0.34952,0.69838c-0.52394,0.17444 -0.69838,-0.34952 -0.69838,-0.34952c-1.32968,-3.99387 1.36208,-10.19494 5.85669,-6.05985l0.43938,0.30286c0,0 0.45391,0.31448 0.13942,0.76841z"/><path d="M479.34018,326.91884c0.6384,-0.03136 0.60659,0.52272 0.60659,0.52272l-0.0534,0.36129c-0.25847,0.5853 -0.34508,1.16008 -0.53053,1.76236c-2.4725,7.21064 -7.80345,10.11049 -15.47916,12.66128c-6.56043,1.59659 -12.6688,0.65414 -17.76424,-2.66243c0,0 -0.4844,-0.31542 -0.06734,-0.77207c0.41705,-0.45664 0.90146,-0.14124 0.90146,-0.14124c4.78749,3.11874 10.4878,4.01187 16.64849,2.52509c7.20456,-2.40321 12.23127,-4.99552 14.53278,-11.80418c0.19857,-0.63779 0.30033,-1.23368 0.56739,-1.85973l-0.03223,-0.00761c0,0 0.0318,-0.55411 0.6702,-0.58546z"/></g><path d="M465.70128,324.27202c2.04556,10.5257 4.76721,18.57403 4.4406,23.53516c-0.1702,2.58498 -1.7287,4.7631 -3.44512,5.09667c-5.01062,0.97375 -5.20822,-8.68202 -8.31958,-24.69204c-0.08016,-0.41249 -1.00503,-5.18957 -1.07819,-5.6015c-2.76639,-15.5767 -6.68971,-28.96621 -1.8082,-29.91488c0.79426,-0.15435 1.66914,-0.78335 2.33226,-0.12939c3.52022,3.47142 5.26008,18.23383 7.87824,31.70601z" fill="#fff649" stroke="none" stroke-width="0"/><path d="M460.34599,336.91368c0.03379,0.01147 0.06679,0.02424 0.09901,0.03825c-0.11393,0.80089 0.36176,1.97261 0.47648,2.85165c0.00443,0.04308 0.00927,0.08657 0.01446,0.13046c0.13731,1.52455 0.00623,3.98172 0.81844,5.69178c0.21328,0.44906 0.54094,0.5618 0.86658,0.48095c0.2729,1.1528 0.54323,2.36479 0.66325,3.40288c0.03292,0.28479 -0.05646,0.56392 -0.42929,0.63639c-0.71133,0.13823 -1.30872,-2.61907 -1.92735,-6.61599c-0.13437,-0.8682 -1.28146,-6.01349 -0.98983,-6.26471z" fill="#000000" stroke="none" stroke-width="0.5"/><path d="M460.17009,339.69976c-0.0668,-0.63439 -0.33505,-2.36388 -0.48886,-3.00653c-0.10194,-0.42592 -0.01809,-0.45497 0.02537,-0.54896c0.19077,-0.41262 0.96708,-0.35793 1.0686,0.16359c0.67324,3.45846 1.02296,6.99759 2.03593,10.37222c0.00606,0.01932 0.0111,0.03917 0.01504,0.05949c0.01058,0.05441 0.01263,0.10849 0.00707,0.1609c0.15899,3.74998 -0.37435,3.20587 -0.94236,1.22817c-0.37214,-1.29571 -0.70703,-3.2169 -1.05375,-4.91365c-0.33242,-1.62676 -0.60429,-2.91908 -0.66705,-3.51523z" fill="#000000" stroke="none" stroke-width="0.5"/><path d="M469.38693,343.44602c-0.53283,0.10356 -0.6364,-0.42929 -0.6364,-0.42929l-0.01479,-0.07611c-0.3891,-2.00221 -0.92992,-3.97211 -1.32094,-5.98415c-0.74461,-3.83153 -1.48923,-7.66307 -2.23385,-11.4946c0,0 -0.00981,-0.05048 -0.00787,-0.12341l-0.07903,-0.40664c-0.95103,-4.89374 -1.9067,-9.78661 -2.85248,-14.68135c-1.60849,-5.33363 -2.07966,-11.70869 -4.18,-16.9487c-5.04934,-2.92817 -4.8566,3.86309 -4.37923,7.24155c0.2011,0.14348 0.2229,0.41102 0.2229,0.41102c0.41447,5.11662 1.83565,10.28184 2.81453,15.31884c1.06651,5.48792 2.29656,10.96445 3.35991,16.43524c0.23321,1.20001 0.46641,2.4 0.69963,3.6c-0.79796,0.64673 -0.01001,2.32872 0.14221,3.49522c0.00443,0.04308 0.00927,0.08657 0.01446,0.13046c0.13731,1.52455 0.00623,3.98172 0.81845,5.69178c0.10912,0.22975 0.2482,0.3715 0.40161,0.44429c0.18036,0.5489 0.36639,1.03481 0.54659,1.42734c0.05138,0.24644 0.10935,0.48591 0.17512,0.71604c-0.06563,0.07159 -0.1631,0.13083 -0.30695,0.15878c-0.53283,0.10356 -0.6364,-0.42929 -0.6364,-0.42929c-0.66525,-3.42317 -1.39381,-7.17209 -2.09531,-10.78176c-0.28135,-1.44767 -0.55833,-2.87289 -0.82513,-4.24575c-1.06299,-5.47075 -2.29341,-10.94744 -3.3599,-16.43525c-0.94201,-4.84727 -2.27978,-9.80599 -2.76708,-14.7329c-0.1211,-0.12867 -0.15334,-0.2946 -0.15334,-0.2946c-0.84867,-4.36697 0.32629,-12.23431 6.66644,-8.669c1.35066,5.7045 2.21494,11.58423 3.89556,17.20675c0.95937,4.91049 1.90964,9.82275 2.86411,14.73419l0.09321,0.4796c0,0 0.00982,0.0505 0.00787,0.12341c0.73988,3.80721 1.47977,7.61443 2.21967,11.42165c0.39106,2.01228 0.93173,3.98142 1.32094,5.98415l0.01479,0.07611c0,0 0.10356,0.53282 -0.42929,0.63639z" fill="#000000" stroke="none" stroke-width="0.5"/><path d="M429.93243,260.77929c-0.53283,0.10356 -0.63639,-0.42929 -0.63639,-0.42929l-0.10357,-0.53291c-0.15715,-0.8087 -0.46294,-1.4708 -0.6264,-2.27469c-0.69364,-3.69103 -6.63463,-1.88224 -7.69983,0.69707c0,0 -0.2094,0.50077 -0.7102,0.29138c-0.50078,-0.2094 -0.29139,-0.7102 -0.29139,-0.7102c1.48015,-3.50288 8.80188,-5.31905 9.76709,-0.48537c0.1442,0.78827 0.47031,1.47154 0.6264,2.27469l0.10357,0.53291c0,0 0.10354,0.53283 -0.42929,0.6364z" fill="#000000" stroke="none" stroke-width="0.5"/><path d="M469.27877,253.98397c-0.53283,0.10354 -0.6364,-0.42929 -0.6364,-0.42929l-0.01026,-0.09144c-0.4566,-1.23552 -0.50406,-2.53238 -0.74161,-3.81411c0.54001,-4.34385 7.44819,-5.05263 10.32769,-2.6326c0,0 0.41372,0.35139 0.06234,0.76513c-0.35139,0.41372 -0.76513,0.06234 -0.76513,0.06234c-2.09411,-1.80177 -8.07085,-1.55833 -8.53981,1.77142c0.23755,1.15861 0.2512,2.34853 0.67365,3.46838l0.05879,0.26381c0,0 0.10354,0.53283 -0.42929,0.63639z" fill="#000000" stroke="none" stroke-width="0.5"/><path d="M455.45818,295.44689c3.44953,17.7501 -7.26512,34.76513 -23.93192,38.00414c-16.66676,3.239 -32.97425,-8.52458 -36.4238,-26.27468c-3.44953,-17.7501 7.26515,-34.76512 23.93194,-38.00414c16.66676,-3.239 32.97424,8.52459 36.42378,26.27469z" fill="#fbfdfa" stroke="#000000" stroke-width="1"/><path d="M500.55968,332.84038c-0.11941,0.21888 -0.38598,0.27069 -0.38598,0.27069c-1.84996,0.35281 -3.35896,3.51966 -2.08856,5.20378c1.01195,1.34151 2.66085,1.68766 4.22039,1.57197c1.91563,-0.08285 0.78795,-7.09163 -1.30294,-7.13735zM499.92017,332.05498c0.11939,-0.2189 0.386,-0.27071 0.386,-0.27071l0.63911,-0.11886c3.2537,0.3778 5.11786,8.37866 1.50073,9.29793c-1.95216,0.12264 -4.04345,-0.32463 -5.2662,-2.04928c-1.65904,-2.34006 0.16021,-6.30682 2.74035,-6.85907z" fill="#9966ff" stroke="none" stroke-width="0.5"/><path d="M515.67956,282.49462c3.44953,17.7501 -7.26512,34.76513 -23.9319,38.00414c-16.66676,3.239 -32.97425,-8.52456 -36.4238,-26.27468c-3.44953,-17.7501 7.26515,-34.76512 23.93192,-38.00414c16.66676,-3.239 32.97424,8.52459 36.42378,26.27469z" fill="#fbfdfa" stroke="#000000" stroke-width="1"/><path d="M450.28936,295.14989c2.77762,14.29265 -6.42294,28.10475 -20.55005,30.85021c-14.12709,2.74544 -27.8311,-6.61541 -30.6087,-20.90806c-2.77762,-14.29265 6.42295,-28.10476 20.55006,-30.85022c14.12709,-2.74544 27.8311,6.61542 30.6087,20.90807z" fill="#3da9e8" stroke="#000000" stroke-width="1"/><path d="M510.19798,282.85006c2.72119,14.00227 -6.16726,27.50942 -19.85289,30.16907c-13.68563,2.65965 -26.98599,-6.53536 -29.70717,-20.53762c-2.72119,-14.00227 6.16725,-27.5094 19.85288,-30.16905c13.68563,-2.65965 26.98599,6.53534 29.70716,20.5376z" fill="#3da9e8" stroke="#000000" stroke-width="1"/><path d="M441.60803,296.15263c1.8017,9.27091 -4.07435,18.21226 -13.12452,19.97106c-9.05019,1.7588 -17.84735,-4.33096 -19.64903,-13.60186c-1.8017,-9.27091 4.07434,-18.21226 13.12452,-19.97106c9.05019,-1.7588 17.84735,4.33096 19.64906,13.60187z" fill="#000000" stroke="#000000" stroke-width="1"/><path d="M502.21393,283.17165c1.90896,9.82274 -4.10385,19.25491 -13.42994,21.06734c-9.32608,1.81243 -18.43389,-4.68122 -20.34284,-14.50398c-1.90896,-9.82274 4.10385,-19.25492 13.42994,-21.06735c9.32608,-1.81243 18.43389,4.68122 20.34284,14.50398z" fill="#000000" stroke="#000000" stroke-width="1"/><path d="M434.56953,290.24121c0.50404,2.59365 -1.45832,5.15701 -4.38307,5.72539c-2.92476,0.5684 -5.70432,-1.07341 -6.20839,-3.66705c-0.50404,-2.59365 1.45832,-5.15698 4.38307,-5.72537c2.92476,-0.5684 5.70433,1.0734 6.20839,3.66704z" fill="#ffffff" stroke="#000000" stroke-width="1"/><path d="M496.04074,277.44465c0.51475,2.64882 -1.43892,5.25689 -4.36367,5.8253c-2.92476,0.5684 -5.71303,-1.11814 -6.22779,-3.76697c-0.51475,-2.64882 1.43889,-5.25691 4.36365,-5.82529c2.92476,-0.5684 5.71305,1.11813 6.22781,3.76696z" fill="#ffffff" stroke="#000000" stroke-width="1"/><path d="M500.80599,318.40751c-0.00091,0.00071 -0.00183,0.00142 -0.00276,0.00213l0.04273,0.22809c1.50852,3.16095 4.23894,5.49225 6.68922,7.94827c3.36502,3.25443 5.25388,10.3948 3.21717,14.74361c-2.73326,5.1969 -9.30027,5.11197 -14.52801,3.63441c-3.55257,-1.8517 -4.93223,-4.60097 -4.37627,-8.67729c0.25822,-1.89333 1.36126,-3.59632 1.41922,-5.56354c1.88572,-2.91818 4.1532,-6.8543 3.8929,-10.3497c-0.05489,-0.05871 -0.0834,-0.10924 -0.0834,-0.10924c-1.47648,-2.67652 0.75496,-3.48034 3.19106,-3.18607l0.63753,0.56817c0,0 0.33092,0.43029 -0.09936,0.76119zM498.12027,319.37176c0.7386,3.80063 -1.56803,8.50221 -3.81569,11.67165c0.04816,1.89697 -1.15556,3.56267 -1.37906,5.3759c-0.44374,3.60026 0.55757,5.87756 3.69872,7.5354c4.68022,1.27918 10.72124,1.55112 13.15883,-3.11405c1.91666,-3.76605 -0.01798,-10.71451 -3.00574,-13.47736c-2.57513,-2.58353 -5.4226,-5.03258 -6.96376,-8.38983l-0.14472,-0.72336c0,0 -0.01268,-0.06528 -0.00633,-0.15459c-1.24151,-0.13463 -2.12936,-0.01605 -1.97137,0.83869c0.35365,0.04916 0.42913,0.43754 0.42913,0.43754z" fill="#6af2e7" stroke="none" stroke-width="0.5"/><path d="M498.06193,318.32228c0,0 -0.10361,-0.52136 -0.47644,-0.57319c-0.16655,-0.90114 0.77842,-1.02747 2.08732,-0.88554c-0.0067,0.09414 0.00666,0.16299 0.00666,0.16299l0.15301,0.7626c1.62486,3.53949 4.67796,6.14702 7.3929,8.87076c3.14994,2.91285 5.18211,10.31089 3.1614,14.28137c-2.56991,4.91843 -8.99629,4.64558 -13.93058,3.29695c-3.31165,-1.74786 -4.39819,-4.17228 -3.93035,-7.968c0.23562,-1.91166 1.49569,-3.70293 1.44492,-5.70286c2.36967,-3.3415 4.84732,-8.35034 4.06861,-12.35729z" fill="#b5f2ed" stroke="none" stroke-width="0.5"/><path d="M482.84389,318.21204c3.68418,-0.58415 8.01799,-2.72853 11.44716,-4.08862c4.2921,-1.517 8.53211,-3.07818 12.9633,-4.0389c2.12394,0.2563 2.21416,2.7384 1.64793,3.67615c-1.92126,3.18188 -5.58764,5.80867 -8.53683,6.96768c-4.45876,1.7523 -9.79754,1.40837 -15.12487,-0.37989c-0.80558,-0.35859 -2.3818,-1.07061 -2.4267,-2.11622l0.03003,-0.02023z" fill="#b5f2ed" stroke="none" stroke-width="0.5"/><path d="M498.97949,343.08899c-0.04718,-0.01572 -0.07832,-0.03761 -0.07832,-0.03761l-0.33818,-0.25187c-0.15621,-0.36922 -1.77695,-3.02715 -0.21103,-2.94593c0.56792,0.02944 1.97788,1.68773 2.69998,1.96053c2.79637,1.07676 4.49217,-1.74805 5.35093,-3.9438c1.02825,-1.48021 3.01517,-1.87046 2.78426,0.4924c-0.15937,1.63074 -1.45393,2.43456 -2.34031,3.68979c-2.30373,2.14876 -5.10714,2.99352 -7.80543,1.09743c0,0 -0.03115,-0.02189 -0.06194,-0.06096z" fill="#ffffff" stroke="none" stroke-width="0.5"/><path d="M392.64359,281.87204c0.07028,-0.53825 0.60849,-0.46798 0.60849,-0.46798l0.06937,0.03716c3.57735,-0.69523 7.30643,-0.66004 10.80236,-1.79642c4.86384,-1.99726 9.88859,-4.3257 13.48103,-8.28466c2.70511,-2.27631 5.70409,-6.82839 5.77911,-10.49591c0,0 0.0145,-0.54262 0.55711,-0.52811c0.5426,0.0145 0.52811,0.55711 0.52811,0.55711c-0.12664,3.96456 -3.15464,8.76576 -6.11078,11.24833c-3.67179,4.07299 -8.87378,6.47801 -13.86092,8.52246c-3.55917,1.1509 -7.33069,1.13576 -10.96893,1.84282l-0.41698,-0.02633c0,0 -0.53825,-0.07024 -0.46798,-0.60849z" fill="#000000" stroke="none" stroke-width="0.5"/><path d="M511.7335,260.80954l-0.37676,0.18059c-3.63823,0.70704 -7.1296,2.13366 -10.86075,2.39955c-5.38987,-0.02782 -11.11398,-0.30945 -16.04397,-2.71078c-3.67077,-1.1947 -8.2766,-4.51236 -9.87887,-8.14093c0,0 -0.21667,-0.49769 0.28101,-0.71436c0.49768,-0.21667 0.71436,0.28101 0.71436,0.28101c1.44317,3.37246 5.92877,6.46999 9.28954,7.56748c4.81373,2.32532 10.34483,2.60233 15.60266,2.63255c3.66708,-0.25567 7.11156,-1.68494 10.68891,-2.38018l0.0504,-0.06042c0,0 0.47275,-0.26672 0.73948,0.20601c0.26674,0.47275 -0.20602,0.73948 -0.20602,0.73948z" fill="#000000" stroke="none" stroke-width="0.5"/><path d="M466.58255,351.95677c4.17333,-0.10974 2.72769,-7.46238 2.36888,-9.14864c-0.15823,-0.7436 -1.35721,-2.56628 -0.14795,-2.80129c0.80679,-0.15679 1.66706,4.92701 1.68986,5.04478c0.59061,3.05181 -0.17356,7.01426 -3.63877,7.95838c-3.82877,1.04316 -5.21346,-4.06964 -5.34507,-6.61975c-0.012,-0.23242 -0.17948,-1.58036 -0.23355,-2.2951c0.10576,0.54303 0.25706,1.0646 0.47843,1.53065c0.10913,0.22977 0.24819,0.37149 0.40164,0.44428c0.18036,0.5489 0.36639,1.03483 0.5466,1.42735c0.16478,0.7904 0.39746,1.50901 0.73689,2.07752c0.37705,1.38612 1.18338,2.43331 3.14304,2.38178z" fill="#000000" stroke="none" stroke-width="0.5"/><path d="M483.07725,317.09578c3.52167,-0.61316 7.61886,-2.59043 10.85327,-3.8532c4.36701,-1.51501 8.97311,-2.75412 13.51426,-3.58024c2.35152,0.40714 2.71362,2.80739 1.66869,4.60469c-1.75823,3.02433 -4.53233,5.00379 -7.77381,6.16741c-5.51508,2.14872 -10.86557,2.74695 -16.44712,0.9071c-1.52169,-0.68113 -3.01778,-1.54139 -3.01707,-3.2696c-0.04264,-0.06508 -0.07432,-0.14902 -0.08682,-0.25711c-0.06238,-0.53922 0.47684,-0.6016 0.47684,-0.6016c0.07894,-0.00895 0.15823,-0.0187 0.23788,-0.02926l0.00187,-0.00173c0,0 0.28042,-0.23205 0.572,-0.08648zM482.88715,318.224l-0.02997,0.01984c0.04774,1.03239 1.62146,1.72922 2.42755,2.08543c5.30175,1.77088 10.43382,1.13369 15.67433,-0.91153c2.62918,-0.9435 5.26312,-2.50287 6.76186,-4.96182c0.56332,-0.92424 1.86629,-3.44929 -0.25708,-3.70814c-4.42594,0.9363 -8.87276,2.02768 -13.15819,3.51354c-3.42343,1.33332 -7.73811,3.39608 -11.41852,3.96267z" fill="#6af2e7" stroke="none" stroke-width="0.5"/><path d="M394.62348,280.73845l7.98455,-8.22004l19.07321,-6.82533c0,0 -0.69438,1.76985 -1.3987,2.60319c-0.95925,1.13497 -4.8533,4.86147 -4.8533,4.86147c0,0 -4.99393,3.55786 -7.85207,4.85694c0,0 -4.33815,1.86802 -6.34259,2.31623c-1.77508,0.39692 -6.61108,0.40753 -6.61108,0.40753z" fill="#fffd4d" stroke="#fffd4d" stroke-width="0.5"/><path d="M484.39034,259.23251c0,0 -2.59689,-0.99244 -3.67159,-1.76943c-1.24811,-0.90236 -2.40438,-1.93504 -2.98191,-2.48643c-0.78921,-0.75346 -2.25515,-3.52031 -2.25515,-3.52031l20.21874,5.47874l10.6717,3.83971c0,0 -1.85561,0.85213 -4.62864,1.20347c-2.104,0.26657 -4.96146,0.08066 -6.63662,-0.03687c-1.50313,-0.10547 -3.74926,-0.23586 -5.82875,-0.81283c-2.58533,-0.71732 -4.88776,-1.89607 -4.88776,-1.89607z" fill="#fffd4d" stroke="#fffd4d" stroke-width="0.5"/></g><path d="M388.05524,75.37058v-54.05405h225.22523v54.05405z" fill="#ffffff" stroke="#000000" stroke-width="0.5" stroke-linecap="butt"/><text transform="translate(394.84373,46.23482) scale(0.35436,0.35436)" font-size="40" xml:space="preserve" fill="#000000" stroke="none" stroke-width="1" stroke-linecap="butt" font-family="&quot;SpongeBoyTT1-Regular&quot;, Sans Serif" font-weight="normal" text-anchor="start"><tspan x="0" dy="0">    BASED ON THE SHOW</tspan><tspan x="0" dy="46.150000000000006px">SPONGEBOB SQUAREPANTS</tspan></text><text transform="translate(603.65677,381.20569) scale(0.30803,0.30803)" font-size="40" xml:space="preserve" fill="#00901d" stroke="none" stroke-width="1" stroke-linecap="butt" font-family="&quot;SpongeBoyTT1-Regular&quot;, Sans Serif" font-weight="normal" text-anchor="start"><tspan x="0" dy="0">Version 1.0</tspan></text></g></g></svg>