<svg version="1.1" xmlns="http://www.w3.org/2000/svg" xmlns:xlink="http://www.w3.org/1999/xlink" width="100.67345" height="49.45927" viewBox="0,0,100.67345,49.45927"><g transform="translate(-276.10427,-255.65398)"><g data-paper-data="{&quot;isPaintingLayer&quot;:true}" fill-rule="nonzero" stroke-linecap="butt" stroke-linejoin="miter" stroke-miterlimit="10" stroke-dasharray="" stroke-dashoffset="0" style="mix-blend-mode: normal"><path d="M376.77772,292.02473c0,7.22859 -22.53651,13.08852 -50.33672,13.08852c-27.80021,0 -50.33673,-5.85993 -50.33673,-13.08852c0,-7.22859 22.53652,-13.08852 50.33673,-13.08852c27.80021,0 50.33672,5.85993 50.33672,13.08852z" fill-opacity="0.59608" fill="#000000" stroke="none" stroke-width="0"/><g><path d="M308.09169,257.66753c0.93333,0.46202 0.97966,1.84309 1.17606,2.743c0.39771,1.82227 0.42825,3.91307 0.9893,5.72885c0.16149,3.02423 0.82493,5.81062 0.82493,8.84086c0,2.90719 0.06916,5.82536 -0.01207,8.73121c-0.15813,3.34699 -1.72509,5.48983 -4.18092,7.43101c-1.67122,1.3154 -5.63149,3.74381 -7.68715,3.75966c-2.81362,0 -5.60851,-0.10755 -8.40227,-0.20071c-3.22712,-0.1106 -5.10145,-1.85485 -7.7695,-3.26509c-2.15044,-0.28377 -3.92993,-5.56406 -3.92993,-7.38104c0.002,-3.20892 0.66664,-5.8192 3.87488,-7.1036c2.32255,-0.92524 6.20282,0.97396 7.15597,-2.46395c0.27697,-2.88339 0.71274,-5.67973 0.82433,-8.57135c0.61251,-1.60278 0.73396,-3.9569 1.14452,-5.68147c0.21111,-0.88678 0.15859,-2.49652 1.18249,-2.58368c2.76793,0 5.53585,0 8.30377,0c2.14747,0 6.50913,-0.02054 6.50559,0.01631zM301.5861,258.08338c-2.76792,0 -5.53584,0 -8.30377,0c-0.58432,-0.09396 -0.65592,1.71712 -0.78365,2.25621c-0.40935,1.72764 -0.53211,4.05829 -1.14103,5.66547c-0.06358,2.87951 -0.54645,5.69421 -0.82325,8.56576c-1.07697,3.82071 -4.85924,1.76462 -7.41354,2.78492c-3.05448,1.21369 -3.61164,3.6483 -3.60963,6.69956c0,1.57361 1.69296,6.80579 3.6339,6.96617c2.6372,1.38089 4.48118,3.14497 7.66749,3.24804c2.78949,0.09301 5.57983,0.20049 8.38924,0.20049c1.92005,0.01811 5.87536,-2.43698 7.44051,-3.67323c2.36374,-1.85859 3.86565,-3.8857 4.01682,-7.10234c0.08123,-2.90013 0.01174,-5.81269 0.01174,-8.71417c0,-3.0061 -0.68311,-5.76028 -0.81791,-8.76134c-0.66022,-2.07378 -0.00329,-6.97428 -1.94686,-8.0654c-0.00533,-0.09509 -0.01065,-0.19018 -0.01597,-0.28527c-2.095,0.26925 -4.18455,0.21514 -6.30407,0.21514z" data-paper-data="{&quot;index&quot;:null}" fill="#d76ce6" stroke="#d76ce6" stroke-width="2.5"/><path d="M307.91449,257.8334c0.00533,0.09509 0.01092,0.19039 0.01624,0.28548c1.94358,1.09111 1.29665,6.0029 1.95686,8.07668c0.1348,3.00107 0.82432,5.77545 0.82432,8.78156c0,2.90148 0.06582,5.83523 -0.0154,8.73537c-0.15116,3.21664 -1.66419,5.25894 -4.02792,7.11754c-1.56515,1.23625 -5.53728,3.70014 -7.45733,3.68203c-2.8094,0 -5.61911,-0.10761 -8.4086,-0.20062c-3.1863,-0.10308 -5.04691,-1.87609 -7.6841,-3.25698c-1.94094,-0.16038 -3.64439,-5.40682 -3.64439,-6.98042c-0.002,-3.05126 0.55127,-5.50055 3.60575,-6.71424c2.5543,-1.02029 6.3385,1.01809 7.41546,-2.80261c0.2768,-2.87155 0.78382,-5.7129 0.8474,-8.59242c0.60892,-1.60718 0.73953,-3.94012 1.14887,-5.66775c0.12774,-0.53909 0.20201,-2.35056 0.78633,-2.2566c2.76793,0 5.55466,0.00253 8.32259,0.00253c2.11952,0 4.21891,0.05972 6.31391,-0.20954z" data-paper-data="{&quot;noHover&quot;:false,&quot;origItem&quot;:[&quot;Path&quot;,{&quot;applyMatrix&quot;:true,&quot;segments&quot;:[[[834.72233,406.5474],[5.156,0],[-6.73333,0]],[[814.52233,406.5474],[6.73333,0],[-1.42144,-0.21743]],[[812.616,411.76835],[0.31073,-1.24747],[-0.99579,3.99781]],[[809.8403,424.87847],[1.48128,-3.71908],[-0.15466,6.66329]],[[807.83764,444.69997],[0.67335,-6.64489],[-2.61986,8.84125]],[[789.80324,451.14437],[6.21365,-2.361],[-7.43042,2.80852]],[[781.02233,466.6474],[-0.00487,-7.06074],[0,3.64139]],[[789.86227,482.76738],[-4.72159,-0.37112],[6.41532,3.19545]],[[808.51442,490.28347],[-7.7511,-0.23852],[6.78579,0.21522]],[[828.92233,490.7474],[-6.83425,0],[4.67075,0.04189]],[[847.02233,482.2474],[-3.80742,2.86075],[5.75009,-4.30086]],[[856.79376,465.81232],[-0.36773,7.44343],[0.1976,-6.71102]],[[856.82233,445.6474],[0,6.71413],[0,-6.95623]],[[854.83264,425.37331],[0.32792,6.94459],[-1.60605,-4.7988]],[[850.09664,406.70967],[4.728,2.52487],[-0.01295,-0.22004]],[[850.05778,406.04955],[0.01295,0.22004],[-5.09635,0.62306]]],&quot;closed&quot;:true}]}" fill="#eba1ff" stroke="none" stroke-width="0.5"/><path d="M286.46296,284.01234c0,-0.23867 0.18405,-0.43214 0.41108,-0.43214c0.22703,0 0.41108,0.19348 0.41108,0.43214c0,0.23867 -0.18405,0.43214 -0.41108,0.43214c-0.22703,0 -0.41108,-0.19348 -0.41108,-0.43214z" fill="#ff4ac1" stroke="none" stroke-width="0.5"/><path d="M289.94544,289.35123c0,-0.23867 0.18405,-0.43214 0.41108,-0.43214c0.22703,0 0.41108,0.19348 0.41108,0.43214c0,0.23867 -0.18405,0.43214 -0.41108,0.43214c-0.22703,0 -0.41108,-0.19348 -0.41108,-0.43214z" fill="#ff4ac1" stroke="none" stroke-width="0.5"/><path d="M302.42432,290.419c0,-0.23867 0.18405,-0.43214 0.41108,-0.43214c0.22703,0 0.41108,0.19348 0.41108,0.43214c0,0.23867 -0.18405,0.43214 -0.41108,0.43214c-0.22703,0 -0.41108,-0.19348 -0.41108,-0.43214z" fill="#ff4ac1" stroke="none" stroke-width="0.5"/><path d="M293.42792,284.62249c0,-0.23867 0.18405,-0.43214 0.41108,-0.43214c0.22703,0 0.41108,0.19348 0.41108,0.43214c0,0.23867 -0.18405,0.43214 -0.41108,0.43214c-0.22703,0 -0.41108,-0.19348 -0.41108,-0.43214z" fill="#ff4ac1" stroke="none" stroke-width="0.5"/><path d="M294.58875,287.36821c0,-0.23867 0.18405,-0.43214 0.41108,-0.43214c0.22703,0 0.41108,0.19348 0.41108,0.43214c0,0.23867 -0.18405,0.43214 -0.41108,0.43214c-0.22703,0 -0.41108,-0.19348 -0.41108,-0.43214z" fill="#ff4ac1" stroke="none" stroke-width="0.5"/><path d="M290.09054,282.48693c0,-0.23867 0.18405,-0.43214 0.41108,-0.43214c0.22703,0 0.41108,0.19348 0.41108,0.43214c0,0.23867 -0.18405,0.43214 -0.41108,0.43214c-0.22703,0 -0.41108,-0.19348 -0.41108,-0.43214z" fill="#ff4ac1" stroke="none" stroke-width="0.5"/><path d="M284.43152,279.89376c0,-0.23867 0.18405,-0.43214 0.41108,-0.43214c0.22703,0 0.41108,0.19348 0.41108,0.43214c0,0.23867 -0.18405,0.43214 -0.41108,0.43214c-0.22703,0 -0.41108,-0.19348 -0.41108,-0.43214z" fill="#ff4ac1" stroke="none" stroke-width="0.5"/><path d="M282.25497,283.40217c0,-0.23867 0.18405,-0.43214 0.41108,-0.43214c0.22703,0 0.41108,0.19348 0.41108,0.43214c0,0.23867 -0.18405,0.43214 -0.41108,0.43214c-0.22703,0 -0.41108,-0.19348 -0.41108,-0.43214z" fill="#ff4ac1" stroke="none" stroke-width="0.5"/><path d="M286.89827,291.48678c0,-0.23867 0.18405,-0.43214 0.41108,-0.43214c0.22703,0 0.41108,0.19348 0.41108,0.43214c0,0.23867 -0.18405,0.43214 -0.41108,0.43214c-0.22703,0 -0.41108,-0.19348 -0.41108,-0.43214z" fill="#ff4ac1" stroke="none" stroke-width="0.5"/><path d="M301.55371,277.30059c0,-0.23867 0.18405,-0.43214 0.41108,-0.43214c0.22703,0 0.41108,0.19348 0.41108,0.43214c0,0.23867 -0.18405,0.43214 -0.41108,0.43214c-0.22703,0 -0.41108,-0.19348 -0.41108,-0.43214z" fill="#ff4ac1" stroke="none" stroke-width="0.5"/><path d="M296.62019,268.14821c0,-0.23867 0.18405,-0.43214 0.41108,-0.43214c0.22703,0 0.41108,0.19348 0.41108,0.43214c0,0.23867 -0.18405,0.43214 -0.41108,0.43214c-0.22703,0 -0.41108,-0.19348 -0.41108,-0.43214z" fill="#ff4ac1" stroke="none" stroke-width="0.5"/><path d="M302.13412,264.63979c0,-0.23867 0.18405,-0.43214 0.41108,-0.43214c0.22703,0 0.41108,0.19348 0.41108,0.43214c0,0.23867 -0.18405,0.43214 -0.41108,0.43214c-0.22703,0 -0.41108,-0.19348 -0.41108,-0.43214z" fill="#ff4ac1" stroke="none" stroke-width="0.5"/><path d="M303.58516,272.11423c0,-0.23867 0.18405,-0.43214 0.41108,-0.43214c0.22703,0 0.41108,0.19348 0.41108,0.43214c0,0.23867 -0.18405,0.43214 -0.41108,0.43214c-0.22703,0 -0.41108,-0.19348 -0.41108,-0.43214z" fill="#ff4ac1" stroke="none" stroke-width="0.5"/></g><g data-paper-data="{&quot;index&quot;:null}"><path d="M344.11789,257.71754c-0.00353,-0.03685 4.35812,-0.01631 6.50559,-0.01631c2.76792,0 5.53585,0 8.30378,0c1.02391,0.08717 0.97137,1.6969 1.18249,2.58368c0.41056,1.72457 0.53202,4.07869 1.14452,5.68147c0.11158,2.89162 0.54735,5.68797 0.82432,8.57136c0.95315,3.43791 4.83342,1.53871 7.15597,2.46395c3.20823,1.2844 3.87287,3.89468 3.87487,7.1036c0,1.81699 -1.77948,7.09727 -3.92992,7.38104c-2.66805,1.41024 -4.54239,3.15449 -7.7695,3.26509c-2.79377,0.09316 -5.58865,0.2007 -8.40227,0.2007c-2.05567,-0.01585 -6.01593,-2.44426 -7.68715,-3.75966c-2.45583,-1.94118 -4.02279,-4.08402 -4.18093,-7.43101c-0.08123,-2.90585 -0.01207,-5.82402 -0.01207,-8.73121c0,-3.03024 0.66344,-5.81664 0.82493,-8.84087c0.56104,-1.81578 0.59159,-3.90658 0.9893,-5.72885c0.19639,-0.8999 0.24273,-2.28097 1.17606,-2.743zM350.62347,258.1334c-2.11951,0 -4.20907,0.05411 -6.30407,-0.21514c-0.00533,0.09509 -0.01064,0.19018 -0.01597,0.28527c-1.94358,1.09112 -1.28665,5.99162 -1.94687,8.0654c-0.1348,3.00106 -0.81792,5.75524 -0.81792,8.76135c0,2.90148 -0.06948,5.81403 0.01175,8.71416c0.15117,3.21663 1.65308,5.24374 4.01682,7.10234c1.56514,1.23626 5.52046,3.69134 7.4405,3.67323c2.80941,0 5.59976,-0.10748 8.38925,-0.20049c3.18631,-0.10307 5.03029,-1.86715 7.66749,-3.24805c1.94094,-0.16038 3.6339,-5.39255 3.6339,-6.96616c0.002,-3.05127 -0.55515,-5.48587 -3.60963,-6.69956c-2.5543,-1.02029 -6.33658,1.03579 -7.41354,-2.78492c-0.27681,-2.87155 -0.75967,-5.68626 -0.82324,-8.56576c-0.60892,-1.60718 -0.73168,-3.93783 -1.14103,-5.66547c-0.12774,-0.53909 -0.19934,-2.35017 -0.78366,-2.25621c-2.76792,0 -5.53585,0 -8.30377,0z" data-paper-data="{&quot;index&quot;:null}" fill="#d76ce6" stroke="#d76ce6" stroke-width="2.5"/><path d="M344.29508,257.88342c2.095,0.26926 4.1944,0.20954 6.31391,0.20954c2.76792,0 5.55467,-0.00253 8.32259,-0.00253c0.58432,-0.09395 0.65859,1.71751 0.78633,2.2566c0.40934,1.72763 0.53996,4.06057 1.14888,5.66775c0.06358,2.87951 0.5706,5.72087 0.8474,8.59242c1.07696,3.8207 4.86116,1.78231 7.41546,2.80261c3.05448,1.21369 3.60775,3.66297 3.60575,6.71423c0,1.5736 -1.70345,6.82004 -3.64438,6.98042c-2.6372,1.3809 -4.4978,3.15391 -7.6841,3.25698c-2.78949,0.09301 -5.5992,0.20062 -8.4086,0.20062c-1.92005,0.0181 -5.89218,-2.44578 -7.45733,-3.68204c-2.36373,-1.85859 -3.87676,-3.9009 -4.02792,-7.11754c-0.08122,-2.90014 -0.0154,-5.83389 -0.0154,-8.73537c0,-3.0061 0.68952,-5.78048 0.82432,-8.78156c0.66021,-2.07378 0.01328,-6.98556 1.95686,-8.07668c0.00532,-0.09509 0.01091,-0.19039 0.01624,-0.28548z" data-paper-data="{&quot;noHover&quot;:false,&quot;origItem&quot;:[&quot;Path&quot;,{&quot;applyMatrix&quot;:true,&quot;segments&quot;:[[[834.72233,406.5474],[5.156,0],[-6.73333,0]],[[814.52233,406.5474],[6.73333,0],[-1.42144,-0.21743]],[[812.616,411.76835],[0.31073,-1.24747],[-0.99579,3.99781]],[[809.8403,424.87847],[1.48128,-3.71908],[-0.15466,6.66329]],[[807.83764,444.69997],[0.67335,-6.64489],[-2.61986,8.84125]],[[789.80324,451.14437],[6.21365,-2.361],[-7.43042,2.80852]],[[781.02233,466.6474],[-0.00487,-7.06074],[0,3.64139]],[[789.86227,482.76738],[-4.72159,-0.37112],[6.41532,3.19545]],[[808.51442,490.28347],[-7.7511,-0.23852],[6.78579,0.21522]],[[828.92233,490.7474],[-6.83425,0],[4.67075,0.04189]],[[847.02233,482.2474],[-3.80742,2.86075],[5.75009,-4.30086]],[[856.79376,465.81232],[-0.36773,7.44343],[0.1976,-6.71102]],[[856.82233,445.6474],[0,6.71413],[0,-6.95623]],[[854.83264,425.37331],[0.32792,6.94459],[-1.60605,-4.7988]],[[850.09664,406.70967],[4.728,2.52487],[-0.01295,-0.22004]],[[850.05778,406.04955],[0.01295,0.22004],[-5.09635,0.62306]]],&quot;closed&quot;:true}]}" fill="#eba1ff" stroke="none" stroke-width="0.5"/><path d="M365.33553,284.49448c-0.22703,0 -0.41108,-0.19348 -0.41108,-0.43214c0,-0.23867 0.18405,-0.43214 0.41108,-0.43214c0.22703,0 0.41107,0.19348 0.41107,0.43214c0,0.23867 -0.18404,0.43214 -0.41107,0.43214z" fill="#ff4ac1" stroke="none" stroke-width="0.5"/><path d="M361.85305,289.83337c-0.22703,0 -0.41108,-0.19348 -0.41108,-0.43214c0,-0.23867 0.18405,-0.43214 0.41108,-0.43214c0.22703,0 0.41108,0.19348 0.41108,0.43214c0,0.23867 -0.18405,0.43214 -0.41108,0.43214z" fill="#ff4ac1" stroke="none" stroke-width="0.5"/><path d="M349.37417,290.90114c-0.22703,0 -0.41108,-0.19348 -0.41108,-0.43214c0,-0.23867 0.18405,-0.43214 0.41108,-0.43214c0.22703,0 0.41107,0.19348 0.41107,0.43214c0,0.23867 -0.18404,0.43214 -0.41107,0.43214z" fill="#ff4ac1" stroke="none" stroke-width="0.5"/><path d="M358.37057,285.10464c-0.22703,0 -0.41107,-0.19348 -0.41107,-0.43214c0,-0.23867 0.18404,-0.43215 0.41107,-0.43215c0.22703,0 0.41108,0.19348 0.41108,0.43215c0,0.23867 -0.18405,0.43214 -0.41108,0.43214z" fill="#ff4ac1" stroke="none" stroke-width="0.5"/><path d="M357.20975,287.85036c-0.22703,0 -0.41108,-0.19348 -0.41108,-0.43215c0,-0.23867 0.18405,-0.43214 0.41108,-0.43214c0.22703,0 0.41108,0.19348 0.41108,0.43214c0,0.23867 -0.18405,0.43215 -0.41108,0.43215z" fill="#ff4ac1" stroke="none" stroke-width="0.5"/><path d="M361.70795,282.96908c-0.22703,0 -0.41108,-0.19348 -0.41108,-0.43214c0,-0.23867 0.18405,-0.43214 0.41108,-0.43214c0.22703,0 0.41107,0.19348 0.41107,0.43214c0,0.23867 -0.18404,0.43214 -0.41107,0.43214z" fill="#ff4ac1" stroke="none" stroke-width="0.5"/><path d="M367.36698,280.37591c-0.22703,0 -0.41107,-0.19348 -0.41107,-0.43214c0,-0.23867 0.18404,-0.43214 0.41107,-0.43214c0.22703,0 0.41108,0.19348 0.41108,0.43214c0,0.23867 -0.18405,0.43214 -0.41108,0.43214z" fill="#ff4ac1" stroke="none" stroke-width="0.5"/><path d="M369.54353,283.88432c-0.22703,0 -0.41107,-0.19347 -0.41107,-0.43214c0,-0.23867 0.18404,-0.43214 0.41107,-0.43214c0.22703,0 0.41108,0.19348 0.41108,0.43214c0,0.23867 -0.18405,0.43214 -0.41108,0.43214z" fill="#ff4ac1" stroke="none" stroke-width="0.5"/><path d="M364.90022,291.96892c-0.22703,0 -0.41107,-0.19348 -0.41107,-0.43214c0,-0.23867 0.18404,-0.43214 0.41107,-0.43214c0.22703,0 0.41108,0.19348 0.41108,0.43214c0,0.23867 -0.18405,0.43214 -0.41108,0.43214z" fill="#ff4ac1" stroke="none" stroke-width="0.5"/><path d="M350.24478,277.78274c-0.22703,0 -0.41107,-0.19348 -0.41107,-0.43214c0,-0.23867 0.18404,-0.43214 0.41107,-0.43214c0.22703,0 0.41108,0.19348 0.41108,0.43214c0,0.23867 -0.18405,0.43214 -0.41108,0.43214z" fill="#ff4ac1" stroke="none" stroke-width="0.5"/><path d="M355.1783,268.63035c-0.22703,0 -0.41108,-0.19348 -0.41108,-0.43214c0,-0.23867 0.18405,-0.43214 0.41108,-0.43214c0.22703,0 0.41107,0.19348 0.41107,0.43214c0,0.23867 -0.18404,0.43214 -0.41107,0.43214z" fill="#ff4ac1" stroke="none" stroke-width="0.5"/><path d="M349.66437,265.12193c-0.22703,0 -0.41107,-0.19348 -0.41107,-0.43214c0,-0.23867 0.18404,-0.43214 0.41107,-0.43214c0.22703,0 0.41108,0.19348 0.41108,0.43214c0,0.23867 -0.18405,0.43214 -0.41108,0.43214z" fill="#ff4ac1" stroke="none" stroke-width="0.5"/><path d="M348.21334,272.59638c-0.22703,0 -0.41108,-0.19348 -0.41108,-0.43214c0,-0.23867 0.18405,-0.43214 0.41108,-0.43214c0.22703,0 0.41108,0.19348 0.41108,0.43214c0,0.23867 -0.18405,0.43214 -0.41108,0.43214z" fill="#ff4ac1" stroke="none" stroke-width="0.5"/></g></g></g></svg>