<svg version="1.1" xmlns="http://www.w3.org/2000/svg" xmlns:xlink="http://www.w3.org/1999/xlink" width="143.61488" height="43.97805" viewBox="0,0,143.61488,43.97805"><g transform="translate(-246.67663,-158.01097)"><g data-paper-data="{&quot;isPaintingLayer&quot;:true}" fill-rule="nonzero" stroke-linejoin="miter" stroke-miterlimit="10" stroke-dasharray="" stroke-dashoffset="0" style="mix-blend-mode: normal"><path d="M375.10444,201.38125c-1.66159,0.40605 -3.47781,0.38735 -3.80072,0.32112c-0.20756,-0.04257 -2.13795,-0.31631 -3.84261,-0.85634c-0.08292,-0.02627 -2.2423,-0.8222 -3.28639,-1.57193c-2.16294,-1.55315 -3.87041,-2.98087 -7.72168,-4.13746c-1.48034,-0.44456 -3.1428,-0.55577 -4.71294,-0.50293c-2.91234,0.098 -5.5071,0.76036 -6.03302,0.90658c-1.62608,0.4521 -3.74929,0.70325 -4.15305,0.68093c-0.67435,-0.03728 -1.48783,0.08243 -2.22058,0.07486c-1.22324,-0.01263 -2.25418,-0.13475 -2.27664,-0.13736c-0.17492,-0.02034 -1.51439,-0.21471 -2.79909,-0.61723c-1.45787,-0.45678 -2.87805,-1.1332 -3.04055,-1.25104c-0.69848,-0.5065 -1.6322,-1.14474 -2.59618,-2.51772c-0.07327,-0.10435 -0.66617,-1.09567 -1.32411,-2.11198c-0.3602,-0.55638 -0.88291,-1.01087 -1.01806,-1.58567c-0.09108,-0.38737 -0.38834,-0.65804 -0.57929,-1.11621c-0.25191,-0.60443 -0.4033,-1.41065 -0.48908,-2.00832c-0.62999,-4.3893 -0.24611,-9.2651 -0.24611,-9.2651c0,0 1.00226,-4.75984 1.44485,-5.50764c0.44071,-0.74463 0.98307,-2.27658 1.97746,-3.40704c1.62028,-1.84199 3.78445,-3.26199 3.78445,-3.26199c0,0 1.41105,-1.06788 3.54654,-1.70129c1.38098,-0.40961 3.37677,-0.53076 4.43975,-0.42346c0.50286,0.05076 2.02227,-0.09365 4.46446,0.06931c0.84763,0.05656 2.49556,0.11136 3.93783,0.5466c0.60333,0.18207 1.12875,0.74524 1.61168,0.89919c0.47921,0.15276 3.08953,2.07957 4.95177,2.58767c1.96058,0.53493 3.95957,0.4632 4.55122,0.47207c1.527,0.0229 2.56198,-0.2101 3.42272,-0.45989c1.23715,-0.35902 3.23042,-1.30517 3.31444,-1.34786c0.40147,-0.20398 2.92602,-1.21102 3.12984,-1.26558c4.43587,-1.18749 9.46419,-0.68153 9.97822,-0.47396c0.66319,0.2678 3.74917,2.13259 5.42219,3.83751c0.61365,0.62535 0.96668,1.19376 1.34545,1.73945c0.56374,0.81216 1.00667,1.48507 1.01521,1.50274c0.38122,0.78826 2.9768,7.27698 2.72145,13.12454c-0.23742,5.43709 -3.43344,10.10423 -3.62901,10.56462c-0.20178,0.475 -3.7942,4.54908 -6.2118,6.12548c-1.92819,1.25727 -4.2512,1.87315 -5.07861,2.07535z" fill="#ba7439" stroke="#000000" stroke-width="0.5" stroke-linecap="round"/><path d="" data-paper-data="{&quot;noHover&quot;:false,&quot;origItem&quot;:[&quot;Path&quot;,{&quot;applyMatrix&quot;:true,&quot;segments&quot;:[[[221.33019,611.96032],[0,0],[1.18796,10.06976]],[[221.36313,643.0381],[0,-10.14116],[-0.01082,0.80922]],[[222.37905,649.44242],[-0.56482,-0.07888],[5.94232,0.82974]],[[237.63571,645.59822],[-5.346,1.24482],[7.56656,-1.7619]],[[260.99541,644.82514],[-7.30032,1.89456],[4.3596,-1.1314]],[[272.87549,643.28868],[-4.61756,0],[24.25608,0]],[[345.64369,643.28868],[-24.25608,0],[23.68548,0]],[[415.76687,650.04322],[-23.68518,-0.01642],[24.93328,2.65318]],[[491.68123,650.79056],[-25.0784,0],[7.84098,0]],[[513.72735,647.84332],[-7.36778,1.58762],[4.31242,-0.92924]],[[528.18835,647.78982],[-4.37994,0],[8.21388,0]],[[554.11037,647.94956],[-8.31786,-1.25608],[0,0]],[[553.75807,647.47264],[0,0],[-3.64264,-8.9295]],[[542.62191,621.33624],[2.6925,9.41838],[0,0]],[[542.56007,620.50168],[-0.0443,0.46308],[-0.1097,-0.35806]],[542.45035,619.85488],[[542.59341,619.75484],[0,0],[-1.77544,-4.49932]],[[539.13807,606.00906],[1.5284,4.46762],[-1.57736,-9.47816]],[[534.49709,578.17342],[2.16912,9.28794],[-1.10928,-4.74978]],[[529.36527,563.32176],[3.07118,3.97394],[0,0]],[[529.76527,560.52176],[-1.6,1.2],[0.01434,-0.01076]],[[529.80819,560.49016],[-0.01428,0.0103],[0.00188,-5.27972]],[[528.97029,544.70482],[-0.0112,5.32368],[-2.1504,-15.0527]],[[523.48693,499.47222],[0,15.39796],[0,0]],[[523.51493,499.17968],[-0.028,0.17636],[-0.15884,-0.19934]],[523.27667,498.82148],[[522.67131,497.41302],[0,0],[-0.92562,-5.5573]],[[520.57315,480.60606],[0.96248,5.50956],[-0.46928,-2.68624]],[[518.85143,473.4853],[0.0365,2.9397],[0,-14.52902]],[[519.69329,430.11106],[-0.03184,14.52712],[0,0]],[[519.27285,428.95634],[0,0],[0,-9.2368]],[[518.85827,401.30828],[-0.0265,9.18612],[-1.61258,-9.5129]],[[518.01837,372.68454],[0.86174,9.55806],[-0.44782,-4.96704]],[[515.51167,357.93596],[0.26216,4.96814],[0,0]],[[515.48019,357.8786],[0,0],[0.01976,-7.71342]],[[512.54005,334.89814],[1.48228,7.57258],[-0.01242,-9.1038]],[[508.32305,307.4744],[0.83256,9.1176],[-0.55138,-6.03826]],[[509.15327,289.59048],[-0.09852,5.94608],[0,0]],[[507.71657,287.75662],[0,0],[-2.98888,-8.91986]],[[498.83211,261.14078],[4.23272,8.6159],[-1.09152,-2.22188]],[[496.43565,255.04688],[1.52644,1.908],[-4.8944,-8.1382]],[[478.43733,239.57704],[7.71112,5.17192],[-4.29644,-2.88168]],[[465.67029,231.31364],[4.82126,2.19022],[-3.04232,-1.38209]],[[454.91642,226.43968],[3.65797,1.02479],[-7.70686,8.1729]],[[446.76641,259.57135],[1.99884,-10.65051],[0.23136,0.48694]],[446.99777,260.53312],[[446.99777,261.79734],[0,0],[0,8.20738]],[[451.95003,285.6006],[-3.24678,-7.50312],[1.50468,5.9756]],[[458.62347,300.173],[-2.44922,-5.26098],[2.68528,5.76808]],[[465.73275,318.60222],[-2.84728,-5.87724],[1.7803,3.67484]],[[474.70509,325.41452],[-2.9172,-2.2298],[0.99196,0.75824]],[[477.31917,328.0972],[-0.02184,-1.24838],[0.02664,1.523]],[[474.81887,331.92222],[0.83344,-1.275],[-14.04556,-1.20128]],[[432.70209,318.03136],[11.5827,8.03308],[0,0]],[[431.59873,317.75916],[0,0],[-9.92948,-7.45294]],[[402.28937,293.02182],[10.66306,6.29984],[-10.6143,-6.07522]],[[386.13435,262.78192],[0.97348,11.67922],[-0.39118,-4.69316]],[[385.70791,248.73362],[-0.02366,4.72596],[0.00172,-0.34318]],[[385.68947,247.38052],[-0.00106,0.50614],[-11.34958,7.02846]],[[354.42029,272.1936],[10.29542,-8.4106],[-5.94694,4.85822]],[[335.32497,285.77802],[6.27764,-4.4837],[-6.36068,4.2389]],[[314.84215,297.87798],[7.63564,-1.78408],[-5.64176,1.31822]],[[297.10485,297.51008],[5.78226,0],[-5.31998,0]],[[281.44501,295.18376],[4.71328,2.74608],[-6.09492,-2.6052]],[[263.76187,286.7637],[5.90316,2.97586],[-1.73494,-0.8746]],[[256.37617,283.72538],[1.1854,1.45742],[-1.77252,-2.17926]],[[257.08689,275.02426],[-1.40602,2.05674],[3.62346,-5.30046]],[[273.65417,266.03734],[-4.84858,3.69358],[4.42616,-2.65838]],[[286.22761,256.81298],[-3.24804,4.11838],[2.63124,-3.33628]],[[290.15057,240.51646],[1.32478,4.2424],[-1.05118,-3.36626]],[[280.91155,233.37344],[3.8945,1.39282],[1.0271,1.07764]],[[281.04235,235.79552],[0,0],[-6.38706,9.32508]],[[256.88315,259.25234],[7.28458,-8.61874],[-3.07222,3.63488]],[[250.28465,271.80452],[2.66882,-4.0151],[-2.95752,4.3673]],[[245.28343,285.52826],[1.54184,-4.70384],[-3.76512,11.48654]],[[237.78761,321.51686],[3.00796,-12.03186],[-5.78958,16.72838]],[[233.36625,374.9712],[0,-17.5994],[0,20.25506]],[[233.36625,435.7364],[0,-20.25506],[0,5.9887]],[[234.08407,453.4217],[-0.14384,-5.9486],[0.03238,0.19122]],[234.11645,453.7409],[[234.11645,458.24204],[0,0],[0,0.60852]],[[233.41589,459.76244],[0.42878,-0.36682],[0.1766,6.43228]],[[233.35655,479.1943],[0.78274,-6.24032],[-0.67576,5.38742]],[[228.76251,493.88324],[1.85264,-4.6309],[-0.73542,1.83828]],[[228.09997,501.74722],[0.53112,-2.1245],[-0.04642,1.69442]],[[226.52877,506.58354],[0.49122,-1.62232],[-2.04146,6.74218]],[[225.83857,528.82996],[1.15166,-7.02178],[-1.60248,9.77046]],[[220.60335,557.96398],[1.97636,-9.75194],[0,5.4645]],[[218.33669,573.84122],[0.91122,-5.25924],[-0.74118,4.27784]],[[218.33565,587.66186],[-0.13878,-4.50386],[1.16104,0.78548]],[219.01005,589.90724],[[218.40807,591.71318],[0,0],[0.3106,6.76616]],[[221.33031,611.96044],[-0.79476,-6.7368],[0,0]]],&quot;closed&quot;:true}]}" fill="#52402d" stroke="none" stroke-width="0.5" stroke-linecap="butt"/><path d="" data-paper-data="{&quot;noHover&quot;:false,&quot;origItem&quot;:[&quot;Path&quot;,{&quot;applyMatrix&quot;:true,&quot;segments&quot;:[[[221.33019,611.96032],[0,0],[1.18796,10.06976]],[[221.36313,643.0381],[0,-10.14116],[-0.01082,0.80922]],[[222.37905,649.44242],[-0.56482,-0.07888],[5.94232,0.82974]],[[237.63571,645.59822],[-5.346,1.24482],[7.56656,-1.7619]],[[260.99541,644.82514],[-7.30032,1.89456],[4.3596,-1.1314]],[[272.87549,643.28868],[-4.61756,0],[24.25608,0]],[[345.64369,643.28868],[-24.25608,0],[23.68548,0]],[[415.76687,650.04322],[-23.68518,-0.01642],[24.93328,2.65318]],[[491.68123,650.79056],[-25.0784,0],[7.84098,0]],[[513.72735,647.84332],[-7.36778,1.58762],[4.31242,-0.92924]],[[528.18835,647.78982],[-4.37994,0],[8.21388,0]],[[554.11037,647.94956],[-8.31786,-1.25608],[0,0]],[[553.75807,647.47264],[0,0],[-3.64264,-8.9295]],[[542.62191,621.33624],[2.6925,9.41838],[0,0]],[[542.56007,620.50168],[-0.0443,0.46308],[-0.1097,-0.35806]],[542.45035,619.85488],[[542.59341,619.75484],[0,0],[-1.77544,-4.49932]],[[539.13807,606.00906],[1.5284,4.46762],[-1.57736,-9.47816]],[[534.49709,578.17342],[2.16912,9.28794],[-1.10928,-4.74978]],[[529.36527,563.32176],[3.07118,3.97394],[0,0]],[[529.76527,560.52176],[-1.6,1.2],[0.01434,-0.01076]],[[529.80819,560.49016],[-0.01428,0.0103],[0.00188,-5.27972]],[[528.97029,544.70482],[-0.0112,5.32368],[-2.1504,-15.0527]],[[523.48693,499.47222],[0,15.39796],[0,0]],[[523.51493,499.17968],[-0.028,0.17636],[-0.15884,-0.19934]],[523.27667,498.82148],[[522.67131,497.41302],[0,0],[-0.92562,-5.5573]],[[520.57315,480.60606],[0.96248,5.50956],[-0.46928,-2.68624]],[[518.85143,473.4853],[0.0365,2.9397],[0,-14.52902]],[[519.69329,430.11106],[-0.03184,14.52712],[0,0]],[[519.27285,428.95634],[0,0],[0,-9.2368]],[[518.85827,401.30828],[-0.0265,9.18612],[-1.61258,-9.5129]],[[518.01837,372.68454],[0.86174,9.55806],[-0.44782,-4.96704]],[[515.51167,357.93596],[0.26216,4.96814],[0,0]],[[515.48019,357.8786],[0,0],[0.01976,-7.71342]],[[512.54005,334.89814],[1.48228,7.57258],[-0.01242,-9.1038]],[[508.32305,307.4744],[0.83256,9.1176],[-0.55138,-6.03826]],[[509.15327,289.59048],[-0.09852,5.94608],[0,0]],[[507.71657,287.75662],[0,0],[-2.98888,-8.91986]],[[498.83211,261.14078],[4.23272,8.6159],[-1.09152,-2.22188]],[[496.43565,255.04688],[1.52644,1.908],[-4.8944,-8.1382]],[[478.43733,239.57704],[7.71112,5.17192],[-4.29644,-2.88168]],[[465.67029,231.31364],[4.82126,2.19022],[-3.04232,-1.38209]],[[454.91642,226.43968],[3.65797,1.02479],[-7.70686,8.1729]],[[446.76641,259.57135],[1.99884,-10.65051],[0.23136,0.48694]],[446.99777,260.53312],[[446.99777,261.79734],[0,0],[0,8.20738]],[[451.95003,285.6006],[-3.24678,-7.50312],[1.50468,5.9756]],[[458.62347,300.173],[-2.44922,-5.26098],[2.68528,5.76808]],[[465.73275,318.60222],[-2.84728,-5.87724],[1.7803,3.67484]],[[474.70509,325.41452],[-2.9172,-2.2298],[0.99196,0.75824]],[[477.31917,328.0972],[-0.02184,-1.24838],[0.02664,1.523]],[[474.81887,331.92222],[0.83344,-1.275],[-14.04556,-1.20128]],[[432.70209,318.03136],[11.5827,8.03308],[0,0]],[[431.59873,317.75916],[0,0],[-9.92948,-7.45294]],[[402.28937,293.02182],[10.66306,6.29984],[-10.6143,-6.07522]],[[386.13435,262.78192],[0.97348,11.67922],[-0.39118,-4.69316]],[[385.70791,248.73362],[-0.02366,4.72596],[0.00172,-0.34318]],[[385.68947,247.38052],[-0.00106,0.50614],[-11.34958,7.02846]],[[354.42029,272.1936],[10.29542,-8.4106],[-5.94694,4.85822]],[[335.32497,285.77802],[6.27764,-4.4837],[-6.36068,4.2389]],[[314.84215,297.87798],[7.63564,-1.78408],[-5.64176,1.31822]],[[297.10485,297.51008],[5.78226,0],[-5.31998,0]],[[281.44501,295.18376],[4.71328,2.74608],[-6.09492,-2.6052]],[[263.76187,286.7637],[5.90316,2.97586],[-1.73494,-0.8746]],[[256.37617,283.72538],[1.1854,1.45742],[-1.77252,-2.17926]],[[257.08689,275.02426],[-1.40602,2.05674],[3.62346,-5.30046]],[[273.65417,266.03734],[-4.84858,3.69358],[4.42616,-2.65838]],[[286.22761,256.81298],[-3.24804,4.11838],[2.63124,-3.33628]],[[290.15057,240.51646],[1.32478,4.2424],[-1.05118,-3.36626]],[[280.91155,233.37344],[3.8945,1.39282],[1.0271,1.07764]],[[281.04235,235.79552],[0,0],[-6.38706,9.32508]],[[256.88315,259.25234],[7.28458,-8.61874],[-3.07222,3.63488]],[[250.28465,271.80452],[2.66882,-4.0151],[-2.95752,4.3673]],[[245.28343,285.52826],[1.54184,-4.70384],[-3.76512,11.48654]],[[237.78761,321.51686],[3.00796,-12.03186],[-5.78958,16.72838]],[[233.36625,374.9712],[0,-17.5994],[0,20.25506]],[[233.36625,435.7364],[0,-20.25506],[0,5.9887]],[[234.08407,453.4217],[-0.14384,-5.9486],[0.03238,0.19122]],[234.11645,453.7409],[[234.11645,458.24204],[0,0],[0,0.60852]],[[233.41589,459.76244],[0.42878,-0.36682],[0.1766,6.43228]],[[233.35655,479.1943],[0.78274,-6.24032],[-0.67576,5.38742]],[[228.76251,493.88324],[1.85264,-4.6309],[-0.73542,1.83828]],[[228.09997,501.74722],[0.53112,-2.1245],[-0.04642,1.69442]],[[226.52877,506.58354],[0.49122,-1.62232],[-2.04146,6.74218]],[[225.83857,528.82996],[1.15166,-7.02178],[-1.60248,9.77046]],[[220.60335,557.96398],[1.97636,-9.75194],[0,5.4645]],[[218.33669,573.84122],[0.91122,-5.25924],[-0.74118,4.27784]],[[218.33565,587.66186],[-0.13878,-4.50386],[1.16104,0.78548]],[219.01005,589.90724],[[218.40807,591.71318],[0,0],[0.3106,6.76616]],[[221.33031,611.96044],[-0.79476,-6.7368],[0,0]]],&quot;closed&quot;:true}]}" fill="#52402d" stroke="none" stroke-width="0.5" stroke-linecap="butt"/><path d="" fill="#000000" stroke="none" stroke-width="0.5" stroke-linecap="butt"/><path d="M364.997,180.06072c0,4.70789 -4.01306,8.52439 -8.96341,8.52439c-4.95036,0 -8.96341,-3.8165 -8.96341,-8.52439c0,-4.70789 4.01306,-8.52439 8.96341,-8.52439c4.95036,0 8.96341,3.8165 8.96341,8.52439z" fill="#623d1e" stroke="#482d16" stroke-width="0.5" stroke-linecap="butt"/><path d="M248.79775,161.58822l19.43573,2.85861l-1.45168,14.09738l-19.82632,-0.7462z" fill="none" stroke="#000000" stroke-width="0.5" stroke-linecap="round"/><path d="M372.64366,187.54235l1.18104,-10.79687l3.96294,0.32787l-1.18801,10.87474z" fill="none" stroke="#000000" stroke-width="0.5" stroke-linecap="round"/><path d="M268.11508,165.89447l57.78741,5.85456c0,0 -0.80568,3.05284 -0.96822,4.73404c-0.17708,1.83162 -0.05437,5.84313 -0.05437,5.84313l-57.84247,-5.83882z" fill="none" stroke="#000000" stroke-width="0.5" stroke-linecap="round"/><path d="M255.87551,174.44432c-0.73856,-0.07041 -1.28021,-0.72622 -1.20981,-1.46478c0.07041,-0.73856 0.72622,-1.2802 1.46477,-1.2098c0.73856,0.07041 1.28021,0.72621 1.2098,1.46476c-0.07041,0.73856 -0.72621,1.28022 -1.46477,1.20981z" fill="#000000" stroke="none" stroke-width="0.5" stroke-linecap="butt"/><path d="M256.47781,169.11072c-0.71741,-0.06839 -1.24356,-0.70541 -1.17517,-1.42282c0.06839,-0.71741 0.70543,-1.24355 1.42284,-1.17516c0.71741,0.06839 1.24355,0.70542 1.17516,1.42283c-0.06839,0.71741 -0.70541,1.24355 -1.42282,1.17516z" fill="#000000" stroke="none" stroke-width="0.5" stroke-linecap="butt"/><path d="M263.68439,170.67074c-0.36929,-0.03521 -0.64011,-0.3631 -0.6049,-0.73239c0.03521,-0.36929 0.3631,-0.64011 0.73239,-0.6049c0.36929,0.03521 0.64009,0.3631 0.60489,0.73239c-0.03521,0.36929 -0.36309,0.64011 -0.73237,0.6049z" fill="#000000" stroke="none" stroke-width="0.5" stroke-linecap="butt"/><path d="M263.38266,173.06679c-0.36929,-0.03521 -0.64009,-0.36309 -0.60489,-0.73238c0.03521,-0.36929 0.36309,-0.64011 0.73237,-0.6049c0.36929,0.03521 0.64011,0.3631 0.6049,0.73238c-0.03521,0.36929 -0.3631,0.6401 -0.73239,0.6049z" fill="#000000" stroke="none" stroke-width="0.5" stroke-linecap="butt"/><g fill="#000000" stroke="#000000" stroke-width="0.5"><path d="M252.12569,181.43429l0.2853,-3.40284l0.81889,0.01992l-0.32404,3.39915z" stroke-linecap="round"/><path d="M252.62018,180.50171c0.92644,0.08832 1.64167,0.53543 1.59752,0.99865c-0.04416,0.46322 -0.83099,0.76714 -1.75743,0.67882c-0.92644,-0.08832 -1.64168,-0.53543 -1.59752,-0.99864c0.04416,-0.46322 0.83099,-0.76715 1.75744,-0.67883z" stroke-linecap="butt"/></g><g fill="#000000" stroke="#000000" stroke-width="0.5"><path d="M260.66655,181.71064l0.2853,-3.40284l0.81889,0.01993l-0.32404,3.39915z" stroke-linecap="round"/><path d="M261.16104,180.77806c0.92644,0.08832 1.64166,0.53542 1.59751,0.99865c-0.04416,0.46323 -0.83098,0.76715 -1.75742,0.67883c-0.92644,-0.08832 -1.64168,-0.53543 -1.59753,-0.99865c0.04416,-0.46323 0.831,-0.76714 1.75744,-0.67883z" stroke-linecap="butt"/></g><g data-paper-data="{&quot;index&quot;:null}" fill="#000000" stroke="#000000" stroke-width="0.5"><path d="M255.20956,159.07597l-0.32404,3.39915l-0.80791,-0.13516l0.36277,-3.39545z" stroke-linecap="round"/><path d="M253.15225,158.95507c0.04416,-0.46323 0.831,-0.76715 1.75744,-0.67883c0.92644,0.08832 1.64167,0.53542 1.59752,0.99865c-0.04416,0.46323 -0.83099,0.76715 -1.75743,0.67883c-0.92644,-0.08832 -1.64168,-0.53543 -1.59752,-0.99865z" stroke-linecap="butt"/></g><g data-paper-data="{&quot;index&quot;:null}" fill="#000000" stroke="#000000" stroke-width="0.5"><path d="M263.36655,160.24309l-0.32404,3.39915l-0.80792,-0.13515l0.36278,-3.39546z" stroke-linecap="round"/><path d="M261.30925,160.12219c0.04416,-0.46323 0.831,-0.76714 1.75743,-0.67883c0.92644,0.08832 1.64167,0.53542 1.59752,0.99865c-0.04416,0.46323 -0.83099,0.76714 -1.75743,0.67883c-0.92644,-0.08832 -1.64168,-0.53543 -1.59752,-0.99865z" stroke-linecap="butt"/></g><path d="M256.59509,174.03173l118.30518,11.68914" fill="none" stroke="#000000" stroke-width="0.5" stroke-linecap="round"/><path d="M257.48291,167.06043l118.24165,11.68429" fill="none" stroke="#000000" stroke-width="0.5" stroke-linecap="round"/><path d="M264.01982,172.75785l111.08103,11.00001" fill="none" stroke="#000000" stroke-width="0.5" stroke-linecap="round"/><path d="M264.38012,169.73595l111.09573,11.00245" fill="none" stroke="#000000" stroke-width="0.5" stroke-linecap="round"/><path d="M375.16804,183.45234c0.11246,0.01153 0.19421,0.11258 0.18261,0.22569c-0.0116,0.11311 -0.11217,0.19546 -0.22462,0.18393c-0.11246,-0.01153 -0.19421,-0.11258 -0.18261,-0.22569c0.0116,-0.11311 0.11217,-0.19546 0.22462,-0.18392z" fill="none" stroke="#000000" stroke-width="0.5" stroke-linecap="butt"/><path d="M374.90662,185.53435c0.11582,0.01188 0.2003,0.1132 0.1887,0.22631c-0.0116,0.11311 -0.11489,0.19518 -0.23071,0.1833c-0.11582,-0.01188 -0.2003,-0.11321 -0.1887,-0.22632c0.0116,-0.11311 0.11489,-0.19518 0.23071,-0.1833z" fill="none" stroke="#000000" stroke-width="0.5" stroke-linecap="butt"/><path d="M375.46352,180.51204c0.11246,0.01153 0.19421,0.11258 0.18261,0.22569c-0.0116,0.11311 -0.11217,0.19546 -0.22462,0.18393c-0.11246,-0.01153 -0.19421,-0.11258 -0.18261,-0.22569c0.0116,-0.11311 0.11217,-0.19546 0.22462,-0.18392z" fill="none" stroke="#000000" stroke-width="0.5" stroke-linecap="butt"/><path d="M375.66383,178.55902c0.11246,0.01153 0.19421,0.11258 0.18261,0.22569c-0.0116,0.11311 -0.11217,0.19546 -0.22462,0.18393c-0.11246,-0.01153 -0.19421,-0.11258 -0.18261,-0.22569c0.0116,-0.11311 0.11217,-0.19546 0.22462,-0.18392z" fill="none" stroke="#000000" stroke-width="0.5" stroke-linecap="butt"/><g><path d="M347.53794,190.60648c0,0 -1.89292,1.14803 -1.99809,0.41836c-0.06549,-0.45437 -0.82516,-0.95578 -0.60644,-1.75812c0.3965,-1.45445 1.92226,-3.34369 1.84564,-3.80795c-0.00826,-0.05008 -1.05374,0.25502 -1.8676,1.14695c-0.84172,0.92246 -1.45275,2.43278 -1.4617,2.37847c-0.06893,-0.41861 -1.57728,0.46608 -1.5112,-0.16984c0.0466,-0.44841 -0.54705,-0.83473 -0.4053,-1.39239c0.10746,-0.4228 0.75291,-0.81695 0.91637,-1.2801c0.13335,-0.37783 0.95005,-0.69316 1.09875,-1.08511c0.05426,-0.14301 0.78447,-0.5545 0.83751,-0.69852c0.06299,-0.17102 0.9871,-0.45289 1.04421,-0.62275c0.20414,-0.60717 -0.18047,-0.23192 -0.10399,-0.79016c0.04357,-0.31797 -2.1669,0.60931 -2.13277,0.2783c0.0161,-0.15613 -0.43839,0.38673 -1.075,0.7691c-0.44362,0.26645 -1.14899,0.43625 -1.11662,0.31595c0.05478,-0.20357 -0.99244,0.14722 -1.33002,-0.43685c-0.14531,-0.25141 -0.24948,-0.83407 -0.1539,-1.31321c0.07869,-0.39447 0.34589,-0.70206 0.3765,-0.84182c0.19267,-0.87959 1.96127,-0.98377 2.82428,-1.76529c0.17117,-0.155 2.38436,0.53038 3.09575,0.62397c0.86345,0.11361 0.2414,-0.35642 0.36366,-0.57507c0.10821,-0.19351 -1.85673,-1.12198 -1.76037,-1.31545c0.09553,-0.1918 -0.71495,-1.1572 -0.62356,-1.33576c0.14113,-0.27579 0.49525,-1.28898 0.62261,-1.51128c0.14589,-0.25464 0.77548,-0.07284 0.877,-0.23323c0.12531,-0.19796 1.009,-0.26265 1.01047,-0.2797c0.008,-0.09241 0.41407,-0.3968 0.76589,0.56051c0.14594,0.39711 0.46423,1.44875 0.81396,1.67396c0.86933,0.5598 2.04188,-0.09156 2.04188,-0.09156c0,0 0.917,-0.1337 1.6006,0.32125c0.13736,0.09142 0.41826,0.42463 0.51446,0.73181c0.09047,0.28888 0.02649,-0.23487 0.10479,-0.24867c0.13824,-0.02436 0.41118,0.67169 0.57659,0.64466c3.77065,-0.61623 14.12923,-2.45479 17.47314,-3.08047c0.17388,-0.03253 -2.10023,-11.72846 -1.98383,-12.38429c0.05417,-0.30517 0.58321,-0.16774 0.76099,-0.22009c0.51001,-0.15018 0.8705,-0.58422 1.24554,-0.48616c0.17831,0.04662 1.11518,-0.2451 1.22523,-0.23922c0.37699,0.02014 -0.38938,0.10162 -0.05508,0.02638c0.06603,-0.01486 0.55029,-0.24122 0.62599,-0.13755c0.37594,0.51481 0.63384,2.4202 1.01494,4.59369c0.62908,3.58778 1.30901,7.90608 1.30901,7.90608l0.47379,2.83564c0,0 0.13543,0.31602 -0.09363,0.57318c-0.24025,0.26972 -0.85573,0.48327 -1.31561,0.57735c-2.46272,0.50382 -13.6455,2.51479 -19.73646,3.52786c-0.27485,0.04572 -0.1909,0.43364 -0.15021,0.82198c0.06987,0.66683 -0.28846,1.4398 -0.85859,1.91949c-1.12048,0.94276 -3.01038,1.59429 -4.27137,1.9506c-0.75783,0.21413 -0.84826,3.50505 -0.84826,3.50505z" fill="#fffd4d" stroke="none" stroke-width="0" stroke-linecap="butt"/><path d="M346.01916,179.77526c0,0 -0.70613,-0.32754 -0.99612,-0.52441c-0.25578,-0.17364 -0.6541,-0.5959 -0.6541,-0.5959c0,0 -0.30992,-0.46261 -0.39462,-0.74597c-0.08601,-0.28771 -0.11754,-0.96746 -0.11754,-0.96746c0,0 0.14411,-0.66039 0.53262,-0.94771c0.1366,-0.10102 0.36112,-0.40059 0.64419,-0.52151c0.52431,-0.22397 1.16217,-0.12479 1.16217,-0.12479c0,0 0.29363,0.08882 0.41586,0.14477c0.14363,0.06575 0.47973,0.46068 0.47973,0.46068c0,0 0.16463,0.45419 0.19648,0.62002c0.0418,0.21759 0.13844,0.64088 0.13844,0.64088c0,0 0.21511,0.30117 0.34087,0.35029c0.0734,0.02866 0.20357,0.1217 0.32468,0.13114c0.20369,0.01587 0.451,-0.00286 0.451,-0.00286c0,0 0.90312,-0.20309 1.3247,-0.24106c0.36217,-0.03262 1.05373,0.0268 1.05373,0.0268c0,0 0.64416,0.27657 0.85372,0.4674c0.32924,0.2998 0.56893,0.73998 0.56893,0.73998l1.06059,3.45137l0.19074,0.59179c0,0 -0.02398,0.75337 -0.1014,0.93174c-0.03861,0.08897 -0.28733,1.14631 -0.9884,1.82685c-0.35226,0.34195 -0.70276,0.56568 -1.2892,0.77857c-0.14348,0.0521 -0.97638,0.06491 -1.15349,0.10866c-0.68955,0.17029 -1.27323,0.37631 -1.27323,0.37631c0,0 -0.21524,0.1839 -0.29375,0.27623c-0.06704,0.07885 -0.14833,0.24372 -0.14833,0.24372c0,0 -0.17101,0.39733 -0.23376,0.54314c-0.0423,0.09829 -0.07683,0.35179 -0.07683,0.35179c0,0 -0.21672,0.51801 -0.288,0.88675c-0.04007,0.20725 -0.10303,1.13611 -0.10303,1.13611c0,0 -0.13954,0.55145 -0.32707,0.73004c-0.19704,0.18764 -0.82805,0.36999 -0.82805,0.36999c0,0 -0.7137,-0.01386 -0.92558,-0.09028c-0.10159,-0.03665 -0.24369,-0.16277 -0.3466,-0.3138c-0.1335,-0.19594 -0.21625,-0.42154 -0.21625,-0.42154c0,0 -0.05374,-0.17204 -0.09116,-0.33086c-0.02936,-0.12459 -0.04259,-0.22472 -0.05268,-0.33679c-0.01404,-0.15588 0.01904,-0.53274 0.11889,-0.8579c0.11069,-0.36042 0.29013,-0.66341 0.29013,-0.66341" fill="none" stroke="#000000" stroke-width="0.5" stroke-linecap="round"/><path d="M374.4021,174.98493l-4.26496,0.92218l-1.07826,-6.71705l-1.02501,-5.56741c0,0 0.32222,-0.31494 1.00736,-0.57256c0.27636,-0.10542 0.66947,-0.29606 1.01542,-0.33457c0.4527,-0.05039 0.73928,-0.20794 0.9141,-0.22076c0.15568,-0.01141 0.34051,-0.02056 0.44486,-0.02787c0.34958,-0.02451 0.68586,-0.02426 0.68586,-0.02426z" fill="none" stroke="#000000" stroke-width="0.5" stroke-linecap="round"/><path d="M372.15453,162.58403c0,0 2.69237,14.40698 2.80982,15.06067c0.00384,0.02137 0.00583,0.21989 -0.04908,0.41143c-0.04764,0.16611 -0.15045,0.32564 -0.17925,0.37624c-0.10425,0.18322 -0.47541,0.30725 -0.47541,0.30725c0,0 -0.34368,0.10572 -0.85771,0.19897c-1.67494,0.30383 -19.90264,3.59312 -19.90264,3.59312" fill="none" stroke="#000000" stroke-width="0.5" stroke-linecap="round"/><path d="M352.59408,178.92288l17.24473,-2.95036" fill="none" stroke="#000000" stroke-width="0.5" stroke-linecap="round"/><path d="M343.6657,183.26256l-0.75423,0.3398c0,0 -1.07714,0.7023 -1.64435,0.77758c-0.60805,0.0807 -1.23486,-0.15517 -1.58017,-0.59329c-0.29742,-0.37736 -0.36933,-0.91347 -0.23604,-1.4247c0.15868,-0.60863 0.8213,-1.05915 1.29843,-1.37857c0.87859,-0.58817 2.15492,-0.94084 3.15762,-0.91632c0.71372,0.01745 1.65399,0.52977 1.65399,0.52977c0,0 0.3227,0.07824 0.401,0.01278c0.24225,-0.20247 0.18824,-0.52758 0.18824,-0.52758l-0.08497,-0.25197" fill="none" stroke="#000000" stroke-width="0.5" stroke-linecap="round"/><path d="M345.35382,188.20612l0.31251,-0.62574l0.33114,-0.62373l0.32055,-0.70023c0,0 0.01433,-0.23553 -0.00856,-0.27721c-0.02464,-0.04489 -0.14586,-0.06585 -0.14586,-0.06585l-0.40004,0.06834c0,0 -0.42244,0.22671 -0.49582,0.26912c-0.1375,0.07948 -0.33902,0.30781 -0.33902,0.30781c0,0 -0.31565,0.40394 -0.42467,0.59318c-0.0869,0.15086 -0.32997,0.53884 -0.32997,0.53884c0,0 -0.28743,0.51634 -0.35093,0.65833c-0.03134,0.07004 -0.2905,0.43895 -0.2905,0.43895c0,0 -0.14986,0.15897 -0.30538,0.23459c-0.11315,0.05501 -0.56452,0.07253 -0.56452,0.07253l-0.66481,-0.33949c0,0 -0.3785,-0.20943 -0.46969,-0.55053c-0.0403,-0.15077 -0.06869,-0.62653 0.00887,-0.91235c0.11584,-0.42685 0.36824,-0.66633 0.36824,-0.66633l0.84643,-0.99346c0,0 0.29382,-0.32565 0.51095,-0.46695c0.21058,-0.13705 0.70272,-0.49088 1.15557,-0.75645c0.57624,-0.33793 1.04795,-0.79139 1.04795,-0.79139c0,0 0.05632,-0.21246 0.04624,-0.32303c-0.009,-0.09861 -0.33175,-0.27218 -0.33175,-0.27218c0,0 -0.34629,-0.03877 -0.52879,-0.03373c-0.25106,0.00693 -0.94087,0.26403 -0.94087,0.26403" fill="none" stroke="#000000" stroke-width="0.5" stroke-linecap="round"/><path d="M356.7851,179.26065c-0.0261,0.24999 -0.27609,0.22388 -0.27609,0.22388l-0.25161,-0.02629c-0.741,-0.07739 4.14668,0.72936 3.43626,1.48299c-0.1822,0.19329 -5.97798,1.37059 -6.15967,1.38211c-0.053,0.00336 -0.33563,1.66893 -0.56439,1.70288c-0.10938,0.01623 -0.10663,-1.69417 -0.23943,-1.67605c-0.85093,0.11612 -2.07124,0.237 -2.23394,-0.07225c-0.41494,-0.7887 1.49247,-2.71127 1.06401,-2.63738c0,0 -0.24768,0.0427 -0.29039,-0.20498c-0.04271,-0.24768 0.08834,-0.1363 0.08834,-0.1363c1.64342,-0.28333 7.02813,-1.17764 8.69004,-1.00406l-3.48701,0.68937c0,0 0.24998,0.02611 0.22387,0.27609z" fill="#fffd4d" stroke="none" stroke-width="0.5" stroke-linecap="butt"/><path d="M370.80587,171.32912c-0.13196,1.2221 1.2188,-2.06481 2.23507,-1.09621c0.30525,0.29093 1.2548,5.19946 1.33459,5.53418c0.09476,0.39749 -2.82135,0.74633 -2.74544,1.16705c0,0 0.04462,0.24735 -0.20272,0.29197c-0.24734,0.04462 -0.29198,-0.20272 -0.29198,-0.20272c-0.08296,-0.45981 -0.58449,-0.30845 -0.68724,-0.74177c-0.20801,-0.87724 -0.45136,-2.55248 -0.44823,-3.60638c0.00205,-0.69336 0.23752,-0.76424 0.30617,-1.40009l0.01829,-0.16941c0,0 0.20538,0.02218 0.29474,0.03182c0.07453,0.00805 0.18675,0.19155 0.18675,0.19155z" fill="#fffd4d" stroke="none" stroke-width="0.5" stroke-linecap="butt"/></g></g></g></svg>