<svg version="1.1" xmlns="http://www.w3.org/2000/svg" xmlns:xlink="http://www.w3.org/1999/xlink" width="159.51267" height="90.34642" viewBox="0,0,159.51267,90.34642"><g transform="translate(-246.07955,-73.04661)"><g data-paper-data="{&quot;isPaintingLayer&quot;:true}" fill-rule="nonzero" stroke="none" stroke-linecap="butt" stroke-linejoin="miter" stroke-miterlimit="10" stroke-dasharray="" stroke-dashoffset="0" style="mix-blend-mode: normal"><path d="M279.16981,81.39061c0.72356,3.80205 0.19033,7.09722 -1.19089,7.36011c-1.38123,0.26289 -3.48891,-2.18183 -4.21247,-5.98388c-0.25717,-1.35174 -2.48397,-4.3223 -2.4418,-5.4324c0.07631,-2.0123 3.14401,-2.18266 4.03422,-2.352c0.71839,-0.13674 2.88629,-1.77307 3.59648,-0.52454c0.65525,1.15186 -0.13266,5.10818 0.21457,6.93278z" fill="#2fe207" stroke-width="0"/><path d="M280.50793,86.03406c0.03855,0.30834 0.10003,1.31174 -0.70367,1.46475c-0.95165,0.18106 -1.2131,-1.19254 -1.2131,-1.19254l-0.06318,-0.6618c0.09795,-1.43823 0.04181,-2.68026 -0.12468,-4.15731c-0.29091,-2.81993 1.06655,-7.44843 -0.82235,-6.87561c-0.67091,0.20343 -5.15684,0.88529 -5.88962,2.64841c-0.33435,0.80456 4.19568,8.67973 4.7392,9.82763c0,0 0.57891,1.22262 -0.22036,1.87449c-0.79927,0.65187 -1.37815,-0.57073 -1.37815,-0.57073c-1.07576,-2.27176 -4.74218,-9.32916 -4.11114,-11.97613c0.67159,-2.81743 7.12617,-4.55382 8.76717,-2.41035c1.65102,2.1564 0.56988,5.03648 0.86481,7.42568c0.1792,1.61756 0.24189,3.04086 0.15515,4.6034z" fill="#209a05" stroke-width="0.5"/><path d="M272.90323,99.51925c-1.13394,0.5315 -1.66209,-0.9464 -1.66209,-0.9464l-0.64325,-1.81763c-3.13133,-16.77589 -14.03001,-3.9763 -17.43129,5.0739c-5.06014,14.19105 -7.49271,30.19041 1.02095,45.37451c6.47525,16.09811 15.94713,18.96298 19.92087,4.23301l-0.04455,-1.35476c-0.03619,-0.74555 0.35572,-1.39101 0.95329,-1.50474c0.40272,-0.07658 0.80742,0.10572 1.10193,0.44915l0.95516,1.09177c10.08425,6.54339 13.74614,5.74214 21.86577,-3.02879c0,0 0.08064,-0.08618 0.21639,-0.17456c-0.00016,-0.45575 0.14263,-1.01099 0.76318,-1.27182c1.15037,-0.48348 1.64169,1.01078 1.64169,1.01078l0.6988,2.13829c1.52378,8.63852 10.24015,7.66305 14.96797,3.95916c8.11232,-5.27205 7.6801,-20.28596 6.82386,-33.63126c-0.4105,-6.39814 0.34546,-12.25475 -0.48125,-16.76792c-7.28952,-14.22839 -18.56114,-18.14996 -25.73306,-4.20483c0,0 -0.65041,1.26205 -1.71896,0.32718c-0.41094,-0.3596 -0.56763,-0.76748 -0.60482,-1.13333c-0.04705,-0.02647 -0.07361,-0.045 -0.07361,-0.045c-2.47628,-1.72891 -4.28723,-4.77939 -6.58096,-6.21039c-5.8511,-3.65038 -11.52348,-3.54054 -14.85421,5.82825l-0.3287,-1.58509c0,0 0.75943,2.52423 -0.04456,2.95862c-0.00381,0.44215 -0.14959,0.96036 -0.72849,1.23165zM276.1911,152.60363c0.3155,4.58537 -9.03335,10.61668 -11.59311,10.78077c-5.35504,0.34317 -10.47938,-9.62575 -12.52544,-14.75037c-9.00202,-16.01096 -6.5555,-33.30331 -1.1897,-48.34196c4.26962,-10.68355 17.12456,-23.44608 21.53771,-6.67934c4.31456,-9.86224 11.59429,-8.84438 18.7916,-4.27193c2.0125,1.27852 3.16746,3.76847 5.2851,5.24013c0,0 0.03686,0.02568 0.09422,0.07578c8.35285,-14.27138 20.57655,-9.27851 28.6503,6.48074c0.94552,4.81723 1.21234,20.89283 1.25422,22.33504c0.38482,13.25288 0.22789,26.46277 -7.87654,32.03724c-6.0017,4.63048 -16.1228,4.72838 -18.5783,-5.30539c-8.19909,8.48584 -14.11112,8.32665 -23.84997,2.39937z" fill="#ff5b1c" stroke-width="0.5"/><path d="M273.50907,98.07262c0.80399,-0.43438 0.05556,-2.96458 0.05556,-2.96458l0.32549,1.58676c3.3308,-9.36888 9.13104,-9.50673 14.98214,-5.85635c2.29373,1.431 4.16949,4.49371 6.64576,6.22261c0,0 0.02732,0.01881 0.07437,0.04528c0.03713,0.36595 0.20256,0.77697 0.61351,1.13658c1.06855,0.93487 1.73202,-0.32172 1.73202,-0.32172c7.17193,-13.94513 18.56075,-9.91562 25.85027,4.31277c0.71165,3.88522 0.23234,8.941 0.68558,14.38119c1.17144,14.06061 1.58097,30.68915 -7.07252,36.3129c-4.72782,3.70389 -13.49579,4.7181 -15.01957,-3.92043l-0.94516,-2.5675c0,0 -0.24903,-1.06287 -1.3994,-0.57939c-0.62062,0.26093 -0.77362,0.82123 -0.77335,1.27706c-0.13575,0.08839 -0.21859,0.1755 -0.21859,0.1755c-8.11963,8.77094 -11.97087,9.5808 -22.05512,3.03741l-0.96514,-1.0957c-0.29451,-0.34343 -0.70846,-0.52992 -1.11115,-0.45315c-0.5975,0.11363 -0.78057,0.31051 -0.74438,1.05606l-0.16178,1.80457c-3.97375,14.72997 -13.54166,11.78895 -20.01691,-4.30916c-8.51357,-15.18421 -6.0966,-31.45975 -1.03646,-45.6508c3.40121,-9.05011 14.37677,-21.93015 17.50826,-5.15428l0.91788,2.22925c0,0 0.25676,1.06414 1.39069,0.53263c0.57898,-0.2714 0.7344,-0.79542 0.73838,-1.2376z" data-paper-data="{&quot;noHover&quot;:false,&quot;origItem&quot;:[&quot;Path&quot;,{&quot;applyMatrix&quot;:true,&quot;segments&quot;:[[[494.8341,541.01525],[0.25034,-0.06399],[-0.49029,0.12533]],[494.24575,540.51395],[[494.12771,539.74381],[0,0],[0.02426,-6.89635]],[[486.82445,540.44119],[2.03396,-3.33583],[-3.08089,5.25136]],[[483.8018,558.53133],[-2.23265,-6.67104],[1.35439,6.87992]],[[491.3903,561.71672],[-2.69035,5.54739],[0,0]],[[491.47498,561.17557],[0,0],[0.04197,-0.29868]],[[491.96709,560.65025],[-0.24578,0],[0.16566,0]],[[492.37058,560.91181],[-0.09098,-0.15859],[0,0]],[[492.66726,561.41739],[0,0],[3.50896,3.35948]],[[501.57648,561.8669],[-3.88601,2.86853],[0,0]],[[501.67555,561.81397],[-0.06059,0.02483],[0.03439,-0.18099]],[[502.07463,561.36673],[-0.26608,0.05668],[0.4932,-0.10506]],[502.65002,561.89201],[[502.76588,562.7937],[0,0],[-0.04771,3.54449]],[[508.40881,565.49625],[-2.15669,1.1132],[5.3537,-2.18966]],[[514.73429,545.96768],[-0.03944,5.72145],[-1.8189,-6.19916]],[[504.8363,542.35438],[3.90067,-4.99419],[0,0]],[[504.12919,542.35438],[0.35355,0.45187],[-0.13597,-0.17378]],[[503.9747,541.85874],[-0.01287,0.14808],[-0.01665,-0.01408]],[[503.94888,541.83529],[0,0],[-0.85242,-0.87342]],[[501.80551,538.8727],[0.80246,0.74137],[-2.04702,-1.89119]],[[495.46831,540.06426],[2.03005,-3.46768],[0,0]],[495.45755,539.41016],[[495.21633,540.58133],[0.35198,-0.11168],[-0.03494,0.17523]]],&quot;closed&quot;:true}]}" fill-opacity="0.44314" fill="#ff9d1c" stroke-width="0.5"/><path d="M271.85707,96.81383c-0.0793,-0.0225 -0.15193,-0.04866 -0.2182,-0.07802c-2.86526,4.80712 4.06837,-2.93436 9.57705,-2.96185c3.24356,-0.01621 5.7965,2.69009 7.93512,5.02396c-0.35329,-1.55053 -0.43266,-3.41461 0.20924,-4.06759c1.87423,-1.90652 6.37729,2.03992 6.41357,1.93196c1.7905,-5.33695 -5.47786,-7.4945 -8.96569,-7.97683c-4.5083,-1.64704 -9.74835,-1.18893 -12.03868,2.21149c0.31516,0.60919 -0.11594,1.24293 -0.11594,1.24293c-0.32838,0.48269 -0.63214,0.93144 -0.91227,1.34819c-0.08904,0.48544 -0.13822,1.0042 -0.14343,1.55708l-0.21336,0.91489c0,0 -0.33668,1.19059 -1.52729,0.85389zM271.46482,92.32963c1.68943,-6.51267 9.32576,-8.49427 15.93871,-6.04611c4.00845,0.52207 15.01948,5.56314 10.41624,11.77056c-1.34762,1.81711 -7.65064,-3.7193 -6.56064,-1.73704c0.65835,1.19719 0.60942,2.74278 0.42962,4.23322l0.25838,1.35773v0c0.12781,0.67127 -0.31289,1.319 -0.98415,1.44681c-0.40272,0.07658 -0.79699,-0.05128 -1.07562,-0.31083l-1.00202,-0.91363l0.00783,-0.00864l-0.03293,-0.01486c-1.7339,-1.76979 -4.52046,-5.90438 -7.50849,-5.86226c-2.95806,0.04184 -9.6257,8.13615 -12.81775,4.68693c-1.7189,-1.85734 1.09034,-6.05523 2.93078,-8.60206z" fill="#1f9404" stroke-width="0.5"/><path d="M273.14389,96.01793l0.20931,-0.9364c0.0052,-0.55287 0.05153,-1.11233 0.14069,-1.59769c0.28014,-0.41675 0.58791,-0.90531 0.91629,-1.38801c0,0 0.43996,-0.66824 0.12481,-1.27743c2.29041,-3.40053 7.91639,-3.97583 12.42458,-2.32887c3.48783,0.48233 10.84573,2.89274 9.05532,8.22958c-0.03628,0.10796 -4.53604,-3.85366 -6.41038,-1.94722c-0.64189,0.65297 -0.61653,2.63423 -0.26335,4.18468c-2.13851,-2.33378 -4.63456,-5.21703 -7.87812,-5.20082c-5.50867,0.02749 -12.92797,7.85218 -10.06265,3.04497c0.06638,0.02945 0.61565,-0.07723 0.69495,-0.05473c1.19061,0.3367 1.04873,-0.72808 1.04873,-0.72808z" data-paper-data="{&quot;noHover&quot;:false,&quot;origItem&quot;:[&quot;Path&quot;,{&quot;applyMatrix&quot;:true,&quot;segments&quot;:[[[494.62319,539.86222],[0.44721,0.22361],[-0.0298,-0.0149]],[[494.54246,539.81474],[0.02411,0.01669],[-1.50064,1.6919]],[[498.56818,539.36246],[-2.18896,-0.40528],[1.28885,0.23863]],[[501.33871,541.95638],[-0.67264,-1.08805],[-0.02312,-0.6422]],[[501.72907,540.35743],[-0.30416,0.21072],[0.88811,-0.61528]],[[504.12919,541.60889],[-0.02254,0.04013],[1.11399,-1.98341]],[[501.17259,537.76486],[1.34814,0.45499],[-1.66527,-0.99441]],[[496.22633,537.7333],[1.16614,-1.17693],[0.07909,0.26564]],[[496.08641,538.21795],[0,0],[-0.16683,0.16683]],[[495.62239,538.68425],[0.1427,-0.14426],[-0.07202,0.18596]],[[495.44785,539.29155],[0.04383,-0.21913],[0,0]],[495.29401,539.63861]],&quot;closed&quot;:true}]}" fill-opacity="0.44314" fill="#35ff08" stroke-width="0.5"/><path d="M365.2315,83.55471c0.34723,-1.82461 -0.44068,-5.78092 0.21457,-6.93279c0.71019,-1.24853 2.8781,0.3878 3.59648,0.52454c0.89021,0.16934 3.9579,0.3397 4.03421,2.352c0.04217,1.1101 -2.18462,4.08067 -2.44179,5.4324c-0.72356,3.80204 -2.83124,6.24677 -4.21247,5.98388c-1.38123,-0.26289 -1.91445,-3.55807 -1.1909,-7.36011z" data-paper-data="{&quot;index&quot;:null}" fill="#35ff08" stroke-width="0"/><path d="M363.89341,88.19796c-0.08674,-1.56254 -0.02405,-2.98584 0.15516,-4.6034c0.29492,-2.3892 -0.78621,-5.26928 0.86481,-7.42568c1.64099,-2.14347 8.09557,-0.40709 8.76717,2.41035c0.63105,2.64698 -3.03538,9.70438 -4.11114,11.97614c0,0 -0.57889,1.2226 -1.37815,0.57073c-0.79926,-0.65187 -0.22036,-1.87449 -0.22036,-1.87449c0.54352,-1.1479 5.07355,-9.02306 4.7392,-9.82763c-0.73278,-1.76312 -5.21872,-2.44499 -5.88963,-2.64841c-1.8889,-0.57283 -0.53144,4.05568 -0.82235,6.87561c-0.16649,1.47705 -0.22262,2.71907 -0.12468,4.15731l-0.06318,0.66181c0,0 -0.26145,1.3736 -1.2131,1.19254c-0.8037,-0.15301 -0.74221,-1.1564 -0.70367,-1.46475z" data-paper-data="{&quot;index&quot;:null}" fill="#209a05" stroke-width="0.5"/><path d="M350.10839,99.22153c-1.13394,0.5315 -1.66209,-0.9464 -1.66209,-0.9464l-0.64325,-1.81763c-3.13133,-16.7759 -14.03002,-3.97631 -17.43129,5.07389c-5.06014,14.19105 -7.49271,30.19041 1.02094,45.37451c6.47525,16.09811 15.94712,18.96298 19.92087,4.23301l-0.04455,-1.35476c-0.03619,-0.74554 0.35572,-1.39101 0.95329,-1.50474c0.40272,-0.07658 0.80742,0.10572 1.10193,0.44915l0.95516,1.09177c10.08425,6.54339 13.74614,5.74215 21.86577,-3.02879c0,0 0.08064,-0.08618 0.21639,-0.17457c-0.00016,-0.45575 0.14263,-1.01098 0.76318,-1.27182c1.15037,-0.48348 1.64169,1.01078 1.64169,1.01078l0.6988,2.13829c1.52378,8.63852 10.24015,7.66305 14.96797,3.95917c12.00161,-7.79964 8.89368,-36.47239 6.34262,-50.39918c-7.28952,-14.22839 -18.56114,-18.14996 -25.73306,-4.20483c0,0 -0.65041,1.26205 -1.71896,0.32718c-0.41094,-0.35961 -0.56763,-0.76748 -0.60483,-1.13333c-0.04705,-0.02647 -0.07361,-0.045 -0.07361,-0.045c-2.47627,-1.7289 -4.28723,-4.77939 -6.58096,-6.2104c-5.8511,-3.65039 -11.52348,-3.54054 -14.85421,5.82825l-0.3287,-1.58509c0,0 0.75943,2.52423 -0.04456,2.95862c-0.00381,0.44215 -0.14959,0.96036 -0.72848,1.23165zM353.39627,152.30591c0.3155,4.58537 -9.03335,10.61668 -11.59311,10.78077c-5.35504,0.34317 -10.47938,-9.62575 -12.52543,-14.75037c-9.00203,-16.01096 -6.5555,-33.30331 -1.1897,-48.34196c4.26961,-10.68355 17.12456,-23.44609 21.53771,-6.67934c1.16855,-2.67108 22.96385,0.19482 24.0767,0.9682c0,0 0.03686,0.02568 0.09422,0.07578c8.35285,-14.27138 21.19198,-9.07337 29.26574,6.68588c3.06846,15.6332 5.75099,45.23309 -7.23776,54.16713c-6.00171,4.63048 -16.1228,4.72838 -18.5783,-5.30539c-8.19909,8.48584 -14.11112,8.32664 -23.84997,2.39937z" fill="#ff5b1c" stroke-width="0.5"/><path d="M350.71424,97.7749c0.80399,-0.43439 0.05556,-2.96458 0.05556,-2.96458l0.32549,1.58676c0.50956,-1.4333 2.37929,0.3387 3.43824,0.09198c2.24629,-0.52337 4.43406,-1.51513 7.47426,-0.92077c4.89491,0.95695 9.42156,0.29171 10.7154,1.19506c0,0 0.02732,0.01881 0.07437,0.04528c0.03713,0.36594 0.20256,0.77697 0.6135,1.13658c1.06855,0.93487 1.73202,-0.32172 1.73202,-0.32172c7.17193,-13.94513 18.56075,-9.91562 25.85026,4.31277c2.55098,13.9269 5.61467,42.89446 -6.38693,50.69409c-4.72782,3.70389 -13.4958,4.7181 -15.01958,-3.92042l-0.94515,-2.5675c0,0 -0.24903,-1.06287 -1.3994,-0.57938c-0.62062,0.26093 -0.77363,0.82123 -0.77335,1.27706c-0.13575,0.08839 -0.21859,0.17551 -0.21859,0.17551c-8.11963,8.77094 -11.97087,9.5808 -22.05512,3.03741l-0.96514,-1.0957c-0.29451,-0.34343 -0.70846,-0.52992 -1.11115,-0.45315c-0.5975,0.11364 -0.78057,0.31051 -0.74438,1.05606l-0.16178,1.80456c-3.97375,14.72997 -13.54166,11.78894 -20.01691,-4.30917c-8.51357,-15.18421 -6.0966,-31.45974 -1.03646,-45.65079c3.40121,-9.05011 14.37677,-21.93015 17.50827,-5.15428l0.91788,2.22925c0,0 0.25676,1.06413 1.39069,0.53263c0.57898,-0.2714 0.7344,-0.79542 0.73838,-1.2376z" data-paper-data="{&quot;noHover&quot;:false,&quot;origItem&quot;:[&quot;Path&quot;,{&quot;applyMatrix&quot;:true,&quot;segments&quot;:[[[494.8341,541.01525],[0.25034,-0.06399],[-0.49029,0.12533]],[494.24575,540.51395],[[494.12771,539.74381],[0,0],[0.02426,-6.89635]],[[486.82445,540.44119],[2.03396,-3.33583],[-3.08089,5.25136]],[[483.8018,558.53133],[-2.23265,-6.67104],[1.35439,6.87992]],[[491.3903,561.71672],[-2.69035,5.54739],[0,0]],[[491.47498,561.17557],[0,0],[0.04197,-0.29868]],[[491.96709,560.65025],[-0.24578,0],[0.16566,0]],[[492.37058,560.91181],[-0.09098,-0.15859],[0,0]],[[492.66726,561.41739],[0,0],[3.50896,3.35948]],[[501.57648,561.8669],[-3.88601,2.86853],[0,0]],[[501.67555,561.81397],[-0.06059,0.02483],[0.03439,-0.18099]],[[502.07463,561.36673],[-0.26608,0.05668],[0.4932,-0.10506]],[502.65002,561.89201],[[502.76588,562.7937],[0,0],[-0.04771,3.54449]],[[508.40881,565.49625],[-2.15669,1.1132],[5.3537,-2.18966]],[[514.73429,545.96768],[-0.03944,5.72145],[-1.8189,-6.19916]],[[504.8363,542.35438],[3.90067,-4.99419],[0,0]],[[504.12919,542.35438],[0.35355,0.45187],[-0.13597,-0.17378]],[[503.9747,541.85874],[-0.01287,0.14808],[-0.01665,-0.01408]],[[503.94888,541.83529],[0,0],[-0.85242,-0.87342]],[[501.80551,538.8727],[0.80246,0.74137],[-2.04702,-1.89119]],[[495.46831,540.06426],[2.03005,-3.46768],[0,0]],[495.45755,539.41016],[[495.21633,540.58133],[0.35198,-0.11168],[-0.03494,0.17523]]],&quot;closed&quot;:true}]}" fill-opacity="0.44314" fill="#ff9d1c" stroke-width="0.5"/><path d="M372.86896,94.08317c1.84043,2.54682 4.64968,6.74471 2.93077,8.60206c-3.19206,3.44922 -9.8597,-4.64508 -12.81776,-4.68692c-2.98803,-0.04212 -5.77458,4.09247 -7.50849,5.86226l-0.03293,0.01486l0.00783,0.00864l-1.00202,0.91363c-0.27862,0.25955 -0.6729,0.3874 -1.07562,0.31083c-0.67127,-0.12781 -1.11196,-0.77554 -0.98416,-1.44681v0l0.25838,-1.35773c-0.17979,-1.49044 -0.22873,-3.03603 0.42963,-4.23322c1.09,-1.98227 -5.21302,3.55415 -6.56064,1.73704c-4.60324,-6.20742 6.4078,-11.24849 10.41624,-11.77056c6.61296,-2.44816 14.24928,-0.46656 15.93871,6.04611z" data-paper-data="{&quot;index&quot;:null}" fill="#1f9404" stroke-width="0.5"/><path d="M271.33059,92.62676c1.68943,-6.51267 9.32576,-8.49428 15.93872,-6.04611c4.00844,0.52207 15.01948,5.56314 10.41624,11.77056c-1.34762,1.81711 -7.65064,-3.7193 -6.56064,-1.73703c0.65835,1.19719 0.60942,2.74277 0.42963,4.23322l0.25837,1.35773v0c0.1278,0.67127 -0.31289,1.31901 -0.98415,1.44681c-0.40272,0.07658 -0.797,-0.05128 -1.07562,-0.31082l-1.00202,-0.91364l0.00783,-0.00864l-0.03293,-0.01486c-1.73391,-1.76979 -4.52046,-5.90438 -7.50849,-5.86226c-2.95806,0.04184 -9.6257,8.13615 -12.81776,4.68692c-1.7189,-1.85735 1.09035,-6.05524 2.93078,-8.60206z" fill="#1f9404" stroke-width="0.5"/></g></g></svg>