<svg version="1.1" xmlns="http://www.w3.org/2000/svg" xmlns:xlink="http://www.w3.org/1999/xlink" width="119.91497" height="119.75751" viewBox="0,0,119.91497,119.75751"><g transform="translate(-256.86933,-122.01281)"><g data-paper-data="{&quot;isPaintingLayer&quot;:true}" fill-rule="nonzero" stroke-linejoin="miter" stroke-miterlimit="10" stroke-dasharray="" stroke-dashoffset="0" style="mix-blend-mode: normal"><g data-paper-data="{&quot;index&quot;:null}" stroke-width="0.5"><path d="M368.84684,122.62198c0.31309,0.06727 0.44921,-0.0167 0.47178,-0.18811c1.55273,0.06838 1.84728,2.58169 2.61671,4.25905c0.29402,1.16694 0.76894,2.26069 0.95483,3.59886c0.17856,1.28544 0.05955,3.06267 0.45356,4.2307c0.28562,2.58284 0.41291,32.53153 0.41291,35.15587c0,0.54156 -1.34112,4.62948 -1.48934,5.10045c-0.21645,0.68777 -0.98029,0.82065 -1.65822,0.70015c-0.48726,-0.08661 -1.12688,-0.39768 -1.6339,-0.29044c-1.02011,0.01121 -1.19754,1.60464 -1.90686,1.00546c-0.41544,-0.35093 -0.37099,0.63728 -0.56522,-0.1839c-0.49638,-2.09854 -0.55566,-35.86922 -0.2104,-37.31414c0.46022,-1.93348 1.92494,-2.86701 2.8228,-5.07985c0.27749,-0.68392 0.31364,-2.0815 0.46103,-2.75557c0.12719,-0.58168 -0.0551,-1.1446 0.03677,-1.67842c0.21762,-1.2674 -1.88233,-7.64127 -0.76647,-6.56013z" data-paper-data="{&quot;noHover&quot;:false,&quot;origItem&quot;:[&quot;Path&quot;,{&quot;applyMatrix&quot;:true,&quot;segments&quot;:[[[273.23414,152.39607],[0.0328,0.17141],[-2.25662,0.06838]],[[267.6027,156.64807],[1.11824,-1.67736],[-0.4273,1.16694]],[[266.22965,160.23355],[0.27016,-1.33817],[-0.25952,1.28544]],[[265.58001,164.43753],[0.57263,-1.16803],[-0.4151,2.58284]],[[264.8422,172.1822],[0,-2.62434],[0,3.09309]],[[270.07461,177.07606],[-3.00931,-0.43795],[2.79345,0.02112]],[[278.25584,176.58401],[-2.69477,1.08112],[2.61784,-0.88964]],[[279.5891,168.01622],[0.69949,2.01424],[-1.05395,-3.04672]],[[277.20773,158.42042],[0.78889,3.15395],[-0.31628,-1.26739]],[[273.91699,152.58394],[1.62171,-1.08114],[-0.45502,0.06727]]],&quot;closed&quot;:true}],&quot;index&quot;:null}" fill="#d1203a" stroke="#7f1323" stroke-linecap="butt"/><path d="M376.39123,133.18416l-1.25903,2.45477l-1.39891,-2.59114l-2.23827,3.13664l-0.97924,-3.4094l-1.39893,3.4094l-0.97924,-0.5455c0,0 1.51067,-3.58074 1.63066,-5.87352c0.1127,-2.15342 -1.35087,-7.49134 -1.35087,-7.49134l8.11372,0.27276z" fill="#fff700" stroke="#afa900" stroke-linecap="round"/><path d="M366.54701,145.23882h0.11821c2.20677,0 4.41353,0 6.6203,0c0,0 0.43343,0 0.43343,0.5c0,0.5 -0.43343,0.5 -0.43343,0.5c-2.20677,0 -4.53175,0 -6.73851,0c0,0 -0.43344,0 -0.43344,-0.5c0,-0.5 0.43344,-0.5 0.43344,-0.5z" fill="#fff700" stroke="none" stroke-linecap="butt"/><path d="M366.51539,153.10272h0.11822c2.20677,0 4.41353,0 6.62029,0c0,0 0.43343,0 0.43343,0.5c0,0.5 -0.43343,0.5 -0.43343,0.5c-2.20677,0 -4.53175,0 -6.73851,0c0,0 -0.43343,0 -0.43343,-0.5c0,-0.5 0.43343,-0.5 0.43343,-0.5z" fill="#fff700" stroke="none" stroke-linecap="butt"/><path d="M373.33652,160.25425l-1.80725,2.20394l0.96497,2.75981l-2.60423,-1.26832l-2.57948,1.22581l0.73297,-2.87241l-1.60312,-2.20394l2.23262,0.31023l1.18914,-2.72814l1.42134,2.88326z" fill="#fff700" stroke="#a7a100" stroke-linecap="round"/><path d="M373.73529,158.7855v2.56753" fill="none" stroke="#7f1323" stroke-linecap="round"/><path d="M373.65851,155.28525v-2.31906" fill="none" stroke="#7f1323" stroke-linecap="round"/><path d="M373.57888,144.30327v2.31906" fill="none" stroke="#7f1323" stroke-linecap="round"/></g><path d="M340.43926,240.15436c0,0 -0.55259,0.45156 -0.55259,-0.13265c0,-0.33715 -1.32815,-4.42877 -1.32815,-5.41614c0,-11.28279 0,-61.14764 0,-61.14764h7.51324c0,0 0,52.48019 0,62.14756c0,0.62044 -2.25785,3.46434 -2.25785,3.7069c0,0.53429 0.11676,0.66076 0.11676,0.66076z" fill="#d1203a" stroke="#7f1323" stroke-width="0.5" stroke-linecap="butt"/><path d="M290.24309,241.35383c0,0 -0.55259,0.45156 -0.55259,-0.13265c0,-0.18346 -0.7932,-1.37462 -1.15173,-2.94625c-0.30037,-1.31671 -0.17642,-3.0197 -0.17642,-3.46981c0,-11.28279 0,-61.14764 0,-61.14764h7.51324c0,0 0,52.48019 0,62.14756c0,0.62044 -2.25785,4.46425 -2.25785,4.70682c0,0.53429 0.11675,0.66075 0.11675,0.66075z" fill="#d1203a" stroke="#7f1323" stroke-width="0.5" stroke-linecap="butt"/><path d="" fill="#000000" stroke="none" stroke-width="0.5" stroke-linecap="butt"/><path d="" fill="#66f4ff" stroke="none" stroke-width="0.5" stroke-linecap="butt"/><path d="" data-paper-data="{&quot;index&quot;:null}" fill="#66f4ff" stroke="none" stroke-width="0.5" stroke-linecap="butt"/><path d="" fill="#66f4ff" stroke="none" stroke-width="0.5" stroke-linecap="butt"/><path d="" fill="#66f4ff" stroke="none" stroke-width="0.5" stroke-linecap="butt"/><path d="M364.29599,152.83104l0.21483,28.92435l-95.55392,0.48941l-1.60097,0.02007l-0.38961,-31.49564c0,0 0.84832,1.21725 2.2348,1.23624c0.64898,0.0089 1.14574,0.62461 2.59193,0.61532c0.62637,-0.00402 6.41712,-2.32267 7.17619,-2.33115c0.35696,-0.00399 0.69088,0.01305 1.02812,0.32348c0.55709,0.51278 1.12322,1.42638 1.81714,1.42137c0.56374,-0.00407 1.64897,0.29946 2.25206,0.29402c0.35658,-0.00321 11.32788,-2.47318 11.69729,-2.47697c1.00174,-0.01027 6.04246,2.75601 7.09947,2.74917c1.01344,-0.00655 1.87716,-0.40131 2.92233,-0.41327c0.5253,-0.006 2.8084,-2.09358 3.34073,-2.10055c0.33312,-0.00436 4.25899,-0.31685 4.59402,-0.32084c0.39103,-0.00466 5.62712,1.07006 6.01878,1.06602c0.41893,-0.00431 1.45654,0.26289 2.42232,0.02701c1.48841,-0.36354 3.03594,-1.28603 3.67209,-1.29237c0.71231,-0.00709 1.38039,0.85935 2.01006,0.84967c1.22375,-0.01883 2.93468,1.47687 3.91088,1.2729c0.49959,-0.10438 2.322,0.08795 3.36933,0.01168c0.36854,-0.02683 0.57185,-0.02303 0.68349,-0.16544c0.12442,-0.15872 0.54537,-0.15563 0.70036,-0.22694c0.34894,-0.16055 0.47528,-0.25308 0.82677,-0.25744c0.57441,-0.00713 0.6105,-0.3383 1.1529,-0.33524c0.06047,0.00035 1.33903,-0.57488 1.28765,-0.54573c-1.5038,0.85329 0.17348,-0.66893 2.43894,-0.45074c0.39325,0.03788 1.82403,0.79927 2.89491,1.10217c0.93142,0.26345 1.51359,0.07348 1.87533,0.10335c0.41941,0.03462 3.92433,-1.54505 4.33365,-1.50143c0.5392,0.05746 2.39977,0.81359 2.90787,0.88137c0.86085,0.11487 3.07517,1.84031 3.79349,1.9353c3.93371,0.52023 3.34744,0.28241 4.92539,0.14886c0.84542,-0.07155 1.23583,-0.54703 1.23583,-0.54703z" fill="#d1203a" stroke="#7f1323" stroke-width="0.5" stroke-linecap="round"/><g><path d="M299.80103,164.66498l29.49546,-0.16365" fill="#eee51d" stroke="#d68426" stroke-width="2" stroke-linecap="round"/><path d="M300.3885,164.64376c0,2.5935 -2.37408,4.69595 -5.30264,4.69595c-2.92858,0 -5.30264,-2.10245 -5.30264,-4.69595c0,-2.5935 2.37408,-4.69595 5.30264,-4.69595c2.92858,0 5.30264,2.10245 5.30264,4.69595z" fill="#f3ee1d" stroke="#d68426" stroke-width="0.5" stroke-linecap="butt"/><path d="M339.32049,164.70091c0,2.5935 -2.37408,4.69596 -5.30265,4.69596c-2.92858,0 -5.30263,-2.10246 -5.30263,-4.69596c0,-2.5935 2.37407,-4.69594 5.30263,-4.69594c2.92858,0 5.30265,2.10244 5.30265,4.69594z" fill="#f3ee1d" stroke="#d68426" stroke-width="0.5" stroke-linecap="butt"/><path d="M328.83443,164.55207l-29.49547,0.16365" fill="#eee51d" stroke="#f3ee1d" stroke-width="1" stroke-linecap="round"/></g><path d="M266.80643,158.08205v2.56753" fill="none" stroke="#7f1323" stroke-width="0.5" stroke-linecap="round"/><path d="M266.8368,152.06948v2.31906" fill="none" stroke="#7f1323" stroke-width="0.5" stroke-linecap="round"/><path d="M266.75398,143.92515v2.31906" fill="none" stroke="#7f1323" stroke-width="0.5" stroke-linecap="round"/><g data-paper-data="{&quot;index&quot;:null}" stroke-width="0.5"><path d="M264.80683,123.62366c1.11586,-1.08114 -0.9841,5.29273 -0.76648,6.56013c0.09186,0.53382 -0.09043,1.09674 0.03677,1.67842c0.1474,0.67407 0.18355,2.07165 0.46104,2.75557c0.89785,2.21284 2.36258,3.14637 2.8228,5.07985c0.34526,1.44492 0.28598,35.2156 -0.2104,37.31414c-0.19423,0.82118 -0.14979,-1.71243 -0.56522,-1.3615c-0.70931,0.59918 -0.88674,-0.99425 -1.90686,-1.00546c-0.50702,-0.10724 -1.14665,0.20383 -1.6339,0.29044c-0.55654,0.09892 -0.2408,0.79087 -0.65154,0.53911c-1.12249,-0.68803 -2.49601,-3.24954 -2.49601,-4.79431c0,-2.62434 0.12729,-32.57303 0.4129,-35.15587c0.39401,-1.16803 0.275,-2.94526 0.45356,-4.2307c0.18589,-1.33817 0.66081,-2.43192 0.95483,-3.59886c0.76943,-1.67736 1.06399,-4.19067 2.61671,-4.25905c0.02257,0.17141 0.1587,0.25538 0.47178,0.18811z" data-paper-data="{&quot;noHover&quot;:false,&quot;origItem&quot;:[&quot;Path&quot;,{&quot;applyMatrix&quot;:true,&quot;segments&quot;:[[[273.23414,152.39607],[0.0328,0.17141],[-2.25662,0.06838]],[[267.6027,156.64807],[1.11824,-1.67736],[-0.4273,1.16694]],[[266.22965,160.23355],[0.27016,-1.33817],[-0.25952,1.28544]],[[265.58001,164.43753],[0.57263,-1.16803],[-0.4151,2.58284]],[[264.8422,172.1822],[0,-2.62434],[0,3.09309]],[[270.07461,177.07606],[-3.00931,-0.43795],[2.79345,0.02112]],[[278.25584,176.58401],[-2.69477,1.08112],[2.61784,-0.88964]],[[279.5891,168.01622],[0.69949,2.01424],[-1.05395,-3.04672]],[[277.20773,158.42042],[0.78889,3.15395],[-0.31628,-1.26739]],[[273.91699,152.58394],[1.62171,-1.08114],[-0.45502,0.06727]]],&quot;closed&quot;:true}],&quot;index&quot;:null}" fill="#d1203a" stroke="#7f1323" stroke-linecap="butt"/><path d="M257.12253,123.54853l8.11372,-0.27276c0,0 -1.46357,5.33792 -1.35087,7.49134c0.11999,2.29278 1.63066,5.87352 1.63066,5.87352l-0.97925,0.5455l-1.39892,-3.4094l-0.97924,3.4094l-2.23827,-3.13664l-1.39891,2.59114l-1.25904,-2.45477z" fill="#fff700" stroke="#afa900" stroke-linecap="round"/><path d="M267.54007,146.74052c0,0.5 -0.43344,0.5 -0.43344,0.5c-2.20677,0 -4.53174,0 -6.73851,0c0,0 -0.43343,0 -0.43343,-0.5c0,-0.5 0.43343,-0.5 0.43343,-0.5c2.20677,0 4.41353,0 6.6203,0h0.11821c0,0 0.43344,0 0.43344,0.5z" fill="#fff700" stroke="none" stroke-linecap="butt"/><path d="M267.57168,154.60442c0,0.5 -0.43344,0.5 -0.43344,0.5c-2.20677,0 -4.53174,0 -6.73851,0c0,0 -0.43344,0 -0.43344,-0.5c0,-0.5 0.43344,-0.5 0.43344,-0.5c2.20677,0 4.41352,0 6.62029,0h0.11821c0,0 0.43344,0 0.43344,0.5z" fill="#fff700" stroke="none" stroke-linecap="butt"/><path d="M262.37017,161.56619l1.42135,-2.88326l1.18914,2.72814l2.23262,-0.31023l-1.60313,2.20394l0.73298,2.87241l-2.57948,-1.22581l-2.60423,1.26832l0.96497,-2.75981l-1.80725,-2.20394z" fill="#fff700" stroke="#a7a100" stroke-linecap="round"/><path d="M259.91835,159.7872v2.56753" fill="none" stroke="#7f1323" stroke-linecap="round"/><path d="M259.99513,156.28695v-2.31906" fill="none" stroke="#7f1323" stroke-linecap="round"/><path d="M260.07476,147.62403v-2.31906" fill="none" stroke="#7f1323" stroke-linecap="round"/></g></g></g></svg>