<svg version="1.1" xmlns="http://www.w3.org/2000/svg" xmlns:xlink="http://www.w3.org/1999/xlink" width="157.01528" height="108.54239" viewBox="0,0,157.01528,108.54239"><g transform="translate(-245.97448,28.17431)"><g data-paper-data="{&quot;isPaintingLayer&quot;:true}" fill-rule="nonzero" stroke-linejoin="miter" stroke-miterlimit="10" stroke-dasharray="" stroke-dashoffset="0" style="mix-blend-mode: normal"><path d="M262.88602,79.98776c0,0 -6.58428,-5.3489 -8.88167,-8.94649c-1.24702,-1.95279 -4.58161,-11.36727 -4.58161,-11.36727c0,0 -2.70691,-11.02064 -2.83841,-13.76409c-0.04759,-0.99287 0.13693,-4.17913 0.82288,-5.72884c0.95358,-2.15436 2.25037,-2.86659 2.25037,-2.86659c0,0 0.60087,-0.18522 1.36924,-0.4549c1.06675,-0.3744 2.45636,-0.85109 3.00908,-0.68091c0.50316,0.15493 0.51774,-0.03175 0.81145,-0.07583c0.69506,-0.10429 1.45322,-0.31004 3.15317,0.22226c0.46777,0.14646 1.80295,0.43027 3.53751,1.28454c1.18154,0.58191 3.03082,1.85734 3.03082,1.85734c0,0 2.09911,2.22368 2.96596,3.78921c1.00728,1.81914 4.35561,7.00567 6.75147,11.64946c0.68015,1.31831 1.51262,2.5441 2.09304,3.78681c0.15476,0.33135 3.04315,2.34241 5.00725,3.0312c1.33477,0.46809 2.73143,-0.45868 3.12277,-0.59181c0.05117,-0.01741 2.29049,-0.69413 2.80719,-3.72082c0.29778,-1.74436 0.18865,-3.96522 -0.03001,-5.92773c-0.04913,-0.44099 -0.4626,-0.65299 -0.53996,-0.8718c-0.15331,-0.43363 -0.02663,-0.66284 -0.40918,-1.13597c-0.55976,-0.6923 -1.47055,-2.13368 -1.4632,-2.1311c0.42306,0.14833 -2.52003,-4.15589 -2.53384,-4.74901c-0.02645,-1.13619 -3.76856,-4.47471 -4.54523,-6.68764c-0.25778,-0.7345 -1.13654,-1.66821 -1.84555,-2.80109c-1.2754,-2.0379 -2.99688,-4.65288 -2.86109,-5.83444c0.03059,-0.26621 -0.48696,-0.86009 -0.93131,-1.79562c-1.17175,-2.46701 -3.02416,-6.86326 -3.16568,-10.54432c-0.0341,-0.88685 -0.06553,0.32248 -0.45977,-0.66208c-0.68671,-1.71498 -1.86395,-5.66205 -1.69199,-7.1731c0.19038,-1.67293 -0.09468,-3.08832 -0.04686,-4.2859c0.12731,-3.18824 0.33102,-4.83269 0.96101,-5.68266c0.10293,-0.13888 0.51855,-1.51843 0.75045,-2.57175c0.06502,-0.2953 1.10093,-2.1177 1.10093,-2.1177c0,0 2.3493,-5.14532 5.65786,-7.59078c1.2159,-0.89871 3.28357,-2.57389 6.05765,-4.09368c3.74981,-2.05434 8.94315,-3.34883 11.04801,-3.82301c0.55718,-0.12552 3.35642,-1.35525 6.2145,-2.06105c1.8261,-0.45095 4.25323,-0.51049 4.25323,-0.51049c0,0 8.89229,-1.59527 18.0903,-1.93507c3.94169,-0.14562 9.50277,0.10155 11.34602,0.24784c10.40744,0.82598 21.3202,2.77534 21.3202,2.77534c0,0 20.28569,5.76259 25.86244,17.33431c0.57836,1.20009 1.70379,2.28464 1.87703,3.61838c0.15756,1.213 1.73556,7.27617 0.63191,13.07188c-1.90208,9.98859 -7.04042,21.35021 -7.04042,21.35021l-9.80109,15.00348c0,0 -2.8592,4.26497 -3.36508,7.94758c-0.48384,3.52215 1.38109,6.46895 1.53011,6.47453c0.64373,0.02409 1.72384,0.89258 2.64505,1.15571c0.92617,0.26454 1.69172,-0.07635 1.69172,-0.07635c0,0 2.79334,-0.35549 5.5534,-3.84799c2.02108,-2.5574 3.63637,-6.85887 5.60922,-10.4239c0.76583,-1.3839 1.92529,-2.57188 2.67617,-3.63057c1.14355,-1.61232 2.83619,-3.0204 3.67656,-3.90379c1.39869,-1.47029 3.46359,-2.65069 6.10897,-3.15869c1.85228,-0.3557 4.72054,-0.24877 4.72054,-0.24877c0,0 3.51891,1.31538 4.95046,2.51386c0.66431,0.55616 1.61655,4.003 1.64411,4.11893c0.65195,2.74278 -1.36156,11.26257 -2.86091,16.71661c-0.77238,2.80961 -1.97203,7.50784 -4.295,10.95974c-3.79055,5.6327 -9.05397,9.68192 -9.05397,9.68192l-123.46825,-0.11754z" fill="#000000" stroke="#000000" stroke-width="0.5" stroke-linecap="round"/><path d="M324.73422,-27.58444c0,0.25 -0.25,0.25001 -0.25,0.25001h-0.40906c-2.68279,0.00044 -5.30061,0.07037 -7.94981,0.29113c-3.41127,0.28427 -6.94255,0.54665 -10.30796,1.17049c-2.86446,0.00587 -7.33456,0.68762 -10.01996,1.73272c-3.17954,1.2153 -6.70652,1.92138 -9.96807,3.02027c-3.40925,1.27854 -5.9957,2.90911 -8.98396,4.90498c-2.65218,1.76708 -5.21833,4.83116 -6.53339,7.75325c-1.4751,3.26252 -3.14749,6.0083 -3.14749,9.71138c0,3.47391 -0.27161,6.88819 0.71556,10.23951c0.98376,3.3397 2.02095,6.64978 3.03121,9.99691c0.97375,3.24846 2.35943,6.44883 3.98716,9.37873c1.57281,2.83106 3.53334,6.00459 5.51596,8.5357c2.14857,2.74299 3.35809,5.97402 5.36683,8.81336c1.78451,2.54014 2.60538,7.2 1.61259,10.19254c-1.62922,2.64994 -5.51971,4.90734 -8.44356,2.15783c-3.32862,-1.52957 -4.43189,-4.85807 -5.92854,-7.8772c-1.41368,-3.16903 -3.09743,-5.98484 -5.04523,-8.838c-1.76488,-2.59949 -4.45532,-5.47964 -7.4672,-6.66101c-2.75279,-1.3764 -6.98114,-1.53903 -9.74868,-0.163c-3.61751,1.78094 -4.03615,4.4771 -4.03615,8.2121c-0.03931,3.15667 1.29645,6.92718 1.73341,10.14033c0.43167,3.35833 2.1531,6.4373 2.98196,9.67321c1.44557,2.87028 2.50988,6.44377 4.87678,8.73592c1.89735,1.87146 4.02982,4.69785 6.39668,5.8562c0,0 0.22361,0.11181 0.1118,0.33541c-0.11181,0.22361 -0.33541,0.1118 -0.33541,0.1118c-2.4247,-1.23373 -4.56562,-4.0156 -6.52418,-5.94745c-2.39657,-2.39961 -3.5187,-5.94671 -4.99384,-8.91638c-0.8579,-3.27396 -2.526,-6.38643 -3.00921,-9.78135c-0.44639,-3.2825 -1.70535,-6.97281 -1.73798,-10.2077c0,-3.92453 0.52011,-6.79198 4.31529,-8.66068c2.90901,-1.41978 7.28074,-1.29125 10.17272,0.15473c3.09284,1.20949 5.86608,4.16869 7.67769,6.83702c1.94792,2.88689 3.65477,5.71079 5.08389,8.90579c1.47951,2.98302 2.50365,6.13141 5.76184,7.67987c2.54419,2.65351 6.29343,0.37846 7.70438,-1.9579c0.93593,-2.79076 0.11211,-7.33821 -1.56723,-9.69331c-2.00396,-2.83258 -3.21038,-6.05935 -5.35226,-8.7938c-1.99968,-2.5529 -3.97365,-5.74682 -5.55942,-8.60121c-1.6468,-2.96424 -3.03223,-6.19611 -4.02875,-9.47707c-1.01062,-3.34835 -2.04807,-6.65926 -3.03216,-10.00011c-1.00181,-3.40102 -0.73594,-6.85655 -0.73594,-10.38079c0,-3.77931 1.6866,-6.58805 3.19189,-9.91737c1.36629,-3.00901 3.97701,-6.13916 6.71163,-7.96328c3.02459,-2.01243 5.64659,-3.66784 9.09368,-4.96001c3.24326,-1.09324 6.81228,-1.76654 9.95436,-3.01517c2.71791,-1.05775 7.25514,-1.69614 10.15503,-1.68961c3.35976,-0.63774 6.90421,-0.96187 10.3127,-1.24591c2.66297,-0.22191 5.29509,-0.29242 7.99129,-0.29286h0.4091c0,0 0.25,-0.00001 0.25001,0.24999z" fill="#f15c61" stroke="#f25e5f" stroke-width="0.5" stroke-linecap="butt"/><path d="M324.48004,-27.92428l0.4091,0.00001c2.6962,0.00044 5.32832,0.07095 7.99129,0.29286c3.4085,0.28404 6.95295,0.75817 10.3127,1.39591c2.8999,-0.00652 7.43712,0.48185 10.15503,1.5396c3.14209,1.24863 6.7111,1.92193 9.95436,3.01517c3.44709,1.29217 6.06909,2.94758 9.09368,4.96001c2.73462,1.82412 5.34534,4.95427 6.71163,7.96328c1.50529,3.32932 3.19189,6.13806 3.19189,9.91737c0,3.52424 0.26587,6.97977 -0.73594,10.38079c-0.98409,3.34085 -2.02154,6.65176 -3.03216,10.00011c-0.99652,3.28097 -2.38195,6.51283 -4.02875,9.47707c-1.58577,2.85439 -3.55974,6.04831 -5.55942,8.60121c-2.14188,2.73444 -3.34831,5.96122 -5.35226,8.7938c-1.67933,2.3551 -2.50316,6.90256 -1.56723,9.69331c1.41095,2.33635 5.16019,4.6114 7.70438,1.95789c3.25819,-1.54847 4.28233,-4.69685 5.76184,-7.67987c1.42912,-3.195 3.13597,-6.0189 5.08389,-8.90579c1.81162,-2.66833 4.58485,-5.62754 7.67769,-6.83702c2.89198,-1.44598 7.26371,-1.57451 10.17272,-0.15473c3.79519,1.8687 4.31529,4.73615 4.31529,8.66068c-0.03262,3.23489 -1.29158,6.9252 -1.73798,10.2077c-0.4832,3.39492 -2.15132,6.50738 -3.00921,9.78135c-1.47514,2.96967 -2.59728,6.51678 -4.99384,8.91639c-1.95857,1.93184 -4.09948,4.71372 -6.52418,5.94745c0,0 -0.22361,0.1118 -0.33541,-0.11181c-0.11181,-0.22361 0.11181,-0.33541 0.11181,-0.33541c2.36685,-1.15836 4.49933,-3.98474 6.39668,-5.8562c2.36689,-2.29215 3.4312,-5.86565 4.87677,-8.73592c0.82885,-3.23591 2.5503,-6.31489 2.98196,-9.67321c0.43696,-3.21314 1.77272,-6.98366 1.73341,-10.14033c0,-3.735 -0.41864,-6.43116 -4.03615,-8.2121c-2.76754,-1.37603 -6.9959,-1.21339 -9.74869,0.163c-3.01189,1.18138 -5.70232,4.06153 -7.4672,6.66102c-1.9478,2.85317 -3.63155,5.66897 -5.04523,8.838c-1.49665,3.01913 -2.59992,6.34763 -5.92854,7.8772c-2.92385,2.74951 -6.81434,0.49211 -8.44356,-2.15783c-0.99279,-2.99254 -0.17191,-7.6524 1.61259,-10.19254c2.00874,-2.83934 3.21825,-6.07037 5.36683,-8.81336c1.98262,-2.53111 3.94315,-5.70465 5.51596,-8.53571c1.62772,-2.9299 3.01341,-6.13026 3.98716,-9.37873c1.01025,-3.34713 2.04745,-6.65721 3.03121,-9.99691c0.98717,-3.35131 0.71557,-6.7656 0.71557,-10.23951c0,-3.70307 -1.67239,-6.44886 -3.14749,-9.71138c-1.31505,-2.92209 -3.88121,-5.98617 -6.53339,-7.75325c-2.98825,-1.99586 -5.57471,-3.62644 -8.98396,-4.90498c-3.26156,-1.09889 -6.78854,-1.80498 -9.96807,-3.02028c-2.6854,-1.04509 -7.1555,-1.50183 -10.01996,-1.5077c-3.36541,-0.62383 -6.8967,-1.11123 -10.30797,-1.3955c-2.6492,-0.22077 -5.26701,-0.29069 -7.9498,-0.29113l-0.40906,-0.00001c0,0 -0.25,0 -0.25,-0.25c0,-0.25 0.25,-0.25 0.25,-0.25z" data-paper-data="{&quot;index&quot;:null}" fill="#f05c5e" stroke="#f15d5f" stroke-width="0.5" stroke-linecap="butt"/><path d="M333.0628,50.10307c0.00693,-0.2842 0.19603,-0.75065 0.20345,-1.05535c0.98264,-0.32997 2.1866,-0.82531 3.82686,-1.52869c1.70868,-0.73273 4.25462,-1.561 4.22852,-2.26174c-0.00152,-0.04142 0.28636,-1.88974 0.13865,-2.29127c-0.8899,-1.45975 1.77814,-4.89026 3.93514,-4.65364c0.63127,0.06925 1.00693,0.32373 1.20793,0.696c0.41996,0.77783 0.0774,2.06992 -0.28942,3.26121c-0.44254,1.4372 -1.16107,2.18765 1.36306,2.25141c0.26828,0.00454 1.65602,-0.13511 1.97401,-0.06239c1.40169,0.32058 1.92321,1.99008 1.22944,3.2723c-0.14511,0.26819 -3.78503,-0.00603 -4.16016,-0.01237c-1.62327,-0.02744 -2.79309,-0.06811 -3.82448,0.11075c-1.03517,0.17951 -1.93178,0.57972 -3.49103,1.19462c-1.89317,0.75878 -4.17035,1.58567 -6.11015,2.31701c0,0 -0.23591,-1.07021 -0.23183,-1.23784z" data-paper-data="{&quot;noHover&quot;:false,&quot;origItem&quot;:[&quot;Path&quot;,{&quot;applyMatrix&quot;:true,&quot;segments&quot;:[[[207.31893,203.62222],[-1.56232,0.79153],[2.56924,-1.28142]],[[213.26148,202.39854],[-2.71173,0],[0.31274,0]],[[216.71548,202.36496],[-0.11549,0.27091],[0.67739,-1.58904]],[[213.98516,199.78015],[1.20964,0],[-4.68463,-0.04699]],[[210.49312,193.73613],[2.95938,0.32899],[-1.80242,-0.20037]],[[208.89891,197.88268],[-0.77131,-1.4461],[0.13123,0.39943]],[[210.38336,200.0349],[-0.00213,-0.04143],[0.07053,1.37389]],[[202.42387,204.18188],[1.65832,-0.70829],[0,0.3051]],[[202.42387,205.06957],[0,-0.28458],[0,0.16786]],[[202.45592,205.69502],[-0.02007,-0.24606],[1.60177,-0.76489]]],&quot;closed&quot;:true}]}" fill="#ffffff" stroke="none" stroke-width="0.5" stroke-linecap="butt"/><path d="M321.01156,59.09879c-2.49032,2.0249 -12.61689,6.35578 -12.7403,9.18885c-0.02973,1.21873 0.39177,3.79599 -1.05016,4.66942c-3.4712,2.1026 -4.80285,-3.20545 -4.2285,-4.76154c-0.73626,-0.31692 -4.91739,-0.44485 -5.23532,-1.15135c-2.04258,-4.53858 4.90384,-3.941 6.70862,-3.15116c2.442,1.73955 13.38558,-6.0214 16.1777,-7.58196c0,0 -0.17137,0.61066 -0.13252,1.06191c0.02627,0.30517 0.04472,0.73756 0.18491,1.04233c0.25763,0.5601 0.48909,0.54476 0.31556,0.68349z" data-paper-data="{&quot;noHover&quot;:false,&quot;origItem&quot;:[&quot;Path&quot;,{&quot;applyMatrix&quot;:true,&quot;segments&quot;:[[[176.06157,218.50139],[2.0705,1.69992],[-1.52014,-0.76007]],[[170.74861,220.00393],[-1.79452,-4.50845],[0.27935,0.70181]],[[175.12729,221.04036],[-0.62002,-0.30478],[-0.44703,1.56734]],[[178.67981,225.67849],[-2.85013,2.16337],[1.18395,-0.89867]],[[179.47231,220.99048],[0,1.22042],[0.04527,-2.83792]],[[189.2678,212.19402],[-2.03426,2.06901],[0.34386,-0.34386]],[[190.2605,211.23832],[-0.33046,0.29289],[-1.88626,1.11632]],[[184.50998,212.56457],[1.08201,1.21464],[-2.2952,1.6093]]],&quot;closed&quot;:true}]}" fill="#ffffff" stroke="none" stroke-width="0.5" stroke-linecap="butt"/><path d="M328.119,56.99556c0.87166,0.64243 2.15221,1.41583 3.47699,2.05026c2.66365,1.27559 5.79787,2.44233 7.13643,3.60298c2.54428,0.58245 4.35289,-1.14081 7.17835,-0.83084c2.56493,0.2814 1.22975,3.883 -0.7694,4.40054c-0.74799,0.3161 -1.76775,0.63739 -3.00362,0.90779c-1.13209,0.24769 -2.49379,0.42371 -2.98109,1.12167c-0.52505,0.75203 -1.0089,2.53015 -1.4359,3.21716c-0.85134,1.36975 -1.83371,1.25839 -4.9654,0.02339c-1.39873,-2.94854 3.05195,-4.01245 2.28972,-6.8068c-0.44779,-1.64162 -7.79373,-5.13839 -8.08153,-5.35167c0,0 0.60095,-0.22693 0.79449,-0.87407c0.08364,-0.51653 0.3529,-1.13288 0.36096,-1.46041z" data-paper-data="{&quot;noHover&quot;:false,&quot;origItem&quot;:[&quot;Path&quot;,{&quot;applyMatrix&quot;:true,&quot;segments&quot;:[[[203.13974,214.52738],[-0.38057,-0.19109],[1.33571,0.89047]],[[208.68237,217.98089],[-0.40655,-1.63563],[0.69203,2.78416]],[[206.86071,224.73776],[-1.22561,-2.92773],[3.95664,1.77668]],[[211.87125,220.72761],[-1.26425,2.2802],[0.8198,-1.47858]],[[216.92976,219.32241],[-1.18209,0.63049],[1.65558,-0.55186]],[[217.48867,214.964],[2.14331,0.23827],[-2.36102,-0.26247]],[[211.28055,216.57158],[2.09196,1.02146],[-1.70567,-1.70567]],[[202.87891,211.01131],[2.22633,1.8916],[-0.00023,1.25891]],[[202.26666,213.92085],[0.464,-0.5488],[0.24418,0.20862]]],&quot;closed&quot;:true}]}" fill="#ffffff" stroke="none" stroke-width="0.5" stroke-linecap="butt"/><path d="M314.26901,52.37045c-2.72755,-1.25294 -7.11707,-5.14785 -9.93822,-5.29336c-0.85552,-0.00563 -6.15111,0.72399 -6.49811,-0.17055c-0.54077,-1.39404 0.091,-2.88178 0.66083,-3.33309c0.88547,-0.7013 0.95552,-0.45856 2.51021,-0.55462c0.02001,0.03532 1.10397,0.44175 1.12377,0.47642l0.18186,0.05143l-0.02766,0.04334c0,0 0.51168,0.24229 0.61239,0.24397c0.3312,0.00559 0.62146,-0.2404 0.62818,-0.51615c0.00486,-0.19933 0.05841,-0.25167 -0.14248,-0.33515l-0.61526,-0.31432c-1.25957,-2.24461 -1.14989,-4.16822 -0.22439,-4.81506c0.90031,-0.62924 3.50168,-0.11994 3.42027,3.21916c0.01657,1.09431 1.54726,3.39688 3.54677,5.191c2.27542,2.04168 4.81173,3.53109 4.76734,3.71939c-0.04288,0.18188 0.01605,0.41752 0.02096,0.74893c0.00995,0.67337 0.01014,1.52884 -0.02645,1.63867z" data-paper-data="{&quot;noHover&quot;:false,&quot;origItem&quot;:[&quot;Path&quot;,{&quot;applyMatrix&quot;:true,&quot;segments&quot;:[[[177.78373,197.83279],[0.12919,3.92461],[0,-6.78099]],[[175.96488,199.3709],[-2.16085,-4.39041],[0,0]],[[176.32662,199.55177],[0,0],[0.16912,0.08017]],[[176.6127,200.00383],[0,-0.1996],[0,0.27614]],[[176.1127,200.50383],[0.27614,0],[-0.08398,0]],[[175.8801,200.44654],[0.06948,0.03658],[0,0]],[175.40664,200.20981],[175.42935,200.1644],[[175.2767,200.11615],[0,0],[-0.01719,-0.03438]],[[175.22482,200.01206],[0.01739,0.03502],[-1.54294,0.58443]],[[171.95474,203.60058],[-1.22333,-3.54035],[0.30737,0.88954]],[[177.31883,203.60467],[-0.71309,0.00883],[2.35407,0.09792]],[[184.64095,208.17165],[-2.29857,-1.20801],[0.17161,-0.67121]],[[185.00873,206.1475],[-0.04274,0.66302],[-1.80821,-2.94258]]],&quot;closed&quot;:true}]}" fill="#ffffff" stroke="none" stroke-width="0.5" stroke-linecap="butt"/><path d="M330.62136,58.21348c-0.45486,-0.12748 -0.88637,-2.33244 -0.88637,-2.33244l-0.12001,-1.19965c0.00303,-0.12432 -0.24297,-0.34927 -0.58895,-0.25928c-0.42142,0.10961 -0.5491,0.55455 -0.5491,0.55455l0.03364,0.02904l-0.12249,0.06019c-0.3308,0.74738 -0.44183,3.93261 -1.51552,4.02774c-0.22003,0.0195 -0.88578,0.48955 -1.23365,0.61629c-0.61996,0.22586 -1.01378,0.14476 -1.65498,0.05878c-0.47659,-0.06391 -1.15721,0.0024 -1.53171,-0.20379c-0.37101,-0.20427 -0.63109,-0.25312 -0.91017,-0.48806c-0.26136,-0.22002 -0.55356,-0.63162 -0.56299,-0.67462c-0.06387,-0.29148 -0.26381,-0.8832 -0.23995,-1.21685c0.05349,-0.74795 0.22673,-1.51356 0.31768,-2.15032c0.01702,-0.00753 0.09898,-0.43104 0.11985,-0.81166c0.01715,-0.31273 -0.11945,-0.64489 -0.1357,-0.64517c-0.23941,-0.00405 -0.4893,0.27191 -0.4893,0.27191c-0.54533,0.20366 -1.60042,2.49331 -2.4133,3.36128c-0.79336,0.84713 -1.05551,1.11704 -1.86138,1.37203c-0.64234,0.20325 -1.74404,-0.20522 -2.28254,-0.8452c-0.17512,-0.20812 -0.37727,-1.08122 -0.23241,-2.00074c0.11503,-0.73013 0.19968,-1.41386 0.26085,-1.62141c0.25178,-0.85432 0.53954,-2.00231 0.49228,-2.9684c0.17198,-0.09458 0.01463,-0.86854 -0.03198,-0.92811c0.00009,-0.06627 0.0002,-0.13213 0.00178,-0.19683c-0.05269,-2.06181 -2.52653,-3.81776 -4.25929,-5.86365c-2.1672,-2.55884 -3.67532,-5.37882 -3.57873,-7.60967c0.14328,-5.87565 -1.4913,-9.25242 2.07223,-14.75633c2.72942,-4.31397 10.90171,-7.52002 16.22692,-7.43001c7.58193,0.12817 9.34632,1.93989 14.1966,6.07745c2.89189,5.25974 2.38593,9.08669 2.18847,14.67343c-0.80205,1.82893 -1.31437,5.37319 -3.23946,8.21872c-1.1634,1.71967 -3.4796,3.4448 -4.54931,4.43999c-0.42589,0.39622 -0.42469,0.73411 -0.42489,0.82228c-0.00094,0.42414 -0.13619,0.66727 -0.24174,1.45885c-0.0779,0.58423 0.06491,1.0958 0.08528,1.27975c0.0358,0.32334 0.65581,1.27022 0.94552,2.41279c0.40112,1.58196 0.48168,3.47655 0.30606,4.04984c-0.01281,0.04184 -0.42446,0.75089 -1.02474,0.90417c-0.32372,0.08266 -1.03135,0.20466 -1.39157,0.10841c-0.48751,-0.13026 -1.11594,-0.57878 -1.1749,-0.5953z" data-paper-data="{&quot;noHover&quot;:false,&quot;origItem&quot;:[&quot;Path&quot;,{&quot;applyMatrix&quot;:true,&quot;segments&quot;:[[200.95896,213.2537],[[201.2271,213.28415],[0,0],[0.26281,-0.04275]],[[201.70315,213.07991],[-0.02231,0.09553],[0.232,-0.99343]],[[201.84999,209.88365],[0.08386,1.11223],[-0.06387,-0.1051]],[[201.69075,209.56975],[0.04198,0.10415],[0,0]],[[201.77733,209.07915],[-0.18277,0.20201],[-0.14154,-1.37839]],[[201.42387,205.06957],[0,1.2475],[0,-1.20613]],[[201.42387,201.45118],[0,1.20613],[0,0]],[201.42387,201.20996],[[201.43431,201.1171],[-0.01044,0.05494],[-0.07188,-0.23312]],[[201.52387,200.66873],[0,0],[2.32374,-3.09126]],[[207.94342,190.51593],[-1.16465,3.40262],[0.05105,-5.59552]],[[205.86031,175.93237],[2.51696,5.21593],[-4.12626,-4.05952]],[[193.96341,170.10937],[6.32133,0],[-4.43983,0]],[[180.65927,177.79637],[2.18702,-4.36437],[-2.85799,5.56957]],[[179.26619,192.52583],[0,-5.8838],[-0.06328,4.02133]],[[186.02051,205.79325],[-0.19313,-4.64308],[0,0.06481]],[[186.02251,205.99001],[-0.00129,-0.06633],[0.06875,0.10103]],[[186.20895,206.29332],[-0.05533,-0.10119],[0,0]],[[186.06541,206.91711],[0.33859,-0.23369],[0.05902,0.96624]],[[186.00713,209.76774],[0.19248,-0.85942],[-0.10565,0.47174]],[[185.13109,211.44178],[-0.33074,-0.49201],[0.02289,0.02217]],[[185.19682,211.51993],[-0.0208,-0.0301],[1.84759,1.93765]],[[191.16032,209.55773],[-1.44457,0.68353],[0,0]],[[191.34032,209.19772],[0,0],[0.08017,-0.16912]],[[191.79238,208.91164],[-0.1996,0],[0.27614,0]],[[192.29238,209.41164],[0,-0.27614],[0,0]],[[192.29238,209.93629],[0,0],[0.24123,0.13268]],[192.53361,210.37654],[[192.25721,211.06498],[0,0],[-0.07791,0.03896]],[[192.0305,211.18471],[0.07333,-0.04086],[-0.0909,0.92392]],[[191.97648,213.97329],[-0.19176,-0.94229],[0.48329,2.37493]],[[197.63893,210.59613],[-0.31363,0.9074],[0,0]],[197.73921,210.53395],[197.7107,210.50544],[[198.19315,210.02299],[0,0],[0.09048,-0.09048]],[[198.54671,209.87654],[-0.13807,0],[0.27614,0]],[[199.04671,210.37654],[0,-0.27614],[0,0]],[199.04671,211.10022],[[198.85557,211.10022],[0,0],[0.08199,0.934]],[[199.46173,213.29176],[-0.38167,-0.11991],[0.15381,0.04832]],[[200.66831,213.33891],[-0.51204,0.02598],[0.13696,-0.08521]]],&quot;closed&quot;:true}]}" fill="#ffffff" stroke="none" stroke-width="0.5" stroke-linecap="butt"/><path d="M324.19158,46.75634c-0.65954,0.63326 -1.83474,2.48091 -2.95918,2.01538c-1.90306,-0.78787 0.33826,-4.2155 0.85451,-5.22796c3.75317,-5.90569 7.87152,7.50368 2.46463,4.08594c-0.16277,-0.27617 -0.28745,-0.57149 -0.35997,-0.87336z" fill="#000000" stroke="none" stroke-width="0.5" stroke-linecap="butt"/><path d="M323.10837,38.22973c0,3.74112 -2.86958,6.7739 -6.40938,6.7739c-3.53981,0 -6.40938,-3.03278 -6.40938,-6.7739c0,-3.74112 2.86957,-6.77389 6.40938,-6.77389c3.53981,0 6.40938,3.03278 6.40938,6.77389z" fill="#000000" stroke="none" stroke-width="0" stroke-linecap="butt"/><path d="M337.927,37.77494c0,3.74112 -2.86957,6.7739 -6.40938,6.7739c-3.53981,0 -6.40938,-3.03278 -6.40938,-6.7739c0,-3.74112 2.86958,-6.7739 6.40938,-6.7739c3.53981,0 6.40938,3.03278 6.40938,6.7739z" fill="#000000" stroke="none" stroke-width="0" stroke-linecap="butt"/></g></g></svg>