<svg version="1.1" xmlns="http://www.w3.org/2000/svg" xmlns:xlink="http://www.w3.org/1999/xlink" width="168.14725" height="104.88754" viewBox="0,0,168.14725,104.88754"><g transform="translate(-219.7759,-181.45535)"><g data-paper-data="{&quot;isPaintingLayer&quot;:true}" fill-rule="nonzero" stroke-linejoin="miter" stroke-miterlimit="10" stroke-dasharray="" stroke-dashoffset="0" style="mix-blend-mode: normal"><path d="M379.99156,263.66761l0.58814,1.99691c1.36768,0.54384 1.98666,1.57363 3.1038,2.4268c0,0 0.198,0.15264 0.04536,0.35064c-0.15264,0.19799 -0.35063,0.04535 -0.35063,0.04535c-1.06876,-0.83051 -1.90881,-1.76104 -3.21569,-2.2807l0.08931,-0.15577c0,0 -3.80201,-0.66856 -3.6789,-0.88614c0.12311,-0.21759 3.41862,-1.49708 3.41862,-1.49708z" data-paper-data="{&quot;index&quot;:null}" fill="#000000" stroke="none" stroke-width="0.5" stroke-linecap="butt"/><path d="M367.843,264.57884c0.00885,-0.94947 0.76284,-1.60925 0.89481,-2.10405c0.25525,-0.95699 0.03787,-1.29684 0.59882,-1.92184c0.25896,-0.28853 2.22245,-1.36439 2.53827,-1.79747c0.80182,-1.0995 1.81658,-0.06031 2.92631,-0.11947c1.36556,-0.0728 3.24761,0.66886 4.28051,2.15258c1.22357,1.75762 1.17618,4.56956 1.96761,7.46052c0.04886,0.17848 0.28055,0.44825 0.28484,0.63083c0.0029,0.12349 1.05682,2.13525 2.46416,4.24748c0.91605,1.37487 2.10084,2.71201 2.83518,3.87391c0.82493,1.30524 0.44419,1.91366 0.442,2.00191c-0.0598,2.41929 -2.19619,2.24213 -4.6545,1.48251c-0.21872,-0.06758 0.27414,3.00858 0.05156,2.9332c-0.15233,-0.0516 -0.22813,1.10245 -0.9524,1.76452c-0.79874,0.73014 -2.25232,0.9729 -2.43411,0.85455c-0.92231,-0.60047 -1.00035,-0.36601 -2.16984,-0.96489c-0.22597,-0.11572 -0.98927,0.37029 -1.25305,0.22778c-0.13186,-0.07124 -1.37853,0.27391 -1.50858,0.19007c-0.1603,-0.10335 -0.28883,-0.07046 -0.47392,-0.09966c-0.55129,-0.08697 -1.13031,-0.26111 -1.47373,-0.45338c-0.07637,-0.04277 -0.31622,0.01661 -0.3703,-0.04286c-0.30066,-0.33072 0.50081,0.18416 0.29698,0.19502c-0.71492,0.03812 -1.96286,-1.91201 -2.20054,-2.82501c-0.71791,-2.75774 -2.00774,-5.1731 -2.11647,-9.32641c-0.0031,-0.11846 -0.37424,-3.23197 -0.27006,-5.34002c0.07995,-1.61789 0.29646,-3.01981 0.29646,-3.01981z" fill="#fffd4d" stroke="#000000" stroke-width="0" stroke-linecap="butt"/><path d="M375.89933,258.57583c1.40208,0.23674 3.47429,1.38801 3.94616,2.85619c0.18207,0.03195 0.6868,3.72761 1.05322,5.37058c0.74626,2.4306 1.89695,4.58975 3.41418,6.60867c1.34949,1.9985 3.31892,3.33291 3.08361,5.98487c-0.47154,1.84716 -2.69304,2.08214 -4.50611,1.61221c0.02074,0.38906 0.04149,0.77812 0.06223,1.16718c0.13883,2.67101 -2.10241,5.17677 -4.80865,3.75599c-0.55283,-0.21383 -1.03062,-0.46317 -1.44914,-0.74502c-0.42827,0.2301 -0.86813,0.42778 -1.34411,0.54298c-0.03141,0.04359 -1.52709,0.32359 -2.73253,-0.14244c-1.40512,-0.54322 -2.57171,-1.9267 -2.96583,-3.20876c-1.19862,-2.19044 -1.70587,-5.82372 -1.8451,-8.30343c-0.40773,-3.1089 -0.79129,-6.5437 -0.12658,-9.61159c0.23879,-1.95396 1.1739,-4.32616 2.93536,-5.32751c0,0 0.21733,-0.12354 0.34089,0.0938c0.12354,0.21733 -0.09379,0.34089 -0.09379,0.34089c-1.61046,0.9155 -2.50804,3.17824 -2.68903,4.97363c-0.65278,3.03082 -0.26953,6.41334 0.13103,9.48479c0.12261,2.3418 0.47733,6.06585 1.68849,8.1c0.17888,0.58186 0.7815,1.60477 1.53985,2.25478c0.59001,0.50572 1.37734,0.72108 1.46778,0.7446c1.25214,0.32566 3.09361,-0.19434 3.24732,-0.27204c-1.47854,-1.20153 -2.13293,-2.88782 -2.9178,-4.8776c-0.58675,-2.09825 -1.02093,-3.91489 -0.83316,-6.11204c0,0 0.02213,-0.24902 0.27114,-0.22689c0.24901,0.02213 0.22689,0.27114 0.22689,0.27114c-0.19533,2.12714 0.24488,3.87886 0.8092,5.90885c0.77407,1.97034 1.38665,3.63633 2.91598,4.78131c0.04347,-0.02074 1.15312,0.69558 1.62976,0.87525c2.3639,1.26456 4.22916,-0.96663 4.10271,-3.27408c-0.02098,-0.39339 -0.0979,-1.06713 -0.04846,-1.21129c-0.54624,-0.20379 -1.17424,-0.65331 -1.50523,-0.95148c-1.58265,-1.77329 -4.06701,-3.494 -4.2121,-6.08766c0,0 -0.01331,-0.24965 0.23633,-0.26296c0.24964,-0.01331 0.26295,0.23633 0.26295,0.23633c0.12222,2.42759 2.59315,4.10562 4.06709,5.76146c1.08424,0.97205 5.231,1.90945 5.6487,-0.36849c0.21821,-2.45102 -1.74639,-3.76264 -2.99743,-5.61728c-1.54321,-2.08392 -2.72143,-4.2737 -3.48992,-6.77042c-0.35865,-1.62295 -0.62475,-3.31218 -0.99189,-5.01785c0,0 -0.53822,-1.21087 -0.89339,-1.55538c-0.81254,-0.78815 -1.84414,-1.14487 -2.71303,-1.28809c0,0 -0.50356,-0.06401 -0.46239,-0.31059c0.01688,-0.1011 0.54471,-0.18259 0.54471,-0.18259z" fill="#000000" stroke="none" stroke-width="0.5" stroke-linecap="butt"/><g stroke="none" stroke-linecap="butt"><path d="M381.89749,266.79004c0.14168,-0.20597 0.34766,-0.06429 0.34766,-0.06429l0.1923,0.16432c0.18237,0.3319 0.39317,0.60677 0.66172,0.87372c1.24532,1.66721 4.01042,1.61231 4.32405,-0.49918c-0.25284,-2.21239 -2.47945,-3.45267 -4.09399,-4.78558c-1.68002,-0.57085 -3.06949,-1.93927 -4.90496,-2.1835c0,0 -0.24759,-0.03462 -0.21297,-0.28221c0.03462,-0.24759 0.28221,-0.21297 0.28221,-0.21297c1.89478,0.27549 3.34476,1.62043 5.07887,2.24178c1.79026,1.42243 4.10774,2.80044 4.35077,5.23069c-0.34325,2.58041 -3.66333,2.83806 -5.20073,0.81967c-0.29312,-0.29138 -0.52221,-0.59938 -0.72266,-0.96073l-0.03799,0.00589c0,0 -0.20598,-0.14168 -0.06428,-0.34766z" fill="#000000" stroke-width="0.5"/><path d="M387.44705,267.24856c-0.16687,1.19341 -1.28028,1.8864 -2.39911,1.72996c-0.24293,-0.03396 -0.80647,-0.13591 -1.28794,-0.49927c-0.54891,-0.41426 -1.03918,-1.12001 -1.66942,-1.60378c-1.36292,-1.04619 -2.62936,-1.92809 -2.54003,-2.56696c0.16687,-1.19341 -3.30282,-4.84305 -2.18399,-4.68662c0.27925,0.03904 2.54983,1.14254 3.57985,1.58653c0.33933,0.14627 0.68356,0.32245 1.00907,0.53376c0.75483,0.48999 2.03659,1.108 2.76374,1.72497c1.8211,1.54517 2.80748,3.21152 2.7278,3.7814z" fill="#fffd4d" stroke-width="0"/></g><g><path d="M247.02689,276.17027c-1.50219,-1.23032 -0.82927,-3.32225 -0.26938,-4.85742c0.23945,-0.16508 0.47731,-0.30316 0.69611,-0.40272c0.00253,0.01477 0.06054,0.1128 0.06302,0.12771c0,0 -0.0129,0.16246 0.2337,0.12136c0.2466,-0.0411 0.20999,-0.29014 0.20999,-0.29014c-0.00762,-0.0457 -0.01499,-0.09109 -0.02314,-0.13569c1.74895,-0.46586 2.77704,1.28145 2.77902,3.25384c0.24715,1.25984 0.6266,1.54157 1.62727,2.08221l0.04276,0.02124l0.07668,0.15946c0.05143,0.02524 0.10358,0.04802 0.15572,0.06975c-0.1044,0.04725 -0.21255,0.09462 -0.31893,0.13708c-2.38224,0.95468 -3.04238,0.18556 -5.27282,-0.28669z" data-paper-data="{&quot;noHover&quot;:false,&quot;origItem&quot;:[&quot;Path&quot;,{&quot;applyMatrix&quot;:true,&quot;segments&quot;:[[[538.09783,276.56124],[-4.76448,1.90936],[0.21276,-0.08494]],[[538.73075,276.29294],[-0.2088,0.0945],[-0.10428,-0.04346]],[[538.41995,276.15264],[0.10286,0.05048],[0,0]],[538.26533,275.83532],[[538.17995,275.79264],[0,0],[-2.00136,-1.08128]],[[534.90587,271.67454],[0.4943,2.51968],[-0.00286,-2.84453]],[[531.71053,265.03636],[1.55521,0.84785],[-0.60156,-0.32795]],[[529.53637,265.54282],[-0.00425,-0.02549],[0,0]],[[528.54997,265.70722],[0,0],[-0.00496,-0.02982]],[[528.53493,265.61818],[0.00506,0.02954],[-0.4376,0.19912]],[[527.15993,266.40918],[0.4789,-0.33016],[-1.11978,3.07034]],[[527.69625,275.98374],[-3.00438,-2.46064],[4.46088,0.9445]]],&quot;closed&quot;:true,&quot;fillColor&quot;:[0,0,0,1]}]}" fill="#fffd4d" stroke="none" stroke-width="0.5" stroke-linecap="butt"/><path d="M246.63423,271.70358c-0.35509,0.83198 -0.70968,1.83517 -0.76855,2.76478c-0.6008,-0.00069 -1.3877,-0.43405 -1.92894,-0.51555c-0.51158,-0.07703 -1.03652,-0.3338 -1.5592,-0.58597c-1.40873,-1.44063 -0.28224,-3.80532 1.44733,-4.73976c2.22468,0.06133 3.32516,0.53917 3.78919,2.46283c-0.31529,0.13704 -0.64257,0.34715 -0.97983,0.61366z" data-paper-data="{&quot;noHover&quot;:false,&quot;origItem&quot;:[&quot;Path&quot;,{&quot;applyMatrix&quot;:true,&quot;segments&quot;:[[[526.36621,265.8009],[0,0],[0.67452,-0.53302]],[[528.32679,264.59772],[-0.63058,0.27408],[-0.92806,-3.84732]],[[520.87771,259.7514],[4.44936,0.12266],[-3.45914,1.86888]],[[518.53509,270.13962],[-2.81746,-2.88126],[2.15134,1.03792]],[[524.89343,271.2452],[-2.33738,-0.0027],[0.11774,-1.85922]],[[526.36621,265.80092],[-0.71018,1.66396],[0,0]]],&quot;closed&quot;:true,&quot;fillColor&quot;:[0,0,0,1]}]}" fill="#fffd4d" stroke="none" stroke-width="0.5" stroke-linecap="butt"/><path d="M272.46466,258.39588c0,0.93457 -1.32792,0.63831 -1.50806,1.06883c-0.16402,0.39198 1.03536,-0.45896 0.17085,-0.45896c-0.00269,0 -0.6572,-0.22095 -1.4457,0.81553c-0.33934,0.44606 -1.11394,-1.06289 -1.43905,-0.45283c-0.65087,1.22134 -0.78574,4.5999 -1.01866,4.81094c-0.01813,0.01643 -0.31194,1.32018 -0.33583,2.28747c-0.0928,3.75771 -2.1438,6.52092 -2.15561,6.52434c-1.01897,0.29432 -2.43322,3.97741 -6.16376,4.31039c-0.67655,0.06039 -4.13062,-0.73977 -4.75393,-0.87965c-1.30444,-0.29273 -2.51298,-0.90278 -3.59249,-1.65245c-3.21929,-2.23566 -5.29107,-5.71318 -5.33691,-5.72047c-0.57092,-0.09087 1.00941,-0.7266 4.72256,-3.27503c1.0949,-0.75146 3.50875,-3.43468 4.42664,-3.90158c0.94328,-0.4798 3.42466,-1.06375 4.232,-1.36395c0.41045,-0.15262 2.65914,-0.60309 3.02231,-0.73257c3.10798,-1.10809 2.64087,-1.12674 2.64087,-1.84555c0,-1.78547 2.40163,-2.0949 4.21566,-2.0949c1.81403,0 4.31912,0.77497 4.31912,2.56043z" fill="#fffd4d" stroke="none" stroke-width="0" stroke-linecap="butt"/><path d="M245.75466,267.59256l0.25162,-0.06261c1.10784,-0.21224 1.63789,-0.86162 2.6177,-1.34757c2.32569,-1.75732 3.96013,-4.18602 6.69603,-5.35852c2.02621,-0.7972 4.28206,-0.91811 6.37492,-1.60272c0.77954,-0.255 1.82422,-0.04866 1.81109,-1.10643c0,-3.01285 3.31907,-3.13551 5.67084,-3.12926c3.27141,0.53817 0.56901,0.23244 -0.34085,2.96202c-0.06068,0.30061 -1.23381,4.9603 -1.27441,5.04295c-0.38571,1.89193 -0.49545,2.31022 -0.49545,3.1046c-0.00767,2.1142 0.66002,4.14862 0.66002,6.24025c0,0 0,0.25 -0.25,0.25c-0.25,0 -0.25,-0.25 -0.25,-0.25c0,-2.08807 -0.65334,-4.12754 -0.66002,-6.24025c0,-0.78853 0.32472,-2.2772 0.55019,-3.50415c0.18526,-1.00817 0.83279,-3.13847 0.90112,-3.28778c-0.0906,-0.43628 1.71416,0.32363 1.88857,-0.55705c0.81398,-2.44194 2.14934,-2.76882 -0.77041,-3.2623c-2.04463,0.00624 -5.12959,-0.01972 -5.12959,2.63096c-0.02161,2.27622 -6.72683,2.44948 -8.49466,3.17109c-2.6993,1.15687 -4.3136,3.59954 -6.6245,5.32191c-0.97703,0.4921 -1.57986,1.12198 -2.64845,1.38236c0.80135,0.4132 1.31845,1.13548 1.61156,2.28832c1.4166,-0.36003 2.52603,0.53952 3.02558,1.92507c0.97913,-0.93428 1.90451,-0.96123 3.24472,-0.95699c2.21507,0.43466 3.48958,1.10496 5.13234,2.71211c0,0 0.17678,0.17678 0,0.35356c-0.17678,0.17678 -0.35356,0 -0.35356,0c-1.52302,-1.56956 -2.7581,-2.14517 -4.82806,-2.5681c-0.78061,0.00283 -1.76067,0.19233 -2.38143,0.52151c-0.36055,0.19119 -0.56781,0.58982 -0.62808,0.608c0.0678,0.33709 0.10318,0.69232 0.1028,1.05718c0.21735,1.06284 0.49523,1.24922 1.36308,1.6611l0.12,0.06c0,0 0.12362,0.06181 0.14107,0.18543c0.29567,0.12466 0.60952,0.18904 0.90448,0.34045c2.50513,0.41752 3.96765,1.87936 6.46265,0.61862c1.62298,-0.97499 3.69468,-2.36094 4.38836,-4.19387c0,0 0.09285,-0.23212 0.32497,-0.13927c0.23212,0.09285 0.13927,0.32497 0.13927,0.32497c-0.8129,1.95432 -2.84485,3.38742 -4.61199,4.44647c-2.6954,1.33157 -4.18036,-0.13518 -6.85788,-0.58143c-0.10017,-0.049 -0.20146,-0.09029 -0.30316,-0.12802l-0.22775,0.11388c-0.18246,0.09105 -0.3697,0.17267 -0.55898,0.24853c-2.43275,0.97115 -3.14947,0.24694 -5.34301,-0.23296c-0.12246,0.04901 -0.24005,-0.03917 -0.24005,-0.03917c-0.00663,-0.00499 -0.01323,-0.01 -0.01979,-0.01502c-0.01142,-0.00248 -0.14799,-0.03456 -0.18977,-0.15622c-0.68151,-0.60484 -0.96102,-1.36834 -1,-2.17894c-1.2688,-0.00222 -2.30996,-0.05349 -3.46679,-0.64713c-1.73134,-1.69915 -0.81185,-5.06091 1.34879,-6.08635c0.79707,-0.01492 1.47341,0.04418 2.04203,0.20349c0.0467,-0.11067 0.17487,-0.14271 0.17487,-0.14271zM252.2627,276.42333c0.10638,-0.04247 0.21206,-0.0869 0.31646,-0.13415c-0.05214,-0.02173 -0.10397,-0.04491 -0.1554,-0.07015l-0.07731,-0.15866l-0.04269,-0.02134c-1.00068,-0.54064 -1.38989,-0.79921 -1.63704,-2.05905c-0.00143,-1.42226 -0.82006,-2.89517 -1.59767,-3.31909c-0.30078,-0.16397 -1.0892,0.24049 -1.08708,0.25323l-0.4932,0.0822c-0.00248,-0.01491 -0.00499,-0.02975 -0.00752,-0.04452c-0.2188,0.09956 -0.44805,0.23042 -0.6875,0.3955c-0.55989,1.53517 -1.23403,3.55696 0.26816,4.78728c2.23044,0.47225 2.81855,1.24343 5.20079,0.28875zM246.3969,271.04316c0.33726,-0.26651 0.665,-0.46455 0.98029,-0.60159c-0.46403,-1.92366 -1.49986,-2.36183 -3.72454,-2.42316c-1.72957,0.93444 -2.58004,3.75348 -1.17131,5.19411c1.07567,0.51896 2.01048,0.55144 3.17917,0.55279c0.05887,-0.92961 0.3813,-1.89016 0.73639,-2.72214z" fill="#000000" stroke="none" stroke-width="0.5" stroke-linecap="butt"/><path d="M247.02719,276.17056c-1.50219,-1.23032 -0.82984,-3.32224 -0.26995,-4.8574c0.23945,-0.16508 0.47731,-0.30328 0.69611,-0.40284c0.00253,0.01477 0.00481,0.02977 0.00729,0.04468l0.49944,-0.08582c-0.00212,-0.01274 0.80346,-0.42202 1.10424,-0.25805c0.7776,0.42392 1.65022,1.95529 1.65165,3.37755c0.24715,1.25984 0.62658,1.54044 1.62726,2.08107l0.04276,0.02125l0.0767,0.15944c0.05143,0.02524 0.10358,0.04801 0.15572,0.06974c-0.1044,0.04725 -0.21256,0.09459 -0.31894,0.13706c-2.38224,0.95468 -3.04183,0.18559 -5.27227,-0.28666z" data-paper-data="{&quot;noHover&quot;:false,&quot;origItem&quot;:[&quot;Path&quot;,{&quot;applyMatrix&quot;:true,&quot;segments&quot;:[[[538.09783,276.56124],[-4.76448,1.90936],[0.21276,-0.08494]],[[538.73075,276.29294],[-0.2088,0.0945],[-0.10428,-0.04346]],[[538.41995,276.15264],[0.10286,0.05048],[0,0]],[538.26533,275.83532],[[538.17995,275.79264],[0,0],[-2.00136,-1.08128]],[[534.90587,271.67454],[0.4943,2.51968],[-0.00286,-2.84453]],[[531.71053,265.03636],[1.55521,0.84785],[-0.60156,-0.32795]],[[529.53637,265.54282],[-0.00425,-0.02549],[0,0]],[[528.54997,265.70722],[0,0],[-0.00496,-0.02982]],[[528.53493,265.61818],[0.00506,0.02954],[-0.4376,0.19912]],[[527.15993,266.40918],[0.4789,-0.33016],[-1.11978,3.07034]],[[527.69625,275.98374],[-3.00438,-2.46064],[4.46088,0.9445]]],&quot;closed&quot;:true,&quot;fillColor&quot;:[0,0,0,1]}]}" fill="#fffd4d" stroke="none" stroke-width="0.5" stroke-linecap="butt"/><path d="M259.82745,276.27191c-0.25,0 -0.25,-0.25 -0.25,-0.25c0,-0.40001 0,-0.93335 0,-1.33336c0,0 0,-0.25 0.25,-0.25c0.25,0 0.25,0.25 0.25,0.25c0,0.40001 0,0.80002 0,1.20002v0.13334c0,0 0,0.25 -0.25,0.25z" fill="#fffd4d" stroke="none" stroke-width="0.5" stroke-linecap="butt"/><path d="M261.69417,272.87184c0,1.90542 -2.47741,3.45008 -5.53346,3.45008c-3.05604,0 -5.53346,-1.54466 -5.53346,-3.45008c0,-1.90542 2.47742,-3.45007 5.53346,-3.45007c3.05604,0 5.53346,1.54465 5.53346,3.45007z" fill="#fffd4d" stroke="none" stroke-width="0" stroke-linecap="butt"/><path d="M248.86055,270.50513c0,0.59832 -0.39549,1.08335 -0.88335,1.08335c-0.48786,0 -0.88335,-0.48503 -0.88335,-1.08335c0,-0.59832 0.39549,-1.08336 0.88335,-1.08336c0.48786,0 0.88335,0.48504 0.88335,1.08336z" fill="#fffd4d" stroke="none" stroke-width="0" stroke-linecap="butt"/><g><path d="M273.56588,253.85588c0,0.49999 -0.25779,3.98011 -0.72475,4.43863c-0.47009,0.4616 -0.88745,1.03492 -1.73194,1.37591c-0.88905,0.35898 -2.7577,0.21122 -3.95819,0.45054c-0.26121,0.05208 -2.33443,0.1588 -3.47243,1.38212c-0.72548,0.77988 -0.98547,2.32783 -0.82623,3.58575c0.04158,0.32849 0.19385,0.97259 1.03346,1.60055c0.94519,0.70693 2.61994,1.41698 3.27735,2.0851c0.71516,0.7268 1.25734,1.60507 1.13035,2.36557c-0.12119,0.72575 -0.88332,1.34424 -1.3982,1.62145c-0.41468,0.22326 -2.66088,0.40196 -3.27668,0.47865c-0.51438,0.06406 -1.94608,-2.88921 -2.54201,-2.64939c-0.48907,0.19682 -0.83212,3.07954 -1.62652,4.25508c-0.79823,1.1812 -1.95967,0.83142 -2.48924,0.89579c-0.75486,0.09176 -1.43744,0.48139 -2.28286,-0.50954c-0.61441,-0.72016 -0.60393,-2.78902 -1.15868,-2.87554c-0.32879,-0.05128 -1.14402,-0.28114 -1.54551,-0.18647c-1.93511,0.45632 -4.0669,2.56708 -5.28698,2.85714c-0.38846,0.09235 -0.62494,-0.53798 -1.00247,-0.77881c-0.25275,-0.16123 -0.69804,0.1237 -0.8144,-0.09123c-0.26341,-0.48659 0.0509,-1.0125 -0.29642,-1.13272c-0.13826,-0.04786 -0.77473,-2.58879 0.18372,-3.82313c1.42906,-1.84041 3.44159,-2.7874 3.26306,-2.8382c-0.10928,-0.03109 0.28212,-0.76017 -0.19383,-1.79887c-0.32456,-0.70832 -1.0595,-1.36353 -1.58091,-1.97027c-0.46921,-0.546 -1.83666,-1.45826 -1.88728,-1.45826c-1.31428,0 -0.96938,-0.09424 -2.399,-0.46596c-1.92006,-0.49924 -4.31617,-0.81037 -5.29312,-2.00868c-0.42005,-0.51523 -0.91398,-1.18023 -1.0356,-1.90929c-0.21272,-1.27518 0.16839,-3.01105 0.16839,-4.21952c0,-0.9638 0.07061,-2.78238 0.88945,-3.47719c0.49352,-0.41877 1.84698,-1.47584 2.49611,-1.56443c0.30976,-0.04228 1.63858,-1.62532 1.81378,-1.82366c1.82087,-2.06137 1.43079,-1.20873 4.59535,-1.20873c2.66696,0 7.45221,0.05423 12.17052,-0.10696c2.4219,-0.08273 4.82617,-1.71703 6.91726,-0.33132c0.80155,0.53117 4.71613,0.70376 6.59992,2.7297c2.17243,2.33636 2.28454,6.55528 2.28454,7.10619z" fill="#fef9e2" stroke="none" stroke-width="0" stroke-linecap="butt"/><path d="M271.92182,248.25178c-0.76662,-0.15332 -1.51614,-0.44444 -2.29247,-0.61441c-3.63569,-1.21523 -7.81975,-0.49467 -11.62311,-0.49467c-4.15802,0 -8.31606,-0.00433 -12.47408,0.00105c-3.14692,0.00405 -6.9835,0.06046 -8.97961,2.60029c-0.87542,1.32125 -0.72701,6.99604 -0.05964,8.30137c1.38144,3.15374 7.83774,1.59533 10.00094,4.49066c1.03746,0.78973 2.63237,3.81758 1.41814,4.97574c-0.91498,0.87271 -2.19011,0.94042 -3.01704,2.02381c-0.98753,2.50189 0.27649,7.10014 3.72326,4.24025c2.69731,-2.0099 5.26988,-3.39274 6.07783,0.6493l0.06609,0.39632c0.73374,1.12032 2.12574,0.97602 3.59318,0.54785c2.22363,-0.42763 0.95933,-6.60697 3.65205,-4.60107c0,0 0.1211,0.09082 0.13619,0.23117c0.1031,0.07287 0.13468,0.19918 0.13468,0.19918c0.50326,2.06456 5.75622,2.58782 5.66147,-0.27614c0.01291,-3.35619 -5.48121,-2.55995 -5.50378,-6.21394c0,-4.34188 2.99541,-4.85277 6.80572,-4.85277c4.34868,0.0147 3.93049,-4.73235 3.93633,-7.72956c-0.1834,-1.27784 -0.65252,-2.3163 -0.9615,-3.56253l-0.08145,-0.20266zM235.93817,249.47623c0.03499,-0.04585 0.07047,-0.09099 0.1064,-0.13544c0.01439,-0.02245 0.029,-0.04408 0.04383,-0.06486c0,0 0.02147,-0.02863 0.05967,-0.05978c2.20337,-2.58312 6.03553,-2.71901 9.38324,-2.72336c4.1583,-0.00538 8.31662,-0.00104 12.47492,-0.00104c3.86757,0 8.09612,-0.71192 11.7956,0.51793c0.79005,0.17137 1.55141,0.47041 2.33125,0.62637l0.13654,0.06698c0.27154,-0.07838 0.3812,0.19577 0.3812,0.19577l0.18503,0.4646c0.32608,1.29524 0.8013,2.3801 0.99144,3.71665c0.00601,3.42838 0.22701,8.41269 -4.58564,8.42667c-3.46921,0 -6.15477,0.25512 -6.15477,4.20182c-0.02621,3.38973 5.49154,2.5395 5.50377,6.21394c-0.07857,3.53081 -6.21276,3.29971 -6.94394,0.43402c0,0 -0.00518,-0.02074 -0.00758,-0.05293c-0.0143,-0.00852 -0.02233,-0.01455 -0.02233,-0.01455c-1.21197,-0.91619 -0.94335,4.26573 -3.10811,4.71294c-1.76339,0.49435 -3.41958,0.5551 -4.31412,-0.86328c-0.00901,-0.01269 -0.01684,-0.02555 -0.02364,-0.03812c-0.09089,-0.14906 -0.17362,-0.31396 -0.24745,-0.49585l-0.02328,-0.34621c0,0 0,-0.09097 0.04809,-0.17673c-0.76585,-2.827 -2.6473,-1.51778 -4.93142,0.20869c-1.62541,1.26432 -2.56229,0.80722 -3.43596,0.07651c-1.29266,-1.08114 -2.02886,-3.23506 -1.25342,-5.15028c1.47503,-1.99449 5.57128,-3.36824 1.70607,-6.22033c-2.26749,-3.0121 -8.55941,-1.18559 -10.12933,-4.67313c-0.75459,-1.53793 -0.87003,-6.69414 -0.03628,-8.64209c0.00233,-0.11435 0.07024,-0.20491 0.07024,-0.20491z" fill="#00f9ff" stroke="none" stroke-width="0.5" stroke-linecap="butt"/><path d="M272.09919,248.23416l0.08182,0.20317c0.30898,1.24623 0.7837,2.29399 0.96711,3.57183c-0.00583,2.99721 0.41875,7.76665 -3.92993,7.75195c-3.81032,0 -6.81074,0.54313 -6.81074,4.885c0.02256,3.65399 5.50978,2.86992 5.49687,6.22611c0.09475,2.86396 -5.17103,2.35404 -5.67429,0.28948c0,0 -0.11171,-0.22892 -0.21481,-0.30179c-0.01509,-0.14035 -0.05584,-0.12873 -0.05584,-0.12873c-2.69272,-2.0059 -1.45174,4.18514 -3.67536,4.61276c-1.46744,0.42816 -2.87543,0.5747 -3.60917,-0.54562l-0.06639,-0.39632c-0.50747,-2.53882 -1.72244,-2.65869 -3.22431,-2.10787c-0.88925,0.32614 -1.87908,0.70475 -2.8822,1.45222c-3.44677,2.8599 -4.73235,-1.75493 -3.74481,-4.25682c0.82693,-1.08339 1.93997,-1.68796 2.85495,-2.56067c0.18109,-0.17272 0.57297,-1.13782 0.59278,-1.3814c0.06093,-0.74919 -0.42185,-1.04143 -0.86448,-1.92668c-0.3784,-0.7568 -0.59229,-0.85349 -0.99913,-1.16319c-1.22424,-1.63858 -3.9406,-1.76376 -6.21674,-2.21677c-1.74574,-0.34744 -3.18428,-0.92633 -3.78391,-2.29524c-0.66737,-1.30533 -0.80649,-7.00373 0.06893,-8.32498c1.99611,-2.53983 5.85246,-2.61595 8.99938,-2.62c4.15801,-0.00538 8.36642,-0.00942 12.52445,-0.00942c3.80337,0 8.02027,-0.70105 11.65596,0.51418c0.77634,0.16997 1.52966,0.4657 2.29629,0.61902z" data-paper-data="{&quot;noHover&quot;:false,&quot;origItem&quot;:[&quot;Path&quot;,{&quot;applyMatrix&quot;:true,&quot;segments&quot;:[[[646.26957,199.62168],[0,0],[-1.53325,-0.30665]],[[641.68463,198.39286],[1.55267,0.33995],[-7.27137,-2.43046]],[[618.4384,197.40352],[7.60674,0],[-8.31604,0]],[[593.49025,197.40561],[8.31603,-0.01076],[-6.29384,0.00811]],[[575.53103,202.60619],[3.99223,-5.07967],[-1.75084,2.6425]],[[575.41174,219.20894],[-1.33474,-2.61067],[2.76287,6.30748]],[[595.41362,228.19025],[-4.32641,-5.79065],[2.07491,1.57945]],[[598.24991,238.14172],[2.42846,-2.3163],[-1.82995,1.74543]],[[592.21583,242.18935],[1.65385,-2.16679],[-1.97507,5.00377]],[[599.66235,250.66984],[-6.89353,5.71979],[5.39461,-4.01979]],[[611.81802,251.96844],[-1.6159,-8.08408],[0,0]],[[611.9502,252.76107],[0,0],[1.46749,2.24063]],[[619.13656,253.85678],[-2.93488,0.85632],[4.44725,-0.85525]],[[626.44067,244.65464],[-5.38545,-4.01181],[0,0]],[[626.71304,245.11699],[-0.03018,-0.28071],[0.2062,0.14575]],[[626.9824,245.51535],[0,0],[1.00652,4.12912]],[[638.30534,244.96307],[0.1895,5.72793],[0.02582,-6.71239]],[[627.29779,232.5352],[0.04513,7.30797],[0,-8.68375]],[[640.90924,222.82965],[-7.62063,0],[8.69735,0.02939]],[[648.78189,207.37052],[-0.01167,5.99443],[-0.36681,-2.55569]],[[646.85888,200.24547],[0.61796,2.49246],[0,0]],[646.69598,199.84015]],&quot;closed&quot;:true}]}" fill-opacity="0.78039" fill="#71cdf5" stroke="none" stroke-width="0.5" stroke-linecap="butt"/><path d="M255.13021,264.14846c-0.31916,-0.06383 -0.25533,-0.38299 -0.25533,-0.38299l0.05286,-0.23207c0,-2.36025 -0.27764,-4.71851 -0.2959,-7.04236c0,0 0.00001,-0.32547 0.32548,-0.32547c0.32547,0 0.32547,0.32547 0.32547,0.32547c-0.02337,2.30292 0.29589,4.6969 0.29589,7.04236l-0.0655,0.35973c0,0 -0.06383,0.31915 -0.38298,0.25532z" fill="#f5f5f5" stroke="none" stroke-width="0.5" stroke-linecap="butt"/><path d="M251.5752,265.56323c-0.32547,0 -0.32548,-0.32548 -0.32548,-0.32548l0.01252,0.03024c-0.53306,-1.87018 -1.41384,-6.05265 -3.57745,-6.70464c0,0 -0.30878,-0.10292 -0.20585,-0.4117c0.10293,-0.30877 0.4117,-0.20585 0.4117,-0.20585c2.46161,0.87391 3.36154,4.92247 3.99751,7.14335l0.01253,0.1486c0,0 0,0.32548 -0.32548,0.32548z" fill="#f5f5f5" stroke="none" stroke-width="0.5" stroke-linecap="butt"/><path d="M240.92816,231.1054c0,-0.13807 0.11193,-0.25 0.25,-0.25c0.13807,0 0.25,0.11193 0.25,0.25c0,0.13807 -0.11193,0.25 -0.25,0.25c-0.13807,0 -0.25,-0.11193 -0.25,-0.25z" fill="#9966ff" stroke="none" stroke-width="0.5" stroke-linecap="butt"/><path d="M241.29355,231.45158c0,0 -1.55725,-1.87499 -2.08738,-2.95233c-0.24203,-0.49186 -0.77747,-1.23595 -0.99113,-1.9717c-0.35228,-1.21305 -0.49869,-2.46114 -0.49869,-2.46114c0,0 -0.08207,-0.82878 -0.09,-1.59963c-0.01421,-1.3813 0.25513,-3.15673 0.58128,-4.23637c0.5939,-1.96601 2.85514,-5.12638 2.85514,-5.12638c0,0 1.89596,-2.1376 3.1554,-2.8198c1.47562,-0.79929 4.92215,-2.48827 4.92215,-2.48827c0,0 9.2954,0.10837 11.94348,0.19111c1.36908,0.04278 2.13455,0.15504 2.13455,0.15504c0,0 1.53403,0.24483 2.93444,1.00465c1.33288,0.72318 2.53386,1.96175 2.59485,2.01474c0.69398,0.60297 2.20204,3.21185 2.20204,3.21185c0,0 0.68381,0.74875 0.86377,1.58855c0.13263,0.61894 0.32773,2.48259 0.52286,3.80028c0.17805,1.20231 0.00997,2.9442 0.14067,3.73452c0.12268,0.74175 -0.25795,3.97368 -0.25795,3.97368c0,0 -0.53859,2.51957 -0.94988,3.34215c-0.20207,0.40416 -0.92897,1.08282 -1.236,1.35594c-0.20254,0.18017 4.08577,4.24564 6.0082,6.04968c0.23106,0.21683 0.78123,2.70766 0.20265,5.06015c-0.55918,2.27361 -1.7324,4.59928 -2.39296,5.80139c-0.2101,0.38235 -1.31908,0.8455 -1.9025,1.06769c-0.17055,0.06495 1.42714,-0.22015 2.1036,-0.34237c0.10977,-0.01984 1.51262,0.52405 1.4209,1.57608c-0.02583,0.29632 0.05607,1.17572 -0.29458,1.56515c-0.24892,0.27644 -0.60316,0.38528 -0.89606,0.42779c-0.13654,0.01981 -1.39055,0.0096 -2.3226,-0.001c-0.43911,-0.00499 -1.98589,-0.99669 -2.67294,-1.45176c-0.06331,-0.04193 -0.48171,-0.38867 -0.8589,-0.43163c-0.37618,-0.04285 -0.71115,0.21796 -0.77331,0.25551c-0.19986,0.12073 -1.38211,1.07559 -1.8896,1.65388c-0.3881,0.44224 -0.78846,0.4554 -1.65459,0.75253c-0.51209,0.17567 -1.24253,0.00764 -1.9284,-0.15708c-0.14898,0.03387 -2.11656,-1.47038 -2.25289,-1.4314c-0.59152,0.16916 -0.77222,0.64567 -1.0957,1.14689c-0.05273,0.08169 -0.33151,1.69229 -5.08371,1.30306c-0.03711,-0.00304 -1.57429,-0.55803 -1.67754,-0.66767c-0.45371,-0.48181 -1.3608,-1.31249 -1.53122,-1.32379c-0.34186,-0.02266 -0.85723,-0.04174 -1.2218,-0.05666c-0.08047,-0.00329 -1.86393,0.07469 -1.94486,0.07177c-0.10904,-0.00392 -1.92067,0.88412 -2.02936,0.88032c-0.19173,-0.00671 -1.39541,0.83729 -1.58365,0.82923c-0.16453,-0.00705 -1.21888,-0.09564 -1.37901,-0.10364c-0.20664,-0.01032 -1.06315,-1.08426 -1.25935,-1.09398c-0.25142,-0.01245 -1.00003,-0.04459 -1.23234,-0.05709c-0.46796,-0.02517 -1.39077,-1.02629 -1.7555,-1.03375c-0.09143,-0.00187 -0.5661,0.39069 -1.42152,0.8644c-0.5087,0.28171 -1.65239,0.91151 -1.69822,0.91036c-0.171,-0.00427 -0.9019,-0.40675 -1.44862,-1.34969c-0.35016,-0.60394 -0.21934,-1.36305 -0.22288,-2.22951c-0.00194,-0.47514 0.63744,-1.85403 0.99723,-2.17404c0.20238,-0.18 2.05904,-0.73281 2.07449,-0.98687c0.02196,-0.36117 -1.08199,-1.6179 -1.4673,-3.71846c-0.37352,-2.03627 -0.17521,-5.16289 0.46317,-7.22367c1.03059,-3.3269 5.76768,-5.05361 5.76768,-5.05361" fill="#fef9e2" stroke="#deb377" stroke-width="0.5" stroke-linecap="round"/><path d="M253.22809,223.78636c0,1.93312 -1.69098,3.0002 -3.90026,3.0002c-2.20929,0 -2.60017,-1.26709 -2.60017,-3.20021c0,-1.93312 1.49096,-3.0002 3.70024,-3.0002c2.20929,0 2.80019,1.26709 2.80019,3.20021z" fill="#698ec4" stroke="#305286" stroke-width="0.5" stroke-linecap="butt"/><path d="M264.52851,223.48601c0,1.93312 -1.69098,3.0002 -3.90026,3.0002c-2.20929,0 -2.60017,-1.26709 -2.60017,-3.20021c0,-1.93312 1.49096,-3.0002 3.70024,-3.0002c2.20929,0 2.80019,1.26709 2.80019,3.20021z" fill="#50b948" stroke="#488731" stroke-width="0.5" stroke-linecap="butt"/><path d="M258.27073,230.28678c0,1.7122 -1.38801,3.10021 -3.10021,3.10021c-1.7122,0 -3.10021,-1.38801 -3.10021,-3.10021c0,-1.7122 1.38801,-3.10021 3.10021,-3.10021c1.7122,0 3.10021,1.38801 3.10021,3.10021z" fill="#ff4ec4" stroke="#981a6e" stroke-width="0.5" stroke-linecap="butt"/><path d="M263.6277,229.987c0.50027,0.1245 1.20353,0.36854 1.70359,1.14347c0.29661,0.45965 0.57034,1.54363 0.55512,1.70598c-0.03184,0.33961 -0.15899,1.53452 -1.13467,3.08147c-1.62124,2.57052 -4.54319,4.67054 -5.01867,4.82584c-1.09439,0.35745 -3.01553,0.53465 -4.41743,0.37225c-0.28915,-0.03349 -2.62958,0.06897 -2.97317,0.00449c-0.35526,-0.06667 -2.88852,-0.2996 -3.24572,-0.40156c-0.40459,-0.11549 -1.03003,-0.69956 -1.4201,-0.8549c-0.66966,-0.26669 -1.01803,-2.12246 -1.61695,-2.41384c-2.33632,-1.13665 -3.37579,-3.02935 -3.42193,-3.32275c-0.08184,-0.52048 0.21631,-1.35249 0.43401,-1.68865c0.49536,-0.7649 2.38517,-0.30109 2.64841,-0.05326c1.05524,0.99348 2.50223,2.91556 3.76466,3.53776c1.40425,0.6921 4.54102,0.96945 4.54102,0.96945c0,0 4.21097,-0.18959 5.8622,-1.29437c1.30288,-0.87172 1.99551,-3.39737 2.11322,-4.78518c0.01438,-0.16958 0.2397,-0.59766 0.66205,-0.79503c0.26244,-0.12264 0.647,-0.11016 0.96436,-0.03118z" fill="#e72d2a" stroke="#8b1b19" stroke-width="0.5" stroke-linecap="round"/><path d="M272.46036,234.79965l0.19822,-0.55803l1.62858,-7.22925c0,0 1.18914,-1.20768 1.65274,-1.59912c0.34962,-0.29521 0.87505,-0.68398 1.2996,-0.98968c0.39344,-0.2833 0.70414,-0.07447 0.70414,-0.07447c0,0 0.46514,-0.20211 1.03296,0.05849c0.88241,0.40498 2.07268,0.98898 2.64675,1.61101c0.44945,0.48699 1.69793,3.74077 1.69793,3.74077c0,0 -0.13581,2.26156 -0.47752,3.43814c-0.43406,1.49458 -1.91666,4.80577 -1.91666,4.80577c0,0 -6.5324,6.64742 -8.4479,8.28242c-0.32722,0.2793 -0.91947,0.1839 -0.89351,0.12861c0.04663,-0.09934 0.59807,0.08497 0.65328,-0.0335c0.0686,-0.14724 0.36929,-0.14169 0.57363,-0.25799c0.17514,-0.09968 0.2449,-0.31773 0.4276,-0.47284c0.21112,-0.17923 0.38334,-0.59065 0.50112,-0.73912c0.43178,-0.54431 0.23421,-0.90447 0.37385,-1.58432c0.08581,-0.41775 -0.10465,-1.01956 -0.27016,-1.48886c-0.09436,-0.26756 -0.17623,-0.40162 -0.24129,-0.54575c-0.03789,-0.08393 -0.12891,-0.2296 -0.15455,-0.25401c-0.51367,-0.48917 -1.56956,-0.96451 -2.00446,-1.48058c-0.14869,-0.17644 0.48162,-0.46624 0.95176,-0.85151c0.39958,-0.32745 0.63777,-0.97656 0.75212,-1.36896c0.11039,-0.37881 0.15477,-0.83862 0.08568,-1.20619c-0.02762,-0.14692 -0.07413,-0.28739 -0.13108,-0.41827c-0.23363,-0.53697 -0.64283,-0.91277 -0.64283,-0.91277z" data-paper-data="{&quot;index&quot;:null}" fill="#ffde2e" stroke="#d29c0f" stroke-width="0.5" stroke-linecap="round"/><path d="M277.89046,238.3792c0,-0.23092 0.21329,-0.24854 0.24585,-0.24989c1.04269,-2.06512 2.68138,-4.99427 1.14627,-7.2622c0,0 -0.13868,-0.20802 0.06934,-0.34669c0.20801,-0.13867 0.34669,0.06934 0.34669,0.06934c1.65785,2.51935 -0.05038,5.63004 -1.18453,7.90124l-0.37362,0.1382c0,0 -0.25,0 -0.25,-0.25z" fill="#d4a30f" stroke="none" stroke-width="0.5" stroke-linecap="butt"/><path d="M275.1134,237.95592c-0.17678,-0.17677 0,-0.35355 0,-0.35355l0.29017,-0.28959c1.61256,-2.00975 2.14266,-4.42616 1.2996,-6.95533c0,0 -0.07906,-0.23717 0.15811,-0.31623c0.23717,-0.07905 0.31623,0.15811 0.31623,0.15811c0.90384,2.71151 0.30174,5.28081 -1.40067,7.44611l-0.30989,0.31047c0,0 -0.17678,0.17677 -0.35355,0z" fill="#d4a30f" stroke="none" stroke-width="0.5" stroke-linecap="butt"/><path d="M249.33273,222.69431c0,0.46026 -0.41043,0.83338 -0.91672,0.83338c-0.50629,0 -0.91672,-0.37311 -0.91672,-0.83338c0,-0.46026 0.41043,-0.83338 0.91672,-0.83338c0.50629,0 0.91672,0.37311 0.91672,0.83338z" fill="#ffffff" stroke="none" stroke-width="0" stroke-linecap="butt"/><path d="M260.95839,222.12762c0,0.48327 -0.44774,0.87505 -1.00005,0.87505c-0.55232,0 -1.00006,-0.39178 -1.00006,-0.87505c0,-0.48327 0.44774,-0.87504 1.00006,-0.87504c0.55232,0 1.00005,0.39177 1.00005,0.87505z" fill="#ffffff" stroke="none" stroke-width="0" stroke-linecap="butt"/><path d="M254.54071,229.14513c-0.23373,0.40317 -0.6858,0.57777 -1.00971,0.38999c-0.32391,-0.18778 -0.39702,-0.66685 -0.16329,-1.07002c0.23373,-0.40317 0.68579,-0.57777 1.00971,-0.38998c0.32391,0.18778 0.39702,0.66684 0.1633,1.07001z" fill="#ffffff" stroke="#000000" stroke-width="0" stroke-linecap="butt"/><path d="M240.10388,213.83012c0.77224,-1.77606 2.69375,-3.79533 4.04705,-4.9206c2.94867,-1.35525 6.1591,-1.99163 9.42157,-1.99989c2.8958,0 6.46402,-0.65916 9.26426,0.1324c2.57068,1.30789 5.26243,2.46111 7.14567,4.81076c1.59688,2.13218 2.78434,5.5659 -0.03541,7.24596c-2.4736,0.81958 -5.27706,-1.64498 -6.2161,-3.81439c-1.55421,-3.28176 -0.54627,1.52396 -2.29215,2.38264c-1.63491,0.28041 -3.16184,-0.21518 -4.3999,-1.32242c-0.23717,-0.21211 -1.77129,-1.68681 -1.84433,-1.49022c0.12799,2.5797 -3.97459,4.10527 -6.09694,3.32726c-1.04876,-0.42428 -1.74619,-1.40329 -2.6139,-2.06522c-0.34317,-0.26179 -0.61722,0.82504 -0.82677,1.20238c-0.42687,0.76866 -0.57278,0.90608 -1.28289,1.32447c-2.08018,0.43964 -5.66898,-1.90194 -4.75057,-4.33658c0.06367,-0.0861 0.12735,-0.1722 0.19102,-0.2583l0.13862,-0.14216c0,0 0.06272,-0.06271 0.15079,-0.07608zM240.00033,214.70315c-0.63067,1.89461 2.71694,3.7467 4.1934,3.47374c0.40751,-0.24961 1.31057,-1.67201 1.88455,-2.31202c0.1961,-0.21866 0.45571,-0.24408 0.50596,-0.23825c0.84644,0.09813 1.83358,1.74931 2.694,2.08878c2.04649,0.78844 5.36617,-0.78093 5.44197,-3.01914c0.6397,-0.7738 1.16445,-0.0978 1.73273,0.41371c1.43471,1.29136 2.78544,2.40871 4.83122,2.08155c0.61801,-0.31517 0.60327,-0.66832 0.66688,-1.03926c0.12273,-0.7157 -0.09121,-1.49758 0.68899,-2.20044c0.44905,-0.40454 0.76274,-0.38045 0.97722,0.16542c0.14368,0.3657 0.38398,0.61745 0.56727,0.95675c0.79462,1.8748 3.37878,4.30105 5.55358,3.57051c2.48701,-1.50549 1.2409,-4.63225 -0.1508,-6.48533c-1.80904,-2.25798 -4.44034,-3.42489 -6.9318,-4.65114c-2.709,-0.78488 -6.27394,-0.09838 -9.08261,-0.09838c-3.17333,0.00159 -6.28154,0.63313 -9.15607,1.92334c-1.39841,1.16872 -3.54662,3.45464 -4.04657,5.22255c0,0 -0.06868,0.24038 -0.30906,0.1717c-0.02301,-0.00657 -0.04318,-0.01471 -0.06086,-0.02407z" fill="#502200" stroke="none" stroke-width="0.5" stroke-linecap="butt"/><path d="M240.01151,214.73292c0.24038,0.06868 0.30901,-0.17215 0.30901,-0.17215c0.49995,-1.76791 2.65034,-4.07455 4.04874,-5.24327c2.87453,-1.29021 6.01355,-1.95339 9.18689,-1.95498c2.80867,0 6.43003,-0.66978 9.13903,0.1151c2.49146,1.22625 5.13298,2.42074 6.94202,4.67872c1.39171,1.85309 2.6343,5.00127 0.14729,6.50677c-2.1748,0.73054 -4.85394,-1.72622 -5.64855,-3.60102c-0.18329,-0.3393 -0.42452,-0.58627 -0.5682,-0.95197c-0.21447,-0.54588 -0.42915,-0.55588 -0.87821,-0.15134c-0.78021,0.70286 -0.57103,1.50011 -0.69376,2.21581c-0.06361,0.37094 -0.05338,0.73146 -0.67139,1.04662c-2.04577,0.32715 -3.41728,-0.77382 -4.85199,-2.06518c-0.56829,-0.5115 -1.13384,-1.18834 -1.77353,-0.41454c-0.0758,2.23821 -3.41395,3.79261 -5.46043,3.00417c-0.86042,-0.33947 -1.85567,-2.00662 -2.70211,-2.10475c-0.05025,-0.00583 -0.21415,-0.00939 -0.41025,0.20927c-0.57398,0.64001 -1.57024,2.09801 -1.97776,2.34762c-1.47645,0.27296 -4.82834,-1.59445 -4.19766,-3.48906c0.01767,0.00936 0.03787,0.0176 0.06087,0.02417z" data-paper-data="{&quot;noHover&quot;:false,&quot;origItem&quot;:[&quot;Path&quot;,{&quot;applyMatrix&quot;:true,&quot;segments&quot;:[[[672.06468,67.28555],[0.03535,0.01872],[-1.26135,3.78922]],[[680.45147,74.23303],[-2.95291,0.54593],[0.81503,-0.49921]],[[684.22056,69.60899],[-1.14795,1.28002],[0.3922,-0.43732]],[[685.23247,69.13249],[-0.10049,-0.01165],[1.69288,0.19626]],[[690.62047,73.31005],[-1.72084,-0.67894],[4.09297,1.57688]],[[701.5044,67.27177],[-0.1516,4.47641],[1.27939,-1.5476]],[[704.96986,68.09918],[-1.13657,-1.02301],[2.86943,2.58273]],[[714.6323,72.26229],[-4.09155,0.65431],[1.23602,-0.63033]],[[715.96607,70.18377],[-0.12722,0.74187],[0.24547,-1.4314]],[[717.34405,65.78288],[-1.56041,1.40572],[0.89811,-0.80908]],[[719.29848,66.11373],[-0.42894,-1.09175],[0.28736,0.7314]],[[720.43302,68.02723],[-0.36657,-0.6786],[1.58923,3.7496]],[[731.54019,75.16825],[-4.34961,1.46109],[4.97402,-3.01098]],[[731.23859,62.19758],[2.78341,3.70617],[-3.61808,-4.51596]],[[717.375,52.89529],[4.98292,2.45251],[-5.41801,-1.56977]],[[699.20979,52.69853],[5.61733,0],[-6.34666,0.00318]],[[680.89765,56.5452],[5.74905,-2.58042],[-2.79681,2.33745]],[[672.80451,66.9903],[0.9999,-3.53582],[0,0]],[[672.18639,67.3337],[0.48076,0.13736],[-0.04601,-0.01315]]],&quot;closed&quot;:true}]}" fill="#914a22" stroke="none" stroke-width="0.5" stroke-linecap="butt"/><path d="M250.33259,208.13353c0,0 -0.56219,-1.96808 -0.69141,-3.51416c-0.10902,-1.30448 0.12708,-3.39335 0.12708,-3.39335c0,0 0.00478,-1.24293 0.39542,-2.37766c0.59031,-1.71474 1.70074,-3.66377 2.14261,-4.52296c0.57804,-1.12399 2.47649,-2.58197 2.47649,-2.58197c0,0 2.09673,-1.49557 2.77325,-1.48304c0.86411,0.016 2.15737,0.55761 3.09637,0.97929c0.60424,0.27135 0.80572,0.79305 0.80572,0.79305c0,0 0.37739,0.10076 0.46848,0.62298c0.0983,0.56352 0.21257,1.26846 0.26282,1.76383c0.06664,0.65686 -0.46879,2.67595 -0.46879,2.67595c0,0 -0.63803,1.49258 -1.28096,2.2978c-0.64925,0.81314 -2.37815,4.25431 -2.37815,4.25431l0.19018,3.8359c0,0 -1.24714,0.28782 -2.11436,0.56707c-0.80349,0.25872 -1.22139,0.51009 -1.46778,0.51835c-0.35133,0.01178 -1.98314,-0.53305 -3.03679,-0.65202c-0.92045,-0.10392 -1.30019,0.21664 -1.30019,0.21664z" fill="#ffde2e" stroke="#d29c0f" stroke-width="0.5" stroke-linecap="round"/><path d="M256.03089,197.73141c0.14027,0.20694 -0.06667,0.34721 -0.06667,0.34721l-0.13858,0.09393c-1.38009,0.93531 -1.79581,2.71977 -2.31477,4.27863c0,0 -0.07906,0.23717 -0.31623,0.15811c-0.23717,-0.07906 -0.15812,-0.31623 -0.15812,-0.31623c0.55592,-1.66557 1.02771,-3.5305 2.50858,-4.5344l0.13858,-0.09394c0,0 0.20694,-0.14026 0.34721,0.06668z" fill="#d4a30f" stroke="none" stroke-width="0.5" stroke-linecap="butt"/><path d="M257.42523,198.53745c0.22361,0.11181 0.11181,0.33541 0.11181,0.33541l-0.16392,0.32433c-0.85188,1.04636 -0.96081,2.20112 -1.48007,3.41272c0,0 -0.09848,0.22978 -0.32826,0.13131c-0.22978,-0.09848 -0.13131,-0.32827 -0.13131,-0.32827c0.5274,-1.23062 0.63767,-2.4253 1.52023,-3.48797l0.13611,-0.27573c0,0 0.1118,-0.22361 0.33541,-0.11181z" fill="#d4a30f" stroke="none" stroke-width="0.5" stroke-linecap="butt"/><path d="M254.66643,208.36242c1.52426,-0.49488 2.48199,-1.0129 4.17933,-1.0129c0,0 0.25,0 0.25,0.25c0,0.25 -0.25,0.25 -0.25,0.25c-1.48645,0 -2.36563,0.39643 -3.61239,0.844c0.15193,0.07837 0.27776,0.15083 0.37065,0.21276c0.07277,0.07219 0.14553,0.14438 0.2183,0.21657l0.07322,0.27679c0,0 0,0.25 -0.25,0.25c-0.23406,0 -0.24899,-0.21914 -0.24993,-0.24708c-0.03619,-0.03654 -0.07239,-0.07307 -0.10858,-0.1096c-0.55367,-0.36911 -5.26961,-2.202 -5.09186,-0.29334c0,0 0,0.25 -0.25,0.25c-0.25,0 -0.25,-0.25 -0.25,-0.25c0.10172,-2.11517 3.20819,-1.3217 4.94383,-0.5831z" fill="#511f00" stroke="none" stroke-width="0.5" stroke-linecap="butt"/><path d="M239.5354,245.73974c-1.1687,-0.43513 -10.02938,-4.15691 -10.02938,-4.15691c0,0 -2.59092,-2.03669 -3.54698,-3.02664c-0.75265,-0.77931 -1.72652,-2.43381 -1.72652,-2.43381c0,0 -0.09077,-2.81416 0.13395,-3.31424c0.28703,-0.63875 1.1458,-1.73413 1.79429,-2.30281c0.4173,-0.36594 0.91545,-0.35418 0.91545,-0.35418c0,0 0.20343,-0.24987 0.66704,-0.15571c0.50028,0.1016 1.12336,0.23517 1.55168,0.35142c0.39241,0.1065 8.9628,5.30186 9.60749,5.51974c0.11511,0.0389 0.11292,-0.08253 0.05425,0.29655c-0.01038,0.0671 -0.06317,0.42426 -0.07824,0.51311c-0.02169,0.12796 -0.02386,0.21467 -0.05447,0.38572c-0.00444,0.02484 -0.05263,0.51267 -0.02407,0.95623c0.01592,0.24725 0.05933,0.96375 0.27871,1.50702c0.26989,0.66834 0.71368,1.14637 0.57749,1.03915c-0.02387,-0.01879 -0.55399,0.36445 -0.81153,0.61224c-0.36007,0.34643 -0.45287,0.81914 -0.61908,1.24309c-0.22669,0.57821 -0.2094,0.7186 -0.07112,1.44004c0.17386,0.52415 0.29662,0.8412 0.61395,1.18606c0.39967,0.43434 0.91856,0.75033 0.76709,0.69393z" fill="#ffde2e" stroke="#d29c0f" stroke-width="0.5" stroke-linecap="round"/><path d="M232.80668,237.87652c-0.06723,0.24079 -0.30802,0.17356 -0.30802,0.17356l-0.40314,-0.11335c-1.96119,-0.8988 -3.73019,-2.61013 -4.70373,-4.51608c0,0 -0.1118,-0.2236 0.11181,-0.33541c0.22361,-0.1118 0.33541,0.1118 0.33541,0.1118c0.87162,1.79192 2.60851,3.43788 4.42835,4.27014l0.36577,0.10132c0,0 0.24079,0.06723 0.17356,0.30802z" fill="#d4a30f" stroke="none" stroke-width="0.5" stroke-linecap="butt"/><path d="M233.19267,236.48585c-0.17678,0.17677 -0.35356,0 -0.35356,0l-0.26087,-0.2681c-1.13603,-0.4285 -1.89024,-1.43298 -2.73942,-2.28216c0,0 -0.17678,-0.17677 0,-0.35355c0.17678,-0.17677 0.35355,0 0.35355,0c0.84484,0.84484 1.55647,1.75806 2.66111,2.21829l0.33919,0.33197c0,0 0.17678,0.17677 0,0.35355z" fill="#d4a30f" stroke="none" stroke-width="0.5" stroke-linecap="butt"/><path d="M239.90514,241.17816l-0.32524,-0.2668c-0.5284,0.17019 -0.66683,0.6213 -0.90787,1.23472c-0.79696,1.54374 -0.08267,2.56887 1.27584,3.52902c0,0 -0.04548,0.20542 -0.1583,0.36366c-0.11282,0.15823 -0.27106,0.04541 -0.27106,0.04541c-1.48495,-1.06698 -2.23877,-2.66037 -1.34857,-4.37647c0.25097,-0.63866 0.62721,-1.00734 1.1577,-1.22502c-0.06956,-0.08172 -0.13355,-0.16795 -0.18966,-0.25882c-0.84737,-1.3977 -0.67733,-3.34884 -0.21544,-4.85453c0,0 0.057,-0.18579 0.24279,-0.1288c0.18579,0.057 0.25176,0.2182 0.25176,0.2182c-0.42757,1.39379 -0.61583,3.24176 0.17592,4.53854c0.0718,0.12022 0.16161,0.20583 0.26122,0.30531c0.11157,-0.02816 0.10566,-0.00296 0.22836,-0.02352l0.15683,-0.02627c0,0 0.19166,-0.03211 0.22378,0.15956c0.01274,0.07602 -0.25775,0.25536 -0.34954,0.39723c-0.06786,0.1049 0.0543,0.17252 -0.01884,0.24998c-0.07736,0.08191 -0.18967,0.11861 -0.18967,0.11861z" fill="#dab67c" stroke="none" stroke-width="0.5" stroke-linecap="butt"/><path d="M271.34922,246.44675c0,-0.07467 -0.07581,-0.14553 -0.08194,-0.20819c-0.01441,-0.14714 0.03292,-0.24909 0.03292,-0.24909l0.24264,-0.05463c0.79901,0.02068 1.48268,-0.21308 1.81751,-0.88275c0.77533,-1.03379 0.50618,-3.02412 -0.44659,-3.96269c-0.57144,-0.56292 -2.39503,-1.20667 -1.69316,-1.96451c1.67775,-0.83353 2.51512,-3.1647 0.46051,-4.62114c0,0 -1.70803,-1.78155 -1.56937,-1.98958c0.13867,-0.20802 1.94196,1.64498 1.94196,1.64498c2.29864,1.59271 1.72679,4.28972 -0.29138,5.34731c0.41099,0.19338 1.41444,0.80141 1.7669,1.15795c1.09032,1.10295 1.24609,3.42626 0.32788,4.65055c-0.42033,0.84065 -1.13504,1.3645 -2.09998,1.38179h-0.15791c0,0 -0.25,0 -0.25,-0.25z" fill="#dab67c" stroke="none" stroke-width="0.5" stroke-linecap="butt"/><g stroke-width="0.5"><path d="M261.80317,188.82366c0,1.69342 -1.60812,3.06621 -3.59184,3.06621c-1.98372,0 -3.59184,-1.37279 -3.59184,-3.06621c0,-0.94894 0.29749,-2.2419 1.09055,-2.70885c0.62219,-0.36634 1.69835,-0.21903 2.57045,-0.21903c0.59247,0 2.1197,-0.2542 2.61232,-0.08059c1.15679,0.40768 0.91036,1.82082 0.91036,3.00848z" fill="#f02f30" stroke="#860000" stroke-linecap="butt"/><path d="M257.41216,187.32016c0,0 0.02859,-1.15922 -0.03587,-1.23957c-0.0906,-0.11292 -0.40643,-1.32538 -0.75016,-1.60827c-0.27139,-0.22335 -0.568,-0.50809 -0.83376,-0.42214c-0.55304,0.17885 -1.0136,-0.05214 -1.0136,-0.05214c0,0 -0.54292,-1.11804 -0.46545,-1.45371c0.08405,-0.36422 0.78956,-0.81506 0.78956,-0.81506c0,0 1.0684,0.34221 1.43422,0.82853c0.63063,0.83837 2.00944,3.74952 2.00944,3.74952" fill="#f02f30" stroke="#860000" stroke-linecap="round"/><path d="M257.27271,187.21397c0.0811,-0.06629 0.14886,-0.04308 0.19289,-0.00967c0.46101,-0.05985 0.95255,-0.17368 1.0353,-0.75153c0,0 0.03024,-0.20286 0.20537,-0.16784c0.17514,0.03502 0.1449,0.23787 0.1449,0.23787c-0.12849,0.83523 -0.77974,1.01726 -1.43408,1.1016l-0.18714,-0.12356c0,0 -0.10246,-0.16821 0.04275,-0.28689z" fill="#860000" stroke="none" stroke-linecap="butt"/><path d="M255.96541,187.52777c0.12399,-0.02747 0.2704,-0.02212 0.43928,0.02902c0.59861,0.18126 0.57847,0.56336 0.27837,0.86028c-0.00628,0.01426 -0.01285,0.02874 -0.01972,0.04346c-0.06574,0.05342 -0.39709,0.32086 -0.71669,0.39269c-0.29138,0.06549 -0.57301,-0.06099 -0.63475,-0.07812c-0.29654,-0.50319 -0.06749,-1.11387 0.63378,-1.24973z" fill="#ffffff" stroke="none" stroke-linecap="butt"/></g><g data-paper-data="{&quot;index&quot;:null}" stroke-width="0.5"><path d="M222.65777,234.49392c-0.86344,-0.52012 -1.42021,-0.46927 -1.41748,-1.22796c0.00049,-0.13523 -0.15171,-0.22258 -0.11424,-0.4043c-0.22679,-0.25693 -0.03909,-0.84288 0.02724,-1.32133c0.08594,-0.6199 0.6416,-1.28825 0.81414,-1.57468c0.45,-0.74703 0.87911,-1.74488 1.51396,-2.08881c0.8092,-0.43838 2.07024,-0.02605 2.88309,0.46359c1.45057,0.87379 1.79672,2.95964 0.77313,4.65888c-1.02359,1.69924 -3.02928,2.36839 -4.47985,1.4946z" fill="#f02f30" stroke="#860000" stroke-linecap="butt"/><path d="M222.18268,230.4059c0,0 -1.78222,-2.68321 -2.17496,-3.65599c-0.22782,-0.56429 0.03033,-1.65606 0.03033,-1.65606c0,0 0.75022,-0.37171 1.10558,-0.25577c0.3275,0.10685 1.00507,1.14881 1.00507,1.14881c0,0 -0.03977,0.51371 -0.47834,0.89514c-0.21076,0.18331 -0.1199,0.5843 -0.06861,0.93202c0.06496,0.4404 0.94058,1.33655 0.99056,1.47243c0.03557,0.09668 1.0433,0.67033 1.0433,0.67033" fill="#f02f30" stroke="#860000" stroke-linecap="round"/><path d="M223.6166,229.78257c0.1766,-0.06315 0.26781,0.11141 0.26781,0.11141l0.00928,0.22406c-0.40987,0.51699 -0.90184,0.98091 -1.68359,0.66001c0,0 -0.18937,-0.07877 -0.129,-0.24686c0.06037,-0.16809 0.24974,-0.08931 0.24974,-0.08931c0.53767,0.22728 0.88882,-0.13504 1.17796,-0.49905c-0.0059,-0.05496 0.00919,-0.12497 0.10782,-0.16024z" fill="#860000" stroke="none" stroke-linecap="butt"/><path d="M224.56808,228.80651c0.47823,-0.5306 1.11952,-0.4117 1.39754,0.10196c-0.01718,0.06173 -0.05417,0.36823 -0.26061,0.58404c-0.22645,0.23671 -0.62649,0.38254 -0.70618,0.41129c-0.01616,-0.00171 -0.03195,-0.00355 -0.0474,-0.00553c-0.40919,0.10386 -0.74689,-0.07605 -0.59328,-0.68234c0.04334,-0.17105 0.11429,-0.29922 0.2018,-0.39126z" fill="#ffffff" stroke="none" stroke-linecap="butt"/></g><g data-paper-data="{&quot;index&quot;:null}" stroke-width="0.5"><path d="M275.71078,224.50164c0,-1.18766 -0.24643,-2.6008 0.91036,-3.00848c0.49262,-0.17361 2.01985,0.08059 2.61232,0.08059c0.8721,0 1.94826,-0.14731 2.57045,0.21903c0.79306,0.46695 1.09055,1.75991 1.09055,2.70885c0,1.69342 -1.60812,3.06621 -3.59184,3.06621c-1.98372,0 -3.59184,-1.37279 -3.59184,-3.06621z" fill="#f02f30" stroke="#860000" stroke-linecap="butt"/><path d="M278.9674,221.9853c0,0 1.3788,-2.91115 2.00943,-3.74952c0.36581,-0.48632 1.43422,-0.82854 1.43422,-0.82854c0,0 0.70551,0.45083 0.78956,0.81506c0.07747,0.33567 -0.46546,1.45371 -0.46546,1.45371c0,0 -0.46055,0.23099 -1.01359,0.05214c-0.26576,-0.08594 -0.56238,0.19879 -0.83376,0.42214c-0.34373,0.28289 -0.65956,1.49535 -0.75016,1.60827c-0.06446,0.08035 -0.03587,1.23957 -0.03587,1.23957" fill="#f02f30" stroke="#860000" stroke-linecap="round"/><path d="M280.24125,222.89195c0.14522,0.11868 0.04275,0.28689 0.04275,0.28689l-0.18714,0.12355c-0.65434,-0.08433 -1.30559,-0.26637 -1.43408,-1.1016c0,0 -0.03024,-0.20285 0.1449,-0.23788c0.17514,-0.03502 0.20537,0.16784 0.20537,0.16784c0.08275,0.57784 0.5743,0.69167 1.0353,0.75152c0.04404,-0.03342 0.11179,-0.05661 0.19289,0.00967z" fill="#860000" stroke="none" stroke-linecap="butt"/><path d="M281.56828,223.20333c0.70128,0.13586 0.93033,0.74653 0.63378,1.24973c-0.06174,0.01713 -0.34338,0.14361 -0.63475,0.07812c-0.31961,-0.07183 -0.65095,-0.33926 -0.71669,-0.39269c-0.00687,-0.01472 -0.01344,-0.0292 -0.01972,-0.04346c-0.3001,-0.29692 -0.32024,-0.67902 0.27837,-0.86028c0.16888,-0.05114 0.31529,-0.05649 0.43928,-0.02902z" fill="#ffffff" stroke="none" stroke-linecap="butt"/></g><path d="M258.4584,265.50661l0.01253,-0.1486c0.63596,-2.22088 1.5359,-6.26944 3.99751,-7.14335c0,0 0.30877,-0.10292 0.4117,0.20585c0.10293,0.30877 -0.20585,0.4117 -0.20585,0.4117c-2.16362,0.65199 -3.0444,4.83446 -3.57745,6.70463l0.01252,-0.03024c0,0 0,0.32548 -0.32548,0.32548c-0.32547,0 -0.32548,-0.32548 -0.32548,-0.32548z" data-paper-data="{&quot;index&quot;:null}" fill="#f5f5f5" stroke="none" stroke-width="0.5" stroke-linecap="butt"/></g><path d="M251.20387,274.15153c-0.16143,0.12081 0.11232,0.15543 0.22708,0.27751c0.01932,0.02056 -1.13003,-0.86037 -0.73415,-1.50736c0.14585,-0.23837 0.47572,-0.40762 0.83856,-0.59116c0.77377,-0.3914 1.78064,-0.68149 2.05722,-0.67618c0.79669,0.0153 2.13425,-0.11357 3.05739,0.32746c1.12921,0.53948 2.04601,1.4221 2.57102,1.99345c0.29573,0.32183 0.46715,0.54488 0.48219,0.55223c0.22778,0.11113 0.85618,1.75057 -0.48783,2.52271c-0.16571,0.0952 -1.97715,-0.09976 -2.15125,-0.02581c-0.25986,0.11038 -4.20587,-0.75089 -4.19965,-0.61323c-0.00762,-0.00291 -0.5777,0.25734 -1.5365,0.54245c-0.87928,0.26147 -2.415,0.45272 -2.415,0.45272c-0.73505,-0.18313 -1.09865,-0.14296 -1.32903,-0.19186c-0.37952,-0.08056 -0.98278,-0.32706 -1.32831,-0.89352c-0.35269,-0.5782 -0.20732,-1.55774 -0.20732,-2.92041c-0.00228,-1.6496 1.04325,-3.02233 2.2292,-3.3037c0.50644,-0.12015 1.1779,-0.27169 1.68223,-0.01711c0.45413,0.22924 0.31176,0.4347 0.65715,0.96407c0.27848,0.70561 0.39481,2.37581 0.58702,3.10773z" data-paper-data="{&quot;noHover&quot;:false,&quot;origItem&quot;:[&quot;Path&quot;,{&quot;applyMatrix&quot;:true,&quot;segments&quot;:[[[526.60376,259.96836],[0.55697,1.41123],[-3.25434,-4.9878]],[[516.7657,262.90159],[-0.00827,-5.97668],[0,7.01615]],[[524.80243,271.62231],[-6.36381,-1.5855],[0,0]],[[524.85033,271.63814],[-0.02921,-0.01115],[-0.13054,-2.88694]],[[528.01359,264.18165],[-2.47482,1.85209],[-0.38441,-1.46383]]],&quot;closed&quot;:true}]}" fill="#fffd4d" stroke="none" stroke-width="0.5" stroke-linecap="butt"/><path d="M247.22368,270.3724c-1.23741,0.92605 -1.68081,2.33389 -1.61554,3.77737c-0.01461,-0.00557 -0.0242,-0.00782 -0.0242,-0.00782c-3.1819,-0.79275 -4.08252,-0.91244 -4.08252,-4.42052c-0.00223,-1.61204 0.65187,-2.83171 1.81252,-3.04902c0.50054,-0.09372 1.58675,-0.08179 2.17188,0.19379c0.57322,0.26998 0.64667,0.79678 1.01752,1.36517c0.27848,0.70561 0.52815,1.40912 0.72035,2.14104z" data-paper-data="{&quot;noHover&quot;:false,&quot;origItem&quot;:[&quot;Path&quot;,{&quot;applyMatrix&quot;:true,&quot;segments&quot;:[[[526.60376,259.96836],[0.55697,1.41123],[-3.25434,-4.9878]],[[516.7657,262.90159],[-0.00827,-5.97668],[0,7.01615]],[[524.80243,271.62231],[-6.36381,-1.5855],[0,0]],[[524.85033,271.63814],[-0.02921,-0.01115],[-0.13054,-2.88694]],[[528.01359,264.18165],[-2.47482,1.85209],[-0.38441,-1.46383]]],&quot;closed&quot;:true}]}" fill="#fffd4d" stroke="none" stroke-width="0.5" stroke-linecap="butt"/><path d="M253.44346,276.40578c0,0.25 -1.95123,0.79548 -2.70832,0.94384c-1.73872,0.34073 -3.98124,0.32827 -4.57394,-0.89908c0,0 -0.10154,-0.22845 0.12692,-0.32999c0.22845,-0.10153 0.32999,0.12692 0.32999,0.12692c0.21008,0.54741 0.88999,0.80037 1.7471,0.84424c0.5056,0.02588 1.07286,-0.02102 1.6417,-0.12315c0.91668,-0.16458 1.99437,-0.62953 2.38892,-0.72875c0.18529,-0.04601 0.23401,-0.15132 0.42343,-0.17531c0,0 0.6242,0.09128 0.6242,0.34128z" fill="#000000" stroke="none" stroke-width="0.5" stroke-linecap="butt"/><path d="M261.51711,276.41836c-0.23533,0.10085 -1.80331,-1.72995 -1.80331,-1.72995l-0.55707,-0.67464c-0.48032,-0.72135 -1.25808,-1.19717 -2.02031,-1.57787c-1.85825,-0.93265 -3.97349,-0.80905 -5.80436,0.24107c0,0 -0.00739,0.00422 -0.02024,0.00978c0.06026,0.41711 0.11819,0.85468 0.19253,1.29742c0.2128,0.75085 0.36217,1.41147 1.08783,1.70173l0.39437,0.3651c0,0 0.56477,0.18104 0.38373,0.36208c-0.18104,0.18105 -0.71093,-0.20931 -0.71093,-0.20931l-0.01316,-0.04243c-0.89234,-0.35694 -1.37903,-1.15233 -1.64137,-2.06456c-0.39982,-2.41782 -0.01021,-4.71318 -3.11609,-3.68735c-0.05468,0.03016 -0.59377,0.50087 -0.62651,0.43243c-1.50653,1.29747 -1.34735,3.47893 -0.72039,5.34768c0,0 0.08096,0.24289 -0.16193,0.32386c-0.24289,0.08097 -0.32386,-0.16193 -0.32386,-0.16193c-0.20444,-0.61781 -0.35607,-1.2547 -0.42663,-1.88283c-0.08807,0.0428 -0.18548,0.01844 -0.18548,0.01844c-3.3808,-0.84829 -4.40623,-1.12228 -4.40623,-4.85714c0.00448,-3.56717 3.9519,-4.56283 5.88428,-1.705c0.27819,0.68734 0.50884,1.34412 0.70107,2.04955c0.01966,-0.01135 0.03949,-0.02261 0.05948,-0.03378c2.69694,-0.90547 3.23786,0.35318 3.54665,2.20782c1.9436,-1.04881 4.17359,-1.14856 6.13623,-0.17065c0.86678,0.43385 1.69647,0.97511 2.24155,1.79197l0.15887,0.36799c0,0 1.98658,2.17965 1.75126,2.2805zM246.4688,268.16335c-1.62717,-2.4939 -4.92316,-1.52172 -4.91903,1.46662c0,3.50808 0.83646,3.56761 4.01836,4.36036c0,0 0.00934,0.00234 0.02395,0.00791c-0.06527,-1.44347 0.34422,-2.8022 1.58163,-3.72825c-0.19221,-0.73192 -0.42643,-1.40103 -0.70492,-2.10665z" fill="#000000" stroke="none" stroke-width="0.5" stroke-linecap="butt"/></g></g></g></svg>