<svg version="1.1" xmlns="http://www.w3.org/2000/svg" xmlns:xlink="http://www.w3.org/1999/xlink" width="112.24806" height="48.88357" viewBox="0,0,112.24806,48.88357"><g transform="translate(-272.11984,-251.3792)"><g data-paper-data="{&quot;isPaintingLayer&quot;:true}" fill-rule="nonzero" stroke-linejoin="miter" stroke-miterlimit="10" stroke-dasharray="" stroke-dashoffset="0" style="mix-blend-mode: normal"><path d="M384.3679,290.51909c0,5.38128 -25.12757,9.74368 -56.12403,9.74368c-30.99645,0 -56.12403,-4.36239 -56.12403,-9.74368c0,-5.38128 25.12758,-9.74368 56.12403,-9.74368c30.99645,0 56.12403,4.36239 56.12403,9.74368z" fill-opacity="0.59608" fill="#000000" stroke="none" stroke-width="0" stroke-linecap="butt"/><path d="M305.1654,280.39039l-8.33835,-1.69073l0.1489,-5.22588l0.52114,-7.91569l7.07271,0.07685l0.07445,6.99347z" fill="#2890ea" stroke="#000000" stroke-width="0.5" stroke-linecap="round"/><path d="M303.87683,277.25462l-1.23234,1.30483l-1.5223,0.36245l-2.10224,-0.79739l-1.44982,-1.52232" fill="none" stroke="#000000" stroke-width="0.5" stroke-linecap="round"/><path d="M292.17362,288.9964c-3.38622,0.99107 -6.29974,2.38925 -9.9763,2.08718c-1.34511,-0.11051 -2.39279,-0.92238 -3.64736,-1.2679c-3.29446,-3.01762 -3.03569,-6.63988 -2.90444,-10.72513c0,0 0.01003,-0.31203 0.2525,-0.45304c0.97512,-5.52499 6.38223,-4.67616 10.75828,-3.44226c0.87628,0.25005 4.60258,2.71237 5.24815,2.27962c1.14587,-0.7681 4.32661,-6.49818 5.56854,-2.17382c1.18624,1.65396 4.03806,2.48972 5.50154,0.55223c0.54027,-0.71525 0.5326,-2.38103 1.17073,-2.91041c0.96569,-0.8011 2.63613,0.28804 3.58601,0.64111c2.27523,1.24008 3.05351,5.62255 2.30394,8.09583c-0.41496,1.3692 -1.47686,2.01097 -0.2845,3.32377c1.2573,5.91878 -5.8988,6.51933 -9.9943,6.38775c-3.06179,-0.09837 -4.52705,-0.76623 -4.45617,-4.03482c-1.04033,0.55107 -1.95778,1.24353 -3.12663,1.63986z" fill="#2890ea" stroke="#000000" stroke-width="0.5" stroke-linecap="butt"/><path d="M310.69857,266.66431l-18.69474,0.26899l5.31864,-14.39091c0,0 0.54496,7.25819 3.70454,7.52149c3.24232,0.27019 3.48481,-7.52149 3.48481,-7.52149z" fill="#2890ea" stroke="#000000" stroke-width="0.5" stroke-linecap="round"/><path d="M304.11186,272.06861l-0.09492,5.3162l-6.74018,-0.5696l0.28479,-4.31942z" fill="#2890ea" stroke="#2890ea" stroke-width="0.5" stroke-linecap="round"/><path d="M301.9564,273.44842c0.04418,0.26532 -0.22114,0.30948 -0.22114,0.30948l-0.09519,0.01585c-0.84022,0.13987 -1.70239,0.32603 -2.56692,0.48304l0.09236,0.02488c0,0 0.25516,0.08505 0.17012,0.34022c-0.08506,0.25516 -0.34022,0.17012 -0.34022,0.17012l-0.05734,-0.03366c-0.7794,0 -1.56869,-0.04107 -2.3436,0.04582c0,0 -0.26612,0.02956 -0.29682,-0.23581c-0.0059,0.00005 -0.01179,0.00009 -0.01769,0.00013c0,0 -0.26897,0 -0.26897,-0.26897c0,-0.26897 0.26897,-0.26897 0.26897,-0.26897c1.72349,0.01308 3.56153,-0.50271 5.27177,-0.78743l0.09519,-0.01585c0,0 0.26531,-0.04416 0.30948,0.22116z" fill="#2890ea" stroke="none" stroke-width="0.5" stroke-linecap="butt"/><path d="M305.44071,273.7956c-0.0297,0.26732 -0.29703,0.23762 -0.29703,0.23762l-0.33696,-0.04165c-0.14381,-0.07035 -0.28762,-0.14069 -0.43142,-0.21104c0,0 -0.24057,-0.12028 -0.12029,-0.36086c0.0277,-0.0554 0.06178,-0.09166 0.09782,-0.11467c-0.52845,-0.04019 -1.09874,0.01977 -1.55714,0.01977h-0.13987c0,0 -0.26897,0 -0.26897,-0.26897c0,-0.26897 0.26897,-0.26897 0.26897,-0.26897h0.13987c0.91519,0 1.9949,-0.14258 2.80658,0.32882c0,0 0.23064,0.13838 0.09226,0.36902c-0.0896,0.14934 -0.2179,0.14395 -0.2972,0.12161c0.03234,0.04362 0.0528,0.10451 0.04338,0.18931zM304.95908,273.47566l0.21779,0.02045c-0.14067,-0.06608 -0.29489,-0.11209 -0.45738,-0.14351c0.07986,0.04102 0.15973,0.08203 0.2396,0.12306z" fill="#2890ea" stroke="none" stroke-width="0.5" stroke-linecap="butt"/><path d="M347.3075,272.67544l0.07445,-6.99347l7.07271,-0.07684l0.52114,7.91568l0.1489,5.22588l-8.33835,1.69073z" fill="#2890ea" stroke="#000000" stroke-width="0.5" stroke-linecap="round"/><path d="M354.38161,276.64924l-1.44982,1.52232l-2.10224,0.79739l-1.5223,-0.36245l-1.23235,-1.30483" fill="none" stroke="#000000" stroke-width="0.5" stroke-linecap="round"/><path d="M359.77816,289.04343c-1.16886,-0.39633 -2.0863,-1.08879 -3.12663,-1.63986c0.07088,3.26859 -1.39439,3.93646 -4.45617,4.03482c-4.0955,0.13158 -11.2516,-0.46897 -9.9943,-6.38775c1.19236,-1.31281 0.13046,-1.95457 -0.2845,-3.32377c-0.74958,-2.47327 0.0287,-6.85575 2.30393,-8.09583c0.94988,-0.35307 2.62033,-1.44221 3.58602,-0.64111c0.63813,0.52938 0.63045,2.19517 1.17072,2.91041c1.46348,1.93748 4.3153,1.10173 5.50154,-0.55223c1.24194,-4.32436 4.42267,1.40571 5.56854,2.17382c0.64558,0.43274 4.37187,-2.02957 5.24815,-2.27962c4.37604,-1.2339 9.78316,-2.08274 10.75828,3.44226c0.24247,0.141 0.2525,0.45303 0.2525,0.45303c0.13124,4.08525 0.39002,7.70751 -2.90444,10.72513c-1.25457,0.34551 -2.30224,1.15739 -3.64736,1.2679c-3.67657,0.30207 -6.59008,-1.09612 -9.97631,-2.08718z" fill="#2890ea" stroke="#000000" stroke-width="0.5" stroke-linecap="butt"/><path d="M347.43993,252.58944c0,0 0.24249,7.79168 3.4848,7.52149c3.15958,-0.26329 3.70454,-7.52149 3.70454,-7.52149l5.31864,14.39091l-18.69474,-0.26899z" fill="#2890ea" stroke="#000000" stroke-width="0.5" stroke-linecap="round"/><path d="M354.39021,272.54284l0.28479,4.31942l-6.74018,0.5696l-0.09492,-5.3162z" fill="#2890ea" stroke="#2890ea" stroke-width="0.5" stroke-linecap="round"/><path d="M349.99536,273.49549c0.04417,-0.26532 0.30948,-0.22116 0.30948,-0.22116l0.09519,0.01585c1.71024,0.28472 3.54827,0.80052 5.27177,0.78743c0,0 0.26896,0 0.26896,0.26896c0,0.26896 -0.26896,0.26896 -0.26896,0.26896c-0.0059,-0.00005 -0.0118,-0.00008 -0.01769,-0.00013c-0.03071,0.26537 -0.29682,0.23581 -0.29682,0.23581c-0.77492,-0.08689 -1.5642,-0.04582 -2.3436,-0.04582l-0.05734,0.03367c0,0 -0.25516,0.08504 -0.34022,-0.17012c-0.08504,-0.25518 0.17012,-0.34022 0.17012,-0.34022l0.09236,-0.02488c-0.86453,-0.15701 -1.7267,-0.34316 -2.56692,-0.48304l-0.09519,-0.01585c0,0 -0.26532,-0.04416 -0.22114,-0.30948z" fill="#2890ea" stroke="none" stroke-width="0.5" stroke-linecap="butt"/><path d="M346.51105,273.84265c-0.00943,-0.0848 0.01103,-0.1457 0.04337,-0.18931c-0.0793,0.02234 -0.20759,0.02774 -0.29719,-0.1216c-0.13839,-0.23064 0.09226,-0.36902 0.09226,-0.36902c0.81167,-0.4714 1.89139,-0.32882 2.80658,-0.32882h0.13988c0,0 0.26896,0 0.26896,0.26896c0,0.26896 -0.26896,0.26897 -0.26896,0.26897h-0.13988c-0.45841,0 -1.02869,-0.05997 -1.55714,-0.01978c0.03604,0.023 0.07011,0.05927 0.09782,0.11467c0.12028,0.24057 -0.12029,0.36086 -0.12029,0.36086c-0.1438,0.07035 -0.28761,0.14069 -0.43142,0.21105l-0.33696,0.04164c0,0 -0.26732,0.02971 -0.29703,-0.23761zM347.23226,273.39965c-0.16249,0.03142 -0.31671,0.07743 -0.45738,0.14351l0.21779,-0.02045c0.07986,-0.04102 0.15973,-0.08204 0.23959,-0.12306z" fill="#2890ea" stroke="none" stroke-width="0.5" stroke-linecap="butt"/></g></g></svg>