<svg version="1.1" xmlns="http://www.w3.org/2000/svg" xmlns:xlink="http://www.w3.org/1999/xlink" width="121.76983" height="75.45394" viewBox="0,0,121.76983,75.45394"><defs><linearGradient x1="326.49895" y1="188.91645" x2="357.55725" y2="188.91645" gradientUnits="userSpaceOnUse" id="color-1"><stop offset="0" stop-color="#ffae00"/><stop offset="1" stop-color="#8a5e00"/></linearGradient><linearGradient x1="275.43423" y1="188.16858" x2="306.49253" y2="188.16858" gradientUnits="userSpaceOnUse" id="color-2"><stop offset="0" stop-color="#ffae00"/><stop offset="1" stop-color="#8a5e00"/></linearGradient><linearGradient x1="266.64815" y1="167.32378" x2="364.19312" y2="167.32378" gradientUnits="userSpaceOnUse" id="color-3"><stop offset="0" stop-color="#e69d00"/><stop offset="1" stop-color="#8a5e00"/></linearGradient><linearGradient x1="366.66328" y1="134.59673" x2="377.07597" y2="134.59673" gradientUnits="userSpaceOnUse" id="color-4"><stop offset="0" stop-color="#e69d00"/><stop offset="1" stop-color="#8a5e00"/></linearGradient><linearGradient x1="255.80614" y1="134.36366" x2="267.05232" y2="134.36366" gradientUnits="userSpaceOnUse" id="color-5"><stop offset="0" stop-color="#e69d00"/><stop offset="1" stop-color="#8a5e00"/></linearGradient></defs><g transform="translate(-255.55614,-121.44714)"><g data-paper-data="{&quot;isPaintingLayer&quot;:true}" fill-rule="nonzero" stroke-linejoin="miter" stroke-miterlimit="10" stroke-dasharray="" stroke-dashoffset="0" style="mix-blend-mode: normal"><path d="M327.10089,181.39502c0,-0.29055 0.29055,-0.29055 0.29055,-0.29055h0.49417c1.50437,0 3.00892,0.00677 4.51324,-0.00402c3.93845,-0.21229 7.91135,-0.16071 11.8722,-0.16071c3.7156,0 7.50699,-0.19731 10.9115,1.50736c0.70277,0.27142 2.02928,0.44906 2.43572,1.10129c1.03569,1.66201 0.18826,6.4106 -0.70049,7.95537c-0.74656,1.26426 -0.7982,2.94065 -1.98505,3.98737c-1.73534,1.53045 -4.82432,1.39495 -6.95085,1.39495c-3.69274,0 -7.56112,0.1636 -11.19027,-0.5898c-3.3761,-0.71283 -8.41346,-1.97681 -10.32302,-5.17994c-0.91044,-2.71774 -0.58306,-7.01294 1.08791,-9.43079h-0.16505c0,0 -0.29055,0.00001 -0.29055,-0.29054zM328.17958,181.68564c0.01141,0.11588 -0.06155,0.21315 -0.06155,0.21315c-1.64727,2.15333 -1.9599,6.44408 -1.12153,8.97475c1.81616,3.00538 6.74858,4.18561 9.91514,4.8542c3.57333,0.76906 7.42994,0.57726 11.07022,0.57726c1.92757,0 5.00369,0.19088 6.55647,-1.24062c1.10431,-1.01806 1.17439,-2.62171 1.87673,-3.85208c0.82376,-1.40823 1.57554,-5.81368 0.70889,-7.35841c-0.25101,-0.4474 -1.67233,-0.67958 -2.17655,-0.8754c-3.33392,-1.6647 -7.03848,-1.45766 -10.67637,-1.45766c-3.954,0 -7.92284,-0.06411 -11.85394,0.16042c-1.41242,0.01053 -2.82504,0.00513 -4.23751,0.00438z" fill="#ffcc5f" stroke="none" stroke-width="0.5" stroke-linecap="butt"/><path d="M332.37745,181.6508c3.93111,-0.22454 7.95385,-0.1779 11.90785,-0.1779c3.63788,0 7.37343,-0.18041 10.70735,1.4843c0.50422,0.19582 1.92756,0.43299 2.17857,0.88039c0.86665,1.54472 0.11692,5.97482 -0.70685,7.38305c-0.70234,1.23037 -0.77704,2.84813 -1.88135,3.86619c-1.55278,1.4315 -4.64256,1.25739 -6.57013,1.25739c-3.64028,0 -7.55755,0.19285 -11.13088,-0.57621c-3.16656,-0.66859 -8.11886,-1.88218 -9.93502,-4.88756c-0.83837,-2.53067 -0.52067,-6.85121 1.1266,-9.00454c0,0 0.07327,-0.09788 0.06186,-0.21376c1.41247,0.00074 2.82958,-0.00081 4.24199,-0.01134z" data-paper-data="{&quot;noHover&quot;:false,&quot;origItem&quot;:[&quot;Path&quot;,{&quot;applyMatrix&quot;:true,&quot;segments&quot;:[[[656.35918,362.52085],[2.82495,0.00149],[0.02281,0.23176]],[[656.23609,362.94715],[0,0],[-3.29453,4.30666]],[[653.99302,381.46361],[-1.67674,-5.06134],[3.63232,6.01076]],[[673.82331,391.17201],[-6.33312,-1.33718],[7.14666,1.53812]],[[695.96375,392.32653],[-7.28056,0],[3.85514,0]],[[709.0767,389.84528],[-3.10557,2.86301],[2.20862,-2.03612]],[[712.83015,382.14113],[-1.40468,2.46074],[1.64753,-2.81646]],[[714.24792,366.85736],[1.73331,3.08945],[-0.50202,-0.8948]],[[709.89483,365.10657],[1.00844,0.39164],[-6.66784,-3.32941]],[[688.54209,362.19124],[7.27577,0],[-7.908,0]],[[664.83421,362.51208],[7.86221,-0.44907],[-2.82483,0.02106]]],&quot;closed&quot;:true}]}" fill="url(#color-1)" stroke="none" stroke-width="0.5" stroke-linecap="butt"/><path d="M276.03614,180.50541c0,-0.29055 0.29054,-0.29055 0.29054,-0.29055h0.49417c1.50437,0 3.00892,0.00677 4.51324,-0.00401c3.93845,-0.21229 7.91134,-0.16071 11.87219,-0.16071c3.7156,0 7.50699,-0.19731 10.9115,1.50736c0.70277,0.27142 2.02928,0.44906 2.43572,1.10129c1.03569,1.66201 0.18826,6.4106 -0.70049,7.95537c-0.74656,1.26426 -0.7982,2.94066 -1.98505,3.98738c-1.73534,1.53045 -4.82432,1.67842 -6.95085,1.67842c-3.69274,0 -7.56112,0.1636 -11.19027,-0.58979c-3.3761,-0.71283 -8.41346,-1.97681 -10.32302,-5.17994c-0.91044,-2.71774 -0.58306,-7.29642 1.08791,-9.71427h-0.16506c0,0 -0.29054,0.00001 -0.29054,-0.29054zM277.11485,180.79603c0.01141,0.11588 -0.06155,0.21315 -0.06155,0.21315c-1.64727,2.15333 -1.9599,6.72756 -1.12153,9.25823c1.81616,3.00538 6.74858,4.18561 9.91514,4.8542c3.57333,0.76906 7.42994,0.57726 11.07022,0.57726c1.92757,0 5.00369,-0.0926 6.55648,-1.5241c1.10431,-1.01806 1.17438,-2.6217 1.87672,-3.85207c0.82376,-1.40823 1.57554,-5.81368 0.70889,-7.35841c-0.25101,-0.4474 -1.67233,-0.67957 -2.17654,-0.87539c-3.33392,-1.6647 -7.03849,-1.45767 -10.67637,-1.45767c-3.954,0 -7.92284,-0.06411 -11.85394,0.16042c-1.41242,0.01053 -2.82504,0.00513 -4.23751,0.00438z" fill="#ffcc5f" stroke="none" stroke-width="0.5" stroke-linecap="butt"/><path d="M281.31271,180.7612c3.93111,-0.22454 7.95385,-0.1779 11.90785,-0.1779c3.63788,0 7.37344,-0.18041 10.70736,1.48429c0.50422,0.19582 1.92757,0.43299 2.17858,0.88039c0.86665,1.54472 0.11691,5.97483 -0.70686,7.38306c-0.70234,1.23037 -0.77704,2.84812 -1.88135,3.86618c-1.55278,1.4315 -4.64256,1.54087 -6.57013,1.54087c-3.64028,0 -7.55755,0.19285 -11.13088,-0.57621c-3.16656,-0.66859 -8.11886,-1.88218 -9.93502,-4.88756c-0.83837,-2.53067 -0.52066,-7.13469 1.1266,-9.28802c0,0 0.07328,-0.09788 0.06187,-0.21376c1.41247,0.00074 2.82957,-0.00081 4.24199,-0.01134z" data-paper-data="{&quot;noHover&quot;:false,&quot;origItem&quot;:[&quot;Path&quot;,{&quot;applyMatrix&quot;:true,&quot;segments&quot;:[[[554.22969,361.30859],[2.82495,0.00149],[0.02281,0.23176]],[[554.1066,361.73489],[0,0],[-3.29453,4.30666]],[[551.86353,380.25135],[-1.67674,-5.06134],[3.63232,6.01076]],[[571.69382,389.95975],[-6.33312,-1.33718],[7.14666,1.53812]],[[593.83426,391.11427],[-7.28056,0],[3.85514,0]],[[606.94721,388.63302],[-3.10557,2.86301],[2.20862,-2.03612]],[[610.70066,380.92887],[-1.40468,2.46074],[1.64753,-2.81646]],[[612.11843,365.6451],[1.73331,3.08945],[-0.50202,-0.8948]],[[607.76534,363.89431],[1.00844,0.39164],[-6.66784,-3.32941]],[[586.4126,360.97898],[7.27577,0],[-7.908,0]],[[562.70472,361.29982],[7.86221,-0.44907],[-2.82483,0.02106]]],&quot;closed&quot;:true}]}" fill="url(#color-2)" stroke="none" stroke-width="0.5" stroke-linecap="butt"/><path d="M364.13542,153.96688l0.0577,29.91532l-95.39679,0.71925l-1.60097,0.04229l-0.54721,-34.14869c0,0 2.22269,2.54146 3.06335,2.52855c0.60898,-0.00935 1.24038,0.40209 2.98082,0.33942c0.8403,-0.03026 6.30098,-2.46732 7.36824,-2.51005c0.61518,-0.02463 0.71309,0.86393 1.43256,1.60346c0.51766,0.53209 1.6465,0.98702 2.16359,0.96914c0.50837,-0.01758 1.41095,-0.15343 3.83531,-0.4923c3.59862,-0.50301 7.60594,-2.47294 8.45973,-2.50545c0.64159,-0.02443 4.44341,2.2017 5.10396,2.17793c0.5482,-0.01973 2.90145,1.00991 3.45894,0.98873c1.03437,-0.03929 4.48144,-3.38297 5.53814,-3.42999c0.54987,-0.02447 4.70169,0.40161 5.2544,0.37814c1.00046,-0.04248 5.4498,1.11609 6.44589,1.07545c0.77105,-0.03146 3.78709,-0.96366 4.54723,-0.99637c2.76391,-0.11893 5.55415,1.87339 8.21525,1.8211c3.22495,-0.06337 6.26025,-2.1453 8.82922,-1.96606c1.47551,0.10295 2.39171,1.06995 3.62431,1.05974c1.55538,-0.01287 2.23525,-0.99915 3.30592,-1.38068c0.88407,-0.31504 2.22551,-0.02682 2.86146,-0.12265c1.45027,-0.21853 4.96727,3.00004 6.04436,3.16983c3.06735,0.48355 4.24681,-0.16938 4.24681,-0.16938c0,0 0.2697,-0.06562 0.38018,0.08006c0.1239,0.16337 0.3276,0.85321 0.3276,0.85321z" fill="url(#color-3)" stroke="#ffcc5f" stroke-width="0.5" stroke-linecap="round"/><g stroke="none" stroke-linecap="butt"><g><path d="M281.81237,167.5718c-0.43282,0.6533 -0.97609,1.05541 -1.21342,0.89818c-0.23734,-0.15723 -0.19704,-0.80957 0.23578,-1.46286c0.15389,-0.23225 0.25129,-0.97765 0.41439,-1.13255c0.29564,-0.28082 0.76428,0.12833 0.91723,0.22968c0.12344,0.08178 0.66901,0.15122 0.59537,0.43259c-0.06793,0.25958 -0.74161,0.72149 -0.94933,1.03501z" fill="#35ff07" stroke-width="0"/><path d="M281.34961,168.43395c-0.03803,0.05013 -0.171,0.20424 -0.30911,0.11275c-0.16352,-0.10834 -0.00715,-0.34437 -0.00715,-0.34437l0.08444,-0.10485c0.21758,-0.19457 0.38509,-0.3825 0.56984,-0.62008c0.35663,-0.44978 1.2079,-0.92856 0.85316,-1.11267c-0.12599,-0.0654 -0.8725,-0.60098 -1.22803,-0.44911c-0.16223,0.06931 -0.61945,1.85116 -0.70302,2.09438c0,0 -0.08901,0.25905 -0.29703,0.24048c-0.20801,-0.01857 -0.119,-0.2776 -0.119,-0.2776c0.16537,-0.48134 0.6321,-2.02256 1.09788,-2.3169c0.49577,-0.31331 1.67669,0.34785 1.61136,0.89053c-0.0657,0.54598 -0.62966,0.81045 -0.9248,1.1984c-0.20279,0.25976 -0.39498,0.47487 -0.62852,0.68904z" fill="#209a05" stroke-width="0.5"/></g><path d="M278.36525,168.93054c-0.23949,-0.08334 -0.10703,-0.3722 -0.10703,-0.3722l0.16383,-0.35437c1.91863,-2.8739 -1.47083,-2.56032 -3.24359,-1.72982c-2.74016,1.3409 -5.35526,3.31543 -6.26881,6.71981c-1.3382,3.24857 -0.37074,5.00321 2.2882,3.43059l0.18513,-0.20262c0.10019,-0.11316 0.24827,-0.15127 0.35095,-0.08325c0.06919,0.04585 0.10206,0.1295 0.09616,0.22092l-0.01598,0.29329c0.536,2.37432 1.17998,2.77607 3.597,2.6533c0,0 0.02387,-0.00108 0.05604,0.00531c0.06443,-0.06607 0.16364,-0.12634 0.29046,-0.07638c0.23507,0.09262 0.09497,0.37864 0.09497,0.37864l-0.20113,0.40869c-1.00082,1.46733 0.40025,2.55863 1.60918,2.69048c2.84222,0.56697 6.44667,-4.02766 8.04648,-6.40662c0.95579,-3.09277 -0.12305,-5.25507 -3.13446,-4.24845c0,0 -0.27273,0.09091 -0.29537,-0.19568c-0.0087,-0.11023 0.02627,-0.1915 0.07263,-0.24977c-0.00308,-0.01049 -0.00431,-0.01693 -0.00431,-0.01693c-0.11435,-0.60073 0.05461,-1.29889 -0.07542,-1.83064c-0.33168,-1.35645 -1.16922,-2.14271 -2.97681,-1.25605l0.17653,-0.27618c0,0 -0.24692,0.47319 -0.42487,0.42245c-0.06308,0.06354 -0.15749,0.11801 -0.27974,0.07546zM271.33463,177.0882c-0.60273,0.7091 -2.81045,0.26104 -3.20461,-0.07718c-0.82455,-0.70756 -0.15736,-2.87688 0.27085,-3.90886c0.95971,-3.59327 3.7597,-5.75319 6.66401,-7.17369c2.12957,-0.9444 5.7973,-0.97597 4.0657,2.07788c2.01993,-0.81903 2.93094,0.35796 3.32731,2.0384c0.11083,0.46988 -0.07392,0.99404 0.02484,1.50678c0,0 0.00171,0.00894 0.00294,0.02431c3.22868,-0.88689 4.35417,1.68207 3.29552,5.10758c-1.76615,2.69941 -5.56336,7.36823 -8.70905,6.82606c-1.52457,-0.17773 -3.00511,-1.59484 -1.94199,-3.39613c-2.38822,0.07022 -3.22244,-0.78892 -3.79552,-3.02511z" fill="#ff5b1c" stroke-width="0.5"/><path d="M278.65763,168.80657c0.17793,0.05075 0.4273,-0.42175 0.4273,-0.42175l-0.17723,0.27597c1.80761,-0.88665 2.66764,-0.08637 2.99932,1.27007c0.13002,0.53175 -0.03127,1.24085 0.08309,1.84158c0,0 0.0013,0.00659 0.00437,0.01708c-0.04638,0.05828 -0.08052,0.14124 -0.07182,0.25147c0.02264,0.28659 0.29649,0.19832 0.29649,0.19832c3.01141,-1.00661 4.09196,1.18791 3.13617,4.28067c-1.59984,2.37896 -5.25239,7.01005 -8.09461,6.44308c-1.20892,-0.13186 -2.62296,-1.22483 -1.62214,-2.69216l0.22612,-0.50573c0,0 0.11422,-0.18923 -0.12086,-0.28186c-0.12684,-0.04995 -0.22825,0.0096 -0.29267,0.07569c-0.03217,-0.00638 -0.05649,-0.00548 -0.05649,-0.00548c-2.41702,0.12278 -3.08965,-0.3045 -3.62565,-2.67882l0.01509,-0.29528c0.00588,-0.09142 -0.02773,-0.17699 -0.09694,-0.22281c-0.10266,-0.06803 -0.15702,-0.06538 -0.25721,0.04778l-0.27864,0.23863c-2.65893,1.57263 -3.62955,-0.20664 -2.29135,-3.45521c0.91358,-3.40438 3.56548,-5.42114 6.30564,-6.76203c1.77274,-0.8305 5.18472,-1.14487 3.2661,1.72905l-0.18224,0.45285c0,0 -0.11328,0.19052 0.12621,0.27385c0.12229,0.04255 0.21891,-0.0114 0.28202,-0.07492z" data-paper-data="{&quot;noHover&quot;:false,&quot;origItem&quot;:[&quot;Path&quot;,{&quot;applyMatrix&quot;:true,&quot;segments&quot;:[[[494.8341,541.01525],[0.25034,-0.06399],[-0.49029,0.12533]],[494.24575,540.51395],[[494.12771,539.74381],[0,0],[0.02426,-6.89635]],[[486.82445,540.44119],[2.03396,-3.33583],[-3.08089,5.25136]],[[483.8018,558.53133],[-2.23265,-6.67104],[1.35439,6.87992]],[[491.3903,561.71672],[-2.69035,5.54739],[0,0]],[[491.47498,561.17557],[0,0],[0.04197,-0.29868]],[[491.96709,560.65025],[-0.24578,0],[0.16566,0]],[[492.37058,560.91181],[-0.09098,-0.15859],[0,0]],[[492.66726,561.41739],[0,0],[3.50896,3.35948]],[[501.57648,561.8669],[-3.88601,2.86853],[0,0]],[[501.67555,561.81397],[-0.06059,0.02483],[0.03439,-0.18099]],[[502.07463,561.36673],[-0.26608,0.05668],[0.4932,-0.10506]],[502.65002,561.89201],[[502.76588,562.7937],[0,0],[-0.04771,3.54449]],[[508.40881,565.49625],[-2.15669,1.1132],[5.3537,-2.18966]],[[514.73429,545.96768],[-0.03944,5.72145],[-1.8189,-6.19916]],[[504.8363,542.35438],[3.90067,-4.99419],[0,0]],[[504.12919,542.35438],[0.35355,0.45187],[-0.13597,-0.17378]],[[503.9747,541.85874],[-0.01287,0.14808],[-0.01665,-0.01408]],[[503.94888,541.83529],[0,0],[-0.85242,-0.87342]],[[501.80551,538.8727],[0.80246,0.74137],[-2.04702,-1.89119]],[[495.46831,540.06426],[2.03005,-3.46768],[0,0]],[495.45755,539.41016],[[495.21633,540.58133],[0.35198,-0.11168],[-0.03494,0.17523]]],&quot;closed&quot;:true}]}" fill="#ff9c1b" stroke-width="0.5"/><path d="M278.59625,168.39054c-0.00831,-0.01448 -0.01514,-0.02854 -0.02059,-0.04216c-1.09503,0.29142 1.00454,0.15011 1.80671,0.92515c0.47233,0.45635 0.45957,1.20956 0.43944,1.85021c0.16807,-0.27465 0.42019,-0.55601 0.60555,-0.55987c0.54122,-0.01123 0.63568,1.19747 0.65621,1.18696c1.01421,-0.5202 0.26604,-1.86073 -0.17119,-2.42387c-0.42039,-0.87624 -1.24455,-1.55088 -2.05732,-1.382c-0.04048,0.13285 -0.19258,0.16372 -0.19258,0.16372c-0.11584,0.02351 -0.22332,0.04557 -0.32286,0.06635c-0.08155,0.05775 -0.16205,0.12599 -0.24099,0.20537l-0.1603,0.10241c0,0 -0.21716,0.12493 -0.34208,-0.09224zM279.17355,167.68524c1.16584,-0.70487 2.55268,0.08789 3.16478,1.37785c0.50705,0.64252 1.38981,2.9302 -0.1551,3.17876c-0.45226,0.07275 -0.58271,-1.62092 -0.70508,-1.17951c-0.07391,0.26659 -0.29956,0.48366 -0.53639,0.67421l-0.15456,0.23329v0c-0.07641,0.11534 -0.23188,0.14689 -0.34722,0.07049c-0.06919,-0.04585 -0.10825,-0.12015 -0.11192,-0.19716l-0.016,-0.2741l0.00236,-0.00015l-0.00268,-0.0068c-0.00099,-0.50168 0.1799,-1.49491 -0.25907,-1.91137c-0.43458,-0.41225 -2.54549,-0.18219 -2.52029,-1.13345c0.01357,-0.51225 1.01432,-0.7233 1.64119,-0.8321z" fill="#1f9404" stroke-width="0.5"/><path d="M278.89528,168.45718l0.16276,-0.1061c0.07894,-0.07938 0.16477,-0.15391 0.24633,-0.21164c0.09954,-0.02078 0.21322,-0.04806 0.32907,-0.07156c0,0 0.15826,-0.03462 0.19873,-0.16747c0.81281,-0.16888 1.70945,0.54337 2.12984,1.41958c0.43723,0.56314 1.16262,1.95299 0.14844,2.47317c-0.02053,0.01051 -0.11236,-1.19993 -0.65358,-1.18872c-0.18536,0.00385 -0.46188,0.29454 -0.62995,0.56918c0.02013,-0.64062 0.06617,-1.41143 -0.40616,-1.86778c-0.80217,-0.77504 -2.9839,-0.69035 -1.88884,-0.98178c0.00546,0.01365 0.10014,0.07587 0.10845,0.09035c0.12493,0.21717 0.25493,0.0428 0.25493,0.0428z" data-paper-data="{&quot;noHover&quot;:false,&quot;origItem&quot;:[&quot;Path&quot;,{&quot;applyMatrix&quot;:true,&quot;segments&quot;:[[[494.62319,539.86222],[0.44721,0.22361],[-0.0298,-0.0149]],[[494.54246,539.81474],[0.02411,0.01669],[-1.50064,1.6919]],[[498.56818,539.36246],[-2.18896,-0.40528],[1.28885,0.23863]],[[501.33871,541.95638],[-0.67264,-1.08805],[-0.02312,-0.6422]],[[501.72907,540.35743],[-0.30416,0.21072],[0.88811,-0.61528]],[[504.12919,541.60889],[-0.02254,0.04013],[1.11399,-1.98341]],[[501.17259,537.76486],[1.34814,0.45499],[-1.66527,-0.99441]],[[496.22633,537.7333],[1.16614,-1.17693],[0.07909,0.26564]],[[496.08641,538.21795],[0,0],[-0.16683,0.16683]],[[495.62239,538.68425],[0.1427,-0.14426],[-0.07202,0.18596]],[[495.44785,539.29155],[0.04383,-0.21913],[0,0]],[495.29401,539.63861]],&quot;closed&quot;:true}]}" fill="#35ff07" stroke-width="0.5"/><g stroke-width="0.5"><path d="M275.65809,169.8638c0.05985,-0.0644 0.14504,-0.0817 0.14504,-0.0817c0.35611,-0.07214 1.68291,-0.48599 1.99679,-0.27098c0.33365,0.22854 0.02745,2.2908 -0.39031,2.4189c-0.56249,0.17249 -1.2768,-0.99587 -1.63313,-1.29565c-0.06174,-0.09503 -0.12349,-0.19009 -0.18523,-0.28512l-0.06009,-0.21213c0,0 -0.03978,-0.19604 0.12692,-0.27334zM276.10868,170.2326c0.0147,0.02365 0.0294,0.04731 0.0441,0.07094c0.16285,0.13496 0.96404,1.18194 1.07481,1.15966c0.50838,-0.10221 0.81262,-1.65849 0.31183,-1.52406c-0.45025,0.12088 -0.94775,0.20092 -1.43075,0.29342z" fill="#7a4d0d"/><path d="M277.45184,169.67358c0.61971,-0.16638 0.21013,1.86238 -0.4189,1.98885c-0.13709,0.02756 -1.2022,-1.33737 -1.40371,-1.50439c-0.01819,-0.02928 -0.03564,-0.06275 -0.05385,-0.09202c0.59767,-0.11447 1.31931,-0.24287 1.87648,-0.39247z" data-paper-data="{&quot;noHover&quot;:false,&quot;origItem&quot;:[&quot;Path&quot;,{&quot;applyMatrix&quot;:true,&quot;segments&quot;:[[[246.25748,272.83447],[0.35081,-0.34316],[0.02526,0.01157]],[[246.33327,272.86918],[-0.02526,-0.01157],[0.20985,0.02251]],[[247.86653,273.24151],[-0.07989,0.07958],[0.36658,-0.3652]],[[247.28595,271.80182],[0.34251,-0.38787],[-0.30794,0.34872]]],&quot;closed&quot;:true}]}" fill="#000000"/></g><g stroke-width="0.5"><path d="M278.55104,172.79508c0.05982,-0.0644 0.14504,-0.0817 0.14504,-0.0817c0.35611,-0.07214 1.68292,-0.48598 1.9968,-0.27098c0.33365,0.22854 0.02744,2.2908 -0.39032,2.4189c-0.56249,0.17249 -1.27678,-0.99585 -1.63313,-1.29563c-0.06174,-0.09503 -0.12348,-0.19006 -0.18522,-0.28512l-0.0601,-0.21216c0,0 -0.03978,-0.19604 0.12692,-0.27334zM279.00162,173.16386c0.0147,0.02365 0.02942,0.04731 0.04409,0.07095c0.16285,0.13496 0.96404,1.18194 1.07481,1.15966c0.50838,-0.10221 0.81262,-1.65852 0.31182,-1.52406c-0.45025,0.12088 -0.94776,0.20093 -1.43076,0.29343z" fill="#7a4d0d"/><path d="M280.34477,172.60483c0.61971,-0.16638 0.21017,1.8624 -0.4189,1.98883c-0.13709,0.02756 -1.2022,-1.33737 -1.40371,-1.50436c-0.01819,-0.02928 -0.03562,-0.06275 -0.05381,-0.09202c0.59767,-0.11447 1.3193,-0.24287 1.87644,-0.39247z" data-paper-data="{&quot;noHover&quot;:false,&quot;origItem&quot;:[&quot;Path&quot;,{&quot;applyMatrix&quot;:true,&quot;segments&quot;:[[[492.51495,545.66895],[0.70161,-0.68632],[0.05053,0.02314]],[[492.66654,545.73837],[-0.05053,-0.02314],[0.4197,0.04501]],[[495.73306,546.48302],[-0.15977,0.15917],[0.73316,-0.73039]],[[494.57191,543.60365],[0.68501,-0.77574],[-0.61587,0.69744]]],&quot;closed&quot;:true}]}" fill="#000000"/></g><path d="M278.76286,178.75718c-0.19005,-0.16323 -0.02679,-0.35329 -0.02679,-0.35329l0.0459,-0.04196c0.29224,-0.57342 0.82148,-0.9748 1.19356,-1.49402c0.17674,-0.24666 0.76084,-0.92615 0.51178,-0.75281c-0.55611,0.38712 -1.42554,0.66953 -2.18074,0.9159l-0.35737,0.22319c-0.091,0.05981 -0.21405,0.05505 -0.30077,-0.01943c-0.07626,-0.06549 -0.10347,-0.16689 -0.07803,-0.25772l0.07539,-0.29324l0.00962,0.00249l-0.00046,-0.03101c0.32769,-0.61707 0.55164,-1.26333 0.80955,-1.91014c0.10255,-0.25718 -0.51737,0.19894 -0.7827,0.27805c-0.36999,0.1103 -1.6291,0.63261 -1.9228,0.14983c-0.6304,-1.03632 2.46032,-2.1445 -0.30458,-1.40089c-0.24899,0.0647 -1.22046,0.61514 -1.46425,0.35974c-0.2231,-0.23372 0.71265,-2.54937 0.55351,-2.56655c-0.33999,-0.03672 -2.01219,0.4441 -2.26853,0.64245c0,0 -0.20449,0.14477 -0.34924,-0.05969c-0.14479,-0.20444 0.05969,-0.34924 0.05969,-0.34924c0.3012,-0.20093 2.38608,-0.87297 2.75508,-0.69424c0.67779,0.32827 0.11621,1.42964 -0.01416,1.89114c-0.03296,0.11678 -0.06855,0.30804 -0.11401,0.47632c0.23259,-0.07737 0.53791,-0.13571 0.71181,-0.18379c0.30124,-0.08102 1.50532,-0.54106 1.72564,-0.25421c0.23342,0.30384 -0.28391,1.30999 -0.60634,1.74634c0.20497,-0.04187 0.48023,-0.06503 0.62971,-0.09969c0.22492,-0.05216 1.54379,-0.62329 1.75141,-0.28383c0.29501,0.48234 -0.19331,1.49167 -0.52443,2.11116c0.79099,-0.58244 2.57746,-1.27443 2.6484,-0.31363c0.05938,0.80439 -1.38411,1.71007 -1.71882,2.39205l-0.11372,0.14389c0,0 -0.16323,0.19007 -0.3533,0.0268z" fill="#000000" stroke-width="0.5"/></g><g stroke="none" stroke-linecap="butt"><g><path d="M294.19124,157.45447c0.56478,0.51243 0.8717,1.09416 0.68555,1.29934c-0.18615,0.20519 -0.80775,0.07049 -1.37253,-0.44194c-0.20078,-0.1822 -0.90349,-0.3855 -1.02852,-0.56518c-0.22667,-0.32568 0.23584,-0.71633 0.35583,-0.84856c0.09681,-0.10673 0.24385,-0.62132 0.50369,-0.50908c0.23973,0.10352 0.58497,0.81949 0.85602,1.06542z" fill="#35ff07" stroke-width="0"/><path d="M294.95252,158.0264c0.04264,0.04395 0.17132,0.19454 0.06301,0.31393c-0.12826,0.14137 -0.33232,-0.04377 -0.33232,-0.04377l-0.08844,-0.09664c-0.15517,-0.23792 -0.31131,-0.42669 -0.51269,-0.63935c-0.38022,-0.40921 -0.71558,-1.2985 -0.94486,-0.98434c-0.08144,0.11158 -0.70644,0.75092 -0.61263,1.11525c0.04281,0.16625 1.68964,0.86813 1.91131,0.98428c0,0 0.23609,0.12372 0.18764,0.32109c-0.04845,0.19736 -0.28454,0.07364 -0.28454,0.07364c-0.43871,-0.22987 -1.85265,-0.9055 -2.0673,-1.39684c-0.22848,-0.52298 0.5812,-1.56172 1.09363,-1.41908c0.51554,0.1435 0.68702,0.7249 1.0168,1.06585c0.22005,0.23326 0.39872,0.44979 0.57039,0.70594z" fill="#209a05" stroke-width="0.5"/></g><path d="M294.99134,160.97027c-0.11538,0.21812 -0.37377,0.04821 -0.37377,0.04821l-0.3168,-0.2097c-2.48239,-2.26828 -2.67921,1.03833 -2.14101,2.86578c0.8869,2.8331 2.40172,5.63909 5.54222,7.01855c2.92818,1.76504 4.75834,1.09241 3.63658,-1.69663l-0.16768,-0.20789c-0.09411,-0.11302 -0.10901,-0.26106 -0.02848,-0.34984c0.05428,-0.05981 0.13958,-0.07913 0.22665,-0.06002l0.27979,0.05851c2.36281,-0.16643 2.84399,-0.72682 3.08134,-3.06994c0,0 0.00246,-0.02312 0.01334,-0.05313c-0.05408,-0.07169 -0.09746,-0.176 -0.03076,-0.29064c0.12366,-0.21251 0.3782,-0.03566 0.3782,-0.03566l0.36356,0.25358c1.26433,1.17855 2.52014,-0.00874 2.82477,-1.15229c0.96338,-2.6507 -2.92634,-6.79372 -4.97952,-8.68252c-2.83454,-1.37426 -5.07322,-0.65447 -4.54778,2.3904c0,0 0.04734,0.27572 -0.23167,0.25536c-0.10731,-0.00784 -0.18034,-0.05344 -0.22959,-0.10659c-0.01054,0.00142 -0.01692,0.00164 -0.01692,0.00164c-0.5947,0.02166 -1.24144,-0.24355 -1.77209,-0.19667c-1.35362,0.11957 -2.23313,0.80963 -1.64605,2.67883l-0.23972,-0.21043c0,0 0.41888,0.30711 0.34389,0.47081c0.05183,0.07002 0.09037,0.16886 0.03145,0.2802zM301.80467,168.93309c0.59348,0.68409 -0.1622,2.74192 -0.54552,3.07133c-0.80192,0.68912 -2.79057,-0.27171 -3.72032,-0.8354c-3.31542,-1.45164 -4.98139,-4.46274 -5.92073,-7.46546c-0.59528,-2.18743 -0.08625,-5.72026 2.59674,-3.60544c-0.49081,-2.06354 0.77537,-2.76677 2.45018,-2.90093c0.4683,-0.03752 0.94536,0.21729 1.45311,0.19769c0,0 0.00884,-0.00033 0.02381,0.00074c-0.37832,-3.23627 2.25841,-3.94114 5.39792,-2.419c2.33697,2.09594 6.26972,6.43531 5.28556,9.38157c-0.39517,1.44043 -1.9761,2.65623 -3.55251,1.36866c-0.28368,2.30767 -1.23279,2.98381 -3.46819,3.20623z" fill="#ff5b1c" stroke-width="0.5"/><path d="M294.91509,160.67079c0.07499,-0.1637 -0.34286,-0.47306 -0.34286,-0.47306l0.23941,0.21107c-0.58709,-1.86923 0.30922,-2.57886 1.66284,-2.69843c0.53064,-0.04688 1.18903,0.21257 1.78373,0.19092c0,0 0.00654,-0.00027 0.01707,-0.0017c0.04924,0.05318 0.12403,0.09823 0.23134,0.10608c0.27902,0.02036 0.23438,-0.25605 0.23438,-0.25605c-0.52544,-3.04487 1.74449,-3.76158 4.57903,-2.38732c2.05318,1.88884 5.9709,6.08348 5.00752,8.73418c-0.30462,1.14354 -1.56397,2.34305 -2.82829,1.1645l-0.45324,-0.29189c0,0 -0.16525,-0.13771 -0.28891,0.0748c-0.06671,0.11467 -0.02433,0.22097 0.02977,0.29266c-0.01088,0.03001 -0.01358,0.05355 -0.01358,0.05355c-0.23735,2.34312 -0.74729,2.92732 -3.1101,3.09375l-0.28181,-0.05793c-0.08708,-0.01911 -0.17433,0.00064 -0.22859,0.06048c-0.08054,0.08874 -0.08599,0.14143 0.00813,0.25445l0.18856,0.30313c1.12176,2.78905 -0.73256,3.46107 -3.66073,1.69603c-3.1405,-1.37948 -4.69053,-4.22708 -5.57743,-7.06018c-0.53819,-1.82742 -0.33882,-5.15583 2.14359,-2.88757l0.40882,0.24191c0,0 0.16661,0.13698 0.282,-0.08114c0.05892,-0.11138 0.02121,-0.21225 -0.03061,-0.2823z" data-paper-data="{&quot;noHover&quot;:false,&quot;origItem&quot;:[&quot;Path&quot;,{&quot;applyMatrix&quot;:true,&quot;segments&quot;:[[[494.8341,541.01525],[0.25034,-0.06399],[-0.49029,0.12533]],[494.24575,540.51395],[[494.12771,539.74381],[0,0],[0.02426,-6.89635]],[[486.82445,540.44119],[2.03396,-3.33583],[-3.08089,5.25136]],[[483.8018,558.53133],[-2.23265,-6.67104],[1.35439,6.87992]],[[491.3903,561.71672],[-2.69035,5.54739],[0,0]],[[491.47498,561.17557],[0,0],[0.04197,-0.29868]],[[491.96709,560.65025],[-0.24578,0],[0.16566,0]],[[492.37058,560.91181],[-0.09098,-0.15859],[0,0]],[[492.66726,561.41739],[0,0],[3.50896,3.35948]],[[501.57648,561.8669],[-3.88601,2.86853],[0,0]],[[501.67555,561.81397],[-0.06059,0.02483],[0.03439,-0.18099]],[[502.07463,561.36673],[-0.26608,0.05668],[0.4932,-0.10506]],[502.65002,561.89201],[[502.76588,562.7937],[0,0],[-0.04771,3.54449]],[[508.40881,565.49625],[-2.15669,1.1132],[5.3537,-2.18966]],[[514.73429,545.96768],[-0.03944,5.72145],[-1.8189,-6.19916]],[[504.8363,542.35438],[3.90067,-4.99419],[0,0]],[[504.12919,542.35438],[0.35355,0.45187],[-0.13597,-0.17378]],[[503.9747,541.85874],[-0.01287,0.14808],[-0.01665,-0.01408]],[[503.94888,541.83529],[0,0],[-0.85242,-0.87342]],[[501.80551,538.8727],[0.80246,0.74137],[-2.04702,-1.89119]],[[495.46831,540.06426],[2.03005,-3.46768],[0,0]],[495.45755,539.41016],[[495.21633,540.58133],[0.35198,-0.11168],[-0.03494,0.17523]]],&quot;closed&quot;:true}]}" fill="#ff9c1b" stroke-width="0.5"/><path d="M294.50585,160.66864c-0.01515,0.00587 -0.02968,0.01037 -0.04359,0.01361c0.1193,1.09623 0.29213,-0.94424 1.15566,-1.60192c0.50845,-0.38726 1.23113,-0.2642 1.84444,-0.15062c-0.23949,-0.20207 -0.47306,-0.48597 -0.44951,-0.66485c0.06878,-0.52228 1.24541,-0.43538 1.23831,-0.45668c-0.35125,-1.05212 -1.75081,-0.52956 -2.35683,-0.19178c-0.90472,0.27554 -1.6749,0.96911 -1.63198,1.77581c0.12184,0.05848 0.12917,0.20933 0.12917,0.20933c0.00558,0.11489 0.01101,0.22153 0.01636,0.32034c0.04357,0.08694 0.09735,0.1744 0.1621,0.26202l0.07493,0.16926c0,0 0.08823,0.22727 -0.13904,0.3155zM293.91228,160.00958c-0.5066,-1.22513 0.45995,-2.44263 1.79085,-2.84173c0.69265,-0.39327 3.02312,-0.906 3.03502,0.61669c0.00347,0.44575 -1.64495,0.32217 -1.23833,0.5048c0.24558,0.11029 0.4212,0.35929 0.56968,0.61513l0.20169,0.183v0c0.09972,0.09046 0.10722,0.24466 0.01674,0.34438c-0.05428,0.05981 -0.1315,0.08645 -0.20612,0.07866l-0.26603,-0.02491l0.00021,-0.00229l-0.00695,0.00157c-0.48273,-0.07283 -1.41156,-0.39291 -1.87673,-0.03188c-0.46049,0.35742 -0.54962,2.42186 -1.46098,2.25771c-0.49076,-0.08839 -0.54661,-1.0821 -0.55908,-1.70113z" fill="#1f9404" stroke-width="0.5"/><path d="M294.61393,160.39079l-0.07813,-0.17216c-0.06475,-0.08761 -0.12382,-0.18113 -0.16735,-0.26808c-0.00535,-0.0988 -0.01486,-0.21218 -0.02044,-0.32708c0,0 -0.01003,-0.15733 -0.13187,-0.21581c-0.04292,-0.80672 0.77409,-1.5645 1.67878,-1.84004c0.60602,-0.33777 2.04965,-0.83118 2.4009,0.22093c0.00709,0.0213 -1.17079,-0.06838 -1.23962,0.4539c-0.02355,0.17888 0.21542,0.48762 0.45488,0.6897c-0.61328,-0.11358 -1.34801,-0.27122 -1.85645,0.11603c-0.86352,0.65768 -1.10291,2.76884 -1.2222,1.6726c0.01394,-0.00323 0.08771,-0.08517 0.10286,-0.09104c0.22727,-0.08823 0.07867,-0.23895 0.07867,-0.23895z" data-paper-data="{&quot;noHover&quot;:false,&quot;origItem&quot;:[&quot;Path&quot;,{&quot;applyMatrix&quot;:true,&quot;segments&quot;:[[[494.62319,539.86222],[0.44721,0.22361],[-0.0298,-0.0149]],[[494.54246,539.81474],[0.02411,0.01669],[-1.50064,1.6919]],[[498.56818,539.36246],[-2.18896,-0.40528],[1.28885,0.23863]],[[501.33871,541.95638],[-0.67264,-1.08805],[-0.02312,-0.6422]],[[501.72907,540.35743],[-0.30416,0.21072],[0.88811,-0.61528]],[[504.12919,541.60889],[-0.02254,0.04013],[1.11399,-1.98341]],[[501.17259,537.76486],[1.34814,0.45499],[-1.66527,-0.99441]],[[496.22633,537.7333],[1.16614,-1.17693],[0.07909,0.26564]],[[496.08641,538.21795],[0,0],[-0.16683,0.16683]],[[495.62239,538.68425],[0.1427,-0.14426],[-0.07202,0.18596]],[[495.44785,539.29155],[0.04383,-0.21913],[0,0]],[495.29401,539.63861]],&quot;closed&quot;:true}]}" fill="#35ff07" stroke-width="0.5"/><g stroke-width="0.5"><path d="M295.49096,163.71168c-0.05316,-0.06705 -0.05727,-0.15153 -0.05727,-0.15153c-0.01703,-0.35317 -0.22,-1.69036 0.03298,-1.96068c0.26891,-0.28735 2.20768,0.31049 2.26947,0.7312c0.08321,0.56645 -1.14575,1.08177 -1.48654,1.38046c-0.1005,0.04541 -0.20101,0.09083 -0.30151,0.13625l-0.21291,0.02661c0,0 -0.19445,0.00943 -0.24428,-0.1623zM295.91199,163.33246c0.02492,-0.01067 0.04983,-0.02132 0.07473,-0.03199c0.15378,-0.13681 1.27875,-0.75355 1.27361,-0.86338c-0.02355,-0.50407 -1.47589,-1.02561 -1.42021,-0.5241c0.05007,0.4509 0.0539,0.94123 0.07185,1.41947z" fill="#7a4d0d"/><path d="M295.57178,161.9582c-0.06892,-0.62059 1.82243,0.07174 1.85157,0.69545c0.00635,0.13593 -1.46329,0.95978 -1.65358,1.12906c-0.03084,0.01319 -0.06559,0.02505 -0.09643,0.03826c-0.02222,-0.59177 -0.0396,-1.30482 -0.10158,-1.8628z" data-paper-data="{&quot;noHover&quot;:false,&quot;origItem&quot;:[&quot;Path&quot;,{&quot;applyMatrix&quot;:true,&quot;segments&quot;:[[[246.25748,272.83447],[0.35081,-0.34316],[0.02526,0.01157]],[[246.33327,272.86918],[-0.02526,-0.01157],[0.20985,0.02251]],[[247.86653,273.24151],[-0.07989,0.07958],[0.36658,-0.3652]],[[247.28595,271.80182],[0.34251,-0.38787],[-0.30794,0.34872]]],&quot;closed&quot;:true}]}" fill="#000000"/></g><g stroke-width="0.5"><path d="M298.73617,161.35988c-0.05316,-0.06701 -0.05727,-0.15153 -0.05727,-0.15153c-0.01703,-0.35317 -0.21999,-1.69036 0.033,-1.96068c0.26891,-0.28735 2.20767,0.31049 2.26947,0.73119c0.08321,0.56645 -1.14573,1.08176 -1.48651,1.38046c-0.1005,0.04541 -0.20099,0.09083 -0.30151,0.13623l-0.21294,0.02661c0,0 -0.19443,0.00944 -0.24426,-0.16229zM299.15719,160.98068c0.02492,-0.01067 0.04984,-0.02134 0.07473,-0.03199c0.15378,-0.13681 1.27875,-0.75355 1.2736,-0.86337c-0.02355,-0.50407 -1.47591,-1.02561 -1.42021,-0.52408c0.05007,0.4509 0.0539,0.94123 0.07184,1.41947z" fill="#7a4d0d"/><path d="M298.81694,159.60642c-0.06892,-0.62059 1.82245,0.07172 1.85156,0.69545c0.00635,0.13593 -1.46328,0.95978 -1.65355,1.12907c-0.03084,0.01319 -0.0656,0.02504 -0.09644,0.03824c-0.02222,-0.59177 -0.0396,-1.30482 -0.10158,-1.86276z" data-paper-data="{&quot;noHover&quot;:false,&quot;origItem&quot;:[&quot;Path&quot;,{&quot;applyMatrix&quot;:true,&quot;segments&quot;:[[[492.51495,545.66895],[0.70161,-0.68632],[0.05053,0.02314]],[[492.66654,545.73837],[-0.05053,-0.02314],[0.4197,0.04501]],[[495.73306,546.48302],[-0.15977,0.15917],[0.73316,-0.73039]],[[494.57191,543.60365],[0.68501,-0.77574],[-0.61587,0.69744]]],&quot;closed&quot;:true}]}" fill="#000000"/></g><path d="M304.50259,162.03293c-0.18498,0.15882 -0.34379,-0.02618 -0.34379,-0.02618l-0.03361,-0.05033c-0.50862,-0.36544 -0.81689,-0.93357 -1.26164,-1.36786c-0.21128,-0.2063 -0.77903,-0.86811 -0.64891,-0.60303c0.29062,0.59188 0.43442,1.46977 0.56034,2.23247l0.16214,0.3766c0.04415,0.09633 0.02148,0.21401 -0.06293,0.28648c-0.07421,0.06372 -0.17577,0.07499 -0.2594,0.03716l-0.27099,-0.11564l0.0038,-0.0089l-0.0299,-0.00411c-0.5454,-0.40597 -1.13414,-0.71644 -1.71841,-1.05966c-0.23232,-0.13647 0.11528,0.52694 0.15236,0.79382c0.05169,0.37213 0.36897,1.66016 -0.13863,1.87167c-1.08958,0.454 -1.70108,-2.6821 -1.39239,0.08697c0.02562,0.24902 0.41224,1.26449 0.13071,1.46144c-0.25765,0.18024 -2.34756,-1.06046 -2.3875,-0.90989c-0.08532,0.32165 0.13128,2.00095 0.28439,2.2767c0,0 0.10919,0.218 -0.10877,0.32718c-0.21796,0.10922 -0.32718,-0.10878 -0.32718,-0.10878c-0.14899,-0.31929 -0.48885,-2.42369 -0.26265,-2.75236c0.41546,-0.60372 1.39234,0.09847 1.81711,0.29175c0.10749,0.04889 0.28624,0.11124 0.44142,0.17972c-0.04022,-0.23512 -0.05143,-0.53741 -0.0721,-0.71176c-0.03363,-0.30169 -0.2991,-1.52762 0.00922,-1.69737c0.32662,-0.17986 1.21841,0.46577 1.59074,0.84009c-0.01013,-0.20334 0.00807,-0.47153 -0.00329,-0.62042c-0.01709,-0.22403 -0.37255,-1.57672 -0.01546,-1.72651c0.50737,-0.21285 1.40648,0.40532 1.95371,0.81496c-0.44395,-0.84655 -0.84689,-2.66683 0.08779,-2.59377c0.78252,0.06117 1.44145,1.58295 2.04826,2.00522l0.12168,0.13056c0,0 0.15882,0.18497 -0.02617,0.34379z" fill="#000000" stroke-width="0.5"/></g><g stroke="none" stroke-linecap="butt"><g><path d="M337.63133,155.69577c0.56478,0.51243 0.8717,1.09416 0.68555,1.29934c-0.18615,0.20519 -0.80775,0.07049 -1.37254,-0.44194c-0.20078,-0.1822 -0.90349,-0.3855 -1.02852,-0.56518c-0.22667,-0.32568 0.23584,-0.71633 0.35583,-0.84856c0.09681,-0.10673 0.24385,-0.62132 0.50369,-0.50908c0.23973,0.10352 0.58497,0.81949 0.85602,1.06542z" fill="#35ff07" stroke-width="0"/><path d="M338.39261,156.2677c0.04264,0.04395 0.17132,0.19454 0.06301,0.31393c-0.12826,0.14137 -0.33232,-0.04376 -0.33232,-0.04376l-0.08844,-0.09664c-0.15517,-0.23792 -0.31131,-0.42669 -0.51269,-0.63935c-0.38022,-0.40921 -0.71558,-1.29851 -0.94486,-0.98435c-0.08144,0.11158 -0.70644,0.75093 -0.61263,1.11526c0.04281,0.16625 1.68964,0.86812 1.91131,0.98428c0,0 0.23609,0.12372 0.18764,0.32109c-0.04845,0.19736 -0.28453,0.07364 -0.28453,0.07364c-0.43871,-0.22987 -1.85265,-0.90549 -2.0673,-1.39683c-0.22848,-0.52298 0.5812,-1.56172 1.09363,-1.41908c0.51554,0.1435 0.68702,0.7249 1.0168,1.06585c0.22005,0.23326 0.39872,0.44979 0.57039,0.70594z" fill="#209a05" stroke-width="0.5"/></g><path d="M338.43143,159.21156c-0.11538,0.21812 -0.37377,0.04821 -0.37377,0.04821l-0.3168,-0.20971c-2.48239,-2.26828 -2.67921,1.03834 -2.14101,2.86579c0.8869,2.8331 2.40172,5.63909 5.54222,7.01855c2.92818,1.76504 4.75834,1.09241 3.63658,-1.69663l-0.16769,-0.20788c-0.09411,-0.11302 -0.10901,-0.26106 -0.02848,-0.34984c0.05428,-0.05981 0.13958,-0.07914 0.22665,-0.06002l0.27979,0.05851c2.36281,-0.16643 2.84399,-0.72682 3.08134,-3.06994c0,0 0.00246,-0.02312 0.01334,-0.05313c-0.05408,-0.07169 -0.09746,-0.176 -0.03076,-0.29064c0.12366,-0.21251 0.3782,-0.03566 0.3782,-0.03566l0.36356,0.25358c1.26433,1.17855 2.52014,-0.00874 2.82477,-1.15229c0.96338,-2.6507 -2.92634,-6.79373 -4.97952,-8.68252c-2.83454,-1.37426 -5.07322,-0.65447 -4.54778,2.3904c0,0 0.04734,0.27572 -0.23167,0.25536c-0.10731,-0.00784 -0.18034,-0.05344 -0.22958,-0.10659c-0.01054,0.00142 -0.01692,0.00164 -0.01692,0.00164c-0.5947,0.02166 -1.24144,-0.24355 -1.77209,-0.19667c-1.35362,0.11957 -2.23313,0.80963 -1.64605,2.67883l-0.23972,-0.21042c0,0 0.41888,0.30711 0.34389,0.47081c0.05183,0.07002 0.09037,0.16886 0.03145,0.2802zM345.24476,167.17438c0.59348,0.68409 -0.1622,2.74191 -0.54552,3.07133c-0.80192,0.68912 -2.79057,-0.27171 -3.72032,-0.8354c-3.31542,-1.45164 -4.98139,-4.46274 -5.92073,-7.46546c-0.59528,-2.18743 -0.08625,-5.72025 2.59674,-3.60544c-0.49081,-2.06354 0.77537,-2.76677 2.45018,-2.90093c0.4683,-0.03752 0.94536,0.21729 1.45311,0.19769c0,0 0.00884,-0.00033 0.02381,0.00074c-0.37832,-3.23627 2.25841,-3.94114 5.39792,-2.419c2.33697,2.09594 6.26972,6.43531 5.28556,9.38157c-0.39517,1.44043 -1.9761,2.65623 -3.55251,1.36865c-0.28368,2.30767 -1.23279,2.98381 -3.46819,3.20623z" fill="#ff5b1c" stroke-width="0.5"/><path d="M338.35518,158.91208c0.07499,-0.1637 -0.34286,-0.47306 -0.34286,-0.47306l0.23941,0.21108c-0.58709,-1.86923 0.30922,-2.57886 1.66284,-2.69843c0.53064,-0.04688 1.18903,0.21257 1.78373,0.19092c0,0 0.00654,-0.00027 0.01707,-0.0017c0.04924,0.05318 0.12403,0.09823 0.23134,0.10608c0.27902,0.02036 0.23438,-0.25605 0.23438,-0.25605c-0.52544,-3.04487 1.74449,-3.76158 4.57903,-2.38732c2.05318,1.88884 5.9709,6.08348 5.00752,8.73418c-0.30462,1.14354 -1.56397,2.34305 -2.82829,1.1645l-0.45324,-0.29189c0,0 -0.16525,-0.13771 -0.28891,0.0748c-0.06671,0.11467 -0.02433,0.22097 0.02977,0.29266c-0.01088,0.03001 -0.01358,0.05355 -0.01358,0.05355c-0.23735,2.34312 -0.74729,2.92732 -3.1101,3.09375l-0.28181,-0.05794c-0.08708,-0.01911 -0.17433,0.00064 -0.22859,0.06048c-0.08054,0.08874 -0.08599,0.14144 0.00813,0.25446l0.18856,0.30313c1.12176,2.78905 -0.73256,3.46107 -3.66073,1.69603c-3.1405,-1.37948 -4.69053,-4.22708 -5.57743,-7.06019c-0.53819,-1.82742 -0.33882,-5.15582 2.14359,-2.88757l0.40882,0.24191c0,0 0.16661,0.13698 0.282,-0.08114c0.05892,-0.11138 0.02121,-0.21226 -0.03061,-0.2823z" data-paper-data="{&quot;noHover&quot;:false,&quot;origItem&quot;:[&quot;Path&quot;,{&quot;applyMatrix&quot;:true,&quot;segments&quot;:[[[494.8341,541.01525],[0.25034,-0.06399],[-0.49029,0.12533]],[494.24575,540.51395],[[494.12771,539.74381],[0,0],[0.02426,-6.89635]],[[486.82445,540.44119],[2.03396,-3.33583],[-3.08089,5.25136]],[[483.8018,558.53133],[-2.23265,-6.67104],[1.35439,6.87992]],[[491.3903,561.71672],[-2.69035,5.54739],[0,0]],[[491.47498,561.17557],[0,0],[0.04197,-0.29868]],[[491.96709,560.65025],[-0.24578,0],[0.16566,0]],[[492.37058,560.91181],[-0.09098,-0.15859],[0,0]],[[492.66726,561.41739],[0,0],[3.50896,3.35948]],[[501.57648,561.8669],[-3.88601,2.86853],[0,0]],[[501.67555,561.81397],[-0.06059,0.02483],[0.03439,-0.18099]],[[502.07463,561.36673],[-0.26608,0.05668],[0.4932,-0.10506]],[502.65002,561.89201],[[502.76588,562.7937],[0,0],[-0.04771,3.54449]],[[508.40881,565.49625],[-2.15669,1.1132],[5.3537,-2.18966]],[[514.73429,545.96768],[-0.03944,5.72145],[-1.8189,-6.19916]],[[504.8363,542.35438],[3.90067,-4.99419],[0,0]],[[504.12919,542.35438],[0.35355,0.45187],[-0.13597,-0.17378]],[[503.9747,541.85874],[-0.01287,0.14808],[-0.01665,-0.01408]],[[503.94888,541.83529],[0,0],[-0.85242,-0.87342]],[[501.80551,538.8727],[0.80246,0.74137],[-2.04702,-1.89119]],[[495.46831,540.06426],[2.03005,-3.46768],[0,0]],[495.45755,539.41016],[[495.21633,540.58133],[0.35198,-0.11168],[-0.03494,0.17523]]],&quot;closed&quot;:true}]}" fill="#ff9c1b" stroke-width="0.5"/><path d="M337.94594,158.90994c-0.01515,0.00587 -0.02968,0.01037 -0.04359,0.0136c0.1193,1.09623 0.29213,-0.94424 1.15566,-1.60191c0.50845,-0.38726 1.23113,-0.2642 1.84444,-0.15062c-0.23949,-0.20207 -0.47306,-0.48597 -0.44951,-0.66485c0.06878,-0.52228 1.24541,-0.43538 1.23831,-0.45668c-0.35125,-1.05212 -1.75081,-0.52957 -2.35683,-0.19179c-0.90472,0.27554 -1.6749,0.96912 -1.63198,1.77581c0.12184,0.05848 0.12917,0.20933 0.12917,0.20933c0.00558,0.11489 0.01101,0.22153 0.01636,0.32034c0.04357,0.08694 0.09735,0.17441 0.1621,0.26202l0.07493,0.16926c0,0 0.08823,0.22727 -0.13904,0.3155zM337.35237,158.25088c-0.5066,-1.22513 0.45995,-2.44263 1.79085,-2.84173c0.69265,-0.39327 3.02312,-0.906 3.03502,0.61669c0.00347,0.44575 -1.64495,0.32216 -1.23833,0.50479c0.24558,0.11029 0.4212,0.35929 0.56968,0.61514l0.20169,0.183v0c0.09972,0.09046 0.10722,0.24466 0.01674,0.34438c-0.05428,0.05981 -0.1315,0.08646 -0.20612,0.07866l-0.26603,-0.02491l0.00021,-0.00229l-0.00695,0.00157c-0.48273,-0.07283 -1.41156,-0.39291 -1.87673,-0.03188c-0.46049,0.35742 -0.54962,2.42186 -1.46098,2.25771c-0.49076,-0.08839 -0.54661,-1.08211 -0.55908,-1.70113z" fill="#1f9404" stroke-width="0.5"/><path d="M338.05402,158.63208l-0.07813,-0.17216c-0.06475,-0.08761 -0.12382,-0.18113 -0.16735,-0.26808c-0.00535,-0.0988 -0.01486,-0.21218 -0.02044,-0.32708c0,0 -0.01003,-0.15733 -0.13187,-0.21581c-0.04292,-0.80672 0.77409,-1.5645 1.67878,-1.84004c0.60602,-0.33777 2.04965,-0.83118 2.4009,0.22093c0.00709,0.0213 -1.17079,-0.06838 -1.23962,0.4539c-0.02355,0.17888 0.21542,0.48762 0.45488,0.6897c-0.61328,-0.11358 -1.34801,-0.27122 -1.85645,0.11602c-0.86352,0.65768 -1.10291,2.76884 -1.2222,1.6726c0.01394,-0.00323 0.08771,-0.08517 0.10286,-0.09104c0.22727,-0.08823 0.07867,-0.23895 0.07867,-0.23895z" data-paper-data="{&quot;noHover&quot;:false,&quot;origItem&quot;:[&quot;Path&quot;,{&quot;applyMatrix&quot;:true,&quot;segments&quot;:[[[494.62319,539.86222],[0.44721,0.22361],[-0.0298,-0.0149]],[[494.54246,539.81474],[0.02411,0.01669],[-1.50064,1.6919]],[[498.56818,539.36246],[-2.18896,-0.40528],[1.28885,0.23863]],[[501.33871,541.95638],[-0.67264,-1.08805],[-0.02312,-0.6422]],[[501.72907,540.35743],[-0.30416,0.21072],[0.88811,-0.61528]],[[504.12919,541.60889],[-0.02254,0.04013],[1.11399,-1.98341]],[[501.17259,537.76486],[1.34814,0.45499],[-1.66527,-0.99441]],[[496.22633,537.7333],[1.16614,-1.17693],[0.07909,0.26564]],[[496.08641,538.21795],[0,0],[-0.16683,0.16683]],[[495.62239,538.68425],[0.1427,-0.14426],[-0.07202,0.18596]],[[495.44785,539.29155],[0.04383,-0.21913],[0,0]],[495.29401,539.63861]],&quot;closed&quot;:true}]}" fill="#35ff07" stroke-width="0.5"/><g stroke-width="0.5"><path d="M338.93105,161.95298c-0.05316,-0.06705 -0.05727,-0.15153 -0.05727,-0.15153c-0.01703,-0.35317 -0.22,-1.69036 0.03298,-1.96068c0.26891,-0.28735 2.20768,0.31049 2.26947,0.7312c0.08321,0.56645 -1.14575,1.08176 -1.48654,1.38045c-0.1005,0.04541 -0.20101,0.09083 -0.30151,0.13625l-0.21291,0.02661c0,0 -0.19444,0.00943 -0.24427,-0.1623zM339.35208,161.57376c0.02492,-0.01067 0.04983,-0.02132 0.07473,-0.03199c0.15378,-0.13681 1.27875,-0.75355 1.27361,-0.86337c-0.02355,-0.50407 -1.47589,-1.02561 -1.42021,-0.5241c0.05007,0.4509 0.0539,0.94123 0.07185,1.41947z" fill="#7a4d0d"/><path d="M339.01187,160.1995c-0.06892,-0.62059 1.82243,0.07174 1.85157,0.69545c0.00635,0.13593 -1.46329,0.95978 -1.65358,1.12906c-0.03084,0.01319 -0.06559,0.02505 -0.09643,0.03826c-0.02222,-0.59177 -0.0396,-1.30482 -0.10158,-1.8628z" data-paper-data="{&quot;noHover&quot;:false,&quot;origItem&quot;:[&quot;Path&quot;,{&quot;applyMatrix&quot;:true,&quot;segments&quot;:[[[246.25748,272.83447],[0.35081,-0.34316],[0.02526,0.01157]],[[246.33327,272.86918],[-0.02526,-0.01157],[0.20985,0.02251]],[[247.86653,273.24151],[-0.07989,0.07958],[0.36658,-0.3652]],[[247.28595,271.80182],[0.34251,-0.38787],[-0.30794,0.34872]]],&quot;closed&quot;:true}]}" fill="#000000"/></g><g stroke-width="0.5"><path d="M342.17626,159.60118c-0.05316,-0.06701 -0.05727,-0.15153 -0.05727,-0.15153c-0.01703,-0.35317 -0.21999,-1.69036 0.033,-1.96068c0.26891,-0.28735 2.20767,0.31049 2.26947,0.73119c0.08321,0.56645 -1.14573,1.08175 -1.48651,1.38045c-0.1005,0.04541 -0.20099,0.09083 -0.30151,0.13623l-0.21294,0.02662c0,0 -0.19443,0.00944 -0.24426,-0.16229zM342.59728,159.22198c0.02492,-0.01067 0.04984,-0.02134 0.07473,-0.03199c0.15378,-0.13681 1.27875,-0.75355 1.2736,-0.86338c-0.02355,-0.50407 -1.47591,-1.0256 -1.42021,-0.52407c0.05007,0.4509 0.0539,0.94123 0.07184,1.41947z" fill="#7a4d0d"/><path d="M342.25703,157.84771c-0.06892,-0.62059 1.82245,0.07172 1.85156,0.69545c0.00635,0.13593 -1.46328,0.95979 -1.65355,1.12907c-0.03084,0.01319 -0.0656,0.02504 -0.09644,0.03824c-0.02222,-0.59177 -0.0396,-1.30482 -0.10158,-1.86276z" data-paper-data="{&quot;noHover&quot;:false,&quot;origItem&quot;:[&quot;Path&quot;,{&quot;applyMatrix&quot;:true,&quot;segments&quot;:[[[492.51495,545.66895],[0.70161,-0.68632],[0.05053,0.02314]],[[492.66654,545.73837],[-0.05053,-0.02314],[0.4197,0.04501]],[[495.73306,546.48302],[-0.15977,0.15917],[0.73316,-0.73039]],[[494.57191,543.60365],[0.68501,-0.77574],[-0.61587,0.69744]]],&quot;closed&quot;:true}]}" fill="#000000"/></g><path d="M347.94268,160.27423c-0.18498,0.15882 -0.34379,-0.02618 -0.34379,-0.02618l-0.03361,-0.05033c-0.50862,-0.36544 -0.81689,-0.93357 -1.26164,-1.36785c-0.21128,-0.2063 -0.77903,-0.86811 -0.64891,-0.60303c0.29062,0.59188 0.43442,1.46977 0.56035,2.23247l0.16213,0.3766c0.04415,0.09633 0.02148,0.21401 -0.06293,0.28648c-0.07421,0.06372 -0.17577,0.07498 -0.25939,0.03715l-0.27099,-0.11563l0.0038,-0.0089l-0.0299,-0.00411c-0.5454,-0.40597 -1.13414,-0.71644 -1.71841,-1.05966c-0.23232,-0.13647 0.11528,0.52694 0.15237,0.79381c0.05169,0.37213 0.36897,1.66016 -0.13864,1.87168c-1.08958,0.454 -1.70108,-2.6821 -1.39239,0.08697c0.02562,0.24902 0.41224,1.26449 0.13071,1.46144c-0.25765,0.18024 -2.34756,-1.06045 -2.3875,-0.90989c-0.08532,0.32165 0.13128,2.00095 0.28439,2.27669c0,0 0.10919,0.218 -0.10877,0.32718c-0.21796,0.10922 -0.32718,-0.10878 -0.32718,-0.10878c-0.14899,-0.31929 -0.48885,-2.42369 -0.26265,-2.75235c0.41546,-0.60372 1.39234,0.09847 1.81711,0.29174c0.10749,0.04889 0.28624,0.11125 0.44142,0.17973c-0.04022,-0.23512 -0.05143,-0.53741 -0.0721,-0.71176c-0.03363,-0.30169 -0.2991,-1.52763 0.00922,-1.69737c0.32662,-0.17986 1.21841,0.46577 1.59074,0.8401c-0.01013,-0.20334 0.00807,-0.47153 -0.00329,-0.62042c-0.01709,-0.22403 -0.37255,-1.57672 -0.01546,-1.72651c0.50737,-0.21285 1.40648,0.40532 1.95371,0.81496c-0.44395,-0.84655 -0.84689,-2.66683 0.08779,-2.59377c0.78252,0.06117 1.44145,1.58295 2.04826,2.00522l0.12168,0.13055c0,0 0.15882,0.18498 -0.02617,0.34379z" fill="#000000" stroke-width="0.5"/></g><g data-paper-data="{&quot;index&quot;:null}" stroke="none" stroke-linecap="butt"><g><path d="M331.4963,168.4856c0.27105,-0.24592 0.61629,-0.96189 0.85602,-1.06542c0.25984,-0.11223 0.40688,0.40236 0.50369,0.50908c0.12,0.13223 0.58249,0.52287 0.35583,0.84856c-0.12503,0.17968 -0.82774,0.38298 -1.02852,0.56518c-0.56478,0.51243 -1.18638,0.64712 -1.37253,0.44194c-0.18615,-0.20519 0.12077,-0.78691 0.68555,-1.29934z" fill="#35ff07" stroke-width="0"/><path d="M330.73506,169.05751c0.17167,-0.25616 0.35035,-0.47268 0.57039,-0.70594c0.32977,-0.34096 0.50126,-0.92236 1.0168,-1.06585c0.51243,-0.14264 1.32211,0.89611 1.09362,1.41908c-0.21465,0.49134 -1.62859,1.16697 -2.0673,1.39684c0,0 -0.23609,0.12372 -0.28454,-0.07364c-0.04845,-0.19737 0.18764,-0.32109 0.18764,-0.32109c0.22167,-0.11615 1.8685,-0.81803 1.91131,-0.98428c0.09381,-0.36433 -0.53118,-1.00367 -0.61262,-1.11525c-0.22928,-0.31416 -0.56464,0.57513 -0.94486,0.98434c-0.20138,0.21266 -0.35752,0.40143 -0.51269,0.63935l-0.08844,0.09664c0,0 -0.20405,0.18513 -0.33232,0.04377c-0.10832,-0.11939 0.02037,-0.26998 0.063,-0.31393z" fill="#209a05" stroke-width="0.5"/></g><path d="M330.69627,172.00133c-0.05892,-0.11135 -0.02039,-0.21018 0.03145,-0.2802c-0.07499,-0.1637 0.34389,-0.47081 0.34389,-0.47081l-0.23972,0.21042c0.58708,-1.8692 -0.29243,-2.55926 -1.64605,-2.67883c-0.53064,-0.04687 -1.17739,0.21833 -1.77209,0.19667c0,0 -0.00638,-0.00023 -0.01692,-0.00164c-0.04924,0.05316 -0.12228,0.09876 -0.22958,0.10659c-0.27902,0.02036 -0.23168,-0.25536 -0.23168,-0.25536c0.52544,-3.04487 -1.71324,-3.76466 -4.54778,-2.3904c-2.05318,1.88879 -5.9429,6.03182 -4.97952,8.68252c0.30463,1.14354 1.56044,2.33083 2.82477,1.15229l0.36356,-0.25358c0,0 0.25454,-0.17685 0.3782,0.03566c0.06671,0.11464 0.02332,0.21895 -0.03076,0.29064c0.01088,0.03001 0.01335,0.05313 0.01335,0.05313c0.23735,2.34312 0.71853,2.90351 3.08134,3.06994l0.27979,-0.05851c0.08708,-0.01911 0.17237,0.0002 0.22665,0.06002c0.08054,0.08877 0.06564,0.23682 -0.02847,0.34984l-0.16769,0.20789c-1.12176,2.78904 0.7084,3.46167 3.63658,1.69663c3.1405,-1.37946 4.65533,-4.18545 5.54223,-7.01855c0.53821,-1.82745 0.34139,-5.13407 -2.14101,-2.86579l-0.3168,0.20971c0,0 -0.25839,0.1699 -0.37377,-0.04821zM323.88286,179.96421c-2.2354,-0.22242 -3.18452,-0.89856 -3.46819,-3.20623c-1.57641,1.28758 -3.15734,0.07177 -3.55251,-1.36865c-0.98416,-2.94627 2.94859,-7.28563 5.28556,-9.38157c3.1395,-1.52213 5.77623,-0.81726 5.39792,2.419c0.01497,-0.00107 0.02381,-0.00074 0.02381,-0.00074c0.50775,0.0196 0.98481,-0.23521 1.45311,-0.19769c1.67481,0.13416 2.94099,0.83739 2.45018,2.90093c2.683,-2.11481 3.19203,1.41801 2.59674,3.60544c-0.93934,3.00272 -2.60531,6.01382 -5.92073,7.46546c-0.92975,0.56369 -2.91841,1.52453 -3.72032,0.8354c-0.38332,-0.32942 -1.13901,-2.38724 -0.54552,-3.07133z" fill="#ff5b1c" stroke-width="0.5"/><path d="M330.77243,171.70186c-0.05182,0.07004 -0.08952,0.17092 -0.0306,0.2823c0.11539,0.21812 0.282,0.08114 0.282,0.08114l0.40882,-0.24191c2.48241,-2.26826 2.68178,1.06015 2.14359,2.88757c-0.8869,2.8331 -2.43693,5.68071 -5.57743,7.06019c-2.92816,1.76504 -4.78249,1.09302 -3.66073,-1.69603l0.18856,-0.30313c0.09411,-0.11302 0.08866,-0.16571 0.00813,-0.25445c-0.05426,-0.05984 -0.14151,-0.0796 -0.22858,-0.06048l-0.28182,0.05793c-2.36281,-0.16644 -2.87275,-0.75064 -3.1101,-3.09375c0,0 -0.0027,-0.02354 -0.01358,-0.05355c0.0541,-0.07169 0.09648,-0.17799 0.02978,-0.29266c-0.12366,-0.21251 -0.28891,-0.0748 -0.28891,-0.0748l-0.45324,0.29189c-1.26432,1.17855 -2.52367,-0.02096 -2.82829,-1.1645c-0.96338,-2.6507 2.95435,-6.84535 5.00752,-8.73418c2.83454,-1.37426 5.10448,-0.65755 4.57903,2.38732c0,0 -0.04464,0.27641 0.23438,0.25605c0.10731,-0.00785 0.1821,-0.0529 0.23134,-0.10608c0.01054,0.00143 0.01707,0.0017 0.01707,0.0017c0.5947,0.02166 1.25309,-0.2378 1.78373,-0.19092c1.35362,0.11957 2.24993,0.8292 1.66284,2.69843l0.23941,-0.21107c0,0 -0.41785,0.30936 -0.34286,0.47306z" data-paper-data="{&quot;noHover&quot;:false,&quot;origItem&quot;:[&quot;Path&quot;,{&quot;applyMatrix&quot;:true,&quot;segments&quot;:[[[494.8341,541.01525],[0.25034,-0.06399],[-0.49029,0.12533]],[494.24575,540.51395],[[494.12771,539.74381],[0,0],[0.02426,-6.89635]],[[486.82445,540.44119],[2.03396,-3.33583],[-3.08089,5.25136]],[[483.8018,558.53133],[-2.23265,-6.67104],[1.35439,6.87992]],[[491.3903,561.71672],[-2.69035,5.54739],[0,0]],[[491.47498,561.17557],[0,0],[0.04197,-0.29868]],[[491.96709,560.65025],[-0.24578,0],[0.16566,0]],[[492.37058,560.91181],[-0.09098,-0.15859],[0,0]],[[492.66726,561.41739],[0,0],[3.50896,3.35948]],[[501.57648,561.8669],[-3.88601,2.86853],[0,0]],[[501.67555,561.81397],[-0.06059,0.02483],[0.03439,-0.18099]],[[502.07463,561.36673],[-0.26608,0.05668],[0.4932,-0.10506]],[502.65002,561.89201],[[502.76588,562.7937],[0,0],[-0.04771,3.54449]],[[508.40881,565.49625],[-2.15669,1.1132],[5.3537,-2.18966]],[[514.73429,545.96768],[-0.03944,5.72145],[-1.8189,-6.19916]],[[504.8363,542.35438],[3.90067,-4.99419],[0,0]],[[504.12919,542.35438],[0.35355,0.45187],[-0.13597,-0.17378]],[[503.9747,541.85874],[-0.01287,0.14808],[-0.01665,-0.01408]],[[503.94888,541.83529],[0,0],[-0.85242,-0.87342]],[[501.80551,538.8727],[0.80246,0.74137],[-2.04702,-1.89119]],[[495.46831,540.06426],[2.03005,-3.46768],[0,0]],[495.45755,539.41016],[[495.21633,540.58133],[0.35198,-0.11168],[-0.03494,0.17523]]],&quot;closed&quot;:true}]}" fill="#ff9c1b" stroke-width="0.5"/><path d="M331.18169,171.69978c-0.22727,-0.08823 -0.13904,-0.3155 -0.13904,-0.3155l0.07494,-0.16926c0.06475,-0.08761 0.11854,-0.17508 0.1621,-0.26202c0.00535,-0.0988 0.01078,-0.20544 0.01636,-0.32034c0,0 0.00733,-0.15085 0.12917,-0.20933c0.04292,-0.80669 -0.72726,-1.50027 -1.63198,-1.77581c-0.60602,-0.33778 -2.00558,-0.86034 -2.35683,0.19179c-0.00709,0.0213 1.16952,-0.0656 1.23831,0.45668c0.02355,0.17888 -0.21001,0.46278 -0.44951,0.66485c0.61331,-0.11358 1.33599,-0.23664 1.84444,0.15062c0.86353,0.65768 1.03636,2.69815 1.15566,1.60192c-0.01391,-0.00323 -0.02844,-0.00774 -0.04359,-0.01361zM331.77532,171.0407c-0.01247,0.61902 -0.06832,1.61274 -0.55908,1.70113c-0.91136,0.16414 -1.0005,-1.90029 -1.46098,-2.25771c-0.46517,-0.36103 -1.394,-0.04095 -1.87673,0.03188l-0.00695,-0.00157l0.00021,0.00229l-0.26603,0.02491c-0.07462,0.00779 -0.15183,-0.01884 -0.20611,-0.07866c-0.09048,-0.09972 -0.08298,-0.25392 0.01674,-0.34438v0l0.20169,-0.183c0.14848,-0.25584 0.3241,-0.50484 0.56968,-0.61513c0.40662,-0.18263 -1.2418,-0.05904 -1.23833,-0.5048c0.0119,-1.52269 2.34237,-1.00996 3.03502,-0.61669c1.3309,0.3991 2.29745,1.6166 1.79085,2.84174z" fill="#1f9404" stroke-width="0.5"/><path d="M331.07363,171.4219c0,0 -0.1486,0.15072 0.07867,0.23895c0.01515,0.00587 0.08892,0.0878 0.10286,0.09103c-0.11928,1.09625 -0.35868,-1.01492 -1.2222,-1.6726c-0.50845,-0.38725 -1.24318,-0.2296 -1.85646,-0.11602c0.23946,-0.20208 0.47843,-0.51082 0.45488,-0.6897c-0.06882,-0.52228 -1.24671,-0.4326 -1.23962,-0.4539c0.35125,-1.05211 1.79489,-0.5587 2.4009,-0.22093c0.9047,0.27554 1.7217,1.03332 1.67878,1.84004c-0.12184,0.05848 -0.13187,0.21581 -0.13187,0.21581c-0.00558,0.11489 -0.01509,0.22827 -0.02044,0.32708c-0.04354,0.08695 -0.1026,0.18047 -0.16735,0.26808l-0.07813,0.17216z" data-paper-data="{&quot;noHover&quot;:false,&quot;origItem&quot;:[&quot;Path&quot;,{&quot;applyMatrix&quot;:true,&quot;segments&quot;:[[[494.62319,539.86222],[0.44721,0.22361],[-0.0298,-0.0149]],[[494.54246,539.81474],[0.02411,0.01669],[-1.50064,1.6919]],[[498.56818,539.36246],[-2.18896,-0.40528],[1.28885,0.23863]],[[501.33871,541.95638],[-0.67264,-1.08805],[-0.02312,-0.6422]],[[501.72907,540.35743],[-0.30416,0.21072],[0.88811,-0.61528]],[[504.12919,541.60889],[-0.02254,0.04013],[1.11399,-1.98341]],[[501.17259,537.76486],[1.34814,0.45499],[-1.66527,-0.99441]],[[496.22633,537.7333],[1.16614,-1.17693],[0.07909,0.26564]],[[496.08641,538.21795],[0,0],[-0.16683,0.16683]],[[495.62239,538.68425],[0.1427,-0.14426],[-0.07202,0.18596]],[[495.44785,539.29155],[0.04383,-0.21913],[0,0]],[495.29401,539.63861]],&quot;closed&quot;:true}]}" fill="#35ff07" stroke-width="0.5"/><g stroke-width="0.5"><path d="M330.19666,174.74281c-0.04983,0.17173 -0.24428,0.1623 -0.24428,0.1623l-0.2129,-0.02661c-0.1005,-0.04541 -0.20101,-0.09083 -0.30151,-0.13624c-0.34078,-0.29869 -1.56975,-0.814 -1.48654,-1.38046c0.06179,-0.42071 2.00056,-1.01855 2.26947,-0.7312c0.25299,0.27032 0.05001,1.60751 0.03298,1.96068c0,0 -0.00411,0.08449 -0.05727,0.15153zM329.7756,174.36359c0.01795,-0.47824 0.02179,-0.96857 0.07186,-1.41947c0.05568,-0.50151 -1.39666,0.02003 -1.42022,0.5241c-0.00514,0.10983 1.11983,0.72657 1.27361,0.86338c0.0249,0.01067 0.04982,0.02132 0.07473,0.03199z" fill="#7a4d0d"/><path d="M330.11582,172.98931c-0.06198,0.55797 -0.07935,1.27103 -0.10158,1.8628c-0.03084,-0.01322 -0.06559,-0.02507 -0.09643,-0.03826c-0.19029,-0.16929 -1.65993,-0.99313 -1.65358,-1.12906c0.02913,-0.62371 1.92049,-1.31604 1.85157,-0.69545z" data-paper-data="{&quot;noHover&quot;:false,&quot;origItem&quot;:[&quot;Path&quot;,{&quot;applyMatrix&quot;:true,&quot;segments&quot;:[[[246.25748,272.83447],[0.35081,-0.34316],[0.02526,0.01157]],[[246.33327,272.86918],[-0.02526,-0.01157],[0.20985,0.02251]],[[247.86653,273.24151],[-0.07989,0.07958],[0.36658,-0.3652]],[[247.28595,271.80182],[0.34251,-0.38787],[-0.30794,0.34872]]],&quot;closed&quot;:true}]}" fill="#000000"/></g><g stroke-width="0.5"><path d="M326.95142,172.391c-0.04983,0.17173 -0.24426,0.16229 -0.24426,0.16229l-0.21294,-0.02661c-0.10052,-0.0454 -0.20101,-0.09082 -0.30151,-0.13623c-0.34078,-0.2987 -1.56973,-0.814 -1.48651,-1.38046c0.0618,-0.4207 2.00056,-1.01854 2.26947,-0.73119c0.25299,0.27032 0.05002,1.60751 0.03299,1.96068c0,0 -0.0041,0.08452 -0.05726,0.15153zM326.53043,172.01184c0.01794,-0.47824 0.02177,-0.96857 0.07184,-1.41947c0.0557,-0.50153 -1.39666,0.02 -1.42021,0.52408c-0.00515,0.10983 1.11982,0.72657 1.2736,0.86337c0.02489,0.01065 0.04981,0.02132 0.07473,0.03199z" fill="#7a4d0d"/><path d="M326.87064,170.63754c-0.06198,0.55794 -0.07935,1.271 -0.10157,1.86276c-0.03084,-0.0132 -0.06561,-0.02505 -0.09644,-0.03824c-0.19027,-0.16929 -1.6599,-0.99314 -1.65355,-1.12907c0.02911,-0.62373 1.92048,-1.31604 1.85156,-0.69545z" data-paper-data="{&quot;noHover&quot;:false,&quot;origItem&quot;:[&quot;Path&quot;,{&quot;applyMatrix&quot;:true,&quot;segments&quot;:[[[492.51495,545.66895],[0.70161,-0.68632],[0.05053,0.02314]],[[492.66654,545.73837],[-0.05053,-0.02314],[0.4197,0.04501]],[[495.73306,546.48302],[-0.15977,0.15917],[0.73316,-0.73039]],[[494.57191,543.60365],[0.68501,-0.77574],[-0.61587,0.69744]]],&quot;closed&quot;:true}]}" fill="#000000"/></g><path d="M321.18504,173.06409c-0.18499,-0.15882 -0.02618,-0.34379 -0.02618,-0.34379l0.12169,-0.13056c0.60681,-0.42227 1.26574,-1.94404 2.04825,-2.00522c0.93468,-0.07306 0.53174,1.74721 0.08779,2.59377c0.54723,-0.40964 1.44635,-1.02781 1.95371,-0.81496c0.35709,0.14979 0.00164,1.50248 -0.01546,1.72651c-0.01136,0.14889 0.00684,0.41708 -0.00329,0.62042c0.37234,-0.37433 1.26412,-1.01995 1.59074,-0.8401c0.30833,0.16975 0.04286,1.39568 0.00923,1.69737c-0.02067,0.17435 -0.03188,0.47664 -0.0721,0.71176c0.15519,-0.06848 0.33393,-0.13084 0.44143,-0.17972c0.42477,-0.19328 1.40165,-0.89547 1.81711,-0.29175c0.2262,0.32867 -0.11366,2.43306 -0.26265,2.75235c0,0 -0.10922,0.218 -0.32718,0.10878c-0.21796,-0.10918 -0.10877,-0.32718 -0.10877,-0.32718c0.15311,-0.27575 0.36971,-1.95505 0.28439,-2.2767c-0.03994,-0.15057 -2.12985,1.09013 -2.3875,0.90989c-0.28153,-0.19695 0.1051,-1.21242 0.13071,-1.46144c0.30869,-2.76907 -0.30281,0.36703 -1.39239,-0.08697c-0.5076,-0.21151 -0.19032,-1.49954 -0.13863,-1.87167c0.03708,-0.26688 0.38468,-0.93029 0.15236,-0.79382c-0.58427,0.34322 -1.17301,0.65369 -1.71841,1.05966l-0.0299,0.00411l0.0038,0.0089l-0.27099,0.11563c-0.08362,0.03783 -0.18518,0.02657 -0.25939,-0.03715c-0.08441,-0.07247 -0.10709,-0.19015 -0.06293,-0.28648l0.16214,-0.3766c0.12593,-0.7627 0.26973,-1.64059 0.56034,-2.23247c0.13013,-0.26508 -0.43763,0.39673 -0.64891,0.60303c-0.44475,0.43428 -0.75302,1.00241 -1.26164,1.36786l-0.03361,0.05033c0,0 -0.15882,0.185 -0.34379,0.02618z" fill="#000000" stroke-width="0.5"/></g><path d="M353.78978,172.58523l0.11432,-0.29925c0.75744,-0.73386 -1.48897,-0.09858 -1.72368,-0.55351c-0.10768,-0.20873 0.23877,-0.65541 0.54691,-0.87859c-0.32508,-0.00712 -0.61703,0.01741 -0.9329,-0.01221l-0.00552,0.06812l-0.34026,-0.02754c-0.09341,-0.00559 -0.17984,-0.06365 -0.21713,-0.15622c-0.03729,-0.09257 -0.01522,-0.19433 0.04824,-0.2631l0.15393,-0.17401c0.16278,-0.28951 0.89376,-0.60101 0.61201,-0.7672c-0.74541,-0.43969 -3.22231,-1.68538 -1.39105,-2.32602c0.03203,-0.11441 0.15297,-0.16312 0.15297,-0.16312c2.35448,-0.94829 5.05312,-3.12632 7.66136,-3.05088c4.05597,-0.23138 4.78135,5.13342 2.86024,7.65076c-1.36971,0.95679 -6.38326,4.1151 -7.90966,2.65368c0.10879,-0.49333 0.20266,-1.05711 0.3716,-1.55766c-0.01981,-0.07414 -0.00139,-0.14324 -0.00139,-0.14324zM351.04437,167.59957c-1.65113,0.43658 1.20099,1.25192 1.42923,1.66346c0.23973,0.43226 -0.25575,0.8198 -0.52117,1.15195c0.33812,-0.08483 0.8639,-0.06012 1.1151,-0.04251l0.25384,0.02055c0.09341,0.00559 0.17984,0.06365 0.21713,0.15622c0.03928,0.09752 0.0127,0.20523 -0.05876,0.27384l-0.20423,0.2052l-0.04081,-0.04061c-0.11206,0.14979 -0.23765,0.30823 -0.34519,0.42074c0.4438,-0.02937 1.318,0.10632 1.40982,0.1604c0.42112,0.24803 0.40287,0.50024 0.22005,0.76539c-0.014,0.07841 -0.06401,0.13495 -0.06401,0.13495l-0.02449,0.01765c-0.27938,0.49457 -0.23707,1.16669 -0.52907,1.66725c2.39317,0.02218 5.15797,-1.59157 7.0815,-2.88262c1.63177,-2.2148 1.07979,-6.99781 -2.50791,-6.78977c-2.42197,-0.08464 -5.02728,1.95288 -7.24384,2.91538c-0.01684,0.15748 -0.1872,0.20254 -0.1872,0.20254z" fill="#697b9a" stroke="none" stroke-width="0.5" stroke-linecap="butt"/><path d="M351.18379,167.38227c2.21656,-0.9625 4.88673,-3.03225 7.3087,-2.94761c3.5877,-0.20804 4.16705,4.64483 2.53528,6.85964c-1.92353,1.29105 -4.75766,2.92531 -7.15082,2.90313c0.292,-0.50056 0.24589,-1.1751 0.52527,-1.66966l0.0817,-0.09966c0,0 -0.00737,0.02537 0.00663,-0.05304c0.18281,-0.26515 0.19427,-0.52313 -0.22685,-0.77116c-0.09182,-0.05407 -0.97351,-0.19952 -1.41731,-0.17015c0.10754,-0.11251 0.23199,-0.27299 0.34405,-0.42278l0.04113,0.04122l0.20371,-0.20618c0.07146,-0.06861 0.09673,-0.17906 0.05745,-0.27659c-0.03729,-0.09257 -0.12489,-0.15352 -0.2183,-0.15911l-0.25429,-0.02183c-0.25119,-0.01761 -0.77789,-0.04535 -1.11602,0.03948c0.26542,-0.33216 0.75922,-0.73095 0.51949,-1.16321c-0.22824,-0.41154 -3.07874,-1.24135 -1.42761,-1.67793c0,0 0.17094,-0.04707 0.18778,-0.20455z" data-paper-data="{&quot;noHover&quot;:false,&quot;origItem&quot;:[&quot;Path&quot;,{&quot;applyMatrix&quot;:true,&quot;segments&quot;:[[[519.36573,299.01308],[0,0],[-0.42378,3.38936]],[[523.51966,297.60454],[-0.93402,0.11592],[0.98104,-0.12176]],[[525.26732,299.43214],[-0.41789,-0.74058],[0.09527,-0.69066]],[[526.02166,297.33167],[-0.22037,0.45285],[0,0]],[[526.24945,296.8761],[0,0],[0.08017,-0.16912]],[[526.70151,296.59002],[-0.1996,0],[0.21027,0]],[[527.16562,296.90365],[-0.07389,-0.18384],[0,0]],[527.39371,297.43586],[[527.28787,297.48122],[0,0],[0.19416,0.31982]],[[527.8105,298.43598],[-0.12838,-0.28357],[0.27711,-0.84527]],[[529.16148,295.94036],[-0.16892,0.12993],[0.7748,-0.59593]],[[530.74584,296.10402],[-0.3553,-0.53727],[0.13501,0.08457]],[530.94836,296.3236],[[530.9628,296.38221],[0,0],[0.70876,0.88785]],[[533.66054,298.60949],[-0.71045,-0.91573],[1.82932,-4.42318]],[[533.60404,283.31814],[0.95787,4.53317],[-2.88961,-4.68212]],[[519.13388,282.89747],[2.29477,-6.81127],[-1.96671,4.42995]],[[519.12986,298.51446],[-0.1294,-4.83129],[0.27958,0.14891]]],&quot;closed&quot;:true}]}" fill="#adb8ff" stroke="none" stroke-width="0.5" stroke-linecap="butt"/><path d="M357.16368,166.36053c-0.0171,-0.02887 -0.02967,-0.06517 -0.03479,-0.11079c-0.02793,-0.24844 0.22051,-0.27636 0.22051,-0.27636c0.2863,-0.03199 2.27546,-0.26232 2.40999,0.05533c0.14212,0.33559 -1.25031,1.8646 -1.57325,1.88717c-0.60162,0.04204 -0.80647,-1.01908 -0.97165,-1.42919z" fill="#000000" stroke="none" stroke-width="0.5" stroke-linecap="butt"/><path d="M358.23944,168.56084c-0.0171,-0.02887 -0.02967,-0.06517 -0.03479,-0.11079c-0.02793,-0.24844 0.22051,-0.27636 0.22051,-0.27636c0.2863,-0.03199 2.27546,-0.26232 2.40999,0.05533c0.14212,0.33559 -1.25031,1.86459 -1.57325,1.88716c-0.60162,0.04204 -0.80647,-1.01908 -0.97165,-1.42919z" fill="#000000" stroke="none" stroke-width="0.5" stroke-linecap="butt"/><path d="M355.47768,168.51473c-0.37879,0.15256 -0.81469,-0.04363 -0.97361,-0.4382c-0.15892,-0.39457 0.01932,-0.83812 0.39811,-0.99068c0.37879,-0.15256 0.81469,0.04363 0.97361,0.43821c0.15892,0.39457 -0.01932,0.83812 -0.39811,0.99068z" fill="#000000" stroke="none" stroke-width="0" stroke-linecap="butt"/><path d="M281.75531,160.51451l-0.27544,-0.04114c-0.76463,-0.50595 0.19457,1.28262 -0.14783,1.56691c-0.1571,0.13044 -0.60109,-0.08023 -0.84817,-0.30014c0.05471,0.27733 0.13009,0.52063 0.16397,0.79435l0.05886,-0.00806l0.04021,0.29405c0.01271,0.08035 -0.02043,0.16459 -0.09206,0.21355c-0.07163,0.04896 -0.16215,0.04924 -0.2324,0.00821l-0.17651,-0.09819c-0.27623,-0.0841 -0.67731,-0.64651 -0.76576,-0.37624c-0.23401,0.71506 -0.82877,3.05084 -1.71492,1.61575c-0.10312,-0.00581 -0.16708,-0.09939 -0.16708,-0.09939c-1.24515,-1.82182 -3.59871,-3.70606 -4.02209,-5.93466c-0.95444,-3.40044 3.46493,-5.01891 5.96128,-3.85825c1.06833,0.98414 4.68681,4.65062 3.73126,6.21971c-0.43919,-0.00017 -0.93541,0.02549 -1.39196,-0.02441c-0.05924,0.03068 -0.12135,0.02795 -0.12135,0.02795zM278.03534,163.77721c0.67924,1.32029 0.83849,-1.25365 1.14525,-1.52434c0.3222,-0.28432 0.74383,0.06394 1.07545,0.22722c-0.13521,-0.27122 -0.21249,-0.72225 -0.24448,-0.93882l-0.02999,-0.21937c-0.01271,-0.08035 0.02043,-0.16459 0.09206,-0.21355c0.07546,-0.05158 0.17188,-0.04913 0.24349,-0.00128l0.21239,0.13505l-0.02686,0.04224c0.14812,0.06715 0.30611,0.14417 0.42174,0.21445c-0.10787,-0.37131 -0.15604,-1.13891 -0.12729,-1.22698c0.13189,-0.4039 0.34945,-0.43553 0.60873,-0.32987c0.06919,-0.00277 0.12653,0.02913 0.12653,0.02913l0.01956,0.01748c0.47212,0.14479 1.03487,-0.01675 1.51444,0.13762c-0.4284,-2.03604 -2.31524,-4.08189 -3.77087,-5.47377c-2.18541,-0.97153 -6.14321,0.39098 -5.29611,3.3982c0.38076,2.07217 2.59758,3.9034 3.82902,5.60548c0.13686,-0.01513 0.20695,0.12109 0.20695,0.12109z" fill="#697b9a" stroke="none" stroke-width="0.5" stroke-linecap="butt"/><path d="M277.8248,163.69944c-1.23143,-1.70208 -3.48774,-3.58237 -3.8685,-5.65454c-0.8471,-3.00723 3.1649,-4.40603 5.35031,-3.4345c1.45562,1.39189 3.37283,3.49276 3.80124,5.52881c-0.47956,-0.15437 -1.04366,0.01084 -1.51578,-0.13394l-0.09988,-0.05075c0,0 0.02291,0.00151 -0.04628,0.00428c-0.25928,-0.10566 -0.48046,-0.06718 -0.61235,0.33672c-0.02875,0.08806 0.01253,0.86383 0.12041,1.23514c-0.11563,-0.07028 -0.27513,-0.14595 -0.42325,-0.2131l0.02731,-0.04263l-0.21313,-0.13443c-0.07161,-0.04785 -0.17011,-0.04867 -0.24557,0.00291c-0.07163,0.04896 -0.10701,0.13473 -0.0943,0.21508l0.02899,0.21999c0.03199,0.21657 0.10687,0.66894 0.24208,0.94016c-0.33161,-0.16327 -0.76249,-0.508 -1.08469,-0.22368c-0.30676,0.27069 -0.4786,2.84596 -1.15784,1.52567c0,0 -0.0719,-0.13633 -0.20876,-0.1212z" data-paper-data="{&quot;noHover&quot;:false,&quot;origItem&quot;:[&quot;Path&quot;,{&quot;applyMatrix&quot;:true,&quot;segments&quot;:[[[520.96777,302.03232],[0,0],[-0.42378,3.38936]],[[525.12171,300.62378],[-0.93402,0.11592],[0.98104,-0.12176]],[[526.86936,302.45137],[-0.41789,-0.74058],[0.09527,-0.69066]],[[527.6237,300.35091],[-0.22037,0.45285],[0,0]],[[527.85149,299.89533],[0,0],[0.08017,-0.16912]],[[528.30355,299.60925],[-0.1996,0],[0.21027,0]],[[528.76766,299.92288],[-0.07389,-0.18384],[0,0]],[528.99575,300.4551],[[528.88991,300.50046],[0,0],[0.19416,0.31982]],[[529.41254,301.45522],[-0.12838,-0.28357],[0.27711,-0.84527]],[[530.76352,298.95959],[-0.16892,0.12993],[0.7748,-0.59593]],[[532.34789,299.12326],[-0.3553,-0.53727],[0.13501,0.08457]],[532.55041,299.34284],[[532.56485,299.40144],[0,0],[0.70876,0.88785]],[[535.26259,301.62872],[-0.71045,-0.91573],[1.82932,-4.42318]],[[535.20609,286.33737],[0.95787,4.53317],[-2.88961,-4.68212]],[[520.73593,285.9167],[2.29477,-6.81127],[-1.96671,4.42995]],[[520.73191,301.53369],[-0.1294,-4.83129],[0.27958,0.14891]]],&quot;closed&quot;:true}]}" fill="#adb8ff" stroke="none" stroke-width="0.5" stroke-linecap="butt"/><path d="M275.83976,158.81322c-0.02132,0.01991 -0.04979,0.03736 -0.08757,0.05024c-0.20571,0.07014 -0.27585,-0.13558 -0.27585,-0.13558c-0.08067,-0.2371 -0.64796,-1.88294 -0.4034,-2.05652c0.25837,-0.18338 1.81678,0.7131 1.89629,0.98307c0.14812,0.50295 -0.71453,0.87518 -1.03186,1.09207z" fill="#000000" stroke="none" stroke-width="0.5" stroke-linecap="butt"/><path d="M277.50687,157.48865c-0.02132,0.01991 -0.04979,0.03736 -0.08757,0.05024c-0.20571,0.07014 -0.27585,-0.13557 -0.27585,-0.13557c-0.08067,-0.2371 -0.64796,-1.88294 -0.40341,-2.05652c0.25837,-0.18338 1.81678,0.7131 1.89629,0.98307c0.14812,0.50295 -0.71453,0.87518 -1.03186,1.09207z" fill="#000000" stroke="none" stroke-width="0.5" stroke-linecap="butt"/><path d="M277.98385,159.84212c0.20032,0.2931 0.11521,0.69986 -0.19011,0.90853c-0.30531,0.20867 -0.71521,0.14023 -0.91553,-0.15287c-0.20032,-0.2931 -0.11521,-0.69986 0.1901,-0.90853c0.30531,-0.20867 0.71522,-0.14023 0.91554,0.15287z" fill="#000000" stroke="none" stroke-width="0" stroke-linecap="butt"/><path d="M291.91174,181.0709l-0.07992,-0.31021c0.19315,-1.0368 -1.27145,0.78113 -1.7261,0.54588c-0.2086,-0.10793 -0.18449,-0.67271 -0.06231,-1.03303c-0.26925,0.18229 -0.49318,0.37122 -0.76794,0.52983l0.03492,0.05874l-0.29345,0.17442c-0.07943,0.04949 -0.1835,0.05214 -0.26748,-0.00179c-0.08398,-0.05393 -0.12485,-0.14969 -0.11289,-0.2425l0.02487,-0.23099c-0.03475,-0.33032 0.38121,-1.00733 0.05525,-0.97985c-0.86237,0.07269 -3.60331,0.48984 -2.4804,-1.09224c-0.04008,-0.11184 0.03038,-0.22155 0.03038,-0.22155c1.37164,-2.13575 2.31245,-5.47362 4.4834,-6.92123c3.1742,-2.53553 6.86993,1.42032 6.75961,4.58505c-0.56354,1.57289 -2.82521,7.04971 -4.91573,6.74095c-0.19672,-0.46531 -0.44635,-0.97945 -0.59819,-1.48545c-0.05906,-0.049 -0.08401,-0.11602 -0.08401,-0.11602zM286.78781,178.59308c-1.09407,1.31143 1.70391,0.32618 2.12818,0.52977c0.44563,0.21384 0.26574,0.81661 0.24145,1.24108c0.22669,-0.26483 0.66981,-0.5489 0.88488,-0.67987l0.21893,-0.13012c0.07943,-0.04949 0.18351,-0.05215 0.26749,0.00178c0.08846,0.05682 0.1291,0.16004 0.11051,0.25735l-0.04784,0.28554l-0.05678,-0.00952c-0.00473,0.18701 -0.01549,0.3889 -0.03809,0.54289c0.34497,-0.28074 1.1365,-0.67589 1.24267,-0.68491c0.48698,-0.04137 0.61802,0.1749 0.62234,0.49694c0.03395,0.07206 0.02587,0.1471 0.02587,0.1471l-0.00975,0.02856c0.05829,0.56503 0.48171,1.08873 0.53318,1.66594c1.96472,-1.36661 3.28598,-4.28253 4.10781,-6.44849c0.04938,-2.75056 -3.1683,-6.33223 -5.97408,-4.08669c-2.02434,1.33234 -2.97033,4.50161 -4.22126,6.56914c0.07739,0.13819 -0.0355,0.27351 -0.0355,0.27351z" fill="#697b9a" stroke="none" stroke-width="0.5" stroke-linecap="butt"/><path d="M286.7758,178.33518c1.25093,-2.06753 2.23118,-5.30062 4.25552,-6.63295c2.80577,-2.24554 6.0862,1.37727 6.03682,4.12783c-0.82184,2.16595 -2.18777,5.13871 -4.15249,6.50532c-0.05147,-0.57721 -0.47938,-1.10068 -0.53767,-1.66571l0.00898,-0.12856c0,0 0.00867,0.02496 -0.02528,-0.0471c-0.00432,-0.32203 -0.14423,-0.53907 -0.63121,-0.4977c-0.10617,0.00902 -0.90945,0.40054 -1.25441,0.68129c0.0226,-0.15399 0.03126,-0.35688 0.03599,-0.54389l0.0574,0.00983l0.04685,-0.28603c0.01858,-0.09731 -0.02471,-0.20202 -0.11318,-0.25883c-0.08398,-0.05393 -0.19068,-0.05296 -0.27011,-0.00347l-0.22004,0.12933c-0.21507,0.13098 -0.66069,0.41311 -0.88738,0.67793c0.02429,-0.42448 0.19628,-1.03545 -0.24935,-1.24929c-0.42427,-0.2036 -3.22929,0.76892 -2.13523,-0.54251c0,0 0.11219,-0.13729 0.0348,-0.27548z" data-paper-data="{&quot;noHover&quot;:false,&quot;origItem&quot;:[&quot;Path&quot;,{&quot;applyMatrix&quot;:true,&quot;segments&quot;:[[[520.96777,302.03232],[0,0],[-0.42378,3.38936]],[[525.12171,300.62378],[-0.93402,0.11592],[0.98104,-0.12176]],[[526.86936,302.45137],[-0.41789,-0.74058],[0.09527,-0.69066]],[[527.6237,300.35091],[-0.22037,0.45285],[0,0]],[[527.85149,299.89533],[0,0],[0.08017,-0.16912]],[[528.30355,299.60925],[-0.1996,0],[0.21027,0]],[[528.76766,299.92288],[-0.07389,-0.18384],[0,0]],[528.99575,300.4551],[[528.88991,300.50046],[0,0],[0.19416,0.31982]],[[529.41254,301.45522],[-0.12838,-0.28357],[0.27711,-0.84527]],[[530.76352,298.95959],[-0.16892,0.12993],[0.7748,-0.59593]],[[532.34789,299.12326],[-0.3553,-0.53727],[0.13501,0.08457]],[532.55041,299.34284],[[532.56485,299.40144],[0,0],[0.70876,0.88785]],[[535.26259,301.62872],[-0.71045,-0.91573],[1.82932,-4.42318]],[[535.20609,286.33737],[0.95787,4.53317],[-2.88961,-4.68212]],[[520.73593,285.9167],[2.29477,-6.81127],[-1.96671,4.42995]],[[520.73191,301.53369],[-0.1294,-4.83129],[0.27958,0.14891]]],&quot;closed&quot;:true}]}" fill="#adb8ff" stroke="none" stroke-width="0.5" stroke-linecap="butt"/><path d="M291.06185,174.04183c-0.03065,-0.01365 -0.06191,-0.03599 -0.09249,-0.07023c-0.16652,-0.18646 0.01994,-0.35299 0.01994,-0.35299c0.21499,-0.19174 1.7041,-1.53055 1.99762,-1.34931c0.31009,0.19148 0.05911,2.24421 -0.19122,2.44947c-0.46636,0.38239 -1.24741,-0.36454 -1.61943,-0.60345z" fill="#000000" stroke="none" stroke-width="0.5" stroke-linecap="butt"/><path d="M293.21236,175.21398c-0.03065,-0.01365 -0.0619,-0.03599 -0.09248,-0.07023c-0.16652,-0.18646 0.01994,-0.35299 0.01994,-0.35299c0.21499,-0.19174 1.7041,-1.53055 1.99762,-1.34931c0.31009,0.19148 0.0591,2.24421 -0.19123,2.44948c-0.46636,0.38239 -1.24741,-0.36454 -1.61942,-0.60345z" fill="#000000" stroke="none" stroke-width="0.5" stroke-linecap="butt"/><path d="M290.93318,176.77434c-0.22067,0.3436 -0.68972,0.4358 -1.04764,0.20594c-0.35792,-0.22986 -0.46918,-0.69476 -0.24851,-1.03836c0.22067,-0.3436 0.68972,-0.4358 1.04764,-0.20594c0.35792,0.22986 0.46918,0.69476 0.24851,1.03836z" fill="#000000" stroke="none" stroke-width="0" stroke-linecap="butt"/><path d="M313.54266,178.84316l-0.31136,-0.07534c-0.8242,-0.65799 0.09152,1.48942 -0.32988,1.78006c-0.19335,0.13335 -0.68045,-0.1535 -0.94099,-0.43076c0.03427,0.32335 0.09571,0.60981 0.1065,0.92689l0.06826,-0.00319l0.01595,0.341c0.00633,0.09336 -0.04027,0.18648 -0.12735,0.23523c-0.08708,0.04875 -0.19082,0.0398 -0.2671,-0.0144l-0.19216,-0.13057c-0.30786,-0.12465 -0.70977,-0.81009 -0.83879,-0.5095c-0.34135,0.79526 -1.26203,3.41043 -2.13028,1.67548c-0.11755,-0.01722 -0.18124,-0.13098 -0.18124,-0.13098c-1.23994,-2.21481 -3.74341,-4.61465 -4.00018,-7.21131c-0.74517,-3.99364 4.48387,-5.39521 7.22503,-3.80974c1.12316,1.23695 4.89326,5.80828 3.63777,7.50809c-0.50315,-0.04518 -1.0743,-0.06662 -1.59226,-0.17055c-0.07102,0.02908 -0.1419,0.01958 -0.1419,0.01958zM308.9465,182.20018c0.64296,1.58222 1.08907,-1.35041 1.46825,-1.62912c0.39827,-0.29274 0.84565,0.14945 1.20886,0.37048c-0.12713,-0.32459 -0.16947,-0.84924 -0.18393,-1.10064l-0.01189,-0.2544c-0.00633,-0.09336 0.04027,-0.18648 0.12735,-0.23523c0.09174,-0.05136 0.20195,-0.03869 0.27909,0.02347l0.22951,0.17649l-0.0351,0.04564c0.16282,0.09211 0.33594,0.19653 0.46121,0.28889c-0.08556,-0.43646 -0.06211,-1.32083 -0.02015,-1.41878c0.19248,-0.44924 0.44497,-0.46319 0.7312,-0.31557c0.07956,0.00392 0.14199,0.04633 0.14199,0.04633l0.02061,0.02204c0.52607,0.21424 1.18737,0.08681 1.72099,0.3128c-0.28226,-2.37656 -2.23443,-4.91376 -3.75955,-6.65754c-2.40429,-1.33694 -7.0783,-0.18134 -6.41582,3.3508c0.22397,2.41308 2.57619,4.7382 3.81269,6.8144c0.15835,-0.00332 0.22469,0.15993 0.22469,0.15993z" fill="#697b9a" stroke="none" stroke-width="0.5" stroke-linecap="butt"/><path d="M308.71324,182.08951c-1.23649,-2.0762 -3.62893,-4.46157 -3.8529,-6.87465c-0.66248,-3.53213 4.07734,-4.72377 6.48163,-3.38683c1.52513,1.74378 3.50645,4.34713 3.78871,6.7237c-0.53362,-0.22599 -1.19682,-0.09448 -1.7229,-0.30872l-0.10923,-0.06838c0,0 0.0261,0.00408 -0.05346,0.00017c-0.28624,-0.14762 -0.54358,-0.12618 -0.73606,0.32305c-0.04196,0.09794 -0.07413,0.99097 0.01143,1.42743c-0.12527,-0.09236 -0.30026,-0.1954 -0.46309,-0.2875l0.03565,-0.04604l-0.23041,-0.17584c-0.07714,-0.06216 -0.18991,-0.07318 -0.28165,-0.02182c-0.08708,0.04875 -0.1364,0.14339 -0.13007,0.23676l0.01068,0.25501c0.01446,0.2514 0.05392,0.77734 0.18105,1.10193c-0.3632,-0.22103 -0.82154,-0.66012 -1.21981,-0.36738c-0.37918,0.27871 -0.83985,3.21157 -1.48281,1.62935c0,0 -0.06842,-0.16356 -0.22676,-0.16024z" data-paper-data="{&quot;noHover&quot;:false,&quot;origItem&quot;:[&quot;Path&quot;,{&quot;applyMatrix&quot;:true,&quot;segments&quot;:[[[520.96777,302.03232],[0,0],[-0.42378,3.38936]],[[525.12171,300.62378],[-0.93402,0.11592],[0.98104,-0.12176]],[[526.86936,302.45137],[-0.41789,-0.74058],[0.09527,-0.69066]],[[527.6237,300.35091],[-0.22037,0.45285],[0,0]],[[527.85149,299.89533],[0,0],[0.08017,-0.16912]],[[528.30355,299.60925],[-0.1996,0],[0.21027,0]],[[528.76766,299.92288],[-0.07389,-0.18384],[0,0]],[528.99575,300.4551],[[528.88991,300.50046],[0,0],[0.19416,0.31982]],[[529.41254,301.45522],[-0.12838,-0.28357],[0.27711,-0.84527]],[[530.76352,298.95959],[-0.16892,0.12993],[0.7748,-0.59593]],[[532.34789,299.12326],[-0.3553,-0.53727],[0.13501,0.08457]],[532.55041,299.34284],[[532.56485,299.40144],[0,0],[0.70876,0.88785]],[[535.26259,301.62872],[-0.71045,-0.91573],[1.82932,-4.42318]],[[535.20609,286.33737],[0.95787,4.53317],[-2.88961,-4.68212]],[[520.73593,285.9167],[2.29477,-6.81127],[-1.96671,4.42995]],[[520.73191,301.53369],[-0.1294,-4.83129],[0.27958,0.14891]]],&quot;closed&quot;:true}]}" fill="#adb8ff" stroke="none" stroke-width="0.5" stroke-linecap="butt"/><path d="M306.93951,176.28804c-0.02646,0.02063 -0.06087,0.03772 -0.10547,0.0486c-0.24287,0.05929 -0.30215,-0.18358 -0.30215,-0.18358c-0.06814,-0.27991 -0.54949,-2.22364 -0.25152,-2.39746c0.3148,-0.18363 2.00842,1.0031 2.07187,1.32055c0.11819,0.59139 -0.90828,0.9295 -1.29406,1.14547z" fill="#000000" stroke="none" stroke-width="0.5" stroke-linecap="butt"/><path d="M308.9852,174.94127c-0.02646,0.02063 -0.06087,0.03771 -0.10547,0.04859c-0.24287,0.05929 -0.30216,-0.18358 -0.30216,-0.18358c-0.06814,-0.27991 -0.54949,-2.22365 -0.25152,-2.39747c0.3148,-0.18363 2.00843,1.0031 2.07187,1.32055c0.11819,0.59139 -0.90828,0.9295 -1.29406,1.14547z" fill="#000000" stroke="none" stroke-width="0.5" stroke-linecap="butt"/><path d="M309.29059,177.68648c0.19948,0.35632 0.0603,0.81363 -0.31086,1.02142c-0.37117,0.20779 -0.83378,0.08739 -1.03326,-0.26893c-0.19948,-0.35632 -0.0603,-0.81363 0.31086,-1.02142c0.37117,-0.20779 0.83378,-0.08739 1.03326,0.26893z" fill="#000000" stroke="none" stroke-width="0" stroke-linecap="butt"/><path d="M317.28847,163.39572l-0.06433,-0.31382c0.24467,-1.02586 -1.30886,0.71668 -1.7512,0.45903c-0.20295,-0.11822 -0.15068,-0.68108 -0.01066,-1.03485c-0.27802,0.16862 -0.5111,0.34613 -0.79344,0.49083l0.03194,0.06041l-0.30179,0.15955c-0.08179,0.04546 -0.18588,0.04292 -0.26706,-0.01514c-0.08118,-0.05805 -0.11723,-0.15573 -0.10064,-0.24783l0.03637,-0.22946c-0.01822,-0.33164 0.43101,-0.98704 0.10409,-0.97587c-0.86492,0.02955 -3.62327,0.30936 -2.42278,-1.2147c-0.03444,-0.1137 0.0414,-0.21975 0.0414,-0.21975c1.47654,-2.06462 2.5828,-5.35137 4.82331,-6.6888c3.29681,-2.37392 6.79047,1.76149 6.5223,4.91677c-0.64135,1.54279 -3.1736,6.89989 -5.24611,6.48716c-0.17324,-0.47455 -0.39691,-1.00051 -0.52329,-1.51345c-0.05654,-0.05189 -0.07811,-0.12008 -0.07811,-0.12008zM312.29462,160.6652c-1.15816,1.25519 1.6855,0.41083 2.09908,0.63535c0.4344,0.23582 0.22465,0.82885 0.1792,1.25159c0.23963,-0.25318 0.69638,-0.51477 0.91772,-0.63485l0.22515,-0.11903c0.08179,-0.04546 0.18588,-0.04292 0.26706,0.01514c0.08552,0.06116 0.12095,0.16628 0.09753,0.26254l-0.06204,0.28279l-0.05624,-0.01234c-0.01406,0.18654 -0.03488,0.38764 -0.06514,0.54031c0.35855,-0.26317 1.16882,-0.61832 1.27531,-0.62203c0.48844,-0.01701 0.60852,0.20554 0.59676,0.52739c0.03031,0.07366 0.0185,0.14821 0.0185,0.14821l-0.01117,0.02803c0.03002,0.56723 0.42676,1.11142 0.44935,1.69048c2.03049,-1.26683 3.49566,-4.11316 4.42459,-6.23539c0.18662,-2.74467 -2.84826,-6.48249 -5.76263,-4.37981c-2.08833,1.22962 -3.19134,4.34771 -4.54392,6.35023c0.07039,0.14188 -0.04911,0.27139 -0.04911,0.27139z" fill="#697b9a" stroke="none" stroke-width="0.5" stroke-linecap="butt"/><path d="M312.2955,160.40703c1.35258,-2.00251 2.49299,-5.18264 4.58133,-6.41226c2.91437,-2.10268 6.00986,1.67937 5.82324,4.42403c-0.92893,2.12223 -2.44156,5.0231 -4.47205,6.28993c-0.02259,-0.57906 -0.42383,-1.12324 -0.45385,-1.69047l0.01538,-0.12795c0,0 0.00741,0.02536 -0.0229,-0.0483c0.01177,-0.32185 -0.11715,-0.5456 -0.60559,-0.52859c-0.10649,0.00371 -0.9283,0.35465 -1.28686,0.61782c0.03027,-0.15267 0.04903,-0.35487 0.06309,-0.54142l0.05684,0.01267l0.06107,-0.28334c0.02342,-0.09626 -0.0146,-0.203 -0.10011,-0.26416c-0.08118,-0.05805 -0.18781,-0.06241 -0.2696,-0.01695l-0.22622,0.11819c-0.22134,0.12008 -0.68049,0.37961 -0.92012,0.63279c0.04545,-0.42274 0.24773,-1.02436 -0.18667,-1.26018c-0.41358,-0.22452 -3.26365,0.60677 -2.10548,-0.64842c0,0 0.1189,-0.13152 0.0485,-0.2734z" data-paper-data="{&quot;noHover&quot;:false,&quot;origItem&quot;:[&quot;Path&quot;,{&quot;applyMatrix&quot;:true,&quot;segments&quot;:[[[520.96777,302.03232],[0,0],[-0.42378,3.38936]],[[525.12171,300.62378],[-0.93402,0.11592],[0.98104,-0.12176]],[[526.86936,302.45137],[-0.41789,-0.74058],[0.09527,-0.69066]],[[527.6237,300.35091],[-0.22037,0.45285],[0,0]],[[527.85149,299.89533],[0,0],[0.08017,-0.16912]],[[528.30355,299.60925],[-0.1996,0],[0.21027,0]],[[528.76766,299.92288],[-0.07389,-0.18384],[0,0]],[528.99575,300.4551],[[528.88991,300.50046],[0,0],[0.19416,0.31982]],[[529.41254,301.45522],[-0.12838,-0.28357],[0.27711,-0.84527]],[[530.76352,298.95959],[-0.16892,0.12993],[0.7748,-0.59593]],[[532.34789,299.12326],[-0.3553,-0.53727],[0.13501,0.08457]],[532.55041,299.34284],[[532.56485,299.40144],[0,0],[0.70876,0.88785]],[[535.26259,301.62872],[-0.71045,-0.91573],[1.82932,-4.42318]],[[535.20609,286.33737],[0.95787,4.53317],[-2.88961,-4.68212]],[[520.73593,285.9167],[2.29477,-6.81127],[-1.96671,4.42995]],[[520.73191,301.53369],[-0.1294,-4.83129],[0.27958,0.14891]]],&quot;closed&quot;:true}]}" fill="#adb8ff" stroke="none" stroke-width="0.5" stroke-linecap="butt"/><path d="M316.79052,156.33298c-0.02993,-0.01516 -0.06003,-0.03903 -0.08886,-0.07476c-0.15701,-0.19455 0.03754,-0.35156 0.03754,-0.35156c0.2243,-0.18078 1.77838,-1.44357 2.06248,-1.24791c0.30015,0.20672 -0.053,2.24437 -0.31326,2.43687c-0.48487,0.35863 -1.22766,-0.42635 -1.58728,-0.68354z" fill="#000000" stroke="none" stroke-width="0.5" stroke-linecap="butt"/><path d="M318.87985,157.61102c-0.02993,-0.01516 -0.06003,-0.03903 -0.08886,-0.07476c-0.15701,-0.19455 0.03754,-0.35156 0.03754,-0.35156c0.2243,-0.18078 1.77838,-1.44357 2.06248,-1.24791c0.30015,0.20672 -0.053,2.24437 -0.31326,2.43687c-0.48487,0.35863 -1.22766,-0.42635 -1.58728,-0.68354z" fill="#000000" stroke="none" stroke-width="0.5" stroke-linecap="butt"/><path d="M316.52561,159.05567c-0.23755,0.33216 -0.71061,0.40083 -1.05661,0.15339c-0.346,-0.24745 -0.43392,-0.71731 -0.19637,-1.04947c0.23755,-0.33216 0.71061,-0.40083 1.05661,-0.15339c0.346,0.24745 0.43392,0.71731 0.19637,1.04947z" fill="#000000" stroke="none" stroke-width="0" stroke-linecap="butt"/><path d="M345.79716,178.27134l-0.31787,-0.03973c-0.89317,-0.56081 0.25897,1.46959 -0.12696,1.80591c-0.17707,0.15431 -0.69342,-0.07575 -0.98358,-0.32185c0.07053,0.31742 0.16389,0.59512 0.21038,0.90895l0.06747,-0.01087l0.05431,0.33703c0.01682,0.09206 -0.01898,0.18983 -0.1,0.24809c-0.08103,0.05826 -0.18511,0.06108 -0.26702,0.01583l-0.20567,-0.10805c-0.31996,-0.08912 -0.79663,-0.72485 -0.89092,-0.41162c-0.24945,0.8287 -0.86923,3.53104 -1.92767,1.90511c-0.11874,-0.00385 -0.19486,-0.1097 -0.19486,-0.1097c-1.48189,-2.06078 -4.2401,-4.16288 -4.78817,-6.71401c-1.19095,-3.88408 3.84659,-5.8666 6.74911,-4.60049c1.25554,1.10235 5.51728,5.21918 4.46155,7.04978c-0.50504,0.01187 -1.07496,0.055 -1.60133,0.01017c-0.06729,0.03691 -0.13879,0.03547 -0.13879,0.03547zM341.60906,182.12543c0.81735,1.49959 0.92978,-1.46465 1.2751,-1.78436c0.3627,-0.3358 0.85711,0.0531 1.24293,0.23174c-0.16294,-0.30818 -0.26419,-0.82471 -0.30692,-1.07286l-0.04052,-0.25143c-0.01682,-0.09206 0.01898,-0.18983 0.1,-0.24809c0.08536,-0.06138 0.19629,-0.06122 0.27995,-0.00816l0.24795,0.14947l-0.02972,0.04931c0.17218,0.07315 0.35597,0.15738 0.49086,0.23502c-0.13425,-0.42402 -0.21072,-1.30539 -0.18008,-1.40745c0.14057,-0.46808 0.38987,-0.51044 0.69094,-0.39605c0.07949,-0.00508 0.14631,0.03002 0.14631,0.03002l0.02297,0.01957c0.54689,0.15352 1.18958,-0.04769 1.74529,0.11665c-0.54857,-2.32955 -2.7745,-4.63032 -4.48661,-6.19092c-2.53977,-1.05717 -7.05357,0.61835 -5.99685,4.0532c0.49477,2.3724 3.09428,4.41732 4.5571,6.34077c0.15696,-0.02116 0.2413,0.13357 0.2413,0.13357z" fill="#697b9a" stroke="none" stroke-width="0.5" stroke-linecap="butt"/><path d="M341.36481,182.04178c-1.46282,-1.92345 -4.10909,-4.0237 -4.60386,-6.3961c-1.05672,-3.43485 3.51841,-5.15359 6.05818,-4.09642c1.71211,1.5606 3.97448,3.92381 4.52304,6.25336c-0.55571,-0.16435 -1.19984,0.04113 -1.74672,-0.11239l-0.11625,-0.05561c0,0 0.0264,0.00111 -0.0531,0.00619c-0.30107,-0.11439 -0.55435,-0.06406 -0.69492,0.40403c-0.03064,0.10205 0.03814,0.99301 0.17239,1.41703c-0.13489,-0.07764 -0.32039,-0.16027 -0.49257,-0.23343l0.03024,-0.04977l-0.24878,-0.14873c-0.08366,-0.05306 -0.19695,-0.05129 -0.28231,0.01009c-0.08103,0.05826 -0.11935,0.15786 -0.10253,0.24992l0.03938,0.25218c0.04273,0.24816 0.14127,0.7663 0.3042,1.07448c-0.38582,-0.17865 -0.89077,-0.56323 -1.25347,-0.22742c-0.34532,0.31971 -0.47218,3.28582 -1.28953,1.78623c0,0 -0.08643,-0.1548 -0.24339,-0.13364z" data-paper-data="{&quot;noHover&quot;:false,&quot;origItem&quot;:[&quot;Path&quot;,{&quot;applyMatrix&quot;:true,&quot;segments&quot;:[[[520.96777,302.03232],[0,0],[-0.42378,3.38936]],[[525.12171,300.62378],[-0.93402,0.11592],[0.98104,-0.12176]],[[526.86936,302.45137],[-0.41789,-0.74058],[0.09527,-0.69066]],[[527.6237,300.35091],[-0.22037,0.45285],[0,0]],[[527.85149,299.89533],[0,0],[0.08017,-0.16912]],[[528.30355,299.60925],[-0.1996,0],[0.21027,0]],[[528.76766,299.92288],[-0.07389,-0.18384],[0,0]],[528.99575,300.4551],[[528.88991,300.50046],[0,0],[0.19416,0.31982]],[[529.41254,301.45522],[-0.12838,-0.28357],[0.27711,-0.84527]],[[530.76352,298.95959],[-0.16892,0.12993],[0.7748,-0.59593]],[[532.34789,299.12326],[-0.3553,-0.53727],[0.13501,0.08457]],[532.55041,299.34284],[[532.56485,299.40144],[0,0],[0.70876,0.88785]],[[535.26259,301.62872],[-0.71045,-0.91573],[1.82932,-4.42318]],[[535.20609,286.33737],[0.95787,4.53317],[-2.88961,-4.68212]],[[520.73593,285.9167],[2.29477,-6.81127],[-1.96671,4.42995]],[[520.73191,301.53369],[-0.1294,-4.83129],[0.27958,0.14891]]],&quot;closed&quot;:true}]}" fill="#adb8ff" stroke="none" stroke-width="0.5" stroke-linecap="butt"/><path d="M338.94792,176.47745c-0.02396,0.02348 -0.05623,0.04434 -0.09932,0.06018c-0.23463,0.08631 -0.32094,-0.14832 -0.32094,-0.14832c-0.09927,-0.27043 -0.79684,-2.14746 -0.52038,-2.35379c0.29207,-0.21798 2.10877,0.77012 2.20762,1.07839c0.18415,0.57429 -0.79762,1.02603 -1.15658,1.28415z" fill="#000000" stroke="none" stroke-width="0.5" stroke-linecap="butt"/><path d="M340.82862,174.9085c-0.02396,0.02348 -0.05623,0.04434 -0.09932,0.06018c-0.23463,0.08631 -0.32094,-0.14832 -0.32094,-0.14832c-0.09927,-0.27043 -0.79684,-2.14746 -0.52038,-2.35379c0.29207,-0.21798 2.10877,0.77012 2.20762,1.07839c0.18415,0.57429 -0.79762,1.02603 -1.15658,1.28415z" fill="#000000" stroke="none" stroke-width="0.5" stroke-linecap="butt"/><path d="M341.44175,177.60173c0.23841,0.33154 0.15171,0.80164 -0.19365,1.04998c-0.34536,0.24834 -0.8186,0.18089 -1.057,-0.15065c-0.23841,-0.33154 -0.15171,-0.80164 0.19365,-1.04998c0.34536,-0.24834 0.8186,-0.18089 1.057,0.15065z" fill="#000000" stroke="none" stroke-width="0" stroke-linecap="butt"/><path d="M368.67371,122.17731c0.45502,0.06727 0.65285,-0.0167 0.68565,-0.18811c2.25662,0.06838 3.82756,2.58169 4.9458,4.25905c0.4273,1.16694 1.11752,2.26069 1.38768,3.59886c0.25951,1.28544 0.08655,3.06267 0.65918,4.2307c0.4151,2.58284 0.72395,5.15771 0.72395,7.78205c0,3.09308 -2.24941,4.47032 -5.25872,4.90827c-2.79346,0.02112 -0.51816,1.01353 -3.21293,-0.06759c-2.61784,-0.88964 -2.05638,-5.5779 -1.35689,-7.59214c1.05396,-3.04672 2.75133,-7.21703 3.54022,-10.37098c0.31627,-1.2674 -3.73566,-7.64128 -2.11395,-6.56014z" data-paper-data="{&quot;noHover&quot;:false,&quot;origItem&quot;:[&quot;Path&quot;,{&quot;applyMatrix&quot;:true,&quot;segments&quot;:[[[273.23414,152.39607],[0.0328,0.17141],[-2.25662,0.06838]],[[267.6027,156.64807],[1.11824,-1.67736],[-0.4273,1.16694]],[[266.22965,160.23355],[0.27016,-1.33817],[-0.25952,1.28544]],[[265.58001,164.43753],[0.57263,-1.16803],[-0.4151,2.58284]],[[264.8422,172.1822],[0,-2.62434],[0,3.09309]],[[270.07461,177.07606],[-3.00931,-0.43795],[2.79345,0.02112]],[[278.25584,176.58401],[-2.69477,1.08112],[2.61784,-0.88964]],[[279.5891,168.01622],[0.69949,2.01424],[-1.05395,-3.04672]],[[277.20773,158.42042],[0.78889,3.15395],[-0.31628,-1.26739]],[[273.91699,152.58394],[1.62171,-1.08114],[-0.45502,0.06727]]],&quot;closed&quot;:true}],&quot;index&quot;:null}" fill="url(#color-4)" stroke="#000000" stroke-width="0.5" stroke-linecap="butt"/><path d="M263.06555,121.89158c1.62171,-1.08114 -1.43022,5.29274 -1.11395,6.56013c0.13352,0.53381 -0.13141,1.09674 0.05343,1.67841c0.21421,0.67406 0.26674,2.07165 0.67004,2.75557c1.30488,2.21283 3.43361,3.14637 4.10246,5.07985c0.50178,1.44492 0.29176,4.06619 -0.42963,6.16473c-0.28424,0.82685 -0.04447,2.17595 -0.7844,2.42741c-2.69477,1.08112 -1.70518,-0.05415 -4.49864,-0.07527c-3.00931,-0.43795 -5.25872,-1.81519 -5.25872,-4.90827c0,-2.62434 0.30885,-5.19921 0.72395,-7.78205c0.57263,-1.16803 0.39967,-2.94526 0.65918,-4.2307c0.27016,-1.33817 0.96038,-2.43192 1.38768,-3.59886c1.11824,-1.67736 1.54633,-4.19067 3.80295,-4.25905c0.0328,0.17141 0.23063,0.25538 0.68565,0.18811z" data-paper-data="{&quot;noHover&quot;:false,&quot;origItem&quot;:[&quot;Path&quot;,{&quot;applyMatrix&quot;:true,&quot;segments&quot;:[[[273.23414,152.39607],[0.0328,0.17141],[-2.25662,0.06838]],[[267.6027,156.64807],[1.11824,-1.67736],[-0.4273,1.16694]],[[266.22965,160.23355],[0.27016,-1.33817],[-0.25952,1.28544]],[[265.58001,164.43753],[0.57263,-1.16803],[-0.4151,2.58284]],[[264.8422,172.1822],[0,-2.62434],[0,3.09309]],[[270.07461,177.07606],[-3.00931,-0.43795],[2.79345,0.02112]],[[278.25584,176.58401],[-2.69477,1.08112],[2.61784,-0.88964]],[[279.5891,168.01622],[0.69949,2.01424],[-1.05395,-3.04672]],[[277.20773,158.42042],[0.78889,3.15395],[-0.31628,-1.26739]],[[273.91699,152.58394],[1.62171,-1.08114],[-0.45502,0.06727]]],&quot;closed&quot;:true}],&quot;index&quot;:null}" fill="url(#color-5)" stroke="#000000" stroke-width="0.5" stroke-linecap="butt"/></g></g></svg>