<svg version="1.1" xmlns="http://www.w3.org/2000/svg" xmlns:xlink="http://www.w3.org/1999/xlink" width="66.43219" height="69.7538" viewBox="0,0,66.43219,69.7538"><defs><linearGradient x1="138.41694" y1="317.52561" x2="204.84913" y2="317.52561" gradientUnits="userSpaceOnUse" id="color-1"><stop offset="0" stop-color="#e200ff"/><stop offset="1" stop-color="#6d0040"/></linearGradient></defs><g transform="translate(-138.41694,-282.64871)"><g data-paper-data="{&quot;isPaintingLayer&quot;:true}" fill-rule="nonzero" stroke-linecap="butt" stroke-linejoin="miter" stroke-miterlimit="10" stroke-dasharray="" stroke-dashoffset="0" style="mix-blend-mode: normal"><path d="M204.84913,317.52561c0,19.26197 -14.87135,34.8769 -33.2161,34.8769c-18.34475,0 -33.21609,-15.61491 -33.21609,-34.8769c0,-19.26198 14.87135,-34.8769 33.21609,-34.8769c18.34474,0 33.2161,15.61491 33.2161,34.8769z" fill="url(#color-1)" stroke="#0b61a3" stroke-width="0"/><text transform="translate(157.59744,342.40031) scale(0.32769,0.32769)" font-size="40" xml:space="preserve" fill="#ffffff" fill-rule="nonzero" stroke="none" stroke-width="1" stroke-linecap="butt" stroke-linejoin="miter" stroke-miterlimit="10" stroke-dasharray="" stroke-dashoffset="0" font-family="&quot;SpongeBoyTT1-Regular&quot;, Sans Serif" font-weight="normal" text-anchor="start" style="mix-blend-mode: normal"><tspan x="0" dy="0">hat</tspan></text><g><path d="M160.54766,315.68712c-1.2407,-2.32635 -2.18044,-4.87039 -3.12817,-7.34394c-0.52088,-0.58706 -0.67846,-1.83817 -0.96673,-2.6129c-0.40576,-1.09051 -1.34282,-2.30946 -1.47215,-3.4131l-0.27247,-0.52047c0,0 -0.03973,-0.07424 -0.1164,-0.12226c-1.52385,-1.92822 0.47964,-3.80858 1.63661,-5.25777c0.32347,-0.42448 0.57337,-0.30053 0.98749,-0.68131c0.31525,-0.28988 0.67465,-0.54878 1.06487,-0.77924c1.51275,-0.89341 3.48885,-1.35945 5.15263,-1.54601c2.66632,-0.30962 4.74831,3.37859 5.70453,5.43288c0.77569,1.14978 1.11113,2.70099 1.63185,3.96436c0.34734,0.84273 0.95413,1.59626 1.07765,2.54813c0.98461,1.56207 1.30899,3.34831 1.85668,5.0643c0.31138,0.97561 0.8572,1.96657 1.22261,2.94733c0.16461,0.43387 0.36394,0.96047 0.49655,1.4644c-0.03519,0.08262 -0.02604,0.16556 -0.02604,0.16556c0.04054,0.34102 0.02396,0.40625 0.18032,0.72727l0.00883,0.07924c0,0 0.0004,0.25663 0.27639,0.23852c0.02097,0.03378 0.05291,0.08938 0.01808,0.11693c-0.19166,0.15165 -0.97773,-0.07172 -1.20967,-0.08269c-1.06322,-0.0503 -2.14246,0.34327 -3.17651,0.45415c-1.40017,0.157 -2.85613,0.35209 -4.04657,1.09233c-0.82174,0.51097 -1.45248,1.21021 -2.23574,1.76681c-0.57243,0.40678 -1.06326,0.67552 -1.43195,1.28696c-0.30099,0.37828 -0.9464,1.61456 -0.95772,1.61686c0,0 -1.71694,-4.87182 -2.27498,-6.60633z" data-paper-data="{&quot;noHover&quot;:false,&quot;origItem&quot;:[&quot;Path&quot;,{&quot;applyMatrix&quot;:true,&quot;segments&quot;:[[[346.63229,37.85079],[-0.03179,0],[0.75,0]],[347.38229,38.60079],[[347.38229,39.35092],[0,0],[-0.00277,0.41528]],[[347.34222,40.72548],[0.03035,-0.48656],[0.4905,-1.04055]],[[349.31624,37.85934],[-0.86508,0.86791],[1.10148,-1.43614]],[[353.28155,35.02104],[-1.55692,0.86303],[2.13036,-1.1809]],[[359.40179,31.202],[-2.2144,1.0551],[3.20797,-1.52851]],[[369.88617,29.59941],[-3.57156,0],[2.63623,0.01279]],[[378.00764,29.35906],[-2.66419,-0.42704],[0.58118,0.09315]],[[381.0297,29.91088],[-0.52564,0.3279],[0.09551,-0.05958]],[[381.08841,29.68139],[0.04329,0.09101],[-0.70036,-0.03234]],[380.38804,28.93251],[[380.38804,28.73054],[0,0],[-0.3032,-0.85287]],[[380.138,26.84883],[0.00581,0.87053],[0,0]],[[380.24998,26.43955],[-0.11198,0.1982],[-0.19172,-1.30691]],[[379.41027,22.61333],[0.29212,1.13947],[-0.64348,-2.5739]],[[377.15756,14.85217],[0.50883,2.54564],[-0.89499,-4.4775]],[[373.90702,1.60024],[2.03912,4.21319],[-0.0423,-2.4328]],[[371.91881,-5.10586],[0.63696,2.22105],[-0.95489,-3.32967]],[[368.94322,-15.53794],[1.62928,3.11557],[-1.82858,-5.44512]],[[356.13388,-30.82758],[6.80428,-0.02681],[-5.33873,0]],[[339.8373,-26.73158],[4.27208,-3.12685],[-1.15077,0.84228]],[[337.16095,-25.29628],[0.93476,-0.97795],[-3.32392,3.32392]],[[331.56725,-12.52686],[-3.29411,-5.28788],[0.17958,0.14261]],[331.82606,-12.18617],[[332.36626,-10.79925],[0,0],[0.01405,2.81673]],[[335.11672,-1.79776],[-0.71414,-2.86175],[0.50734,2.03306]],[[336.81643,5.04183],[-1.14633,-1.62601],[1.68874,6.49892]],[[342.60041,24.38475],[-2.46837,-6.21085],[0.91583,4.52711]],[[346.54089,37.85472],[-1.00465,-4.55624],[0.02916,-0.00258]]],&quot;closed&quot;:true}]}" fill="#d42f37" stroke="#000000" stroke-width="1"/><path d="M168.04763,322.28005c0.01019,0.02059 0.01852,0.04054 0.02517,0.05986c0.3559,-0.12879 0.72097,-0.26612 1.09468,-0.42969c1.69931,-0.7438 2.8971,-1.5026 4.8356,-1.70576c2.39825,-0.25135 4.58695,0.13402 6.95069,0.60514c0.34493,0.06875 2.22002,0.5153 3.23135,1.46072c1.72162,1.60943 2.63271,4.18095 1.50617,5.28815c-0.9328,0.91678 -3.01282,0.94537 -4.28233,1.32424c-3.73648,0.40728 -13.05293,-1.61619 -13.50768,-1.7746c-1.03936,-0.36206 -2.45773,-0.31379 -3.51322,-0.52802c-0.11743,-0.02383 -0.78631,-0.13442 -0.99204,-0.49754c-0.32953,-0.58165 -0.19306,-1.51769 -0.13539,-1.57336c0.30217,-0.34886 1.04923,-0.02336 1.4016,-0.3362c0.26034,-0.26613 0.53,-0.48677 0.80858,-0.67552c0.51847,-0.41227 1.05398,-0.80854 1.57114,-1.20997l0.44966,-0.19831c0,0 0.38012,-0.16442 0.55603,0.19088z" data-paper-data="{&quot;index&quot;:null}" fill="#14130d" stroke="none" stroke-width="0.5"/><path d="M164.51119,319.24854c0.66358,-0.5288 1.16707,-1.29567 1.86942,-1.77972c1.57012,-1.0821 3.01759,-1.69165 4.91611,-1.90453c1.00676,-0.11289 1.90364,-0.16716 2.88988,-0.12407c0.16875,0.00737 1.39531,-0.2313 1.52524,-0.11639c0.54378,0.48093 0.40287,0.98084 0.69209,1.57734c0.00985,0.10298 0.11998,0.71228 0.1399,0.80798c0.10822,0.51987 0.38215,1.02567 0.37862,1.55612c-0.00056,0.08473 0.28094,0.32374 0.29051,0.40696c0.01974,0.1717 -0.15184,0.89877 -0.08741,1.12458c-0.1961,-0.00973 -0.72119,-0.0906 -0.75367,-0.09701c-0.92519,-0.18273 -1.35075,0.17688 -2.32557,0.28619c-2.84029,0.31848 -5.72773,1.12362 -8.14533,2.61686c-0.53121,0.247 -1.14365,1.23643 -1.771,1.40132c-0.24343,0.06398 -0.48268,-0.50271 -0.7299,-0.5293c-0.12359,-0.0133 -0.0018,-0.2362 -0.01416,-0.35309c-0.00624,-0.05894 -0.08998,-0.80047 -0.09845,-0.83259c-0.12963,-0.49146 -0.24263,-0.99306 -0.45392,-1.46815c0.0723,-0.95211 1.10439,-1.8911 1.67764,-2.57249z" data-paper-data="{&quot;noHover&quot;:false,&quot;origItem&quot;:[&quot;Path&quot;,{&quot;applyMatrix&quot;:true,&quot;segments&quot;:[[[348.18908,44.66636],[0.42532,-2.37808],[0.37532,1.25651]],[[348.87286,48.48232],[-0.177,-1.27466],[0.01157,0.08329]],[[348.88254,50.60279],[0.00089,-0.15023],[-0.00177,0.29797]],[[348.82112,51.49461],[-0.29002,-0.0684],[2.07522,0.48945]],[[355.34678,47.65951],[-1.84272,0.65541],[6.14022,-3.07879]],[[373.88683,43.85179],[-6.83134,0],[2.34459,0]],[[380.10517,44.6341],[-2.14894,-0.72166],[0.07542,0.02533]],[[381.2506,44.71679],[-0.46321,-0.07991],[-0.0929,-0.58705]],[[381.13817,42.8515],[0.00117,0.43811],[-0.0048,-1.78642]],[[380.39773,37.72076],[-0.02943,1.91401],[-0.52813,-1.58438]],[[379.35751,31.87991],[1.16356,1.36513],[-0.27803,-0.32618]],[[376.7672,31.83986],[0.39886,0.06624],[-2.33112,-0.38713]],[[369.88617,31.34946],[2.42142,0],[-4.56624,0]],[[357.76053,34.74872],[4.01769,-2.28245],[-1.79721,1.02099]],[[352.85874,38.68071],[1.71704,-1.14469],[-1.54313,1.55459]]],&quot;closed&quot;:true}]}" fill="#ffc241" stroke="none" stroke-width="0.5"/><path d="M163.22061,302.44905c0.07156,0.05586 0.14336,0.118 0.21504,0.18643c0,0 0.19807,0.18996 0.00811,0.38803c-0.18996,0.19807 -0.38803,0.00811 -0.38803,0.00811c-0.1845,-0.17785 -0.64579,-0.69641 -0.92194,-0.52235c-0.32581,0.20536 -0.08405,1.6517 0.00702,1.91709c0.15722,0.4582 0.74976,1.094 1.0958,1.43267c0.07434,0.03774 0.14869,0.07547 0.22303,0.11321l0.25334,0.13212c0.0753,0.03824 0.132,0.11061 0.14674,0.20033c0.02457,0.14957 -0.07676,0.29073 -0.22633,0.31529c-0.01693,0.00278 -0.03374,0.00395 -0.0503,0.00362l-0.34631,-0.00081l0.00023,-0.09945c-0.31669,0.05963 -0.64341,0.13304 -0.67958,0.19191c-0.30247,0.49225 0.16194,0.85028 0.45495,1.15089c0.87131,0.89391 1.76554,1.80319 2.42073,2.90035c0.17487,0.1554 0.33894,0.32376 0.49054,0.50194l0.21497,0.25356c0.03273,0.03728 0.05576,0.08388 0.0644,0.13643c0.02457,0.14957 -0.07676,0.29073 -0.22633,0.3153c-0.03773,0.00619 -0.07492,0.00438 -0.10984,-0.00419l-0.29775,-0.06587l0.01135,-0.05136c-0.12621,-0.01303 -0.24969,-0.03926 -0.36646,-0.08573c-0.0457,-0.01819 -0.63128,-0.25172 -0.66929,-0.19104c-0.08701,0.1389 -0.01238,0.52251 -0.00237,0.67586c0.08856,1.35728 1.323,1.56489 1.76338,2.69438c0.81784,-2.0102 2.25292,-1.8653 4.11707,-1.67175c0.65396,0.06789 1.54956,0.0104 2.08939,0.44187c-0.24012,-0.26195 -0.29143,-0.93216 -0.41012,-1.2825c-0.34429,-1.01622 -0.60805,-2.04004 -0.9698,-3.05695c-0.09415,-0.26469 -0.41353,-1.51362 -0.6793,-1.54118c-0.62025,0.88263 -0.9146,0.056 -1.02858,-0.6293c-0.17594,-1.05782 -0.37183,-2.15916 -0.52,-3.19315c-0.01522,-0.10627 -0.18707,0.10692 -0.27153,0.17318c-0.13076,0.10259 -0.23906,0.23202 -0.36929,0.33511l-0.05064,0.22892c-0.02151,0.10916 -0.10862,0.19868 -0.22486,0.21777c-0.14957,0.02457 -0.29073,-0.07676 -0.3153,-0.22633l-0.06556,-0.39913l0.07656,-0.01258c-0.2183,-0.7696 -0.19154,-1.55404 -0.4593,-2.33942c-0.05458,-0.1601 -0.76513,-1.33005 -1.0581,-1.02738c-0.28063,0.28991 -0.26579,0.9132 -0.27983,1.28192l0.04351,0.26486c0.02457,0.14957 -0.07676,0.29073 -0.22633,0.3153c-0.13593,0.02233 -0.26492,-0.05933 -0.30575,-0.18669l-0.11176,-0.32848l0.06785,-0.02308l-0.01553,-0.00008c0.0003,-0.00973 0.00059,-0.0194 0.00086,-0.02901c-0.43283,-0.78057 -0.61938,-1.6745 -1.31772,-2.30317c-0.12148,-0.10936 -0.78409,-1.30633 -1.2489,-1.95669c-0.19069,-0.26681 -0.44293,-0.42605 -0.46188,-0.40494c-0.23788,0.26512 0.52233,3.10819 0.44392,3.44146c0.07203,0.39674 0.07416,0.80082 0.29003,1.1433l0.05789,0.01424c0,0 0.14244,0.10224 0.11788,0.25714zM162.40361,302.07878c-0.11146,-0.33688 -0.14141,-0.68946 -0.19747,-1.05947c0.10178,-0.48597 -0.55194,-3.1598 -0.17612,-3.54214c0.56392,-0.57373 1.00618,0.19725 1.67957,1.14846c0.64354,0.90903 1.52783,1.97779 1.67939,2.40038c0.02409,0.06715 0.05628,0.1395 0.09142,0.21472c0.00392,-0.01056 0.00797,-0.02119 0.01214,-0.03189c0.37896,-0.97244 1.24404,-0.96984 1.8709,-0.11761c0.43869,0.59642 0.48244,1.31775 0.59808,2.02179c0.03969,0.24168 0.14329,0.53749 0.16072,0.80199c0.32988,-0.30984 0.74584,-0.61172 1.1446,-0.31436c0.40242,0.30008 0.43117,1.88478 0.51185,2.376c0.01699,0.10348 0.19591,1.18085 0.2335,1.615c0.06475,-0.09557 0.17096,-0.20499 0.2342,-0.26488c0.95312,0.02197 0.96381,0.77794 1.28312,1.51592c0.63083,1.45794 1.60336,3.72394 1.32057,5.30577c-1.52099,-0.12596 -3.84977,-1.04898 -5.27417,-0.23462c-0.6313,0.36093 -0.62121,1.21817 -1.33077,1.5775c-0.35532,-0.26507 -0.55338,-0.77651 -0.86852,-0.98251c-0.91674,-0.59923 -1.47457,-1.38679 -1.42932,-2.53245c0.00446,-0.11293 0.16528,-0.74938 0.2201,-0.79943c0.14671,-0.13394 0.4937,-0.15627 0.82022,-0.09717c-0.62017,-1.00191 -1.42937,-1.72262 -2.16363,-2.58799c-0.3304,-0.38939 -0.83324,-0.68923 -0.88801,-1.24869c-0.0398,-0.40649 0.34895,-0.97428 0.73807,-1.17941c-0.67174,-0.70454 -1.17593,-1.56081 -1.2332,-2.55115c-0.05835,-1.00897 0.3715,-1.49234 0.96277,-1.43372z" fill="#b1872c" stroke="none" stroke-width="0.5"/><path d="M163.20631,302.39143c0.02456,-0.15489 -0.08953,-0.22971 -0.08953,-0.22971l-0.08606,-0.04185c-0.21586,-0.34248 -0.21671,-0.74777 -0.28874,-1.14451c0.07841,-0.33327 -0.67871,-3.17852 -0.44084,-3.44364c0.01895,-0.02112 0.27156,0.13792 0.46225,0.40473c0.46481,0.65037 1.12784,1.84711 1.24932,1.95648c0.69834,0.62867 0.8854,1.52235 1.31823,2.30291c-0.00028,0.00961 -0.00062,0.0193 -0.00092,0.02904l0.03248,0.0357l-0.06756,0.02295l0.0941,0.2932c0.04083,0.12736 0.17071,0.20859 0.30664,0.18626c0.14957,-0.02457 0.25245,-0.16634 0.22788,-0.3159l-0.0433,-0.26493c0.01404,-0.36872 0.00158,-0.99264 0.28221,-1.28256c0.29298,-0.30267 1.00736,0.86688 1.06195,1.02698c0.26775,0.78538 0.24547,1.57031 0.46377,2.33992l-0.07727,0.01243l0.06724,0.39953c0.02457,0.14957 0.17018,0.25278 0.31975,0.22821c0.11624,-0.01909 0.18288,-0.0749 0.2044,-0.18406l0.07124,-0.26255c0.13023,-0.10308 0.23953,-0.23189 0.37029,-0.33448c0.08446,-0.06626 0.25705,-0.27892 0.27227,-0.17266c0.14818,1.03398 0.35048,2.15898 0.52641,3.2168c0.11398,0.6853 0.40793,1.5128 1.02818,0.63017c0.26578,0.02756 0.58283,1.28015 0.67699,1.54483c0.36174,1.01691 0.62231,2.04391 0.9666,3.06013c0.1187,0.35034 0.16918,1.02116 0.4093,1.28311c-0.53983,-0.43147 -1.43867,-0.37212 -2.09263,-0.44001c-1.86415,-0.19354 -3.30949,-0.3368 -4.12733,1.67341c-0.44038,-1.12949 -1.68082,-1.33873 -1.76937,-2.69601c-0.01,-0.15335 -0.06759,-0.57252 0.01942,-0.71143c0.03801,-0.06068 0.62148,0.17193 0.66717,0.19012c0.11677,0.04648 0.23905,0.0723 0.36526,0.08533l-0.01137,0.05136l0.29676,0.0656c0.03492,0.00858 0.07175,0.01031 0.10948,0.00411c0.14957,-0.02457 0.24291,-0.1271 0.21834,-0.27667c-0.00863,-0.05255 -0.03198,-0.09922 -0.06472,-0.13649l-0.21594,-0.25379c-0.1516,-0.17818 -0.318,-0.34731 -0.49287,-0.50272c-0.65519,-1.09717 -1.56053,-2.01776 -2.43183,-2.91168c-0.29301,-0.30061 -0.75861,-0.66374 -0.45614,-1.15599c0.03617,-0.05887 0.36284,-0.1329 0.67953,-0.19254l0.0391,0.09646l0.34629,0.00065c0.01655,0.00033 -0.00589,0.00298 0.01103,0.0002c0.14957,-0.02457 0.25081,-0.16742 0.22624,-0.31699c-0.01474,-0.08973 -0.07142,-0.16323 -0.14672,-0.20146l-0.2533,-0.13274c-0.07434,-0.03774 -0.14865,-0.07594 -0.22299,-0.11367c-0.34603,-0.33867 -0.93751,-0.97917 -1.09473,-1.43737c-0.09106,-0.26539 -0.33015,-1.71672 -0.00435,-1.92208c0.27615,-0.17407 0.73772,0.34412 0.92222,0.52197c0,0 0.19868,0.18921 0.38864,-0.00886c0.18996,-0.19807 -0.00739,-0.38884 -0.00739,-0.38884c-0.07167,-0.06842 -0.11492,-0.10335 -0.18647,-0.15922z" data-paper-data="{&quot;noHover&quot;:false,&quot;origItem&quot;:[&quot;Path&quot;,{&quot;applyMatrix&quot;:true,&quot;segments&quot;:[[[596.79634,39.85154],[0,0],[0.36278,0.28322]],[[597.88654,40.79669],[-0.36336,-0.3469],[0,0]],[[597.92767,42.76397],[0.96307,-1.0042],[-0.96307,1.0042]],[[595.9604,42.8051],[0,0],[-0.9354,-0.90169]],[[591.28632,40.15689],[1.40004,-0.88249],[-1.65178,1.04116]],[[591.32189,49.87625],[-0.46169,-1.34547],[0.79708,2.32297]],[[596.87741,57.13967],[-1.75434,-1.71702],[0.37691,0.19131]],[[598.00817,57.71361],[-0.37691,-0.19132],[0,0]],[[599.29256,58.38342],[0,0],[0.38177,0.19386]],[[600.03651,59.39909],[-0.07472,-0.45491],[0.12456,0.75829]],[[598.88904,60.99757],[0.75829,-0.12454],[-0.08581,0.01409]],[[598.63404,61.0159],[0.08392,0.00169],[0,0]],[596.87831,61.01178],[[596.8795,60.50759],[0,0],[-1.60558,0.30232]],[[593.43412,61.48057],[0.18339,-0.29848],[-1.5335,2.49564]],[[595.74065,67.31542],[-1.48552,-1.52407],[4.41738,4.532]],[[608.0134,82.01974],[-3.32172,-5.56245],[0.88657,0.78787]],[[610.50035,84.56451],[-0.76858,-0.90336],[0,0]],[[611.59019,85.85001],[0,0],[0.16595,0.18899]],[[611.91666,86.54169],[-0.04377,-0.26644],[0.12456,0.75829]],[[610.76919,88.14018],[0.75829,-0.12454],[-0.19127,0.03141]],[[610.21234,88.11891],[0.17704,0.04349],[0,0]],[608.70281,87.78497],[[608.76038,87.52458],[0,0],[-0.63989,-0.06609]],[[606.90247,87.08994],[0.592,0.23562],[-0.23168,-0.09221]],[[603.50928,86.1214],[0.1927,-0.30763],[-0.44112,0.70422]],[[603.49724,89.54791],[-0.05071,-0.77746],[0.44897,6.88118]],[[612.43729,103.20799],[-2.23264,-5.72634],[4.14635,-10.19142]],[[633.31017,94.73245],[-9.45094,-0.98122],[3.3155,0.34422]],[[643.90306,96.97267],[-2.73684,-2.18748],[-1.21737,-1.32805]],[[641.82383,90.47058],[0.60176,1.77619],[-1.74548,-5.15207]],[[636.90711,74.97231],[1.83399,5.15557],[-0.47735,-1.34192]],[[633.46315,67.1588],[1.34744,0.13972],[-3.14458,4.47481]],[[628.24841,63.96834],[0.57785,3.47437],[-0.89198,-5.36301]],[[625.61209,47.77957],[0.75123,5.24215],[-0.07719,-0.53875]],[[624.23548,48.65758],[0.42818,-0.33596],[-0.66292,0.52012]],[[622.36325,50.35652],[0.66023,-0.52262],[0,0]],[[622.1065,51.51711],[0,0],[-0.10906,0.55344]],[[620.96648,52.62119],[0.58933,-0.09679],[-0.75829,0.12456]],[[619.36799,51.47372],[0.12454,0.75829],[0,0]],[619.03563,49.45018],[[619.4238,49.38642],[0,0],[-1.10675,-3.90176]],[[617.09524,37.52592],[1.35746,3.98177],[-0.27673,-0.81169]],[[611.73081,32.31728],[1.48535,-1.53449],[-1.42276,1.46982]],[[610.31212,38.81642],[0.07119,-1.86937],[0,0]],[[610.53268,40.15924],[0,0],[0.12456,0.75829]],[[609.38521,41.75773],[0.75829,-0.12454],[-0.68915,0.1132]],[[607.83511,40.81126],[0.20701,0.64566],[0,0]],[607.2685,39.14593],[607.6125,39.02889],[[607.53378,39.02849],[0,0],[0.00151,-0.04934]],[[607.53814,38.88143],[-0.00139,0.0487],[-2.19438,-3.95736]],[[600.85752,27.20473],[3.54045,3.18727],[-0.6159,-0.55446]],[[594.5258,17.2846],[2.3565,3.29727],[-0.96676,-1.35271]],[[592.18415,15.23162],[0.09606,-0.10705],[-1.20602,1.34411]],[[594.43477,32.67929],[0.39754,-1.68962],[0.36518,2.0114]],[[595.90516,38.47565],[-1.0944,-1.73634],[0,0]],[596.19864,38.54784],[[596.7963,39.85149],[0.12449,-0.78528],[0,0]]],&quot;closed&quot;:true,&quot;fillColor&quot;:[0,0,0,1],&quot;strokeWidth&quot;:0.5}]}" fill="#ffc241" stroke="none" stroke-width="0.25"/><path d="M163.09056,321.93729c0.21129,0.47509 0.32242,0.97265 0.45204,1.4641c0.00847,0.03211 0.09101,0.77191 0.09724,0.83084c0.01236,0.11689 -0.10992,0.33919 0.01367,0.35248c0.88434,0.09513 1.80727,-1.46486 2.54461,-1.80771c2.4176,-1.49325 4.70079,-2.03861 7.54107,-2.3571c0.97481,-0.1093 1.69461,-0.16594 2.61981,0.01679c0.03247,0.00642 0.28377,-0.03072 0.47987,-0.02099c-0.06443,-0.22581 -0.109,-0.55431 -0.12875,-0.72601c-0.08052,-0.70011 -0.46149,-1.22517 -0.53339,-1.9769c-0.28923,-0.59651 -0.14546,-1.76038 -0.68925,-2.24131c-0.12994,-0.11491 -0.91,0.11243 -1.07874,0.10506c-0.98624,-0.04309 -1.87574,0.01566 -2.88251,0.12854c-1.89852,0.21288 -3.32198,0.81583 -4.89209,1.89793c-0.70235,0.48405 -1.20161,1.24119 -1.86518,1.76999c-0.57326,0.68139 -1.6061,1.61216 -1.6784,2.56427zM162.48831,321.78152c0.16666,-1.06949 1.15599,-2.02392 1.83426,-2.81893c0.69122,-0.55083 1.21099,-1.32486 1.94151,-1.83308c1.64169,-1.1421 3.20013,-1.78865 5.19621,-2.01247c1.03868,-0.11647 1.96205,-0.17811 2.98326,-0.13215c0.4586,0.02064 1.01188,-0.28456 1.43829,0.02134c0.72194,0.51789 0.56405,1.85062 0.89993,2.54335c0.11144,0.89803 0.39355,1.64499 0.6006,2.52465c0.05976,0.25388 0.39129,0.68934 0.08451,0.96323c-0.22102,0.19732 -0.62553,-0.03791 -0.87223,-0.04836c-0.95949,-0.04065 -1.76644,-0.09586 -2.78954,0.01886c-2.77691,0.31138 -4.94236,0.83175 -7.30743,2.28557c-0.85288,0.35099 -1.9912,2.39654 -3.15536,1.80913c-0.29105,-0.14685 -0.29631,-0.54687 -0.32615,-0.80049c-0.05767,-0.49005 -0.61655,-2.40434 -0.52787,-2.52065z" fill="#b1872c" stroke="none" stroke-width="0.5"/></g></g></g></svg>