<svg version="1.1" xmlns="http://www.w3.org/2000/svg" xmlns:xlink="http://www.w3.org/1999/xlink" width="41.76533" height="32.04987" viewBox="0,0,41.76533,32.04987"><g transform="translate(-305.6939,-46.72461)"><g data-paper-data="{&quot;isPaintingLayer&quot;:true}" fill-rule="nonzero" stroke-linecap="butt" stroke-linejoin="miter" stroke-miterlimit="10" stroke-dasharray="" stroke-dashoffset="0" style="mix-blend-mode: normal"><path d="M305.69644,77.76739c0.97551,-2.64154 3.5323,-5.74792 4.73896,-7.67136c1.13827,-1.57245 2.34051,-3.12982 3.61197,-3.75516c1.19609,-1.37443 2.53977,-1.37562 3.77326,-2.42711c1.29992,-0.80417 2.59837,-1.19465 3.93093,-1.19505c1.31673,-0.00039 2.63347,-0.00012 3.95018,-0.00012c1.31007,0 2.62012,0 3.93017,0c1.31641,0 2.63281,0 3.94922,0c1.30954,0 1.79411,0.88217 3.09042,1.44213c0.25256,0.02506 1.47216,-0.26071 1.73319,-0.13877c0.79546,0.00085 1.2362,-0.11732 1.94716,0.48218c1.29613,0.2739 2.75971,1.7114 3.90983,3.26584c1.15242,1.68938 2.27468,3.52029 3.16782,5.99775c0.13439,0.46851 -0.19252,0.93716 -0.88097,1.37894c-0.15321,0.09831 -1.57236,-0.00676 -3.54514,0.1091c-1.59232,0.09352 -5.30679,1.08443 -5.47978,1.15911c-0.63472,0.27401 -2.55709,0.3417 -2.78543,0.51378c-0.76154,0.5739 0.25015,0.56526 -4.11458,0.52015c-0.87691,-0.00906 -1.30526,-0.18733 -2.17537,-0.23643c-0.17012,-0.0096 -0.79479,0.01952 -1.55092,-0.25245c-0.48178,-0.17329 -1.04513,-0.61658 -1.15128,-0.62373c-0.19918,-0.01341 -1.74615,-0.6273 -1.94059,-0.64158c-0.31572,-0.02318 -2.49729,-0.34698 -2.79348,-0.3713c-0.16611,-0.01364 -2.38974,0.03209 -4.32578,0.57478c-2.16512,0.60689 -3.98975,1.66631 -5.73233,2.1412c-1.16245,0.31679 -1.67703,0.7506 -1.76997,0.73478c-0.92658,-0.15779 -3.58343,-0.68968 -3.4875,-1.00669z" fill="#ff8619" stroke="none" stroke-width="0.5"/><path d="" fill="#9e9215" stroke="none" stroke-width="0.5"/><path d="" fill="#000000" stroke="none" stroke-width="0.5"/><path d="" fill="#000000" stroke="none" stroke-width="0.5"/><path d="" fill="#fbfdfa" stroke="#000000" stroke-width="1"/><path d="" fill="#fffc51" stroke="none" stroke-width="0.5"/><path d="" data-paper-data="{&quot;noHover&quot;:false,&quot;origItem&quot;:[&quot;Path&quot;,{&quot;applyMatrix&quot;:true,&quot;segments&quot;:[[[550.94398,168.94384],[0,0],[-0.004,0.00112]],[[550.93786,168.94548],[0,0],[-4.99722,1.10148]],[[546.59068,184.73494],[-4.0097,-3.61618],[1.0574,0.95362]],[[551.66524,185.56418],[-1.34108,-0.05018],[5.17926,-3.23526]],[[550.94754,168.94548],[6.4589,1.61474],[0,0]]],&quot;closed&quot;:true,&quot;fillColor&quot;:[0,0,0,1]}]}" fill="#a8be04" stroke="none" stroke-width="0.5"/><path d="" fill="#fffc51" stroke="none" stroke-width="0.5"/><path d="" data-paper-data="{&quot;noHover&quot;:false,&quot;origItem&quot;:[&quot;Path&quot;,{&quot;applyMatrix&quot;:true,&quot;segments&quot;:[[[742.91028,164.79096],[0,0],[-0.08866,0.01412]],[[742.76318,164.80508],[0,0],[-8.91526,-0.05994]],[[747.82732,171.58358],[-5.10008,7.27028],[1.27638,-3.92392]],[[743.89002,165.46172],[2.39748,1.76998],[0,0]],[743.36688,165.22496],[[742.91026,164.79094],[0.16726,0.28934],[0,0]]],&quot;closed&quot;:true,&quot;fillColor&quot;:[0,0,0,1]}]}" fill="#a8be04" stroke="none" stroke-width="0.5"/><path d="" fill="#fbfdfa" stroke="#000000" stroke-width="1"/><path d="" fill="#3da9e8" stroke="#000000" stroke-width="1"/><path d="" fill="#3da9e8" stroke="#000000" stroke-width="1"/><path d="" fill="#000000" stroke="#000000" stroke-width="1"/><path d="" fill="#000000" stroke="#000000" stroke-width="1"/><path d="" fill="#ffffff" stroke="#000000" stroke-width="1"/><path d="" fill="#ffffff" stroke="#000000" stroke-width="1"/><path d="" fill="#fffc51" stroke="none" stroke-width="0.5"/><path d="" fill="#fffd4d" stroke="#fffd4d" stroke-width="0.5"/><path d="" fill="#000000" stroke="none" stroke-width="0.5"/><path d="" data-paper-data="{&quot;index&quot;:null}" fill="#fffd4d" stroke="#fffd4d" stroke-width="0.5"/><path d="" data-paper-data="{&quot;index&quot;:null}" fill="#000000" stroke="none" stroke-width="0.5"/><path d="" data-paper-data="{&quot;noHover&quot;:false,&quot;origItem&quot;:[&quot;Path&quot;,{&quot;applyMatrix&quot;:true,&quot;segments&quot;:[[[343.92669,148.61766],[3.42749,0.13441],[0,0]],[[343.89611,148.63033],[0,0],[-0.13824,0.94189]],[[345.7247,150.94262],[-0.66629,-0.46375],[4.48278,2.53292]],[[360.05797,152.87278],[-5.09799,0.92845],[2.54315,-0.39112]],[[367.04413,149.57442],[-1.78731,1.96008],[0.67178,-0.73672]],[[367.46328,146.17626],[1.87453,0.6072],[-4.16656,0.06888]],[[354.94792,147.04105],[4.13609,-0.5905],[-3.32984,0.60403]]],&quot;closed&quot;:true,&quot;fillColor&quot;:[0,0,0,1]}]}" fill="#b5f2ed" stroke="none" stroke-width="0.5"/><path d="" fill="#6af2e7" stroke="none" stroke-width="0.5"/><path d="M315.61165,75.7286c-0.19518,-0.19518 0,-0.39037 0,-0.39037l0.05165,0.06269c0.00293,-0.80003 0.1325,-1.57343 0.1325,-2.38488c0,-1.45566 -0.47942,-3.92889 0.02101,-5.27289c0.33949,-0.91174 1.45711,-1.74761 1.71557,-2.63153c0,0 0.08729,-0.26187 0.34915,-0.17458c0.26187,0.08729 0.17458,0.34915 0.17458,0.34915c-0.34172,0.94554 -1.32297,1.74092 -1.72926,2.66822c-0.49275,1.12462 0.02101,3.78769 0.02101,5.06163c0,0.80888 -0.13581,1.5898 -0.1325,2.38488l-0.21334,0.32767c0,0 -0.19518,0.19518 -0.39036,0z" fill="#904c11" stroke="none" stroke-width="0.5"/><path d="M330.28725,77.33214c-0.26284,0 -0.26284,-0.26284 -0.26284,-0.26284v-0.12616c0,-1.09075 0.0312,-2.15998 -0.12547,-3.24016c-0.00012,-1.93229 -1.463,-2.77428 -1.7636,-4.41377c-0.21768,-1.18723 0.5494,-2.22537 0.89325,-3.2793c0,0 0.08312,-0.24935 0.33247,-0.16624c0.24935,0.08312 0.16623,0.33247 0.16623,0.33247c-0.3317,0.9776 -1.02646,1.93212 -0.87305,3.02891c0.21921,1.56731 1.76911,2.54988 1.76899,4.45977c0.1613,1.09175 0.12686,2.17588 0.12686,3.27832v0.12616c0,0 0,0.26284 -0.26284,0.26284z" fill="#904c11" stroke="none" stroke-width="0.5"/><path d="M342.42039,75.2712c-0.29342,0 -0.29342,-0.29342 -0.29342,-0.29342v-0.42253c0,-0.41989 0.02338,-0.73992 -0.111,-1.13865c-1.36558,-2.02597 -4.34849,-5.30352 -1.91567,-7.80094c0,0 0.20748,-0.20748 0.41496,0c0.20748,0.20748 0,0.41496 0,0.41496c-2.23159,2.15415 0.89947,5.42025 2.02787,7.12816c0.16709,0.50504 0.17068,0.87108 0.17068,1.39647v0.42253c0,0 0,0.29342 -0.29342,0.29342z" fill="#904c11" stroke="none" stroke-width="0.5"/><path d="M316.38667,64.39298c3.84487,-0.2211 6.8419,-3.61125 7.22766,-6.87728c0.22519,-1.70998 0.28845,-3.72457 -0.16116,-5.39987c-0.07365,-0.27443 -1.16168,-2.4319 -1.03446,-2.53252c0.63448,-0.50181 1.6268,-0.70914 2.3291,-1.12319c0.90245,-0.36563 1.88458,-0.99629 2.88276,-1.13492c2.0895,-0.29017 3.30252,2.18571 4.38814,3.3142c0.57666,1.34932 1.40163,2.63593 1.61779,4.07888c0.25627,1.71078 -0.01806,3.48896 0.06567,5.19093c0.09751,1.98199 1.27295,3.34863 3.46036,4.05633c0.94212,0.30481 2.07599,-0.02776 3.03786,0.22257l0.07678,0.18855c0.46995,0.34264 0.75939,0.20332 1.09589,0.4962c0.00737,0.00642 0.67122,0.53459 0.63131,0.55306c-0.36884,0.1707 -1.49344,0.03951 -1.94462,0.06171c-4.73717,0.23307 -9.74222,0.86703 -14.4739,0.67092c-2.62018,-0.10682 -5.2836,-0.18607 -7.86774,-0.56365c-0.48053,-0.07021 -2.70136,-0.51061 -1.47685,-1.10496c0,0 0.11786,-0.07342 0.14541,-0.09695z" data-paper-data="{&quot;noHover&quot;:false,&quot;origItem&quot;:[&quot;Path&quot;,{&quot;applyMatrix&quot;:true,&quot;segments&quot;:[[[316.20819,63.71492],[0,0],[-1.0612,0.51434]],[[317.40839,64.84374],[-0.4038,-0.09038],[2.17156,0.48604]],[[324.02148,65.7439],[-2.21334,-0.22701],[3.99685,0.41303]],[[336.24893,65.79664],[-4.01937,0],[0.38282,0]],[[337.89489,65.83229],[-0.3193,0.14691],[0.03455,-0.0159]],[[337.46137,65.33263],[0.00597,0.00653],[-0.27264,-0.29798]],[[336.55405,64.80336],[0.38351,0.35222],[0,0]],[[336.49719,64.61781],[0,0],[-0.80372,-0.28663]],[[333.9307,64.26437],[0.78474,0.33816],[-1.82201,-0.78513]],[[331.09669,60.12741],[0,1.91323],[0,-1.64293]],[[331.25019,55.17428],[0.14567,1.65959],[-0.12287,-1.39977]],[[330.07287,51.19527],[0.43191,1.32669],[-0.8719,-1.13815]],[[326.52315,47.80221],[1.78069,-0.18043],[-0.85067,0.0862]],[[324.05033,48.75576],[0.77908,-0.30934],[-0.61167,0.36545]],[[322.0437,49.72121],[0.55794,-0.45317],[-0.11188,0.09087]],[[322.81865,52.20526],[-0.05091,-0.26776],[0.3108,1.63458]],[[322.74692,57.3692],[0.26182,-1.63601],[-0.46253,3.12684]],[[316.25111,63.6824],[3.2636,-0.03075],[-0.0243,0.02135]]],&quot;closed&quot;:true}]}" fill="#00b412" stroke="none" stroke-width="0.5"/><path d="M342.55967,65.07351c0.37287,1.24603 -1.66171,0.96834 -2.51334,1.01024c-4.76426,0.2344 -9.72774,0.8457 -14.48706,0.65471c-2.77733,-0.11322 -6.0093,0.0543 -8.67722,-0.67125c-1.24995,-0.33992 -2.4159,-1.19236 -0.98777,-2.1296c0,0 0.04127,-0.02443 0.10329,-0.04178c0.10171,-0.09181 0.2532,-0.09926 0.2532,-0.09926c3.5138,-0.17288 6.36804,-3.37259 6.70879,-6.35049c0.23328,-1.77166 0.35377,-4.0146 -0.31626,-5.7116c-0.22614,-0.57275 -1.28256,-1.83425 -0.78643,-2.4528c0.50592,-0.63075 1.85826,-0.90112 2.56665,-1.32219c0.97635,-0.40052 2.01068,-1.05526 3.09367,-1.20345c2.50955,-0.34337 3.80228,2.20943 5.0952,3.60641c0.62744,1.41167 1.44053,2.75086 1.67745,4.26532c0.2713,1.73435 -0.00419,3.49108 0.08071,5.21672c0.08694,1.76702 1.15518,2.88431 3.08002,3.56119c1.01481,0.35686 2.29669,-0.07447 3.34388,0.31587l-0.07274,-0.02974c0,0 0.35827,-0.01763 0.37376,0.29728c0.0023,0.04681 -0.00365,0.08706 -0.01546,0.12165c0.51012,0.24064 1.28511,0.3127 1.47965,0.96277zM316.2895,64.45953c-1.2245,0.59436 0.99156,1.02958 1.47206,1.09979c2.58415,0.37758 5.21979,0.44221 7.83998,0.54903c4.73168,0.19611 9.67663,-0.42133 14.41379,-0.6544c0.45119,-0.0222 1.57289,0.11218 1.94172,-0.05851c0.03991,-0.01847 -0.52903,-0.48606 -0.53641,-0.49248c-0.33651,-0.29288 -0.62638,-0.15304 -1.09633,-0.49568l-0.07647,-0.18892c-0.96187,-0.25032 -2.10073,0.08749 -3.04285,-0.21732c-2.18741,-0.70769 -3.45346,-2.13931 -3.55097,-4.12129c-0.08374,-1.70197 0.18472,-3.42925 -0.07155,-5.14003c-0.21616,-1.44295 -1.01371,-2.70441 -1.59037,-4.05373c-1.08562,-1.12849 -2.26709,-3.59933 -4.35659,-3.30916c-0.9982,0.13863 -1.96338,0.76558 -2.86582,1.13121c-0.70228,0.41405 -1.68131,0.6147 -2.31579,1.1165c-0.12722,0.10062 0.9663,2.25395 1.03995,2.52838c0.44961,1.6753 0.40386,3.64369 0.17866,5.35368c-0.38576,3.26603 -3.48923,6.69565 -7.3341,6.91676c-0.02756,0.02353 -0.04893,0.03618 -0.04893,0.03618z" fill="#367b3d" stroke="none" stroke-width="0.5"/></g></g></svg>