<svg version="1.1" xmlns="http://www.w3.org/2000/svg" xmlns:xlink="http://www.w3.org/1999/xlink" width="121.3399" height="84.63605" viewBox="0,0,121.3399,84.63605"><g transform="translate(-255.71338,-121.44715)"><g data-paper-data="{&quot;isPaintingLayer&quot;:true}" fill-rule="nonzero" stroke-linejoin="miter" stroke-miterlimit="10" stroke-dasharray="" stroke-dashoffset="0" style="mix-blend-mode: normal"><path d="M348.10158,172.78424c0,0 -1.05675,14.7853 -0.95918,18.3156c0.09807,3.54781 1.2329,11.29817 1.50975,13.14554c0.03153,0.21041 -2.38855,0.71242 -3.07727,0.88342c-0.08015,0.01989 -1.82819,-10.65677 -1.88796,-11.64569c-0.01598,-0.26422 -0.16032,9.07652 -0.41739,11.31099c-0.01835,0.15958 -2.40036,0.87251 -4.50353,0.019c-1.4312,-0.58083 -2.71576,-2.07749 -3.24257,-2.75188c-0.08747,-0.11196 1.51862,-5.89339 2.48514,-11.25016c0.83281,-4.6157 1.70224,-13.88595 1.70224,-13.88595z" data-paper-data="{&quot;index&quot;:null}" fill="#06476b" stroke="#000000" stroke-width="0.5" stroke-linecap="round"/><path d="M294.45602,176.80072c0,0 0.86944,9.27024 1.70224,13.88595c0.96652,5.35677 2.57261,11.1382 2.48514,11.25017c-0.52682,0.67439 -1.81137,2.17104 -3.24257,2.75187c-2.10317,0.85352 -4.48517,0.14059 -4.50353,-0.019c-0.25707,-2.23448 -0.40142,-11.57521 -0.41739,-11.311c-0.05977,0.98892 -1.8078,11.66559 -1.88795,11.64569c-0.68872,-0.171 -3.1088,-0.67301 -3.07728,-0.88342c0.27684,-1.84737 1.41168,-9.59773 1.50975,-13.14554c0.09757,-3.5303 -0.95918,-18.3156 -0.95918,-18.3156z" fill="#06476b" stroke="#000000" stroke-width="0.5" stroke-linecap="round"/><path d="" fill="#000000" stroke="none" stroke-width="0.5" stroke-linecap="butt"/><path d="" fill="#66f4ff" stroke="none" stroke-width="0.5" stroke-linecap="butt"/><path d="" data-paper-data="{&quot;index&quot;:null}" fill="#66f4ff" stroke="none" stroke-width="0.5" stroke-linecap="butt"/><path d="" fill="#66f4ff" stroke="none" stroke-width="0.5" stroke-linecap="butt"/><path d="" fill="#66f4ff" stroke="none" stroke-width="0.5" stroke-linecap="butt"/><path d="M364.41986,152.83104l0.21483,28.92435l-95.55392,0.48941l-1.60097,0.02007l-0.38961,-31.49564c0,0 0.84832,1.21725 2.2348,1.23624c0.64898,0.0089 1.14574,0.62461 2.59193,0.61532c0.62637,-0.00402 6.41712,-2.32267 7.17619,-2.33115c0.35696,-0.00399 0.69088,0.01305 1.02812,0.32348c0.55709,0.51278 1.12322,1.42638 1.81714,1.42137c0.56374,-0.00407 1.64897,0.29946 2.25206,0.29402c0.35658,-0.00321 11.32788,-2.47318 11.69729,-2.47697c1.00174,-0.01027 6.04246,2.75601 7.09947,2.74917c1.01344,-0.00655 1.87716,-0.40131 2.92233,-0.41327c0.5253,-0.006 2.8084,-2.09358 3.34073,-2.10055c0.33312,-0.00436 4.25899,-0.31685 4.59402,-0.32084c0.39103,-0.00466 5.62712,1.07006 6.01878,1.06602c0.41893,-0.00431 1.45654,0.26289 2.42232,0.02701c1.48841,-0.36354 3.03594,-1.28603 3.67209,-1.29237c0.71231,-0.00709 1.38039,0.85935 2.01006,0.84967c1.22375,-0.01883 2.93468,1.47687 3.91088,1.2729c0.49959,-0.10438 2.322,0.08795 3.36933,0.01168c0.36854,-0.02683 0.57185,-0.02303 0.68349,-0.16544c0.12442,-0.15872 0.54537,-0.15563 0.70036,-0.22694c0.34894,-0.16055 0.47528,-0.25308 0.82677,-0.25744c0.57441,-0.00713 0.6105,-0.3383 1.1529,-0.33524c0.06047,0.00035 1.33903,-0.57488 1.28765,-0.54573c-1.5038,0.85329 0.17348,-0.66893 2.43894,-0.45074c0.39325,0.03788 1.82403,0.79927 2.89491,1.10217c0.93142,0.26345 1.51359,0.07348 1.87533,0.10335c0.41941,0.03462 3.92433,-1.54505 4.33365,-1.50143c0.5392,0.05746 2.39977,0.81359 2.90787,0.88137c0.86085,0.11487 3.07517,1.84031 3.79349,1.9353c3.93371,0.52023 3.34744,0.28241 4.92539,0.14886c0.84542,-0.07155 1.23583,-0.54703 1.23583,-0.54703z" fill="#ffffff" stroke="#ffb1b1" stroke-width="0.5" stroke-linecap="round"/><path d="M368.40101,122.17731c0.45502,0.06727 0.65285,-0.0167 0.68565,-0.18811c2.25662,0.06838 3.82756,2.58169 4.94581,4.25905c0.4273,1.16694 1.11752,2.26069 1.38768,3.59886c0.25951,1.28544 0.08655,3.06267 0.65918,4.2307c0.4151,2.58284 0.72395,5.15771 0.72395,7.78205c0,3.09308 -2.24941,4.47032 -5.25872,4.90827c-2.79346,0.02112 -0.51816,1.01353 -3.21293,-0.06759c-2.61784,-0.88964 -2.05638,-5.5779 -1.35689,-7.59214c1.05396,-3.04672 2.75133,-7.21702 3.54021,-10.37097c0.31627,-1.2674 -3.73566,-7.64128 -2.11395,-6.56014z" data-paper-data="{&quot;noHover&quot;:false,&quot;origItem&quot;:[&quot;Path&quot;,{&quot;applyMatrix&quot;:true,&quot;segments&quot;:[[[273.23414,152.39607],[0.0328,0.17141],[-2.25662,0.06838]],[[267.6027,156.64807],[1.11824,-1.67736],[-0.4273,1.16694]],[[266.22965,160.23355],[0.27016,-1.33817],[-0.25952,1.28544]],[[265.58001,164.43753],[0.57263,-1.16803],[-0.4151,2.58284]],[[264.8422,172.1822],[0,-2.62434],[0,3.09309]],[[270.07461,177.07606],[-3.00931,-0.43795],[2.79345,0.02112]],[[278.25584,176.58401],[-2.69477,1.08112],[2.61784,-0.88964]],[[279.5891,168.01622],[0.69949,2.01424],[-1.05395,-3.04672]],[[277.20773,158.42042],[0.78889,3.15395],[-0.31628,-1.26739]],[[273.91699,152.58394],[1.62171,-1.08114],[-0.45502,0.06727]]],&quot;closed&quot;:true}],&quot;index&quot;:null}" fill="#ffffff" stroke="#000000" stroke-width="0.5" stroke-linecap="butt"/><path d="M263.33832,121.89158c1.62171,-1.08114 -1.43022,5.29273 -1.11395,6.56013c0.13352,0.53382 -0.13141,1.09674 0.05344,1.67842c0.21421,0.67407 0.26674,2.07165 0.67003,2.75557c1.30488,2.21284 3.43361,3.14637 4.10246,5.07985c0.50178,1.44492 0.29176,4.06619 -0.42964,6.16473c-0.28424,0.82685 -0.04447,2.17595 -0.7844,2.42741c-2.69477,1.08112 -1.70518,-0.05415 -4.49864,-0.07527c-3.00931,-0.43795 -5.25872,-1.81519 -5.25872,-4.90827c0,-2.62434 0.30885,-5.19921 0.72395,-7.78205c0.57263,-1.16803 0.39967,-2.94526 0.65918,-4.2307c0.27016,-1.33817 0.96038,-2.43192 1.38768,-3.59886c1.11824,-1.67736 1.54633,-4.19067 3.80295,-4.25905c0.0328,0.17141 0.23063,0.25538 0.68565,0.18811z" data-paper-data="{&quot;noHover&quot;:false,&quot;origItem&quot;:[&quot;Path&quot;,{&quot;applyMatrix&quot;:true,&quot;segments&quot;:[[[273.23414,152.39607],[0.0328,0.17141],[-2.25662,0.06838]],[[267.6027,156.64807],[1.11824,-1.67736],[-0.4273,1.16694]],[[266.22965,160.23355],[0.27016,-1.33817],[-0.25952,1.28544]],[[265.58001,164.43753],[0.57263,-1.16803],[-0.4151,2.58284]],[[264.8422,172.1822],[0,-2.62434],[0,3.09309]],[[270.07461,177.07606],[-3.00931,-0.43795],[2.79345,0.02112]],[[278.25584,176.58401],[-2.69477,1.08112],[2.61784,-0.88964]],[[279.5891,168.01622],[0.69949,2.01424],[-1.05395,-3.04672]],[[277.20773,158.42042],[0.78889,3.15395],[-0.31628,-1.26739]],[[273.91699,152.58394],[1.62171,-1.08114],[-0.45502,0.06727]]],&quot;closed&quot;:true}],&quot;index&quot;:null}" fill="#ffffff" stroke="#000000" stroke-width="0.5" stroke-linecap="butt"/><path d="M269.94885,181.97256v-11.76h75.76646v11.76z" fill="#06476b" stroke="none" stroke-width="0" stroke-linecap="butt"/><path d="M266.13175,146.35861c0,0.18626 -0.13878,0.23376 -0.20954,0.24586c-1.73454,1.56593 -4.15949,1.72398 -6.42944,1.71749c-3.19784,-0.55373 -3.77939,-2.12231 -3.77939,-5.26947c0,-2.19805 0.4302,-4.30415 0.42857,-6.4898c0,0 0,-0.25 0.25,-0.25c0.25,0 0.25,0.25 0.25,0.25c-0.00154,2.18733 -0.42857,4.29136 -0.42857,6.4898c0,2.90333 0.39689,4.25354 3.32264,4.77134c1.98693,-0.00654 4.68539,-0.04686 6.10772,-1.642l0.238,-0.07323c0,0 0.25,0 0.25,0.25z" fill="#000000" stroke="none" stroke-width="0.5" stroke-linecap="butt"/><path d="M256.70564,138.18507c0.1026,-1.69419 0.64679,0.67366 2.1766,-0.08333c2.80686,-0.56923 5.84915,0.59535 6.87764,3.25042c0.01722,1.44469 -0.1564,-0.75897 0.08077,0.03491c0.11581,0.38764 0.44978,1.09481 0.44586,2.40005c-0.00253,0.84249 -0.14583,2.39847 -0.57945,2.72294c-1.65634,0.83415 -6.87536,1.61263 -8.2674,0.27024c-1.48311,-1.48571 -1.14345,-6.89095 -0.73401,-8.59522z" fill="#ffffff" stroke="none" stroke-width="0.5" stroke-linecap="butt"/><path d="M259.15075,139.97994c-1.17181,1.25007 -0.5629,4.45656 -0.05275,1.44333c-0.00158,-0.48535 0.04094,-0.95962 0.05275,-1.44333zM259.46016,139.46659c0.03952,0.02156 0.06377,0.0458 0.06377,0.0458l0.12983,0.23338c0,0.57942 -0.05584,1.14174 -0.05746,1.71873c-0.08651,0.52625 -0.7572,2.615 -1.63117,1.77939c-0.69985,-0.66914 0.53984,-3.41568 1.11881,-3.86794c0,0 0.2,-0.15 0.35,0.05c0.01034,0.01379 0.01902,0.02734 0.02622,0.04063z" fill="#000000" stroke="none" stroke-width="0.5" stroke-linecap="butt"/><path d="M259.14542,141.43912c-0.51015,3.01323 -1.15436,-0.25763 0.01745,-1.5077c-0.01181,0.48371 -0.01902,1.02235 -0.01745,1.5077z" data-paper-data="{&quot;noHover&quot;:false,&quot;origItem&quot;:[&quot;Path&quot;,{&quot;applyMatrix&quot;:true,&quot;segments&quot;:[[[517.75602,279.95987],[-0.02362,0.96742],[-2.34362,2.50014]],[[517.65052,282.84653],[-1.02029,6.02646],[-0.00315,-0.9707]]],&quot;closed&quot;:true}]}" fill="#9ca59f" stroke="none" stroke-width="0.5" stroke-linecap="butt"/><path d="M261.16737,142.95629c-1.07887,3.2366 -0.80805,0.34032 0.11575,-1.35579c-0.04301,0.44878 -0.11862,0.89289 -0.11575,1.35579z" data-paper-data="{&quot;noHover&quot;:false,&quot;origItem&quot;:[&quot;Path&quot;,{&quot;applyMatrix&quot;:true,&quot;segments&quot;:[[[521.99212,283.29681],[-0.08602,0.89757],[-1.84761,3.39221]],[[521.69301,285.93976],[-2.15773,6.4732],[-0.00574,-0.92579]]],&quot;closed&quot;:true}]}" fill="#9ca59f" stroke="none" stroke-width="0.5" stroke-linecap="butt"/><path d="M263.93788,143.34479c-0.51015,3.01323 -1.15437,-0.25763 0.01744,-1.5077c-0.01181,0.48371 -0.01901,1.02235 -0.01744,1.5077z" data-paper-data="{&quot;noHover&quot;:false,&quot;origItem&quot;:[&quot;Path&quot;,{&quot;applyMatrix&quot;:true,&quot;segments&quot;:[[[527.34092,283.77119],[-0.02362,0.96742],[-2.34362,2.50014]],[[527.23543,286.65785],[-1.02029,6.02646],[-0.00315,-0.9707]]],&quot;closed&quot;:true}]}" fill="#9ca59f" stroke="none" stroke-width="0.5" stroke-linecap="butt"/><path d="M263.94319,141.8856c-1.17181,1.25007 -0.56289,4.45656 -0.05275,1.44333c-0.00158,-0.48535 0.04093,-0.95962 0.05275,-1.44333zM264.25261,141.37225c0.03952,0.02156 0.06377,0.04581 0.06377,0.04581l0.12983,0.23338c0,0.57942 -0.05584,1.14174 -0.05746,1.71873c-0.08651,0.52625 -0.7572,2.615 -1.63117,1.77939c-0.69985,-0.66914 0.53985,-3.41567 1.11881,-3.86793c0,0 0.2,-0.15 0.35,0.05c0.01034,0.01379 0.01902,0.02734 0.02621,0.04063z" fill="#000000" stroke="none" stroke-width="0.5" stroke-linecap="butt"/><path d="M261.2688,141.64841c-0.92381,1.6961 -1.22842,4.55808 -0.14956,1.32147c-0.00287,-0.4629 0.10655,-0.87269 0.14956,-1.32147zM261.62002,141.01644c0.16581,0.04864 0.16581,0.23877 0.16581,0.23877v0.05661c0,0.6145 -0.16965,1.13949 -0.17304,1.73816c-0.15472,0.46418 -0.44826,3.0541 -1.66884,2.06126c-0.93226,-0.75832 0.77747,-3.63959 1.22206,-4.23244c0,0 0.15,-0.2 0.35,-0.05c0.07984,0.05988 0.10391,0.12774 0.104,0.18765z" fill="#000000" stroke="none" stroke-width="0.5" stroke-linecap="butt"/><path d="M375.69159,146.05301c-1.39204,1.3424 -6.61106,0.56391 -8.2674,-0.27023c-0.43362,-0.32447 -0.57693,-1.88045 -0.57945,-2.72294c-0.00392,-1.30524 0.33005,-2.01241 0.44586,-2.40005c0.23717,-0.79388 0.06354,1.40978 0.08077,-0.03491c1.0285,-2.65507 4.07079,-3.81965 6.87764,-3.25042c1.52981,0.75698 2.074,-1.61086 2.1766,0.08333c0.40943,1.70427 0.7491,7.10951 -0.73401,8.59522z" data-paper-data="{&quot;index&quot;:null}" fill="#ffffff" stroke="none" stroke-width="0.5" stroke-linecap="butt"/><path d="M374.03326,140.69599c0.51015,3.01323 1.11906,-0.19326 -0.05275,-1.44333c0.01181,0.48371 0.05433,0.95798 0.05275,1.44333zM373.69732,138.69869c0.15,-0.2 0.35,-0.05 0.35,-0.05c0.57896,0.45226 1.81866,3.1988 1.11881,3.86793c-0.87396,0.83561 -1.54466,-1.25314 -1.63117,-1.77939c-0.00162,-0.57699 -0.05746,-1.13932 -0.05746,-1.71873l0.12983,-0.23338c0,0 0.02425,-0.02424 0.06376,-0.0458c0.0072,-0.01328 0.01587,-0.02684 0.02622,-0.04063z" data-paper-data="{&quot;index&quot;:null}" fill="#000000" stroke="none" stroke-width="0.5" stroke-linecap="butt"/><path d="M373.9684,139.20415c1.17181,1.25007 0.52759,4.52093 0.01745,1.5077c0.00158,-0.48535 -0.00563,-1.02399 -0.01745,-1.5077z" data-paper-data="{&quot;noHover&quot;:false,&quot;origItem&quot;:[&quot;Path&quot;,{&quot;applyMatrix&quot;:true,&quot;segments&quot;:[[[517.75602,279.95987],[-0.02362,0.96742],[-2.34362,2.50014]],[[517.65052,282.84653],[-1.02029,6.02646],[-0.00315,-0.9707]]],&quot;closed&quot;:true}],&quot;index&quot;:null}" fill="#9ca59f" stroke="none" stroke-width="0.5" stroke-linecap="butt"/><path d="M371.84814,140.87323c0.92381,1.6961 1.19462,4.59239 0.11575,1.35579c0.00287,-0.4629 -0.07274,-0.90701 -0.11575,-1.35579z" data-paper-data="{&quot;noHover&quot;:false,&quot;origItem&quot;:[&quot;Path&quot;,{&quot;applyMatrix&quot;:true,&quot;segments&quot;:[[[521.99212,283.29681],[-0.08602,0.89757],[-1.84761,3.39221]],[[521.69301,285.93976],[-2.15773,6.4732],[-0.00574,-0.92579]]],&quot;closed&quot;:true}],&quot;index&quot;:null}" fill="#9ca59f" stroke="none" stroke-width="0.5" stroke-linecap="butt"/><path d="M369.17595,141.10981c1.17181,1.25007 0.52759,4.52093 0.01744,1.5077c0.00158,-0.48535 -0.00563,-1.02399 -0.01744,-1.5077z" data-paper-data="{&quot;noHover&quot;:false,&quot;origItem&quot;:[&quot;Path&quot;,{&quot;applyMatrix&quot;:true,&quot;segments&quot;:[[[527.34092,283.77119],[-0.02362,0.96742],[-2.34362,2.50014]],[[527.23543,286.65785],[-1.02029,6.02646],[-0.00315,-0.9707]]],&quot;closed&quot;:true}],&quot;index&quot;:null}" fill="#9ca59f" stroke="none" stroke-width="0.5" stroke-linecap="butt"/><path d="M369.24081,142.60165c0.51015,3.01323 1.11906,-0.19326 -0.05275,-1.44333c0.01181,0.48371 0.05432,0.95798 0.05275,1.44333zM368.90487,140.60435c0.15,-0.2 0.35,-0.05 0.35,-0.05c0.57896,0.45226 1.81866,3.19879 1.11881,3.86793c-0.87396,0.83561 -1.54466,-1.25314 -1.63117,-1.77939c-0.00162,-0.57699 -0.05745,-1.13931 -0.05745,-1.71873l0.12982,-0.23338c0,0 0.02425,-0.02425 0.06377,-0.04581c0.0072,-0.01328 0.01587,-0.02683 0.02622,-0.04062z" data-paper-data="{&quot;index&quot;:null}" fill="#000000" stroke="none" stroke-width="0.5" stroke-linecap="butt"/><path d="M372.01202,142.24261c1.07887,3.2366 0.77425,0.37463 -0.14956,-1.32147c0.04301,0.44878 0.15242,0.85858 0.14956,1.32147zM371.61525,140.10152c0.2,-0.15 0.35,0.05 0.35,0.05c0.44459,0.59285 2.15432,3.47412 1.22206,4.23244c-1.22057,0.99284 -1.51411,-1.59708 -1.66884,-2.06126c-0.00339,-0.59867 -0.17304,-1.12366 -0.17304,-1.73816v-0.0566c0,0 0,-0.19013 0.16582,-0.23877c0.00009,-0.05991 0.02416,-0.12777 0.104,-0.18765z" data-paper-data="{&quot;index&quot;:null}" fill="#000000" stroke="none" stroke-width="0.5" stroke-linecap="butt"/><path d="M286.16418,171.93685v-7.51618h68.86495v7.51618z" fill="#ff0000" stroke="none" stroke-width="0" stroke-linecap="butt"/><path d="M332.76584,168.87747c0,0.25 -0.25,0.25 -0.25,0.25l-0.33309,-0.00188c-3.14724,0.80371 -5.96443,1.00712 -9.26469,1.00026c-3.30845,-0.00688 -6.67113,-0.3281 -9.86923,-1.18085c-2.48203,-0.66188 -5.98667,-1.19895 -7.89159,-3.07258c0,0 -0.17678,-0.17678 0,-0.35356c0.17678,-0.17677 0.35356,0 0.35356,0c1.77217,1.81109 5.32242,2.31783 7.66686,2.94301c3.15644,0.8418 6.47613,1.15717 9.74144,1.16396c3.291,0.00684 6.06185,-0.22489 9.20256,-0.9965l0.39418,-0.00188c0,0 0.25,0 0.25,0.25z" fill="#000000" stroke="none" stroke-width="0.5" stroke-linecap="butt"/><path d="M311.8897,175.83066c0.7027,0.4929 2.47651,0.25135 3.35341,0.25135c2.04832,0 3.94467,0.06555 5.88279,-0.34952c0.05163,-0.06637 0.12907,-0.09219 0.12907,-0.09219c1.57716,-0.43377 2.41109,-4.17567 2.83229,-5.43924c-0.03159,-2.27717 0.81495,-4.59518 0.81495,-6.95996c0,-0.37121 0,-0.74242 0,-1.11363h-0.11363c-0.75221,0 -1.45916,-0.08907 -2.20646,-0.09213c-2.67721,-0.52899 -5.23199,-0.72606 -7.97536,-0.72606c-1.21785,0 -4.72902,0.38674 -5.5505,1.29041c0,0 -0.04325,0.04325 -0.10836,0.06557c-0.03895,0.07145 -0.07281,0.15018 -0.10397,0.24296c-0.77576,2.10591 -0.63651,5.01443 0.09377,7.1284c0.24412,0.9411 1.49483,5.40715 2.47539,5.62131c0,0 0.07092,0.02278 0.12227,0.0808zM321.66738,176.12c-2.1202,0.52892 -4.1917,0.46201 -6.42427,0.46201c-0.97394,0 -2.74107,0.22605 -3.55568,-0.29409l-0.32313,-0.077c0,0 -0.10838,-0.0271 -0.16213,-0.11751c-1.33021,-0.59362 -2.40888,-4.62803 -2.74455,-5.92204c-0.78723,-2.27323 -0.7977,-5.1459 -0.08805,-7.41551c0.10869,-0.30718 0.23378,-0.52625 0.47906,-0.75139l0.0664,-0.21237c0,0 0.07906,-0.22857 0.31623,-0.15238c0.10381,0.03335 0.14704,0.0959 0.16282,0.15569c1.43143,-0.69108 3.98802,-0.98611 5.21266,-0.98611c2.75395,0 5.33864,0.18389 8.02463,0.72849c0.73151,-0.00358 1.42145,0.08969 2.15718,0.08969h0.07245c0.07292,-0.09091 0.20028,-0.09091 0.20028,-0.09091l0.34091,0.25c0,0.48485 0,0.9697 0,1.45454c0,2.40854 -0.7974,4.71438 -0.82141,7.04005c-0.48424,1.45274 -1.1803,4.56412 -2.72187,5.6029c0.00506,0.1868 -0.19154,0.23595 -0.19154,0.23595z" fill="#000000" stroke="none" stroke-width="0.5" stroke-linecap="butt"/><path d="M313.4747,174.86002c0.20447,0.06143 0.16439,0.2819 0.16439,0.2819c-0.46828,2.57557 -1.0247,5.18609 -1.33553,7.7619c-0.49341,3.09972 -1.9009,5.94517 -2.64415,8.98388c-0.67246,2.34965 -2.37021,5.78675 0.88574,6.59789c0.50581,0.20235 2.19169,0.31378 2.46231,0.7842c0.69168,1.20232 -1.57362,3.62944 -0.38296,4.79121c2.06092,0.6552 3.79856,1.23772 6.01888,1.23772c0.48982,0 1.49897,0.21383 1.75589,-0.20744c0.77977,-0.89179 2.67179,-3.83258 3.87804,-4.13381c0.67052,-0.16744 1.79012,0.86511 2.48341,0.9836c2.91289,1.87291 2.2832,-2.61046 2.2832,-4.31772c0.01984,-2.32524 -1.13449,-5.55876 -2.15386,-7.64955c-0.96427,-2.40838 -2.40581,-4.66117 -3.29057,-7.03091c-1.68105,-2.22234 -2.51529,-4.58511 -4.50993,-6.59859c-1.47028,-0.87808 -3.72915,-2.486 -5.61486,-1.48428zM313.10713,175.27193c-0.00458,0.00018 -0.00925,0.00027 -0.014,0.00027c-0.25,0 -0.25,-0.25 -0.25,-0.25l0.11132,-0.43302c2.11876,-1.4125 4.73853,0.33387 6.44284,1.36103c2.07263,2.05564 2.92979,4.45278 4.64053,6.75208c0.90799,2.3854 2.33947,4.64162 3.30976,7.06979c1.05194,2.19554 2.18012,5.41856 2.19636,7.85128c0,1.86158 0.38047,7.14193 -2.96706,4.78268c-0.50128,-0.08133 -1.76678,-1.079 -2.16683,-0.9665c-1.07718,0.30293 -2.88966,3.12987 -3.62233,3.9666c-1.45629,1.73474 -6.76386,-0.3439 -8.42605,-0.91981c-1.37856,-1.3935 0.97252,-4.00493 0.21707,-4.95928c-0.212,-0.26782 -1.76135,-0.39526 -2.18792,-0.56587c-3.64029,-0.92942 -1.96191,-4.58169 -1.21436,-7.2028c0.76551,-3.00591 2.14519,-5.85303 2.63208,-8.92479c0.3236,-2.51092 0.83826,-5.04704 1.2986,-7.56166z" fill="#000000" stroke="none" stroke-width="0.5" stroke-linecap="butt"/><path d="M319.09043,176.29431c1.99464,2.01348 2.85606,4.38484 4.53711,6.60718c0.88476,2.36974 2.34827,4.66411 3.31254,7.07248c1.01937,2.09079 2.16363,5.35423 2.14379,7.67947c0,1.70726 0.61728,6.20228 -2.29561,4.32938c-0.69329,-0.11849 -1.81832,-1.14793 -2.48884,-0.98049c-1.20625,0.30123 -3.11529,3.24691 -3.89506,4.1387c-0.25691,0.42127 -1.27184,0.20769 -1.76166,0.20769c-2.22032,0 -3.97746,-0.58678 -6.03837,-1.24198c-1.19066,-1.16177 1.06826,-3.59228 0.37658,-4.7946c-0.27062,-0.47042 -1.96481,-0.58837 -2.47061,-0.79072c-3.25595,-0.81114 -1.57224,-4.27375 -0.89978,-6.6234c0.74325,-3.03871 2.1656,-5.93108 2.65901,-9.0308c0.31083,-2.57582 0.88468,-5.19688 1.35297,-7.77245c0,0 0.0399,-0.22042 -0.16457,-0.28184c1.88571,-1.00171 4.16223,0.6033 5.63251,1.48138z" data-paper-data="{&quot;noHover&quot;:false,&quot;origItem&quot;:[&quot;Path&quot;,{&quot;applyMatrix&quot;:true,&quot;segments&quot;:[[[626.94941,349.72004],[3.77142,-2.00343],[0.40894,0.12285]],[[627.27818,350.28385],[0,0],[-0.93657,5.15115]],[[624.60713,365.80765],[0.62166,-5.15163],[-0.98682,6.19944]],[[619.31883,383.77541],[1.4865,-6.07743],[-1.34491,4.6993]],[[621.09031,396.97119],[-6.51191,-1.62227],[1.01161,0.4047]],[[626.01493,398.53959],[-0.54125,-0.94083],[1.38336,2.40464]],[[625.24902,408.122],[-2.38132,-2.32353],[4.12183,1.3104]],[[637.28677,410.59745],[-4.44064,0],[0.97964,0]],[[640.79855,410.18257],[-0.51383,0.84253],[1.55954,-1.78358]],[[648.55463,401.91495],[-2.41249,0.60246],[1.34104,-0.33489]],[[653.52145,403.88215],[-1.38659,-0.23698],[5.82579,3.74581]],[[658.08784,395.24671],[0,3.41452],[0.03969,-4.65049]],[[653.78012,379.94761],[2.03874,4.18157],[-1.92853,-4.81675]],[[647.19899,365.88579],[1.76952,4.73949],[-3.3621,-4.44468]],[[638.17913,352.68861],[3.98929,4.02696],[-2.94057,-1.75616]]],&quot;closed&quot;:true}]}" fill="#ff0000" stroke="none" stroke-width="0.5" stroke-linecap="butt"/><path d="M311.50602,175.77925c-0.05135,-0.05802 -0.12295,-0.0813 -0.12295,-0.0813c-0.98056,-0.21417 -2.25055,-4.71179 -2.49467,-5.65289c-0.73028,-2.11398 -0.86027,-5.06088 -0.08451,-7.16679c0.03116,-0.09278 0.06582,-0.17255 0.10478,-0.244c0.06511,-0.02232 0.10874,-0.06605 0.10874,-0.06605c0.82148,-0.90367 4.35843,-1.30719 5.57628,-1.30719c2.74337,0 5.3445,0.20802 8.02171,0.73701c0.7473,0.00306 1.45986,0.09803 2.21207,0.09803l0.11385,0.00026c0,0.37121 0.00258,0.74598 0.00258,1.11719c0,2.36478 -0.83919,4.72005 -0.8076,6.99722c-0.42119,1.26357 -1.27631,5.0373 -2.85347,5.47107c0,0 -0.07824,0.02634 -0.12986,0.09271c-1.93811,0.41508 -3.87069,0.35665 -5.91901,0.35665c-0.8769,0 -2.66923,0.23403 -3.37193,-0.25887z" data-paper-data="{&quot;noHover&quot;:false,&quot;origItem&quot;:[&quot;Path&quot;,{&quot;applyMatrix&quot;:true,&quot;segments&quot;:[[[623.77938,351.66131],[0,0],[1.40541,0.9858]],[[630.48619,352.16402],[-1.7538,0],[4.09664,0]],[[642.25176,351.46497],[-3.87623,0.83016],[0.10326,-0.13275]],[[642.5099,351.28059],[0,0],[3.15431,-0.86754]],[[648.17447,340.40211],[-0.84238,2.52714],[-0.06319,-4.55435]],[[649.80437,326.4822],[0,4.72956],[0,-0.74242]],[[649.80437,324.25493],[0,0.74242],[0,0]],[[649.5771,324.25493],[0,0],[-1.50442,0]],[[645.16419,324.07068],[1.4946,0.00612],[-5.35442,-1.05798]],[[629.21346,322.61857],[5.48674,0],[-2.4357,0]],[[618.11247,325.19939],[1.64295,-1.80734],[0,0]],[[617.89574,325.33054],[0.13022,-0.04464],[-0.07791,0.1429]],[[617.6878,325.81646],[0.06233,-0.18557],[-1.55151,4.21182]],[[617.87534,340.07327],[-1.46056,-4.22795],[0.48825,1.8822]],[[622.82612,351.31589],[-1.96112,-0.42833],[0,0]],[[623.07065,351.4775],[-0.1027,-0.11604],[0,0]]],&quot;closed&quot;:true}]}" fill="#ff0000" stroke="none" stroke-width="0.5" stroke-linecap="butt"/><path d="M316.97231,174.39197c-0.15526,0.17677 -0.31052,0 -0.31052,0l-0.06274,-0.07143c-0.98381,-1.12852 -1.31904,-3.15337 -1.31904,-4.67699c0,-2.42425 0.6932,-4.67536 2.19735,-6.39136c0,0 0.15526,-0.17677 0.31052,0c0.15526,0.17677 0,0.35356 0,0.35356c-1.42514,1.61971 -2.06874,3.74573 -2.06874,6.0378c0,1.38253 0.28625,3.30291 1.19042,4.32344l0.06274,0.07143c0,0 0.15526,0.17678 0,0.35356z" fill="#000000" stroke="none" stroke-width="0.5" stroke-linecap="butt"/><path d="M267.52775,182.55312l-0.57146,-32.11743c0,0 1.93072,1.52245 2.46189,1.55004c0.26941,0.01399 1.78454,0.5928 2.36284,0.59474c0.36041,0.00121 6.48193,-2.28856 6.92672,-2.29691c0.1605,-0.00302 0.64722,-0.29292 1.23985,-0.01283c1.16204,0.54919 2.73127,1.86738 3.04679,1.87513c0.98845,0.02427 4.00997,-0.62174 4.78454,-0.64266c1.06881,-0.02886 3.71474,-0.54835 4.07559,-0.60961c0.21173,-0.03594 0.20367,4.6053 0.11415,10.31134c-0.14195,9.04793 -0.4887,20.77316 -0.4887,20.77316z" fill="#000000" stroke="#ffffff" stroke-width="0.5" stroke-linecap="butt"/><path d="M341.19679,181.88131c0,0 0.23167,-6.04994 0.13898,-12.55723c-0.13094,-9.19264 -0.5358,-19.79585 0.08247,-19.86262c0.95085,-0.1027 1.97003,0.45323 2.91708,0.73231c1.24129,0.36578 2.35866,0.48672 3.03589,0.34696c0.40004,-0.08256 3.5659,-1.11683 3.67926,-1.1704c0.59263,-0.28009 2.4723,0.43842 2.6328,0.44144c0.44479,0.00835 3.9947,2.40527 4.3551,2.40407c0.57831,-0.00195 3.59355,0.3836 3.86295,0.36961c0.53118,-0.02759 3.10479,-1.44289 3.10479,-1.44289l-0.0357,31.04593z" data-paper-data="{&quot;index&quot;:null}" fill="#000000" stroke="#ffffff" stroke-width="0.5" stroke-linecap="butt"/><path d="M291.51617,176.69928l-0.3062,-0.04004c-0.96056,-0.61204 -1.88701,-1.27117 -2.89184,-1.80648c-2.7701,-2.0962 -5.01553,-2.80594 -6.74284,-6.03744c-0.20663,-0.88963 -0.58046,-2.14815 -0.04044,-3.63382c0.3636,-1.00032 1.42042,-2.39984 2.16843,-2.74076c-2.57238,-0.49455 -4.7018,-1.14894 -6.93131,-2.90945c-1.53336,-1.62738 -3.51737,-5.0663 -3.09096,-7.49241c0,0 0.05189,-0.27551 0.31132,-0.22041c0.25943,0.0551 0.20754,0.33061 0.20754,0.33061c-0.44572,2.16389 1.56812,5.52229 2.91879,6.9577c2.29251,1.84039 4.05948,2.33948 6.84795,2.82591c0.32833,0.06982 0.65919,0.11676 0.98932,0.17603h0.38038c0.14612,0 0.26457,0.1258 0.26457,0.28097c0,0.09907 -0.04829,0.18616 -0.12123,0.23619l-0.33676,0.23842l-0.04073,-0.06489c-1.60435,1.35216 -3.74355,1.03305 -3.37464,4.27103c0.06009,0.52743 0.2251,1.0223 0.33953,1.53745c1.66822,3.07876 3.86656,3.74266 6.52401,5.76347c1.00572,0.53216 1.93109,1.19431 2.89114,1.80604l0.03396,-0.04003c0,0 0.26458,0 0.26458,0.28097c0,0.28097 -0.26458,0.28096 -0.26458,0.28096z" data-paper-data="{&quot;index&quot;:null}" fill="#ffffff" stroke="none" stroke-width="0.5" stroke-linecap="butt"/><path d="M341.37753,175.18897c0,-0.25979 0.26457,-0.2598 0.26457,-0.2598l0.03397,0.03702c0.96006,-0.56563 1.88542,-1.17789 2.89114,-1.66996c2.65744,-1.86855 4.85578,-2.48244 6.524,-5.32923c0.11442,-0.47634 0.27944,-0.93392 0.33953,-1.42161c0.36891,-2.99402 -1.77029,-2.69896 -3.37464,-3.94924l-0.04074,0.06l-0.33676,-0.22045c-0.07294,-0.04626 -0.12123,-0.12679 -0.12123,-0.2184c0,-0.14348 0.11846,-0.25979 0.26457,-0.25979h0.38037c0.33013,-0.0548 0.66099,-0.09821 0.98932,-0.16277c2.78847,-0.44978 4.55544,-0.91127 6.84795,-2.613c1.35068,-1.32726 3.36452,-4.43262 2.9188,-6.43348c0,0 -0.05189,-0.25475 0.20754,-0.3057c0.25943,-0.05095 0.31132,0.2038 0.31132,0.2038c0.42641,2.24332 -1.55761,5.42313 -3.09097,6.9279c-2.22951,1.62786 -4.35893,2.23295 -6.93131,2.69025c0.74801,0.31524 1.80484,1.60931 2.16844,2.53426c0.54002,1.37374 0.16619,2.53743 -0.04044,3.36004c-1.7273,2.98803 -3.97273,3.64429 -6.74283,5.58256c-1.00483,0.49498 -1.93128,1.10444 -2.89184,1.67038l-0.30621,0.03703c0,0 -0.26457,0 -0.26457,-0.25979z" data-paper-data="{&quot;index&quot;:null}" fill="#ffffff" stroke="none" stroke-width="0.5" stroke-linecap="butt"/><path d="M348.90783,176.95602c1.64729,-0.6847 5.65249,-1.60911 6.41634,0.0321c-1.25922,1.4825 -3.20427,1.21004 -4.99716,1.21004c-0.80129,0 -2.52549,0.23688 -1.92693,-1.05183l0.315,-0.17184c0,0 0.09542,-0.04771 0.19276,-0.01846zM348.76077,177.56522c0.1852,0.16897 1.72461,0.13293 1.94126,0.13293c1.63097,0 2.73938,0.02108 4.1286,-0.79013c-1.95101,-0.33521 -4.16127,-0.29474 -6.01696,0.63869c0,0 -0.0208,0.0104 -0.05289,0.01852z" fill="#ffffff" stroke="none" stroke-width="0.5" stroke-linecap="butt"/><path d="M286.95286,176.53405c-0.08371,0.01069 -0.1571,-0.02599 -0.1571,-0.02599c-1.77372,-0.90125 -3.44818,1.06072 -3.44598,2.738c-0.00633,2.52855 3.38458,0.64709 3.65458,-1.21006c-0.0005,-0.25919 0.10403,-1.26987 -0.0515,-1.50195zM286.79756,175.96286c0.09399,-0.02363 0.18336,0.02105 0.18336,0.02105l0.0338,0.02169c0.73949,0.29085 0.48961,1.36213 0.48839,2.06584c-0.34277,2.43718 -4.64621,4.41905 -4.65332,1.17461c0.0024,-1.98876 1.91111,-4.07863 3.94777,-3.2832z" fill="#ffffff" stroke="none" stroke-width="0.5" stroke-linecap="butt"/><path d="M316.5719,160.41584l-6.66015,-10.70178c0,0 2.75876,-0.1985 3.16552,-0.15141c0.55509,0.06426 1.42722,-0.05183 2.7091,0.16977c1.29751,0.2243 3.00893,0.78721 4.2526,1.00367c1.06565,0.18548 3.59697,-0.82546 3.59697,-0.82546z" fill="#fffd4d" stroke="none" stroke-width="0" stroke-linecap="butt"/><path d="M316.44066,160.2873c-0.83523,-1.34207 -6.4491,-10.49343 -6.4491,-10.49343c0,0 6.6577,10.82863 6.4491,10.49343z" fill="none" stroke="#000000" stroke-width="0.5" stroke-linecap="butt"/><path d="M316.37641,160.2471c0.83523,-1.34207 7.10913,-10.19342 7.10913,-10.19342c0,0 -7.31773,10.52861 -7.10913,10.19342z" data-paper-data="{&quot;index&quot;:null}" fill="none" stroke="#000000" stroke-width="0.5" stroke-linecap="butt"/></g></g></svg>