<svg version="1.1" xmlns="http://www.w3.org/2000/svg" xmlns:xlink="http://www.w3.org/1999/xlink" width="248.06807" height="180.49911" viewBox="0,0,248.06807,180.49911"><g transform="translate(-98.74999,26.54911)"><g data-paper-data="{&quot;isPaintingLayer&quot;:true}" fill="#9966ff" fill-rule="nonzero" stroke="none" stroke-linecap="butt" stroke-linejoin="miter" stroke-miterlimit="10" stroke-dasharray="" stroke-dashoffset="0" style="mix-blend-mode: normal"><path d="M273.00971,82.14855c2.45145,-0.49029 2.94174,1.96116 2.94174,1.96116l0.58764,2.94182c0.38707,1.54983 0.77414,3.09967 1.16121,4.6495c0.76775,2.40413 2.33036,4.50847 3.87422,6.50492c5.03031,6.50499 10.68193,11.42023 17.26987,16.36191c3.65497,2.74164 7.11751,6.09024 11.68937,7.17006c3.6651,0.86565 10.2916,-2.85674 13.35603,-4.39914c2.30224,-1.15878 4.37494,-2.76298 6.73616,-3.7963c1.14588,-0.50146 2.65337,-0.44294 3.49354,-1.36956c0.90576,-0.99896 0.82646,-2.56715 1.23969,-3.85072c0,0 0.27381,-0.73017 0.92339,-1.22197c0.72435,-1.19688 1.6384,-2.31025 2.06612,-3.63771c0.97885,-3.03794 0.61764,-6.35558 1.06465,-9.51586c0.94654,-6.69189 1.49069,-12.8734 1.78852,-19.62326c0.78082,-17.69577 0.59814,-35.39969 0.59814,-53.12339c0.00396,-14.35244 -3.14366,-29.52498 -7.10381,-43.3132l-0.43226,-0.76877c0,0 -1.11803,-2.23607 1.11803,-3.3541c2.23607,-1.11803 3.3541,1.11803 3.3541,1.11803l0.76774,1.63123c4.05572,14.26414 7.29227,29.85117 7.29619,44.6868c0,17.79729 0.18107,35.57434 -0.603,53.3438c-0.3044,6.89868 -0.86552,13.2636 -1.83294,20.10311c-0.10098,0.71392 -1.12624,9.94533 -1.25631,10.34901c-0.56078,1.74042 -1.74823,3.21213 -2.62235,4.81819c0,0 -0.21554,0.38798 -0.62847,0.74617c-0.61228,1.72967 -0.86481,3.68728 -2.08765,5.0301c-0.29383,0.32265 -5.82147,2.78533 -7.26625,3.60114c-4.23302,2.39023 -8.34782,4.46957 -12.93072,6.15136c-2.76743,1.01557 -4.90083,1.95796 -7.90606,1.3192c-5.5088,-1.17087 -9.46547,-4.82645 -13.82214,-8.09444c-8.93902,-6.70526 -19.20296,-14.58668 -22.94441,-25.46868c-0.41293,-1.65017 -0.82586,-3.30033 -1.23879,-4.9505l-0.61236,-3.05818c0,0 -0.49029,-2.45145 1.96116,-2.94174z" stroke-width="0.5"/><text transform="translate(99.49999,148.2) scale(0.5,0.5)" font-size="40" xml:space="preserve" fill="#9966ff" fill-rule="nonzero" stroke="none" stroke-width="1" stroke-linecap="butt" stroke-linejoin="miter" stroke-miterlimit="10" stroke-dasharray="" stroke-dashoffset="0" font-family="Serif" font-weight="normal" text-anchor="start" style="mix-blend-mode: normal"><tspan x="0" dy="0">reset.test.hook.frame 2</tspan></text></g></g></svg>