<svg version="1.1" xmlns="http://www.w3.org/2000/svg" xmlns:xlink="http://www.w3.org/1999/xlink" width="134.16726" height="99.00715" viewBox="0,0,134.16726,99.00715"><g transform="translate(-255.97749,-57.99616)"><g data-paper-data="{&quot;isPaintingLayer&quot;:true}" fill-rule="nonzero" stroke-linecap="butt" stroke-linejoin="miter" stroke-miterlimit="10" stroke-dasharray="" stroke-dashoffset="0" style="mix-blend-mode: normal"><text transform="translate(269.77993,104.10384) rotate(-21.76666) scale(0.8057,0.8057)" font-size="40" xml:space="preserve" fill="#ffffff" fill-rule="nonzero" stroke="#000000" stroke-width="1" stroke-linecap="butt" stroke-linejoin="miter" stroke-miterlimit="10" stroke-dasharray="" stroke-dashoffset="0" font-family="&quot;SpongeBoyTT1-Regular&quot;, Sans Serif" font-weight="normal" text-anchor="start" style="mix-blend-mode: normal"><tspan x="0" dy="0">2</tspan></text><text transform="translate(290.03788,92.45997) rotate(21.29046) scale(0.8057,0.8057)" font-size="40" xml:space="preserve" fill="#ffffff" fill-rule="nonzero" stroke="#000000" stroke-width="1" stroke-linecap="butt" stroke-linejoin="miter" stroke-miterlimit="10" stroke-dasharray="" stroke-dashoffset="0" font-family="&quot;SpongeBoyTT1-Regular&quot;, Sans Serif" font-weight="normal" text-anchor="start" style="mix-blend-mode: normal"><tspan x="0" dy="0">0</tspan></text><text transform="translate(351.20908,93.45003) rotate(21.23336) scale(0.8057,0.8057)" font-size="40" xml:space="preserve" fill="#ffffff" fill-rule="nonzero" stroke="#000000" stroke-width="1" stroke-linecap="butt" stroke-linejoin="miter" stroke-miterlimit="10" stroke-dasharray="" stroke-dashoffset="0" font-family="&quot;SpongeBoyTT1-Regular&quot;, Sans Serif" font-weight="normal" text-anchor="start" style="mix-blend-mode: normal"><tspan x="0" dy="0">4</tspan></text><text transform="translate(329.20849,101.11316) rotate(-15.40623) scale(0.8057,0.8057)" font-size="40" xml:space="preserve" fill="#ffffff" fill-rule="nonzero" stroke="#000000" stroke-width="1" stroke-linecap="butt" stroke-linejoin="miter" stroke-miterlimit="10" stroke-dasharray="" stroke-dashoffset="0" font-family="&quot;SpongeBoyTT1-Regular&quot;, Sans Serif" font-weight="normal" text-anchor="start" style="mix-blend-mode: normal"><tspan x="0" dy="0">2</tspan></text><path d="M323.32108,125.57883c0,16.18771 -12.73958,29.31043 -28.45466,29.31043c-15.71507,0 -28.45465,-13.12273 -28.45465,-29.31043c0,-16.1877 12.73958,-29.31044 28.45465,-29.31044c15.71507,0 28.45466,13.12273 28.45466,29.31044z" fill-opacity="0.2902" fill="#66d4ff" stroke="#ffffff" stroke-width="4"/><path d="M381.68207,125.69288c0,16.1877 -12.73958,29.31043 -28.45465,29.31043c-15.71507,0 -28.45465,-13.12273 -28.45465,-29.31043c0,-16.1877 12.73958,-29.31043 28.45465,-29.31043c15.71507,0 28.45465,13.12273 28.45465,29.31044z" fill-opacity="0.2902" fill="#66d4ff" stroke="#ffffff" stroke-width="4"/></g></g></svg>