<svg version="1.1" xmlns="http://www.w3.org/2000/svg" xmlns:xlink="http://www.w3.org/1999/xlink" width="126.55443" height="30.22194" viewBox="0,0,126.55443,30.22194"><g transform="translate(-257.82696,-253.5366)"><g data-paper-data="{&quot;isPaintingLayer&quot;:true}" fill-rule="nonzero" stroke-linecap="butt" stroke-linejoin="miter" stroke-miterlimit="10" stroke-dasharray="" stroke-dashoffset="0" style="mix-blend-mode: normal"><g><path d="M272.19533,264.1c0,0 0.15894,1.17708 0.21763,2.53548c0.07648,1.76995 -0.19598,4.3841 -0.19825,4.48356c-0.07982,3.48719 -1.02668,5.51516 -1.5537,7.83061c-0.17448,0.76657 -1.09059,2.40393 -1.61541,2.37192c-0.14963,-0.00912 0.43872,-0.44142 0.21801,-0.16374c-0.0397,0.04993 -0.21577,0.00008 -0.27184,0.03599c-0.2521,0.16143 -0.67717,0.30764 -1.08186,0.38066c-0.13587,0.02452 -0.23023,-0.0031 -0.3479,0.08368c-0.09547,0.0704 -1.01065,-0.2194 -1.10745,-0.15958c-0.19364,0.11966 -0.75398,-0.28841 -0.91986,-0.19125c-0.85852,0.50283 -0.91582,0.30597 -1.59288,0.81014c-0.13345,0.09937 -1.20052,-0.10446 -1.78688,-0.71749c-0.53168,-0.55588 -0.58733,-1.52484 -0.69916,-1.48152c-0.16339,0.06329 0.19841,-2.5195 0.03785,-2.46276c-1.80464,0.63779 -3.37297,0.78653 -3.41687,-1.24474c-0.00161,-0.07409 -0.28111,-0.58494 0.32447,-1.68084c0.53908,-0.97555 1.40884,-2.09823 2.0813,-3.2526c1.03313,-1.77346 1.80681,-3.46257 1.80894,-3.56626c0.00315,-0.1533 0.17323,-0.3798 0.2091,-0.52965c0.58099,-2.4273 0.5462,-4.78824 1.44442,-6.26397c0.75825,-1.24575 2.13986,-1.86847 3.14232,-1.80735c0.81465,0.04967 1.55959,-0.82285 2.14821,0.10031c0.23185,0.36362 1.67325,1.26693 1.86334,1.50919c0.41179,0.52476 0.25221,0.81011 0.43959,1.61361c0.09688,0.41544 0.65039,0.9694 0.65688,1.76659z" fill="#ec2b51" stroke="#000000" stroke-width="0"/><path d="M266.28125,259.05978c0,0 0.38748,0.06842 0.39987,0.1533c0.03022,0.20704 -0.33944,0.26078 -0.33944,0.26078c-0.63785,0.12025 -1.39515,0.41976 -1.99163,1.0815c-0.26073,0.28926 -0.65584,1.30592 -0.65584,1.30592c-0.26952,1.43211 -0.46487,2.85041 -0.72815,4.21307c-0.56415,2.09629 -1.42907,3.93486 -2.56194,5.68456c-0.91839,1.55719 -2.36061,2.65844 -2.20042,4.71636c0.30663,1.9126 3.35077,1.12554 4.14671,0.30939c1.08202,-1.39027 2.89593,-2.79917 2.98565,-4.83741c0,0 0.00977,-0.20961 0.19303,-0.19843c0.18326,0.01117 0.17349,0.22079 0.17349,0.22079c-0.10651,2.17768 -1.93027,3.62241 -3.0921,5.11129c-0.24298,0.25035 -0.70399,0.62777 -1.10499,0.79888c0.03629,0.12104 -0.02017,0.68673 -0.03557,1.01702c-0.09283,1.93737 1.27646,3.81071 3.0118,2.74897c0.3499,-0.15085 1.16449,-0.75229 1.1964,-0.73487c1.12268,-0.96134 1.57238,-2.36013 2.14062,-4.01446c0.41427,-1.70441 0.73743,-3.17519 0.59404,-4.96117c0,0 -0.01624,-0.20907 0.16656,-0.22765c0.1828,-0.01858 0.19904,0.1905 0.19904,0.1905c0.13784,1.84476 -0.18088,3.37005 -0.61162,5.13177c-0.57617,1.67065 -1.05656,3.08648 -2.14196,4.09531c0.11284,0.06524 1.46466,0.50184 2.38386,0.22841c0.06639,-0.01975 0.64437,-0.20057 1.07749,-0.62518c0.55671,-0.54576 0.99909,-1.40461 1.1304,-1.89315c0.88911,-1.7079 1.14951,-4.83468 1.23952,-6.80089c0.29405,-2.57884 0.5754,-5.41886 0.09619,-7.96359c-0.13286,-1.50744 -0.79178,-3.40727 -1.97402,-4.17594c0,0 -0.15954,-0.10375 -0.06885,-0.28622c0.09071,-0.18248 0.25025,-0.07876 0.25025,-0.07876c1.29309,0.84075 1.97955,2.83249 2.15484,4.47307c0.48796,2.57585 0.20639,5.45977 -0.09292,8.07005c-0.10221,2.082 -0.47458,5.13256 -1.35449,6.9717c-0.28933,1.07644 -1.14571,2.23803 -2.17721,2.69412c-0.88491,0.39128 -1.98289,0.1562 -2.00595,0.1196c-0.34942,-0.09672 -0.67232,-0.2627 -0.98671,-0.45589c-0.30723,0.23665 -0.65798,0.446 -1.06381,0.62553c-1.98665,1.19291 -3.63195,-0.91097 -3.53003,-3.15359c0.01522,-0.32666 0.03046,-0.65332 0.04568,-0.97998c-1.33098,0.39456 -2.96178,0.19727 -3.30793,-1.35363c-0.17274,-2.22663 1.27301,-3.34702 2.26367,-5.025c1.1138,-1.69512 1.95852,-3.50797 2.50635,-5.54874c0.26899,-1.37946 0.63951,-4.48241 0.77317,-4.50923c0.3464,-1.23271 1.86761,-2.19933 2.89688,-2.3981z" fill="#971b34" stroke="none" stroke-width="0.5"/></g><g stroke="none" stroke-width="0.5"><path d="M264.03937,254.07941c1.37497,-1.27349 2.83594,0.10805 4.39498,-0.00224c0.87386,-0.06182 1.51313,-0.78761 2.43305,-0.44481c0.49793,0.18555 1.00322,0.78739 1.41834,1.14501c0.97416,0.12993 1.81567,-0.97805 2.73705,-0.90207c1.75308,0.14454 0.47377,2.09386 0.14278,2.64023c-0.14232,0.23494 0.22894,1.68819 0.03796,2.23359c-0.29546,0.84377 -0.87009,0.53046 -1.24185,1.05082c0.048,0.73131 0.25636,1.19653 -0.48058,1.64796c-1.1458,0.70189 -2.04672,-0.71251 -2.90061,-1.20857c-1.85399,-1.07704 -3.23529,1.23485 -4.92385,-1.00486c-0.96585,-0.06524 -2.35778,0.80849 -3.11599,-0.24676c-0.1569,-0.21836 -0.23975,-0.51278 -0.25878,-0.79458c-0.04796,-0.71031 0.71241,-1.00948 0.70368,-1.68461c-0.00873,-0.6747 -0.61019,-1.45866 -0.00409,-2.11421c0.19428,-0.21013 0.75591,-0.26934 1.02296,-0.31358zM263.95035,254.94427c-0.98406,0.25262 -0.03752,1.13929 -0.37296,2.18597c-0.1115,0.34792 -0.77985,0.935 -0.46846,1.32596c0.44472,0.55833 2.225,-0.08217 2.86572,0.02153c1.6572,1.76961 2.46313,0.32575 4.49644,0.84091c0.9327,0.23631 1.62665,1.74633 2.69202,1.3725c0.25995,-0.09121 0.09941,-0.96424 0.10586,-1.16913c0.36332,-0.52187 1.07837,-0.54337 1.25859,-1.10033c0.2887,-0.8922 -0.35708,-1.51113 0.00058,-2.32261c0.25767,-0.58464 1.06292,-0.46623 0.58697,-1.37299c-0.02756,-0.05251 -1.10692,0.42189 -1.15607,0.43935c-0.74251,0.26378 -1.13062,0.53706 -1.94632,0.39131c-0.39729,-0.31295 -0.93382,-0.9526 -1.39658,-1.13549c-0.81363,-0.32155 -1.77038,0.62353 -2.68156,0.49081c-1.13414,-0.1652 -2.6149,-1.17655 -3.56006,-0.05182c0,0 -0.19985,0.22856 -0.42417,0.08401z" fill="#9a9a9a"/><path d="M264.34158,254.84173c0.94517,-1.12472 2.44178,-0.132 3.57592,0.0332c0.91118,0.13272 1.90244,-0.81215 2.71607,-0.49061c0.46276,0.18288 1.01326,0.83774 1.41056,1.15069c0.81571,0.14575 1.20612,-0.12243 1.94862,-0.38619c0.04915,-0.01746 1.12875,-0.49123 1.15631,-0.43872c0.47594,0.90676 -0.3275,0.79478 -0.58517,1.37941c-0.35766,0.81148 0.28872,1.44593 0.00002,2.33813c-0.18022,0.55696 -0.89777,0.58877 -1.26108,1.11064c-0.00646,0.20488 0.15052,1.0854 -0.10943,1.17661c-1.06537,0.37382 -1.76575,-1.128 -2.69846,-1.36431c-2.03331,-0.51517 -2.89863,0.90726 -4.55583,-0.86236c-0.64072,-0.1037 -2.42185,0.53183 -2.86657,-0.02651c-0.3114,-0.39095 0.35672,-0.98627 0.46822,-1.33418c0.33544,-1.04668 -0.6081,-1.94745 0.37596,-2.20008c0.22433,0.14455 0.42486,-0.08571 0.42486,-0.08571z" fill="#ffffff"/></g><g data-paper-data="{&quot;index&quot;:null}"><path d="M370.01301,265.48509c0.00649,-0.79719 0.56,-1.35116 0.65688,-1.76659c0.18738,-0.8035 0.02781,-1.08885 0.43959,-1.61361c0.1901,-0.24226 1.6315,-1.14556 1.86334,-1.50919c0.58862,-0.92316 1.33356,-0.05064 2.14821,-0.10031c1.00245,-0.06113 2.38407,0.56159 3.14232,1.80734c0.89822,1.47573 0.86343,3.83668 1.44442,6.26397c0.03587,0.14986 0.20595,0.37636 0.2091,0.52965c0.00213,0.10368 0.77581,1.79279 1.80894,3.56626c0.67247,1.15436 1.54222,2.27705 2.0813,3.2526c0.60558,1.0959 0.32608,1.60674 0.32447,1.68084c-0.0439,2.03127 -1.61222,1.88253 -3.41687,1.24474c-0.16056,-0.05674 0.20124,2.52605 0.03785,2.46276c-0.11183,-0.04332 -0.16747,0.92563 -0.69915,1.48152c-0.58636,0.61304 -1.65343,0.81687 -1.78688,0.71749c-0.67707,-0.50417 -0.73436,-0.3073 -1.59288,-0.81014c-0.16589,-0.09716 -0.72622,0.3109 -0.91987,0.19124c-0.0968,-0.05982 -1.01198,0.22998 -1.10744,0.15959c-0.11768,-0.08677 -0.21203,-0.05916 -0.3479,-0.08368c-0.4047,-0.07302 -0.82976,-0.21923 -1.08187,-0.38067c-0.05606,-0.03591 -0.23213,0.01395 -0.27183,-0.03598c-0.22071,-0.27768 0.36764,0.15462 0.21801,0.16374c-0.52483,0.03201 -1.44094,-1.60536 -1.61542,-2.37193c-0.52702,-2.31545 -1.47388,-4.34342 -1.5537,-7.8306c-0.00227,-0.09946 -0.27473,-2.71361 -0.19825,-4.48356c0.05869,-1.35841 0.21763,-2.53548 0.21763,-2.53548z" fill="#ec2b51" stroke="#000000" stroke-width="0"/><path d="M375.92716,260.44487c1.02927,0.19877 2.55047,1.16539 2.89687,2.3981c0.13366,0.02682 0.50418,3.12977 0.77317,4.50923c0.54783,2.04077 1.39255,3.85363 2.50635,5.54874c0.99066,1.67798 2.43642,2.79837 2.26368,5.025c-0.34616,1.55091 -1.97696,1.7482 -3.30794,1.35363c0.01522,0.32666 0.03046,0.65332 0.04569,0.97998c0.10192,2.24262 -1.54338,4.3465 -3.53003,3.15359c-0.40583,-0.17953 -0.75657,-0.38888 -1.06381,-0.62553c-0.31439,0.1932 -0.63729,0.35917 -0.98671,0.45589c-0.02306,0.0366 -1.12104,0.27169 -2.00595,-0.1196c-1.0315,-0.4561 -1.88789,-1.61768 -2.17722,-2.69412c-0.87991,-1.83913 -1.25228,-4.88969 -1.35449,-6.9717c-0.29931,-2.61028 -0.58088,-5.4942 -0.09292,-8.07005c0.1753,-1.64058 0.86176,-3.63232 2.15485,-4.47307c0,0 0.15954,-0.10372 0.25025,0.07876c0.09069,0.18248 -0.06885,0.28622 -0.06885,0.28622c-1.18224,0.76867 -1.84115,2.6685 -1.97402,4.17594c-0.4792,2.54473 -0.19786,5.38475 0.09619,7.96359c0.09001,1.96621 0.35041,5.09298 1.23952,6.80089c0.13131,0.48854 0.5737,1.34739 1.1304,1.89315c0.43313,0.42461 1.0111,0.60543 1.07749,0.62518c0.9192,0.27343 2.27101,-0.16317 2.38385,-0.22841c-1.0854,-1.00883 -1.56578,-2.42466 -2.14195,-4.09531c-0.43074,-1.76173 -0.74946,-3.28701 -0.61162,-5.13177c0,0 0.01624,-0.20908 0.19904,-0.1905c0.1828,0.01858 0.16656,0.22765 0.16656,0.22765c-0.14339,1.78598 0.17977,3.25676 0.59404,4.96117c0.56824,1.65433 1.01794,3.05312 2.14062,4.01446c0.03191,-0.01742 0.84651,0.58402 1.19641,0.73487c1.73534,1.06174 3.10462,-0.8116 3.0118,-2.74897c-0.0154,-0.33029 -0.07187,-0.89598 -0.03557,-1.01702c-0.401,-0.17111 -0.86201,-0.54853 -1.10499,-0.79888c-1.16183,-1.48888 -2.98559,-2.93361 -3.0921,-5.11129c0,0 -0.00977,-0.20962 0.17349,-0.22079c0.18326,-0.01117 0.19303,0.19843 0.19303,0.19843c0.08972,2.03825 1.90363,3.44714 2.98565,4.83741c0.79594,0.81615 3.84008,1.60321 4.14671,-0.30939c0.16019,-2.05791 -1.28202,-3.15917 -2.20041,-4.71636c-1.13287,-1.74969 -1.9978,-3.58827 -2.56195,-5.68456c-0.26328,-1.36266 -0.45863,-2.78096 -0.72815,-4.21307c0,0 -0.39511,-1.01666 -0.65584,-1.30592c-0.59648,-0.66174 -1.35378,-0.96125 -1.99163,-1.0815c0,0 -0.36966,-0.05374 -0.33944,-0.26078c0.01239,-0.08488 0.39987,-0.1533 0.39987,-0.1533z" fill="#971b34" stroke="none" stroke-width="0.5"/></g><g data-paper-data="{&quot;index&quot;:null}" stroke="none" stroke-width="0.5"><path d="M378.20393,255.46583c0.26705,0.04424 0.82867,0.10345 1.02295,0.31358c0.6061,0.65554 0.00465,1.43951 -0.00408,2.11421c-0.00873,0.67514 0.75164,0.9743 0.70367,1.68461c-0.01903,0.2818 -0.10188,0.57621 -0.25878,0.79458c-0.75822,1.05525 -2.15014,0.18152 -3.11599,0.24676c-1.68856,2.2397 -3.06986,-0.07219 -4.92385,1.00486c-0.85389,0.49606 -1.75481,1.91046 -2.90061,1.20857c-0.73694,-0.45143 -0.52857,-0.91664 -0.48058,-1.64796c-0.37176,-0.52035 -0.94639,-0.20704 -1.24185,-1.05081c-0.19099,-0.54541 0.18027,-1.99866 0.03796,-2.23359c-0.33098,-0.54637 -1.6103,-2.49569 0.14278,-2.64023c0.92138,-0.07597 1.7629,1.032 2.73705,0.90207c0.41512,-0.35762 0.92042,-0.95945 1.41835,-1.14501c0.91992,-0.3428 1.55919,0.38298 2.43305,0.4448c1.55903,0.11029 3.02,-1.27125 4.39497,0.00224zM378.25799,256.32935c-0.22433,0.14456 -0.42417,-0.08401 -0.42417,-0.08401c-0.94516,-1.12472 -2.42592,-0.11337 -3.56006,0.05183c-0.91118,0.13272 -1.86793,-0.81236 -2.68156,-0.49081c-0.46276,0.18289 -0.99929,0.82254 -1.39658,1.13549c-0.8157,0.14576 -1.20381,-0.12753 -1.94632,-0.39131c-0.04915,-0.01747 -1.12851,-0.49186 -1.15607,-0.43935c-0.47595,0.90676 0.3293,0.78836 0.58697,1.373c0.35766,0.81148 -0.28812,1.43041 0.00058,2.32261c0.18022,0.55696 0.89528,0.57846 1.25859,1.10033c0.00646,0.20488 -0.15408,1.07792 0.10586,1.16913c1.06537,0.37382 1.75932,-1.13619 2.69202,-1.3725c2.03331,-0.51517 2.83925,0.9287 4.49644,-0.84091c0.64072,-0.1037 2.421,0.53681 2.86572,-0.02153c0.3114,-0.39096 -0.35695,-0.97805 -0.46845,-1.32596c-0.33544,-1.04668 0.6111,-1.93335 -0.37296,-2.18598z" fill="#9a9a9a"/><path d="M377.86675,256.22684c0,0 0.20053,0.23026 0.42486,0.08571c0.98406,0.25263 0.04052,1.1534 0.37597,2.20008c0.1115,0.34792 0.77961,0.94324 0.46821,1.33418c-0.44472,0.55833 -2.22585,-0.07719 -2.86656,0.02651c-1.6572,1.76961 -2.52252,0.34719 -4.55583,0.86236c-0.9327,0.23631 -1.63308,1.73813 -2.69845,1.36431c-0.25995,-0.09121 -0.10298,-0.97173 -0.10943,-1.17661c-0.36331,-0.52187 -1.08085,-0.55367 -1.26108,-1.11064c-0.2887,-0.8922 0.35768,-1.52665 0.00002,-2.33813c-0.25767,-0.58463 -1.06111,-0.47265 -0.58517,-1.37941c0.02756,-0.05251 1.10716,0.42126 1.15631,0.43872c0.74251,0.26376 1.13291,0.53195 1.94862,0.38619c0.3973,-0.31295 0.9478,-0.9678 1.41056,-1.15069c0.81363,-0.32154 1.80488,0.62333 2.71606,0.49061c1.13414,-0.16519 2.63074,-1.15791 3.57592,-0.0332z" fill="#ffffff"/></g></g></g></svg>