<svg version="1.1" xmlns="http://www.w3.org/2000/svg" xmlns:xlink="http://www.w3.org/1999/xlink" width="127.60005" height="19.38284" viewBox="0,0,127.60005,19.38284"><g transform="translate(-261.28588,-77.10876)"><g data-paper-data="{&quot;isPaintingLayer&quot;:true}" fill-rule="nonzero" stroke-width="1" stroke-linecap="round" stroke-linejoin="miter" stroke-miterlimit="10" stroke-dasharray="" stroke-dashoffset="0" style="mix-blend-mode: normal"><path d="M386.82246,79.58907c0,0 1.39931,3.32968 1.56347,4.85447c0.14139,1.31323 -0.63658,3.75475 -0.63658,3.75475c-0.57215,1.54853 -1.61676,2.70101 -1.61676,2.70101c0,0 -1.00231,1.5572 -1.14657,2.44774c-0.1733,1.06985 -0.03653,1.91666 -0.03653,1.91666l-118.5287,0.72483c0,-2.88829 -2.46446,-2.85981 -3.66479,-5.51732c-1.53465,-3.39769 0.1041,-9.06365 0.1041,-9.06365l123.96236,-1.81848z" fill="#f03019" stroke="#8c3d00"/><path d="M386.93358,79.70018c0,0 1.2882,3.21857 1.45236,4.74336c0.14139,1.31323 -0.63658,3.75475 -0.63658,3.75475c-0.57215,1.54853 -1.61676,2.70101 -1.61676,2.70101c0,0 -1.00231,1.5572 -1.14657,2.44774c-0.1733,1.06985 -0.03653,1.91666 -0.03653,1.91666l-118.5287,0.72483c0,-2.88829 -2.46446,-2.85981 -3.66479,-5.51732c-1.53465,-3.39769 -0.34035,-10.73032 -0.34035,-10.73032l124.40681,-0.15181z" fill="#f03019" stroke="#8c3d00"/><path d="M388.30901,84.36661c0.14139,1.31323 -0.30325,3.53253 -0.30325,3.53253c-0.57215,1.54853 -1.95009,2.92323 -1.95009,2.92323c0,0 -1.00231,1.5572 -1.14657,2.44774c-0.1733,1.06985 -0.03653,1.91666 -0.03653,1.91666l-118.5287,0.72483c0,-2.88829 -2.46446,-2.85981 -3.66479,-5.51732c-0.43368,-0.96016 -0.84503,-2.00345 -0.89319,-3.32507c-0.12228,-3.35518 0.88619,-7.29413 0.88619,-7.29413l124.07347,-0.15181z" fill="none" stroke="#8c3d00"/></g></g></svg>