<svg version="1.1" xmlns="http://www.w3.org/2000/svg" xmlns:xlink="http://www.w3.org/1999/xlink" width="796.70435" height="472.88992" viewBox="0,0,796.70435,472.88992"><g transform="translate(68.38129,38.93254)"><g data-paper-data="{&quot;isPaintingLayer&quot;:true}" fill-rule="nonzero" stroke-linejoin="miter" stroke-miterlimit="10" stroke-dasharray="" stroke-dashoffset="0" style="mix-blend-mode: normal"><path d="M-68.38129,387.97047v-426.90301h796.70435v426.90301z" fill="#fffd4d" stroke="none" stroke-width="0" stroke-linecap="butt"/><text transform="translate(53.34271,137.07576) scale(0.41123,0.44328)" font-size="40" xml:space="preserve" fill="#8b2c00" fill-rule="nonzero" stroke="none" stroke-width="1" stroke-linecap="butt" stroke-linejoin="miter" stroke-miterlimit="10" stroke-dasharray="" stroke-dashoffset="0" font-family="&quot;GenEiPOPlePw-Bk&quot;, Sans Serif" font-weight="normal" text-anchor="start" style="mix-blend-mode: normal"><tspan x="0" dy="0"> NINGUNO DE LOS PERSONAJES, PROGRAMAS, </tspan><tspan x="0" dy="46.150000000000006px">EFECTOS ESPECIALES O CANCIONES DE ESTE JUEGO </tspan><tspan x="0" dy="46.150000000000006px">SON DE MI PROPIEDAD.</tspan><tspan x="0" dy="46.150000000000006px"> </tspan><tspan x="0" dy="46.150000000000006px">MÚSICA: "CAILFORNIA LULLABYE" DE JOSH WOODWARD </tspan><tspan x="0" dy="46.150000000000006px">(SITIO WEB DE JOSH WOODWARD:</tspan><tspan x="0" dy="46.150000000000006px"> https://www.joshwoodward.com/)</tspan></text><path d="M442.09746,432.19241l-1.11163,1.17702l-1.37319,0.32695l-1.89632,-0.71929l-1.3078,-1.3732" fill="none" stroke="#000000" stroke-width="0.5" stroke-linecap="round"/><path d="M4.31346,94.09699v-76.0991h257.69344v76.0991z" fill="#ffffff" stroke="#000000" stroke-width="0.5" stroke-linecap="butt"/><text transform="translate(9.6237,34.75029) scale(0.28352,0.32915)" font-size="40" xml:space="preserve" fill="#000000" fill-rule="nonzero" stroke="none" stroke-width="1" stroke-linecap="butt" stroke-linejoin="miter" stroke-miterlimit="10" stroke-dasharray="" stroke-dashoffset="0" font-family="&quot;GenEiPOPlePw-Bk&quot;, Sans Serif" font-weight="normal" text-anchor="start" style="mix-blend-mode: normal"><tspan x="0" dy="0">ESTE JUEGO NO ES OFICIAL</tspan><tspan x="0" dy="48px">NO ESTOY AFILIADO</tspan><tspan x="0" dy="48px">CON NICKELODEON</tspan><tspan x="0" dy="48px">SÓLO SOY UN GRAN FAN DE LA SERIE.</tspan></text><text transform="translate(9.88057,330.37581) scale(0.40471,0.40471)" font-size="40" xml:space="preserve" fill="#8b2c00" fill-rule="nonzero" stroke="none" stroke-width="1" stroke-linecap="butt" stroke-linejoin="miter" stroke-miterlimit="10" stroke-dasharray="" stroke-dashoffset="0" font-family="&quot;GenEiPOPlePw-Bk&quot;, Sans Serif" font-weight="normal" text-anchor="start" style="mix-blend-mode: normal"><tspan x="0" dy="0">¡GRACIAS POR JUGAR A VESTIR A BOB ESPONJA!</tspan><tspan x="0" dy="46.150000000000006px">¡SIGNIFICA MUCHO PARA MÍ!</tspan></text><text transform="translate(557.84941,353.7723) scale(0.25591,0.25591)" font-size="40" xml:space="preserve" fill="#00901d" fill-rule="nonzero" stroke="none" stroke-width="1" stroke-linecap="butt" stroke-linejoin="miter" stroke-miterlimit="10" stroke-dasharray="" stroke-dashoffset="0" font-family="&quot;SpongeBoyTT1-Regular&quot;, Sans Serif" font-weight="normal" text-anchor="start" style="mix-blend-mode: normal"><tspan x="0" dy="0">Version 0.5</tspan></text><path d="M370.05524,75.37058v-56.05405h265.22523v56.05405z" fill="#ffffff" stroke="#000000" stroke-width="0.5" stroke-linecap="butt"/><text transform="translate(365.17895,36.16037) scale(0.36081,0.36081)" font-size="40" xml:space="preserve" fill="#000000" fill-rule="nonzero" stroke="none" stroke-width="1" stroke-linecap="butt" stroke-linejoin="miter" stroke-miterlimit="10" stroke-dasharray="" stroke-dashoffset="0" font-family="&quot;GenEiPOPlePw-Bk&quot;, Sans Serif" font-weight="normal" text-anchor="start" style="mix-blend-mode: normal"><tspan x="0" dy="0">  BASADO EN EL ESPECTÁCULO</tspan></text><text transform="translate(406.25,63.85011) scale(0.57131,0.57131)" font-size="40" xml:space="preserve" fill="#000000" fill-rule="nonzero" stroke="none" stroke-width="1" stroke-linecap="butt" stroke-linejoin="miter" stroke-miterlimit="10" stroke-dasharray="" stroke-dashoffset="0" font-family="&quot;GenEiPOPlePw-Bk&quot;, Sans Serif" font-weight="normal" text-anchor="start" style="mix-blend-mode: normal"><tspan x="0" dy="0">BOB ESPONJA</tspan></text><g stroke-linecap="butt"><g fill="#000000" stroke="none" stroke-width="0.5"><path d="M571.24381,312.17785c0,0 -0.2609,0.48324 -0.74415,0.22234c-0.48324,-0.2609 -0.22234,-0.74415 -0.22234,-0.74415l0.25326,-0.46638c2.12378,-5.69038 7.3026,-1.40357 7.92171,2.73661c0,0 0.08122,0.54314 -0.46193,0.62435c-0.54314,0.08122 -0.62435,-0.46193 -0.62435,-0.46193c-0.46815,-3.13072 -4.12114,-6.99863 -5.83563,-2.44431z" data-paper-data="{&quot;index&quot;:null}"/><path d="M543.00741,316.92794c-0.38577,0.39086 -0.77664,0.00507 -0.77664,0.00507l-0.43008,-0.42631c-2.97174,-3.85356 -5.3335,0.91374 -4.86535,4.04446c0,0 0.08122,0.54314 -0.46193,0.62435c-0.54314,0.08122 -0.62435,-0.46193 -0.62435,-0.46193c-0.61909,-4.14019 3.0792,-9.75441 6.77466,-4.93421l0.3786,0.3719c0,0 0.39086,0.38577 0.00507,0.77664z" data-paper-data="{&quot;index&quot;:null}"/><path d="M574.26243,311.59541c0.63078,0.07854 0.50479,0.6159 0.50479,0.6159l-0.11415,0.3448c-0.35338,0.52915 -0.5366,1.07742 -0.82135,1.63571c-3.65627,6.64078 -9.37507,8.56926 -17.33118,9.75448c-6.70021,0.44131 -12.52301,-1.52739 -16.94717,-5.64856c0,0 -0.42056,-0.39191 0.06617,-0.76788c0.48672,-0.37598 0.90729,0.01592 0.90729,0.01592c4.15633,3.87466 9.5878,5.72521 15.87762,5.32305c7.46928,-1.12128 12.83739,-2.80055 16.25736,-9.07679c0.30369,-0.59083 0.50536,-1.15718 0.87413,-1.72479l-0.03028,-0.01297c0,0 0.12599,-0.53739 0.75677,-0.45885z"/></g><path d="M561.354,306.66819c0.2025,10.66165 1.49133,19.01204 0.32229,23.81634c-0.60915,2.50326 -2.50872,4.37033 -4.24731,4.40335c-5.07534,0.09639 -3.61636,-9.39676 -3.92436,-25.61356c-0.00793,-0.41782 -0.09641,-5.25599 -0.09758,-5.67207c-0.0442,-15.73326 -1.59614,-29.52182 3.34843,-29.61574c0.80451,-0.01527 1.76925,-0.48174 2.30696,0.2724c2.85448,4.00327 2.0324,18.76312 2.29157,32.40929z" fill="#fff649" stroke="none" stroke-width="0"/><path d="M553.94408,318.13611c0.03114,0.01702 0.06128,0.03518 0.09045,0.05442c-0.24869,0.7651 0.01679,1.99439 -0.02127,2.87518c-0.00303,0.04297 -0.00573,0.0864 -0.00816,0.13028c-0.1264,1.51704 -0.67535,3.90178 -0.17234,5.71606c0.13209,0.47642 0.43378,0.64295 0.76663,0.61948c0.07005,1.17606 0.12745,2.40965 0.06737,3.44716c-0.01649,0.28463 -0.15182,0.54279 -0.52947,0.54997c-0.72051,0.01368 -0.83385,-2.78977 -0.75583,-6.81125c0.01695,-0.87353 -0.2262,-6.11047 0.1025,-6.30666z" fill="#000000" stroke="none" stroke-width="0.5"/><path d="M553.29494,320.83541c0.04313,-0.63292 0.07634,-2.37313 0.03564,-3.02903c-0.02697,-0.4347 0.06015,-0.44881 0.11881,-0.53345c0.25751,-0.37158 1.00866,-0.18514 1.01887,0.34315c0.06764,3.50332 -0.19546,7.0303 0.21934,10.50964c0.00263,0.01996 0.00417,0.04027 0.00455,0.06085c0.00105,0.05511 -0.0062,0.10844 -0.02061,0.15884c-0.48605,3.7009 -0.91541,3.07658 -1.13338,1.0419c-0.14281,-1.33304 -0.14208,-3.27245 -0.19136,-4.99403c-0.04724,-1.65055 -0.0924,-2.96311 -0.05186,-3.55787z" fill="#000000" stroke="none" stroke-width="0.5"/><path d="M561.6831,326.08288c-0.53972,0.01026 -0.54998,-0.52948 -0.54998,-0.52948l-0.00147,-0.0771c-0.03851,-2.02806 -0.23119,-4.05045 -0.26989,-6.08848c-0.0737,-3.88102 -0.14742,-7.76204 -0.22114,-11.64306c0,0 -0.00097,-0.05113 0.01341,-0.12225l-0.00783,-0.41189c-0.09414,-4.95695 -0.19296,-9.91383 -0.28178,-14.87086c-0.66294,-5.5004 -0.03345,-11.82641 -1.19424,-17.31928c-4.44547,-3.73278 -5.41895,2.95331 -5.5295,6.34473c0.17245,0.17498 0.14802,0.44081 0.14802,0.44081c-0.46966,5.08346 0.0386,10.38683 0.13549,15.48888c0.10557,5.5588 0.37331,11.13443 0.47871,16.67591c0.02309,1.2155 0.04616,2.431 0.06927,3.6465c-0.89241,0.49701 -0.40836,2.27963 -0.45888,3.44845c-0.00303,0.04297 -0.00573,0.0864 -0.00816,0.13028c-0.1264,1.51704 -0.67535,3.90178 -0.17233,5.71605c0.06758,0.24376 0.17957,0.40642 0.31741,0.50399c0.08275,0.5686 0.18183,1.07646 0.29118,1.49184c0.00816,0.25022 0.02397,0.49474 0.04901,0.73145c-0.07655,0.0589 -0.18218,0.10025 -0.32788,0.10301c-0.53972,0.01026 -0.54998,-0.52948 -0.54998,-0.52948c-0.06585,-3.46738 -0.13797,-7.26472 -0.20742,-10.92101c-0.02786,-1.46636 -0.05528,-2.91 -0.0817,-4.30059c-0.10506,-5.54138 -0.37313,-11.11722 -0.4787,-16.67592c-0.09325,-4.90988 -0.55513,-9.99666 -0.18929,-14.90674c-0.09661,-0.14678 -0.0998,-0.31485 -0.0998,-0.31485c-0.08401,-4.42337 2.41352,-11.92957 8.01449,-7.35169c0.34687,5.81961 0.18728,11.72763 0.87142,17.5234c0.09943,4.97478 0.18965,9.94974 0.28413,14.92461l0.00923,0.48579c0,0 0.00098,0.05115 -0.01341,0.12225c0.07324,3.85638 0.14648,7.71278 0.21974,11.56917c0.03871,2.03827 0.23137,4.05988 0.26989,6.08848l0.00147,0.0771c0,0 0.01026,0.5397 -0.52947,0.54997z" fill="#000000" stroke="none" stroke-width="0.5"/><path d="M537.17944,238.34547c-0.53972,0.01026 -0.54997,-0.52947 -0.54997,-0.52947l-0.01025,-0.53979c-0.01555,-0.81914 -0.2018,-1.52011 -0.22435,-2.33561c-0.04782,-3.73465 -6.17751,-2.97944 -7.66248,-0.63491c0,0 -0.29084,0.45475 -0.74562,0.16391c-0.45476,-0.29085 -0.16391,-0.74562 -0.16391,-0.74562c2.04954,-3.17829 9.53314,-3.70442 9.65145,1.19611c0.00636,0.79691 0.20889,1.52209 0.22435,2.33561l0.01025,0.53979c0,0 0.01024,0.53971 -0.52948,0.54998z" fill="#000000" stroke="none" stroke-width="0.5"/><path d="M576.88829,238.42241c-0.53971,0.01024 -0.54998,-0.52948 -0.54998,-0.52948l0.0056,-0.09133c-0.23586,-1.28853 -0.0604,-2.56713 -0.07375,-3.86344c1.27246,-4.16306 8.1614,-3.6751 10.56814,-0.81148c0,0 0.34516,0.41505 -0.06987,0.76023c-0.41505,0.34516 -0.76023,-0.06987 -0.76023,-0.06987c-1.74314,-2.12352 -7.63995,-2.90793 -8.66924,0.27382c0.03442,1.17569 -0.15586,2.34374 0.06634,3.51311l0.01244,0.2685c0,0 0.01024,0.53971 -0.52947,0.54997z" fill="#000000" stroke="none" stroke-width="0.5"/><path d="M556.25263,276.67642c0.34148,17.97936 -13.06726,32.81444 -29.94932,33.13508c-16.88202,0.32064 -30.84444,-13.99459 -31.18594,-31.97394c-0.34148,-17.97936 13.06729,-32.81443 29.94934,-33.13508c16.88202,-0.32064 30.84443,13.9946 31.18592,31.97396z" fill="#fbfdfa" stroke="#000000" stroke-width="1"/><path d="M594.03677,321.02814c-0.15444,0.19399 -0.42446,0.19912 -0.42446,0.19912c-1.87271,0.02902 -3.893,2.87318 -2.93667,4.74046c0.76177,1.48741 2.31788,2.10872 3.86549,2.26229c1.89084,0.24669 1.98563,-6.8125 -0.0549,-7.21514zM593.54469,320.14927c0.15442,-0.19402 0.42448,-0.19914 0.42448,-0.19914l0.64645,-0.00706c3.12285,0.92697 3.57976,9.08411 -0.12112,9.36562c-1.93343,-0.21396 -3.90563,-1.01005 -4.80834,-2.90888c-1.22479,-2.57639 1.23635,-6.15109 3.8585,-6.25052z" fill="#9966ff" stroke="none" stroke-width="0.5"/><path d="M617.46556,274.29436c0.34148,17.97936 -13.06726,32.81444 -29.9493,33.13509c-16.88202,0.32064 -30.84445,-13.99457 -31.18594,-31.97394c-0.34148,-17.97936 13.06729,-32.81443 29.94932,-33.13508c16.88202,-0.32064 30.84443,13.9946 31.18592,31.97396z" fill="#fbfdfa" stroke="#000000" stroke-width="1"/><path d="M551.23979,275.50084c0.27497,14.47725 -11.10231,26.4337 -25.41188,26.70549c-14.30956,0.27178 -26.13267,-11.24402 -26.40762,-25.72127c-0.27497,-14.47725 11.10232,-26.43371 25.41189,-26.70551c14.30956,-0.27178 26.13267,11.24404 26.40762,25.72128z" fill="#3da9e8" stroke="#000000" stroke-width="1"/><path d="M612.03467,273.70442c0.26938,14.18312 -10.74994,25.89424 -24.61233,26.15753c-13.86239,0.26329 -25.31846,-11.02096 -25.58784,-25.20407c-0.26938,-14.18312 10.74992,-25.89423 24.61232,-26.15752c13.86239,-0.26329 25.31846,11.02095 25.58783,25.20406z" fill="#3da9e8" stroke="#000000" stroke-width="1"/><path d="M542.56346,274.9974c0.17835,9.39065 -7.10843,17.14442 -16.2755,17.31854c-9.16708,0.1741 -16.74302,-7.29736 -16.92136,-16.68801c-0.17835,-9.39065 7.10842,-17.14443 16.2755,-17.31854c9.16708,-0.1741 16.74302,7.29736 16.92139,16.68802z" fill="#000000" stroke="#000000" stroke-width="1"/><path d="M604.15801,272.65302c0.18899,9.94961 -7.31578,18.16082 -16.76233,18.34024c-9.44654,0.17943 -17.25769,-7.74089 -17.44666,-17.69051c-0.18899,-9.94961 7.31578,-18.16083 16.76232,-18.34025c9.44654,-0.17943 17.25769,7.74089 17.44666,17.69051z" fill="#000000" stroke="#000000" stroke-width="1"/><path d="M536.67988,268.00163c0.04989,2.62715 -2.31126,4.8025 -5.27378,4.85876c-2.96254,0.05628 -5.40456,-2.02785 -5.45448,-4.65499c-0.04989,-2.62715 2.31126,-4.80248 5.27377,-4.85874c2.96254,-0.05628 5.40456,2.02784 5.45448,4.65498z" fill="#ffffff" stroke="#000000" stroke-width="1"/><path d="M599.09058,265.98601c0.05094,2.68303 -2.30934,4.90367 -5.27188,4.95996c-2.96254,0.05628 -5.40543,-2.07316 -5.45638,-4.7562c-0.05094,-2.68303 2.30932,-4.90369 5.27185,-4.95995c2.96254,-0.05628 5.40546,2.07315 5.45641,4.7562z" fill="#ffffff" stroke="#000000" stroke-width="1"/><path d="M596.74821,306.93105c-0.00102,0.00054 -0.00204,0.00108 -0.00307,0.00161l0.00282,0.23076c0.93684,3.35482 3.21272,6.106 5.19281,8.9314c2.73958,3.76414 3.36795,11.0825 0.62839,14.99426c-3.56709,4.62338 -9.98595,3.41626 -14.85446,1.07404c-3.16338,-2.42203 -4.04444,-5.3515 -2.80215,-9.24974c0.577,-1.81062 1.94906,-3.29018 2.34253,-5.20745c2.34679,-2.53607 5.24179,-6.00405 5.58502,-9.47288c-0.04372,-0.06691 -0.06301,-0.12129 -0.06301,-0.12129c-0.98836,-2.87476 1.33525,-3.28032 3.67143,-2.57511l0.52732,0.66572c0,0 0.25055,0.47817 -0.22761,0.7287zM593.95211,307.41604c0.07311,3.84972 -2.99126,8.06087 -5.73563,10.78115c-0.27748,1.86662 -1.74179,3.29242 -2.27107,5.03051c-1.05088,3.45107 -0.4597,5.85341 2.33381,8.01512c4.36607,2.05416 10.23765,3.35447 13.42407,-0.79861c2.52221,-3.3614 1.81614,-10.4996 -0.63798,-13.71759c-2.08057,-2.97169 -4.45097,-5.85826 -5.38619,-9.41096l-0.01797,-0.73341c0,0 -0.00125,-0.06612 0.02025,-0.15253c-1.19321,-0.34437 -2.0833,-0.38015 -2.07481,0.48424c0.33804,0.10869 0.34551,0.50208 0.34551,0.50208z" fill="#6af2e7" stroke="none" stroke-width="0.5"/><path d="M594.07457,306.37791c0,0 -0.01227,-0.52849 -0.36865,-0.64307c-0.00893,-0.91131 0.93843,-0.87334 2.19641,-0.51028c-0.02268,0.09108 -0.02137,0.16081 -0.02137,0.16081l0.01938,0.77328c0.98603,3.74557 3.53074,6.82258 5.72429,9.95556c2.58733,3.39269 3.31201,10.98802 0.65287,14.53189c-3.3594,4.37853 -9.60834,3.01138 -14.21143,0.8457c-2.94514,-2.27907 -3.59464,-4.84013 -2.48669,-8.47856c0.558,-1.83244 2.099,-3.37161 2.39155,-5.33954c2.89335,-2.86795 6.17784,-7.35085 6.10075,-11.40955z" data-paper-data="{&quot;noHover&quot;:false,&quot;origItem&quot;:[&quot;Path&quot;,{&quot;applyMatrix&quot;:true,&quot;segments&quot;:[[[357.49913,152.33234],[0,0],[0,3.56641]],[[351.99789,162.2156],[2.58932,-2.4709],[-0.2898,1.72374]],[[349.80623,166.83427],[0.52072,-1.60029],[-1.03391,3.17747]],[[351.82653,174.29792],[-2.54897,-2.05105],[4.00718,1.97911]],[[364.27226,173.79446],[-3.02391,3.79001],[2.39488,-3.06853]],[[363.92273,161.07974],[2.21608,3.02327],[-1.8745,-2.78859]],[[359.10024,152.26975],[0.80362,3.30652],[0,0]],[359.09649,151.59024],[[359.11793,151.44935],[-0.02144,0.07963],[-1.09895,-0.3399]],[[357.18798,151.8613],[0.00735,-0.80065],[0.31114,0.1066]],[357.49913,152.33235]],&quot;closed&quot;:true,&quot;fillColor&quot;:[0,0,0,1]}]}" fill="#b5f2ed" stroke="none" stroke-width="0.5"/><path d="M579.185,303.6654c3.7092,0.05827 8.32184,-1.30077 11.91403,-2.04629c4.46441,-0.75155 8.88535,-1.55531 13.39081,-1.73811c2.03686,0.61459 1.70045,3.06164 0.98524,3.8834c-2.42674,2.78833 -6.46809,4.73418 -9.55565,5.36487c-4.66795,0.95354 -9.83925,-0.2971 -14.75214,-2.96074c-0.72782,-0.48917 -2.15011,-1.45647 -2.01514,-2.48848l0.03289,-0.01468z" data-paper-data="{&quot;noHover&quot;:false,&quot;origItem&quot;:[&quot;Path&quot;,{&quot;applyMatrix&quot;:true,&quot;segments&quot;:[[401.7332,302.70579],[[401.70764,302.73192],[0,0],[0.26779,1.01631]],[[404.5664,304.28742],[-0.87751,-0.18216],[5.64945,0.62936]],[[419.95688,300.03609],[-4.77418,3.15193],[2.41285,-1.4992]],[[425.62133,293.65952],[-0.96545,2.76479],[0.36287,-1.03919]],[[424.57437,290.02738],[2.16652,-0.19577],[-4.2009,1.87549]],[[412.24098,296.32893],[3.94391,-2.39193],[-3.11938,2.0563]],[[401.73319,302.7058],[3.53853,-1.34879],[0,0]]],&quot;closed&quot;:true,&quot;fillColor&quot;:[0,0,0,1]}]}" fill="#b5f2ed" stroke="none" stroke-width="0.5"/><path d="M590.73471,330.7978c-0.04353,-0.02348 -0.07029,-0.05025 -0.07029,-0.05025l-0.28819,-0.30462c-0.08984,-0.38845 -1.22271,-3.26968 0.29745,-2.92211c0.55133,0.12604 1.64879,1.9919 2.30952,2.38273c2.55519,1.53345 4.69995,-0.94367 5.91704,-2.94776c1.26067,-1.27411 3.27395,-1.31637 2.64334,0.9589c-0.43522,1.57029 -1.84102,2.13619 -2.92419,3.21419c-2.62462,1.71077 -5.51557,2.05854 -7.83445,-0.26077c0,0 -0.02677,-0.02678 -0.05024,-0.07032z" fill="#ffffff" stroke="none" stroke-width="0.5"/><path d="M497.03927,252.62723c0.16097,-0.51527 0.67621,-0.35432 0.67621,-0.35432l0.06159,0.04827c3.62356,-0.06883 7.27075,0.60386 10.89004,0.08892c5.10671,-1.12419 10.42774,-2.54529 14.62466,-5.80887c3.03966,-1.76703 6.7567,-5.71323 7.45788,-9.29329c0,0 0.10707,-0.5291 0.63616,-0.42202c0.52908,0.10707 0.42202,0.63616 0.42202,0.63616c-0.80258,3.86223 -4.59069,8.04751 -7.91158,9.97365c-4.29417,3.36171 -9.80194,4.8275 -15.03752,5.97682c-3.68373,0.51835 -7.37593,-0.14197 -11.06116,-0.07197l-0.40399,-0.09716c0,0 -0.51527,-0.16093 -0.35432,-0.67621z" fill="#000000" stroke="none" stroke-width="0.5"/><path d="M617.31112,252.3751l-0.4,0.11244c-3.68522,0.06999 -7.34972,0.87005 -11.05046,0.49194c-5.27545,-0.94971 -10.83491,-2.20528 -15.25362,-5.40151c-3.39162,-1.79864 -7.33594,-5.83707 -8.2846,-9.66604c0,0 -0.12708,-0.52465 0.39755,-0.65174c0.52463,-0.12709 0.65174,0.39755 0.65174,0.39755c0.83663,3.55084 4.70083,7.35305 7.8054,9.0034c4.31783,3.10186 9.68899,4.31987 14.83467,5.24934c3.63623,0.37714 7.25525,-0.43354 10.87881,-0.50238l0.05971,-0.05057c0,0 0.50878,-0.18038 0.68918,0.32838c0.1804,0.50878 -0.32839,0.68917 -0.32839,0.68917z" data-paper-data="{&quot;index&quot;:null}" fill="#000000" stroke="none" stroke-width="0.5"/><path d="M557.47918,333.94053c4.10721,0.60674 3.94935,-6.84372 3.88645,-8.55709c-0.02775,-0.75555 -0.89039,-2.74635 0.3345,-2.76961c0.81721,-0.01552 0.7899,5.11208 0.79209,5.23136c0.05629,3.0908 -1.3705,6.84185 -4.9268,7.1737c-3.92941,0.36666 -4.41088,-4.87911 -4.10338,-7.39986c0.02803,-0.22974 0.09464,-1.57893 0.164,-2.28838c0.01067,0.55008 0.06962,1.08693 0.20673,1.58139c0.06758,0.24377 0.17956,0.40641 0.31743,0.50398c0.08275,0.5686 0.18183,1.07648 0.29119,1.49186c0.02615,0.80252 0.13112,1.54634 0.36633,2.16137c0.13215,1.42245 0.74285,2.58633 2.67146,2.87125z" fill="#000000" stroke="none" stroke-width="0.5"/><path d="M579.60466,302.61179c3.55496,0.00203 7.9072,-1.23379 11.29192,-1.91731c4.53745,-0.73679 9.26192,-1.16237 13.85206,-1.19448c2.234,0.80131 2.17793,3.2147 0.84666,4.7966c-2.24007,2.66189 -5.2965,4.1263 -8.67119,4.71147c-5.77063,1.16112 -11.11464,0.83146 -16.26776,-1.92622c-1.37416,-0.9277 -2.69258,-2.02651 -2.3961,-3.71944c-0.03064,-0.07106 -0.04731,-0.1587 -0.04105,-0.26674c0.03118,-0.53893 0.5701,-0.50775 0.5701,-0.50775c0.07886,0.00474 0.15821,0.00876 0.23805,0.01205l0.00213,-0.00137c0,0 0.31443,-0.17934 0.57516,0.01317zM579.22534,303.68452l-0.03275,0.01431c-0.12992,1.01955 1.29252,1.97155 2.02125,2.45848c4.89081,2.64223 10.02752,2.89635 15.51145,1.78963c2.73716,-0.47433 5.5844,-1.55119 7.47349,-3.7036c0.71004,-0.80902 2.41866,-3.05971 0.38279,-3.6767c-4.49614,0.15976 -9.03928,0.46788 -13.49182,1.19008c-3.58198,0.72029 -8.16191,2.00263 -11.86441,1.92781z" fill="#6af2e7" stroke="none" stroke-width="0.5"/><path d="M499.1729,251.85555l9.22894,-6.68628l19.8533,-3.42215c0,0 -0.98315,1.615 -1.81578,2.31085c-1.13398,0.94771 -5.58658,3.93194 -5.58658,3.93194c0,0 -5.50125,2.63078 -8.52357,3.41427c0,0 -4.5696,1.08756 -6.60997,1.18359c-1.80689,0.08504 -6.54633,-0.73223 -6.54633,-0.73223z" fill="#fffd4d" stroke="#fffd4d" stroke-width="0.5"/><path d="M590.79415,246.15046c0,0 -2.37421,-1.4167 -3.29406,-2.36181c-1.06828,-1.09761 -2.02428,-2.30717 -2.4957,-2.94619c-0.6442,-0.8732 -1.60678,-3.83465 -1.60678,-3.83465l18.86973,8.82765l9.79743,5.58803c0,0 -1.9637,0.51721 -4.74044,0.38681c-2.10681,-0.09895 -4.87432,-0.77012 -6.49529,-1.17196c-1.45449,-0.36058 -3.63262,-0.87274 -5.57106,-1.79387c-2.40996,-1.1452 -4.46381,-2.69402 -4.46381,-2.69402z" data-paper-data="{&quot;index&quot;:null}" fill="#fffd4d" stroke="#fffd4d" stroke-width="0.5"/></g></g></g></svg>