<svg version="1.1" xmlns="http://www.w3.org/2000/svg" xmlns:xlink="http://www.w3.org/1999/xlink" width="162.54498" height="31.59249" viewBox="0,0,162.54498,31.59249"><g transform="translate(-239.11285,-254.7504)"><g data-paper-data="{&quot;isPaintingLayer&quot;:true}" fill-rule="nonzero" stroke-linejoin="miter" stroke-miterlimit="10" stroke-dasharray="" stroke-dashoffset="0" style="mix-blend-mode: normal"><g data-paper-data="{&quot;index&quot;:null}" stroke="#000000" stroke-width="0.5"><path d="M370.21418,267.96456l22.06764,-12.45953l8.26224,14.63362l-22.06765,12.45953z" fill="#6255b8" stroke-linecap="butt"/><path d="M385.71797,259.21102c0,0 1.76954,-0.88464 3.18132,-1.70813c0.21576,-0.12586 0.56045,-0.366 1.12624,-0.6345c1.0627,-0.50431 2.50216,-1.14714 2.7556,-1.13173c0.28405,0.01726 -1.41382,1.73336 -1.05133,2.3483c0.07417,0.12583 1.21546,-0.7337 1.33433,-0.6463c0.6869,0.50512 0.91937,1.39047 0.91937,1.39047l-9.76667,20.59276c0,0 -5.41056,3.0148 -5.63931,3.01362c-0.3708,-0.00191 -1.97642,-3.31171 -1.97642,-3.31171z" fill="#ff2003" stroke-linecap="round"/><path d="M390.55099,256.50213l2.4993,-1.41112l8.26693,14.64193l-2.4993,1.41112z" fill="#ffff00" stroke-linecap="butt"/><path d="M370.28822,267.96084l2.61373,-1.47573l8.26693,14.64194l-2.61373,1.47573z" fill="#ffff00" stroke-linecap="butt"/></g><g stroke="#000000" stroke-width="0.5"><path d="M262.29427,282.64048l-22.06765,-12.45953l8.26224,-14.63363l22.06765,12.45953z" fill="#6255b8" stroke-linecap="butt"/><path d="M255.05271,259.25332c0,0 -1.76954,-0.88464 -3.18132,-1.70813c-0.21576,-0.12585 -0.56046,-0.36601 -1.12624,-0.6345c-1.0627,-0.50431 -2.50216,-1.14714 -2.75559,-1.13174c-0.28405,0.01727 1.41382,1.73336 1.05133,2.3483c-0.07417,0.12583 -1.21546,-0.7337 -1.33433,-0.64629c-0.68691,0.50512 -0.91937,1.39047 -0.91937,1.39047l9.76667,20.59276c0,0 5.41056,3.0148 5.63931,3.01362c0.3708,-0.00191 1.97642,-3.31171 1.97642,-3.31171z" fill="#ff2003" stroke-linecap="round"/><path d="M241.95277,271.18636l-2.4993,-1.41112l8.26693,-14.64194l2.4993,1.41112z" fill="#ffff00" stroke-linecap="butt"/><path d="M262.21553,282.64507l-2.61373,-1.47573l8.26693,-14.64194l2.61373,1.47573z" fill="#ffff00" stroke-linecap="butt"/></g><path d="M379.99156,263.66761l0.58814,1.99691c1.36768,0.54384 1.98666,1.57363 3.1038,2.4268c0,0 0.198,0.15264 0.04536,0.35064c-0.15264,0.19799 -0.35063,0.04535 -0.35063,0.04535c-1.06876,-0.83051 -1.90881,-1.76104 -3.21569,-2.2807l0.08931,-0.15577c0,0 -3.80201,-0.66856 -3.6789,-0.88614c0.12311,-0.21759 3.41862,-1.49708 3.41862,-1.49708z" data-paper-data="{&quot;index&quot;:null}" fill="#000000" stroke="none" stroke-width="0.5" stroke-linecap="butt"/><path d="M262.54892,264.43742c0.12311,0.21759 -0.09449,0.3407 -0.09449,0.3407l0.08931,0.15577c-1.30689,0.51966 -2.14694,1.4502 -3.2157,2.2807c0,0 -0.19799,0.15264 -0.35063,-0.04535c-0.15264,-0.19799 0.04535,-0.35064 0.04535,-0.35064c1.11714,-0.85317 1.73613,-1.88297 3.10381,-2.4268l0.08165,-0.04886c0,0 0.21759,-0.12311 0.34069,0.09448z" fill="#000000" stroke="none" stroke-width="0.5" stroke-linecap="butt"/><g data-paper-data="{&quot;index&quot;:null}" stroke-linecap="butt"><path d="M274.09793,264.15664c0,0 0.21651,1.40192 0.29646,3.01981c0.10418,2.10805 -0.26696,5.22156 -0.27006,5.34002c-0.10873,4.15331 -1.39856,6.56867 -2.11647,9.32641c-0.23768,0.913 -1.48562,2.86313 -2.20054,2.82501c-0.20383,-0.01086 0.59764,-0.52574 0.29698,-0.19502c-0.05408,0.05947 -0.29393,0.00009 -0.3703,0.04286c-0.34342,0.19227 -0.92244,0.36641 -1.47373,0.45338c-0.18509,0.0292 -0.31362,-0.00369 -0.47392,0.09966c-0.13005,0.08384 -1.37672,-0.26131 -1.50858,-0.19007c-0.26378,0.14251 -1.02708,-0.3435 -1.25305,-0.22778c-1.16949,0.59888 -1.24753,0.36442 -2.16984,0.96489c-0.18179,0.11835 -1.63537,-0.12441 -2.43411,-0.85455c-0.72427,-0.66207 -0.80007,-1.81612 -0.9524,-1.76452c-0.22258,0.07538 0.27028,-3.00078 0.05156,-2.9332c-2.45831,0.75962 -4.5947,0.93678 -4.6545,-1.48251c-0.00219,-0.08825 -0.38293,-0.69667 0.442,-2.00191c0.73434,-1.1619 1.91913,-2.49904 2.83518,-3.87391c1.40734,-2.11223 2.46126,-4.12399 2.46416,-4.24748c0.00429,-0.18258 0.23598,-0.45235 0.28484,-0.63083c0.79143,-2.89096 0.74404,-5.7029 1.96761,-7.46052c1.0329,-1.48372 2.91495,-2.22538 4.28051,-2.15258c1.10973,0.05916 2.12449,-0.98003 2.92631,0.11947c0.31582,0.43308 2.27931,1.50894 2.53827,1.79747c0.56094,0.625 0.34357,0.96485 0.59882,1.92184c0.13198,0.4948 0.88596,1.15458 0.89481,2.10405z" fill="#fffd4d" stroke="#000000" stroke-width="0"/><path d="M266.0417,258.15364c0,0 0.52783,0.08149 0.54471,0.18259c0.04117,0.24658 -0.46239,0.31059 -0.46239,0.31059c-0.86889,0.14322 -1.90049,0.49994 -2.71303,1.28809c-0.35517,0.34451 -0.89339,1.55538 -0.89339,1.55538c-0.36714,1.70567 -0.63324,3.3949 -0.99189,5.01785c-0.76849,2.49672 -1.94671,4.6865 -3.48992,6.77042c-1.25104,1.85464 -3.21564,3.16626 -2.99743,5.61728c0.4177,2.27794 4.56446,1.34054 5.6487,0.36849c1.47394,-1.65584 3.94487,-3.33387 4.06709,-5.76146c0,0 0.01331,-0.24964 0.26295,-0.23633c0.24964,0.01331 0.23633,0.26296 0.23633,0.26296c-0.14509,2.59366 -2.62945,4.31437 -4.2121,6.08766c-0.33099,0.29817 -0.95899,0.74769 -1.50523,0.95148c0.04944,0.14416 -0.02748,0.8179 -0.04846,1.21129c-0.12645,2.30745 1.73881,4.53864 4.10271,3.27408c0.47664,-0.17967 1.58629,-0.89599 1.62976,-0.87525c1.52933,-1.14498 2.14191,-2.81097 2.91598,-4.78131c0.56432,-2.02999 1.00453,-3.78171 0.8092,-5.90885c0,0 -0.02212,-0.24901 0.22689,-0.27114c0.24901,-0.02213 0.27114,0.22689 0.27114,0.22689c0.18777,2.19715 -0.24641,4.01379 -0.83316,6.11204c-0.78487,1.98978 -1.43926,3.67607 -2.9178,4.8776c0.15371,0.0777 1.99518,0.5977 3.24732,0.27204c0.09044,-0.02352 0.87777,-0.23888 1.46778,-0.7446c0.75835,-0.65001 1.36097,-1.67292 1.53985,-2.25478c1.21116,-2.03415 1.56588,-5.7582 1.68849,-8.1c0.40056,-3.07145 0.78381,-6.45397 0.13103,-9.48479c-0.18099,-1.79539 -1.07857,-4.05813 -2.68903,-4.97363c0,0 -0.21733,-0.12356 -0.09379,-0.34089c0.12356,-0.21734 0.34089,-0.0938 0.34089,-0.0938c1.76146,1.00135 2.69657,3.37355 2.93536,5.32751c0.66471,3.06789 0.28115,6.50269 -0.12658,9.61159c-0.13923,2.47971 -0.64648,6.11299 -1.8451,8.30343c-0.39412,1.28206 -1.56071,2.66554 -2.96583,3.20876c-1.20544,0.46603 -2.70112,0.18603 -2.73253,0.14244c-0.47598,-0.1152 -0.91584,-0.31288 -1.34411,-0.54298c-0.41852,0.28185 -0.89631,0.53119 -1.44914,0.74502c-2.70624,1.42078 -4.94748,-1.08498 -4.80865,-3.75599c0.02074,-0.38906 0.04149,-0.77812 0.06223,-1.16718c-1.81307,0.46993 -4.03457,0.23495 -4.50611,-1.61221c-0.23531,-2.65196 1.73412,-3.98637 3.08361,-5.98487c1.51723,-2.01892 2.66792,-4.17807 3.41418,-6.60867c0.36642,-1.64297 0.87115,-5.33863 1.05322,-5.37058c0.47187,-1.46818 2.54408,-2.61945 3.94616,-2.85619z" fill="#000000" stroke="none" stroke-width="0.5"/><g stroke="none"><path d="M260.04345,266.36778c0.1417,0.20598 -0.06428,0.34766 -0.06428,0.34766l-0.03799,-0.00589c-0.20045,0.36135 -0.42954,0.66935 -0.72266,0.96073c-1.5374,2.01839 -4.85748,1.76074 -5.20073,-0.81967c0.24303,-2.43025 2.56051,-3.80826 4.35077,-5.23069c1.73411,-0.62135 4.85941,-2.74551 6.75419,-3.021c0,0 -1.42773,0.7446 -1.39311,0.99219c0.03462,0.24759 -0.21297,0.28221 -0.21297,0.28221c-1.83547,0.24423 -3.22494,1.61265 -4.90496,2.1835c-1.61454,1.33291 -3.84115,2.57319 -4.09399,4.78558c0.31363,2.11149 3.07873,2.16639 4.32405,0.49918c0.26855,-0.26695 0.47935,-0.54182 0.66172,-0.87372l0.1923,-0.16432c0,0 0.20598,-0.14168 0.34766,0.06429z" fill="#000000" stroke-width="0.5"/><path d="M254.49392,266.82633c-0.07968,-0.56988 0.9067,-2.23623 2.7278,-3.7814c0.72715,-0.61697 2.00891,-1.23498 2.76374,-1.72497c1.31359,-0.85273 5.30859,-2.53592 5.67983,-2.58783c1.11883,-0.15643 -3.44177,3.96075 -3.2749,5.15416c0.08933,0.63887 -1.17711,1.52077 -2.54003,2.56696c-0.63024,0.48377 -1.12051,1.18952 -1.66942,1.60378c-0.48147,0.36336 -1.04501,0.46531 -1.28794,0.49927c-1.11883,0.15644 -2.23224,-0.53655 -2.39911,-1.72996z" fill="#fffd4d" stroke-width="0"/></g></g><path d="M367.843,264.57884c0.00885,-0.94947 0.76284,-1.60925 0.89481,-2.10405c0.25525,-0.95699 0.03787,-1.29684 0.59882,-1.92184c0.25896,-0.28853 2.22245,-1.36439 2.53827,-1.79747c0.80182,-1.0995 1.81658,-0.06031 2.92631,-0.11947c1.36556,-0.0728 3.24761,0.66886 4.28051,2.15258c1.22357,1.75762 1.17618,4.56956 1.96761,7.46052c0.04886,0.17848 0.28055,0.44825 0.28484,0.63083c0.0029,0.12349 1.05682,2.13525 2.46416,4.24748c0.91605,1.37487 2.10084,2.71201 2.83518,3.87391c0.82493,1.30524 0.44419,1.91366 0.442,2.00191c-0.0598,2.41929 -2.19619,2.24213 -4.6545,1.48251c-0.21872,-0.06758 0.27414,3.00858 0.05156,2.9332c-0.15233,-0.0516 -0.22813,1.10245 -0.9524,1.76452c-0.79874,0.73014 -2.25232,0.9729 -2.43411,0.85455c-0.92231,-0.60047 -1.00035,-0.36601 -2.16984,-0.96489c-0.22597,-0.11572 -0.98927,0.37029 -1.25305,0.22778c-0.13186,-0.07124 -1.37853,0.27391 -1.50858,0.19007c-0.1603,-0.10335 -0.28883,-0.07046 -0.47392,-0.09966c-0.55129,-0.08697 -1.13031,-0.26111 -1.47373,-0.45338c-0.07637,-0.04277 -0.31622,0.01661 -0.3703,-0.04286c-0.30066,-0.33072 0.50081,0.18416 0.29698,0.19502c-0.71492,0.03812 -1.96286,-1.91201 -2.20054,-2.82501c-0.71791,-2.75774 -2.00774,-5.1731 -2.11647,-9.32641c-0.0031,-0.11846 -0.37424,-3.23197 -0.27006,-5.34002c0.07995,-1.61789 0.29646,-3.01981 0.29646,-3.01981z" fill="#fffd4d" stroke="#000000" stroke-width="0" stroke-linecap="butt"/><path d="M375.89933,258.57583c1.40208,0.23674 3.47429,1.38801 3.94616,2.85619c0.18207,0.03195 0.6868,3.72761 1.05322,5.37058c0.74626,2.4306 1.89695,4.58975 3.41418,6.60867c1.34949,1.9985 3.31892,3.33291 3.08361,5.98487c-0.47154,1.84716 -2.69304,2.08214 -4.50611,1.61221c0.02074,0.38906 0.04149,0.77812 0.06223,1.16718c0.13883,2.67101 -2.10241,5.17677 -4.80865,3.75599c-0.55283,-0.21383 -1.03062,-0.46317 -1.44914,-0.74502c-0.42827,0.2301 -0.86813,0.42778 -1.34411,0.54298c-0.03141,0.04359 -1.52709,0.32359 -2.73253,-0.14244c-1.40512,-0.54322 -2.57171,-1.9267 -2.96583,-3.20876c-1.19862,-2.19044 -1.70587,-5.82372 -1.8451,-8.30343c-0.40773,-3.1089 -0.79129,-6.5437 -0.12658,-9.61159c0.23879,-1.95396 1.1739,-4.32616 2.93536,-5.32751c0,0 0.21733,-0.12354 0.34089,0.0938c0.12354,0.21733 -0.09379,0.34089 -0.09379,0.34089c-1.61046,0.9155 -2.50804,3.17824 -2.68903,4.97363c-0.65278,3.03082 -0.26953,6.41334 0.13103,9.48479c0.12261,2.3418 0.47733,6.06585 1.68849,8.1c0.17888,0.58186 0.7815,1.60477 1.53985,2.25478c0.59001,0.50572 1.37734,0.72108 1.46778,0.7446c1.25214,0.32566 3.09361,-0.19434 3.24732,-0.27204c-1.47854,-1.20153 -2.13293,-2.88782 -2.9178,-4.8776c-0.58675,-2.09825 -1.02093,-3.91489 -0.83316,-6.11204c0,0 0.02213,-0.24902 0.27114,-0.22689c0.24901,0.02213 0.22689,0.27114 0.22689,0.27114c-0.19533,2.12714 0.24488,3.87886 0.8092,5.90885c0.77407,1.97034 1.38665,3.63633 2.91598,4.78131c0.04347,-0.02074 1.15312,0.69558 1.62976,0.87525c2.3639,1.26456 4.22916,-0.96663 4.10271,-3.27408c-0.02098,-0.39339 -0.0979,-1.06713 -0.04846,-1.21129c-0.54624,-0.20379 -1.17424,-0.65331 -1.50523,-0.95148c-1.58265,-1.77329 -4.06701,-3.494 -4.2121,-6.08766c0,0 -0.01331,-0.24965 0.23633,-0.26296c0.24964,-0.01331 0.26295,0.23633 0.26295,0.23633c0.12222,2.42759 2.59315,4.10562 4.06709,5.76146c1.08424,0.97205 5.231,1.90945 5.6487,-0.36849c0.21821,-2.45102 -1.74639,-3.76264 -2.99743,-5.61728c-1.54321,-2.08392 -2.72143,-4.2737 -3.48992,-6.77042c-0.35865,-1.62295 -0.62475,-3.31218 -0.99189,-5.01785c0,0 -0.53822,-1.21087 -0.89339,-1.55538c-0.81254,-0.78815 -1.84414,-1.14487 -2.71303,-1.28809c0,0 -0.50356,-0.06401 -0.46239,-0.31059c0.01688,-0.1011 0.54471,-0.18259 0.54471,-0.18259z" fill="#000000" stroke="none" stroke-width="0.5" stroke-linecap="butt"/><g stroke="none" stroke-linecap="butt"><path d="M381.89749,266.79004c0.14168,-0.20597 0.34766,-0.06429 0.34766,-0.06429l0.1923,0.16432c0.18237,0.3319 0.39317,0.60677 0.66172,0.87372c1.24532,1.66721 4.01042,1.61231 4.32405,-0.49918c-0.25284,-2.21239 -2.47945,-3.45267 -4.09399,-4.78558c-1.68002,-0.57085 -3.06949,-1.93927 -4.90496,-2.1835c0,0 -0.24759,-0.03462 -0.21297,-0.28221c0.03462,-0.24759 0.28221,-0.21297 0.28221,-0.21297c1.89478,0.27549 3.34476,1.62043 5.07887,2.24178c1.79026,1.42243 4.10774,2.80044 4.35077,5.23069c-0.34325,2.58041 -3.66333,2.83806 -5.20073,0.81967c-0.29312,-0.29138 -0.52221,-0.59938 -0.72266,-0.96073l-0.03799,0.00589c0,0 -0.20598,-0.14168 -0.06428,-0.34766z" fill="#000000" stroke-width="0.5"/><path d="M387.44705,267.24856c-0.16687,1.19341 -1.28028,1.8864 -2.39911,1.72996c-0.24293,-0.03396 -0.80647,-0.13591 -1.28794,-0.49927c-0.54891,-0.41426 -1.03918,-1.12001 -1.66942,-1.60378c-1.36292,-1.04619 -2.62936,-1.92809 -2.54003,-2.56696c0.16687,-1.19341 -3.30282,-4.84305 -2.18399,-4.68662c0.27925,0.03904 2.54983,1.14254 3.57985,1.58653c0.33933,0.14627 0.68356,0.32245 1.00907,0.53376c0.75483,0.48999 2.03659,1.108 2.76374,1.72497c1.8211,1.54517 2.80748,3.21152 2.7278,3.7814z" fill="#fffd4d" stroke-width="0"/></g></g></g></svg>