<svg version="1.1" xmlns="http://www.w3.org/2000/svg" xmlns:xlink="http://www.w3.org/1999/xlink" width="117.46661" height="66.47024" viewBox="0,0,117.46661,66.47024"><defs><linearGradient x1="263.93093" y1="124.13416" x2="386.58505" y2="124.13416" gradientUnits="userSpaceOnUse" id="color-1"><stop offset="0" stop-color="#000000"/><stop offset="1" stop-color="#1b1b1b"/></linearGradient></defs><g transform="translate(-263.93094,-92.41952)"><g data-paper-data="{&quot;isPaintingLayer&quot;:true}" fill="url(#color-1)" fill-rule="nonzero" stroke="none" stroke-width="0.5" stroke-linecap="butt" stroke-linejoin="miter" stroke-miterlimit="10" stroke-dasharray="" stroke-dashoffset="0" style="mix-blend-mode: normal"><path d="M319.23314,104.23713c0.59049,1.35011 0.88324,3.12136 1.11599,4.74154c0.12545,0.58175 3.48889,22.16771 3.06288,25.14838c-0.60035,5.43003 -1.87321,10.3584 -4.23577,15.34712c-3.04084,4.4269 -8.37811,7.06762 -14.02448,7.92971c-5.52308,0.83961 -12.59389,2.44713 -18.06573,0.71269c-1.44571,-0.47056 -3.02414,-0.35926 -4.4563,-0.9572c-0.82938,-0.34628 -2.07833,-1.91021 -2.7221,-2.34155c-2.48366,-0.64002 -4.80883,-3.11112 -6.27547,-5.22515c-3.00594,-4.09014 -5.71938,-10.67934 -5.42618,-10.8571c-1.63075,-4.19434 -2.72493,-8.92289 -2.73667,-13.69994c0,-4.64241 -1.14712,-9.07662 0.30601,-13.47929c-0.6028,0.10253 -0.42999,0.12774 -0.94866,0.02311c0,0 -1.00685,-0.10999 -0.88559,-0.54995c0.12127,-0.43996 1.12812,-0.32997 1.12812,-0.32997c1.49691,0.39526 4.27069,-1.0086 5.7846,-1.45147c3.46635,-1.01402 7.01211,-1.17572 10.48362,-1.90159c4.21951,-0.8698 8.22574,-2.71291 12.39889,-3.42602c2.22221,-0.37974 4.51821,-0.37728 6.75199,-0.73121c5.26136,-0.83365 10.51211,-1.65401 15.77877,-2.43248c0.29674,-0.25096 0.65476,-0.26292 0.99961,-0.14721c0.88281,-0.12953 1.76611,-0.25783 2.65004,-0.38477c6.64425,-0.95417 13.24215,-2.13724 19.94698,-2.76222c6.40017,-0.58745 12.76297,-1.98599 19.16478,-2.70311c6.343,-1.44402 7.53695,0.0906 13.91252,-1.16017c2.45295,-0.65888 5.18944,-0.4017 7.59416,-1.15649l0.36239,-0.02327c0,0 0.5,0 0.5,0.4535c0,0.4535 -0.5,0.4535 -0.5,0.4535l-0.04617,-0.02327c-2.45545,0.72044 -5.18162,0.50311 -7.66184,1.17457c-6.39761,1.25943 -7.60897,-0.26543 -13.97744,1.17321c-6.42799,0.73673 -12.81913,2.10683 -19.24623,2.71377c-6.68673,0.62259 -13.26658,1.80424 -19.89277,2.75581c-0.5865,0.08422 -1.17272,0.16906 -1.75871,0.25443c0.09961,0.12505 0.17613,0.24911 0.22143,0.36008c0.17057,0.41779 0.21855,0.85044 0.22234,1.28778c0.04449,0.12144 0.47499,1.21421 0.47499,1.21421z"/></g></g></svg>