<svg version="1.1" xmlns="http://www.w3.org/2000/svg" xmlns:xlink="http://www.w3.org/1999/xlink" width="184.37079" height="109.78132" viewBox="0,0,184.37079,109.78132"><defs><linearGradient x1="203.20694" y1="216.0975" x2="255.28694" y2="216.0975" gradientUnits="userSpaceOnUse" id="color-1"><stop offset="0" stop-color="#fdff00"/><stop offset="1" stop-color="#6b6b1a"/></linearGradient><linearGradient x1="266.44478" y1="278.55329" x2="273.07097" y2="278.55329" gradientUnits="userSpaceOnUse" id="color-2"><stop offset="0" stop-color="#fdff00"/><stop offset="1" stop-color="#6b6b1a"/></linearGradient><linearGradient x1="270.9328" y1="284.39214" x2="273.74416" y2="284.39214" gradientUnits="userSpaceOnUse" id="color-3"><stop offset="0" stop-color="#fdff00"/><stop offset="1" stop-color="#6b6b1a"/></linearGradient><linearGradient x1="266.93768" y1="279.89862" x2="270.62378" y2="279.89862" gradientUnits="userSpaceOnUse" id="color-4"><stop offset="0" stop-color="#fdff00"/><stop offset="1" stop-color="#6b6b1a"/></linearGradient><linearGradient x1="268.23026" y1="284.46453" x2="272.06322" y2="284.46453" gradientUnits="userSpaceOnUse" id="color-5"><stop offset="0" stop-color="#fdff00"/><stop offset="1" stop-color="#6b6b1a"/></linearGradient><linearGradient x1="266.05152" y1="285.60556" x2="272.28522" y2="285.60556" gradientUnits="userSpaceOnUse" id="color-6"><stop offset="0" stop-color="#fdff00"/><stop offset="1" stop-color="#6b6b1a"/></linearGradient><linearGradient x1="265.08374" y1="280.37753" x2="268.0275" y2="280.37753" gradientUnits="userSpaceOnUse" id="color-7"><stop offset="0" stop-color="#fdff00"/><stop offset="1" stop-color="#6b6b1a"/></linearGradient></defs><g transform="translate(-202.66668,-178.40229)"><g data-paper-data="{&quot;isPaintingLayer&quot;:true}" fill-rule="nonzero" stroke-linejoin="miter" stroke-miterlimit="10" stroke-dasharray="" stroke-dashoffset="0" style="mix-blend-mode: normal"><path d="M266.02414,267.88892c0.03146,-0.01509 0.07046,-0.02444 0.11881,-0.02444c0.25,0 0.25,0.25 0.25,0.25l-0.37627,0.35063c-1.77967,-1.04345 -3.50406,-2.29089 -5.14839,-3.52212c0,0 -0.2,-0.15 -0.05,-0.35c0.02743,-0.03658 0.05654,-0.06145 0.08578,-0.07767c-0.03983,-0.1771 0.13727,-0.26566 0.13727,-0.26566c1.89331,-0.90444 4.01323,-4.68102 5.29731,-6.34811c0.17695,-0.18725 0.25833,-0.46498 0.27578,-0.72202l0.52833,-0.22585c0,0 0.21333,-0.07111 0.30279,0.12388c2.30259,0.07209 4.70763,2.16786 3.73061,4.12462c-1.18127,2.35701 -3.98988,4.90061 -6.47921,5.85404c0.43864,0.28791 0.88123,0.56671 1.32719,0.83269zM264.31073,266.66359c2.47672,-0.82557 5.26885,-3.38048 6.41823,-5.68498c0.8203,-1.6382 -1.31565,-3.43177 -3.37227,-3.40287h-0.26972c0,0 -0.02804,0 -0.06535,-0.00939c-0.01296,0.23522 -0.14703,0.46874 -0.29582,0.65164c-1.36781,1.7697 -3.40481,5.36056 -5.39736,6.44519c0.93327,0.69929 1.89466,1.40221 2.87731,2.06591c0.04861,-0.04672 0.10496,-0.0655 0.10496,-0.0655z" fill="#000000" stroke="none" stroke-width="0.5" stroke-linecap="butt"/><path d="M264.05608,266.77684c-0.98266,-0.6637 -1.97237,-1.38912 -2.90564,-2.08842c1.99255,-1.08463 4.08615,-4.7489 5.45396,-6.5186c0.14879,-0.1829 0.36291,-0.64173 0.36291,-0.64173l0.15736,-2.18115c0.47101,-0.00662 0.60402,0.19011 0.96197,0.33999c0.65936,0.27608 1.34922,-0.15342 1.42316,0.59597c0.02462,0.24956 0.48619,0.19013 0.52999,0.95942c0.02077,0.36487 0.85457,-0.11375 0.95691,0.37693c0.21808,1.04565 -0.23867,3.11097 -0.35515,3.34358c-1.14938,2.3045 -4.00296,4.92317 -6.47969,5.74874c0,0 -0.05717,0.01854 -0.10578,0.06526z" data-paper-data="{&quot;noHover&quot;:false,&quot;origItem&quot;:[&quot;Path&quot;,{&quot;applyMatrix&quot;:true,&quot;segments&quot;:[[[264.31072,266.66359],[0,0],[2.47672,-0.82557]],[[270.72895,260.9786],[-1.14938,2.3045],[0.8203,-1.6382]],[[267.35668,257.57573],[2.05662,-0.02891],[0,0]],[267.08697,257.57573],[[267.02162,257.56634],[0.0373,0.00939],[-0.01296,0.23522]],[[266.7258,258.21798],[0.14879,-0.1829],[-1.36781,1.7697]],[[261.32845,264.66318],[1.99255,-1.08463],[0.93327,0.69929]],[[264.20576,266.72909],[-0.98266,-0.6637],[0.04861,-0.04672]]],&quot;closed&quot;:true}]}" fill="#fffd4d" stroke="none" stroke-width="0.5" stroke-linecap="butt"/><path d="M266.32266,259.10557c0.21692,0.4164 0.97367,1.60824 1.28536,3.8451c0.21671,1.55523 -0.05257,3.93071 0.26217,5.58717c0.3033,1.59628 3.15845,4.06442 2.30227,4.66954c-0.38992,0.27559 0.00904,-1.2635 0.00374,0.08102c-0.00654,1.65701 -4.6058,3.45222 -6.11312,5.11662c-1.30625,1.44238 -7.40861,2.91804 -8.12019,2.79449c-0.97845,-0.16988 -1.78221,-2.34737 -1.92866,-3.8601c-0.0724,-0.74786 0.89357,-1.21565 0.63902,-1.66018c-0.36226,-0.63263 -1.10151,0.50692 -1.68486,0.44591c-0.44232,-0.04625 -1.01144,-0.0096 -1.40467,-0.218c-0.37174,-0.19702 -0.57696,-0.64263 -0.68328,-0.58724c-0.28631,0.14915 -0.80103,-1.79258 -0.94869,-1.88004c-0.46613,-0.27607 0.30061,-1.7228 0.49295,-2.70166c0.06219,-0.31644 -0.15355,-0.36176 0.0404,-0.54109c0.17403,-0.1609 -0.69588,-0.18917 -0.80184,-0.58202c-0.09625,-0.35685 0.24824,-0.32945 -0.28558,-0.54112c-0.64174,-0.25448 -1.58044,-0.87386 -1.71244,-1.12725c-0.38528,-0.73957 -1.00024,-2.61738 -0.87077,-3.41472c0.20209,-1.2446 -0.40978,-2.18447 0.9876,-2.79344c0.13813,-0.0602 2.73583,-0.41795 2.86476,-0.48512c0.48924,-0.25486 3.19656,0.32303 5.15241,-0.90021c0.97736,-0.61127 2.12504,-2.20482 2.87675,-3.20904c0.68411,-0.91392 0.97432,-1.25543 1.79057,-1.5613c1.40226,-0.52548 2.30682,-0.00165 2.82748,0.32038c1.26746,0.78392 2.59966,2.37877 3.02867,3.20229z" fill="#fffd4d" stroke="#000000" stroke-width="0" stroke-linecap="butt"/><path d="" data-paper-data="{&quot;noHover&quot;:false,&quot;origItem&quot;:[&quot;Path&quot;,{&quot;applyMatrix&quot;:true,&quot;segments&quot;:[[[221.33019,611.96032],[0,0],[1.18796,10.06976]],[[221.36313,643.0381],[0,-10.14116],[-0.01082,0.80922]],[[222.37905,649.44242],[-0.56482,-0.07888],[5.94232,0.82974]],[[237.63571,645.59822],[-5.346,1.24482],[7.56656,-1.7619]],[[260.99541,644.82514],[-7.30032,1.89456],[4.3596,-1.1314]],[[272.87549,643.28868],[-4.61756,0],[24.25608,0]],[[345.64369,643.28868],[-24.25608,0],[23.68548,0]],[[415.76687,650.04322],[-23.68518,-0.01642],[24.93328,2.65318]],[[491.68123,650.79056],[-25.0784,0],[7.84098,0]],[[513.72735,647.84332],[-7.36778,1.58762],[4.31242,-0.92924]],[[528.18835,647.78982],[-4.37994,0],[8.21388,0]],[[554.11037,647.94956],[-8.31786,-1.25608],[0,0]],[[553.75807,647.47264],[0,0],[-3.64264,-8.9295]],[[542.62191,621.33624],[2.6925,9.41838],[0,0]],[[542.56007,620.50168],[-0.0443,0.46308],[-0.1097,-0.35806]],[542.45035,619.85488],[[542.59341,619.75484],[0,0],[-1.77544,-4.49932]],[[539.13807,606.00906],[1.5284,4.46762],[-1.57736,-9.47816]],[[534.49709,578.17342],[2.16912,9.28794],[-1.10928,-4.74978]],[[529.36527,563.32176],[3.07118,3.97394],[0,0]],[[529.76527,560.52176],[-1.6,1.2],[0.01434,-0.01076]],[[529.80819,560.49016],[-0.01428,0.0103],[0.00188,-5.27972]],[[528.97029,544.70482],[-0.0112,5.32368],[-2.1504,-15.0527]],[[523.48693,499.47222],[0,15.39796],[0,0]],[[523.51493,499.17968],[-0.028,0.17636],[-0.15884,-0.19934]],[523.27667,498.82148],[[522.67131,497.41302],[0,0],[-0.92562,-5.5573]],[[520.57315,480.60606],[0.96248,5.50956],[-0.46928,-2.68624]],[[518.85143,473.4853],[0.0365,2.9397],[0,-14.52902]],[[519.69329,430.11106],[-0.03184,14.52712],[0,0]],[[519.27285,428.95634],[0,0],[0,-9.2368]],[[518.85827,401.30828],[-0.0265,9.18612],[-1.61258,-9.5129]],[[518.01837,372.68454],[0.86174,9.55806],[-0.44782,-4.96704]],[[515.51167,357.93596],[0.26216,4.96814],[0,0]],[[515.48019,357.8786],[0,0],[0.01976,-7.71342]],[[512.54005,334.89814],[1.48228,7.57258],[-0.01242,-9.1038]],[[508.32305,307.4744],[0.83256,9.1176],[-0.55138,-6.03826]],[[509.15327,289.59048],[-0.09852,5.94608],[0,0]],[[507.71657,287.75662],[0,0],[-2.98888,-8.91986]],[[498.83211,261.14078],[4.23272,8.6159],[-1.09152,-2.22188]],[[496.43565,255.04688],[1.52644,1.908],[-4.8944,-8.1382]],[[478.43733,239.57704],[7.71112,5.17192],[-4.29644,-2.88168]],[[465.67029,231.31364],[4.82126,2.19022],[-3.04232,-1.38209]],[[454.91642,226.43968],[3.65797,1.02479],[-7.70686,8.1729]],[[446.76641,259.57135],[1.99884,-10.65051],[0.23136,0.48694]],[446.99777,260.53312],[[446.99777,261.79734],[0,0],[0,8.20738]],[[451.95003,285.6006],[-3.24678,-7.50312],[1.50468,5.9756]],[[458.62347,300.173],[-2.44922,-5.26098],[2.68528,5.76808]],[[465.73275,318.60222],[-2.84728,-5.87724],[1.7803,3.67484]],[[474.70509,325.41452],[-2.9172,-2.2298],[0.99196,0.75824]],[[477.31917,328.0972],[-0.02184,-1.24838],[0.02664,1.523]],[[474.81887,331.92222],[0.83344,-1.275],[-14.04556,-1.20128]],[[432.70209,318.03136],[11.5827,8.03308],[0,0]],[[431.59873,317.75916],[0,0],[-9.92948,-7.45294]],[[402.28937,293.02182],[10.66306,6.29984],[-10.6143,-6.07522]],[[386.13435,262.78192],[0.97348,11.67922],[-0.39118,-4.69316]],[[385.70791,248.73362],[-0.02366,4.72596],[0.00172,-0.34318]],[[385.68947,247.38052],[-0.00106,0.50614],[-11.34958,7.02846]],[[354.42029,272.1936],[10.29542,-8.4106],[-5.94694,4.85822]],[[335.32497,285.77802],[6.27764,-4.4837],[-6.36068,4.2389]],[[314.84215,297.87798],[7.63564,-1.78408],[-5.64176,1.31822]],[[297.10485,297.51008],[5.78226,0],[-5.31998,0]],[[281.44501,295.18376],[4.71328,2.74608],[-6.09492,-2.6052]],[[263.76187,286.7637],[5.90316,2.97586],[-1.73494,-0.8746]],[[256.37617,283.72538],[1.1854,1.45742],[-1.77252,-2.17926]],[[257.08689,275.02426],[-1.40602,2.05674],[3.62346,-5.30046]],[[273.65417,266.03734],[-4.84858,3.69358],[4.42616,-2.65838]],[[286.22761,256.81298],[-3.24804,4.11838],[2.63124,-3.33628]],[[290.15057,240.51646],[1.32478,4.2424],[-1.05118,-3.36626]],[[280.91155,233.37344],[3.8945,1.39282],[1.0271,1.07764]],[[281.04235,235.79552],[0,0],[-6.38706,9.32508]],[[256.88315,259.25234],[7.28458,-8.61874],[-3.07222,3.63488]],[[250.28465,271.80452],[2.66882,-4.0151],[-2.95752,4.3673]],[[245.28343,285.52826],[1.54184,-4.70384],[-3.76512,11.48654]],[[237.78761,321.51686],[3.00796,-12.03186],[-5.78958,16.72838]],[[233.36625,374.9712],[0,-17.5994],[0,20.25506]],[[233.36625,435.7364],[0,-20.25506],[0,5.9887]],[[234.08407,453.4217],[-0.14384,-5.9486],[0.03238,0.19122]],[234.11645,453.7409],[[234.11645,458.24204],[0,0],[0,0.60852]],[[233.41589,459.76244],[0.42878,-0.36682],[0.1766,6.43228]],[[233.35655,479.1943],[0.78274,-6.24032],[-0.67576,5.38742]],[[228.76251,493.88324],[1.85264,-4.6309],[-0.73542,1.83828]],[[228.09997,501.74722],[0.53112,-2.1245],[-0.04642,1.69442]],[[226.52877,506.58354],[0.49122,-1.62232],[-2.04146,6.74218]],[[225.83857,528.82996],[1.15166,-7.02178],[-1.60248,9.77046]],[[220.60335,557.96398],[1.97636,-9.75194],[0,5.4645]],[[218.33669,573.84122],[0.91122,-5.25924],[-0.74118,4.27784]],[[218.33565,587.66186],[-0.13878,-4.50386],[1.16104,0.78548]],[219.01005,589.90724],[[218.40807,591.71318],[0,0],[0.3106,6.76616]],[[221.33031,611.96044],[-0.79476,-6.7368],[0,0]]],&quot;closed&quot;:true}]}" fill="#52402d" stroke="none" stroke-width="0.5" stroke-linecap="butt"/><path d="" data-paper-data="{&quot;noHover&quot;:false,&quot;origItem&quot;:[&quot;Path&quot;,{&quot;applyMatrix&quot;:true,&quot;segments&quot;:[[[221.33019,611.96032],[0,0],[1.18796,10.06976]],[[221.36313,643.0381],[0,-10.14116],[-0.01082,0.80922]],[[222.37905,649.44242],[-0.56482,-0.07888],[5.94232,0.82974]],[[237.63571,645.59822],[-5.346,1.24482],[7.56656,-1.7619]],[[260.99541,644.82514],[-7.30032,1.89456],[4.3596,-1.1314]],[[272.87549,643.28868],[-4.61756,0],[24.25608,0]],[[345.64369,643.28868],[-24.25608,0],[23.68548,0]],[[415.76687,650.04322],[-23.68518,-0.01642],[24.93328,2.65318]],[[491.68123,650.79056],[-25.0784,0],[7.84098,0]],[[513.72735,647.84332],[-7.36778,1.58762],[4.31242,-0.92924]],[[528.18835,647.78982],[-4.37994,0],[8.21388,0]],[[554.11037,647.94956],[-8.31786,-1.25608],[0,0]],[[553.75807,647.47264],[0,0],[-3.64264,-8.9295]],[[542.62191,621.33624],[2.6925,9.41838],[0,0]],[[542.56007,620.50168],[-0.0443,0.46308],[-0.1097,-0.35806]],[542.45035,619.85488],[[542.59341,619.75484],[0,0],[-1.77544,-4.49932]],[[539.13807,606.00906],[1.5284,4.46762],[-1.57736,-9.47816]],[[534.49709,578.17342],[2.16912,9.28794],[-1.10928,-4.74978]],[[529.36527,563.32176],[3.07118,3.97394],[0,0]],[[529.76527,560.52176],[-1.6,1.2],[0.01434,-0.01076]],[[529.80819,560.49016],[-0.01428,0.0103],[0.00188,-5.27972]],[[528.97029,544.70482],[-0.0112,5.32368],[-2.1504,-15.0527]],[[523.48693,499.47222],[0,15.39796],[0,0]],[[523.51493,499.17968],[-0.028,0.17636],[-0.15884,-0.19934]],[523.27667,498.82148],[[522.67131,497.41302],[0,0],[-0.92562,-5.5573]],[[520.57315,480.60606],[0.96248,5.50956],[-0.46928,-2.68624]],[[518.85143,473.4853],[0.0365,2.9397],[0,-14.52902]],[[519.69329,430.11106],[-0.03184,14.52712],[0,0]],[[519.27285,428.95634],[0,0],[0,-9.2368]],[[518.85827,401.30828],[-0.0265,9.18612],[-1.61258,-9.5129]],[[518.01837,372.68454],[0.86174,9.55806],[-0.44782,-4.96704]],[[515.51167,357.93596],[0.26216,4.96814],[0,0]],[[515.48019,357.8786],[0,0],[0.01976,-7.71342]],[[512.54005,334.89814],[1.48228,7.57258],[-0.01242,-9.1038]],[[508.32305,307.4744],[0.83256,9.1176],[-0.55138,-6.03826]],[[509.15327,289.59048],[-0.09852,5.94608],[0,0]],[[507.71657,287.75662],[0,0],[-2.98888,-8.91986]],[[498.83211,261.14078],[4.23272,8.6159],[-1.09152,-2.22188]],[[496.43565,255.04688],[1.52644,1.908],[-4.8944,-8.1382]],[[478.43733,239.57704],[7.71112,5.17192],[-4.29644,-2.88168]],[[465.67029,231.31364],[4.82126,2.19022],[-3.04232,-1.38209]],[[454.91642,226.43968],[3.65797,1.02479],[-7.70686,8.1729]],[[446.76641,259.57135],[1.99884,-10.65051],[0.23136,0.48694]],[446.99777,260.53312],[[446.99777,261.79734],[0,0],[0,8.20738]],[[451.95003,285.6006],[-3.24678,-7.50312],[1.50468,5.9756]],[[458.62347,300.173],[-2.44922,-5.26098],[2.68528,5.76808]],[[465.73275,318.60222],[-2.84728,-5.87724],[1.7803,3.67484]],[[474.70509,325.41452],[-2.9172,-2.2298],[0.99196,0.75824]],[[477.31917,328.0972],[-0.02184,-1.24838],[0.02664,1.523]],[[474.81887,331.92222],[0.83344,-1.275],[-14.04556,-1.20128]],[[432.70209,318.03136],[11.5827,8.03308],[0,0]],[[431.59873,317.75916],[0,0],[-9.92948,-7.45294]],[[402.28937,293.02182],[10.66306,6.29984],[-10.6143,-6.07522]],[[386.13435,262.78192],[0.97348,11.67922],[-0.39118,-4.69316]],[[385.70791,248.73362],[-0.02366,4.72596],[0.00172,-0.34318]],[[385.68947,247.38052],[-0.00106,0.50614],[-11.34958,7.02846]],[[354.42029,272.1936],[10.29542,-8.4106],[-5.94694,4.85822]],[[335.32497,285.77802],[6.27764,-4.4837],[-6.36068,4.2389]],[[314.84215,297.87798],[7.63564,-1.78408],[-5.64176,1.31822]],[[297.10485,297.51008],[5.78226,0],[-5.31998,0]],[[281.44501,295.18376],[4.71328,2.74608],[-6.09492,-2.6052]],[[263.76187,286.7637],[5.90316,2.97586],[-1.73494,-0.8746]],[[256.37617,283.72538],[1.1854,1.45742],[-1.77252,-2.17926]],[[257.08689,275.02426],[-1.40602,2.05674],[3.62346,-5.30046]],[[273.65417,266.03734],[-4.84858,3.69358],[4.42616,-2.65838]],[[286.22761,256.81298],[-3.24804,4.11838],[2.63124,-3.33628]],[[290.15057,240.51646],[1.32478,4.2424],[-1.05118,-3.36626]],[[280.91155,233.37344],[3.8945,1.39282],[1.0271,1.07764]],[[281.04235,235.79552],[0,0],[-6.38706,9.32508]],[[256.88315,259.25234],[7.28458,-8.61874],[-3.07222,3.63488]],[[250.28465,271.80452],[2.66882,-4.0151],[-2.95752,4.3673]],[[245.28343,285.52826],[1.54184,-4.70384],[-3.76512,11.48654]],[[237.78761,321.51686],[3.00796,-12.03186],[-5.78958,16.72838]],[[233.36625,374.9712],[0,-17.5994],[0,20.25506]],[[233.36625,435.7364],[0,-20.25506],[0,5.9887]],[[234.08407,453.4217],[-0.14384,-5.9486],[0.03238,0.19122]],[234.11645,453.7409],[[234.11645,458.24204],[0,0],[0,0.60852]],[[233.41589,459.76244],[0.42878,-0.36682],[0.1766,6.43228]],[[233.35655,479.1943],[0.78274,-6.24032],[-0.67576,5.38742]],[[228.76251,493.88324],[1.85264,-4.6309],[-0.73542,1.83828]],[[228.09997,501.74722],[0.53112,-2.1245],[-0.04642,1.69442]],[[226.52877,506.58354],[0.49122,-1.62232],[-2.04146,6.74218]],[[225.83857,528.82996],[1.15166,-7.02178],[-1.60248,9.77046]],[[220.60335,557.96398],[1.97636,-9.75194],[0,5.4645]],[[218.33669,573.84122],[0.91122,-5.25924],[-0.74118,4.27784]],[[218.33565,587.66186],[-0.13878,-4.50386],[1.16104,0.78548]],[219.01005,589.90724],[[218.40807,591.71318],[0,0],[0.3106,6.76616]],[[221.33031,611.96044],[-0.79476,-6.7368],[0,0]]],&quot;closed&quot;:true}]}" fill="#52402d" stroke="none" stroke-width="0.5" stroke-linecap="butt"/><path d="" fill="#000000" stroke="none" stroke-width="0.5" stroke-linecap="butt"/><path d="" data-paper-data="{&quot;noHover&quot;:false,&quot;origItem&quot;:[&quot;Path&quot;,{&quot;applyMatrix&quot;:true,&quot;segments&quot;:[[[583.25139,495.65874],[0,1],[0,-1]],[584.25139,494.65874],[[584.85269,494.65874],[0,0],[-4.84073,-2.95068]],[[574.08601,482.88011],[3.25773,4.74252],[-1.56105,-2.68651]],[[569.46039,484.48145],[1.08387,-1.6197],[3.21102,3.26736]],[[579.00685,494.67021],[-3.14521,-3.67254],[1.51706,1.77141]],[[583.91806,500.65874],[-2.06109,-0.8516],[0.97275,-0.37736]],[[586.18396,496.55072],[-0.10473,1.54633],[-0.32045,0.05949]],[[585.25139,496.65874],[0.30079,-0.01173],[0,0]],[584.25139,496.65874]],&quot;closed&quot;:true}],&quot;index&quot;:null}" fill="#744824" stroke="none" stroke-width="0.5" stroke-linecap="butt"/><path d="" data-paper-data="{&quot;index&quot;:null}" fill="#9966ff" stroke="none" stroke-width="0.5" stroke-linecap="butt"/><path d="" data-paper-data="{&quot;index&quot;:null}" fill="#ff0000" stroke="#000000" stroke-width="0.5" stroke-linecap="butt"/><path d="" data-paper-data="{&quot;noHover&quot;:false,&quot;origItem&quot;:[&quot;Path&quot;,{&quot;applyMatrix&quot;:true,&quot;segments&quot;:[[[535.12936,417.74145],[-5.02125,-0.00391],[0.96679,-0.10681]],[[541.48204,417.51231],[-0.30659,0.39793],[0.74755,-0.97026]],[[541.01796,410.80199],[0.54306,-0.04458],[-1.79076,-0.18637]],[[535.49104,410.53876],[1.79136,-0.41053],[0,0]],[535.21543,410.55066],[[534.97952,410.49495],[0.12013,0.05571],[-3.56273,0]],[[523.73824,410.49495],[3.56138,0],[-4.60362,0]],[[520.13041,417.03337],[-0.3822,-4.15558],[5.07196,-0.31925]]],&quot;closed&quot;:true}],&quot;index&quot;:null}" fill="#ff0000" stroke="none" stroke-width="0.5" stroke-linecap="butt"/><path d="" data-paper-data="{&quot;index&quot;:null}" fill="#020204" stroke="none" stroke-width="0.5" stroke-linecap="butt"/><path d="" data-paper-data="{&quot;index&quot;:null}" fill="#020204" stroke="none" stroke-width="0.5" stroke-linecap="butt"/><path d="" data-paper-data="{&quot;index&quot;:null}" fill="#000000" stroke="none" stroke-width="0.5" stroke-linecap="butt"/><path d="" data-paper-data="{&quot;index&quot;:null}" fill="none" stroke="#000000" stroke-width="0.5" stroke-linecap="round"/><path d="" data-paper-data="{&quot;index&quot;:null}" fill="#ffffff" stroke="none" stroke-width="0.5" stroke-linecap="butt"/><path d="" data-paper-data="{&quot;index&quot;:null}" fill="#ffffff" stroke="none" stroke-width="0.5" stroke-linecap="butt"/><path d="" data-paper-data="{&quot;index&quot;:null}" fill="#ffffff" stroke="none" stroke-width="0.5" stroke-linecap="butt"/><path d="" data-paper-data="{&quot;index&quot;:null}" fill="#ffffff" stroke="none" stroke-width="0.5" stroke-linecap="butt"/><path d="M249.50518,253.34278c0,0 -13.30986,-25.45642 -16.68329,-31.90842c-1.46862,-2.80888 -3.16197,-6.04759 -3.16197,-6.04759c0,0 2.32297,-1.21013 3.90228,-2.03286c0.6426,-0.33476 -12.8457,-25.20827 -12.8457,-25.20827c0,0 -2.37132,0.95094 -4.09968,1.9343c-0.11122,0.06328 13.54699,25.89838 13.43779,25.9654c-1.082,0.66407 -2.70033,0.78772 -3.16628,1.1082c-0.18061,0.12423 -13.28402,-24.96464 -13.29315,-25.02657c-0.09749,-0.66148 -0.04352,-0.62871 -4.67792,1.66373c-0.23403,0.11576 9.28784,16.81792 13.06387,25.44917c0.06245,0.14274 12.45015,-6.72829 12.50939,-6.59007c0.26069,0.60827 -2.88772,4.48835 -2.82006,4.88284c0.04655,0.27144 3.4436,2.72416 1.58969,3.64715c-1.33994,0.6671 -3.45364,0.82867 -5.87973,0.95682c-2.26251,0.11951 -4.26387,0.33587 -4.33895,0.38061c-0.81411,0.48514 -2.72137,0.35699 -2.77549,0.38356c-0.35934,0.17651 -0.92603,-1.63199 -2.28974,-3.91744c-1.457,-2.44182 -3.14689,-5.93962 -5.04093,-9.42694c-4.01512,-7.39267 -8.43541,-15.05809 -8.38958,-15.12606c0.05924,-0.08787 0.04237,0.03793 -0.38383,-0.66237c-0.09383,-0.15419 -0.45281,-0.38858 -0.56992,-0.75986c-0.16965,-0.53776 -0.86518,-0.68227 0.17474,-1.40258c1.77751,-1.23119 5.23366,-2.78676 9.01109,-4.74666c5.94244,-3.08321 12.65985,-6.64897 14.734,-7.57063c0.90312,-0.40131 1.04542,0.41487 1.31937,0.74153c0.30241,0.36061 0.86558,1.26837 0.92563,1.88272c0.0832,0.85114 -0.39652,1.40946 -0.26465,1.59163c0.18592,0.25682 -6.2581,2.82251 -6.03781,3.16629c3.82256,5.96498 12.51959,25.2825 12.8305,25.0666c0.56601,-0.393 1.2473,-0.85991 1.98998,-1.31622c0.87476,-0.53749 2.30472,-0.78769 2.14939,-1.3242c-0.94539,-3.26534 -4.58006,-9.62305 -7.82742,-15.30564c-1.09445,-1.91519 -1.96455,-3.75954 -2.84543,-5.38597c-0.56743,-1.04767 -1.32915,-1.90604 -1.52568,-2.96419c-0.04351,-0.23427 -0.60099,-0.9077 -0.64058,-1.13311c-0.58777,-3.34621 -0.21524,-5.23505 0.4645,-5.44872c0.61136,-0.19216 2.29392,3.75741 4.87314,8.67592c4.75745,9.07237 11.39644,22.05048 11.73971,22.71228c0.22586,0.43545 -6.37973,8.21306 -6.15833,8.63988c3.44107,6.63406 16.78281,32.35563 16.78281,32.35563z" fill="url(#color-1)" stroke="#000000" stroke-width="0" stroke-linecap="butt"/><g stroke="none" stroke-width="0.5" stroke-linecap="butt"><path d="M271.17055,282.59366c0.47628,1.36106 1.10636,3.23671 1.15898,4.76764l0.02581,-0.00493l0.06154,0.32203c0.00679,0.03157 0.00404,0.06396 -0.00703,0.09332c0.02573,0.02815 0.04636,0.05573 0.06106,0.0826c0.14662,0.26801 0.0931,-0.60458 0.16502,-0.90148c0.1417,-0.58491 0.41314,-1.14567 0.59488,-1.72281c0.48551,-1.18124 0.76487,-3.01527 0.15899,-4.17829c0,0 -0.00357,-0.00685 -0.00768,-0.01836l-0.00716,-0.01712c-0.04238,-0.05311 -0.08518,-0.0997 -0.12696,-0.14504l-0.15733,0.07063c-0.70681,0.06678 -1.33875,0.26082 -1.95138,0.51947c0.0159,0.04473 0.01771,0.10591 -0.04426,0.16621c-0.05112,0.04975 -0.10167,0.05609 -0.14266,0.04716c0.03874,0.30609 0.11745,0.63524 0.21821,0.91897zM270.91794,286.49375c-0.92925,-1.04819 -1.94133,-2.04389 -2.90953,-3.12743c-0.60738,0.53758 -1.18961,1.09467 -1.88978,1.46052c0,0 -0.01424,0.00742 -0.03615,0.01321c0.03035,0.04376 0.0617,0.0871 0.09407,0.13002l0.01091,0.0036c1.22745,0.20227 3.4553,1.22709 4.5355,1.87663c0.19496,0.09618 0.58482,0.26094 0.94952,0.44479c-0.25541,-0.26583 -0.52326,-0.51647 -0.75454,-0.80132zM271.17123,286.27977c0.18388,0.23086 0.39545,0.43956 0.60553,0.65151c-0.49813,-1.17377 -0.57609,-3.25807 -0.91899,-4.22756c-0.1097,-0.31424 -0.19301,-0.67229 -0.23612,-1.0083c-0.36147,0.17309 -0.72167,0.36283 -1.0924,0.55596c-0.46649,0.24301 -0.8778,0.5602 -1.271,0.89697c0.97165,1.0876 1.97985,2.07852 2.91297,3.13144zM266.57164,276.06665l0.12796,0.16998c0.37611,0.46722 0.73859,0.99714 1.19499,1.38741c1.08109,1.13889 1.95537,2.44448 3.02065,3.57809c0.66883,-0.28785 1.355,-0.50601 2.12862,-0.58875c-0.00619,-0.01052 -0.01225,-0.02132 -0.01821,-0.03243c-1.04052,-1.29091 -2.40263,-2.32215 -3.58266,-3.44427c-0.75291,-0.72878 -2.04597,-1.53765 -2.97103,-1.13603c0.06107,0.01471 0.09969,0.066 0.09969,0.066zM267.66589,277.86411c-0.26097,-0.22542 -0.4926,-0.49291 -0.71359,-0.76888c0.17852,0.45454 0.33507,0.92193 0.4628,1.36234c0.28478,1.39088 0.55271,2.85735 0.87604,4.24111c0.33773,-0.27847 0.69218,-0.53674 1.08494,-0.74135c0.41512,-0.21625 0.81682,-0.4254 1.22082,-0.61271c-1.02369,-1.11445 -1.88134,-2.371 -2.93099,-3.48049zM267.09321,278.53715c-0.2265,-0.77737 -0.54313,-1.63867 -0.91366,-2.35691c-0.14046,0.11564 -0.26758,0.26981 -0.377,0.46869c-0.62169,1.41071 -0.44517,2.70664 -0.68892,4.1784c0.052,1.2829 0.14477,2.62952 0.79964,3.74752c0.02492,-0.02789 0.05216,-0.04208 0.05216,-0.04208c0.75538,-0.39222 1.37715,-1.01439 2.0419,-1.59305c-0.34021,-1.4309 -0.61802,-2.95645 -0.91411,-4.40256zM273.54256,285.34295c-0.11641,0.36946 -0.62484,2.6808 -0.95553,2.82195c-0.39371,0.16806 -1.66545,-0.84677 -2.02434,-1.02436c-1.00839,-0.63308 -3.26554,-1.64818 -4.42911,-1.83973l-0.16618,-0.0506c0,0 -0.12918,-0.04069 -0.11724,-0.16528c-0.8819,-1.24173 -1.01794,-2.79172 -1.06743,-4.27861c0.2482,-1.51518 0.0802,-2.85205 0.7226,-4.30436c0.95692,-1.74283 3.03628,-0.69788 4.16821,0.39638c1.1781,1.16457 2.57213,2.18569 3.62967,3.50117c0.08519,0.16905 0.21059,0.26146 0.33007,0.40885l0.04883,0.08702c0.00118,0.00203 0.00177,0.00315 0.00177,0.00315c0.64877,1.24537 0.37944,3.17744 -0.14131,4.44442z" fill="#eaff66"/><path d="M266.4448,275.98161c0.92507,-0.40162 2.23664,0.39427 2.98955,1.12305c1.18004,1.12211 2.57798,2.20431 3.61849,3.49523c0.00594,0.0111 0.01194,0.02201 0.01813,0.03254c-0.7736,0.08274 -1.47463,0.31266 -2.14345,0.60049c-1.06528,-1.13361 -1.98297,-2.4814 -3.06408,-3.6203c-0.45641,-0.39026 -0.81521,-0.92736 -1.19132,-1.39458l-0.12763,-0.17047c0,0 -0.03863,-0.05125 -0.09971,-0.06597z" data-paper-data="{&quot;noHover&quot;:false,&quot;origItem&quot;:[&quot;Path&quot;,{&quot;applyMatrix&quot;:true,&quot;segments&quot;:[[271.61502,268.78738],[[271.64998,268.99725],[0,0],[0.1177,0.58814]],[[272.06879,270.7798],[-0.22447,-0.55697],[0.43262,1.50953]],[[273.09461,275.34869],[-0.42103,-1.49754],[0.72615,0.05372]],[[275.25443,275.80998],[-0.72432,-0.28403],[-0.00063,-0.01219]],[[275.25327,275.77281],[0.00014,0.01259],[-0.3264,-1.62561]],[[273.66718,271.06295],[0.52812,1.54036],[-0.33104,-0.99419]],[[271.5571,268.68279],[1.00597,0.0712],[0.04737,0.04127]]],&quot;closed&quot;:true}]}" fill="url(#color-2)"/><path d="M270.9328,281.6479c0.04099,0.00892 0.09279,0.0017 0.14393,-0.04806c0.06197,-0.06031 0.06131,-0.12219 0.04539,-0.16693c0.61263,-0.25865 1.26482,-0.45731 1.97163,-0.52411l0.15881,-0.07046c0.04179,0.04535 0.08606,0.09218 0.12844,0.14529l0.00727,0.01714c0.00411,0.01151 0.0078,0.01838 0.0078,0.01838c0.60587,1.16303 0.33327,3.06009 -0.15224,4.24133c-0.18174,0.57715 -0.46801,1.14054 -0.60969,1.72545c-0.02343,0.09675 0.01276,0.27043 0.00265,0.43103c-0.02094,0.33226 -0.08322,0.65801 -0.18205,0.47734c-0.01469,-0.02686 -0.0226,-0.06146 -0.04833,-0.08961c0.01107,-0.02936 0.01379,-0.06176 0.00701,-0.09332l-0.0625,-0.32215l-0.02606,0.0049c-0.01579,-0.45924 -0.28136,-1.1879 -0.3837,-1.69305c-0.23885,-1.17883 -0.46076,-2.17792 -0.79416,-3.1307c-0.10076,-0.28373 -0.17541,-0.61639 -0.21415,-0.92247z" data-paper-data="{&quot;noHover&quot;:false,&quot;origItem&quot;:[&quot;Path&quot;,{&quot;applyMatrix&quot;:true,&quot;segments&quot;:[[[272.67814,276.70077],[0.04173,-0.29819],[-0.20642,1.42714]],[[271.50331,281.46453],[0.66064,-1.38206],[0,0]],[271.52847,281.47208],[[271.43427,281.78611],[0,0],[-0.00856,0.03113]],[[271.38491,281.86562],[0.02338,-0.02092],[0.00982,0.03685]],[[271.40091,281.96708],[-0.00062,-0.03061],[0.00621,0.30543]],[[271.96375,281.24382],[-0.20096,0.23008],[0.3959,-0.45328]],[[273.2873,279.99073],[-0.42783,0.42789],[0.97633,-0.8233]],[[275.35871,276.35857],[0,1.31138],[0,0]],[[275.36038,276.33874],[-0.00167,0.01211],[0,0]],[[275.36193,276.32025],[0,0],[-0.01305,-0.06668]],[[275.31635,276.13295],[0.01611,0.05953],[0,0]],[[275.14417,276.12291],[0,0],[-0.6577,-0.26733]],[[273.17354,275.68206],[0.66283,0.05365],[-0.00656,0.04702]],[[273.0575,275.80902],[0.08282,-0.02485],[-0.06833,0.0205]],[[272.90919,275.78494],[0.03223,0.02685],[-0.10706,0.28936]]],&quot;closed&quot;:true}]}" fill="url(#color-3)"/><path d="M270.62377,281.364c-0.40399,0.18731 -0.8176,0.40663 -1.23274,0.62289c-0.39276,0.20461 -0.76104,0.46644 -1.09877,0.74491c-0.32333,-1.38376 -0.61088,-2.91089 -0.89565,-4.30178c-0.12772,-0.4404 -0.2804,-0.91003 -0.45893,-1.36457c0.221,0.27597 0.45777,0.54145 0.71874,0.76688c1.04966,1.1095 1.94368,2.41722 2.96736,3.53168z" data-paper-data="{&quot;noHover&quot;:false,&quot;origItem&quot;:[&quot;Path&quot;,{&quot;applyMatrix&quot;:true,&quot;segments&quot;:[[[271.75504,270.88706],[0.41832,1.46894],[-0.1273,-0.32049]],[[271.4774,269.87547],[0.0685,0.34685],[-0.05167,0.4856]],[[271.25843,271.29751],[0.0902,-0.44959],[-0.39003,1.36511]],[[270.07593,275.46358],[0.35255,-1.3766],[0.42818,-0.09094]],[[271.38065,275.30734],[-0.44286,0],[0.46807,0]],[[272.74644,275.32797],[-0.44483,-0.02053],[-0.39299,-1.46133]]],&quot;closed&quot;:true}]}" fill="url(#color-4)"/><path d="M268.23026,283.13058c0.39319,-0.33677 0.819,-0.66647 1.28549,-0.90948c0.37072,-0.19313 0.74481,-0.38575 1.10628,-0.55884c0.04311,0.33602 0.13066,0.69438 0.24035,1.00863c0.23953,0.67723 0.51473,1.99112 0.82867,3.12184c0.13549,0.48798 0.22199,1.12022 0.37217,1.47407c-0.21008,-0.21196 -0.69708,-0.72491 -0.88097,-0.95576c-0.93312,-1.0529 -1.98034,-2.09286 -2.95199,-3.18046z" data-paper-data="{&quot;noHover&quot;:false,&quot;origItem&quot;:[&quot;Path&quot;,{&quot;applyMatrix&quot;:true,&quot;segments&quot;:[[[270.97572,279.97021],[-0.34111,-1.3649],[0.05642,0.2897]],[[271.21174,280.82778],[-0.08839,-0.28504],[0.10052,-1.27113]],[[272.34989,276.65388],[-0.14381,1.01823],[0.0479,-0.32937]],[[272.60633,275.65055],[-0.11701,0.31792],[-0.40054,-0.0135]],[[271.38065,275.63892],[0.41801,0],[-0.52599,0]],[[269.83903,275.8472],[0.5043,-0.11701],[0.35925,1.41348]]],&quot;closed&quot;:true}]}" fill="url(#color-5)"/><path d="M272.28522,287.87647c-0.3647,-0.18385 -1.33762,-0.91521 -1.53259,-1.01138c-1.08021,-0.64955 -3.30644,-1.67819 -4.53389,-1.88046l-0.0735,-0.02552c-0.03237,-0.0429 -0.06335,-0.08724 -0.09372,-0.131c0.02192,-0.00579 0.03626,-0.01348 0.03626,-0.01348c0.70017,-0.36585 1.30349,-0.94241 1.91086,-1.47999c0.9682,1.08354 2.02189,2.12004 2.95115,3.16825c0.23129,0.28485 1.07999,1.10775 1.3354,1.37359z" data-paper-data="{&quot;noHover&quot;:false,&quot;origItem&quot;:[&quot;Path&quot;,{&quot;applyMatrix&quot;:true,&quot;segments&quot;:[[[270.65222,280.04295],[0.07353,0.35948],[-0.33986,-1.35894]],[[269.51673,275.92507],[0.35807,1.40828],[-0.78703,0.19615]],[[267.16596,276.34727],[0.78999,-0.00098],[0,0]],[[267.1278,276.34228],[0.02211,0.00499],[0.0067,0.05283]],[[267.15117,276.50105],[-0.00889,-0.05301],[0,0]],[[267.15918,276.50928],[0,0],[0.99514,0.74648]],[[270.31458,280.26906],[-0.65791,-1.07514],[0.12847,0.17538]],[[270.95119,281.10223],[-0.2385,-0.33155],[-0.1037,-0.35376]]],&quot;closed&quot;:true}]}" fill="url(#color-6)"/><path d="M268.0275,282.96603c-0.66474,0.57865 -1.30732,1.20767 -2.06269,1.59988c0,0 -0.02765,0.01418 -0.05258,0.04206c-0.65488,-1.11799 -0.7765,-2.48336 -0.82849,-3.76625c0.24376,-1.47176 0.09496,-2.81518 0.71666,-4.22588c0.10942,-0.19888 0.23975,-0.3531 0.38021,-0.46874c0.37054,0.71825 0.7025,1.58386 0.92901,2.36124c0.29609,1.44611 0.57768,3.02678 0.91788,4.45769z" data-paper-data="{&quot;noHover&quot;:false,&quot;origItem&quot;:[&quot;Path&quot;,{&quot;applyMatrix&quot;:true,&quot;segments&quot;:[[[270.93619,271.21938],[-0.40552,1.41932],[0.15827,-0.79408]],[[271.21479,268.70697],[-0.00322,0.80819],[-0.17799,0.03766]],[[270.6639,268.94846],[0.18893,-0.12583],[-1.20312,0.9639]],[[268.12246,272.33589],[0.89615,-1.19265],[-0.5466,1.16179]],[[267.10026,276.02891],[-0.06427,-1.29408],[0.03499,-0.01322]],[[267.16596,276.01569],[0,0],[0.85114,0.00115]],[[269.71287,275.54623],[-0.85689,0.20608],[0.35937,-1.42621]]],&quot;closed&quot;:true}]}" fill="url(#color-7)"/></g><path d="M261.86519,256.89252c0.76843,1.47508 1.2214,3.08402 1.96491,4.59103c0.12175,-0.00719 0.18469,0.11364 0.18469,0.11364l0.03494,0.07308c0.27193,0.36118 0.44692,0.77327 0.71723,1.12988c1.37476,1.73414 2.35794,3.84605 3.54157,5.71781c0.83363,1.59715 1.92668,3.05346 2.76137,4.63942c0,0 0.03885,0.07458 0.01881,0.15294l0.11259,0.21613c0.70985,1.36261 1.30172,2.51749 -0.14283,3.37639c0.03865,0.04654 0.07041,0.1214 0.01541,0.22146c-0.09832,0.17888 -0.27719,0.08057 -0.27719,0.08057c-1.2278,-0.74612 -3.35004,0.03204 -4.32045,0.90458c-0.88826,0.83852 -1.32406,2.61698 -1.92265,3.72134l-0.15986,0.17562c0,0 -0.14192,0.14672 -0.28863,0.00479c-0.08526,-0.08247 -0.07304,-0.16656 -0.04786,-0.22253c-1.45536,0.30384 -2.69963,-0.37746 -3.4267,-1.77313c-0.94667,-1.81722 -1.47373,-3.70896 -2.43017,-5.54496c0,0 -0.0114,-0.02187 -0.01866,-0.05437c-0.97012,-1.85297 -2.11611,-3.68281 -3.09502,-5.52833c-1.04414,-2.00433 -2.0213,-3.99621 -3.34799,-5.82937c-1.07979,-1.44115 -2.11183,-2.94998 -2.67766,-4.6695c0,0 -0.00415,-0.01273 -0.00706,-0.03274c-0.93647,-1.7148 -2.00267,-3.36373 -2.89746,-5.10206c-0.47718,-1.96234 -0.84187,-5.38144 1.51211,-6.45305c0.17319,-0.54984 0.93186,-0.7521 1.42965,-1.0114c2.01657,-1.05051 3.32545,-1.07312 5.35346,-0.11947c2.01423,1.25521 3.16874,3.60301 4.23731,5.65424c0.35664,0.68461 0.78673,1.28747 1.14664,1.96282l0.05853,0.0373l0.00948,-0.01729c0,0 0.06842,0.02155 0.11137,0.07967c0.94258,0.26454 1.41106,2.66252 1.85018,3.50545z" fill="#000000" stroke="none" stroke-width="0.5" stroke-linecap="butt"/><path d="M203.00869,191.90148l25.12566,-13.16264l4.00581,7.50137l12.77997,24.29746l-6.63472,8.00563l16.80863,32.27163l-5.68712,2.97763l-16.69835,-32.14739l-12.59641,1.34966z" fill="none" stroke="#000000" stroke-width="0.5" stroke-linecap="round"/><path d="M222.18794,218.84627l-12.94654,-24.80132l4.07724,-2.11582l12.94402,24.74748z" fill="none" stroke="#000000" stroke-width="0.5" stroke-linecap="round"/><path d="M229.44129,215.0351l-12.94654,-24.80132l4.07724,-2.11582l12.94402,24.74748z" fill="none" stroke="#000000" stroke-width="0.5" stroke-linecap="round"/><path d="M236.32469,211.50249l-12.94654,-24.80132l4.07724,-2.11582l12.94402,24.74748z" fill="none" stroke="#000000" stroke-width="0.5" stroke-linecap="round"/><path d="M257.33733,263.75867c1.06708,2.04838 -2.47467,3.56267 -4.79739,4.77267c-0.27318,0.14231 5.75644,-3.61262 7.00731,-1.90104c0.0866,0.11849 0.54085,0.05726 0.85709,0.52389c0.30517,0.45027 0.47308,1.41978 0.5313,2.01438c0.0852,0.86994 -1.8322,3.51092 -2.16613,4.14323c-0.3053,0.57812 1.14443,0.1432 2.58799,0.09175c0.8732,-0.03113 1.70389,0.2058 2.25729,0.52774c1.37055,0.79733 1.11984,2.72156 1.13229,2.92018c0.02094,0.33415 0.14187,1.41953 -1.75527,2.60193c-1.24071,0.77328 -4.77465,1.80296 -4.79853,1.94492c-0.00741,0.04405 -0.6994,0.44548 -1.6461,0.11155c-0.6641,-0.23425 -1.59374,-1.09947 -1.89793,-1.54741c-0.18615,-0.27412 -0.3012,-0.57744 -0.36544,-0.89163c-0.31083,-1.52005 0.56724,-3.29453 0.33382,-3.24782c-0.8046,0.161 -2.51583,0.31815 -2.80781,0.12945c-0.39857,-0.25759 -0.63824,-0.82291 -1.06171,-0.95671c-0.55715,-0.17604 -0.58648,-1.53301 -0.89904,-1.59741c-0.09865,-0.02032 -0.36718,-0.35399 -0.47115,-0.82454c-0.24893,-1.12675 0.26542,-2.50091 -0.00314,-2.66614c-0.96674,-0.59475 -2.56983,-2.1212 -2.97258,-2.89434c-0.45686,-0.87699 -0.31247,-1.74667 -0.2733,-2.50368c0.05231,-1.01114 0.23064,-1.85271 1.5589,-2.54466c1.23986,-0.6459 5.20904,-1.33202 7.04145,-0.68081c1.60034,0.56873 2.11063,1.51954 2.60811,2.4745z" fill="#fffd4d" stroke="none" stroke-width="0" stroke-linecap="butt"/><path d="M247.08766,262.65379l-0.0307,-0.02288c-0.81647,0.69933 -0.69484,1.67249 -0.73253,2.64134c0.1364,1.35184 1.66254,4.33414 3.35196,4.17092c0,0 0.0473,-0.00357 0.10224,0.013c1.67872,-0.8809 3.33377,-1.75628 5.0857,-2.46392l0.17477,-0.08494c0.0374,-0.00868 0.07481,-0.0184 0.11219,-0.02909c0.14025,-0.0548 0.28115,-0.1085 0.42277,-0.16098c0.29314,-0.13804 0.57203,-0.32225 0.81115,-0.51593c2.30468,-1.52624 -0.49728,-4.4343 -2.29215,-4.72924c-2.0576,-0.34147 -4.81781,0.06212 -6.81156,0.95209c0.0001,0.18318 -0.19385,0.22968 -0.19385,0.22968zM245.82465,265.28745c0.03993,-1.02619 -0.01189,-1.96505 0.637,-2.75451c-0.09892,-0.21238 0.11327,-0.32292 0.11327,-0.32292c2.10727,-1.09726 5.26452,-1.61278 7.59942,-1.23134c2.12214,0.35031 4.74916,3.32047 2.9618,5.23166c2.50911,-0.60112 4.20812,0.25109 3.8422,3.64841c-0.1954,1.38778 -0.97096,2.47142 -1.98388,3.3582c0.25151,-0.05466 0.49168,-0.08567 0.71456,-0.08873c2.64094,-0.64825 5.26518,0.55131 5.3181,3.56139c0.17291,2.3621 -4.01466,3.77234 -5.7312,4.66498c-3.06189,1.24859 -4.3908,-0.15504 -5.43612,-2.98833c-0.15211,-0.73516 -0.09932,-1.2024 0.12662,-1.91968l0.08122,-0.134c0,0 0.04812,-0.06643 0.1273,-0.09562c0.06017,-0.07962 0.12611,-0.1603 0.19731,-0.24169c-2.56074,1.0175 -4.17398,-0.26275 -5.14014,-3.09183c-0.30305,-0.98771 -0.69816,-2.01531 -0.29891,-2.73154c-0.06824,-0.14633 0.01123,-0.24434 0.0673,-0.29118c-1.70439,-0.4984 -3.04753,-3.08108 -3.19584,-4.57329zM255.0294,267.4677c0,0 -0.02312,0.01205 -0.05829,0.02088c-1.62633,0.66281 -3.16963,1.47022 -4.72885,2.28882c-0.04135,0.06309 -0.10321,0.09533 -0.10321,0.09533l-0.17809,0.09105c-1.17982,0.45555 -0.57991,1.65587 -0.2333,2.76522c0.956,2.82813 2.44094,3.88213 5.11942,2.48679c0.34919,-0.18191 0.71866,-0.37172 1.09484,-0.57339c0.46533,-0.31989 0.97017,-0.61525 1.47652,-0.85856c1.49538,-0.96547 2.81283,-2.20786 3.06371,-3.98686c0.39138,-3.60236 -1.62972,-3.81108 -4.51022,-2.69279c-0.08202,0.0295 -0.16379,0.05944 -0.24532,0.08976c-0.1289,0.05797 -0.26023,0.10848 -0.39275,0.14982c-0.0967,0.0378 -0.19308,0.07613 -0.28917,0.11496zM254.44675,276.6499c-0.18369,0.59465 -0.23134,0.96096 -0.10628,1.5787c0.95307,2.54158 1.97222,3.82034 4.74477,2.67253c1.46227,-0.7632 5.59994,-2.16966 5.4424,-4.18855c-0.04307,-2.76068 -2.39647,-3.6423 -4.75582,-3.08833c-0.62792,0.01214 -1.41716,0.26432 -2.20138,0.64425c-0.45309,0.28896 -0.91982,0.55475 -1.37948,0.80388c-0.68818,0.47316 -1.27931,1.00143 -1.62664,1.48571c0,0 -0.0442,0.06101 -0.11755,0.0918z" fill="#130000" stroke="none" stroke-width="0.5" stroke-linecap="butt"/><path d="M265.66296,264.82569c0.09797,1.00412 -0.37221,1.58217 -0.97255,1.89492c-0.68345,0.35603 -1.82788,1.27411 -2.92068,0.51244c-0.95425,-0.6651 -2.17936,-3.19038 -2.65014,-4.0941c-0.50039,-0.96056 -1.04131,-3.37473 -0.88626,-4.84539c0.15789,-1.49746 1.02213,-2.04593 1.66803,-2.38241c0.48188,-0.25103 2.17224,-0.55613 3.73964,0.39208c1.43717,0.86943 2.75755,2.94709 3.23252,3.80504c0.38321,0.69218 -3.09403,0.33784 -2.81282,0.87766c0.53634,1.02955 1.49129,2.70256 1.60226,3.83974z" fill="#fffd4d" stroke="none" stroke-width="0" stroke-linecap="butt"/><path d="M265.80318,265.8422c-0.03136,-0.00987 -0.0573,-0.02258 -0.0787,-0.0372c-0.04123,0.17844 -0.09998,0.35367 -0.17853,0.52476c-1.9128,2.42743 -4.25697,1.6748 -5.561,-0.82475c-1.06114,-2.03697 -2.00143,-4.71183 -2.14006,-7.00751c0.18477,-2.40608 3.18279,-4.07516 5.47599,-2.95486c2.24541,1.32147 3.26931,2.88715 4.02998,5.33965c0.77718,2.51748 1.03681,5.1242 0.36617,7.66321c-0.01078,0.07472 -0.02158,0.14945 -0.03237,0.22418c0.0196,0.07291 0.02795,0.20403 -0.12576,0.2841c-0.22171,0.11551 -0.33722,-0.10622 -0.33722,-0.10622l-0.04159,-0.18214c0.01567,-0.1066 0.03136,-0.21322 0.04704,-0.31983c0.64625,-2.45974 0.40499,-4.97472 -0.35388,-7.41535c-0.71981,-2.32638 -1.65964,-3.7938 -3.79257,-5.04907c-1.91962,-1.03474 -4.57705,0.5469 -4.73581,2.52041c0.14202,2.21778 1.05763,4.80313 2.08351,6.77242c1.12142,2.15604 2.98844,2.90754 4.69154,0.79402c0.73909,-1.61877 -0.7275,-3.88314 -1.53415,-5.37334c-0.02785,-0.01734 -0.05521,-0.04295 -0.08055,-0.07962c-0.04443,-0.06432 -0.05487,-0.12242 -0.04821,-0.1719c-0.02199,-0.06828 -0.04416,-0.21346 0.12118,-0.2996c0.11176,-0.05822 0.19651,-0.03076 0.25312,0.01079c1.30672,-0.29202 2.32756,3.47231 2.55218,4.40375c0.06744,0.39675 -0.03023,0.57405 -0.20909,0.92637l-0.05765,0.19439c0,0 -0.07511,0.23845 -0.31356,0.16334zM265.89538,264.66654c-0.12362,-0.51855 -1.06428,-3.46797 -1.73762,-3.9635c0.70592,1.29751 1.65279,2.9284 1.64366,4.42196c0.08615,-0.15153 0.14743,-0.26191 0.09396,-0.45845z" fill="#130000" stroke="none" stroke-width="0.5" stroke-linecap="butt"/><path d="M383.68435,275.85321l0.53184,0.00287c0.16067,-0.0061 0.415,0.0336 0.58617,0.00267c-0.05594,0.80402 -0.70681,1.95544 -1.22642,2.15165c-1.10096,-0.44279 -1.82473,-2.1872 -2.63509,-3.10826c-1.68007,-1.90955 -3.44307,-3.68059 -5.15829,-5.37946c0.57897,-0.84217 1.65675,-2.24436 2.49061,-0.84749c1.74017,2.46589 3.23525,4.66053 5.82101,6.19475l-0.32208,0.00168c0,0 -0.53993,0.00836 -0.53993,0.52832c0,0.51995 0.45219,0.45328 0.45219,0.45328z" data-paper-data="{&quot;noHover&quot;:false,&quot;origItem&quot;:[&quot;Path&quot;,{&quot;applyMatrix&quot;:true,&quot;segments&quot;:[[[583.25139,495.65874],[0,1],[0,-1]],[584.25139,494.65874],[[584.85269,494.65874],[0,0],[-4.84073,-2.95068]],[[574.08601,482.88011],[3.25773,4.74252],[-1.56105,-2.68651]],[[569.46039,484.48145],[1.08387,-1.6197],[3.21102,3.26736]],[[579.00685,494.67021],[-3.14521,-3.67254],[1.51706,1.77141]],[[583.91806,500.65874],[-2.06109,-0.8516],[0.97275,-0.37736]],[[586.18396,496.55072],[-0.10473,1.54633],[-0.32045,0.05949]],[[585.25139,496.65874],[0.30079,-0.01173],[0,0]],[584.25139,496.65874]],&quot;closed&quot;:true}],&quot;index&quot;:null}" fill="#744824" stroke="none" stroke-width="0.5" stroke-linecap="butt"/><path d="M367.58969,263.59797c0.00686,-0.73622 0.47499,-1.29827 0.55779,-1.74428c0.2305,-1.24168 0.30976,-1.58403 0.93584,-2.28161c0.25896,-0.28853 1.35398,-1.04858 1.6698,-1.48166c0.20439,-0.28027 1.32186,-0.16419 1.59783,-0.18957c0.80669,-0.07417 1.8438,0.11418 2.67066,0.0701c1.36556,-0.0728 2.7739,0.35305 3.8068,1.83677c1.22357,1.75762 1.17618,4.56956 1.96761,7.46052c0.04886,0.17848 0.28055,0.44825 0.28484,0.63083c0.0029,0.12349 1.05682,2.13525 2.46416,4.24748c0.91605,1.37487 2.10084,2.71201 2.83518,3.87391c0.82493,1.30524 0.44419,1.91366 0.442,2.00191c-0.0598,2.41929 -2.19619,2.24213 -4.6545,1.48251c-0.21872,-0.06758 0.27414,3.00858 0.05156,2.9332c-0.15233,-0.0516 -0.22813,1.10245 -0.9524,1.76452c-0.79874,0.73014 -2.25232,0.9729 -2.43411,0.85455c-0.92231,-0.60047 -1.00035,-0.36601 -2.16984,-0.96489c-0.22597,-0.11572 -0.98927,0.37029 -1.25305,0.22778c-0.13186,-0.07124 -1.37853,0.27391 -1.50858,0.19007c-0.1603,-0.10335 -0.28883,-0.07046 -0.47392,-0.09966c-0.55129,-0.08697 -1.13031,-0.26111 -1.47373,-0.45338c-0.07637,-0.04277 -0.31622,0.01661 -0.3703,-0.04286c-0.30066,-0.33072 0.50081,0.18416 0.29698,0.19502c-0.71492,0.03812 -1.96286,-1.91201 -2.20054,-2.82501c-0.71791,-2.75774 -2.00774,-5.1731 -2.11647,-9.32641c-0.0031,-0.11846 -0.37424,-3.23197 -0.27006,-5.34002c0.07995,-1.61789 0.29646,-3.01981 0.29646,-3.01981z" data-paper-data="{&quot;index&quot;:null}" fill="#fffd4d" stroke="#000000" stroke-width="0" stroke-linecap="butt"/><path d="M375.52101,257.71997c1.40208,0.23674 3.47429,1.38801 3.94616,2.85619c0.18207,0.03195 0.6868,3.72761 1.05322,5.37058c0.74626,2.4306 1.89695,4.58975 3.41418,6.60867c1.34949,1.9985 3.31892,3.33291 3.08361,5.98487c-0.47154,1.84716 -2.69304,2.08214 -4.50611,1.61221c0.02074,0.38906 0.04149,0.77812 0.06223,1.16718c0.13883,2.67101 -2.10241,5.17677 -4.80865,3.75599c-0.55283,-0.21383 -1.03062,-0.46317 -1.44914,-0.74502c-0.42827,0.2301 -0.86813,0.42778 -1.34411,0.54298c-0.03141,0.04359 -1.52709,0.32359 -2.73253,-0.14244c-1.40512,-0.54322 -2.57171,-1.9267 -2.96583,-3.20876c-1.19862,-2.19044 -1.70587,-5.82372 -1.8451,-8.30343c-0.40773,-3.1089 -0.79129,-6.5437 -0.12658,-9.61159c0.23879,-1.95396 1.1739,-4.32616 2.93536,-5.32751c0,0 0.21733,-0.12354 0.34089,0.0938c0.12354,0.21733 -0.09379,0.34089 -0.09379,0.34089c-1.61046,0.9155 -2.50804,3.17824 -2.68903,4.97363c-0.65278,3.03082 -0.26953,6.41334 0.13103,9.48479c0.12261,2.3418 0.47733,6.06585 1.68849,8.1c0.17888,0.58186 0.7815,1.60477 1.53985,2.25478c0.59001,0.50572 1.37734,0.72108 1.46778,0.7446c1.25214,0.32566 3.09361,-0.19434 3.24732,-0.27204c-1.47854,-1.20153 -2.13293,-2.88782 -2.9178,-4.8776c-0.58675,-2.09825 -1.02093,-3.91489 -0.83316,-6.11204c0,0 0.02213,-0.24902 0.27114,-0.22689c0.24901,0.02213 0.22689,0.27114 0.22689,0.27114c-0.19533,2.12714 0.24488,3.87886 0.8092,5.90885c0.77407,1.97034 1.38665,3.63633 2.91598,4.78131c0.04347,-0.02074 1.15312,0.69558 1.62976,0.87525c2.3639,1.26456 4.22916,-0.96663 4.10271,-3.27408c-0.02098,-0.39339 -0.0979,-1.06713 -0.04846,-1.21129c-0.54624,-0.20379 -1.17424,-0.65331 -1.50523,-0.95148c-1.58265,-1.77329 -4.06701,-3.494 -4.2121,-6.08766c0,0 -0.01331,-0.24965 0.23633,-0.26296c0.24964,-0.01331 0.26295,0.23633 0.26295,0.23633c0.12222,2.42759 2.59315,4.10562 4.06709,5.76146c1.08424,0.97205 5.231,1.90945 5.6487,-0.36849c0.21821,-2.45102 -1.74639,-3.76264 -2.99743,-5.61728c-1.54321,-2.08392 -2.72143,-4.2737 -3.48992,-6.77042c-0.35865,-1.62295 -0.62475,-3.31218 -0.99189,-5.01785c0,0 -0.53822,-1.21087 -0.89339,-1.55538c-0.81254,-0.78815 -1.84414,-1.14487 -2.71303,-1.28809c0,0 -0.50356,-0.06401 -0.46239,-0.31059c0.01688,-0.1011 0.54471,-0.18259 0.54471,-0.18259z" data-paper-data="{&quot;index&quot;:null}" fill="#000000" stroke="none" stroke-width="0.5" stroke-linecap="butt"/></g></g></svg>