<svg version="1.1" xmlns="http://www.w3.org/2000/svg" xmlns:xlink="http://www.w3.org/1999/xlink" width="98.33812" height="29.21102" viewBox="0,0,98.33812,29.21102"><g transform="translate(-276.47927,-255.60243)"><g data-paper-data="{&quot;isPaintingLayer&quot;:true}" fill-rule="nonzero" stroke-linecap="butt" stroke-linejoin="miter" stroke-miterlimit="10" stroke-dasharray="" stroke-dashoffset="0" style="mix-blend-mode: normal"><path d="M370.25272,271.72493c0,7.22859 -20.99189,13.08852 -46.88672,13.08852c-25.89483,0 -46.88673,-5.85993 -46.88673,-13.08852c0,-7.22859 20.9919,-13.08852 46.88673,-13.08852c25.89483,0 46.88672,5.85993 46.88672,13.08852z" fill-opacity="0.59608" fill="#000000" stroke="none" stroke-width="0"/><path d="M359.14344,271.04129c-1.08643,-0.36838 -1.93918,-1.01201 -2.90615,-1.52422c0.06588,3.0381 -1.29606,3.65887 -4.14194,3.7503c-3.8067,0.1223 -10.45818,-0.4359 -9.28954,-5.93731c1.10828,-1.22023 0.12126,-1.81674 -0.26444,-3.08939c-0.69672,-2.29887 0.02668,-6.37231 2.14147,-7.52494c0.8829,-0.32817 2.43555,-1.34051 3.33314,-0.5959c0.59313,0.49205 0.586,2.04037 1.08817,2.70518c1.36028,1.80086 4.011,1.02404 5.11359,-0.51329c1.15436,-4.01942 4.1108,1.30659 5.17587,2.02053c0.60005,0.40223 4.06358,-1.88645 4.87807,-2.11887c4.06746,-1.14689 9.09328,-1.93587 9.99964,3.19952c0.22537,0.13106 0.23469,0.42109 0.23469,0.42109c0.12199,3.79717 0.36252,7.164 -2.69963,9.96883c-1.1661,0.32115 -2.1399,1.07577 -3.39016,1.17849c-3.41731,0.28077 -6.12537,-1.01882 -9.27281,-1.94z" data-paper-data="{&quot;index&quot;:null}" fill="#134bff" stroke="#0b2d9c" stroke-width="0.5"/><path d="M293.47835,271.14233c-3.14744,0.92118 -5.8555,2.22077 -9.27281,1.94c-1.25026,-0.10272 -2.22406,-0.85734 -3.39016,-1.17849c-3.06215,-2.80483 -2.82162,-6.17166 -2.69963,-9.96883c0,0 0.00932,-0.29003 0.23469,-0.42109c0.90636,-5.13539 5.93218,-4.34641 9.99964,-3.19952c0.81449,0.23242 4.27802,2.5211 4.87807,2.11887c1.06507,-0.71394 4.02151,-6.03995 5.17587,-2.02053c1.10259,1.53733 3.75331,2.31415 5.11359,0.51329c0.50217,-0.66481 0.49504,-2.21313 1.08817,-2.70518c0.89759,-0.74461 2.45024,0.26773 3.33314,0.5959c2.11479,1.15263 2.83819,5.22607 2.14147,7.52494c-0.3857,1.27265 -1.37272,1.86916 -0.26444,3.08939c1.16864,5.50141 -5.48284,6.05961 -9.28954,5.93731c-2.84588,-0.09143 -4.20782,-0.7122 -4.14194,-3.7503c-0.96697,0.51221 -1.81972,1.15584 -2.90615,1.52422z" fill="#134bff" stroke="#0b2d9c" stroke-width="0.5"/><path d="M301.61479,265.44444c-0.11181,0.19197 -0.33541,0.09599 -0.33541,0.09599l-0.09807,-0.04293c-0.20619,-0.0713 -0.40641,-0.15695 -0.59677,-0.25547c-2.94365,-0.8302 -3.27966,2.51379 0.07699,1.36178c0.51241,-0.1465 2.63416,-0.73186 2.61709,0.27105c-0.00943,0.55423 -0.76454,1.10081 -0.53972,1.76847c0.24335,0.72269 1.62042,-0.27678 1.80289,-0.58112c-0.01374,-0.62138 -0.70808,-1.93114 -0.3022,-2.34631c0.67629,-0.69177 3.88828,-0.75169 2.88246,-2.41104c-0.44466,-2.29049 -2.69689,1.51564 -3.80444,1.65169c-0.01654,0.0024 -0.03447,0.0037 -0.05392,0.0037c-0.08682,0 -0.14349,-0.02588 -0.18048,-0.05968c-0.03936,-0.03176 -0.06952,-0.08041 -0.06952,-0.15495c0,-0.00047 0,-0.00094 0,-0.00141l0.00085,-0.33255c-0.11867,-0.60189 -0.35625,-1.01477 -0.60323,-1.55739c-1.82861,-1.51738 -2.34331,1.34878 -0.98715,2.22201c0,0 0.04615,0.02972 0.07749,0.07964l0.00135,0.00057c0,0 0.22361,0.09599 0.11181,0.28796zM307.59752,263.1721c1.11876,1.98944 -2.07887,2.00642 -2.96911,2.81366c-0.12678,0.11496 0.40681,1.76624 0.39999,2.17506c-0.37538,0.65609 -2.23602,1.88128 -2.76133,0.62459c-0.24481,-0.58566 0.15745,-1.48901 0.51356,-1.94911c0.10148,-0.13112 -1.83855,0.13947 -1.94713,0.17057c-0.62191,0.21371 -2.09288,0.68697 -2.75391,0.27046c-0.78055,-0.49182 -0.41347,-2.06253 0.17208,-2.49904c0.55758,-0.41566 1.522,-0.21084 2.21901,-0.01842c-0.94133,-1.52187 0.36704,-3.89005 2.35804,-2.14193c0.29122,0.61203 0.55442,1.0808 0.68411,1.75829l0.0002,0.08456c1.1334,-0.57125 3.48864,-4.35807 4.0845,-1.28869z" fill="#c700ff" stroke="none" stroke-width="0.5"/><path d="M302.62615,265.40083c-0.94119,0.21445 0.50428,0.98607 0.06617,0.11015zM302.67868,265.03934c0.12517,-0.03933 0.1987,0.08321 0.1987,0.08321l0.12935,0.21585c0.96678,1.9341 -2.55723,0.14654 -0.40225,-0.29943c0,0 0.03351,-0.0067 0.0742,0.00038z" fill="#c700ff" stroke="none" stroke-width="0.5"/><path d="M350.85373,265.83744l0.00134,-0.00062c0.03134,-0.05441 0.07749,-0.0868 0.07749,-0.0868c1.35616,-0.95172 0.84146,-4.07549 -0.98715,-2.42173c-0.24698,0.59139 -0.48456,1.04138 -0.60323,1.69736l0.00085,0.36244c0,0.00051 0.00001,0.00102 0.00001,0.00153c0,0.08124 -0.03016,0.13427 -0.06952,0.16888c-0.03699,0.03683 -0.09366,0.06504 -0.18048,0.06504c-0.01945,0 -0.03737,-0.00142 -0.05392,-0.00403c-1.10755,-0.14828 -3.35978,-4.29651 -3.80444,-1.80014c-1.00582,1.8085 2.20617,1.87381 2.88245,2.62775c0.40587,0.45248 -0.28845,1.87997 -0.3022,2.55719c0.18247,0.33169 1.55954,1.42099 1.80289,0.63335c0.22482,-0.72767 -0.53029,-1.32337 -0.53972,-1.92742c-0.01707,-1.09305 2.10467,-0.45508 2.61709,-0.29541c3.35665,1.25555 3.02064,-2.38899 0.07699,-1.48417c-0.19036,0.10738 -0.39059,0.20073 -0.59678,0.27844l-0.09807,0.04679c0,0 -0.2236,0.10461 -0.33541,-0.10462c-0.11181,-0.20923 0.11181,-0.31384 0.11181,-0.31384zM348.84369,265.07922l0.00019,-0.09216c0.12968,-0.73838 0.39289,-1.24928 0.68411,-1.91632c1.991,-1.90525 3.29937,0.67578 2.35804,2.33444c0.69701,-0.20971 1.66143,-0.43294 2.21901,0.02008c0.58555,0.47574 0.95263,2.18763 0.17208,2.72365c-0.66103,0.45395 -2.132,-0.06185 -2.75391,-0.29477c-0.10858,-0.0339 -2.04861,-0.32881 -1.94713,-0.1859c0.35611,0.50145 0.75837,1.48599 0.51356,2.12429c-0.52531,1.36965 -2.38594,0.03434 -2.76133,-0.68072c-0.00682,-0.44556 0.52677,-2.24527 0.39999,-2.37056c-0.89024,-0.87979 -4.08787,-0.8983 -2.96911,-3.06655c0.59585,-3.34525 2.95109,0.78193 4.0845,1.40452z" data-paper-data="{&quot;index&quot;:null}" fill="#c700ff" stroke="none" stroke-width="0.5"/><path d="M349.59551,266.04783c-0.94119,0.21445 0.50428,0.98607 0.06617,0.11015zM349.64805,265.68633c0.12517,-0.03933 0.1987,0.08321 0.1987,0.08321l0.12935,0.21585c0.96678,1.9341 -2.55723,0.14654 -0.40225,-0.29943c0,0 0.03351,-0.0067 0.0742,0.00037z" fill="#c700ff" stroke="none" stroke-width="0.5"/><path d="M281.63655,264.98933c-0.1991,-0.04937 -0.14974,-0.24848 -0.14974,-0.24848l0.02242,-0.0875c0.02947,-0.18 0.07341,-0.35822 0.13111,-0.53125c0.24572,-2.53051 -2.93321,-2.10021 -1.25618,0.34643c0.22863,0.37964 1.15548,1.95604 0.21711,2.1521c-0.51857,0.10835 -1.16388,-0.38193 -1.74618,-0.0623c-0.63029,0.34598 0.54907,1.23953 0.86565,1.32198c0.57702,-0.14096 1.67385,-0.97079 2.13391,-0.73264c0.76657,0.39681 1.39915,2.95601 2.76607,1.80367c2.05628,-0.83503 -1.8977,-1.84235 -2.22343,-2.70067c-0.0052,-0.01274 -0.00964,-0.02682 -0.01313,-0.04239c-0.01559,-0.06952 -0.00162,-0.1203 0.02326,-0.15699c0.02255,-0.03816 0.0625,-0.07248 0.13202,-0.08807c0.00043,-0.0001 0.00088,-0.00019 0.00131,-0.00029l0.31029,-0.06886c0.54001,-0.22089 0.88241,-0.49746 1.34411,-0.80869c1.08679,-1.78143 -1.6786,-1.59414 -2.24948,-0.32569c0,0 -0.01943,0.04317 -0.06036,0.0787l-0.00029,0.00119c0,0 -0.04937,0.19911 -0.24848,0.14974zM284.8299,269.30429c-1.65449,1.3118 -2.24444,-1.24488 -3.15711,-1.78885c-0.12997,-0.07747 -1.57416,0.69509 -1.95665,0.77513c-0.67927,-0.16335 -2.15596,-1.39688 -1.07828,-2.08029c0.50223,-0.31849 1.41693,-0.18532 1.90995,0.00358c0.1405,0.05383 -0.46017,-1.44291 -0.50868,-1.52334c-0.31097,-0.45325 -1.01643,-1.53203 -0.74668,-2.1484c0.31853,-0.72781 1.84928,-0.76238 2.3615,-0.38484c0.48775,0.35951 0.4699,1.17452 0.41559,1.77283c1.25029,-1.07196 3.69376,-0.51966 2.42093,1.44007c-0.51849,0.36117 -0.9084,0.66994 -1.51695,0.91546l-0.07882,0.01784c0.73624,0.78801 4.6907,1.88184 1.93518,3.00082z" fill="#ff0000" stroke="none" stroke-width="0.5"/><path d="M367.81007,264.04321c-0.11181,0.22361 -0.33541,0.11181 -0.33541,0.11181l-0.09807,-0.05c-0.20619,-0.08305 -0.40641,-0.18281 -0.59677,-0.29757c-2.94365,-0.96699 -3.27966,2.92801 0.07699,1.58617c0.51241,-0.17064 2.63416,-0.85246 2.61709,0.31571c-0.00943,0.64556 -0.76454,1.2822 -0.53972,2.05988c0.24335,0.84177 1.62042,-0.32239 1.80289,-0.67687c-0.01374,-0.72377 -0.70808,-2.24936 -0.3022,-2.73293c0.67629,-0.80575 3.88828,-0.87556 2.88245,-2.80833c-0.44466,-2.66792 -2.69689,1.76539 -3.80443,1.92386c-0.01654,0.00279 -0.03447,0.0043 -0.05392,0.0043c-0.08682,0 -0.14349,-0.03015 -0.18048,-0.06952c-0.03936,-0.03699 -0.06952,-0.09366 -0.06952,-0.18048c0,-0.00054 0,-0.0011 0,-0.00164l0.00085,-0.38735c-0.11867,-0.70107 -0.35625,-1.18198 -0.60323,-1.81401c-1.82861,-1.76741 -2.34331,1.57103 -0.98715,2.58815c0,0 0.04615,0.03461 0.07749,0.09276l0.00135,0.00067c0,0 0.22361,0.1118 0.11181,0.33541zM373.7928,261.39644c1.11876,2.31726 -2.07887,2.33704 -2.96911,3.27729c-0.12678,0.1339 0.40681,2.05729 0.39999,2.53347c-0.37538,0.76421 -2.23602,2.19128 -2.76133,0.72751c-0.24481,-0.68216 0.15745,-1.73437 0.51356,-2.27028c0.10148,-0.15272 -1.83855,0.16245 -1.94713,0.19868c-0.62191,0.24892 -2.09288,0.80017 -2.75391,0.31502c-0.78055,-0.57286 -0.41347,-2.40239 0.17208,-2.91082c0.55758,-0.48415 1.522,-0.24559 2.21901,-0.02146c-0.94133,-1.77265 0.36704,-4.53105 2.35804,-2.49487c0.29122,0.71288 0.55442,1.25889 0.68411,2.04802l0.0002,0.09849c1.1334,-0.66537 3.48864,-5.07619 4.0845,-1.50104z" fill="#ff0000" stroke="none" stroke-width="0.5"/><path d="M292.21558,263.78668c-0.94119,0.21445 0.50428,0.98607 0.06618,0.11015zM292.26812,263.42518c0.12517,-0.03933 0.19869,0.08321 0.19869,0.08321l0.12935,0.21585c0.96678,1.9341 -2.55723,0.14654 -0.40225,-0.29943c0,0 0.03352,-0.0067 0.07421,0.00038z" fill="#00ff50" stroke="none" stroke-width="0.5"/><path d="M281.92088,265.68128c-0.90645,-0.33193 -0.11312,1.10174 -0.00438,0.12842zM282.16157,265.4065c0.12643,0.03507 0.12148,0.17789 0.12148,0.17789l-0.00884,0.25149c-0.24061,2.14884 -2.22564,-1.26783 -0.17471,-0.47005c0,0 0.03177,0.01261 0.06207,0.04068z" fill="#ff0000" stroke="none" stroke-width="0.5"/><path d="M369.32627,264.21516c-0.94119,0.21445 0.50428,0.98607 0.06618,0.11015zM369.3788,263.85366c0.12517,-0.03933 0.19869,0.08321 0.19869,0.08321l0.12935,0.21585c0.96678,1.9341 -2.55723,0.14654 -0.40225,-0.29943c0,0 0.03352,-0.0067 0.07421,0.00038z" fill="#ff0000" stroke="none" stroke-width="0.5"/><path d="M360.03558,263.17578c-0.94119,0.21445 0.50428,0.98607 0.06618,0.11015zM360.08812,262.81428c0.12517,-0.03933 0.19869,0.08321 0.19869,0.08321l0.12935,0.21585c0.96678,1.9341 -2.55723,0.14654 -0.40225,-0.29943c0,0 0.03352,-0.0067 0.07421,0.00038z" fill="#00ff50" stroke="none" stroke-width="0.5"/><path d="M360.91765,263.07776l0.00113,-0.00032c0.03231,-0.04025 0.07267,-0.06032 0.07267,-0.06032c1.18603,-0.58977 1.26275,-3.22803 -0.39247,-2.12852c-0.2792,0.45075 -0.5298,0.7867 -0.72017,1.30865l-0.05414,0.29778c-0.00008,0.00042 -0.00015,0.00084 -0.00023,0.00126c-0.01228,0.06672 -0.04347,0.106 -0.07895,0.12886c-0.034,0.02502 -0.0818,0.04017 -0.14852,0.02789c-0.01494,-0.00275 -0.02851,-0.00645 -0.04082,-0.01094c-0.82868,-0.27844 -1.9323,-4.00385 -2.6514,-2.01657c-1.04633,1.34297 1.41206,1.85098 1.81778,2.56583c0.24349,0.42902 -0.50588,1.50315 -0.61882,2.05739c0.09007,0.29822 0.98362,1.38762 1.28969,0.77518c0.28277,-0.56581 -0.20744,-1.16186 -0.12337,-1.65927c0.15213,-0.9001 1.68614,-0.07602 2.05578,0.12759c2.38962,1.50596 2.68239,-1.5347 0.28354,-1.20801c-0.16252,0.06126 -0.3305,0.1096 -0.50069,0.14425l-0.08244,0.02455c0,0 -0.18765,0.05429 -0.24193,-0.13336c-0.05429,-0.18765 0.13337,-0.24193 0.13337,-0.24193zM359.48765,262.17072l0.01408,-0.07566c0.21128,-0.58806 0.49078,-0.97042 0.81542,-1.47704c1.81803,-1.28308 2.43326,1.02172 1.45913,2.25076c0.56733,-0.07363 1.34219,-0.12053 1.70218,0.33039c0.37805,0.47354 0.40132,1.93138 -0.27953,2.26118c-0.5766,0.2793 -1.629,-0.35238 -2.0717,-0.63164c-0.07831,-0.0432 -1.52456,-0.55983 -1.46817,-0.42812c0.19784,0.4622 0.35812,1.32768 0.0735,1.81726c-0.61073,1.05054 -1.83868,-0.30931 -2.01905,-0.94967c0.06212,-0.36689 0.74424,-1.76945 0.66575,-1.89028c-0.5511,-0.84848 -3.00554,-1.316 -1.81803,-2.93846c0.96362,-2.66305 2.14957,1.05963 2.92642,1.73127z" data-paper-data="{&quot;index&quot;:null}" fill="#00ff50" stroke="none" stroke-width="0.5"/><path d="M293.41611,263.67705l0.00113,-0.00032c0.03231,-0.04025 0.07267,-0.06032 0.07267,-0.06032c1.18603,-0.58977 1.26275,-3.22803 -0.39247,-2.12852c-0.2792,0.45075 -0.5298,0.7867 -0.72017,1.30865l-0.05414,0.29778c-0.00007,0.00042 -0.00016,0.00084 -0.00023,0.00126c-0.01228,0.06672 -0.04346,0.106 -0.07895,0.12886c-0.034,0.02502 -0.08181,0.04017 -0.14853,0.0279c-0.01495,-0.00275 -0.02851,-0.00645 -0.04082,-0.01093c-0.82869,-0.27844 -1.9323,-4.00385 -2.6514,-2.01657c-1.04633,1.34298 1.41206,1.85098 1.81777,2.56583c0.24349,0.42902 -0.50587,1.50315 -0.61882,2.05738c0.09008,0.29822 0.98361,1.38763 1.28969,0.77519c0.28277,-0.56581 -0.20744,-1.16186 -0.12337,-1.65927c0.15213,-0.9001 1.68615,-0.07602 2.05578,0.12759c2.38963,1.50597 2.6824,-1.5347 0.28355,-1.20801c-0.16252,0.06126 -0.3305,0.1096 -0.50069,0.14425l-0.08244,0.02455c0,0 -0.18765,0.05428 -0.24193,-0.13337c-0.05428,-0.18765 0.13336,-0.24193 0.13336,-0.24193zM291.98611,262.77002l0.01408,-0.07566c0.21128,-0.58806 0.49078,-0.97042 0.81541,-1.47704c1.81804,-1.28307 2.43326,1.02173 1.45913,2.25077c0.56732,-0.07364 1.34219,-0.12053 1.70218,0.33039c0.37805,0.47354 0.40132,1.93137 -0.27953,2.26118c-0.5766,0.27931 -1.62899,-0.35238 -2.07169,-0.63164c-0.07831,-0.0432 -1.52455,-0.55983 -1.46817,-0.42811c0.19784,0.4622 0.35811,1.32768 0.07349,1.81726c-0.61073,1.05054 -1.83868,-0.3093 -2.01905,-0.94966c0.06212,-0.36689 0.74423,-1.76945 0.66575,-1.89028c-0.55111,-0.84848 -3.00554,-1.316 -1.81803,-2.93846c0.96362,-2.66305 2.14957,1.05963 2.92642,1.73127z" data-paper-data="{&quot;index&quot;:null}" fill="#00ff50" stroke="none" stroke-width="0.5"/></g></g></svg>