<svg version="1.1" xmlns="http://www.w3.org/2000/svg" xmlns:xlink="http://www.w3.org/1999/xlink" width="47.2267" height="49.58804" viewBox="0,0,47.2267,49.58804"><defs><linearGradient x1="97.41264" y1="252.01336" x2="144.63934" y2="252.01336" gradientUnits="userSpaceOnUse" id="color-1"><stop offset="0" stop-color="#fdff00"/><stop offset="1" stop-color="#004917"/></linearGradient></defs><g transform="translate(-97.41264,-227.21934)"><g data-paper-data="{&quot;isPaintingLayer&quot;:true}" fill-rule="nonzero" stroke-linecap="butt" stroke-linejoin="miter" stroke-miterlimit="10" stroke-dasharray="" stroke-dashoffset="0" style="mix-blend-mode: normal"><path d="M128.64859,256.75929c0,0.20191 -8.08558,0.27161 -11.90111,0.23765c-1.0599,-0.00943 -1.65942,-0.28062 -1.71964,-0.2815c-1.01275,-0.01468 -1.8571,0.72713 -2.47575,0.7346c-0.09358,0.00113 -0.18102,0.12819 -0.34683,-0.29299c-0.11927,-0.30296 -0.23871,-0.56938 -0.20255,-1.08323c0.01498,-0.21283 0.27859,-0.61606 0.22803,-0.84729c-0.0789,-0.3609 -0.69145,-0.73788 -0.90224,-1.11116c-0.18642,-0.33012 0.02408,-0.65734 -0.00571,-0.968c-0.03264,-0.34045 0.31508,-0.56826 0.28408,-0.93251c-0.02543,-0.29881 -0.23682,-0.73076 -0.26113,-1.04075c-0.03122,-0.39816 -0.64478,-1.90624 -0.6689,-2.31461c-0.0103,-0.17449 1.1644,1.19598 1.15637,1.02126c-0.09634,-2.09444 -0.88619,-3.3021 -1.3664,-4.2599c-0.15343,-0.30601 -0.21033,-0.63521 -0.28731,-0.89638c-0.13361,-0.45335 0.25085,-1.6915 0.24006,-1.71021c-0.07279,-0.12617 0.01409,-0.33674 -0.01808,-0.46414c-0.09687,-0.3836 -0.199,-0.6577 -0.37847,-0.7702c-0.34169,-0.2142 -0.45237,-0.47791 -0.45237,-0.85897c0,-0.29691 0.03514,-0.79109 0.25591,-0.99769c0.26082,-0.24407 0.87481,-0.3348 1.30051,-0.3348c0.18178,0 0.45115,0.12374 1.33218,0.50258c0.05425,0.02333 0.33285,-0.01236 0.61897,-0.04928c0.3036,-0.03918 1.29043,-0.67014 1.35201,-0.64309c0.13395,0.05883 0.81282,-0.24667 0.9517,-0.18187c0.18494,0.08628 0.70182,0.10459 0.91541,0.18183c0.27558,0.09965 0.57052,0.41395 0.87951,0.50077c0.20806,0.05846 2.28863,-0.67744 2.50782,-0.6259c0.74776,0.17582 0.94758,0.32278 1.59178,0.49809c0.33195,0.09034 1.91273,-0.57576 2.22912,-0.48674c0.43108,0.12128 0.9244,0.16199 1.87663,0.29435c0.31415,0.04367 1.06889,-0.29947 1.42331,-0.24149c0.25406,0.04156 1.15259,0.1224 1.40333,0.27797c0.02077,0.01289 0.4135,-0.0965 0.56551,-0.21244c0.18103,-0.13809 0.93046,-0.19059 1.16293,-0.15185c0.28836,0.04804 0.55998,0.64122 0.67516,0.91278c0.19789,0.46657 -0.15574,1.37909 -0.33316,1.9076c-0.08047,0.23972 -0.04933,0.40044 -0.04613,0.4047c0.05634,0.07521 -0.04137,0.08629 -0.24302,0.05331c-0.17977,-0.0294 0.37329,-0.07864 0.25999,0.69124c-0.03184,0.21637 0.07973,0.64823 -0.01261,0.95382c-0.17272,0.57165 -0.58462,1.0967 -0.64507,1.7247c-0.07273,0.75559 -0.25081,1.80125 -0.18672,2.62298c0.04728,0.60617 -0.24999,0.60838 -0.27818,1.24303c-0.01545,0.34775 -0.18344,0.6418 -0.20316,0.98556c-0.01593,0.27776 -0.01436,0.83319 -0.03107,1.10727c-0.00959,0.15726 0.21283,0.35454 0.20571,0.50962c-0.0109,0.23723 0.23937,0.75014 0.23138,0.98018c-0.00274,0.07884 0.06086,0.26115 0.05,0.33408c-0.04914,0.33001 -0.23482,0.50237 -0.25279,0.81892c-0.02576,0.45383 -0.32106,0.77198 -0.32459,1.12973c-0.00469,0.47478 0.03721,0.65672 0.26616,0.86333c0.31187,0.28144 0.24734,0.4951 0.24734,0.50794z" fill="#fffd4d" stroke="none" stroke-width="NaN"/><path d="M122.99451,255.31667c-0.09637,0.00726 -0.10347,-0.0912 -0.10347,-0.0912l-0.00735,-0.10185c-0.02009,-0.27853 -0.04933,-0.53057 -0.18003,-0.78015c-0.30355,-0.74138 -0.58891,-1.67629 -1.3206,-2.09879c-0.54354,-0.37306 -1.47874,-0.29062 -2.12196,-0.24144c-0.02182,0.01191 -0.0431,0.01352 -0.0431,0.01352l-0.01196,0.00056c-0.50148,0.07846 -0.81511,0.41343 -1.0144,0.85531c-0.32401,0.71217 -0.41112,1.50072 -0.69995,2.21994c0,0 -0.03675,0.09131 -0.12612,0.05377c-0.08937,-0.03754 -0.05263,-0.12885 -0.05263,-0.12885c0.29087,-0.72112 0.38012,-1.51189 0.70331,-2.22781c0.2266,-0.49749 0.58544,-0.86476 1.13914,-0.96386c0.02332,-0.01433 0.04766,-0.01616 0.04766,-0.01616c0.69014,-0.05196 1.68343,-0.13663 2.28117,0.2668c0.76588,0.44223 1.07685,1.40381 1.39399,2.18228c0.14222,0.27086 0.17641,0.5482 0.19821,0.85038l0.00735,0.10185c0,0 0.0071,0.09846 -0.08927,0.10571z" fill="#000000" stroke="none" stroke-width="0.5"/><path d="M120.71812,252.02622c0,1.66595 0.17654,2.97411 -0.02032,3.72108c-0.10257,0.3892 -0.40483,0.67521 -0.67649,0.67521c-0.79305,0 -0.537,-1.47851 -0.537,-4.01249c0,-0.06529 0.00053,-0.82128 0.00159,-0.88627c0.03977,-2.45767 -0.16173,-4.61606 0.61089,-4.61606c0.12571,0 0.27779,-0.07 0.35954,0.04939c0.43399,0.63378 0.2618,2.93684 0.2618,5.06915z" fill="#fff649" stroke="none" stroke-width="0"/><path d="M119.52666,253.79553c0.00482,0.00275 0.00947,0.00568 0.01397,0.00877c-0.04111,0.11877 -0.0033,0.31157 -0.01185,0.44904c-0.0006,0.0067 -0.00115,0.01348 -0.00166,0.02033c-0.02425,0.23659 -0.11706,0.60746 -0.04388,0.89234c0.01922,0.07481 0.06585,0.10172 0.11791,0.09903c0.00745,0.18391 0.01276,0.37677 0.0003,0.53865c-0.00342,0.04441 -0.02532,0.08433 -0.08433,0.08433c-0.11258,0 -0.12197,-0.43824 -0.09785,-1.06617c0.00524,-0.13639 -0.0172,-0.95513 0.03472,-0.9848z" fill="#000000" stroke="none" stroke-width="0.5"/><path d="M119.41726,254.21523c0.00862,-0.09873 0.01896,-0.37046 0.01455,-0.47303c-0.00292,-0.06798 0.01073,-0.06992 0.02014,-0.08297c0.04133,-0.05728 0.1581,-0.02593 0.15813,0.05662c0.00017,0.54742 -0.05138,1.09756 0.00308,1.64226c0.00035,0.00313 0.00053,0.0063 0.00053,0.00952c0,0.00861 -0.00129,0.01692 -0.00369,0.02475c-0.0869,0.57664 -0.15212,0.47785 -0.18013,0.15938c-0.01835,-0.20865 -0.01248,-0.51158 -0.01507,-0.78064c-0.00248,-0.25795 -0.00564,-0.46311 0.00246,-0.55589z" fill="#000000" stroke="none" stroke-width="0.5"/><path d="M120.71192,255.05978c-0.08433,0 -0.08433,-0.08434 -0.08433,-0.08434v-0.01205c0,-0.3169 -0.0241,-0.63337 -0.0241,-0.95183c0,-0.60644 0,-1.21287 0,-1.81931c0,0 0,-0.00799 0.00246,-0.01905v-0.06436c0,-0.77456 -0.00073,-1.54912 0.0001,-2.32367c-0.08723,-0.86113 0.02986,-1.84739 -0.13516,-2.70882c-0.68331,-0.59625 -0.8552,0.44523 -0.88253,0.97464c0.02642,0.02784 0.02181,0.0693 0.02181,0.0693c-0.08844,0.79265 -0.02479,1.62254 -0.02479,2.41977c0,0.8686 0.02528,1.74031 0.0253,2.60621c0,0.18993 0,0.37986 0,0.56979c-0.14087,0.07498 -0.07055,0.35487 -0.08191,0.53729c-0.0006,0.0067 -0.00115,0.01348 -0.00166,0.02033c-0.02425,0.23659 -0.11706,0.60746 -0.04388,0.89234c0.00983,0.03828 0.02684,0.06402 0.04808,0.07966c0.01124,0.08906 0.02521,0.16868 0.04106,0.23389c0.00053,0.03911 0.00228,0.07735 0.00549,0.1144c-0.01213,0.00897 -0.02876,0.01512 -0.05152,0.01512c-0.08433,0 -0.08433,-0.08434 -0.08433,-0.08434c0,-0.5418 0,-1.13516 0,-1.70648c0,-0.22913 0,-0.45471 0,-0.67199c0.00003,-0.86588 -0.0253,-1.73762 -0.0253,-2.60621c0,-0.7672 -0.05705,-1.56313 0.01466,-2.329c-0.01466,-0.02321 -0.01466,-0.04948 -0.01466,-0.04948c0,-0.69118 0.41238,-1.85625 1.27368,-1.12456c0.03692,0.91005 -0.00554,1.83242 0.08413,2.73975c0.00077,0.77736 0.0001,1.55472 0.0001,2.33208v0.07591c0,0 0,0.00799 -0.00246,0.01905c0,0.60259 0,1.20517 0,1.80776c0,0.31849 0.0241,0.63484 0.0241,0.95183v0.01205c0,0 0,0.08433 -0.08434,0.08433z" fill="#000000" stroke="none" stroke-width="0.5"/><path d="M119.60495,257.19299c0,-0.04658 0.03776,-0.08434 0.08434,-0.08434c0.04658,0 0.08433,0.03776 0.08433,0.08434c0,0.04658 -0.03776,0.08433 -0.08433,0.08433c-0.04658,0 -0.08434,-0.03776 -0.08434,-0.08433z" fill="#9e9215" stroke="none" stroke-width="0.5"/><path d="M110.2275,242.31107c-0.08233,0.01829 -0.10062,-0.06403 -0.10062,-0.06403l-0.01459,-0.06707c-0.02995,-0.2976 -0.35665,-0.44245 -0.49566,-0.68174c-0.20523,-0.35329 -0.0447,-0.79742 -0.04422,-1.18866c0.10969,-0.93353 0.99366,-0.86521 1.69148,-0.75623c0.55518,0.16943 1.21077,0.53203 1.80066,0.34782c0,0 0.01728,-0.00532 0.03831,-0.00303l0.01926,-0.01029c0.18554,-0.05681 0.36188,-0.14945 0.52494,-0.25375c0.7405,-0.30923 1.45678,-0.72405 2.30276,-0.44256c0.27092,0.0685 0.59673,0.31556 0.97899,0.44593c0.32968,0.11243 0.73839,0.11338 0.75245,0.12988c0.14982,-0.00264 0.26529,-0.05913 0.40009,-0.1263c0.80722,-0.28894 1.37743,-0.56566 2.23324,-0.28106c0.65518,0.27251 1.12101,0.31961 1.7966,0.11156c0,0 0.03397,-0.01045 0.06459,0.00427c0.61383,-0.11679 0.9517,-0.29598 1.59338,-0.29461c0.36223,0.05122 0.91048,0.20234 1.29057,0.27746c0.19098,0.03775 0.39974,0.03372 0.39974,0.03372c0.27341,-0.00384 0.91759,-0.3036 1.17581,-0.31047c0.34994,-0.00931 0.41723,0.05893 0.72992,0.13097c0.33784,0.10794 0.64934,0.21165 0.99003,0.21261c0.01193,-0.0118 0.02374,-0.01771 0.02374,-0.01771c0.56565,-0.28247 1.24766,-0.55404 1.82819,-0.16834c0.5903,0.38001 0.80637,1.29096 0.50213,1.89943c-0.12598,0.25179 -0.51411,0.80867 -0.4948,1.1176c0.02467,0.01209 0.03844,0.03447 0.03844,0.03447c0.11931,0.19769 0.17216,0.43334 0.18116,0.67971c0.00629,0.01536 0.00964,0.03505 0.0013,0.05617c0.00417,0.41542 -0.11002,0.85515 -0.23603,1.19093c-0.0949,0.21836 -0.17289,0.44616 -0.24517,0.67484c0.0055,0.00363 -0.0683,0.2205 -0.07294,0.23573c-0.11421,0.50945 -0.35573,0.99743 -0.42878,1.51201c-0.04553,0.32073 0.0017,0.68473 0.00018,1.00816c0.15719,0.61832 -0.16743,0.24375 -0.06773,1.11165c0.00518,0.04507 -0.2106,0.57587 -0.18203,0.61775c0,0 0.05193,0.48363 -0.01825,0.53041c-0.07017,0.04678 -0.06141,0.063 -0.06141,0.063c-0.10593,-0.16188 0.08975,-1.10641 0.09992,-1.17053c0.03036,-0.19128 0.19849,-0.28729 0.18908,-0.40114c-0.02116,-0.25602 -0.05227,-0.42702 -0.12699,-0.73054c-0.00363,-0.88854 0.14558,-1.6173 0.39351,-2.44326l0.00227,-0.01918c0.10919,-0.3524 0.21448,-0.71309 0.36197,-1.05216c0.11569,-0.30874 0.23309,-0.73951 0.22817,-1.13733l-0.01436,-0.02527c-0.01802,-0.24363 -0.17682,-0.44749 -0.20565,-0.67932c-0.04581,-0.3684 0.34923,-0.93283 0.50727,-1.24913c0.26438,-0.52876 0.07919,-1.3548 -0.44333,-1.68267c-0.51191,-0.34255 -1.12669,-0.08742 -1.62824,0.16169c-0.01849,0.0365 -0.06296,0.04392 -0.06296,0.04392l-0.05381,0.00781c-0.35411,0 -0.81844,-0.20339 -1.1696,-0.22847c-0.28071,-0.06488 -0.66932,-0.08459 -1.01583,0.0009c-0.19743,0.04871 -0.55934,0.21647 -0.55934,0.21647c-0.5365,0.12205 -1.26753,-0.2469 -1.8681,-0.33364c-0.65169,0.00158 -0.99148,0.18413 -1.62108,0.30552c0,0 -0.02013,0.00383 -0.04244,-0.0022c-0.67467,0.19486 -1.17278,0.14298 -1.83825,-0.13483c-0.80965,-0.27049 -1.34411,0.00608 -2.1079,0.27823c-0.15959,0.08009 -0.29894,0.13946 -0.4792,0.13993l-0.05854,-0.00751c0,0 -0.01518,-0.00217 -0.03167,-0.01113c-0.56634,0.07806 -1.14046,-0.4319 -1.67549,-0.56399c-0.79622,-0.26588 -1.48084,0.14046 -2.17726,0.42998c-0.17119,0.11065 -0.62041,0.30607 -0.6569,0.29182c-0.61631,0.16157 -1.2643,-0.17806 -1.84233,-0.35755c-0.58373,-0.0882 -1.39111,-0.19831 -1.48537,0.6017c0.00048,0.35895 -0.16351,0.77019 0.0223,1.09513c0.15768,0.27575 0.46318,0.39989 0.51639,0.74311l0.01205,0.05278c0,0 0.0183,0.08233 -0.06403,0.10062z" fill="#9e9215" stroke="none" stroke-width="0.5"/><path d="M112.17654,255.12698c-0.08233,0.01829 -0.10062,-0.06403 -0.10062,-0.06403l-0.01405,-0.0683c-0.16855,-0.42157 -0.63861,-0.51746 -0.82207,-0.95728c-0.29003,-0.72579 0.3871,-1.15336 0.21747,-1.83011c0,0 -0.00231,-0.00752 -0.00147,-0.06385c0.00024,-0.01584 -0.01288,-0.04234 -0.00904,-0.06533c-0.06534,-0.46917 -0.60536,-2.55123 -0.80043,-2.94708c-0.00911,-0.03856 -0.04233,-0.36632 -0.05361,-0.42688c-0.01809,-0.09705 -0.08049,0.08507 -0.03809,0.02651c0.10101,-0.1395 0.56828,1.33445 0.71937,1.30932c0.45322,-0.07538 0.87847,-0.13102 1.31734,-0.26139c-0.05193,-0.34133 -0.49177,-0.54229 -0.75231,-0.74516c-0.00932,-0.0047 -0.01661,-0.01091 -0.02232,-0.01776c-0.00346,-0.00281 -0.00687,-0.00562 -0.01025,-0.00844c0,0 -0.06479,-0.05399 -0.0108,-0.11878c0.00014,-0.00018 0.00029,-0.00035 0.00044,-0.00052c0.00051,-0.48746 0.0234,-0.95517 0.10654,-1.435c-0.00937,-0.02416 -0.00569,-0.04804 -0.00569,-0.04804l0.01258,-0.08016c-0.0008,-0.26045 0.11518,-0.58275 -0.18835,-0.65056c-0.90843,-0.21446 -1.22065,-0.58051 -1.55304,-1.38406c-0.01289,-0.01479 -0.01837,-0.03013 -0.01837,-0.03013c-0.23159,-0.65357 -0.03747,-1.29216 0.15798,-1.92861c0.11786,-0.46943 -0.02378,-0.77405 -0.19729,-1.1896c-0.0134,-0.01729 -0.04175,-0.06487 0.00583,-0.11245c0.05963,-0.05964 0.11927,0 0.11927,0l0.02487,0.03385c0.19054,0.4573 0.337,0.80275 0.2098,1.31347c-0.17685,0.57361 -0.36691,1.16162 -0.18672,1.75116c0.00272,0.0049 0.00402,0.00813 0.00402,0.00813c0.32788,0.82002 0.58199,1.16523 1.47251,1.37411c0.42225,0.10544 0.31862,0.47085 0.31768,0.82756l-0.00144,0.0095c0.01222,0.02668 0.0069,0.0551 0.0069,0.0551c-0.09466,0.50402 -0.1184,0.9916 -0.1184,1.50253v0.01333c0.30066,0.23309 0.73012,0.43807 0.79271,0.83133c0.03689,0.04182 0.01769,0.08276 0.00427,0.10217c-0.0048,0.02381 -0.02112,0.06465 -0.07656,0.0673l-0.01451,0.01202c-0.40493,0.12317 -0.78518,0.18332 -1.20307,0.2493c-0.11482,0.01813 -0.68971,-1.46304 -0.76869,-1.36214c-0.03213,0.04105 0.0232,0.22632 0.03385,0.274c0.23003,0.45164 0.86893,2.58742 0.87027,3.09523c0,0 0.01108,0.03945 0.00609,0.10466c0.05922,0.60763 -0.47235,1.03443 -0.21316,1.68173c0.18074,0.43429 0.64818,0.52273 0.82252,0.9584l0.0221,0.09435c0,0 0.0183,0.08233 -0.06403,0.10062z" fill="#9e9215" stroke="none" stroke-width="0.5"/><path d="M117.14473,241.28245c-0.08433,0 -0.08433,-0.08433 -0.08433,-0.08433v-0.08435c0,-0.12799 -0.02701,-0.23804 -0.02811,-0.36549c0.00361,-0.5835 -0.95609,-0.48372 -1.195,-0.12191c0,0 -0.04678,0.07017 -0.11695,0.02339c-0.07017,-0.04678 -0.02339,-0.11695 -0.02339,-0.11695c0.32957,-0.49037 1.50007,-0.55035 1.50402,0.21547c-0.00137,0.1245 0.02811,0.23838 0.02811,0.36549v0.08435c0,0 0,0.08433 -0.08433,0.08433z" fill="#000000" stroke="none" stroke-width="0.5"/><path d="M123.34705,241.41227c-0.08433,0 -0.08434,-0.08433 -0.08434,-0.08433l0.00115,-0.01425c-0.03302,-0.20197 -0.00182,-0.40117 -0.00006,-0.60369c0.21111,-0.6465 1.28572,-0.54984 1.65315,-0.0954c0,0 0.05268,0.06585 -0.01317,0.11854c-0.06586,0.05268 -0.11854,-0.01317 -0.11854,-0.01317c-0.26598,-0.33687 -1.18474,-0.47688 -1.35495,0.01705c0.00189,0.18374 -0.0313,0.36563 -0.00006,0.54895l0.00115,0.04198c0,0 0,0.08433 -0.08433,0.08433z" fill="#000000" stroke="none" stroke-width="0.5"/><path d="M120.01025,247.32635c0,2.8094 -2.13846,5.08687 -4.7764,5.08687c-2.63793,0 -4.7764,-2.27747 -4.7764,-5.08687c0,-2.8094 2.13847,-5.08686 4.7764,-5.08686c2.63793,0 4.7764,2.27747 4.7764,5.08687z" fill="#fbfdfa" stroke="#000000" stroke-width="0"/><path d="M114.11811,253.06229c-0.01282,-0.00061 -0.02175,-0.00329 -0.02175,-0.00329c-0.3174,-0.09918 -0.77123,0.37305 -0.49107,0.64931c0.11958,0.11791 0.33511,0.23764 0.47585,0.11271c0.23182,-0.13631 0.17149,-0.53434 0.0526,-0.74103zM114.15438,252.90122c0.04333,-0.00563 0.07443,0.0317 0.07443,0.0317l0.05236,0.06515c0.15612,0.28838 0.20931,0.77033 -0.10375,0.96143c-0.21757,0.16218 -0.53419,0.0551 -0.70546,-0.14787c-0.36651,-0.43437 0.20907,-1.04894 0.67286,-0.91418c0,0 0.00382,0.00114 0.00955,0.00377z" fill="#fffc51" stroke="none" stroke-width="0.5"/><path d="M114.13844,253.07299c0.11889,0.2067 0.17864,0.61907 -0.05318,0.75539c-0.14073,0.12493 -0.36664,0.00352 -0.48621,-0.11439c-0.28015,-0.27626 0.18394,-0.76157 0.50134,-0.66239c0,0 0.00926,0.00287 0.02208,0.00347z" data-paper-data="{&quot;noHover&quot;:false,&quot;origItem&quot;:[&quot;Path&quot;,{&quot;applyMatrix&quot;:true,&quot;segments&quot;:[[[576.38862,314.41816],[0,0],[-0.152,-0.00718]],[[576.13068,314.37918],[0,0],[-3.76354,-1.17598]],[[570.3078,322.07832],[-3.32192,-3.2757],[1.41786,1.39814]],[[575.95014,323.41476],[-1.66872,1.48136],[2.74878,-1.61636]],[[576.57382,314.62794],[1.40976,2.45092],[0,0]]],&quot;closed&quot;:true,&quot;fillColor&quot;:[0,0,0,1]}]}" fill="#a8be04" stroke="none" stroke-width="0.5"/><path d="M111.97224,240.79374c-0.00034,0.0001 -0.00052,0.00014 -0.00052,0.00014c-0.42144,0.09289 -0.70478,1.02663 -0.36662,1.3316c0.08918,0.08042 0.31486,0.0657 0.42796,0.06993c0.43679,-0.27285 0.48418,-1.26536 -0.06053,-1.40153zM111.87909,240.64742c0.03863,-0.06729 0.1099,-0.03165 0.1099,-0.03165l0.02446,0.01448c0.72722,0.18181 0.64144,1.38887 0.06464,1.72772c-0.16518,0.00399 -0.43538,0.01803 -0.5734,-0.09696c-0.46177,-0.38472 -0.13101,-1.41525 0.37439,-1.61358z" fill="#fffc51" stroke="none" stroke-width="0.5"/><path d="M111.97326,240.78548c0.54471,0.13618 0.49803,1.14541 0.06124,1.41825c-0.1131,-0.00423 -0.34391,0.00976 -0.43309,-0.07067c-0.33816,-0.30497 -0.05042,-1.25469 0.37102,-1.34758c0,0 0.00019,-0.00004 0.00052,-0.00014z" data-paper-data="{&quot;noHover&quot;:false,&quot;origItem&quot;:[&quot;Path&quot;,{&quot;applyMatrix&quot;:true,&quot;segments&quot;:[[[550.94398,168.94384],[0,0],[-0.004,0.00112]],[[550.93786,168.94548],[0,0],[-4.99722,1.10148]],[[546.59068,184.73494],[-4.0097,-3.61618],[1.0574,0.95362]],[[551.66524,185.56418],[-1.34108,-0.05018],[5.17926,-3.23526]],[[550.94754,168.94548],[6.4589,1.61474],[0,0]]],&quot;closed&quot;:true,&quot;fillColor&quot;:[0,0,0,1]}]}" fill="#a8be04" stroke="none" stroke-width="0.5"/><path d="M128.16169,240.44351c-0.00748,0.00119 -0.01241,0.00119 -0.01241,0.00119c-0.75187,-0.00506 -0.00303,1.1848 0.42708,0.57166c0.10764,-0.33092 -0.12986,-0.36702 -0.33205,-0.51629l-0.04412,-0.01997c0,0 -0.0244,-0.0122 -0.03851,-0.0366zM128.22533,240.32018c0.0271,-0.00253 0.0503,0.00907 0.0503,0.00907l0.07406,0.03912c0.24851,0.22962 0.53098,0.26957 0.37699,0.72453c-0.65999,0.91373 -1.65888,-0.81078 -0.57739,-0.81687c0,0 0.05478,0 0.07604,0.04415z" fill="#fffc51" stroke="none" stroke-width="0.5"/><path d="M128.11144,240.44764c0.01528,0.02643 0.0426,0.03957 0.0426,0.03957l0.04903,0.02166c0.21904,0.16171 0.48352,0.21432 0.36691,0.57282c-0.46596,0.66423 -1.2868,-0.63818 -0.47228,-0.63271c0,0 0.00563,-0.00005 0.01374,-0.00134z" data-paper-data="{&quot;noHover&quot;:false,&quot;origItem&quot;:[&quot;Path&quot;,{&quot;applyMatrix&quot;:true,&quot;segments&quot;:[[[742.91028,164.79096],[0,0],[-0.08866,0.01412]],[[742.76318,164.80508],[0,0],[-8.91526,-0.05994]],[[747.82732,171.58358],[-5.10008,7.27028],[1.27638,-3.92392]],[[743.89002,165.46172],[2.39748,1.76998],[0,0]],[743.36688,165.22496],[[742.91026,164.79094],[0.16726,0.28934],[0,0]]],&quot;closed&quot;:true,&quot;fillColor&quot;:[0,0,0,1]}]}" fill="#a8be04" stroke="none" stroke-width="0.5"/><path d="M126.34859,253.38034c0.14317,-0.44045 0.70154,-0.70376 1.04093,-0.23419c0.1423,0.19688 0.14987,0.58813 0.14987,0.82325c-0.00475,0.22898 -0.21712,0.59377 -0.49081,0.46398c-0.25384,-0.12038 -0.56977,-0.65061 -0.69592,-0.90253l-0.02451,-0.03559c0,0 -0.04544,-0.06817 0.02044,-0.11492zM126.50247,253.4538l0.00105,0.00162c0.10221,0.20475 0.41071,0.74009 0.61383,0.82395c0.13826,0.05709 0.25737,-0.18588 0.25337,-0.30997c0,-0.19729 0.0023,-0.56078 -0.11803,-0.72463c-0.26823,-0.36523 -0.6595,-0.1187 -0.75021,0.20903z" fill="#fffc51" stroke="none" stroke-width="0.5"/><path d="M127.25768,253.23797c0.12033,0.16385 0.12003,0.53887 0.12003,0.73616c0.004,0.12408 -0.11968,0.3704 -0.25794,0.31332c-0.20311,-0.08386 -0.52156,-0.63111 -0.62376,-0.83585l-0.00104,-0.00163c0.09071,-0.32772 0.49448,-0.57722 0.76271,-0.21199z" data-paper-data="{&quot;noHover&quot;:false,&quot;origItem&quot;:[&quot;Path&quot;,{&quot;applyMatrix&quot;:true,&quot;segments&quot;:[[[723.23608,319.06042],[1.07562,-3.88598],[0,0]],[[723.24856,319.07956],[0,0],[1.21194,2.42778]],[[730.527,328.84956],[-2.40842,-0.9944],[1.6394,0.67688]],[[733.53132,325.17416],[0.04746,1.4713],[0,-2.33936]],[[732.13174,316.58186],[1.42686,1.94284],[-3.18056,-4.33076]]],&quot;closed&quot;:true,&quot;fillColor&quot;:[0,0,0,1]}]}" fill="#a8be04" stroke="none" stroke-width="0.5"/><path d="M125.78058,254.36621c-0.0247,0.02984 -0.06689,0.02985 -0.06689,0.02985c-0.2926,-0.00102 -0.61661,0.43724 -0.47277,0.73175c0.11458,0.23459 0.3558,0.33626 0.59708,0.36484c0.29462,0.04414 0.33037,-1.05822 0.01283,-1.12717zM125.70632,254.22747c0.0247,-0.02985 0.06689,-0.02985 0.06689,-0.02985l0.101,0.00081c0.48504,0.15406 0.53221,1.42956 -0.04671,1.46256c-0.30137,-0.03916 -0.60706,-0.16936 -0.74243,-0.46864c-0.18367,-0.40607 0.21136,-0.95714 0.62124,-0.96489z" fill="#9966ff" stroke="none" stroke-width="0.5"/><path d="M129.53959,247.15163c0,2.8094 -2.13847,5.08687 -4.7764,5.08687c-2.63793,0 -4.7764,-2.27747 -4.7764,-5.08687c0,-2.8094 2.13847,-5.08687 4.7764,-5.08687c2.63793,0 4.7764,2.27747 4.7764,5.08687z" fill="#fbfdfa" stroke="#000000" stroke-width="0"/><path d="M119.23073,247.12785c0,2.26217 -1.81261,4.09602 -4.04858,4.09602c-2.23597,0 -4.04858,-1.83385 -4.04858,-4.09602c0,-2.26217 1.81261,-4.09602 4.04858,-4.09602c2.23597,0 4.04858,1.83385 4.04858,4.09602z" fill="#3da9e8" stroke="#000000" stroke-width="0"/><path d="M128.59589,247.02761c0,2.21621 -1.75597,4.0128 -3.92206,4.0128c-2.16609,0 -3.92206,-1.79659 -3.92206,-4.0128c0,-2.21621 1.75597,-4.0128 3.92206,-4.0128c2.16609,0 3.92206,1.79659 3.92206,4.0128z" fill="#3da9e8" stroke="#000000" stroke-width="0"/><path d="M117.87698,247.02347c0,1.46735 -1.1612,2.65688 -2.59362,2.65688c-1.43242,0 -2.59362,-1.18952 -2.59362,-2.65688c0,-1.46735 1.1612,-2.65688 2.59362,-2.65688c1.43242,0 2.59362,1.18953 2.59362,2.65688z" fill="#000000" stroke="#000000" stroke-width="0"/><path d="M127.50504,246.84001c0,1.55469 -1.19661,2.81503 -2.67269,2.81503c-1.47609,0 -2.67269,-1.26033 -2.67269,-2.81503c0,-1.55469 1.19661,-2.81503 2.67269,-2.81503c1.47609,0 2.67269,1.26033 2.67269,2.81503z" fill="#000000" stroke="#000000" stroke-width="0"/><path d="M126.24593,252.17228c-0.00016,0.00008 -0.00032,0.00016 -0.00049,0.00024l-0.00024,0.03605c0.13638,0.52681 0.48371,0.96329 0.78462,1.4105c0.41675,0.59609 0.4932,1.74109 0.05367,2.34398c-0.5709,0.71159 -1.56995,0.50399 -2.32346,0.1237c-0.48694,-0.38771 -0.61587,-0.8479 -0.41026,-1.45313c0.0955,-0.28111 0.31421,-0.50815 0.38135,-0.80646c0.37409,-0.38917 0.83659,-0.92228 0.90049,-1.4631c-0.00663,-0.01058 -0.00948,-0.01913 -0.00948,-0.01913c-0.14586,-0.45197 0.2183,-0.50843 0.58112,-0.39134l0.08039,0.10555c0,0 0.03772,0.07543 -0.03772,0.11315zM125.80774,252.23974c0,0.60154 -0.49115,1.25024 -0.92789,1.66701c-0.04888,0.29074 -0.28184,0.50911 -0.36967,0.77903c-0.17439,0.53594 -0.08917,0.91294 0.34076,1.25889c0.67589,0.33382 1.58918,0.55434 2.09922,-0.08492c0.40394,-0.51757 0.31483,-1.63466 -0.05896,-2.14459c-0.31617,-0.47035 -0.67786,-0.92827 -0.81341,-1.48598l-0.00063,-0.11461c0,0 0,-0.01033 0.00362,-0.02376c-0.18536,-0.05733 -0.32429,-0.06556 -0.32553,0.06948c0.05248,0.01798 0.05248,0.07945 0.05248,0.07945z" fill="#6af2e7" stroke="none" stroke-width="0.5"/><path d="M125.83288,252.25187c0,0 -0.00034,-0.07975 -0.05376,-0.09805c0.00126,-0.13748 0.14405,-0.12904 0.33276,-0.07068c-0.00368,0.01367 -0.00368,0.02419 -0.00368,0.02419l0.00071,0.11669c0.13799,0.56778 0.51301,1.03919 0.83489,1.51803c0.38054,0.51914 0.46808,1.66685 0.05684,2.19376c-0.51925,0.65081 -1.45788,0.42669 -2.14598,0.08685c-0.4377,-0.3522 -0.52833,-0.74035 -0.35079,-1.28597c0.08942,-0.2748 0.32626,-0.50254 0.37602,-0.79853c0.44463,-0.42429 0.95288,-1.09105 0.95288,-1.70346z" data-paper-data="{&quot;noHover&quot;:false,&quot;origItem&quot;:[&quot;Path&quot;,{&quot;applyMatrix&quot;:true,&quot;segments&quot;:[[[357.49913,152.33234],[0,0],[0,3.56641]],[[351.99789,162.2156],[2.58932,-2.4709],[-0.2898,1.72374]],[[349.80623,166.83427],[0.52072,-1.60029],[-1.03391,3.17747]],[[351.82653,174.29792],[-2.54897,-2.05105],[4.00718,1.97911]],[[364.27226,173.79446],[-3.02391,3.79001],[2.39488,-3.06853]],[[363.92273,161.07974],[2.21608,3.02327],[-1.8745,-2.78859]],[[359.10024,152.26975],[0.80362,3.30652],[0,0]],[359.09649,151.59024],[[359.11793,151.44935],[-0.02144,0.07963],[-1.09895,-0.3399]],[[357.18798,151.8613],[0.00735,-0.80065],[0.31114,0.1066]],[357.49913,152.33235]],&quot;closed&quot;:true,&quot;fillColor&quot;:[0,0,0,1]}]}" fill="#b5f2ed" stroke="none" stroke-width="0.5"/><path d="M123.58091,251.44675c0.55528,0.01086 1.23877,-0.16926 1.76949,-0.26598c0.71094,-0.10163 1.45017,-0.15408 2.16725,-0.14548c0.34657,0.13179 0.33065,0.5086 0.11802,0.75175c-0.3578,0.40914 -0.83956,0.62882 -1.36842,0.71021c-0.90482,0.16425 -1.73858,0.0969 -2.53532,-0.34914c-0.21189,-0.14899 -0.41457,-0.32453 -0.36324,-0.58809c-0.00458,-0.01119 -0.00692,-0.02493 -0.00562,-0.04179c0.00647,-0.08409 0.09055,-0.07762 0.09055,-0.07762c0.0123,0.00097 0.02469,0.00184 0.03715,0.00259l0.00034,-0.00021c0,0 0.04964,-0.02708 0.0898,0.00376zM123.51848,251.61318l-0.00516,0.00214c-0.02332,0.15887 0.19604,0.31179 0.30843,0.39001c0.75611,0.42723 1.55771,0.48216 2.41759,0.32556c0.42895,-0.06597 0.87689,-0.22573 1.17835,-0.55633c0.11331,-0.12426 0.38687,-0.47075 0.0707,-0.57317c-0.70277,0.01162 -1.41333,0.04626 -2.11096,0.14586c-0.56164,0.10188 -1.28083,0.2886 -1.85895,0.26593z" fill="#6af2e7" stroke="none" stroke-width="0.5"/><path d="M125.37411,251.3395c0.69763,-0.0996 1.41955,-0.12903 2.12232,-0.14065c0.31618,0.10242 0.043,0.4513 -0.07031,0.57556c-0.30147,0.33061 -0.75121,0.49573 -1.18016,0.5617c-0.85988,0.1566 -1.67648,0.0974 -2.43259,-0.32983c-0.11238,-0.07822 -0.33176,-0.23288 -0.30845,-0.39174l0.00516,-0.00215c0.57811,0.02267 1.30239,-0.17101 1.86403,-0.27289z" data-paper-data="{&quot;noHover&quot;:false,&quot;origItem&quot;:[&quot;Path&quot;,{&quot;applyMatrix&quot;:true,&quot;segments&quot;:[[[343.92669,148.61766],[3.42749,0.13441],[0,0]],[[343.89611,148.63033],[0,0],[-0.13824,0.94189]],[[345.7247,150.94262],[-0.66629,-0.46375],[4.48278,2.53292]],[[360.05797,152.87278],[-5.09799,0.92845],[2.54315,-0.39112]],[[367.04413,149.57442],[-1.78731,1.96008],[0.67178,-0.73672]],[[367.46328,146.17626],[1.87453,0.6072],[-4.16656,0.06888]],[[354.94792,147.04105],[4.13609,-0.5905],[-3.32984,0.60403]]],&quot;closed&quot;:true,&quot;fillColor&quot;:[0,0,0,1]}]}" fill="#b5f2ed" stroke="none" stroke-width="0.5"/><path d="M125.22408,255.90993c-0.00673,-0.00379 -0.01083,-0.00806 -0.01083,-0.00806l-0.04411,-0.04844c-0.01288,-0.06094 -0.18129,-0.51435 0.05513,-0.45555c0.08574,0.02133 0.25163,0.31603 0.35368,0.37904c0.39457,0.24711 0.73693,-0.13346 0.93299,-0.44289c0.20069,-0.19528 0.5153,-0.19591 0.41005,0.15762c-0.07264,0.24399 -0.2939,0.32821 -0.46629,0.49338c-0.41504,0.25944 -0.86764,0.30518 -1.22297,-0.06397c0,0 -0.0041,-0.00426 -0.00764,-0.01113z" fill="#ffffff" stroke="none" stroke-width="0.5"/><path d="M128.8772,251.04242c-0.02367,-0.22064 0.19691,-1.28045 0.19691,-1.4771c0,0 0,-0.08433 0.08433,-0.08433c0.03298,0 0.02716,0.02757 0.03038,0.05362c0.00502,0.04056 0.00561,0.08625 0.00561,0.08625c0.02449,0.38157 -0.09191,1.46759 -0.1624,1.76671c-0.01784,0.07572 -0.04098,0.31871 -0.00471,0.53587c0.04974,0.29777 0.17189,0.58629 0.21376,0.68725c0.09004,0.21711 0.11381,0.26695 0.1579,0.47697c0.01661,0.07912 0.0851,0.22378 0.09498,0.4131c0.00734,0.14075 -0.04002,0.34442 -0.04673,0.36111c-0.20849,0.51918 -0.40655,0.93607 -0.48359,1.51277c-0.05032,0.26763 -0.13672,0.65094 -0.00328,0.90166c0.04595,0.08633 0.10762,0.14628 0.16661,0.21073c0.10783,0.11782 0.20666,0.23164 0.18399,0.41449c-0.00346,0.0279 -0.00975,0.05759 -0.01926,0.08939c0,0 0.02399,0.08874 -0.05662,0.06393c-0.08061,-0.0248 -0.0802,-0.10541 -0.0802,-0.10541c0.08193,-0.25722 -0.17953,-0.37828 -0.2926,-0.58207c-0.15598,-0.28111 -0.12198,-0.71571 -0.06519,-1.01943c0.08395,-0.6308 0.29546,-1.13142 0.52681,-1.70999l0.00187,-0.06619c0,-0.13586 -0.06126,-0.32854 -0.14192,-0.54691c-0.11778,-0.31884 -0.27694,-0.69242 -0.34719,-1.02378c-0.09801,-0.46231 0.05423,-0.83074 0.04051,-0.95865z" fill="#9e9215" stroke="none" stroke-width="0.5"/><path d="M114.3938,255.37287c0.00008,-0.00162 0.00026,-0.00428 0.00071,-0.00765c0.00759,-0.16521 0.06624,-0.5461 -0.09041,-0.63676c-0.34306,-0.19856 -0.81283,0.22165 -0.95332,0.49001c-0.13871,0.2928 -0.26472,0.66599 -0.18737,0.9965c0.10006,0.42758 0.63524,0.32823 0.82633,0.07333c0.20257,-0.28294 0.28841,-0.58965 0.40407,-0.91542zM114.54761,255.44376c-0.11913,0.33652 -0.2124,0.65029 -0.42178,0.94416c-0.27648,0.36847 -0.98623,0.43128 -1.12644,-0.13359c-0.09104,-0.36676 0.04627,-0.78562 0.2006,-1.11145c0.1773,-0.33181 0.93146,-0.94898 1.27665,-0.4688c0.1409,0.19599 0.08577,0.49408 0.08577,0.71997c0,0 0,0.02643 -0.0148,0.0497z" fill="#fffc51" stroke="none" stroke-width="0.5"/><path d="M114.40126,255.39128c-0.11916,0.33565 -0.21324,0.66287 -0.42195,0.95439c-0.09109,0.1215 -0.2599,0.20825 -0.42524,0.22277c-0.19204,0.01686 -0.37938,-0.06371 -0.43478,-0.30043c-0.07969,-0.34053 0.0497,-0.73697 0.19262,-1.03864c0.14475,-0.2765 0.63981,-0.71111 0.99327,-0.50654c0.1614,0.09341 0.1046,0.49026 0.09678,0.66048c-0.00046,0.00348 -0.00062,0.0063 -0.0007,0.00797z" data-paper-data="{&quot;noHover&quot;:false,&quot;origItem&quot;:[&quot;Path&quot;,{&quot;applyMatrix&quot;:true,&quot;segments&quot;:[[[579.65756,341.81574],[0,0],[0.0009,-0.01922]],[[579.66594,341.72498],[-0.00528,0.04008],[0.09002,-1.95902]],[[578.59386,334.17458],[1.85746,1.07506],[-4.06786,-2.3544]],[[567.2899,339.98488],[1.66584,-3.1821],[-1.6448,3.47186]],[[565.06814,351.8009],[-0.9171,-3.91902],[1.18646,5.07]],[[574.86632,352.6704],[-2.2658,3.02254],[2.40198,-3.3549]],[[579.65756,341.81576],[-1.37138,3.8629],[0,0]]],&quot;closed&quot;:true,&quot;fillColor&quot;:[0,0,0,1]}]}" fill="#a8be04" stroke="none" stroke-width="0.5"/><path d="M111.21162,243.51813l0.89124,-1.15804l4.39692,-0.58453c0,0 -0.532,0.50097 -0.68364,0.61067c-0.20653,0.1494 -0.58713,0.51122 -0.58713,0.51122c0,0 -1.44611,0.62603 -1.97556,0.72442c-0.43595,0.08101 -1.77072,-0.03144 -1.77072,-0.03144z" fill="#fffd4d" stroke="#fffd4d" stroke-width="0.5"/><path d="M111.14332,243.66892c0.02667,-0.08001 0.10667,-0.05334 0.10667,-0.05334l0.00948,0.00772c0.56621,0 1.1339,0.11589 1.70077,0.0462c0.80101,-0.16045 1.63637,-0.36664 2.30161,-0.86396c0.48004,-0.267 1.07235,-0.87236 1.1925,-1.42949c0,0 0.0183,-0.08233 0.10062,-0.06403c0.08233,0.01829 0.06403,0.10062 0.06403,0.10062c-0.13682,0.6009 -0.74095,1.24341 -1.26538,1.53442c-0.68072,0.51236 -1.54539,0.72498 -2.3666,0.88897c-0.57694,0.07004 -1.15171,-0.04406 -1.72755,-0.04406l-0.06282,-0.01637c0,0 -0.08001,-0.02667 -0.05334,-0.10668z" fill="#000000" stroke="none" stroke-width="0.5"/><path d="M127.74205,243.83403c-0.55266,-0.11377 -1.72991,-0.4159 -1.72991,-0.4159c0,0 -1.03495,-0.756 -1.25053,-0.92875c-0.15829,-0.12684 -0.48169,-0.61157 -0.48169,-0.61157l4.03879,0.35363l1.24217,1.49242c0,0 -1.36377,0.20385 -1.81883,0.11017z" data-paper-data="{&quot;index&quot;:null}" fill="#fffd4d" stroke="#fffd4d" stroke-width="0.5"/><path d="M129.46789,243.86344l-0.06281,0.01638c-0.57584,0 -1.15061,0.1141 -1.72755,0.04406c-0.82121,-0.164 -1.68588,-0.37661 -2.3666,-0.88897c-0.52444,-0.29101 -1.12856,-0.93352 -1.26538,-1.53442c0,0 -0.01829,-0.08233 0.06403,-0.10062c0.08233,-0.01829 0.10062,0.06403 0.10062,0.06403c0.12014,0.55713 0.71246,1.16249 1.1925,1.42949c0.66524,0.49732 1.50061,0.70351 2.30161,0.86396c0.56686,0.0697 1.13456,-0.0462 1.70077,-0.0462l0.00948,-0.00772c0,0 0.08001,-0.02667 0.10668,0.05334c0.02667,0.08001 -0.05334,0.10668 -0.05334,0.10668z" data-paper-data="{&quot;index&quot;:null}" fill="#000000" stroke="none" stroke-width="0.5"/><path d="M112.07787,256.94837c0,0 -0.11593,-0.2763 -0.11616,-0.37171c-0.0003,-0.12555 0.11451,-0.3163 0.11451,-0.3163c0,0 -0.10727,0.00102 0.05824,0.00247c0.15436,0.00136 0.21837,-0.01166 0.72933,0.0626c0.15818,0.02299 0.61487,0.30655 0.80368,0.30819c0.10963,0.00095 0.58095,-0.37033 0.69923,-0.36966c4.2916,0.02436 13.70681,0.13696 13.70681,0.13696l0.61828,0.0228c0,0 0.04041,0.01948 0.10834,0.10711c0.05,0.0645 0.16152,0.06442 0.22592,0.15065c0.07541,0.10097 0.32068,0.28914 0.28183,0.36977c-0.0634,0.13158 -0.50899,0.35013 -0.60886,0.46166c-0.115,0.12842 -0.26393,0.14436 -0.48807,0.16137c-0.21615,0.01641 -0.50498,0.03872 -0.75585,-0.09699c-0.09837,-0.05322 -0.33613,-0.28457 -0.57415,-0.35791c-0.22408,-0.06904 -0.65391,-0.03566 -0.82991,-0.03518c-0.01284,0.00003 -0.07677,0.0318 -0.08613,0.03204c-0.06435,0.00162 -0.05396,0.00605 -0.09945,0.0409c-0.11545,0.08846 -0.24655,0.17378 -0.33372,0.14414c-0.11329,-0.03852 -0.51775,-0.28786 -0.70157,-0.24747c-0.34767,0.07641 -0.80209,0.29814 -1.45181,0.31559c-0.18261,0.0049 -1.10071,-0.27104 -1.29202,-0.26554c-0.20331,0.00584 -0.49437,0.12271 -0.70379,0.12521c-0.4717,0.00564 -1.00977,-0.18271 -1.49189,-0.17039c-0.68508,0.01751 -1.07555,0.48183 -1.71353,0.47984c-0.35591,-0.00111 -0.83921,-0.42492 -1.19795,-0.41136c-0.46565,0.0176 -0.93201,0.23281 -1.26011,0.30608c-0.31804,0.07103 -0.66506,0.02102 -0.98529,0.02566c-0.16774,0.00243 -0.43458,-0.37325 -0.60646,-0.36174c-0.31022,0.02077 -0.38972,0.21687 -0.58319,0.33023c-0.18748,0.10985 -0.49055,0.13685 -0.68588,0.16836c-0.14143,0.02282 -0.22553,-0.08984 -0.32041,-0.15035c-0.09994,-0.06373 -0.20694,-0.07613 -0.20694,-0.07613z" fill="#fffd4d" stroke="none" stroke-width="0"/><path d="M117.06736,257.11356c0.46444,0.18736 1.05431,0.65229 1.58099,0.38781c0.21593,-0.07028 0.33101,-0.26766 0.54398,-0.33441c0.4495,-0.14088 1.03446,-0.01148 1.49112,0.02027c0.18091,0.03185 0.43708,0.14702 0.62337,0.11133c0.281,-0.05383 0.47887,-0.23558 0.78853,-0.20656c0.28491,0.0267 0.49751,0.18731 0.75718,0.28152c0.28211,0.103 0.64143,0.09789 0.93608,0.02955l0.01708,-0.00852c0.31346,-0.17093 0.60404,-0.26036 0.90331,-0.30712c0.30984,-0.04841 0.46031,0.24411 0.82383,0.24411c0.16963,0 0.55601,-0.32274 0.76298,-0.32119c0.1608,0.0012 0.31513,0.01997 0.4354,0.08287c0.42675,0.22317 0.52937,0.48689 1.06908,0.48689c0.44512,0 1.22834,-0.12533 1.36375,-0.63184c0,0 0.00593,-0.0895 0.08729,-0.0673c0.08136,0.02219 0.05917,0.10355 0.05917,0.10355c-0.16278,0.58722 -0.77925,0.75613 -1.30693,0.75613c-0.1761,0 -0.49846,-0.00584 -0.66056,-0.08972c-0.24282,-0.12564 -0.49659,-0.37455 -0.75879,-0.44072c-0.08799,-0.02221 -0.18134,-0.03374 -0.2767,-0.03923c-0.19247,-0.01109 -0.57232,0.33978 -0.75362,0.33978c-0.35038,0 -0.49486,-0.32849 -0.79893,-0.27556c-0.28048,0.04883 -0.54269,0.13516 -0.8298,0.28664c-0.0132,0.01478 -0.02799,0.02217 -0.02799,0.02217l-0.03308,0.01429c-0.00577,0.00143 -0.01155,0.00283 -0.01736,0.00421l-0.01041,0.00522c0,0 -0.02469,0.01234 -0.05288,0.00879c-0.31821,0.06522 -0.68814,0.06436 -0.98858,-0.04449c-0.24364,-0.08878 -0.44716,-0.24697 -0.71345,-0.27194c-0.2895,-0.02715 -0.47925,0.15789 -0.74536,0.20458c-0.21379,0.03751 -0.46546,-0.07327 -0.67332,-0.11005c-0.427,-0.03127 -0.99977,-0.16306 -1.41853,-0.02717c-0.20026,0.06498 -0.32142,0.25831 -0.53132,0.32975c-0.58163,0.28961 -1.19366,-0.18328 -1.70818,-0.38704c0,0 -0.00172,-0.00069 -0.00455,-0.00211l-0.01775,-0.00075c-0.6568,0.09923 -1.21906,0.42568 -1.88332,0.42568c-0.19997,0 -0.4279,0.02581 -0.60994,-0.0737c-0.12563,-0.06868 -0.16888,-0.32005 -0.31021,-0.29712c-0.26957,0.04374 -0.57857,0.30712 -0.86265,0.38527c-0.88004,0.29373 -1.4642,-0.41393 -1.4642,-1.25542c0,-0.41922 0.42932,-1.3259 0.06988,-1.66628c0,0 -0.05963,-0.05963 0,-0.11927c0.05963,-0.05964 0.11927,0 0.11927,0c0.42414,0.44018 -0.02048,1.26708 -0.02048,1.78555c0,0.73399 0.47483,1.35095 1.24666,1.09399c0.23823,-0.06435 0.70371,-0.41612 0.92652,-0.39184c0.12917,0.01407 0.25217,0.24676 0.37654,0.31735c0.14909,0.08462 0.3644,0.05281 0.52862,0.05281c0.65046,0 1.2124,-0.32287 1.85767,-0.42372l0.04897,-0.00098c0,0 0.01812,0 0.03757,0.0084c0.01416,0.00159 0.02405,0.00554 0.02405,0.00554z" fill="#9e9215" stroke="none" stroke-width="0.5"/><path d="M122.4978,255.35974l0.05564,0.07451c0.36382,0.65276 0.83079,-0.01765 0.83079,-0.50376c0,0 0,-0.08434 0.08433,-0.08434c0.08433,0 0.08434,0.08434 0.08434,0.08434c0,0.64286 -0.68919,1.41154 -1.14097,0.59553l-0.04905,-0.06508c0,0 -0.0506,-0.06747 0.01687,-0.11807c0.06747,-0.0506 0.11807,0.01687 0.11807,0.01687z" data-paper-data="{&quot;index&quot;:null}" fill="#000000" stroke="none" stroke-width="0.5"/><path d="M120.03196,256.27468c0.63975,0.10696 0.63719,-1.05728 0.63245,-1.32509c-0.00209,-0.1181 -0.13093,-0.43162 0.06046,-0.43162c0.12769,0 0.10822,0.80085 0.10821,0.81949c-0.00038,0.48295 -0.23437,1.06463 -0.79085,1.10592c-0.61486,0.04561 -0.67451,-0.77521 -0.619,-1.16804c0.00506,-0.0358 0.01947,-0.24635 0.03241,-0.35696c0.00003,0.08596 0.00765,0.16999 0.02759,0.24763c0.00983,0.03828 0.02684,0.06402 0.04809,0.07966c0.01124,0.08906 0.02521,0.16869 0.04106,0.23389c0.00171,0.12543 0.01589,0.24193 0.05081,0.3387c0.01642,0.22258 0.10836,0.40619 0.40877,0.45641z" fill="#000000" stroke="none" stroke-width="0.5"/><path d="M117.75022,255.22887c0.06747,0.0506 0.01687,0.11807 0.01687,0.11807l-0.04906,0.06508c-0.45179,0.816 -1.14097,0.04733 -1.14097,-0.59553c0,0 0,-0.08434 0.08433,-0.08434c0.08433,0 0.08434,0.08434 0.08434,0.08434c0,0.48612 0.46696,1.15652 0.83079,0.50376l0.05564,-0.07451c0,0 0.0506,-0.06747 0.11807,-0.01687z" fill="#000000" stroke="none" stroke-width="0.5"/><path d="M127.25768,253.23798c0.12033,0.16385 0.18982,0.46907 0.18982,0.66636c0.00175,0.05438 -0.05996,0.20912 -0.1246,0.29767c-0.01548,0.0212 -0.10677,-0.33885 -0.26987,-0.58693c-0.10003,-0.15214 -0.21533,-0.3148 -0.28141,-0.3995c-0.04829,-0.06189 -0.07393,-0.06038 -0.03011,-0.09081c0.05852,-0.04065 0.15561,-0.06629 0.24567,-0.05198c0.10972,0.01743 0.21279,0.08661 0.27049,0.16519z" data-paper-data="{&quot;noHover&quot;:false,&quot;origItem&quot;:[&quot;Path&quot;,{&quot;applyMatrix&quot;:true,&quot;segments&quot;:[[[723.23608,319.06042],[1.07562,-3.88598],[0,0]],[[723.24856,319.07956],[0,0],[1.21194,2.42778]],[[730.527,328.84956],[-2.40842,-0.9944],[1.6394,0.67688]],[[733.53132,325.17416],[0.04746,1.4713],[0,-2.33936]],[[732.13174,316.58186],[1.42686,1.94284],[-3.18056,-4.33076]]],&quot;closed&quot;:true,&quot;fillColor&quot;:[0,0,0,1]}]}" fill="#a8be04" stroke="none" stroke-width="0.5"/><path d="M144.63934,252.01336c0,13.69336 -10.57205,24.79402 -23.61335,24.79402c-13.04129,0 -23.61335,-11.10066 -23.61335,-24.79402c0,-13.69336 10.57205,-24.79402 23.61335,-24.79402c13.04129,0 23.61335,11.10066 23.61335,24.79402z" fill="url(#color-1)" stroke="#0b61a3" stroke-width="0"/><g><path d="M132.64899,256.854c0,0.27973 -11.20187,0.37629 -16.48795,0.32924c-1.4684,-0.01306 -2.29898,-0.38877 -2.38242,-0.38999c-1.40307,-0.02034 -2.57284,1.00738 -3.42994,1.01773c-0.12964,0.00157 -0.25079,0.1776 -0.48049,-0.40591c-0.16524,-0.41972 -0.33071,-0.78882 -0.28062,-1.50073c0.02075,-0.29486 0.38596,-0.8535 0.31592,-1.17384c-0.1093,-0.49999 -0.95793,-1.02227 -1.24997,-1.53941c-0.25826,-0.45735 0.03336,-0.91068 -0.0079,-1.34109c-0.04522,-0.47166 0.43653,-0.78726 0.39357,-1.29192c-0.03523,-0.41397 -0.32809,-1.01242 -0.36176,-1.44188c-0.04325,-0.55163 -0.89329,-2.64092 -0.9267,-3.2067c-0.01427,-0.24174 1.61317,1.65693 1.60204,1.41488c-0.13346,-2.90165 -1.22773,-4.57477 -1.89302,-5.90172c-0.21257,-0.42395 -0.2914,-0.88003 -0.39804,-1.24185c-0.18511,-0.62808 0.34754,-2.34342 0.33259,-2.36933c-0.10084,-0.1748 0.01952,-0.46653 -0.02504,-0.64301c-0.13422,-0.53145 -0.2757,-0.91119 -0.52433,-1.06704c-0.47338,-0.29675 -0.62672,-0.6621 -0.62672,-1.19003c0,-0.41134 0.04867,-1.09598 0.35454,-1.38222c0.36134,-0.33814 1.21198,-0.46384 1.80175,-0.46384c0.25185,0 0.62502,0.17143 1.84561,0.69628c0.07517,0.03233 0.46112,-0.01712 0.85754,-0.06827c0.4206,-0.05428 1.78778,-0.92842 1.8731,-0.89095c0.18558,0.08151 1.12609,-0.34173 1.31849,-0.25196c0.25623,0.11954 0.97231,0.1449 1.26823,0.25191c0.3818,0.13805 0.7904,0.57349 1.21848,0.69377c0.28824,0.081 3.17069,-0.93854 3.47436,-0.86712c1.03595,0.24358 1.31278,0.44718 2.20527,0.69006c0.45988,0.12516 2.64992,-0.79765 3.08826,-0.67434c0.59723,0.16803 1.28067,0.22442 2.5999,0.40779c0.43523,0.06049 1.48086,-0.41489 1.97187,-0.33456c0.35199,0.05759 1.59681,0.16957 1.94419,0.38511c0.02878,0.01786 0.57286,-0.13369 0.78347,-0.29432c0.2508,-0.19132 1.28907,-0.26405 1.61114,-0.21039c0.3995,0.06655 0.7758,0.88836 0.93538,1.26457c0.27416,0.6464 -0.21576,1.9106 -0.46156,2.64282c-0.11147,0.33211 -0.06834,0.55477 -0.0639,0.56067c0.07806,0.1042 0.34219,1.40683 0.06283,1.36115c-0.24905,-0.04074 0.11766,-1.39623 -0.0393,-0.32965c-0.04411,0.29977 0.11045,0.89807 -0.01747,1.32145c-0.23929,0.79198 -0.80994,1.51939 -0.89369,2.38942c-0.10077,1.0468 -0.34748,2.49548 -0.25867,3.63391c0.0655,0.8398 -0.34635,0.84286 -0.3854,1.7221c-0.02142,0.48177 -0.25415,0.88916 -0.28145,1.3654c-0.02205,0.3848 -0.01989,1.15431 -0.04305,1.53403c-0.01329,0.21786 0.29486,0.49119 0.28498,0.70603c-0.0151,0.32867 0.33162,1.03925 0.32055,1.35796c-0.00379,0.10922 0.08432,0.3618 0.06927,0.46283c-0.06808,0.4572 -0.32532,0.69598 -0.35022,1.13455c-0.0357,0.62874 -0.44479,1.06951 -0.4497,1.56514c-0.00649,0.65777 0.05155,0.90982 0.36874,1.19607c0.43207,0.38991 0.34267,0.68592 0.34267,0.70371z" fill="#fffd4d" stroke="none" stroke-width="NaN"/><path d="M124.81575,254.85537c-0.13351,0.01007 -0.14335,-0.12635 -0.14335,-0.12635l-0.01018,-0.14112c-0.02784,-0.38587 -0.06834,-0.73506 -0.24942,-1.08083c-0.42055,-1.02711 -0.81588,-2.32235 -1.82956,-2.90769c-0.75303,-0.51683 -2.04865,-0.40263 -2.93978,-0.3345c-0.03023,0.01651 -0.05971,0.01873 -0.05971,0.01873l-0.01657,0.00078c-0.69475,0.10871 -1.12926,0.57277 -1.40534,1.18495c-0.44888,0.98664 -0.56957,2.07913 -0.96971,3.07553c0,0 -0.05091,0.12651 -0.17472,0.07449c-0.12382,-0.05201 -0.07291,-0.17852 -0.07291,-0.17852c0.40297,-0.99905 0.52662,-2.09459 0.97438,-3.08643c0.31394,-0.68923 0.81108,-1.19805 1.57818,-1.33534c0.03231,-0.01986 0.06604,-0.0224 0.06604,-0.0224c0.95614,-0.07199 2.33224,-0.1893 3.16036,0.36963c1.06106,0.61267 1.49188,1.94486 1.93126,3.02336c0.19703,0.37526 0.24441,0.75948 0.27459,1.17812l0.01018,0.14112c0,0 0.00984,0.13641 -0.12368,0.14645z" fill="#000000" stroke="none" stroke-width="0.5"/><path d="M121.66201,250.29674c0,2.30801 0.24458,4.12038 -0.02815,5.15522c-0.14211,0.53921 -0.56087,0.93544 -0.93722,0.93544c-1.09872,0 -0.74396,-2.04835 -0.74396,-5.55896c0,-0.09047 0.00074,-1.1378 0.0022,-1.22785c0.0551,-3.40489 -0.22406,-6.39513 0.84633,-6.39513c0.17416,0 0.38485,-0.09697 0.49811,0.06842c0.60126,0.87803 0.3627,4.06873 0.3627,7.02286z" fill="#fff649" stroke="none" stroke-width="0"/><path d="M120.01135,252.74797c0.00667,0.00381 0.01311,0.00786 0.01936,0.01215c-0.05695,0.16455 -0.00457,0.43166 -0.01642,0.62211c-0.00084,0.00928 -0.0016,0.01867 -0.0023,0.02816c-0.03359,0.32777 -0.16217,0.84158 -0.06078,1.23626c0.02663,0.10364 0.09122,0.14093 0.16335,0.13719c0.01032,0.2548 0.01768,0.52198 0.00042,0.74626c-0.00473,0.06152 -0.03506,0.11684 -0.11684,0.11684c-0.15596,0 -0.16899,-0.60715 -0.13556,-1.47709c0.00726,-0.18896 -0.02383,-1.32325 0.0481,-1.36435z" fill="#000000" stroke="none" stroke-width="0.5"/><path d="M119.85978,253.32943c0.01193,-0.13679 0.02627,-0.51324 0.02015,-0.65534c-0.00404,-0.09418 0.01487,-0.09688 0.02791,-0.11495c0.05726,-0.07936 0.21904,-0.03592 0.21907,0.07846c0.00024,0.7584 -0.07118,1.52057 0.00427,2.2752c0.00049,0.00433 0.00074,0.00873 0.00074,0.01319c0,0.01192 -0.00179,0.02345 -0.00512,0.0343c-0.12039,0.79889 -0.21074,0.66203 -0.24956,0.22081c-0.02543,-0.28906 -0.01729,-0.70874 -0.02087,-1.08151c-0.00344,-0.35737 -0.00781,-0.64159 0.00341,-0.77014z" fill="#000000" stroke="none" stroke-width="0.5"/><path d="M121.65343,254.49946c-0.11684,0 -0.11684,-0.11685 -0.11684,-0.11685v-0.0167c0,-0.43904 -0.03339,-0.87748 -0.03339,-1.31869c0,-0.84016 0,-1.68032 0,-2.52048c0,0 0,-0.01108 0.00341,-0.0264v-0.08916c0,-1.07309 -0.00101,-2.14616 0.00014,-3.21924c-0.12085,-1.19302 0.04137,-2.5594 -0.18726,-3.75283c-0.94668,-0.82605 -1.18481,0.61683 -1.22266,1.35027c0.03661,0.03858 0.03021,0.09601 0.03021,0.09601c-0.12251,1.09816 -0.03435,2.24789 -0.03435,3.35239c0,1.20337 0.03502,2.41105 0.03505,3.61068c0,0.26314 0,0.52626 0,0.78938c-0.19517,0.10388 -0.09774,0.49165 -0.11348,0.74437c-0.00084,0.00928 -0.0016,0.01867 -0.0023,0.02816c-0.03359,0.32777 -0.16217,0.84158 -0.06078,1.23626c0.01362,0.05303 0.03718,0.08869 0.06661,0.11036c0.01558,0.12339 0.03492,0.23368 0.0569,0.32403c0.00074,0.05419 0.00316,0.10715 0.0076,0.15848c-0.0168,0.01243 -0.03984,0.02096 -0.07138,0.02096c-0.11684,0 -0.11684,-0.11685 -0.11684,-0.11685c0,-0.75061 0,-1.57267 0,-2.36417c0,-0.31745 0,-0.62995 0,-0.93098c0.00004,-1.1996 -0.03505,-2.40732 -0.03505,-3.61068c0,-1.06289 -0.07904,-2.16559 0.0203,-3.22662c-0.0203,-0.03216 -0.0203,-0.06855 -0.0203,-0.06855c0,-0.95758 0.57132,-2.57168 1.76458,-1.55797c0.05115,1.26079 -0.00768,2.53865 0.11656,3.79569c0.00106,1.07696 0.00014,2.15393 0.00014,3.23088v0.10517c0,0 0,0.01108 -0.00341,0.0264c0,0.83483 0,1.66965 0,2.5045c0,0.44124 0.03339,0.87952 0.03339,1.31869v0.0167c0,0 0,0.11684 -0.11685,0.11684z" fill="#000000" stroke="none" stroke-width="0.5"/><path d="M107.12818,236.83726c-0.11405,0.02533 -0.1394,-0.0887 -0.1394,-0.0887l-0.02021,-0.09292c-0.04149,-0.4123 -0.4941,-0.61297 -0.6867,-0.94449c-0.28433,-0.48945 -0.06193,-1.10475 -0.06127,-1.64678c0.15197,-1.29332 1.37663,-1.19867 2.34341,-1.0477c0.76915,0.23473 1.67741,0.73707 2.49466,0.48187c0,0 0.02393,-0.00736 0.05307,-0.0042l0.02668,-0.01425c0.25704,-0.07871 0.50135,-0.20706 0.72727,-0.35155c1.02591,-0.42841 2.01824,-1.00311 3.19026,-0.61313c0.37533,0.0949 0.82672,0.43718 1.3563,0.61779c0.45675,0.15577 1.02297,0.15708 1.04246,0.17995c0.20757,-0.00365 0.36753,-0.08192 0.55428,-0.17498c1.11833,-0.4003 1.9083,-0.78367 3.09397,-0.38939c0.90769,0.37754 1.55307,0.4428 2.48902,0.15456c0,0 0.04706,-0.01448 0.08947,0.00592c0.85041,-0.16179 1.31849,-0.41006 2.20749,-0.40816c0.50183,0.07095 1.26139,0.28033 1.78796,0.3844c0.26458,0.0523 0.5538,0.04672 0.5538,0.04672c0.37878,-0.00532 1.27123,-0.4206 1.62898,-0.43014c0.4848,-0.01291 0.57804,0.08164 1.01125,0.18144c0.46805,0.14954 0.8996,0.29322 1.3716,0.29455c0.01653,-0.01634 0.03289,-0.02453 0.03289,-0.02453c0.78366,-0.39134 1.72852,-0.76758 2.5328,-0.23322c0.81781,0.52647 1.11716,1.78851 0.69566,2.63148c-0.17453,0.34883 -0.71224,1.12035 -0.68551,1.54834c0.03418,0.01674 0.05324,0.04776 0.05324,0.04776c0.16529,0.27388 0.23851,0.60035 0.25097,0.94168c0.00871,0.02129 0.01335,0.04856 0.0018,0.07782c0.00576,0.57552 -0.15243,1.18474 -0.32701,1.64994c-0.13148,0.30251 -0.23953,0.61812 -0.33966,0.93493c0.00762,0.00502 -0.09462,0.30549 -0.10105,0.32659c-0.15823,0.70579 -0.49284,1.38185 -0.59404,2.09475c-0.06308,0.44435 0.00235,0.94863 0.00026,1.39672c0.21778,0.85663 -0.23197,0.3377 -0.09384,1.5401c0.00718,0.06243 -0.29177,0.79783 -0.25221,0.85584c0,0 0.07195,0.67003 -0.02529,0.73483c-0.09721,0.06481 -0.08507,0.08728 -0.08507,0.08728c-0.14675,-0.22426 0.12434,-1.53283 0.13843,-1.62166c0.04206,-0.26501 0.27499,-0.39801 0.26196,-0.55575c-0.02931,-0.3547 -0.07241,-0.5916 -0.17592,-1.0121c-0.00502,-1.23099 0.2017,-2.24062 0.54517,-3.38492l0.00313,-0.02656c0.15128,-0.48822 0.29715,-0.98792 0.50147,-1.45768c0.16028,-0.42773 0.32293,-1.02453 0.31611,-1.57567l-0.01989,-0.03501c-0.02497,-0.33752 -0.24497,-0.61996 -0.28492,-0.94113c-0.06345,-0.51038 0.48383,-1.29236 0.70277,-1.73056c0.36627,-0.73255 0.10971,-1.87696 -0.6142,-2.33119c-0.7092,-0.47456 -1.56093,-0.12112 -2.25578,0.22401c-0.02561,0.05056 -0.08723,0.06085 -0.08723,0.06085l-0.07455,0.01082c-0.4906,0 -1.13387,-0.28179 -1.62037,-0.31653c-0.38892,-0.08988 -0.92729,-0.1172 -1.40734,0.00124c-0.27352,0.06748 -0.77492,0.29989 -0.77492,0.29989c-0.74327,0.16909 -1.75607,-0.34206 -2.58809,-0.46223c-0.90285,0.00218 -1.3736,0.25509 -2.24586,0.42327c0,0 -0.02789,0.0053 -0.0588,-0.00305c-0.9347,0.26997 -1.62478,0.19808 -2.54674,-0.1868c-1.1217,-0.37474 -1.86214,0.00843 -2.92031,0.38547c-0.22111,0.11095 -0.41415,0.19321 -0.66389,0.19386l-0.0811,-0.0104c0,0 -0.02103,-0.00302 -0.04389,-0.01542c-0.78462,0.10815 -1.58,-0.59837 -2.32125,-0.78136c-1.10309,-0.36836 -2.05157,0.1946 -3.01641,0.5957c-0.23717,0.15329 -0.85952,0.42403 -0.91008,0.4043c-0.85385,0.22385 -1.75158,-0.24669 -2.55237,-0.49537c-0.8087,-0.12219 -1.92726,-0.27475 -2.05785,0.83361c0.00066,0.4973 -0.22654,1.06703 0.0309,1.5172c0.21845,0.38203 0.6417,0.55402 0.71541,1.0295l0.0167,0.07313c0,0 0.02536,0.11405 -0.0887,0.1394z" fill="#9e9215" stroke="none" stroke-width="0.5"/><path d="M109.82842,254.59257c-0.11405,0.02533 -0.1394,-0.0887 -0.1394,-0.0887l-0.01946,-0.09462c-0.23351,-0.58406 -0.88474,-0.71689 -1.1389,-1.32623c-0.40181,-1.00552 0.53629,-1.59788 0.30129,-2.53544c0,0 -0.00321,-0.01043 -0.00204,-0.08846c0.00033,-0.02195 -0.01784,-0.05865 -0.01252,-0.0905c-0.09053,-0.64999 -0.83867,-3.53451 -1.10893,-4.0829c-0.01261,-0.05342 -0.05865,-0.50749 -0.07428,-0.5914c-0.02507,-0.13446 -0.11152,0.11785 -0.05277,0.03674c0.13994,-0.19326 0.7873,1.84877 0.99662,1.81395c0.6279,-0.10443 1.21704,-0.18151 1.82504,-0.36213c-0.07195,-0.47289 -0.6813,-0.75129 -1.04227,-1.03236c-0.01292,-0.00652 -0.02301,-0.0151 -0.03092,-0.0246c-0.00479,-0.00388 -0.00952,-0.00779 -0.0142,-0.01168c0,0 -0.08976,-0.07479 -0.01495,-0.16456c0.00019,-0.00026 0.00041,-0.00049 0.00061,-0.00073c0.0007,-0.67534 0.03242,-1.3233 0.1476,-1.98806c-0.01298,-0.03348 -0.00788,-0.06655 -0.00788,-0.06655l0.01743,-0.11105c-0.0011,-0.36083 0.15957,-0.80735 -0.26095,-0.9013c-1.25855,-0.29711 -1.69111,-0.80424 -2.15159,-1.91749c-0.01786,-0.0205 -0.02545,-0.04176 -0.02545,-0.04176c-0.32085,-0.90545 -0.0519,-1.79017 0.21887,-2.67192c0.16329,-0.65035 -0.03294,-1.07237 -0.27332,-1.64808c-0.01858,-0.02395 -0.05784,-0.08987 0.00809,-0.15579c0.08261,-0.08262 0.16524,0 0.16524,0l0.03446,0.04688c0.26397,0.63354 0.46689,1.11212 0.29065,1.8197c-0.24501,0.79468 -0.50834,1.60933 -0.25867,2.42608c0.00377,0.0068 0.00557,0.01127 0.00557,0.01127c0.45425,1.13607 0.8063,1.61431 2.04003,1.90371c0.58499,0.14607 0.44142,0.65233 0.44012,1.14652l-0.00198,0.01316c0.01694,0.03695 0.00956,0.07633 0.00956,0.07633c-0.13114,0.69828 -0.16403,1.37377 -0.16403,2.08162v0.01846c0.41654,0.32293 1.01152,0.60692 1.09823,1.15173c0.05111,0.05793 0.02452,0.11465 0.00592,0.14155c-0.00664,0.03298 -0.02926,0.08957 -0.10607,0.09324l-0.0201,0.01665c-0.56099,0.17065 -1.08779,0.25398 -1.66674,0.34538c-0.15907,0.02512 -0.95554,-2.0269 -1.06495,-1.88712c-0.0445,0.05687 0.03214,0.31355 0.04688,0.37961c0.31869,0.62571 1.20383,3.58465 1.20568,4.28816c0,0 0.01535,0.05466 0.00845,0.14499c0.08205,0.84182 -0.6544,1.43311 -0.29531,2.32989c0.2504,0.60168 0.89799,0.72419 1.13953,1.32778l0.03063,0.1307c0,0 0.02536,0.11405 -0.0887,0.1394z" fill="#9e9215" stroke="none" stroke-width="0.5"/><path d="M116.71139,235.4122c-0.11684,0 -0.11684,-0.11684 -0.11684,-0.11684v-0.11685c0,-0.17732 -0.03743,-0.32979 -0.03895,-0.50634c0.00501,-0.80838 -1.32459,-0.67015 -1.65557,-0.1689c0,0 -0.06481,0.09721 -0.16202,0.0324c-0.09721,-0.06481 -0.0324,-0.16202 -0.0324,-0.16202c0.4566,-0.67937 2.07821,-0.76247 2.08369,0.29851c-0.00189,0.17249 0.03895,0.33027 0.03895,0.50634v0.11685c0,0 0,0.11684 -0.11684,0.11684z" fill="#000000" stroke="none" stroke-width="0.5"/><path d="M125.30416,235.59206c-0.11684,0 -0.11685,-0.11684 -0.11685,-0.11684l0.0016,-0.01975c-0.04573,-0.27981 -0.00253,-0.55578 -0.00009,-0.83635c0.29248,-0.89567 1.78125,-0.76176 2.29029,-0.13217c0,0 0.07299,0.09122 -0.01823,0.16423c-0.09123,0.07299 -0.16423,-0.01823 -0.16423,-0.01823c-0.36848,-0.46671 -1.64136,-0.66068 -1.87717,0.02363c0.00262,0.25456 -0.04335,0.50655 -0.00009,0.76052l0.0016,0.05816c0,0 0,0.11684 -0.11684,0.11684z" fill="#000000" stroke="none" stroke-width="0.5"/><path d="M120.68131,243.78549c0,3.89218 -2.96264,7.04741 -6.61729,7.04741c-3.65462,0 -6.61729,-3.15524 -6.61729,-7.04741c0,-3.89218 2.96265,-7.0474 6.61729,-7.0474c3.65462,0 6.61729,3.15524 6.61729,7.04741z" fill="#fbfdfa" stroke="#000000" stroke-width="0"/><path d="M112.51828,251.73213c-0.01776,-0.00086 -0.03013,-0.00456 -0.03013,-0.00456c-0.43972,-0.13741 -1.06847,0.51683 -0.68034,0.89956c0.16566,0.16335 0.46425,0.32923 0.65925,0.15616c0.32117,-0.18885 0.23759,-0.74028 0.07287,-1.02663zM112.56853,251.50898c0.06003,-0.00781 0.10312,0.04392 0.10312,0.04392l0.07254,0.09026c0.2163,0.39953 0.28998,1.06722 -0.14375,1.33198c-0.30143,0.22468 -0.74009,0.07633 -0.97734,-0.20487c-0.50776,-0.60178 0.28965,-1.45321 0.93219,-1.26651c0,0 0.00529,0.00158 0.01322,0.00521z" fill="#fffc51" stroke="none" stroke-width="0.5"/><path d="M112.54644,251.74694c0.16472,0.28637 0.24749,0.85767 -0.07369,1.04652c-0.19496,0.17309 -0.50794,0.00488 -0.6736,-0.15847c-0.38811,-0.38274 0.25484,-1.05509 0.69456,-0.91768c0,0 0.01283,0.00397 0.03059,0.0048z" data-paper-data="{&quot;noHover&quot;:false,&quot;origItem&quot;:[&quot;Path&quot;,{&quot;applyMatrix&quot;:true,&quot;segments&quot;:[[[576.38862,314.41816],[0,0],[-0.152,-0.00718]],[[576.13068,314.37918],[0,0],[-3.76354,-1.17598]],[[570.3078,322.07832],[-3.32192,-3.2757],[1.41786,1.39814]],[[575.95014,323.41476],[-1.66872,1.48136],[2.74878,-1.61636]],[[576.57382,314.62794],[1.40976,2.45092],[0,0]]],&quot;closed&quot;:true,&quot;fillColor&quot;:[0,0,0,1]}]}" fill="#a8be04" stroke="none" stroke-width="0.5"/><path d="M109.54538,234.73513c-0.00046,0.00014 -0.00073,0.00019 -0.00073,0.00019c-0.58387,0.1287 -0.97641,1.4223 -0.50793,1.84481c0.12356,0.11142 0.43621,0.09103 0.5929,0.09689c0.60513,-0.37802 0.67079,-1.75304 -0.08386,-1.9417zM109.41632,234.53242c0.05351,-0.09323 0.15226,-0.04384 0.15226,-0.04384l0.03387,0.02006c1.0075,0.25187 0.88865,1.92416 0.08955,2.39361c-0.22884,0.00552 -0.60317,0.02498 -0.7944,-0.13433c-0.63974,-0.533 -0.18151,-1.9607 0.51869,-2.23547z" fill="#fffc51" stroke="none" stroke-width="0.5"/><path d="M109.54677,234.72367c0.75464,0.18866 0.68998,1.58688 0.08484,1.96487c-0.15668,-0.00586 -0.47646,0.01351 -0.60002,-0.09792c-0.4685,-0.42252 -0.06986,-1.73826 0.51401,-1.86695c0,0 0.00026,-0.00005 0.00073,-0.00019z" data-paper-data="{&quot;noHover&quot;:false,&quot;origItem&quot;:[&quot;Path&quot;,{&quot;applyMatrix&quot;:true,&quot;segments&quot;:[[[550.94398,168.94384],[0,0],[-0.004,0.00112]],[[550.93786,168.94548],[0,0],[-4.99722,1.10148]],[[546.59068,184.73494],[-4.0097,-3.61618],[1.0574,0.95362]],[[551.66524,185.56418],[-1.34108,-0.05018],[5.17926,-3.23526]],[[550.94754,168.94548],[6.4589,1.61474],[0,0]]],&quot;closed&quot;:true,&quot;fillColor&quot;:[0,0,0,1]}]}" fill="#a8be04" stroke="none" stroke-width="0.5"/><path d="M131.97443,234.24992c-0.01036,0.00165 -0.01719,0.00165 -0.01719,0.00165c-1.04164,-0.007 -0.0042,1.64144 0.59167,0.79198c0.14913,-0.45846 -0.17991,-0.50848 -0.46004,-0.71527l-0.06113,-0.02766c0,0 -0.03381,-0.01689 -0.05335,-0.0507zM132.06259,234.07906c0.03754,-0.00351 0.06969,0.01256 0.06969,0.01256l0.10261,0.05419c0.34428,0.31811 0.73563,0.37347 0.52229,1.00377c-0.91435,1.2659 -2.29824,-1.12326 -0.79992,-1.1317c0,0 0.0759,0 0.10535,0.06117z" fill="#fffc51" stroke="none" stroke-width="0.5"/><path d="M131.9048,234.25563c0.02117,0.03662 0.05902,0.05483 0.05902,0.05483l0.06793,0.03c0.30346,0.22403 0.66987,0.29692 0.50834,0.79359c-0.64554,0.92024 -1.78273,-0.88414 -0.6543,-0.87655c0,0 0.00781,-0.00006 0.01903,-0.00185z" data-paper-data="{&quot;noHover&quot;:false,&quot;origItem&quot;:[&quot;Path&quot;,{&quot;applyMatrix&quot;:true,&quot;segments&quot;:[[[742.91028,164.79096],[0,0],[-0.08866,0.01412]],[[742.76318,164.80508],[0,0],[-8.91526,-0.05994]],[[747.82732,171.58358],[-5.10008,7.27028],[1.27638,-3.92392]],[[743.89002,165.46172],[2.39748,1.76998],[0,0]],[743.36688,165.22496],[[742.91026,164.79094],[0.16726,0.28934],[0,0]]],&quot;closed&quot;:true,&quot;fillColor&quot;:[0,0,0,1]}]}" fill="#a8be04" stroke="none" stroke-width="0.5"/><path d="M129.46253,252.17276c0.19835,-0.6102 0.97192,-0.97499 1.44212,-0.32445c0.19715,0.27277 0.20763,0.8148 0.20763,1.14054c-0.00659,0.31723 -0.3008,0.82262 -0.67997,0.64281c-0.35167,-0.16679 -0.78936,-0.90137 -0.96413,-1.25038l-0.03396,-0.04931c0,0 -0.06296,-0.09444 0.02832,-0.1592zM129.67571,252.27453l0.00146,0.00224c0.1416,0.28365 0.569,1.02532 0.85041,1.14151c0.19154,0.07909 0.35658,-0.25752 0.35103,-0.42943c0,-0.27332 0.00318,-0.77692 -0.16353,-1.00392c-0.37163,-0.506 -0.91368,-0.16445 -1.03937,0.28961z" fill="#fffc51" stroke="none" stroke-width="0.5"/><path d="M130.72199,251.97552c0.1667,0.227 0.16629,0.74655 0.16629,1.01988c0.00553,0.1719 -0.1658,0.51315 -0.35734,0.43408c-0.28139,-0.11618 -0.72257,-0.87435 -0.86417,-1.15799l-0.00144,-0.00225c0.12567,-0.45402 0.68506,-0.79968 1.05667,-0.29368z" data-paper-data="{&quot;noHover&quot;:false,&quot;origItem&quot;:[&quot;Path&quot;,{&quot;applyMatrix&quot;:true,&quot;segments&quot;:[[[723.23608,319.06042],[1.07562,-3.88598],[0,0]],[[723.24856,319.07956],[0,0],[1.21194,2.42778]],[[730.527,328.84956],[-2.40842,-0.9944],[1.6394,0.67688]],[[733.53132,325.17416],[0.04746,1.4713],[0,-2.33936]],[[732.13174,316.58186],[1.42686,1.94284],[-3.18056,-4.33076]]],&quot;closed&quot;:true,&quot;fillColor&quot;:[0,0,0,1]}]}" fill="#a8be04" stroke="none" stroke-width="0.5"/><path d="M128.6756,253.53859c-0.03423,0.04135 -0.09266,0.04136 -0.09266,0.04136c-0.40536,-0.00142 -0.85425,0.60577 -0.65499,1.01377c0.15874,0.325 0.49294,0.46586 0.82719,0.50546c0.40817,0.06115 0.4577,-1.46606 0.01777,-1.5616zM128.57273,253.34638c0.03423,-0.04136 0.09266,-0.04136 0.09266,-0.04136l0.13993,0.00114c0.67198,0.21344 0.73733,1.98052 -0.06472,2.02625c-0.41752,-0.05425 -0.84103,-0.23464 -1.02858,-0.64926c-0.25446,-0.56258 0.29281,-1.32603 0.86067,-1.33677z" fill="#9966ff" stroke="none" stroke-width="0.5"/><path d="M133.88338,243.54343c0,3.89218 -2.96265,7.04741 -6.61729,7.04741c-3.65462,0 -6.61729,-3.15524 -6.61729,-7.04741c0,-3.89218 2.96265,-7.04741 6.61729,-7.04741c3.65462,0 6.61729,3.15524 6.61729,7.04741z" fill="#fbfdfa" stroke="#000000" stroke-width="0"/><path d="M119.60138,243.51048c0,3.13404 -2.51121,5.67467 -5.60896,5.67467c-3.09774,0 -5.60896,-2.54065 -5.60896,-5.67467c0,-3.13404 2.51121,-5.67467 5.60896,-5.67467c3.09774,0 5.60896,2.54065 5.60896,5.67467z" fill="#3da9e8" stroke="#000000" stroke-width="0"/><path d="M132.57598,243.37162c0,3.07036 -2.43274,5.55938 -5.43366,5.55938c-3.00092,0 -5.43366,-2.48901 -5.43366,-5.55938c0,-3.07036 2.43274,-5.55938 5.43366,-5.55938c3.00092,0 5.43366,2.48901 5.43366,5.55938z" fill="#3da9e8" stroke="#000000" stroke-width="0"/><path d="M117.72586,243.36587c0,2.03288 -1.60874,3.68088 -3.59324,3.68088c-1.98449,0 -3.59324,-1.64797 -3.59324,-3.68088c0,-2.03288 1.60874,-3.68088 3.59324,-3.68088c1.98449,0 3.59324,1.64798 3.59324,3.68088z" fill="#000000" stroke="#000000" stroke-width="0"/><path d="M131.06468,243.1117c0,2.15388 -1.65781,3.89998 -3.70278,3.89998c-2.045,0 -3.70278,-1.74608 -3.70278,-3.89998c0,-2.15388 1.65781,-3.89998 3.70278,-3.89998c2.045,0 3.70278,1.74608 3.70278,3.89998z" fill="#000000" stroke="#000000" stroke-width="0"/><path d="M129.32031,250.49909c-0.00022,0.0001 -0.00045,0.00022 -0.00069,0.00033l-0.00033,0.04995c0.18893,0.72986 0.67014,1.33454 1.08703,1.95412c0.57737,0.82584 0.68329,2.41213 0.07434,3.24738c-0.79093,0.98584 -2.17502,0.69824 -3.21895,0.17137c-0.67461,-0.53715 -0.85323,-1.17469 -0.56838,-2.01318c0.1323,-0.38945 0.43531,-0.704 0.52833,-1.11727c0.51828,-0.53916 1.15903,-1.27773 1.24755,-2.02699c-0.00919,-0.01466 -0.01314,-0.0265 -0.01314,-0.0265c-0.20207,-0.62616 0.30242,-0.70438 0.8051,-0.54217l0.11138,0.14623c0,0 0.05226,0.1045 -0.05226,0.15677zM128.71323,250.59256c0,0.83338 -0.68045,1.73208 -1.28552,2.3095c-0.06771,0.4028 -0.39046,0.70533 -0.51216,1.07928c-0.2416,0.7425 -0.12353,1.2648 0.4721,1.74409c0.93638,0.46248 2.20168,0.76799 2.90827,-0.11764c0.55963,-0.71705 0.43617,-2.26467 -0.08169,-2.97113c-0.43802,-0.65163 -0.93912,-1.28604 -1.12691,-2.05868l-0.00088,-0.15879c0,0 0,-0.01431 0.00501,-0.03292c-0.25679,-0.07941 -0.44928,-0.09082 -0.45099,0.09625c0.07271,0.02492 0.07271,0.11008 0.07271,0.11008z" fill="#6af2e7" stroke="none" stroke-width="0.5"/><path d="M128.74806,250.60936c0,0 -0.00046,-0.11049 -0.07448,-0.13585c0.00174,-0.19048 0.19956,-0.17877 0.46102,-0.09793c-0.00511,0.01894 -0.00511,0.03352 -0.00511,0.03352l0.00098,0.16168c0.19118,0.78662 0.71074,1.4397 1.15668,2.1031c0.52721,0.71923 0.64848,2.30928 0.07875,3.03926c-0.71937,0.90163 -2.01976,0.59114 -2.97307,0.12033c-0.60641,-0.48794 -0.73196,-1.02568 -0.48599,-1.7816c0.12388,-0.38071 0.45201,-0.69622 0.52095,-1.10629c0.61599,-0.58783 1.32013,-1.51155 1.32013,-2.35999z" data-paper-data="{&quot;noHover&quot;:false,&quot;origItem&quot;:[&quot;Path&quot;,{&quot;applyMatrix&quot;:true,&quot;segments&quot;:[[[357.49913,152.33234],[0,0],[0,3.56641]],[[351.99789,162.2156],[2.58932,-2.4709],[-0.2898,1.72374]],[[349.80623,166.83427],[0.52072,-1.60029],[-1.03391,3.17747]],[[351.82653,174.29792],[-2.54897,-2.05105],[4.00718,1.97911]],[[364.27226,173.79446],[-3.02391,3.79001],[2.39488,-3.06853]],[[363.92273,161.07974],[2.21608,3.02327],[-1.8745,-2.78859]],[[359.10024,152.26975],[0.80362,3.30652],[0,0]],[359.09649,151.59024],[[359.11793,151.44935],[-0.02144,0.07963],[-1.09895,-0.3399]],[[357.18798,151.8613],[0.00735,-0.80065],[0.31114,0.1066]],[357.49913,152.33235]],&quot;closed&quot;:true,&quot;fillColor&quot;:[0,0,0,1]}]}" fill="#b5f2ed" stroke="none" stroke-width="0.5"/><path d="M125.62815,249.49395c0.76928,0.01505 1.7162,-0.2345 2.45147,-0.36848c0.98494,-0.1408 2.00909,-0.21346 3.00253,-0.20156c0.48015,0.18258 0.45808,0.70463 0.16352,1.04149c-0.49569,0.56682 -1.16313,0.87117 -1.89582,0.98394c-1.25355,0.22756 -2.40864,0.13424 -3.51247,-0.48371c-0.29356,-0.20642 -0.57435,-0.4496 -0.50322,-0.81475c-0.00635,-0.01551 -0.0096,-0.03455 -0.00779,-0.0579c0.00897,-0.11649 0.12545,-0.10755 0.12545,-0.10755c0.01703,0.00134 0.03421,0.00254 0.05147,0.00358l0.00046,-0.00029c0,0 0.06877,-0.03753 0.1244,0.00521zM125.54166,249.72451l-0.00714,0.00298c-0.03231,0.2201 0.2716,0.43196 0.4273,0.54032c1.04752,0.59189 2.15808,0.66799 3.34936,0.45103c0.59427,-0.09141 1.21485,-0.31273 1.63251,-0.77074c0.15697,-0.17215 0.53599,-0.65219 0.09795,-0.79407c-0.97362,0.0161 -1.95804,0.06409 -2.92454,0.20207c-0.77811,0.14114 -1.77448,0.39984 -2.57541,0.36842z" fill="#6af2e7" stroke="none" stroke-width="0.5"/><path d="M128.11248,249.34535c0.96651,-0.138 1.96666,-0.17876 2.94029,-0.19486c0.43805,0.14188 0.05957,0.62524 -0.09742,0.79739c-0.41765,0.45803 -1.04072,0.68679 -1.63501,0.77819c-1.19128,0.21695 -2.32262,0.13493 -3.37014,-0.45694c-0.15568,-0.10836 -0.45963,-0.32262 -0.42734,-0.54271l0.00714,-0.00298c0.80091,0.03139 1.80434,-0.23691 2.58245,-0.37807z" data-paper-data="{&quot;noHover&quot;:false,&quot;origItem&quot;:[&quot;Path&quot;,{&quot;applyMatrix&quot;:true,&quot;segments&quot;:[[[343.92669,148.61766],[3.42749,0.13441],[0,0]],[[343.89611,148.63033],[0,0],[-0.13824,0.94189]],[[345.7247,150.94262],[-0.66629,-0.46375],[4.48278,2.53292]],[[360.05797,152.87278],[-5.09799,0.92845],[2.54315,-0.39112]],[[367.04413,149.57442],[-1.78731,1.96008],[0.67178,-0.73672]],[[367.46328,146.17626],[1.87453,0.6072],[-4.16656,0.06888]],[[354.94792,147.04105],[4.13609,-0.5905],[-3.32984,0.60403]]],&quot;closed&quot;:true,&quot;fillColor&quot;:[0,0,0,1]}]}" fill="#b5f2ed" stroke="none" stroke-width="0.5"/><path d="M127.90462,255.67728c-0.00931,-0.00525 -0.01499,-0.01117 -0.01499,-0.01117l-0.06112,-0.06711c-0.01784,-0.08442 -0.25116,-0.71259 0.07637,-0.63113c0.11878,0.02955 0.3486,0.43784 0.49,0.52513c0.54664,0.34235 1.02095,-0.18489 1.29257,-0.61359c0.27803,-0.27054 0.7139,-0.27142 0.56808,0.21838c-0.10065,0.33802 -0.40717,0.45471 -0.646,0.68353c-0.575,0.35942 -1.20205,0.4228 -1.69431,-0.08863c0,0 -0.00567,-0.0059 -0.01059,-0.01542z" fill="#ffffff" stroke="none" stroke-width="0.5"/><path d="M132.9657,248.93378c-0.03279,-0.30568 0.2728,-1.77396 0.2728,-2.04639c0,0 0,-0.11684 0.11684,-0.11684c0.04568,0 0.03763,0.03819 0.04209,0.07429c0.00695,0.0562 0.00778,0.11948 0.00778,0.11948c0.03392,0.52864 -0.12733,2.03322 -0.22499,2.44762c-0.02472,0.10492 -0.05677,0.44155 -0.00653,0.74241c0.06891,0.41254 0.23814,0.81224 0.29615,0.95213c0.12475,0.30077 0.15768,0.36984 0.21875,0.6608c0.02301,0.10962 0.1179,0.31003 0.13158,0.57231c0.01017,0.195 -0.05546,0.47716 -0.06474,0.50029c-0.28885,0.71928 -0.56324,1.29685 -0.66996,2.0958c-0.06972,0.37078 -0.18942,0.90181 -0.00455,1.24918c0.06366,0.1196 0.1491,0.20265 0.23082,0.29195c0.14938,0.16322 0.28631,0.32093 0.2549,0.57424c-0.00479,0.03864 -0.01351,0.07978 -0.02668,0.12384c0,0 0.03323,0.12295 -0.07846,0.08858c-0.11168,-0.03435 -0.11112,-0.14604 -0.11112,-0.14604c0.1135,-0.35635 -0.24873,-0.52407 -0.40536,-0.80641c-0.2161,-0.38945 -0.169,-0.99154 -0.09031,-1.41233c0.1163,-0.87392 0.40933,-1.56748 0.72986,-2.36904l0.00259,-0.09171c0,-0.18822 -0.08487,-0.45517 -0.19664,-0.75769c-0.16317,-0.44173 -0.38368,-0.95929 -0.48099,-1.41835c-0.13578,-0.6405 0.07513,-1.15091 0.05612,-1.32813z" fill="#9e9215" stroke="none" stroke-width="0.5"/><path d="M112.90023,254.93322c0.0001,-0.00224 0.00036,-0.00593 0.00098,-0.01059c0.01052,-0.22889 0.09177,-0.75657 -0.12526,-0.88217c-0.47528,-0.27508 -1.1261,0.30709 -1.32074,0.67887c-0.19216,0.40565 -0.36676,0.92267 -0.25959,1.38057c0.13863,0.59236 0.88007,0.45473 1.14481,0.1016c0.28065,-0.39198 0.39957,-0.81692 0.55979,-1.26824zM113.11331,255.03145c-0.16505,0.46622 -0.29426,0.90092 -0.58434,1.30806c-0.38304,0.51048 -1.36632,0.5975 -1.56058,-0.18507c-0.12612,-0.50811 0.06411,-1.08842 0.27792,-1.53982c0.24564,-0.45969 1.29045,-1.31473 1.76868,-0.64948c0.19521,0.27153 0.11883,0.68452 0.11883,0.99745c0,0 0,0.03662 -0.02051,0.06886z" fill="#fffc51" stroke="none" stroke-width="0.5"/><path d="M112.79959,254.92175c-0.16509,0.46503 -0.29542,0.91835 -0.58457,1.32223c-0.12619,0.16833 -0.36006,0.28851 -0.58913,0.30862c-0.26606,0.02336 -0.52561,-0.08826 -0.60234,-0.41621c-0.1104,-0.47178 0.06886,-1.021 0.26686,-1.43895c0.20053,-0.38306 0.8864,-0.98517 1.37608,-0.70177c0.22361,0.12941 0.14491,0.67921 0.13408,0.91504c-0.00064,0.00482 -0.00086,0.00873 -0.00098,0.01104z" data-paper-data="{&quot;noHover&quot;:false,&quot;origItem&quot;:[&quot;Path&quot;,{&quot;applyMatrix&quot;:true,&quot;segments&quot;:[[[579.65756,341.81574],[0,0],[0.0009,-0.01922]],[[579.66594,341.72498],[-0.00528,0.04008],[0.09002,-1.95902]],[[578.59386,334.17458],[1.85746,1.07506],[-4.06786,-2.3544]],[[567.2899,339.98488],[1.66584,-3.1821],[-1.6448,3.47186]],[[565.06814,351.8009],[-0.9171,-3.91902],[1.18646,5.07]],[[574.86632,352.6704],[-2.2658,3.02254],[2.40198,-3.3549]],[[579.65756,341.81576],[-1.37138,3.8629],[0,0]]],&quot;closed&quot;:true,&quot;fillColor&quot;:[0,0,0,1]}]}" fill="#a8be04" stroke="none" stroke-width="0.5"/><path d="M108.4916,238.50953l1.23474,-1.60436l6.09153,-0.80981c0,0 -0.73704,0.69405 -0.94712,0.84603c-0.28613,0.20697 -1.07236,0.81182 -1.07236,0.81182c0,0 -1.8333,0.67496 -2.56679,0.81127c-0.60398,0.11223 -2.36439,0.04522 -2.36439,0.04522z" fill="#fffd4d" stroke="#fffd4d" stroke-width="0.5"/><path d="M108.39697,238.71843c0.03694,-0.11085 0.14779,-0.07391 0.14779,-0.07391l0.01314,0.01068c0.78442,0 1.57092,0.16055 2.35628,0.064c1.10973,-0.22228 2.26705,-0.50794 3.18867,-1.19694c0.66505,-0.3699 1.48565,-1.20858 1.6521,-1.98043c0,0 0.02536,-0.11405 0.1394,-0.0887c0.11405,0.02533 0.0887,0.1394 0.0887,0.1394c-0.18956,0.83249 -1.02651,1.72263 -1.75308,2.1258c-0.94307,0.70983 -2.14101,1.00439 -3.27871,1.23159c-0.79928,0.09703 -1.59559,-0.06104 -2.39337,-0.06104l-0.08703,-0.02268c0,0 -0.11085,-0.03694 -0.07391,-0.14779z" fill="#000000" stroke="none" stroke-width="0.5"/><path d="M130.54966,238.68085c-0.76567,-0.15763 -1.37569,-0.62058 -1.37569,-0.62058c0,0 -1.38945,-0.91419 -1.6881,-1.15352c-0.21929,-0.17572 -0.88928,-0.98045 -0.88928,-0.98045l5.5954,0.80065l1.72092,2.06761c0,0 -2.73278,0.01607 -3.36324,-0.1137z" data-paper-data="{&quot;index&quot;:null}" fill="#fffd4d" stroke="#fffd4d" stroke-width="0.5"/><path d="M133.78405,238.98793l-0.08702,0.02269c-0.79778,0 -1.59407,0.15809 -2.39337,0.06104c-1.13772,-0.22721 -2.33564,-0.52177 -3.27871,-1.23159c-0.72657,-0.40316 -1.56352,-1.29331 -1.75308,-2.1258c0,0 -0.02533,-0.11405 0.0887,-0.1394c0.11405,-0.02533 0.1394,0.0887 0.1394,0.0887c0.16644,0.77185 0.98704,1.61053 1.6521,1.98043c0.92163,0.68899 2.07895,0.97466 3.18867,1.19694c0.78533,0.09656 1.57183,-0.064 2.35628,-0.064l0.01314,-0.01068c0,0 0.11085,-0.03694 0.14779,0.07391c0.03694,0.11085 -0.07391,0.14779 -0.07391,0.14779z" data-paper-data="{&quot;index&quot;:null}" fill="#000000" stroke="none" stroke-width="0.5"/><path d="M109.69171,257.11594c0,0 -0.1606,-0.38279 -0.16094,-0.51498c-0.00042,-0.17394 0.15864,-0.4382 0.15864,-0.4382c0,0 -0.14862,0.00142 0.08069,0.00341c0.21385,0.00189 0.30253,-0.01615 1.01042,0.08674c0.21915,0.03185 0.85185,0.42471 1.11342,0.42697c0.15189,0.00133 0.80486,-0.51306 0.96872,-0.51213c5.94564,0.03375 18.98957,0.18974 18.98957,0.18974l0.85658,0.03159c0,0 0.05598,0.02699 0.1501,0.14839c0.06927,0.08937 0.22376,0.08924 0.31299,0.20871c0.10448,0.13989 0.44427,0.40058 0.39045,0.51227c-0.08783,0.1823 -0.70516,0.48507 -0.84352,0.63959c-0.15933,0.17792 -0.36565,0.2 -0.67617,0.22356c-0.29946,0.02273 -0.69961,0.05364 -1.04717,-0.13437c-0.13627,-0.07374 -0.46567,-0.39424 -0.79544,-0.49585c-0.31045,-0.09565 -0.90593,-0.0494 -1.14976,-0.04875c-0.01779,0.00004 -0.10636,0.04404 -0.11933,0.04439c-0.08915,0.00224 -0.07475,0.00838 -0.13778,0.05666c-0.15994,0.12255 -0.34157,0.24075 -0.46234,0.19969c-0.15696,-0.05337 -0.7173,-0.39881 -0.97198,-0.34285c-0.48167,0.10586 -1.11123,0.41305 -2.01135,0.43723c-0.253,0.0068 -1.52493,-0.3755 -1.78998,-0.36787c-0.28166,0.00809 -0.68492,0.17001 -0.97504,0.17347c-0.6535,0.00781 -1.39894,-0.25314 -2.06689,-0.23606c-0.94912,0.02426 -1.49007,0.66753 -2.37396,0.66476c-0.49308,-0.00153 -1.16266,-0.58868 -1.65965,-0.5699c-0.64511,0.02438 -1.29123,0.32254 -1.74577,0.42404c-0.4406,0.09841 -0.92139,0.02912 -1.36503,0.03555c-0.2324,0.00337 -0.60207,-0.51711 -0.84019,-0.50115c-0.42978,0.02878 -0.53991,0.30046 -0.80796,0.45751c-0.25975,0.1522 -0.67961,0.1896 -0.95023,0.23324c-0.19595,0.03162 -0.31244,-0.12447 -0.4439,-0.20829c-0.13846,-0.08828 -0.28669,-0.10548 -0.28669,-0.10548z" fill="#fffd4d" stroke="none" stroke-width="0"/><path d="M116.60421,257.34481c0.64345,0.25957 1.46066,0.90369 2.19032,0.53728c0.29914,-0.09737 0.45858,-0.37082 0.75364,-0.46329c0.62275,-0.19518 1.43316,-0.01591 2.06583,0.02809c0.25063,0.04413 0.60552,0.20368 0.86362,0.15424c0.3893,-0.07458 0.66343,-0.32637 1.09244,-0.28617c0.39472,0.03698 0.68926,0.2595 1.049,0.39001c0.39084,0.14271 0.88864,0.13562 1.29685,0.04093l0.02366,-0.01181c0.43428,-0.2368 0.83684,-0.3607 1.25146,-0.42549c0.42925,-0.06708 0.63771,0.33819 1.14134,0.33819c0.23501,0 0.77029,-0.44713 1.05705,-0.44498c0.22277,0.00166 0.43658,0.02766 0.60321,0.11482c0.59123,0.30918 0.7334,0.67454 1.48112,0.67454c0.61668,0 1.70175,-0.17364 1.88935,-0.87535c0,0 0.00822,-0.12399 0.12092,-0.09324c0.11273,0.03074 0.08198,0.14347 0.08198,0.14347c-0.22553,0.81354 -1.07959,1.04754 -1.81064,1.04754c-0.24398,0 -0.69058,-0.00809 -0.91514,-0.1243c-0.33641,-0.17406 -0.68799,-0.51892 -1.05124,-0.61058c-0.12191,-0.03077 -0.25122,-0.04674 -0.38334,-0.05436c-0.26665,-0.01536 -0.7929,0.47073 -1.04408,0.47073c-0.48543,0 -0.68558,-0.45509 -1.10686,-0.38176c-0.38857,0.06765 -0.75185,0.18726 -1.14961,0.39711c-0.01828,0.02048 -0.03878,0.03072 -0.03878,0.03072l-0.04583,0.01981c-0.008,0.00198 -0.016,0.00394 -0.02405,0.00583l-0.01443,0.00724c0,0 -0.03421,0.0171 -0.07327,0.01216c-0.44084,0.09035 -0.95336,0.08916 -1.36958,-0.06164c-0.33754,-0.123 -0.6195,-0.34215 -0.98842,-0.37674c-0.40108,-0.0376 -0.66397,0.21874 -1.03262,0.28344c-0.29619,0.05198 -0.64484,-0.10151 -0.93282,-0.15246c-0.59157,-0.04332 -1.38509,-0.2259 -1.96524,-0.03764c-0.27743,0.09003 -0.4453,0.35787 -0.7361,0.45684c-0.8058,0.40123 -1.65372,-0.25392 -2.36654,-0.5362c0,0 -0.00238,-0.00095 -0.00631,-0.00293l-0.02458,-0.00103c-0.90993,0.13746 -1.6889,0.58974 -2.60917,0.58974c-0.27705,0 -0.59281,0.03575 -0.84502,-0.10211c-0.17405,-0.09514 -0.23396,-0.4434 -0.42978,-0.41163c-0.37347,0.06059 -0.80156,0.42549 -1.19513,0.53376c-1.21921,0.40694 -2.02853,-0.57345 -2.02853,-1.73928c0,-0.58079 0.59479,-1.83692 0.09682,-2.3085c0,0 -0.08261,-0.08261 0,-0.16524c0.08261,-0.08262 0.16524,0 0.16524,0c0.58761,0.60983 -0.02837,1.75543 -0.02837,2.47373c0,1.01689 0.65784,1.87162 1.72714,1.51563c0.33005,-0.08915 0.97493,-0.57651 1.28362,-0.54286c0.17895,0.0195 0.34936,0.34187 0.52166,0.43966c0.20656,0.11724 0.50485,0.07315 0.73235,0.07315c0.90116,0 1.67968,-0.44731 2.57364,-0.58703l0.06784,-0.00135c0,0 0.02511,0 0.05204,0.01164c0.01961,0.0022 0.03331,0.00768 0.03331,0.00768z" fill="#9e9215" stroke="none" stroke-width="0.5"/><path d="M124.1276,254.91503l0.07709,0.10324c0.50404,0.90434 1.15099,-0.02444 1.15099,-0.69793c0,0 0,-0.11685 0.11684,-0.11685c0.11684,0 0.11685,0.11685 0.11685,0.11685c0,0.89065 -0.95482,1.95555 -1.58072,0.82506l-0.06795,-0.09016c0,0 -0.0701,-0.09346 0.02337,-0.16358c0.09346,-0.0701 0.16358,0.02337 0.16358,0.02337z" data-paper-data="{&quot;index&quot;:null}" fill="#000000" stroke="none" stroke-width="0.5"/><path d="M120.7114,256.18261c0.88631,0.14818 0.88276,-1.46477 0.87621,-1.8358c-0.00289,-0.16362 -0.18139,-0.59797 0.08376,-0.59797c0.17691,0 0.14992,1.1095 0.14991,1.13531c-0.00054,0.66908 -0.32469,1.47496 -1.09565,1.53216c-0.85184,0.0632 -0.93447,-1.07398 -0.85758,-1.61822c0.007,-0.0496 0.02697,-0.34129 0.0449,-0.49452c0.00004,0.11909 0.01059,0.23552 0.03823,0.34307c0.01362,0.05303 0.03718,0.08869 0.06664,0.11036c0.01558,0.12339 0.03492,0.23369 0.0569,0.32403c0.00238,0.17376 0.02202,0.33517 0.07039,0.46924c0.02274,0.30836 0.15013,0.56274 0.56632,0.63232z" fill="#000000" stroke="none" stroke-width="0.5"/><path d="M117.55023,254.73374c0.09346,0.0701 0.02337,0.16358 0.02337,0.16358l-0.06796,0.09016c-0.62592,1.1305 -1.58072,0.06556 -1.58072,-0.82506c0,0 0,-0.11685 0.11684,-0.11685c0.11684,0 0.11685,0.11685 0.11685,0.11685c0,0.67348 0.64694,1.60225 1.15099,0.69793l0.07709,-0.10324c0,0 0.0701,-0.09346 0.16358,-0.02337z" fill="#000000" stroke="none" stroke-width="0.5"/></g><text transform="translate(103.49041,268.29199) scale(0.34209,0.35095)" font-size="40" xml:space="preserve" fill="#000000" fill-rule="nonzero" stroke="none" stroke-width="1" stroke-linecap="butt" stroke-linejoin="miter" stroke-miterlimit="10" stroke-dasharray="" stroke-dashoffset="0" font-family="&quot;GenEiPOPlePw-Bk&quot;, Sans Serif" font-weight="normal" text-anchor="start" style="mix-blend-mode: normal"><tspan x="0" dy="0">cara</tspan></text></g></g></svg>