<svg version="1.1" xmlns="http://www.w3.org/2000/svg" xmlns:xlink="http://www.w3.org/1999/xlink" width="65.96776" height="69.26612" viewBox="0,0,65.96776,69.26612"><defs><linearGradient x1="107.66326" y1="108.0417" x2="173.63102" y2="108.0417" gradientUnits="userSpaceOnUse" id="color-1"><stop offset="0" stop-color="#4100db"/><stop offset="1" stop-color="#00c6db"/></linearGradient></defs><g transform="translate(-107.66325,-73.40863)"><g data-paper-data="{&quot;isPaintingLayer&quot;:true}" fill-rule="nonzero" stroke-linecap="butt" stroke-linejoin="miter" stroke-miterlimit="10" stroke-dasharray="" stroke-dashoffset="0" style="mix-blend-mode: normal"><text transform="translate(115.11876,128.95332) scale(0.32984,0.32984)" font-size="40" xml:space="preserve" fill="#db00b7" fill-rule="nonzero" stroke="none" stroke-width="1" stroke-linecap="butt" stroke-linejoin="miter" stroke-miterlimit="10" stroke-dasharray="" stroke-dashoffset="0" font-family="Sans Serif" font-weight="normal" text-anchor="start" style="mix-blend-mode: normal"><tspan x="0" dy="0">glasses</tspan></text><path d="M128.19735,102.72673c0,0.49476 -0.49476,0.49476 -0.49476,0.49476l-0.49936,-0.02539c-2.26538,-0.77655 -4.4135,-1.66891 -6.50733,-2.93678c-0.96273,-0.58296 -2.484,-2.05865 -3.62326,-2.00989c0,0 -0.49476,0 -0.49476,-0.49476c0,-0.49476 0.49476,-0.49476 0.49476,-0.49476c1.47934,0.03823 2.89361,1.40032 4.13592,2.15305c2.0269,1.22813 4.1019,2.1256 6.30758,2.84441l0.18644,-0.02539c0,0 0.49476,0 0.49476,0.49476z" fill="#db00b7" stroke="none" stroke-width="0.5"/><path d="M150.76474,94.78751c-0.16069,0.46793 -0.62862,0.30724 -0.62862,0.30724l-0.2948,-0.1065c-3.63258,-0.72159 -7.66633,-2.15725 -11.00234,-3.77705c0,0 -0.44439,-0.21749 -0.2269,-0.66188c0.21749,-0.44439 0.66188,-0.2269 0.66188,-0.2269c3.19653,1.57878 7.24904,3.05734 10.75316,3.69391l0.43038,0.14254c0,0 0.46793,0.16069 0.30724,0.62862z" fill="#db00b7" stroke="none" stroke-width="0.5"/><path d="M144.50475,103.58398c0,4.82918 -3.988,8.74399 -8.90743,8.74399c-4.91944,0 -8.90743,-3.91482 -8.90743,-8.74399c0,-4.82918 3.988,-8.74399 8.90743,-8.74399c4.91944,0 8.90743,3.91482 8.90743,8.74399z" fill="#db00b7" stroke="none" stroke-width="0"/><path d="M159.24955,99.04055c0,4.68714 -3.49263,8.48682 -7.80102,8.48682c-4.30838,0 -7.80102,-3.79968 -7.80102,-8.48682c0,-4.68714 3.49263,-8.48682 7.80102,-8.48682c4.30838,0 7.80102,3.79968 7.80102,8.48682z" fill="#db00b7" stroke="none" stroke-width="0"/><path d="M173.63102,108.0417c0,19.12732 -14.76738,34.63306 -32.98388,34.63306c-18.21649,0 -32.98388,-15.50575 -32.98388,-34.63306c0,-19.12732 14.76738,-34.63306 32.98388,-34.63306c18.21649,0 32.98388,15.50575 32.98388,34.63306z" fill="url(#color-1)" stroke="#0b61a3" stroke-width="0"/><text transform="translate(110.25113,114.42215) scale(0.54133,0.54133)" font-size="40" xml:space="preserve" fill="#ffffff" fill-rule="nonzero" stroke="none" stroke-width="1" stroke-linecap="butt" stroke-linejoin="miter" stroke-miterlimit="10" stroke-dasharray="" stroke-dashoffset="0" font-family="&quot;GenEiPOPlePw-Bk&quot;, Sans Serif" font-weight="normal" text-anchor="start" style="mix-blend-mode: normal"><tspan x="0" dy="0">メガネ</tspan></text><path d="M140.05995,87.11988c0,3.52161 -2.77148,6.37644 -6.19027,6.37644c-3.41879,0 -6.19026,-2.85483 -6.19026,-6.37644c0,-3.52161 2.77147,-6.37644 6.19026,-6.37644c3.41879,0 6.19027,2.85483 6.19027,6.37644z" fill-opacity="0.2902" fill="#66d4ff" stroke="#000000" stroke-width="1"/><path d="M152.7563,87.14469c0,3.52161 -2.77147,6.37644 -6.19026,6.37644c-3.41879,0 -6.19027,-2.85483 -6.19027,-6.37644c0,-3.52161 2.77148,-6.37644 6.19027,-6.37644c3.41879,0 6.19026,2.85483 6.19026,6.37644z" fill-opacity="0.2902" fill="#66d4ff" stroke="#000000" stroke-width="1"/></g></g></svg>