<svg version="1.1" xmlns="http://www.w3.org/2000/svg" xmlns:xlink="http://www.w3.org/1999/xlink" width="133.26623" height="43.56678" viewBox="0,0,133.26623,43.56678"><g transform="translate(-254.3542,-243.01462)"><g data-paper-data="{&quot;isPaintingLayer&quot;:true}" fill-rule="nonzero" stroke-linejoin="miter" stroke-miterlimit="10" stroke-dasharray="" stroke-dashoffset="0" style="mix-blend-mode: normal"><path d="M274.09793,264.15664c0,0 0.21651,1.40192 0.29646,3.01981c0.10418,2.10805 -0.26696,5.22156 -0.27006,5.34002c-0.10873,4.15331 -1.39856,6.56867 -2.11647,9.32641c-0.23768,0.913 -1.48562,2.86313 -2.20054,2.82501c-0.20383,-0.01086 0.59764,-0.52574 0.29698,-0.19502c-0.05408,0.05947 -0.29393,0.00009 -0.3703,0.04286c-0.34342,0.19227 -0.92244,0.36641 -1.47373,0.45338c-0.18509,0.0292 -0.31362,-0.00369 -0.47392,0.09966c-0.13005,0.08384 -1.37672,-0.26131 -1.50858,-0.19007c-0.26378,0.14251 -1.02708,-0.3435 -1.25305,-0.22778c-1.16949,0.59888 -1.24753,0.36442 -2.16984,0.96489c-0.18179,0.11835 -1.63537,-0.12441 -2.43411,-0.85455c-0.72427,-0.66207 -0.80007,-1.81612 -0.9524,-1.76452c-0.22258,0.07538 0.27028,-3.00078 0.05156,-2.9332c-2.45831,0.75962 -4.5947,0.93678 -4.6545,-1.48251c-0.00219,-0.08825 -0.38293,-0.69667 0.442,-2.00191c0.73434,-1.1619 1.91913,-2.49904 2.83518,-3.87391c1.40734,-2.11223 2.46126,-4.12399 2.46416,-4.24748c0.00429,-0.18258 0.23598,-0.45235 0.28484,-0.63083c0.79143,-2.89096 0.74404,-5.7029 1.96761,-7.46052c1.0329,-1.48372 2.91495,-2.22538 4.28051,-2.15258c1.10973,0.05916 2.12449,-0.98003 2.92631,0.11947c0.31582,0.43308 2.27931,1.50894 2.53827,1.79747c0.56094,0.625 0.34357,0.96485 0.59882,1.92184c0.13198,0.4948 0.88596,1.15458 0.89481,2.10405z" fill="#fffd4d" stroke="#000000" stroke-width="0" stroke-linecap="butt"/><path d="M266.0417,258.15364c0,0 0.52783,0.08149 0.54471,0.18259c0.04117,0.24658 -0.46239,0.31059 -0.46239,0.31059c-0.86889,0.14322 -1.90049,0.49994 -2.71303,1.28809c-0.35517,0.34451 -0.89339,1.55538 -0.89339,1.55538c-0.36714,1.70567 -0.63324,3.3949 -0.99189,5.01785c-0.76849,2.49672 -1.94671,4.6865 -3.48992,6.77042c-1.25104,1.85464 -3.21564,3.16626 -2.99743,5.61728c0.4177,2.27794 4.56446,1.34054 5.6487,0.36849c1.47394,-1.65584 3.94487,-3.33387 4.06709,-5.76146c0,0 0.01331,-0.24964 0.26295,-0.23633c0.24964,0.01331 0.23633,0.26296 0.23633,0.26296c-0.14509,2.59366 -2.62945,4.31437 -4.2121,6.08766c-0.33099,0.29817 -0.95899,0.74769 -1.50523,0.95148c0.04944,0.14416 -0.02748,0.8179 -0.04846,1.21129c-0.12645,2.30745 1.73881,4.53864 4.10271,3.27408c0.47664,-0.17967 1.58629,-0.89599 1.62976,-0.87525c1.52933,-1.14498 2.14191,-2.81097 2.91598,-4.78131c0.56432,-2.02999 1.00453,-3.78171 0.8092,-5.90885c0,0 -0.02212,-0.24901 0.22689,-0.27114c0.24901,-0.02213 0.27114,0.22689 0.27114,0.22689c0.18777,2.19715 -0.24641,4.01379 -0.83316,6.11204c-0.78487,1.98978 -1.43926,3.67607 -2.9178,4.8776c0.15371,0.0777 1.99518,0.5977 3.24732,0.27204c0.09044,-0.02352 0.87777,-0.23888 1.46778,-0.7446c0.75835,-0.65001 1.36097,-1.67292 1.53985,-2.25478c1.21116,-2.03415 1.56588,-5.7582 1.68849,-8.1c0.40056,-3.07145 0.78381,-6.45397 0.13103,-9.48479c-0.18099,-1.79539 -1.07857,-4.05813 -2.68903,-4.97363c0,0 -0.21733,-0.12356 -0.09379,-0.34089c0.12356,-0.21734 0.34089,-0.0938 0.34089,-0.0938c1.76146,1.00135 2.69657,3.37355 2.93536,5.32751c0.66471,3.06789 0.28115,6.50269 -0.12658,9.61159c-0.13923,2.47971 -0.64648,6.11299 -1.8451,8.30343c-0.39412,1.28206 -1.56071,2.66554 -2.96583,3.20876c-1.20544,0.46603 -2.70112,0.18603 -2.73253,0.14244c-0.47598,-0.1152 -0.91584,-0.31288 -1.34411,-0.54298c-0.41852,0.28185 -0.89631,0.53119 -1.44914,0.74502c-2.70624,1.42078 -4.94748,-1.08498 -4.80865,-3.75599c0.02074,-0.38906 0.04149,-0.77812 0.06223,-1.16718c-1.81307,0.46993 -4.03457,0.23495 -4.50611,-1.61221c-0.23531,-2.65196 1.73412,-3.98637 3.08361,-5.98487c1.51723,-2.01892 2.66792,-4.17807 3.41418,-6.60867c0.36642,-1.64297 0.87115,-5.33863 1.05322,-5.37058c0.47187,-1.46818 2.54408,-2.61945 3.94616,-2.85619z" fill="#000000" stroke="none" stroke-width="0.5" stroke-linecap="butt"/><path d="M367.843,264.57884c0.00885,-0.94947 0.76284,-1.60925 0.89481,-2.10405c0.25525,-0.95699 0.03787,-1.29684 0.59882,-1.92184c0.25896,-0.28853 2.22245,-1.36439 2.53827,-1.79747c0.80182,-1.0995 1.81658,-0.06031 2.92631,-0.11947c1.36556,-0.0728 3.24761,0.66886 4.28051,2.15258c1.22357,1.75762 1.17618,4.56956 1.96761,7.46052c0.04886,0.17848 0.28055,0.44825 0.28484,0.63083c0.0029,0.12349 1.05682,2.13525 2.46416,4.24748c0.91605,1.37487 2.10084,2.71201 2.83518,3.87391c0.82493,1.30524 0.44419,1.91366 0.442,2.00191c-0.0598,2.41929 -2.19619,2.24213 -4.6545,1.48251c-0.21872,-0.06758 0.27414,3.00858 0.05156,2.9332c-0.15233,-0.0516 -0.22813,1.10245 -0.9524,1.76452c-0.79874,0.73014 -2.25232,0.9729 -2.43411,0.85455c-0.92231,-0.60047 -1.00035,-0.36601 -2.16984,-0.96489c-0.22597,-0.11572 -0.98927,0.37029 -1.25305,0.22778c-0.13186,-0.07124 -1.37853,0.27391 -1.50858,0.19007c-0.1603,-0.10335 -0.28883,-0.07046 -0.47392,-0.09966c-0.55129,-0.08697 -1.13031,-0.26111 -1.47373,-0.45338c-0.07637,-0.04277 -0.31622,0.01661 -0.3703,-0.04286c-0.30066,-0.33072 0.50081,0.18416 0.29698,0.19502c-0.71492,0.03812 -1.96286,-1.91201 -2.20054,-2.82501c-0.71791,-2.75774 -2.00774,-5.1731 -2.11647,-9.32641c-0.0031,-0.11846 -0.37424,-3.23197 -0.27006,-5.34002c0.07995,-1.61789 0.29646,-3.01981 0.29646,-3.01981z" fill="#fffd4d" stroke="#000000" stroke-width="0" stroke-linecap="butt"/><path d="M375.89933,258.57583c1.40208,0.23674 3.47429,1.38801 3.94616,2.85619c0.18207,0.03195 0.6868,3.72761 1.05322,5.37058c0.74626,2.4306 1.89695,4.58975 3.41418,6.60867c1.34949,1.9985 3.31892,3.33291 3.08361,5.98487c-0.47154,1.84716 -2.69304,2.08214 -4.50611,1.61221c0.02074,0.38906 0.04149,0.77812 0.06223,1.16718c0.13883,2.67101 -2.10241,5.17677 -4.80865,3.75599c-0.55283,-0.21383 -1.03062,-0.46317 -1.44914,-0.74502c-0.42827,0.2301 -0.86813,0.42778 -1.34411,0.54298c-0.03141,0.04359 -1.52709,0.32359 -2.73253,-0.14244c-1.40512,-0.54322 -2.57171,-1.9267 -2.96583,-3.20876c-1.19862,-2.19044 -1.70587,-5.82372 -1.8451,-8.30343c-0.40773,-3.1089 -0.79129,-6.5437 -0.12658,-9.61159c0.23879,-1.95396 1.1739,-4.32616 2.93536,-5.32751c0,0 0.21733,-0.12354 0.34089,0.0938c0.12354,0.21733 -0.09379,0.34089 -0.09379,0.34089c-1.61046,0.9155 -2.50804,3.17824 -2.68903,4.97363c-0.65278,3.03082 -0.26953,6.41334 0.13103,9.48479c0.12261,2.3418 0.47733,6.06585 1.68849,8.1c0.17888,0.58186 0.7815,1.60477 1.53985,2.25478c0.59001,0.50572 1.37734,0.72108 1.46778,0.7446c1.25214,0.32566 3.09361,-0.19434 3.24732,-0.27204c-1.47854,-1.20153 -2.13293,-2.88782 -2.9178,-4.8776c-0.58675,-2.09825 -1.02093,-3.91489 -0.83316,-6.11204c0,0 0.02213,-0.24902 0.27114,-0.22689c0.24901,0.02213 0.22689,0.27114 0.22689,0.27114c-0.19533,2.12714 0.24488,3.87886 0.8092,5.90885c0.77407,1.97034 1.38665,3.63633 2.91598,4.78131c0.04347,-0.02074 1.15312,0.69558 1.62976,0.87525c2.3639,1.26456 4.22916,-0.96663 4.10271,-3.27408c-0.02098,-0.39339 -0.0979,-1.06713 -0.04846,-1.21129c-0.54624,-0.20379 -1.17424,-0.65331 -1.50523,-0.95148c-1.58265,-1.77329 -4.06701,-3.494 -4.2121,-6.08766c0,0 -0.01331,-0.24965 0.23633,-0.26296c0.24964,-0.01331 0.26295,0.23633 0.26295,0.23633c0.12222,2.42759 2.59315,4.10562 4.06709,5.76146c1.08424,0.97205 5.231,1.90945 5.6487,-0.36849c0.21821,-2.45102 -1.74639,-3.76264 -2.99743,-5.61728c-1.54321,-2.08392 -2.72143,-4.2737 -3.48992,-6.77042c-0.35865,-1.62295 -0.62475,-3.31218 -0.99189,-5.01785c0,0 -0.53822,-1.21087 -0.89339,-1.55538c-0.81254,-0.78815 -1.84414,-1.14487 -2.71303,-1.28809c0,0 -0.50356,-0.06401 -0.46239,-0.31059c0.01688,-0.1011 0.54471,-0.18259 0.54471,-0.18259z" fill="#000000" stroke="none" stroke-width="0.5" stroke-linecap="butt"/><g stroke-linecap="butt"><path d="M257.7073,276.27128c0,0 0.45219,0.06667 0.45219,-0.45328c0,-0.51996 -0.53993,-0.52832 -0.53993,-0.52832l-0.32208,-0.00168c2.58576,-1.53422 4.08084,-3.72886 5.82101,-6.19475c0.83386,-1.39687 1.91164,0.00532 2.49061,0.84749c-1.71522,1.69887 -3.47822,3.46991 -5.15829,5.37946c-0.81036,0.92106 -1.53413,2.66547 -2.63509,3.10826c-0.51961,-0.19621 -1.17048,-1.34763 -1.22642,-2.15165c0.17117,0.03093 0.4255,-0.00877 0.58617,-0.00267l0.53184,-0.00287z" data-paper-data="{&quot;noHover&quot;:false,&quot;origItem&quot;:[&quot;Path&quot;,{&quot;applyMatrix&quot;:true,&quot;segments&quot;:[[[583.25139,495.65874],[0,1],[0,-1]],[584.25139,494.65874],[[584.85269,494.65874],[0,0],[-4.84073,-2.95068]],[[574.08601,482.88011],[3.25773,4.74252],[-1.56105,-2.68651]],[[569.46039,484.48145],[1.08387,-1.6197],[3.21102,3.26736]],[[579.00685,494.67021],[-3.14521,-3.67254],[1.51706,1.77141]],[[583.91806,500.65874],[-2.06109,-0.8516],[0.97275,-0.37736]],[[586.18396,496.55072],[-0.10473,1.54633],[-0.32045,0.05949]],[[585.25139,496.65874],[0.30079,-0.01173],[0,0]],[584.25139,496.65874]],&quot;closed&quot;:true}],&quot;index&quot;:null}" fill="#744824" stroke="none" stroke-width="0.5"/><path d="M273.80196,264.01604c0,0 0.21651,1.40192 0.29646,3.01981c0.10418,2.10805 -0.26696,5.22156 -0.27006,5.34002c-0.07758,2.96339 -0.25874,5.53972 -0.90213,7.48923c-0.25834,0.7828 -0.75982,1.42036 -0.9655,2.21045c-0.23768,0.913 -1.73447,2.48986 -2.44939,2.45174c-0.20383,-0.01086 0.59764,-0.52574 0.29698,-0.19502c-0.05408,0.05947 -0.29393,0.00009 -0.3703,0.04286c-0.34342,0.19227 -0.92244,0.36641 -1.47373,0.45338c-0.18509,0.0292 -0.31362,-0.00369 -0.47392,0.09966c-0.13005,0.08384 -1.37672,-0.26131 -1.50858,-0.19007c-0.26378,0.14251 -1.02708,-0.3435 -1.25305,-0.22778c-1.16949,0.59888 -1.24753,0.36442 -2.16984,0.96489c-0.18179,0.11835 -1.63537,-0.12441 -2.43411,-0.85455c-0.72427,-0.66207 -0.80007,-1.81612 -0.9524,-1.76452c-0.22258,0.07538 0.27028,-3.00078 0.05156,-2.9332c-2.45831,0.75962 -4.5947,0.93678 -4.6545,-1.48251c-0.00219,-0.08825 -0.38293,-0.69667 0.442,-2.00191c0.73434,-1.1619 1.91913,-2.49904 2.83518,-3.87391c1.40734,-2.11223 2.46126,-4.12399 2.46416,-4.24748c0.00429,-0.18258 0.23598,-0.45235 0.28484,-0.63083c0.79143,-2.89096 0.74404,-5.7029 1.96761,-7.46052c1.0329,-1.48372 2.44124,-1.90957 3.8068,-1.83677c0.82686,0.04408 1.86397,-0.14427 2.67066,-0.0701c0.27597,0.02538 1.39344,-0.0907 1.59783,0.18957c0.31582,0.43308 1.41084,1.19313 1.6698,1.48166c0.62608,0.69758 0.70534,1.03993 0.93584,2.28161c0.0828,0.44601 0.55093,1.00806 0.55779,1.74428z" data-paper-data="{&quot;index&quot;:null}" fill="#3d96ca" stroke="#000000" stroke-width="0"/><path d="M265.87074,258.13804c0,0 0.52783,0.08149 0.54471,0.18259c0.04117,0.24658 -0.46239,0.31059 -0.46239,0.31059c-0.86889,0.14322 -1.90049,0.49994 -2.71303,1.28809c-0.35517,0.34451 -0.89339,1.55538 -0.89339,1.55538c-0.36714,1.70567 -0.63324,3.3949 -0.99189,5.01785c-0.76849,2.49672 -1.94671,4.6865 -3.48992,6.77042c-1.25104,1.85464 -3.21564,3.16626 -2.99743,5.61728c0.4177,2.27794 4.56446,1.34054 5.6487,0.36849c1.47394,-1.65584 3.94487,-3.33387 4.06709,-5.76146c0,0 0.01331,-0.24964 0.26295,-0.23633c0.24964,0.01331 0.23633,0.26296 0.23633,0.26296c-0.14509,2.59366 -2.62945,4.31437 -4.2121,6.08766c-0.33099,0.29817 -0.95899,0.74769 -1.50523,0.95148c0.04944,0.14416 -0.02748,0.8179 -0.04846,1.21129c-0.12645,2.30745 1.73881,4.53864 4.10271,3.27408c0.47664,-0.17967 1.58629,-0.89599 1.62976,-0.87525c1.52933,-1.14498 2.14191,-2.81097 2.91598,-4.78131c0.56432,-2.02999 1.00453,-3.78171 0.8092,-5.90885c0,0 -0.02212,-0.24901 0.22689,-0.27114c0.24901,-0.02213 0.27114,0.22689 0.27114,0.22689c0.18777,2.19715 -0.24641,4.01379 -0.83316,6.11204c-0.78487,1.98978 -1.43926,3.67607 -2.9178,4.8776c0.15371,0.0777 1.99518,0.5977 3.24732,0.27204c0.09044,-0.02352 0.87777,-0.23888 1.46778,-0.7446c0.75835,-0.65001 1.36097,-1.67292 1.53985,-2.25478c1.21116,-2.03415 1.56588,-5.7582 1.68849,-8.1c0.40056,-3.07145 0.78381,-6.45397 0.13103,-9.48479c-0.18099,-1.79539 -1.07857,-4.05813 -2.68903,-4.97363c0,0 -0.21733,-0.12356 -0.09379,-0.34089c0.12356,-0.21734 0.34089,-0.0938 0.34089,-0.0938c1.76146,1.00135 2.69657,3.37355 2.93536,5.32751c0.66471,3.06789 0.28115,6.50269 -0.12658,9.61159c-0.13923,2.47971 -0.64648,6.11299 -1.8451,8.30343c-0.39412,1.28206 -1.56071,2.66554 -2.96583,3.20876c-1.20544,0.46603 -2.70112,0.18603 -2.73253,0.14244c-0.47598,-0.1152 -0.91584,-0.31288 -1.34411,-0.54298c-0.41852,0.28185 -0.89631,0.53119 -1.44914,0.74502c-2.70624,1.42078 -4.94748,-1.08498 -4.80865,-3.75599c0.02074,-0.38906 0.04149,-0.77812 0.06223,-1.16718c-1.81307,0.46993 -4.03457,0.23495 -4.50611,-1.61221c-0.23531,-2.65196 1.73412,-3.98637 3.08361,-5.98487c1.51723,-2.01892 2.66792,-4.17807 3.41418,-6.60867c0.36642,-1.64297 0.87115,-5.33863 1.05322,-5.37058c0.47187,-1.46818 2.54408,-2.61945 3.94616,-2.85619z" data-paper-data="{&quot;index&quot;:null}" fill="#000000" stroke="none" stroke-width="0.5"/></g><path d="M266.42164,263.84443c0,0 -1.05844,-3.29576 -1.59893,-5.89895c-0.78794,-3.79498 -3.31581,-14.88973 -3.31581,-14.88973l12.64466,0.21431l-4.06838,18.64552z" fill="#3d96ca" stroke="none" stroke-width="0" stroke-linecap="butt"/><path d="M264.93596,258.70085l-3.21474,-15.43078l12.21603,0.21432l-3.00043,15.21646" fill="none" stroke="#000000" stroke-width="0.5" stroke-linecap="round"/><path d="M367.87667,264.81734c0.00885,-0.94947 0.76283,-1.60925 0.89481,-2.10405c0.25525,-0.95699 0.03788,-1.29684 0.59882,-1.92184c0.25896,-0.28853 2.22245,-1.36439 2.53827,-1.79747c0.80182,-1.0995 1.81658,-0.06031 2.92631,-0.11947c1.36556,-0.0728 3.24761,0.66886 4.28051,2.15258c1.22357,1.75762 1.17618,4.56956 1.96761,7.46052c0.04886,0.17848 0.28055,0.44825 0.28484,0.63083c0.0029,0.12349 1.05682,2.13525 2.46416,4.24748c0.91605,1.37487 2.10084,2.71201 2.83518,3.87391c0.82493,1.30524 0.44419,1.91366 0.442,2.00191c-0.0598,2.41929 -2.19619,2.24213 -4.6545,1.48251c-0.21872,-0.06758 0.27414,3.00858 0.05156,2.9332c-0.15233,-0.0516 -0.22813,1.10245 -0.9524,1.76452c-0.79874,0.73014 -2.25232,0.9729 -2.43411,0.85455c-0.92231,-0.60047 -1.00035,-0.36601 -2.16984,-0.96489c-0.22597,-0.11572 -0.98927,0.37029 -1.25305,0.22778c-0.13186,-0.07124 -1.37853,0.27391 -1.50858,0.19007c-0.1603,-0.10335 -0.28883,-0.07046 -0.47392,-0.09966c-0.55129,-0.08697 -1.13031,-0.26111 -1.47373,-0.45338c-0.07637,-0.04277 -0.31622,0.01661 -0.3703,-0.04286c-0.30066,-0.33072 0.50081,0.18416 0.29698,0.19502c-0.71492,0.03812 -1.96286,-1.91201 -2.20054,-2.82501c-0.71791,-2.75774 -2.00774,-5.1731 -2.11647,-9.32641c-0.0031,-0.11846 -0.37424,-3.23197 -0.27006,-5.34002c0.07995,-1.61789 0.29646,-3.01981 0.29646,-3.01981z" data-paper-data="{&quot;index&quot;:null}" fill="#fffd4d" stroke="#000000" stroke-width="0" stroke-linecap="butt"/><path d="M375.933,258.81433c1.40208,0.23674 3.47429,1.38801 3.94616,2.85619c0.18207,0.03195 0.6868,3.72761 1.05322,5.37058c0.74626,2.4306 1.89695,4.58975 3.41418,6.60867c1.34949,1.9985 3.31892,3.33291 3.08361,5.98487c-0.47154,1.84716 -2.69304,2.08214 -4.50611,1.61221c0.02074,0.38906 0.04149,0.77812 0.06223,1.16718c0.13883,2.67101 -2.10241,5.17677 -4.80865,3.75599c-0.55283,-0.21383 -1.03062,-0.46317 -1.44914,-0.74502c-0.42827,0.2301 -0.86813,0.42778 -1.34411,0.54298c-0.03141,0.04359 -1.52709,0.32359 -2.73253,-0.14244c-1.40512,-0.54322 -2.57171,-1.9267 -2.96583,-3.20876c-1.19862,-2.19044 -1.70587,-5.82372 -1.8451,-8.30343c-0.40773,-3.1089 -0.79129,-6.5437 -0.12658,-9.61159c0.23879,-1.95396 1.1739,-4.32616 2.93536,-5.32751c0,0 0.21733,-0.12354 0.34089,0.0938c0.12354,0.21733 -0.09379,0.34089 -0.09379,0.34089c-1.61046,0.9155 -2.50804,3.17824 -2.68903,4.97363c-0.65278,3.03082 -0.26953,6.41334 0.13103,9.48479c0.12261,2.3418 0.47733,6.06585 1.68849,8.1c0.17888,0.58186 0.7815,1.60477 1.53985,2.25478c0.59001,0.50572 1.37734,0.72108 1.46778,0.7446c1.25214,0.32566 3.09361,-0.19434 3.24732,-0.27204c-1.47854,-1.20153 -2.13293,-2.88782 -2.9178,-4.8776c-0.58675,-2.09825 -1.02093,-3.91489 -0.83316,-6.11204c0,0 0.02213,-0.24902 0.27114,-0.22689c0.24901,0.02213 0.22689,0.27114 0.22689,0.27114c-0.19533,2.12714 0.24488,3.87886 0.8092,5.90885c0.77407,1.97034 1.38665,3.63633 2.91598,4.78131c0.04347,-0.02074 1.15312,0.69558 1.62976,0.87525c2.3639,1.26456 4.22916,-0.96663 4.10271,-3.27408c-0.02098,-0.39339 -0.0979,-1.06713 -0.04846,-1.21129c-0.54624,-0.20379 -1.17424,-0.65331 -1.50523,-0.95148c-1.58265,-1.77329 -4.06701,-3.494 -4.2121,-6.08766c0,0 -0.01331,-0.24965 0.23633,-0.26296c0.24964,-0.01331 0.26295,0.23633 0.26295,0.23633c0.12222,2.42759 2.59315,4.10562 4.06709,5.76146c1.08424,0.97205 5.231,1.90945 5.6487,-0.36849c0.21821,-2.45102 -1.74639,-3.76264 -2.99743,-5.61728c-1.54321,-2.08392 -2.72143,-4.2737 -3.48992,-6.77042c-0.35865,-1.62295 -0.62475,-3.31218 -0.99189,-5.01785c0,0 -0.53822,-1.21087 -0.89339,-1.55538c-0.81254,-0.78815 -1.84414,-1.14487 -2.71303,-1.28809c0,0 -0.50356,-0.06401 -0.46239,-0.31059c0.01688,-0.1011 0.54471,-0.18259 0.54471,-0.18259z" data-paper-data="{&quot;index&quot;:null}" fill="#000000" stroke="none" stroke-width="0.5" stroke-linecap="butt"/><g data-paper-data="{&quot;index&quot;:null}" stroke-linecap="butt"><path d="M384.2673,276.93199l0.53184,0.00287c0.16067,-0.0061 0.415,0.0336 0.58617,0.00267c-0.05594,0.80402 -0.70681,1.95544 -1.22642,2.15165c-1.10096,-0.44279 -1.82473,-2.1872 -2.63509,-3.10826c-1.68007,-1.90955 -3.44307,-3.68059 -5.15829,-5.37946c0.57897,-0.84217 1.65675,-2.24436 2.49061,-0.84749c1.74017,2.46589 3.23525,4.66053 5.82101,6.19475l-0.32208,0.00168c0,0 -0.53993,0.00836 -0.53993,0.52832c0,0.51995 0.45219,0.45328 0.45219,0.45328z" data-paper-data="{&quot;noHover&quot;:false,&quot;origItem&quot;:[&quot;Path&quot;,{&quot;applyMatrix&quot;:true,&quot;segments&quot;:[[[583.25139,495.65874],[0,1],[0,-1]],[584.25139,494.65874],[[584.85269,494.65874],[0,0],[-4.84073,-2.95068]],[[574.08601,482.88011],[3.25773,4.74252],[-1.56105,-2.68651]],[[569.46039,484.48145],[1.08387,-1.6197],[3.21102,3.26736]],[[579.00685,494.67021],[-3.14521,-3.67254],[1.51706,1.77141]],[[583.91806,500.65874],[-2.06109,-0.8516],[0.97275,-0.37736]],[[586.18396,496.55072],[-0.10473,1.54633],[-0.32045,0.05949]],[[585.25139,496.65874],[0.30079,-0.01173],[0,0]],[584.25139,496.65874]],&quot;closed&quot;:true}],&quot;index&quot;:null}" fill="#744824" stroke="none" stroke-width="0.5"/><path d="M368.17265,264.67674c0.00686,-0.73622 0.47499,-1.29827 0.55779,-1.74428c0.2305,-1.24168 0.30976,-1.58403 0.93584,-2.28161c0.25896,-0.28853 1.35398,-1.04858 1.6698,-1.48166c0.20439,-0.28027 1.32186,-0.16419 1.59783,-0.18957c0.80669,-0.07417 1.8438,0.11418 2.67066,0.0701c1.36556,-0.0728 2.7739,0.35305 3.8068,1.83677c1.22357,1.75762 1.17618,4.56956 1.96761,7.46052c0.04886,0.17848 0.28055,0.44825 0.28484,0.63083c0.0029,0.12349 1.05682,2.13525 2.46416,4.24748c0.91605,1.37487 2.10084,2.71201 2.83518,3.87391c0.82493,1.30524 0.44419,1.91366 0.442,2.00191c-0.0598,2.41929 -2.19619,2.24213 -4.6545,1.48251c-0.21872,-0.06758 0.27414,3.00858 0.05156,2.9332c-0.15233,-0.0516 -0.22813,1.10245 -0.9524,1.76452c-0.79874,0.73014 -2.25232,0.9729 -2.43411,0.85455c-0.92231,-0.60047 -1.00035,-0.36601 -2.16984,-0.96489c-0.22597,-0.11572 -0.98927,0.37029 -1.25305,0.22778c-0.13186,-0.07124 -1.37853,0.27391 -1.50858,0.19007c-0.1603,-0.10335 -0.28883,-0.07046 -0.47392,-0.09966c-0.55129,-0.08697 -1.13031,-0.26111 -1.47373,-0.45338c-0.07637,-0.04277 -0.31622,0.01661 -0.3703,-0.04286c-0.30066,-0.33072 0.50081,0.18416 0.29698,0.19502c-0.71492,0.03812 -2.21171,-1.53874 -2.44939,-2.45174c-0.20568,-0.79009 -0.70716,-1.42765 -0.9655,-2.21045c-0.64339,-1.94951 -0.82455,-4.52584 -0.90213,-7.48923c-0.0031,-0.11846 -0.37424,-3.23197 -0.27006,-5.34002c0.07995,-1.61789 0.29646,-3.01981 0.29646,-3.01981z" data-paper-data="{&quot;index&quot;:null}" fill="#3d96ca" stroke="#000000" stroke-width="0"/><path d="M376.10396,258.79874c1.40208,0.23674 3.47429,1.38801 3.94616,2.85619c0.18207,0.03195 0.6868,3.72761 1.05322,5.37058c0.74626,2.4306 1.89695,4.58975 3.41418,6.60867c1.34949,1.9985 3.31892,3.33291 3.08361,5.98487c-0.47154,1.84716 -2.69304,2.08214 -4.50611,1.61221c0.02074,0.38906 0.04149,0.77812 0.06223,1.16718c0.13883,2.67101 -2.10241,5.17677 -4.80865,3.75599c-0.55283,-0.21383 -1.03062,-0.46317 -1.44914,-0.74502c-0.42827,0.2301 -0.86813,0.42778 -1.34411,0.54298c-0.03141,0.04359 -1.52709,0.32359 -2.73253,-0.14244c-1.40512,-0.54322 -2.57171,-1.9267 -2.96583,-3.20876c-1.19862,-2.19044 -1.70587,-5.82372 -1.8451,-8.30343c-0.40773,-3.1089 -0.79129,-6.5437 -0.12658,-9.61159c0.23879,-1.95396 1.1739,-4.32616 2.93536,-5.32751c0,0 0.21733,-0.12354 0.34089,0.0938c0.12354,0.21733 -0.09379,0.34089 -0.09379,0.34089c-1.61046,0.9155 -2.50804,3.17824 -2.68903,4.97363c-0.65278,3.03082 -0.26953,6.41334 0.13103,9.48479c0.12261,2.3418 0.47733,6.06585 1.68849,8.1c0.17888,0.58186 0.7815,1.60477 1.53985,2.25478c0.59001,0.50572 1.37734,0.72108 1.46778,0.7446c1.25214,0.32566 3.09361,-0.19434 3.24732,-0.27204c-1.47854,-1.20153 -2.13293,-2.88782 -2.9178,-4.8776c-0.58675,-2.09825 -1.02093,-3.91489 -0.83316,-6.11204c0,0 0.02213,-0.24902 0.27114,-0.22689c0.24901,0.02213 0.22689,0.27114 0.22689,0.27114c-0.19533,2.12714 0.24488,3.87886 0.8092,5.90885c0.77407,1.97034 1.38665,3.63633 2.91598,4.78131c0.04347,-0.02074 1.15312,0.69558 1.62976,0.87525c2.3639,1.26456 4.22916,-0.96663 4.10271,-3.27408c-0.02098,-0.39339 -0.0979,-1.06713 -0.04846,-1.21129c-0.54624,-0.20379 -1.17424,-0.65331 -1.50523,-0.95148c-1.58265,-1.77329 -4.06701,-3.494 -4.2121,-6.08766c0,0 -0.01331,-0.24965 0.23633,-0.26296c0.24964,-0.01331 0.26295,0.23633 0.26295,0.23633c0.12222,2.42759 2.59315,4.10562 4.06709,5.76146c1.08424,0.97205 5.231,1.90945 5.6487,-0.36849c0.21821,-2.45102 -1.74639,-3.76264 -2.99743,-5.61728c-1.54321,-2.08392 -2.72143,-4.2737 -3.48992,-6.77042c-0.35865,-1.62295 -0.62475,-3.31218 -0.99189,-5.01785c0,0 -0.53822,-1.21087 -0.89339,-1.55538c-0.81254,-0.78815 -1.84414,-1.14487 -2.71303,-1.28809c0,0 -0.50356,-0.06401 -0.46239,-0.31059c0.01688,-0.1011 0.54471,-0.18259 0.54471,-0.18259z" data-paper-data="{&quot;index&quot;:null}" fill="#000000" stroke="none" stroke-width="0.5"/></g><path d="M371.89143,262.5763l-4.06838,-18.64552l12.64466,-0.21431c0,0 -2.52787,11.09475 -3.31581,14.88973c-0.54049,2.60319 -1.59893,5.89895 -1.59893,5.89895z" data-paper-data="{&quot;index&quot;:null}" fill="#3d96ca" stroke="none" stroke-width="0" stroke-linecap="butt"/><path d="M371.03779,259.36156l-3.00043,-15.21646l12.21603,-0.21432l-3.21474,15.43078" data-paper-data="{&quot;index&quot;:null}" fill="none" stroke="#000000" stroke-width="0.5" stroke-linecap="round"/></g></g></svg>