<svg version="1.1" xmlns="http://www.w3.org/2000/svg" xmlns:xlink="http://www.w3.org/1999/xlink" width="63.14336" height="66.30054" viewBox="0,0,63.14336,66.30054"><g transform="translate(-142.37572,-107.63138)"><g data-paper-data="{&quot;isPaintingLayer&quot;:true}" fill-rule="nonzero" stroke-linecap="butt" stroke-linejoin="miter" stroke-miterlimit="10" stroke-dasharray="" stroke-dashoffset="0" style="mix-blend-mode: normal"><path d="M205.51908,140.78165c0,18.30839 -14.13512,33.15027 -31.57168,33.15027c-17.43655,0 -31.57168,-14.84188 -31.57168,-33.15027c0,-18.30839 14.13512,-33.15027 31.57168,-33.15027c17.43655,0 31.57168,14.84188 31.57168,33.15027z" fill="#f0ff65" stroke="#0b61a3" stroke-width="0"/><text transform="translate(151.81904,159.85897) scale(0.31443,0.31443)" font-size="40" xml:space="preserve" fill="#000000" fill-rule="nonzero" stroke="none" stroke-width="1" stroke-linecap="butt" stroke-linejoin="miter" stroke-miterlimit="10" stroke-dasharray="" stroke-dashoffset="0" font-family="&quot;SpongeBoyTT1-Regular&quot;, Sans Serif" font-weight="normal" text-anchor="start" style="mix-blend-mode: normal"><tspan x="0" dy="0">Shoes</tspan></text><path d="M187.52168,138.35363c-0.60624,-0.48885 -0.99916,-1.09851 -1.49559,-1.65109c-0.66856,1.9516 -1.68171,2.02866 -3.51679,1.42137c-2.45462,-0.81237 -6.56307,-2.72374 -4.53164,-5.95647c0.99169,-0.51846 0.50219,-1.12945 0.55403,-2.03071c0.09364,-1.62803 1.50735,-4.05485 3.1247,-4.29482c0.63941,-0.00267 1.86572,-0.2847 2.2636,0.3998c0.26292,0.45229 -0.10373,1.43738 0.06081,1.97851c0.44573,1.46583 2.31673,1.59071 3.37895,0.86886c1.67572,-2.2916 2.31424,1.79413 2.82602,2.49822c0.28834,0.39667 3.03093,-0.25184 3.60435,-0.20948c2.86044,0.22038 6.24793,0.89299 5.6245,4.37776c0.11299,0.13624 0.05107,0.32325 0.05107,0.32325c-0.81033,2.44848 -1.44448,4.65042 -4.052,5.72177c-0.81827,-0.06806 -1.61537,0.18513 -2.43619,-0.04183c-2.2435,-0.62031 -3.66542,-2.0819 -5.45588,-3.40509z" data-paper-data="{&quot;index&quot;:null}" fill="#000000" stroke="none" stroke-width="0.5"/><path d="M160.18974,138.94999c-2.07791,0.60816 -3.86578,1.46614 -6.12188,1.28076c-0.82544,-0.06779 -1.46831,-0.56601 -2.23816,-0.77804c-2.02161,-1.85174 -1.86282,-4.0745 -1.7823,-6.58138c0,0 0.00616,-0.19148 0.15493,-0.278c0.59839,-3.39036 3.91639,-2.86947 6.60172,-2.1123c0.53771,0.15345 2.82432,1.6644 3.22046,1.39887c0.70316,-0.47134 2.65498,-3.98754 3.41708,-1.33396c0.72792,1.01493 2.47791,1.5278 3.37597,0.33886c0.33154,-0.4389 0.32683,-1.46111 0.71841,-1.78595c0.59259,-0.4916 1.61764,0.17675 2.20054,0.39341c1.39619,0.76096 1.87374,3.45023 1.41379,4.96793c-0.25465,0.84019 -0.90629,1.23399 -0.17456,2.0396c0.77153,3.632 -3.61973,4.00052 -6.1329,3.91976c-1.87885,-0.06036 -2.77799,-0.4702 -2.73449,-2.47595c-0.63839,0.33814 -1.20138,0.76309 -1.91861,1.0063z" fill="#000000" stroke="none" stroke-width="0.5"/></g></g></svg>