<svg version="1.1" xmlns="http://www.w3.org/2000/svg" xmlns:xlink="http://www.w3.org/1999/xlink" width="138.95831" height="34.49292" viewBox="0,0,138.95831,34.49292"><g transform="translate(-251.02667,-250.43812)"><g stroke-miterlimit="10"><g><path d="M269.42697,263.01934c0,0 0.20354,1.40192 0.2787,3.01981c0.09794,2.10805 -0.25097,5.22156 -0.25388,5.34002c-0.10222,4.15331 -1.31478,6.56867 -1.98969,9.32641c-0.22344,0.913 -1.39663,2.86313 -2.06872,2.82501c-0.19162,-0.01086 0.56184,-0.52574 0.27919,-0.19502c-0.05084,0.05947 -0.27632,0.00009 -0.34812,0.04286c-0.32285,0.19227 -0.86718,0.36641 -1.38545,0.45338c-0.174,0.0292 -0.29483,-0.00369 -0.44553,0.09966c-0.12226,0.08384 -1.29425,-0.26131 -1.41821,-0.19007c-0.24798,0.14251 -0.96555,-0.3435 -1.17799,-0.22778c-1.09943,0.59888 -1.1728,0.36442 -2.03986,0.96489c-0.1709,0.11835 -1.53741,-0.12441 -2.2883,-0.85455c-0.68088,-0.66207 -0.75214,-1.81612 -0.89535,-1.76452c-0.20925,0.07538 0.25409,-3.00078 0.04847,-2.9332c-2.31105,0.75962 -4.31946,0.93678 -4.37568,-1.48251c-0.00206,-0.08825 -0.35999,-0.69667 0.41552,-2.00191c0.69035,-1.1619 1.80417,-2.49904 2.66534,-3.87391c1.32304,-2.11223 2.31382,-4.12399 2.31655,-4.24748c0.00403,-0.18258 0.22184,-0.45235 0.26778,-0.63083c0.74402,-2.89096 0.69947,-5.7029 1.84974,-7.46052c0.97103,-1.48372 2.74033,-2.22538 4.02409,-2.15258c1.04325,0.05916 1.99723,-0.98003 2.75101,0.11947c0.2969,0.43308 2.14277,1.50894 2.38622,1.79747c0.52734,0.625 0.32299,0.96485 0.56295,1.92184c0.12407,0.4948 0.83289,1.15458 0.84121,2.10405z" fill="#ec2b51" stroke="#000000" stroke-width="0"/><path d="M261.85334,257.01634c0,0 0.49621,0.08149 0.51208,0.18259c0.0387,0.24658 -0.43469,0.31059 -0.43469,0.31059c-0.81684,0.14322 -1.78664,0.49994 -2.55051,1.28809c-0.33389,0.34451 -0.83987,1.55538 -0.83987,1.55538c-0.34515,1.70567 -0.59531,3.3949 -0.93247,5.01785c-0.72245,2.49672 -1.8301,4.6865 -3.28086,6.77042c-1.1761,1.85464 -3.02301,3.16626 -2.81787,5.61728c0.39268,2.27794 4.29103,1.34054 5.31032,0.36849c1.38565,-1.65584 3.70856,-3.33387 3.82346,-5.76146c0,0 0.01251,-0.24964 0.2472,-0.23633c0.23469,0.01331 0.22217,0.26296 0.22217,0.26296c-0.1364,2.59366 -2.47194,4.31437 -3.95978,6.08766c-0.31116,0.29817 -0.90154,0.74769 -1.41506,0.95148c0.04648,0.14416 -0.02583,0.8179 -0.04556,1.21129c-0.11888,2.30745 1.63465,4.53864 3.85694,3.27408c0.44809,-0.17967 1.49127,-0.89599 1.53213,-0.87525c1.43772,-1.14498 2.0136,-2.81097 2.7413,-4.78131c0.53052,-2.02999 0.94436,-3.78171 0.76073,-5.90885c0,0 -0.02079,-0.24901 0.2133,-0.27114c0.23409,-0.02213 0.2549,0.22689 0.2549,0.22689c0.17652,2.19715 -0.23165,4.01379 -0.78325,6.11204c-0.73785,1.98978 -1.35304,3.67607 -2.74301,4.8776c0.1445,0.0777 1.87566,0.5977 3.05279,0.27204c0.08502,-0.02352 0.82519,-0.23888 1.37985,-0.7446c0.71292,-0.65001 1.27944,-1.67292 1.44761,-2.25478c1.13861,-2.03415 1.47208,-5.7582 1.58734,-8.1c0.37657,-3.07145 0.73686,-6.45397 0.12318,-9.48479c-0.17015,-1.79539 -1.01396,-4.05813 -2.52795,-4.97363c0,0 -0.20431,-0.12356 -0.08817,-0.34089c0.11616,-0.21734 0.32047,-0.0938 0.32047,-0.0938c1.65594,1.00135 2.53504,3.37355 2.75952,5.32751c0.62489,3.06789 0.26431,6.50269 -0.119,9.61159c-0.13089,2.47971 -0.60775,6.11299 -1.73457,8.30343c-0.37051,1.28206 -1.46722,2.66554 -2.78817,3.20876c-1.13323,0.46603 -2.53931,0.18603 -2.56884,0.14244c-0.44747,-0.1152 -0.86098,-0.31288 -1.26359,-0.54298c-0.39345,0.28185 -0.84262,0.53119 -1.36233,0.74502c-2.54413,1.42078 -4.65111,-1.08498 -4.52059,-3.75599c0.0195,-0.38906 0.039,-0.77812 0.0585,-1.16718c-1.70446,0.46993 -3.79289,0.23495 -4.23618,-1.61221c-0.22121,-2.65196 1.63024,-3.98637 2.89889,-5.98487c1.42634,-2.01892 2.5081,-4.17807 3.20966,-6.60867c0.34447,-1.64297 0.81897,-5.33863 0.99013,-5.37058c0.4436,-1.46818 2.39168,-2.61945 3.70977,-2.85619z" fill="#971b34" stroke="none" stroke-width="0.5"/></g><g stroke="none" stroke-width="0.5"><path d="M258.98236,251.08462c1.7608,-1.51675 3.63173,0.12869 5.62825,-0.00267c1.11907,-0.07363 1.93774,-0.93806 3.11579,-0.52977c0.63766,0.221 1.28474,0.9378 1.81635,1.36373c1.24752,0.15475 2.32517,-1.16487 3.5051,-1.07439c2.24502,0.17215 0.60671,2.49383 0.18285,3.14457c-0.18226,0.27981 0.29318,2.01067 0.0486,2.66026c-0.37836,1.00495 -1.11425,0.63179 -1.59032,1.25154c0.06146,0.87101 0.3283,1.42509 -0.61543,1.96275c-1.46733,0.83596 -2.62105,-0.84862 -3.71456,-1.43944c-2.37424,-1.28278 -4.14315,1.47073 -6.30554,-1.1968c-1.23688,-0.0777 -3.01939,0.96293 -3.99037,-0.2939c-0.20093,-0.26007 -0.30703,-0.61073 -0.3314,-0.94636c-0.06143,-0.846 0.91231,-1.2023 0.90113,-2.0064c-0.01118,-0.80358 -0.78141,-1.7373 -0.00523,-2.51807c0.2488,-0.25027 0.96802,-0.32079 1.31001,-0.37348zM258.86835,252.11468c-1.2602,0.30088 -0.04805,1.35692 -0.47762,2.60354c-0.14279,0.41438 -0.99868,1.11361 -0.5999,1.57925c0.56951,0.66499 2.84936,-0.09786 3.66987,0.02564c2.12223,2.10765 3.15432,0.38798 5.75819,1.00155c1.19442,0.28145 2.0831,2.07991 3.44743,1.63468c0.33289,-0.10863 0.12731,-1.14843 0.13557,-1.39245c0.46526,-0.62156 1.38097,-0.64717 1.61177,-1.31052c0.36971,-1.06263 -0.45727,-1.79979 0.00074,-2.76628c0.32997,-0.69632 1.36118,-0.55529 0.75168,-1.63526c-0.0353,-0.06254 -1.41753,0.50247 -1.48048,0.52327c-0.95087,0.31416 -1.44788,0.63966 -2.49248,0.46606c-0.50878,-0.37273 -1.19586,-1.13457 -1.78848,-1.3524c-1.04195,-0.38297 -2.26716,0.74265 -3.43403,0.58457c-1.45239,-0.19675 -3.34867,-1.4013 -4.55905,-0.06173c0,0 -0.25592,0.27223 -0.5432,0.10006z" fill="#9a9a9a"/><path d="M259.36937,251.99256c1.21039,-1.33956 3.12697,-0.15721 4.57936,0.03954c1.16687,0.15807 2.43628,-0.96729 3.47823,-0.58433c0.59262,0.21782 1.29759,0.99777 1.80638,1.3705c1.04461,0.1736 1.54456,-0.14582 2.49543,-0.45997c0.06295,-0.0208 1.44549,-0.58506 1.48078,-0.52252c0.60949,1.07997 -0.4194,0.9466 -0.74937,1.64291c-0.45802,0.96649 0.36974,1.72213 0.00003,2.78476c-0.23079,0.66335 -1.14969,0.70123 -1.61494,1.32279c-0.00826,0.24402 0.19276,1.29273 -0.14014,1.40137c-1.36432,0.44523 -2.26124,-1.34347 -3.45567,-1.62492c-2.60388,-0.61357 -3.71202,1.08056 -5.83425,-1.02709c-0.82051,-0.1235 -3.10144,0.63342 -3.67095,-0.03157c-0.39878,-0.46563 0.45681,-1.17466 0.5996,-1.58904c0.42958,-1.24662 -0.77874,-2.31946 0.48146,-2.62034c0.28727,0.17217 0.54408,-0.10208 0.54408,-0.10208z" fill="#ffffff"/></g><g><path d="M371.2739,263.16699c0.00846,-0.94947 0.72925,-1.60925 0.85542,-2.10405c0.24401,-0.95699 0.03621,-1.29684 0.57246,-1.92184c0.24756,-0.28853 2.1246,-1.36439 2.42652,-1.79747c0.76652,-1.0995 1.7366,-0.06031 2.79748,-0.11947c1.30544,-0.0728 3.10463,0.66886 4.09206,2.15258c1.1697,1.75762 1.1244,4.56956 1.88098,7.46052c0.04671,0.17848 0.2682,0.44825 0.2723,0.63083c0.00277,0.12349 1.01029,2.13525 2.35567,4.24748c0.87572,1.37487 2.00835,2.71201 2.71036,3.87391c0.78861,1.30524 0.42463,1.91366 0.42254,2.00191c-0.05717,2.41929 -2.0995,2.24213 -4.44958,1.48251c-0.20909,-0.06758 0.26207,3.00858 0.04929,2.9332c-0.14562,-0.0516 -0.21809,1.10245 -0.91047,1.76452c-0.76357,0.73014 -2.15316,0.9729 -2.32695,0.85455c-0.8817,-0.60047 -0.95631,-0.36601 -2.07431,-0.96489c-0.21602,-0.11572 -0.94572,0.37029 -1.19788,0.22778c-0.12605,-0.07124 -1.31784,0.27391 -1.44216,0.19007c-0.15324,-0.10335 -0.27611,-0.07046 -0.45306,-0.09966c-0.52702,-0.08697 -1.08055,-0.26111 -1.40885,-0.45338c-0.07301,-0.04277 -0.3023,0.01661 -0.354,-0.04286c-0.28742,-0.33072 0.47876,0.18416 0.28391,0.19502c-0.68344,0.03812 -1.87644,-1.91201 -2.10366,-2.82501c-0.6863,-2.75774 -1.91935,-5.1731 -2.02329,-9.32641c-0.00296,-0.11846 -0.35776,-3.23197 -0.25817,-5.34002c0.07643,-1.61789 0.28341,-3.01981 0.28341,-3.01981z" fill="#ec2b51" stroke="#000000" stroke-width="0"/><path d="M378.97554,257.16398c1.34035,0.23674 3.32133,1.38801 3.77243,2.85619c0.17405,0.03195 0.65656,3.72761 1.00685,5.37058c0.71341,2.4306 1.81343,4.58975 3.26387,6.60867c1.29008,1.9985 3.1728,3.33291 2.94785,5.98487c-0.45078,1.84716 -2.57448,2.08214 -4.30772,1.61221c0.01983,0.38906 0.03966,0.77812 0.05949,1.16718c0.13272,2.67101 -2.00985,5.17677 -4.59694,3.75599c-0.52849,-0.21383 -0.98525,-0.46317 -1.38534,-0.74502c-0.40941,0.2301 -0.82991,0.42778 -1.28493,0.54298c-0.03003,0.04359 -1.45986,0.32359 -2.61223,-0.14244c-1.34326,-0.54322 -2.45849,-1.9267 -2.83526,-3.20876c-1.14585,-2.19044 -1.63077,-5.82372 -1.76387,-8.30343c-0.38978,-3.1089 -0.75645,-6.5437 -0.12101,-9.61159c0.22828,-1.95396 1.12222,-4.32616 2.80613,-5.32751c0,0 0.20776,-0.12354 0.32588,0.0938c0.1181,0.21733 -0.08966,0.34089 -0.08966,0.34089c-1.53956,0.9155 -2.39762,3.17824 -2.57064,4.97363c-0.62404,3.03082 -0.25766,6.41334 0.12526,9.48479c0.11721,2.3418 0.45632,6.06585 1.61415,8.1c0.171,0.58186 0.74709,1.60477 1.47206,2.25478c0.56403,0.50572 1.3167,0.72108 1.40316,0.7446c1.19701,0.32566 2.95741,-0.19434 3.10435,-0.27204c-1.41345,-1.20153 -2.03903,-2.88782 -2.78934,-4.8776c-0.56092,-2.09825 -0.97598,-3.91489 -0.79648,-6.11204c0,0 0.02116,-0.24902 0.2592,-0.22689c0.23805,0.02213 0.2169,0.27114 0.2169,0.27114c-0.18673,2.12714 0.2341,3.87886 0.77357,5.90885c0.73999,1.97034 1.3256,3.63633 2.7876,4.78131c0.04156,-0.02074 1.10235,0.69558 1.55801,0.87525c2.25983,1.26456 4.04297,-0.96663 3.92208,-3.27408c-0.02006,-0.39339 -0.09359,-1.06713 -0.04633,-1.21129c-0.52219,-0.20379 -1.12254,-0.65331 -1.43896,-0.95148c-1.51297,-1.77329 -3.88796,-3.494 -4.02666,-6.08766c0,0 -0.01272,-0.24965 0.22593,-0.26296c0.23865,-0.01331 0.25137,0.23633 0.25137,0.23633c0.11684,2.42759 2.47898,4.10562 3.88803,5.76146c1.03651,0.97205 5.0007,1.90945 5.40001,-0.36849c0.2086,-2.45102 -1.6695,-3.76264 -2.86547,-5.61728c-1.47527,-2.08392 -2.60162,-4.2737 -3.33627,-6.77042c-0.34286,-1.62295 -0.59724,-3.31218 -0.94822,-5.01785c0,0 -0.51452,-1.21087 -0.85406,-1.55538c-0.77677,-0.78815 -1.76295,-1.14487 -2.59359,-1.28809c0,0 -0.48139,-0.06401 -0.44203,-0.31059c0.01614,-0.1011 0.52073,-0.18259 0.52073,-0.18259z" fill="#971b34" stroke="none" stroke-width="0.5"/></g><g stroke="none" stroke-width="0.5"><path d="M382.60312,251.23385c0.34776,0.05269 1.07913,0.12321 1.33213,0.37348c0.78929,0.78077 0.00605,1.71449 -0.00532,2.51807c-0.01137,0.8041 0.97881,1.1604 0.91635,2.0064c-0.02479,0.33563 -0.13268,0.68629 -0.337,0.94636c-0.98738,1.25683 -2.79999,0.2162 -4.05777,0.2939c-2.19891,2.66753 -3.99769,-0.08598 -6.41203,1.1968c-1.11197,0.59082 -2.28518,2.2754 -3.77729,1.43944c-0.95967,-0.53766 -0.68833,-1.09174 -0.62583,-1.96275c-0.48411,-0.61975 -1.23243,-0.24659 -1.61718,-1.25154c-0.24871,-0.64959 0.23476,-2.38045 0.04942,-2.66026c-0.43102,-0.65074 -2.097,-2.97242 0.18594,-3.14457c1.19986,-0.09048 2.29571,1.22914 3.5643,1.07439c0.54059,-0.42593 1.1986,-1.14273 1.84703,-1.36373c1.19795,-0.40829 2.03044,0.45614 3.16841,0.52977c2.03024,0.13136 3.93277,-1.51408 5.72331,0.00267zM382.67351,252.26232c-0.29213,0.17217 -0.55237,-0.10006 -0.55237,-0.10006c-1.23083,-1.33957 -3.15913,-0.13502 -4.63605,0.06173c-1.18657,0.15808 -2.43249,-0.96754 -3.49203,-0.58457c-0.60263,0.21783 -1.30131,0.97967 -1.81868,1.3524c-1.06224,0.1736 -1.56764,-0.1519 -2.53457,-0.46606c-0.06401,-0.0208 -1.46959,-0.58581 -1.50549,-0.52327c-0.6198,1.07997 0.42883,0.93894 0.76438,1.63526c0.46575,0.96649 -0.3752,1.70365 0.00076,2.76628c0.23469,0.66335 1.16587,0.68896 1.63899,1.31052c0.0084,0.24402 -0.20065,1.28382 0.13786,1.39245c1.38737,0.44523 2.29106,-1.35323 3.50565,-1.63468c2.64786,-0.61357 3.69737,1.1061 5.85545,-1.00155c0.83437,-0.1235 3.15273,0.63935 3.73185,-0.02564c0.40551,-0.46564 -0.46483,-1.16487 -0.61004,-1.57925c-0.43682,-1.24662 0.7958,-2.30266 -0.48568,-2.60354z" fill="#9a9a9a"/><path d="M382.16403,252.14023c0,0 0.26114,0.27425 0.55327,0.10208c1.28148,0.30088 0.05276,1.37372 0.48959,2.62034c0.1452,0.41438 1.01524,1.12341 0.60973,1.58904c-0.57913,0.66499 -2.89859,-0.09193 -3.73295,0.03157c-2.15807,2.10765 -3.28493,0.41352 -5.93278,1.02709c-1.2146,0.28145 -2.12667,2.07015 -3.51404,1.62492c-0.33852,-0.10864 -0.1341,-1.15735 -0.14251,-1.40137c-0.47311,-0.62156 -1.40753,-0.65944 -1.64222,-1.32279c-0.37596,-1.06263 0.46578,-1.81827 0.00003,-2.78476c-0.33555,-0.69631 -1.38181,-0.56294 -0.76203,-1.64291c0.03589,-0.06254 1.44178,0.50172 1.50579,0.52252c0.96693,0.31415 1.47533,0.63357 2.53758,0.45997c0.51738,-0.37273 1.23426,-1.15268 1.83688,-1.3705c1.05954,-0.38296 2.3504,0.7424 3.53697,0.58433c1.47692,-0.19675 3.42587,-1.3791 4.6567,-0.03954z" fill="#ffffff"/></g></g></g></svg>