<svg version="1.1" xmlns="http://www.w3.org/2000/svg" xmlns:xlink="http://www.w3.org/1999/xlink" width="297.06812" height="194.9966" viewBox="0,0,297.06812,194.9966"><g transform="translate(-81.34999,0.9206)"><g data-paper-data="{&quot;isPaintingLayer&quot;:true}" fill="#9966ff" fill-rule="nonzero" stroke="none" stroke-linecap="butt" stroke-linejoin="miter" stroke-miterlimit="10" stroke-dasharray="" stroke-dashoffset="0" style="mix-blend-mode: normal"><path d="M289.29471,124.13807c2.49771,0.14559 1.61646,1.5681 1.61646,1.5681l-0.12917,4.07565c0.00721,2.17223 0.01441,4.34447 0.02162,6.51672c0.1737,3.42375 1.19076,6.70871 2.21528,9.84512c3.33815,10.21924 7.65801,18.53979 12.881,27.19819c2.8977,4.80367 5.46409,10.34674 9.64774,13.25216c3.35389,2.32915 10.67575,-0.44339 14.01916,-1.48911c2.51183,-0.78563 4.90669,-2.23385 7.44595,-2.83469c1.23229,-0.29158 2.68256,0.27345 3.71908,-0.67859c1.11743,-1.02636 1.41352,-3.12328 2.12028,-4.6849c0,0 0.43968,-0.87582 1.18762,-1.31522c0.98832,-1.34648 2.14102,-2.52127 2.8723,-4.13618c1.67355,-3.69579 2.11205,-8.19456 3.29815,-12.22401c2.51154,-8.53235 4.5108,-16.52077 6.40605,-25.33956c4.96868,-23.11978 9.00348,-46.56207 13.22041,-69.97137c3.41867,-18.9553 3.97138,-40.01342 3.40553,-59.50607l-0.23694,-1.15523c0,0 -0.55391,-3.31512 1.88395,-4.06834c2.43787,-0.75322 2.99177,2.56187 2.99177,2.56187l0.35758,2.40291c0.54544,20.15213 -0.01952,41.78651 -3.54549,61.38255c-4.23445,23.5065 -8.28821,47.04485 -13.27758,70.2609c-1.93704,9.01323 -3.99642,17.23841 -6.56336,25.95898c-0.26794,0.91027 -3.46016,12.77132 -3.68254,13.2624c-0.95877,2.1173 -2.46228,3.67693 -3.69341,5.51538c0,0 -0.30166,0.44271 -0.78795,0.7822c-1.00623,2.08643 -1.71728,4.59031 -3.2245,5.96827c-0.36217,0.33109 -6.317,1.79535 -7.91439,2.40542c-4.68016,1.78743 -9.17153,3.2025 -14.02296,3.94104c-2.92959,0.44597 -5.22594,1.00043 -7.99289,-0.81556c-5.07202,-3.32881 -8.04532,-9.43721 -11.49934,-15.1631c-7.08696,-11.74839 -15.18096,-25.47891 -16.22585,-41.06227c-0.00846,-2.31313 -0.01691,-4.62625 -0.02535,-6.93937l0.13284,-4.23734c0,0 1.11223,0.59189 1.88704,-0.37116c0.38582,-0.47956 -0.88677,-0.69099 -0.05647,-0.6426z" stroke-width="0.5"/><text transform="translate(82.09999,146.4) scale(0.5,0.5)" font-size="40" xml:space="preserve" fill="#9966ff" fill-rule="nonzero" stroke="none" stroke-width="1" stroke-linecap="butt" stroke-linejoin="miter" stroke-miterlimit="10" stroke-dasharray="" stroke-dashoffset="0" font-family="Serif" font-weight="normal" text-anchor="start" style="mix-blend-mode: normal"><tspan x="0" dy="0">reset.test.hook.frame 4</tspan></text></g></g></svg>