<svg version="1.1" xmlns="http://www.w3.org/2000/svg" xmlns:xlink="http://www.w3.org/1999/xlink" width="180.55069" height="173.16634" viewBox="0,0,180.55069,173.16634"><g transform="translate(-232.18402,-11.35328)"><g data-paper-data="{&quot;isPaintingLayer&quot;:true}" fill-rule="nonzero" stroke="#000000" stroke-width="0" stroke-linecap="butt" stroke-linejoin="miter" stroke-miterlimit="10" stroke-dasharray="" stroke-dashoffset="0" style="mix-blend-mode: normal"><path d="M269.30633,184.51961c-6.15802,0 -14.50865,-2.71779 -14.50865,-5.87684c0,-3.15896 7.66594,-7.14684 7.41902,-7.32932c-4.95195,-3.65946 -15.89134,-16.60226 -16.90344,-17.78868c-0.16622,-0.19485 -1.26071,-1.69035 -2.17775,-3.58655c-2.68417,-5.55016 -7.09126,-16.1548 -7.8456,-20.42242c-0.91924,-1.90606 -5.4917,-22.61379 -1.48701,-44.96128c3.58265,-19.99203 16.72092,-40.44443 30.85367,-54.53011c9.80025,-9.76763 25.1286,-15.24728 40.18946,-17.42179c19.51457,-2.81754 38.72553,-0.3771 46.38632,2.46156c0.48243,-0.65641 28.02855,12.29169 44.35265,32.57726c15.19919,18.88768 16.64095,46.30052 16.80065,46.70299c0.48867,1.23102 0.65154,13.99719 -0.7844,22.93011c-1.81443,11.28747 -5.36791,19.09903 -4.9987,19.17705c0.44732,0.09448 -3.82966,8.80371 -9.2212,17.06556c-6.28352,9.62868 -9.6384,18.68027 -9.22455,18.76518c1.56228,0.32057 6.42495,1.44199 6.86336,3.56969c0.18194,0.88304 -0.04349,2.81633 -0.88836,3.79834c-1.00212,1.16478 -2.67073,2.83324 -2.67073,3.14617c0,0 -115.99673,1.7231 -122.15472,1.7231z" fill-opacity="0.49804" fill="#00d0ff"/><path d="M410.50006,98.10342c0,0.98682 -0.01665,2.73659 -0.04979,3.74746c-0.46971,14.33002 -4.23362,30.80954 -11.36642,44.55265c-4.27632,8.23938 -7.61896,11.61043 -11.59578,22.39861c-1.75018,1.43206 -3.56976,1.69696 -0.25198,3.74326c0.20369,0.12563 1.19503,0.12341 1.41181,0.23395c0.2416,0.12319 1.38216,0.24299 1.61969,0.35938c0.31218,0.15297 1.56973,0.48005 1.85015,0.62122c0.98793,0.49735 2.7304,1.88258 2.43308,3.09514c-0.30777,1.25519 -1.704,3.41396 -4.77233,3.6461c-8.47591,0.64127 -29.84319,-1.30378 -36.38486,-1.18037c-10.12376,0.19098 -21.1222,1.83544 -32.14356,1.83544c-20.6702,0 -50.53159,5.63499 -64.74599,0.09789c-0.41328,-0.16099 -0.47537,-2.83653 0.3809,-4.14536c0.49415,-0.75532 1.38078,-1.07584 2.0151,-1.75097c2.50901,-2.6704 5.74525,-3.83472 4.85754,-4.27315c-6.26249,-3.79143 -10.10821,-8.8273 -14.47367,-14.03467c-1.86638,-2.22632 -3.63165,-4.05731 -4.9798,-6.44089c-2.78239,-4.91935 -5.2055,-10.53613 -7.19502,-17.4187c-0.48803,-1.68831 -0.3458,-3.55348 -0.8769,-5.38646c-1.82378,-6.29436 -3.31207,-30.17127 -2.27534,-35.495c0.45657,-1.80995 0.40421,-2.93665 0.72262,-4.45554c0.30046,-1.43324 0.97804,-3.2744 1.19454,-4.45542c1.39719,-7.62155 1.97676,-11.32751 5.76323,-18.18551c2.49583,-4.52043 3.65866,-8.57272 9.11434,-13.40612c0.55344,-0.49032 5.83336,1.8767 8.24622,1.73007c2.50426,-0.15219 6.53649,-4.14923 10.13279,-4.22705c4.03346,-0.08728 7.36462,2.30458 12.36986,2.23138c2.00426,-0.02931 6.43655,-1.94432 8.43029,-1.97424c1.80299,-0.02706 4.49031,2.94212 6.21409,2.88255c3.70549,-0.12806 8.14605,-1.00021 11.63038,-1.15991c3.01296,-0.13809 5.40213,-1.04758 9.02875,-1.34386c1.70277,-0.13911 6.61316,1.58262 9.32202,1.44579c2.26625,-0.11447 7.97422,-2.4502 10.66516,-2.55783c5.9438,-0.23772 11.9685,3.4794 18.40098,3.35288c2.6994,-0.05309 10.9623,-3.48083 13.49081,-3.55134c13.12592,-0.36605 23.67845,-1.6172 24.20372,-1.05481c5.12351,5.48561 6.9529,10.24388 10.53474,17.29117c2.99649,5.89562 3.62995,10.60873 4.64471,15.72942c1.06093,5.35369 2.43393,11.11797 2.43393,17.50285z" fill-opacity="0.41961" fill="#2377ff"/></g></g></svg>