<svg version="1.1" xmlns="http://www.w3.org/2000/svg" xmlns:xlink="http://www.w3.org/1999/xlink" width="131.00014" height="29.37336" viewBox="0,0,131.00014,29.37336"><g transform="translate(-254.44475,-255.52061)"><g data-paper-data="{&quot;isPaintingLayer&quot;:true}" fill-rule="nonzero" stroke-linejoin="miter" stroke-miterlimit="10" stroke-dasharray="" stroke-dashoffset="0" style="mix-blend-mode: normal"><path d="" data-paper-data="{&quot;noHover&quot;:false,&quot;origItem&quot;:[&quot;Path&quot;,{&quot;applyMatrix&quot;:true,&quot;segments&quot;:[[[221.33019,611.96032],[0,0],[1.18796,10.06976]],[[221.36313,643.0381],[0,-10.14116],[-0.01082,0.80922]],[[222.37905,649.44242],[-0.56482,-0.07888],[5.94232,0.82974]],[[237.63571,645.59822],[-5.346,1.24482],[7.56656,-1.7619]],[[260.99541,644.82514],[-7.30032,1.89456],[4.3596,-1.1314]],[[272.87549,643.28868],[-4.61756,0],[24.25608,0]],[[345.64369,643.28868],[-24.25608,0],[23.68548,0]],[[415.76687,650.04322],[-23.68518,-0.01642],[24.93328,2.65318]],[[491.68123,650.79056],[-25.0784,0],[7.84098,0]],[[513.72735,647.84332],[-7.36778,1.58762],[4.31242,-0.92924]],[[528.18835,647.78982],[-4.37994,0],[8.21388,0]],[[554.11037,647.94956],[-8.31786,-1.25608],[0,0]],[[553.75807,647.47264],[0,0],[-3.64264,-8.9295]],[[542.62191,621.33624],[2.6925,9.41838],[0,0]],[[542.56007,620.50168],[-0.0443,0.46308],[-0.1097,-0.35806]],[542.45035,619.85488],[[542.59341,619.75484],[0,0],[-1.77544,-4.49932]],[[539.13807,606.00906],[1.5284,4.46762],[-1.57736,-9.47816]],[[534.49709,578.17342],[2.16912,9.28794],[-1.10928,-4.74978]],[[529.36527,563.32176],[3.07118,3.97394],[0,0]],[[529.76527,560.52176],[-1.6,1.2],[0.01434,-0.01076]],[[529.80819,560.49016],[-0.01428,0.0103],[0.00188,-5.27972]],[[528.97029,544.70482],[-0.0112,5.32368],[-2.1504,-15.0527]],[[523.48693,499.47222],[0,15.39796],[0,0]],[[523.51493,499.17968],[-0.028,0.17636],[-0.15884,-0.19934]],[523.27667,498.82148],[[522.67131,497.41302],[0,0],[-0.92562,-5.5573]],[[520.57315,480.60606],[0.96248,5.50956],[-0.46928,-2.68624]],[[518.85143,473.4853],[0.0365,2.9397],[0,-14.52902]],[[519.69329,430.11106],[-0.03184,14.52712],[0,0]],[[519.27285,428.95634],[0,0],[0,-9.2368]],[[518.85827,401.30828],[-0.0265,9.18612],[-1.61258,-9.5129]],[[518.01837,372.68454],[0.86174,9.55806],[-0.44782,-4.96704]],[[515.51167,357.93596],[0.26216,4.96814],[0,0]],[[515.48019,357.8786],[0,0],[0.01976,-7.71342]],[[512.54005,334.89814],[1.48228,7.57258],[-0.01242,-9.1038]],[[508.32305,307.4744],[0.83256,9.1176],[-0.55138,-6.03826]],[[509.15327,289.59048],[-0.09852,5.94608],[0,0]],[[507.71657,287.75662],[0,0],[-2.98888,-8.91986]],[[498.83211,261.14078],[4.23272,8.6159],[-1.09152,-2.22188]],[[496.43565,255.04688],[1.52644,1.908],[-4.8944,-8.1382]],[[478.43733,239.57704],[7.71112,5.17192],[-4.29644,-2.88168]],[[465.67029,231.31364],[4.82126,2.19022],[-3.04232,-1.38209]],[[454.91642,226.43968],[3.65797,1.02479],[-7.70686,8.1729]],[[446.76641,259.57135],[1.99884,-10.65051],[0.23136,0.48694]],[446.99777,260.53312],[[446.99777,261.79734],[0,0],[0,8.20738]],[[451.95003,285.6006],[-3.24678,-7.50312],[1.50468,5.9756]],[[458.62347,300.173],[-2.44922,-5.26098],[2.68528,5.76808]],[[465.73275,318.60222],[-2.84728,-5.87724],[1.7803,3.67484]],[[474.70509,325.41452],[-2.9172,-2.2298],[0.99196,0.75824]],[[477.31917,328.0972],[-0.02184,-1.24838],[0.02664,1.523]],[[474.81887,331.92222],[0.83344,-1.275],[-14.04556,-1.20128]],[[432.70209,318.03136],[11.5827,8.03308],[0,0]],[[431.59873,317.75916],[0,0],[-9.92948,-7.45294]],[[402.28937,293.02182],[10.66306,6.29984],[-10.6143,-6.07522]],[[386.13435,262.78192],[0.97348,11.67922],[-0.39118,-4.69316]],[[385.70791,248.73362],[-0.02366,4.72596],[0.00172,-0.34318]],[[385.68947,247.38052],[-0.00106,0.50614],[-11.34958,7.02846]],[[354.42029,272.1936],[10.29542,-8.4106],[-5.94694,4.85822]],[[335.32497,285.77802],[6.27764,-4.4837],[-6.36068,4.2389]],[[314.84215,297.87798],[7.63564,-1.78408],[-5.64176,1.31822]],[[297.10485,297.51008],[5.78226,0],[-5.31998,0]],[[281.44501,295.18376],[4.71328,2.74608],[-6.09492,-2.6052]],[[263.76187,286.7637],[5.90316,2.97586],[-1.73494,-0.8746]],[[256.37617,283.72538],[1.1854,1.45742],[-1.77252,-2.17926]],[[257.08689,275.02426],[-1.40602,2.05674],[3.62346,-5.30046]],[[273.65417,266.03734],[-4.84858,3.69358],[4.42616,-2.65838]],[[286.22761,256.81298],[-3.24804,4.11838],[2.63124,-3.33628]],[[290.15057,240.51646],[1.32478,4.2424],[-1.05118,-3.36626]],[[280.91155,233.37344],[3.8945,1.39282],[1.0271,1.07764]],[[281.04235,235.79552],[0,0],[-6.38706,9.32508]],[[256.88315,259.25234],[7.28458,-8.61874],[-3.07222,3.63488]],[[250.28465,271.80452],[2.66882,-4.0151],[-2.95752,4.3673]],[[245.28343,285.52826],[1.54184,-4.70384],[-3.76512,11.48654]],[[237.78761,321.51686],[3.00796,-12.03186],[-5.78958,16.72838]],[[233.36625,374.9712],[0,-17.5994],[0,20.25506]],[[233.36625,435.7364],[0,-20.25506],[0,5.9887]],[[234.08407,453.4217],[-0.14384,-5.9486],[0.03238,0.19122]],[234.11645,453.7409],[[234.11645,458.24204],[0,0],[0,0.60852]],[[233.41589,459.76244],[0.42878,-0.36682],[0.1766,6.43228]],[[233.35655,479.1943],[0.78274,-6.24032],[-0.67576,5.38742]],[[228.76251,493.88324],[1.85264,-4.6309],[-0.73542,1.83828]],[[228.09997,501.74722],[0.53112,-2.1245],[-0.04642,1.69442]],[[226.52877,506.58354],[0.49122,-1.62232],[-2.04146,6.74218]],[[225.83857,528.82996],[1.15166,-7.02178],[-1.60248,9.77046]],[[220.60335,557.96398],[1.97636,-9.75194],[0,5.4645]],[[218.33669,573.84122],[0.91122,-5.25924],[-0.74118,4.27784]],[[218.33565,587.66186],[-0.13878,-4.50386],[1.16104,0.78548]],[219.01005,589.90724],[[218.40807,591.71318],[0,0],[0.3106,6.76616]],[[221.33031,611.96044],[-0.79476,-6.7368],[0,0]]],&quot;closed&quot;:true}]}" fill="#52402d" stroke="none" stroke-width="0.5" stroke-linecap="butt"/><path d="" data-paper-data="{&quot;noHover&quot;:false,&quot;origItem&quot;:[&quot;Path&quot;,{&quot;applyMatrix&quot;:true,&quot;segments&quot;:[[[221.33019,611.96032],[0,0],[1.18796,10.06976]],[[221.36313,643.0381],[0,-10.14116],[-0.01082,0.80922]],[[222.37905,649.44242],[-0.56482,-0.07888],[5.94232,0.82974]],[[237.63571,645.59822],[-5.346,1.24482],[7.56656,-1.7619]],[[260.99541,644.82514],[-7.30032,1.89456],[4.3596,-1.1314]],[[272.87549,643.28868],[-4.61756,0],[24.25608,0]],[[345.64369,643.28868],[-24.25608,0],[23.68548,0]],[[415.76687,650.04322],[-23.68518,-0.01642],[24.93328,2.65318]],[[491.68123,650.79056],[-25.0784,0],[7.84098,0]],[[513.72735,647.84332],[-7.36778,1.58762],[4.31242,-0.92924]],[[528.18835,647.78982],[-4.37994,0],[8.21388,0]],[[554.11037,647.94956],[-8.31786,-1.25608],[0,0]],[[553.75807,647.47264],[0,0],[-3.64264,-8.9295]],[[542.62191,621.33624],[2.6925,9.41838],[0,0]],[[542.56007,620.50168],[-0.0443,0.46308],[-0.1097,-0.35806]],[542.45035,619.85488],[[542.59341,619.75484],[0,0],[-1.77544,-4.49932]],[[539.13807,606.00906],[1.5284,4.46762],[-1.57736,-9.47816]],[[534.49709,578.17342],[2.16912,9.28794],[-1.10928,-4.74978]],[[529.36527,563.32176],[3.07118,3.97394],[0,0]],[[529.76527,560.52176],[-1.6,1.2],[0.01434,-0.01076]],[[529.80819,560.49016],[-0.01428,0.0103],[0.00188,-5.27972]],[[528.97029,544.70482],[-0.0112,5.32368],[-2.1504,-15.0527]],[[523.48693,499.47222],[0,15.39796],[0,0]],[[523.51493,499.17968],[-0.028,0.17636],[-0.15884,-0.19934]],[523.27667,498.82148],[[522.67131,497.41302],[0,0],[-0.92562,-5.5573]],[[520.57315,480.60606],[0.96248,5.50956],[-0.46928,-2.68624]],[[518.85143,473.4853],[0.0365,2.9397],[0,-14.52902]],[[519.69329,430.11106],[-0.03184,14.52712],[0,0]],[[519.27285,428.95634],[0,0],[0,-9.2368]],[[518.85827,401.30828],[-0.0265,9.18612],[-1.61258,-9.5129]],[[518.01837,372.68454],[0.86174,9.55806],[-0.44782,-4.96704]],[[515.51167,357.93596],[0.26216,4.96814],[0,0]],[[515.48019,357.8786],[0,0],[0.01976,-7.71342]],[[512.54005,334.89814],[1.48228,7.57258],[-0.01242,-9.1038]],[[508.32305,307.4744],[0.83256,9.1176],[-0.55138,-6.03826]],[[509.15327,289.59048],[-0.09852,5.94608],[0,0]],[[507.71657,287.75662],[0,0],[-2.98888,-8.91986]],[[498.83211,261.14078],[4.23272,8.6159],[-1.09152,-2.22188]],[[496.43565,255.04688],[1.52644,1.908],[-4.8944,-8.1382]],[[478.43733,239.57704],[7.71112,5.17192],[-4.29644,-2.88168]],[[465.67029,231.31364],[4.82126,2.19022],[-3.04232,-1.38209]],[[454.91642,226.43968],[3.65797,1.02479],[-7.70686,8.1729]],[[446.76641,259.57135],[1.99884,-10.65051],[0.23136,0.48694]],[446.99777,260.53312],[[446.99777,261.79734],[0,0],[0,8.20738]],[[451.95003,285.6006],[-3.24678,-7.50312],[1.50468,5.9756]],[[458.62347,300.173],[-2.44922,-5.26098],[2.68528,5.76808]],[[465.73275,318.60222],[-2.84728,-5.87724],[1.7803,3.67484]],[[474.70509,325.41452],[-2.9172,-2.2298],[0.99196,0.75824]],[[477.31917,328.0972],[-0.02184,-1.24838],[0.02664,1.523]],[[474.81887,331.92222],[0.83344,-1.275],[-14.04556,-1.20128]],[[432.70209,318.03136],[11.5827,8.03308],[0,0]],[[431.59873,317.75916],[0,0],[-9.92948,-7.45294]],[[402.28937,293.02182],[10.66306,6.29984],[-10.6143,-6.07522]],[[386.13435,262.78192],[0.97348,11.67922],[-0.39118,-4.69316]],[[385.70791,248.73362],[-0.02366,4.72596],[0.00172,-0.34318]],[[385.68947,247.38052],[-0.00106,0.50614],[-11.34958,7.02846]],[[354.42029,272.1936],[10.29542,-8.4106],[-5.94694,4.85822]],[[335.32497,285.77802],[6.27764,-4.4837],[-6.36068,4.2389]],[[314.84215,297.87798],[7.63564,-1.78408],[-5.64176,1.31822]],[[297.10485,297.51008],[5.78226,0],[-5.31998,0]],[[281.44501,295.18376],[4.71328,2.74608],[-6.09492,-2.6052]],[[263.76187,286.7637],[5.90316,2.97586],[-1.73494,-0.8746]],[[256.37617,283.72538],[1.1854,1.45742],[-1.77252,-2.17926]],[[257.08689,275.02426],[-1.40602,2.05674],[3.62346,-5.30046]],[[273.65417,266.03734],[-4.84858,3.69358],[4.42616,-2.65838]],[[286.22761,256.81298],[-3.24804,4.11838],[2.63124,-3.33628]],[[290.15057,240.51646],[1.32478,4.2424],[-1.05118,-3.36626]],[[280.91155,233.37344],[3.8945,1.39282],[1.0271,1.07764]],[[281.04235,235.79552],[0,0],[-6.38706,9.32508]],[[256.88315,259.25234],[7.28458,-8.61874],[-3.07222,3.63488]],[[250.28465,271.80452],[2.66882,-4.0151],[-2.95752,4.3673]],[[245.28343,285.52826],[1.54184,-4.70384],[-3.76512,11.48654]],[[237.78761,321.51686],[3.00796,-12.03186],[-5.78958,16.72838]],[[233.36625,374.9712],[0,-17.5994],[0,20.25506]],[[233.36625,435.7364],[0,-20.25506],[0,5.9887]],[[234.08407,453.4217],[-0.14384,-5.9486],[0.03238,0.19122]],[234.11645,453.7409],[[234.11645,458.24204],[0,0],[0,0.60852]],[[233.41589,459.76244],[0.42878,-0.36682],[0.1766,6.43228]],[[233.35655,479.1943],[0.78274,-6.24032],[-0.67576,5.38742]],[[228.76251,493.88324],[1.85264,-4.6309],[-0.73542,1.83828]],[[228.09997,501.74722],[0.53112,-2.1245],[-0.04642,1.69442]],[[226.52877,506.58354],[0.49122,-1.62232],[-2.04146,6.74218]],[[225.83857,528.82996],[1.15166,-7.02178],[-1.60248,9.77046]],[[220.60335,557.96398],[1.97636,-9.75194],[0,5.4645]],[[218.33669,573.84122],[0.91122,-5.25924],[-0.74118,4.27784]],[[218.33565,587.66186],[-0.13878,-4.50386],[1.16104,0.78548]],[219.01005,589.90724],[[218.40807,591.71318],[0,0],[0.3106,6.76616]],[[221.33031,611.96044],[-0.79476,-6.7368],[0,0]]],&quot;closed&quot;:true}]}" fill="#52402d" stroke="none" stroke-width="0.5" stroke-linecap="butt"/><path d="" fill="#000000" stroke="none" stroke-width="0.5" stroke-linecap="butt"/><path d="M259.71632,276.91787c0,0 0.45219,0.06667 0.45219,-0.45328c0,-0.51996 -0.53993,-0.52832 -0.53993,-0.52832l-0.32208,-0.00168c2.58576,-1.53422 4.08084,-3.72886 5.82101,-6.19475c0.83386,-1.39687 1.91164,0.00532 2.49061,0.84749c-1.71522,1.69887 -3.47822,3.46991 -5.15829,5.37946c-0.81036,0.92106 -1.53413,2.66547 -2.63509,3.10826c-0.51961,-0.19621 -1.17048,-1.34763 -1.22642,-2.15165c0.17117,0.03093 0.4255,-0.00877 0.58617,-0.00267l0.53184,-0.00287z" data-paper-data="{&quot;noHover&quot;:false,&quot;origItem&quot;:[&quot;Path&quot;,{&quot;applyMatrix&quot;:true,&quot;segments&quot;:[[[583.25139,495.65874],[0,1],[0,-1]],[584.25139,494.65874],[[584.85269,494.65874],[0,0],[-4.84073,-2.95068]],[[574.08601,482.88011],[3.25773,4.74252],[-1.56105,-2.68651]],[[569.46039,484.48145],[1.08387,-1.6197],[3.21102,3.26736]],[[579.00685,494.67021],[-3.14521,-3.67254],[1.51706,1.77141]],[[583.91806,500.65874],[-2.06109,-0.8516],[0.97275,-0.37736]],[[586.18396,496.55072],[-0.10473,1.54633],[-0.32045,0.05949]],[[585.25139,496.65874],[0.30079,-0.01173],[0,0]],[584.25139,496.65874]],&quot;closed&quot;:true}],&quot;index&quot;:null}" fill="#744824" stroke="none" stroke-width="0.5" stroke-linecap="butt"/><path d="M266.63709,271.49428c0,-1.36921 1.10996,-2.47917 2.47917,-2.47917c1.36921,0 2.47917,1.10996 2.47917,2.47917c0,1.36921 -1.10996,2.47917 -2.47917,2.47917c-1.36921,0 -2.47917,-1.10996 -2.47917,-2.47917z" fill="#9966ff" stroke="none" stroke-width="0.5" stroke-linecap="butt"/><path d="M268.82605,256.70786c2.80223,0.31019 2.32191,3.09449 2.32191,5.56597c0,0.572 0,1.144 0,1.71601v0.14329c0.4255,0.07762 1.03327,-0.02929 1.46601,-0.02929c0.80805,0 3.00619,-0.5156 3.6439,0.0578c0.83024,0.74652 0.61013,3.42106 0.61013,4.45623c0,2.32193 0.08674,4.67077 -0.13968,6.96759c-0.26315,2.58337 -1.29395,5.56671 -3.33756,7.2704c-2.3388,1.66508 -5.68104,2.1392 -8.52612,1.53928c-2.65875,-0.57544 -6.70312,-1.39143 -7.1643,-4.73765c-0.00322,-2.66538 -0.22227,-5.40665 1.00743,-7.86133c0.72883,-2.05548 1.972,-3.73096 2.10118,-5.92638c-0.72811,0.28256 -1.38885,0.65243 -2.08067,1.00014c-3.31636,1.29763 -5.35798,-1.36275 -3.04304,-4.14067c1.78726,-1.79026 3.95185,-1.96874 6.33155,-2.36603c0,0 0.01784,-0.00297 0.04473,-0.00252c0.02291,-0.01766 0.04057,-0.02649 0.04057,-0.02649c0.48878,-0.23442 1.04373,-0.41725 1.63672,-0.55987c0.12601,-3.25654 1.97319,-3.63313 5.08724,-3.06648z" fill="#ff0000" stroke="#000000" stroke-width="0.5" stroke-linecap="butt"/><path d="M263.82378,259.44676c-0.15099,-2.07779 -0.39065,-3.30501 1.42809,-3.30501c1.40698,0 3.09877,-0.01022 4.50628,-0.01022c0.04746,0.02785 0.09409,0.0292 0.09409,0.0292l0.10957,-0.00485c0.41967,-0.12172 0.86281,-0.08031 1.30153,-0.00701c0.03824,1.12768 0.10939,2.24501 0.10873,3.38563c0,0 0,0.02034 0.0058,0.04942c-0.00306,0.07448 -0.00604,0.14898 -0.00893,0.22349c-0.61709,0.00718 -1.33843,-0.01721 -1.55154,0.01259c-1.98373,-0.00196 -3.98985,-0.53287 -5.99361,-0.37325z" data-paper-data="{&quot;noHover&quot;:false,&quot;origItem&quot;:[&quot;Path&quot;,{&quot;applyMatrix&quot;:true,&quot;segments&quot;:[[[535.12936,417.74145],[-5.02125,-0.00391],[0.96679,-0.10681]],[[541.48204,417.51231],[-0.30659,0.39793],[0.74755,-0.97026]],[[541.01796,410.80199],[0.54306,-0.04458],[-1.79076,-0.18637]],[[535.49104,410.53876],[1.79136,-0.41053],[0,0]],[535.21543,410.55066],[[534.97952,410.49495],[0.12013,0.05571],[-3.56273,0]],[[523.73824,410.49495],[3.56138,0],[-4.60362,0]],[[520.13041,417.03337],[-0.3822,-4.15558],[5.07196,-0.31925]]],&quot;closed&quot;:true}]}" fill="#ff0000" stroke="none" stroke-width="0.5" stroke-linecap="butt"/><path d="M265.67389,259.60155c0.03961,0.05095 0.12439,0.19233 -0.017,0.33371c-0.17678,0.17678 -0.35355,0 -0.35355,0l-0.12894,-0.23249c0,-1.26482 -0.23649,-2.49832 -0.13855,-3.7799c0,0 0.01918,-0.24927 0.26844,-0.23009c0.24926,0.01917 0.23009,0.26844 0.23009,0.26844c-0.09562,1.23465 0.12742,2.42293 0.13951,3.64033z" fill="#020204" stroke="none" stroke-width="0.5" stroke-linecap="butt"/><path d="M269.16811,255.86812c0.23717,0.07906 0.15812,0.31623 0.15812,0.31623l-0.01503,0.00451c0,1.26191 -0.22285,2.47741 -0.22285,3.73287c0,0 0,0.25 -0.25,0.25c-0.25,0 -0.25,-0.25 -0.25,-0.25c0,-1.2568 0.22285,-2.4708 0.22285,-3.73287l0.04069,-0.16263c0,0 0.07906,-0.23717 0.31623,-0.15811z" fill="#020204" stroke="none" stroke-width="0.5" stroke-linecap="butt"/><path d="M265.70297,256.16418c-2.30181,0 -1.99502,1.19142 -1.80392,3.26921c2.52628,-0.15902 4.97009,0.34818 7.47068,0.354c-0.00647,0.16632 -0.01247,0.3327 -0.01785,0.49919c-2.57255,-0.00853 -5.08413,-0.55353 -7.68958,-0.33467c0,0 -0.24914,0.02076 -0.2699,-0.22838c-0.0045,-0.05391 0.00365,-0.09713 0.01918,-0.13176c-0.1987,-2.35993 -0.43115,-3.92758 2.2914,-3.92758c1.78287,0 3.56573,0 5.34859,0h0.1977c0.00394,0.16696 0.00892,0.33359 0.0146,0.5c-1.76753,0 -3.80008,0 -5.56089,0z" fill="#000000" stroke="none" stroke-width="0.5" stroke-linecap="butt"/><path d="M271.21437,260.05449l0.04546,-4.13649" fill="none" stroke="#000000" stroke-width="0.5" stroke-linecap="round"/><path d="M380.17332,276.77428l0.53184,0.00287c0.16067,-0.0061 0.415,0.0336 0.58617,0.00267c-0.05594,0.80402 -0.70681,1.95544 -1.22642,2.15165c-1.10096,-0.44279 -1.82473,-2.1872 -2.63509,-3.10826c-1.68007,-1.90955 -3.44307,-3.68059 -5.15829,-5.37946c0.57897,-0.84217 1.65675,-2.24436 2.49061,-0.84749c1.74017,2.46589 3.23525,4.66053 5.82101,6.19475l-0.32208,0.00168c0,0 -0.53993,0.00836 -0.53993,0.52832c0,0.51995 0.45219,0.45328 0.45219,0.45328z" data-paper-data="{&quot;noHover&quot;:false,&quot;origItem&quot;:[&quot;Path&quot;,{&quot;applyMatrix&quot;:true,&quot;segments&quot;:[[[583.25139,495.65874],[0,1],[0,-1]],[584.25139,494.65874],[[584.85269,494.65874],[0,0],[-4.84073,-2.95068]],[[574.08601,482.88011],[3.25773,4.74252],[-1.56105,-2.68651]],[[569.46039,484.48145],[1.08387,-1.6197],[3.21102,3.26736]],[[579.00685,494.67021],[-3.14521,-3.67254],[1.51706,1.77141]],[[583.91806,500.65874],[-2.06109,-0.8516],[0.97275,-0.37736]],[[586.18396,496.55072],[-0.10473,1.54633],[-0.32045,0.05949]],[[585.25139,496.65874],[0.30079,-0.01173],[0,0]],[584.25139,496.65874]],&quot;closed&quot;:true}],&quot;index&quot;:null}" fill="#744824" stroke="none" stroke-width="0.5" stroke-linecap="butt"/><path d="M370.77339,273.82984c-1.36921,0 -2.47917,-1.10996 -2.47917,-2.47917c0,-1.36921 1.10996,-2.47917 2.47917,-2.47917c1.36921,0 2.47917,1.10996 2.47917,2.47917c0,1.36921 -1.10996,2.47917 -2.47917,2.47917z" data-paper-data="{&quot;index&quot;:null}" fill="#9966ff" stroke="none" stroke-width="0.5" stroke-linecap="butt"/><path d="M376.15084,259.63074c0.59299,0.14262 1.14794,0.32545 1.63672,0.55987c0,0 0.01766,0.00883 0.04057,0.02649c0.02689,-0.00045 0.04473,0.00252 0.04473,0.00252c2.3797,0.39729 4.54429,0.57577 6.33155,2.36603c2.31494,2.77792 0.27332,5.4383 -3.04304,4.14067c-0.69182,-0.34771 -1.35256,-0.71758 -2.08067,-1.00014c0.12918,2.19542 1.37235,3.8709 2.10118,5.92638c1.2297,2.45468 1.01065,5.19595 1.00743,7.86133c-0.46118,3.34622 -4.50555,4.16221 -7.1643,4.73765c-2.84508,0.59992 -6.18732,0.1258 -8.52612,-1.53928c-2.04361,-1.70369 -3.07441,-4.68703 -3.33756,-7.2704c-0.22642,-2.29682 -0.13968,-4.64566 -0.13968,-6.96759c0,-1.03517 -0.22011,-3.70971 0.61013,-4.45623c0.63771,-0.5734 2.83585,-0.0578 3.6439,-0.0578c0.43274,0 1.04051,0.10691 1.46601,0.02929v-0.14329c0,-0.57201 0,-1.14401 0,-1.71601c0,-2.47148 -0.48032,-5.25578 2.32191,-5.56597c3.11405,-0.56665 4.96123,-0.19006 5.08724,3.06648z" data-paper-data="{&quot;index&quot;:null}" fill="#ff0000" stroke="#000000" stroke-width="0.5" stroke-linecap="butt"/><path d="M376.06586,259.30314c-2.00376,-0.15962 -4.00988,0.37129 -5.99361,0.37325c-0.21311,-0.0298 -0.93445,-0.00541 -1.55154,-0.01259c-0.00289,-0.07451 -0.00587,-0.14901 -0.00893,-0.22349c0.0058,-0.02908 0.0058,-0.04942 0.0058,-0.04942c-0.00066,-1.14062 0.07049,-2.25795 0.10873,-3.38563c0.43872,-0.0733 0.88186,-0.11471 1.30153,0.00701l0.10957,0.00485c0,0 0.04663,-0.00135 0.09409,-0.0292c1.40751,0 3.0993,0.01022 4.50628,0.01022c1.81874,0 1.57908,1.22722 1.42809,3.30501z" data-paper-data="{&quot;noHover&quot;:false,&quot;origItem&quot;:[&quot;Path&quot;,{&quot;applyMatrix&quot;:true,&quot;segments&quot;:[[[535.12936,417.74145],[-5.02125,-0.00391],[0.96679,-0.10681]],[[541.48204,417.51231],[-0.30659,0.39793],[0.74755,-0.97026]],[[541.01796,410.80199],[0.54306,-0.04458],[-1.79076,-0.18637]],[[535.49104,410.53876],[1.79136,-0.41053],[0,0]],[535.21543,410.55066],[[534.97952,410.49495],[0.12013,0.05571],[-3.56273,0]],[[523.73824,410.49495],[3.56138,0],[-4.60362,0]],[[520.13041,417.03337],[-0.3822,-4.15558],[5.07196,-0.31925]]],&quot;closed&quot;:true}],&quot;index&quot;:null}" fill="#ff0000" stroke="none" stroke-width="0.5" stroke-linecap="butt"/><path d="M374.35527,255.81762c0,0 -0.01917,-0.24927 0.23009,-0.26844c0.24926,-0.01918 0.26844,0.23009 0.26844,0.23009c0.09794,1.28158 -0.13855,2.51508 -0.13855,3.7799l-0.12894,0.23249c0,0 -0.17677,0.17678 -0.35355,0c-0.14139,-0.14138 -0.05661,-0.28276 -0.017,-0.33371c0.01209,-1.2174 0.23513,-2.40568 0.13951,-3.64033z" data-paper-data="{&quot;index&quot;:null}" fill="#020204" stroke="none" stroke-width="0.5" stroke-linecap="butt"/><path d="M370.72153,255.72452c0.23717,-0.07906 0.31623,0.15811 0.31623,0.15811l0.04069,0.16263c0,1.26207 0.22285,2.47607 0.22285,3.73287c0,0 0,0.25 -0.25,0.25c-0.25,0 -0.25,-0.25 -0.25,-0.25c0,-1.25546 -0.22285,-2.47096 -0.22285,-3.73287l-0.01503,-0.00451c0,0 -0.07905,-0.23717 0.15812,-0.31623z" data-paper-data="{&quot;index&quot;:null}" fill="#020204" stroke="none" stroke-width="0.5" stroke-linecap="butt"/><path d="M374.18667,256.02061c-1.76081,0 -3.79336,0 -5.56089,0c0.00568,-0.16641 0.01066,-0.33304 0.0146,-0.5h0.1977c1.78286,0 3.56572,0 5.34859,0c2.72255,0 2.4901,1.56765 2.2914,3.92758c0.01553,0.03463 0.02368,0.07785 0.01918,0.13176c-0.02076,0.24914 -0.2699,0.22838 -0.2699,0.22838c-2.60545,-0.21886 -5.11703,0.32614 -7.68958,0.33467c-0.00538,-0.16649 -0.01138,-0.33287 -0.01785,-0.49919c2.50059,-0.00582 4.9444,-0.51302 7.47068,-0.354c0.1911,-2.07779 0.49789,-3.26921 -1.80392,-3.26921z" data-paper-data="{&quot;index&quot;:null}" fill="#000000" stroke="none" stroke-width="0.5" stroke-linecap="butt"/><path d="M368.67528,259.91087l-0.04546,-4.13649" data-paper-data="{&quot;index&quot;:null}" fill="none" stroke="#000000" stroke-width="0.5" stroke-linecap="round"/><g stroke="none" stroke-linecap="butt"><g><path d="M265.68729,266.05448c0,0.29655 -0.08734,0.53695 -0.19507,0.53695c-0.10774,0 -0.23137,-0.21421 -0.23137,-0.51076c0,-0.10544 -0.12506,-0.36093 -0.10599,-0.44389c0.03457,-0.15037 0.26792,-0.11925 0.33735,-0.11925c0.05604,0 0.24265,-0.09212 0.27823,0.01203c0.03283,0.09609 -0.08316,0.38262 -0.08316,0.52493z" fill="#35ff07" stroke-width="0"/><path d="M265.7215,266.42318c-0.00152,0.02377 -0.01126,0.10018 -0.07395,0.10018c-0.07423,0 -0.07423,-0.10714 -0.07423,-0.10714l0.00473,-0.05072c0.02797,-0.10685 0.04154,-0.20116 0.05017,-0.31472c0.0185,-0.21643 0.18698,-0.54539 0.0366,-0.52933c-0.05341,0.0057 -0.40085,-0.00724 -0.48127,0.11498c-0.03669,0.05577 0.19148,0.71346 0.21595,0.80765c0,0 0.02606,0.10032 -0.04344,0.13794c-0.0695,0.03762 -0.09556,-0.0627 -0.09556,-0.0627c-0.04843,-0.18641 -0.22332,-0.77016 -0.13791,-0.96037c0.09092,-0.20246 0.60164,-0.2407 0.69446,-0.05586c0.09338,0.18597 -0.02925,0.38728 -0.04127,0.57135c-0.00968,0.12432 -0.02535,0.23236 -0.05427,0.34874z" fill="#209a05" stroke-width="0.5"/></g><path d="M264.88382,267.20358c-0.09297,0.02376 -0.11156,-0.09505 -0.11156,-0.09505l-0.02238,-0.14603c0.0046,-1.30763 -0.99912,-0.50028 -1.38478,0.13223c-0.58417,0.99572 -0.99647,2.1652 -0.57313,3.4301c0.25681,1.30451 0.92874,1.65584 1.43887,0.60399l0.01606,-0.10261c0.00796,-0.05663 0.04671,-0.09961 0.09331,-0.09961c0.03141,0 0.05926,0.01952 0.07651,0.04959l0.05625,0.09586c0.66534,0.637 0.95246,0.62914 1.68929,0.08523c0,0 0.0073,-0.00533 0.01878,-0.01003c0.00652,-0.03432 0.02522,-0.07405 0.07567,-0.0848c0.09352,-0.01992 0.1091,0.0996 0.1091,0.0996l0.02197,0.17097c-0.00904,0.67208 0.66103,0.72351 1.06997,0.51244c1.01512,-0.41519 1.19191,-2.61799 1.19939,-3.70285c-0.34488,-1.17543 -1.13716,-1.63208 -1.87677,-0.68512c0,0 -0.06704,0.08568 -0.13408,0c-0.02578,-0.03295 -0.03173,-0.0659 -0.0293,-0.09398c-0.00316,-0.00267 -0.0049,-0.00445 -0.0049,-0.00445c-0.16163,-0.16561 -0.25425,-0.42117 -0.40641,-0.56174c-0.38814,-0.35859 -0.81669,-0.43158 -1.20161,0.22593l-0.00204,-0.12403c0,0 0.021,0.20089 -0.04574,0.22207c-0.00663,0.03323 -0.02501,0.07014 -0.07248,0.08228zM264.37089,271.2465c-0.04193,0.34967 -0.83205,0.66975 -1.02708,0.64543c-0.40801,-0.05088 -0.65093,-0.87468 -0.73153,-1.28973c-0.44826,-1.33415 -0.01639,-2.60075 0.60293,-3.65588c0.47442,-0.74302 1.62487,-1.51956 1.71689,-0.19425c0.46604,-0.68055 0.99943,-0.49966 1.47569,-0.05238c0.13317,0.12506 0.18444,0.32904 0.32276,0.47014c0,0 0.00241,0.00246 0.00601,0.00705c0.83318,-0.9546 1.72516,-0.37941 2.10716,0.92249c0.00703,1.22071 -0.21506,3.48721 -1.32074,3.97364c-0.5181,0.26257 -1.28134,0.12497 -1.32245,-0.66548c-0.73873,0.5213 -1.18146,0.42464 -1.82963,-0.16103z" fill="#ff5b1c" stroke-width="0.5"/><path d="M264.95015,267.10337c0.06674,-0.02118 0.04665,-0.22235 0.04665,-0.22235l0.00177,0.1241c0.38492,-0.65751 0.82351,-0.5848 1.21164,-0.22621c0.15216,0.14057 0.24948,0.39798 0.41111,0.56359c0,0 0.00179,0.00181 0.00495,0.00447c-0.00244,0.02808 0.00411,0.06138 0.0299,0.09434c0.06704,0.08568 0.13498,0.00059 0.13498,0.00059c0.73961,-0.94696 1.53916,-0.4805 1.88405,0.69494c-0.00748,1.08486 -0.19182,3.30923 -1.20694,3.72441c-0.40894,0.21108 -1.08345,0.16182 -1.07441,-0.51026l-0.03436,-0.20681c0,0 -0.00352,-0.08357 -0.09704,-0.06365c-0.05045,0.01075 -0.06999,0.05073 -0.07651,0.08505c-0.01149,0.00471 -0.01896,0.01008 -0.01896,0.01008c-0.73683,0.54391 -1.03833,0.5497 -1.70367,-0.0873l-0.05696,-0.0963c-0.01725,-0.03007 -0.04573,-0.05003 -0.07715,-0.05003c-0.0466,0 -0.0632,0.01219 -0.07116,0.06883l-0.03803,0.13352c-0.51012,1.05185 -1.1882,0.69341 -1.44501,-0.6111c-0.42333,-1.26491 -0.00826,-2.45541 0.57592,-3.45112c0.38566,-0.63251 1.39633,-1.44481 1.39173,-0.13718l0.03716,0.18095c0,0 0.00408,0.08378 0.09705,0.06002c0.04747,-0.01213 0.06668,-0.04935 0.0733,-0.08258z" data-paper-data="{&quot;noHover&quot;:false,&quot;origItem&quot;:[&quot;Path&quot;,{&quot;applyMatrix&quot;:true,&quot;segments&quot;:[[[494.8341,541.01525],[0.25034,-0.06399],[-0.49029,0.12533]],[494.24575,540.51395],[[494.12771,539.74381],[0,0],[0.02426,-6.89635]],[[486.82445,540.44119],[2.03396,-3.33583],[-3.08089,5.25136]],[[483.8018,558.53133],[-2.23265,-6.67104],[1.35439,6.87992]],[[491.3903,561.71672],[-2.69035,5.54739],[0,0]],[[491.47498,561.17557],[0,0],[0.04197,-0.29868]],[[491.96709,560.65025],[-0.24578,0],[0.16566,0]],[[492.37058,560.91181],[-0.09098,-0.15859],[0,0]],[[492.66726,561.41739],[0,0],[3.50896,3.35948]],[[501.57648,561.8669],[-3.88601,2.86853],[0,0]],[[501.67555,561.81397],[-0.06059,0.02483],[0.03439,-0.18099]],[[502.07463,561.36673],[-0.26608,0.05668],[0.4932,-0.10506]],[502.65002,561.89201],[[502.76588,562.7937],[0,0],[-0.04771,3.54449]],[[508.40881,565.49625],[-2.15669,1.1132],[5.3537,-2.18966]],[[514.73429,545.96768],[-0.03944,5.72145],[-1.8189,-6.19916]],[[504.8363,542.35438],[3.90067,-4.99419],[0,0]],[[504.12919,542.35438],[0.35355,0.45187],[-0.13597,-0.17378]],[[503.9747,541.85874],[-0.01287,0.14808],[-0.01665,-0.01408]],[[503.94888,541.83529],[0,0],[-0.85242,-0.87342]],[[501.80551,538.8727],[0.80246,0.74137],[-2.04702,-1.89119]],[[495.46831,540.06426],[2.03005,-3.46768],[0,0]],[495.45755,539.41016],[[495.21633,540.58133],[0.35198,-0.11168],[-0.03494,0.17523]]],&quot;closed&quot;:true}]}" fill="#ff9c1b" stroke-width="0.5"/><path d="M264.84384,266.98495c-0.00565,-0.00283 -0.01074,-0.00584 -0.01531,-0.009c-0.28454,0.3208 0.34827,-0.1626 0.76332,-0.08576c0.24438,0.04525 0.39779,0.28553 0.52533,0.49184c-0.00438,-0.12177 0.01634,-0.26322 0.07402,-0.30318c0.16839,-0.11666 0.45082,0.2449 0.45509,0.23729c0.21123,-0.37608 -0.30498,-0.6426 -0.56061,-0.72887c-0.31576,-0.18855 -0.71676,-0.22914 -0.93787,-0.00598c0.015,0.05037 -0.02653,0.09189 -0.02653,0.09189c-0.03163,0.03163 -0.06093,0.06106 -0.08798,0.08842c-0.01366,0.03526 -0.02478,0.0736 -0.03309,0.11515l-0.02917,0.06581c0,0 -0.0424,0.0848 -0.1272,0.0424zM264.87855,266.6418c0.22046,-0.46603 0.82365,-0.5058 1.28636,-0.22679c0.29425,0.09671 1.05087,0.63391 0.61545,1.03521c-0.12746,0.11748 -0.52261,-0.38956 -0.46896,-0.22473c0.0324,0.09955 0.00658,0.21519 -0.02831,0.3248v0.10591v0c0,0.05236 -0.04245,0.09481 -0.09481,0.09481c-0.03141,0 -0.05926,-0.01528 -0.07651,-0.03881l-0.06234,-0.08312l0.00072,-0.00054l-0.00227,-0.00159c-0.10516,-0.15806 -0.2557,-0.5092 -0.48122,-0.54882c-0.22326,-0.03923 -0.8411,0.47455 -1.03197,0.16919c-0.10278,-0.16443 0.16882,-0.44018 0.34383,-0.60552z" fill="#1f9404" stroke-width="0.5"/><path d="M264.95209,266.94348l0.02916,-0.06749c0.00831,-0.04155 0.01982,-0.08299 0.03348,-0.11825c0.02706,-0.02735 0.05722,-0.05972 0.08885,-0.09135c0,0 0.04269,-0.044 0.02769,-0.09437c0.22111,-0.22316 0.65284,-0.18588 0.9686,0.00267c0.25562,0.08627 0.77496,0.3731 0.56373,0.74918c-0.00427,0.00761 -0.28624,-0.35506 -0.45464,-0.2384c-0.05767,0.03995 -0.08415,0.18945 -0.07976,0.31122c-0.12754,-0.20631 -0.27413,-0.45908 -0.51851,-0.50433c-0.41505,-0.07685 -1.0856,0.40587 -0.80106,0.08506c0.00457,0.00317 0.04744,0.00301 0.0531,0.00583c0.08479,0.0424 0.08937,-0.03978 0.08937,-0.03978z" data-paper-data="{&quot;noHover&quot;:false,&quot;origItem&quot;:[&quot;Path&quot;,{&quot;applyMatrix&quot;:true,&quot;segments&quot;:[[[494.62319,539.86222],[0.44721,0.22361],[-0.0298,-0.0149]],[[494.54246,539.81474],[0.02411,0.01669],[-1.50064,1.6919]],[[498.56818,539.36246],[-2.18896,-0.40528],[1.28885,0.23863]],[[501.33871,541.95638],[-0.67264,-1.08805],[-0.02312,-0.6422]],[[501.72907,540.35743],[-0.30416,0.21072],[0.88811,-0.61528]],[[504.12919,541.60889],[-0.02254,0.04013],[1.11399,-1.98341]],[[501.17259,537.76486],[1.34814,0.45499],[-1.66527,-0.99441]],[[496.22633,537.7333],[1.16614,-1.17693],[0.07909,0.26564]],[[496.08641,538.21795],[0,0],[-0.16683,0.16683]],[[495.62239,538.68425],[0.1427,-0.14426],[-0.07202,0.18596]],[[495.44785,539.29155],[0.04383,-0.21913],[0,0]],[495.29401,539.63861]],&quot;closed&quot;:true}]}" fill="#35ff07" stroke-width="0.5"/><g stroke-width="0.5"><path d="M264.22486,268.06381c0.00542,-0.03282 0.02868,-0.05609 0.02868,-0.05609c0.09726,-0.09718 0.42933,-0.50505 0.57329,-0.50283c0.15302,0.00236 0.48745,0.71693 0.38244,0.84466c-0.1414,0.17199 -0.61093,-0.0473 -0.786,-0.0674c-0.03934,-0.01708 -0.07868,-0.03415 -0.11802,-0.05123l-0.0633,-0.05436c0,0 -0.05353,-0.05353 -0.01709,-0.11275zM264.44409,268.08598c0.00958,0.00439 0.01916,0.00878 0.02874,0.01316c0.07958,0.00854 0.55115,0.17137 0.58145,0.14119c0.13902,-0.13849 -0.09028,-0.69305 -0.22017,-0.54596c-0.11678,0.13224 -0.25699,0.26147 -0.39002,0.39161z" fill="#7a4d0d"/><path d="M264.75097,267.6289c0.16072,-0.18201 0.45555,0.5436 0.28353,0.71497c-0.03749,0.03735 -0.65878,-0.17064 -0.75725,-0.1812c-0.01185,-0.00543 -0.02436,-0.01234 -0.03621,-0.01777c0.16462,-0.16103 0.36543,-0.35236 0.50993,-0.516z" data-paper-data="{&quot;noHover&quot;:false,&quot;origItem&quot;:[&quot;Path&quot;,{&quot;applyMatrix&quot;:true,&quot;segments&quot;:[[[246.25748,272.83447],[0.35081,-0.34316],[0.02526,0.01157]],[[246.33327,272.86918],[-0.02526,-0.01157],[0.20985,0.02251]],[[247.86653,273.24151],[-0.07989,0.07958],[0.36658,-0.3652]],[[247.28595,271.80182],[0.34251,-0.38787],[-0.30794,0.34872]]],&quot;closed&quot;:true}]}" fill="#000000"/></g><g stroke-width="0.5"><path d="M265.75015,268.38389c0.00541,-0.03282 0.02868,-0.05609 0.02868,-0.05609c0.09726,-0.09718 0.42933,-0.50505 0.57329,-0.50283c0.15302,0.00236 0.48745,0.71694 0.38244,0.84466c-0.1414,0.17198 -0.61093,-0.0473 -0.786,-0.0674c-0.03934,-0.01708 -0.07868,-0.03415 -0.11802,-0.05123l-0.0633,-0.05437c0,0 -0.05353,-0.05353 -0.01709,-0.11275zM265.96937,268.40606c0.00958,0.00439 0.01916,0.00878 0.02874,0.01316c0.07958,0.00854 0.55116,0.17137 0.58145,0.14119c0.13902,-0.13849 -0.09028,-0.69305 -0.22017,-0.54596c-0.11677,0.13224 -0.25699,0.26147 -0.39002,0.39161z" fill="#7a4d0d"/><path d="M266.27625,267.94897c0.16072,-0.182 0.45555,0.5436 0.28353,0.71497c-0.03749,0.03735 -0.65878,-0.17063 -0.75725,-0.18119c-0.01185,-0.00543 -0.02436,-0.01235 -0.03621,-0.01777c0.16462,-0.16103 0.36543,-0.35236 0.50993,-0.516z" data-paper-data="{&quot;noHover&quot;:false,&quot;origItem&quot;:[&quot;Path&quot;,{&quot;applyMatrix&quot;:true,&quot;segments&quot;:[[[492.51495,545.66895],[0.70161,-0.68632],[0.05053,0.02314]],[[492.66654,545.73837],[-0.05053,-0.02314],[0.4197,0.04501]],[[495.73306,546.48302],[-0.15977,0.15917],[0.73316,-0.73039]],[[494.57191,543.60365],[0.68501,-0.77574],[-0.61587,0.69744]]],&quot;closed&quot;:true}]}" fill="#000000"/></g><path d="M267.06309,270.22047c-0.09407,-0.01177 -0.0823,-0.10585 -0.0823,-0.10585l0.00571,-0.02283c-0.02766,-0.24197 0.05541,-0.47921 0.06426,-0.72078c0.00421,-0.11475 0.04644,-0.45119 0.00411,-0.34445c-0.09453,0.23836 -0.30977,0.50916 -0.49652,0.74472l-0.06609,0.1451c-0.01621,0.03788 -0.05602,0.06211 -0.09895,0.05673c-0.03775,-0.00473 -0.06752,-0.03103 -0.07848,-0.065l-0.03751,-0.10826l0.00356,-0.00123l-0.00663,-0.00969c-0.02559,-0.26315 -0.09002,-0.51383 -0.14385,-0.77179c-0.0214,-0.10256 -0.12164,0.17089 -0.18881,0.2513c-0.09366,0.11213 -0.38171,0.54006 -0.57526,0.44915c-0.41547,-0.19516 0.32794,-1.19074 -0.38888,-0.37828c-0.06503,0.07245 -0.25645,0.44913 -0.38673,0.41952c-0.11923,-0.0271 -0.30802,-0.95319 -0.36181,-0.92535c-0.11492,0.05947 -0.54196,0.56066 -0.58137,0.67681c0,0 -0.03424,0.08841 -0.12265,0.05417c-0.08841,-0.03424 -0.05417,-0.12265 -0.05417,-0.12265c0.05302,-0.12634 0.57027,-0.77409 0.72403,-0.79484c0.28243,-0.0381 0.33546,0.42671 0.3908,0.59955c0.014,0.04373 0.04275,0.1115 0.06358,0.17409c0.05721,-0.07302 0.14133,-0.15524 0.18614,-0.20675c0.0781,-0.08852 0.3618,-0.4853 0.49126,-0.44087c0.13714,0.04707 0.18423,0.4726 0.17371,0.67765c0.05592,-0.05605 0.1379,-0.12088 0.17782,-0.16306c0.06005,-0.06346 0.35674,-0.51929 0.49319,-0.4556c0.19387,0.0905 0.25078,0.51097 0.27581,0.77561c0.1278,-0.34906 0.54675,-0.94074 0.76993,-0.65247c0.18685,0.24135 -0.07923,0.82876 -0.04227,1.11386l-0.00581,0.06916c0,0 -0.01177,0.09407 -0.10585,0.0823z" fill="#000000" stroke-width="0.5"/><g><path d="M269.27822,272.70896c0.21963,0.19927 0.33898,0.42549 0.26659,0.50528c-0.07239,0.07979 -0.31411,0.02741 -0.53374,-0.17186c-0.07808,-0.07085 -0.35134,-0.14991 -0.39996,-0.21978c-0.08814,-0.12665 0.09171,-0.27856 0.13837,-0.32998c0.03765,-0.0415 0.09483,-0.24161 0.19587,-0.19797c0.09322,0.04026 0.22748,0.31868 0.33288,0.41431z" fill="#35ff07" stroke-width="0"/><path d="M269.57426,272.93137c0.01658,0.01709 0.06662,0.07565 0.0245,0.12208c-0.04988,0.05497 -0.12923,-0.01702 -0.12923,-0.01702l-0.03439,-0.03758c-0.06034,-0.09252 -0.12106,-0.16593 -0.19937,-0.24863c-0.14786,-0.15913 -0.27827,-0.50495 -0.36743,-0.38278c-0.03167,0.04339 -0.27471,0.29201 -0.23823,0.43369c0.01665,0.06465 0.65705,0.33759 0.74325,0.38276c0,0 0.09181,0.04811 0.07297,0.12486c-0.01884,0.07675 -0.11065,0.02864 -0.11065,0.02864c-0.1706,-0.08939 -0.72044,-0.35212 -0.80391,-0.54319c-0.08885,-0.20337 0.22601,-0.60731 0.42528,-0.55184c0.20048,0.0558 0.26716,0.28189 0.3954,0.41448c0.08557,0.09071 0.15505,0.17491 0.22181,0.27452z" fill="#209a05" stroke-width="0.5"/></g><path d="M269.58935,274.07615c-0.04487,0.08482 -0.14535,0.01875 -0.14535,0.01875l-0.12319,-0.08155c-0.96533,-0.88207 -1.04187,0.40378 -0.83258,1.11442c0.34489,1.10171 0.93396,2.19288 2.15521,2.72931c1.13868,0.68637 1.85038,0.42481 1.41416,-0.65977l-0.06521,-0.08084c-0.0366,-0.04395 -0.04239,-0.10152 -0.01107,-0.13604c0.02111,-0.02326 0.05428,-0.03077 0.08814,-0.02334l0.1088,0.02275c0.91883,-0.06472 1.10594,-0.28264 1.19824,-1.19381c0,0 0.00096,-0.00899 0.00519,-0.02066c-0.02103,-0.02788 -0.0379,-0.06844 -0.01196,-0.11302c0.04809,-0.08264 0.14707,-0.01387 0.14707,-0.01387l0.14138,0.09861c0.49166,0.4583 0.98001,-0.0034 1.09847,-0.44809c0.37463,-1.03078 -1.13797,-2.64188 -1.93639,-3.37638c-1.10227,-0.53441 -1.97283,-0.2545 -1.7685,0.92956c0,0 0.01841,0.10722 -0.09009,0.0993c-0.04173,-0.00305 -0.07013,-0.02078 -0.08928,-0.04145c-0.0041,0.00055 -0.00658,0.00064 -0.00658,0.00064c-0.23126,0.00842 -0.48276,-0.09471 -0.68911,-0.07648c-0.52638,0.0465 -0.8684,0.31484 -0.6401,1.04172l-0.09322,-0.08183c0,0 0.16289,0.11943 0.13373,0.18309c0.02016,0.02723 0.03514,0.06566 0.01223,0.10896zM272.23886,277.17266c0.23079,0.26602 -0.06308,1.06625 -0.21214,1.19435c-0.31184,0.26798 -1.08517,-0.10566 -1.44672,-0.32486c-1.28927,-0.5645 -1.93712,-1.73543 -2.3024,-2.9031c-0.23149,-0.85063 -0.03354,-2.22444 1.0098,-1.40205c-0.19086,-0.80245 0.30152,-1.07592 0.9528,-1.12809c0.18211,-0.01459 0.36762,0.0845 0.56507,0.07688c0,0 0.00344,-0.00013 0.00926,0.00029c-0.14712,-1.25849 0.87823,-1.53259 2.09909,-0.94068c0.90878,0.81505 2.43811,2.5025 2.0554,3.64822c-0.15367,0.56014 -0.76845,1.03293 -1.38147,0.53223c-0.11031,0.89739 -0.4794,1.16032 -1.34868,1.24681z" fill="#ff5b1c" stroke-width="0.5"/><path d="M269.5597,273.95969c0.02916,-0.06366 -0.13333,-0.18396 -0.13333,-0.18396l0.0931,0.08208c-0.2283,-0.72689 0.12025,-1.00284 0.64663,-1.04934c0.20635,-0.01823 0.46238,0.08266 0.69364,0.07424c0,0 0.00254,-0.00011 0.00664,-0.00066c0.01915,0.02068 0.04823,0.0382 0.08996,0.04125c0.1085,0.00792 0.09114,-0.09957 0.09114,-0.09957c-0.20433,-1.18406 0.67838,-1.46277 1.78065,-0.92836c0.79842,0.73451 2.32191,2.36569 1.94728,3.39647c-0.11846,0.44469 -0.60818,0.91114 -1.09984,0.45284l-0.17625,-0.11351c0,0 -0.06426,-0.05355 -0.11235,0.02909c-0.02594,0.04459 -0.00946,0.08593 0.01158,0.11381c-0.00423,0.01167 -0.00528,0.02082 -0.00528,0.02082c-0.0923,0.91117 -0.2906,1.13835 -1.20943,1.20307l-0.10959,-0.02253c-0.03386,-0.00743 -0.06779,0.00025 -0.08889,0.02352c-0.03132,0.03451 -0.03344,0.055 0.00316,0.09895l0.07333,0.11788c0.43622,1.08458 -0.28487,1.34591 -1.42355,0.65954c-1.22125,-0.53644 -1.82401,-1.64379 -2.1689,-2.7455c-0.20929,-0.71063 -0.13176,-2.00495 0.83358,-1.12289l0.15898,0.09407c0,0 0.06479,0.05327 0.10966,-0.03155c0.02291,-0.04331 0.00825,-0.08254 -0.0119,-0.10978z" data-paper-data="{&quot;noHover&quot;:false,&quot;origItem&quot;:[&quot;Path&quot;,{&quot;applyMatrix&quot;:true,&quot;segments&quot;:[[[494.8341,541.01525],[0.25034,-0.06399],[-0.49029,0.12533]],[494.24575,540.51395],[[494.12771,539.74381],[0,0],[0.02426,-6.89635]],[[486.82445,540.44119],[2.03396,-3.33583],[-3.08089,5.25136]],[[483.8018,558.53133],[-2.23265,-6.67104],[1.35439,6.87992]],[[491.3903,561.71672],[-2.69035,5.54739],[0,0]],[[491.47498,561.17557],[0,0],[0.04197,-0.29868]],[[491.96709,560.65025],[-0.24578,0],[0.16566,0]],[[492.37058,560.91181],[-0.09098,-0.15859],[0,0]],[[492.66726,561.41739],[0,0],[3.50896,3.35948]],[[501.57648,561.8669],[-3.88601,2.86853],[0,0]],[[501.67555,561.81397],[-0.06059,0.02483],[0.03439,-0.18099]],[[502.07463,561.36673],[-0.26608,0.05668],[0.4932,-0.10506]],[502.65002,561.89201],[[502.76588,562.7937],[0,0],[-0.04771,3.54449]],[[508.40881,565.49625],[-2.15669,1.1132],[5.3537,-2.18966]],[[514.73429,545.96768],[-0.03944,5.72145],[-1.8189,-6.19916]],[[504.8363,542.35438],[3.90067,-4.99419],[0,0]],[[504.12919,542.35438],[0.35355,0.45187],[-0.13597,-0.17378]],[[503.9747,541.85874],[-0.01287,0.14808],[-0.01665,-0.01408]],[[503.94888,541.83529],[0,0],[-0.85242,-0.87342]],[[501.80551,538.8727],[0.80246,0.74137],[-2.04702,-1.89119]],[[495.46831,540.06426],[2.03005,-3.46768],[0,0]],[495.45755,539.41016],[[495.21633,540.58133],[0.35198,-0.11168],[-0.03494,0.17523]]],&quot;closed&quot;:true}]}" fill="#ff9c1b" stroke-width="0.5"/><path d="M269.40056,273.95886c-0.00589,0.00228 -0.01154,0.00403 -0.01695,0.00529c0.04639,0.42629 0.1136,-0.36719 0.4494,-0.62294c0.19772,-0.15059 0.47875,-0.10274 0.71725,-0.05857c-0.09313,-0.07858 -0.18396,-0.18898 -0.1748,-0.25854c0.02675,-0.2031 0.4843,-0.16931 0.48154,-0.17759c-0.13659,-0.40914 -0.68084,-0.20593 -0.9165,-0.07458c-0.35182,0.10715 -0.65132,0.37686 -0.63463,0.69056c0.04738,0.02274 0.05023,0.0814 0.05023,0.0814c0.00217,0.04468 0.00428,0.08615 0.00636,0.12457c0.01694,0.03381 0.03786,0.06782 0.06304,0.10189l0.02914,0.06582c0,0 0.03431,0.08838 -0.05407,0.12269zM269.16974,273.70257c-0.197,-0.47642 0.17886,-0.94987 0.69641,-1.10507c0.26935,-0.15293 1.1756,-0.35232 1.18023,0.23981c0.00135,0.17334 -0.63967,0.12528 -0.48155,0.1963c0.0955,0.04289 0.16379,0.13972 0.22153,0.23921l0.07843,0.07116v0c0.03878,0.03518 0.04169,0.09514 0.00651,0.13392c-0.02111,0.02326 -0.05113,0.03362 -0.08015,0.03059l-0.10345,-0.00969l0.00008,-0.00089l-0.0027,0.00061c-0.18772,-0.02832 -0.54892,-0.15279 -0.72981,-0.0124c-0.17907,0.13899 -0.21373,0.94179 -0.56813,0.87796c-0.19084,-0.03437 -0.21256,-0.4208 -0.21741,-0.66152z" fill="#1f9404" stroke-width="0.5"/><path d="M269.44259,273.85081l-0.03038,-0.06695c-0.02518,-0.03407 -0.04815,-0.07044 -0.06508,-0.10425c-0.00208,-0.03842 -0.00578,-0.08251 -0.00795,-0.12719c0,0 -0.0039,-0.06118 -0.05128,-0.08392c-0.01669,-0.31371 0.30102,-0.60839 0.65283,-0.71554c0.23566,-0.13135 0.79705,-0.32322 0.93364,0.08591c0.00276,0.00828 -0.45529,-0.02659 -0.48205,0.17651c-0.00916,0.06956 0.08377,0.18962 0.17689,0.2682c-0.23849,-0.04417 -0.5242,-0.10547 -0.72192,0.04512c-0.3358,0.25575 -0.42889,1.07672 -0.47528,0.65042c0.00542,-0.00126 0.03411,-0.03312 0.04,-0.0354c0.08838,-0.03431 0.03059,-0.09292 0.03059,-0.09292z" data-paper-data="{&quot;noHover&quot;:false,&quot;origItem&quot;:[&quot;Path&quot;,{&quot;applyMatrix&quot;:true,&quot;segments&quot;:[[[494.62319,539.86222],[0.44721,0.22361],[-0.0298,-0.0149]],[[494.54246,539.81474],[0.02411,0.01669],[-1.50064,1.6919]],[[498.56818,539.36246],[-2.18896,-0.40528],[1.28885,0.23863]],[[501.33871,541.95638],[-0.67264,-1.08805],[-0.02312,-0.6422]],[[501.72907,540.35743],[-0.30416,0.21072],[0.88811,-0.61528]],[[504.12919,541.60889],[-0.02254,0.04013],[1.11399,-1.98341]],[[501.17259,537.76486],[1.34814,0.45499],[-1.66527,-0.99441]],[[496.22633,537.7333],[1.16614,-1.17693],[0.07909,0.26564]],[[496.08641,538.21795],[0,0],[-0.16683,0.16683]],[[495.62239,538.68425],[0.1427,-0.14426],[-0.07202,0.18596]],[[495.44785,539.29155],[0.04383,-0.21913],[0,0]],[495.29401,539.63861]],&quot;closed&quot;:true}]}" fill="#35ff07" stroke-width="0.5"/><g stroke-width="0.5"><path d="M269.78364,275.14221c-0.02067,-0.02607 -0.02227,-0.05893 -0.02227,-0.05893c-0.00662,-0.13734 -0.08555,-0.65733 0.01283,-0.76245c0.10457,-0.11174 0.8585,0.12074 0.88253,0.28434c0.03236,0.22028 -0.44555,0.42067 -0.57807,0.53682c-0.03908,0.01766 -0.07817,0.03532 -0.11725,0.05298l-0.08279,0.01035c0,0 -0.07561,0.00367 -0.09499,-0.06311zM269.94737,274.99474c0.00969,-0.00415 0.01938,-0.00829 0.02906,-0.01244c0.0598,-0.0532 0.49727,-0.29303 0.49527,-0.33574c-0.00916,-0.19602 -0.57393,-0.39883 -0.55228,-0.20381c0.01947,0.17534 0.02096,0.36602 0.02794,0.55199z" fill="#7a4d0d"/><path d="M269.81507,274.46033c-0.0268,-0.24133 0.70869,0.0279 0.72002,0.27044c0.00247,0.05286 -0.56903,0.37323 -0.64303,0.43906c-0.01199,0.00513 -0.02551,0.00974 -0.0375,0.01488c-0.00864,-0.23012 -0.0154,-0.50741 -0.0395,-0.72439z" data-paper-data="{&quot;noHover&quot;:false,&quot;origItem&quot;:[&quot;Path&quot;,{&quot;applyMatrix&quot;:true,&quot;segments&quot;:[[[246.25748,272.83447],[0.35081,-0.34316],[0.02526,0.01157]],[[246.33327,272.86918],[-0.02526,-0.01157],[0.20985,0.02251]],[[247.86653,273.24151],[-0.07989,0.07958],[0.36658,-0.3652]],[[247.28595,271.80182],[0.34251,-0.38787],[-0.30794,0.34872]]],&quot;closed&quot;:true}]}" fill="#000000"/></g><g stroke-width="0.5"><path d="M271.04561,274.22766c-0.02067,-0.02606 -0.02227,-0.05893 -0.02227,-0.05893c-0.00662,-0.13734 -0.08555,-0.65733 0.01283,-0.76245c0.10457,-0.11174 0.8585,0.12074 0.88253,0.28434c0.03236,0.22028 -0.44554,0.42066 -0.57806,0.53682c-0.03908,0.01766 -0.07816,0.03532 -0.11725,0.05298l-0.0828,0.01035c0,0 -0.07561,0.00367 -0.09499,-0.06311zM271.20933,274.0802c0.00969,-0.00415 0.01938,-0.0083 0.02906,-0.01244c0.0598,-0.0532 0.49727,-0.29303 0.49527,-0.33574c-0.00916,-0.19602 -0.57394,-0.39883 -0.55228,-0.2038c0.01947,0.17534 0.02096,0.36602 0.02794,0.55199z" fill="#7a4d0d"/><path d="M271.07702,273.54579c-0.0268,-0.24133 0.7087,0.02789 0.72002,0.27044c0.00247,0.05286 -0.56903,0.37323 -0.64302,0.43906c-0.01199,0.00513 -0.02551,0.00974 -0.0375,0.01487c-0.00864,-0.23012 -0.0154,-0.50741 -0.0395,-0.72438z" data-paper-data="{&quot;noHover&quot;:false,&quot;origItem&quot;:[&quot;Path&quot;,{&quot;applyMatrix&quot;:true,&quot;segments&quot;:[[[492.51495,545.66895],[0.70161,-0.68632],[0.05053,0.02314]],[[492.66654,545.73837],[-0.05053,-0.02314],[0.4197,0.04501]],[[495.73306,546.48302],[-0.15977,0.15917],[0.73316,-0.73039]],[[494.57191,543.60365],[0.68501,-0.77574],[-0.61587,0.69744]]],&quot;closed&quot;:true}]}" fill="#000000"/></g><path d="M273.288,274.48939c-0.07193,0.06176 -0.13369,-0.01018 -0.13369,-0.01018l-0.01307,-0.01957c-0.19779,-0.14211 -0.31767,-0.36304 -0.49062,-0.53192c-0.08216,-0.08022 -0.30294,-0.33758 -0.25234,-0.2345c0.11301,0.23017 0.16893,0.57155 0.2179,0.86814l0.06305,0.14645c0.01717,0.03746 0.00835,0.08322 -0.02447,0.1114c-0.02886,0.02478 -0.06835,0.02916 -0.10087,0.01445l-0.10538,-0.04497l0.00148,-0.00346l-0.01163,-0.0016c-0.21209,-0.15787 -0.44103,-0.2786 -0.66824,-0.41207c-0.09034,-0.05307 0.04483,0.20491 0.05925,0.30869c0.0201,0.14471 0.14348,0.64559 -0.05391,0.72784c-0.42371,0.17655 -0.6615,-1.04299 -0.54146,0.03382c0.00996,0.09684 0.16031,0.49172 0.05083,0.56831c-0.10019,0.07009 -0.9129,-0.41238 -0.92843,-0.35383c-0.03318,0.12508 0.05105,0.77811 0.11059,0.88534c0,0 0.04246,0.08477 -0.0423,0.12723c-0.08476,0.04247 -0.12723,-0.0423 -0.12723,-0.0423c-0.05794,-0.12416 -0.1901,-0.9425 -0.10214,-1.07031c0.16156,-0.23477 0.54144,0.03829 0.70662,0.11345c0.0418,0.01901 0.11131,0.04326 0.17166,0.06989c-0.01564,-0.09143 -0.02,-0.20898 -0.02804,-0.27678c-0.01308,-0.11732 -0.11631,-0.59405 0.00359,-0.66006c0.12701,-0.06994 0.4738,0.18112 0.61859,0.32669c-0.00394,-0.07907 0.00314,-0.18336 -0.00128,-0.24126c-0.00665,-0.08712 -0.14487,-0.61314 -0.00601,-0.67139c0.1973,-0.08277 0.54694,0.15762 0.75974,0.31691c-0.17264,-0.3292 -0.32933,-1.03705 0.03414,-1.00864c0.3043,0.02379 0.56054,0.61556 0.79651,0.77977l0.04732,0.05077c0,0 0.06176,0.07193 -0.01018,0.13369z" fill="#000000" stroke-width="0.5"/><g><path d="M265.16541,275.63144c-0.05935,0.21601 -0.17107,0.37364 -0.24954,0.35208c-0.07848,-0.02156 -0.12566,-0.20233 -0.06632,-0.41834c0.0211,-0.0768 -0.01886,-0.28793 0.01163,-0.34454c0.05527,-0.10262 0.21902,-0.03325 0.2696,-0.01935c0.04082,0.01121 0.19518,-0.01854 0.20026,0.06444c0.00468,0.07656 -0.13714,0.26206 -0.16562,0.36571z" fill="#35ff07" stroke-width="0"/><path d="M265.11655,275.90684c-0.00586,0.01701 -0.02825,0.07072 -0.07391,0.05817c-0.05407,-0.01485 -0.03263,-0.0929 -0.03263,-0.0929l0.01359,-0.036c0.04176,-0.07223 0.07051,-0.13821 0.09952,-0.2192c0.05679,-0.15395 0.24534,-0.35985 0.13258,-0.37824c-0.04005,-0.00653 -0.29053,-0.08549 -0.37357,-0.01256c-0.03789,0.03328 -0.0033,0.558 -0.00432,0.63151c0,0 -0.0011,0.07829 -0.05925,0.09178c-0.05815,0.01349 -0.05706,-0.06479 -0.05706,-0.06479c0.00203,-0.14547 -0.00855,-0.60568 0.09174,-0.72713c0.10674,-0.12928 0.4864,-0.05493 0.51702,0.09829c0.0308,0.15415 -0.09881,0.27624 -0.1444,0.40791c-0.03193,0.08862 -0.06496,0.16418 -0.10932,0.24316z" fill="#209a05" stroke-width="0.5"/></g><path d="M264.35021,276.30766c-0.07247,-0.0013 -0.06224,-0.09156 -0.06224,-0.09156l0.01292,-0.11085c0.26503,-0.95156 -0.62765,-0.56435 -1.03514,-0.1808c-0.62477,0.60838 -1.15912,1.37772 -1.10389,2.3838c-0.07399,1.0016 0.34514,1.39197 0.92721,0.72789l0.03223,-0.07153c0.01713,-0.03966 0.05395,-0.06321 0.0879,-0.05388c0.02288,0.00629 0.03926,0.02608 0.04581,0.05144l0.02179,0.08108c0.35716,0.59714 0.56787,0.64887 1.21343,0.40014c0,0 0.00638,-0.00242 0.01569,-0.00355c0.01161,-0.02369 0.03319,-0.0489 0.07209,-0.04663c0.0721,0.0042 0.05954,0.09438 0.05954,0.09438l-0.01821,0.12893c-0.14108,0.48773 0.33671,0.65929 0.67682,0.58738c0.8225,-0.09928 1.39209,-1.66843 1.61464,-2.45715c-0.01599,-0.92521 -0.5017,-1.41638 -1.22994,-0.87462c0,0 -0.06598,0.04899 -0.09766,-0.02683c-0.01218,-0.02916 -0.00993,-0.05435 -0.00253,-0.07432c-0.00177,-0.00258 -0.00268,-0.00422 -0.00268,-0.00422c-0.08459,-0.15298 -0.10092,-0.35766 -0.18361,-0.4905c-0.21096,-0.33887 -0.50851,-0.4778 -0.92047,-0.07589l0.02333,-0.09075c0,0 -0.0249,0.15053 -0.07775,0.1526c-0.01148,0.02288 -0.03226,0.04609 -0.06926,0.04543zM263.16753,279.14989c-0.10052,0.24631 -0.74009,0.32134 -0.87729,0.2646c-0.28701,-0.11871 -0.2991,-0.76738 -0.27475,-1.08583c-0.05953,-1.0615 0.50851,-1.89767 1.17078,-2.5423c0.49426,-0.44628 1.48765,-0.78168 1.28946,0.20209c0.47566,-0.40245 0.82798,-0.16395 1.08538,0.25716c0.07198,0.11775 0.0685,0.27658 0.14102,0.40704c0,0 0.00126,0.00228 0.00296,0.00634c0.79792,-0.5286 1.33254,0.06887 1.35025,1.09362c-0.23916,0.89058 -0.8545,2.49706 -1.75722,2.63011c-0.42993,0.08758 -0.95834,-0.16539 -0.8301,-0.74938c-0.64241,0.23189 -0.94555,0.07287 -1.30048,-0.48344z" fill="#ff5b1c" stroke-width="0.5"/><path d="M264.41858,276.24794c0.05285,-0.00207 0.07847,-0.15263 0.07847,-0.15263l-0.02355,0.09075c0.41196,-0.4019 0.71687,-0.26117 0.92783,0.0777c0.0827,0.13284 0.10208,0.33981 0.18667,0.49279c0,0 0.00094,0.00167 0.00271,0.00425c-0.0074,0.01996 -0.00929,0.04554 0.0029,0.0747c0.03168,0.07582 0.0982,0.02744 0.0982,0.02744c0.72824,-0.54176 1.21728,-0.04198 1.23327,0.88322c-0.22254,0.78872 -0.80195,2.37206 -1.62446,2.47134c-0.34011,0.07191 -0.82157,-0.09895 -0.68049,-0.58668l0.01635,-0.15752c0,0 0.01416,-0.06158 -0.05795,-0.06579c-0.0389,-0.00227 -0.06114,0.02295 -0.07275,0.04664c-0.00931,0.00113 -0.01583,0.00355 -0.01583,0.00355c-0.64555,0.24873 -0.86632,0.19261 -1.22349,-0.40452l-0.02221,-0.08154c-0.00655,-0.02536 -0.0233,-0.0456 -0.04618,-0.05188c-0.03395,-0.00933 -0.04848,-0.00377 -0.06561,0.03589l-0.05442,0.08964c-0.58207,0.66408 -1.00425,0.2673 -0.93026,-0.7343c-0.05523,-1.00608 0.48535,-1.79018 1.11013,-2.39855c0.40749,-0.38354 1.30622,-0.77297 1.04119,0.17859l-0.00915,0.13924c0,0 -0.01379,0.06184 0.05868,0.06314c0.037,0.00066 0.05844,-0.0226 0.06992,-0.04548z" data-paper-data="{&quot;noHover&quot;:false,&quot;origItem&quot;:[&quot;Path&quot;,{&quot;applyMatrix&quot;:true,&quot;segments&quot;:[[[494.8341,541.01525],[0.25034,-0.06399],[-0.49029,0.12533]],[494.24575,540.51395],[[494.12771,539.74381],[0,0],[0.02426,-6.89635]],[[486.82445,540.44119],[2.03396,-3.33583],[-3.08089,5.25136]],[[483.8018,558.53133],[-2.23265,-6.67104],[1.35439,6.87992]],[[491.3903,561.71672],[-2.69035,5.54739],[0,0]],[[491.47498,561.17557],[0,0],[0.04197,-0.29868]],[[491.96709,560.65025],[-0.24578,0],[0.16566,0]],[[492.37058,560.91181],[-0.09098,-0.15859],[0,0]],[[492.66726,561.41739],[0,0],[3.50896,3.35948]],[[501.57648,561.8669],[-3.88601,2.86853],[0,0]],[[501.67555,561.81397],[-0.06059,0.02483],[0.03439,-0.18099]],[[502.07463,561.36673],[-0.26608,0.05668],[0.4932,-0.10506]],[502.65002,561.89201],[[502.76588,562.7937],[0,0],[-0.04771,3.54449]],[[508.40881,565.49625],[-2.15669,1.1132],[5.3537,-2.18966]],[[514.73429,545.96768],[-0.03944,5.72145],[-1.8189,-6.19916]],[[504.8363,542.35438],[3.90067,-4.99419],[0,0]],[[504.12919,542.35438],[0.35355,0.45187],[-0.13597,-0.17378]],[[503.9747,541.85874],[-0.01287,0.14808],[-0.01665,-0.01408]],[[503.94888,541.83529],[0,0],[-0.85242,-0.87342]],[[501.80551,538.8727],[0.80246,0.74137],[-2.04702,-1.89119]],[[495.46831,540.06426],[2.03005,-3.46768],[0,0]],[495.45755,539.41016],[[495.21633,540.58133],[0.35198,-0.11168],[-0.03494,0.17523]]],&quot;closed&quot;:true}]}" fill="#ff9c1b" stroke-width="0.5"/><path d="M264.36483,276.14041c-0.00355,-0.00319 -0.00665,-0.0064 -0.00935,-0.00962c-0.27146,0.17673 0.28622,-0.04875 0.57317,0.09029c0.16895,0.08186 0.23261,0.28758 0.28422,0.46338c0.02118,-0.08957 0.06458,-0.18846 0.11458,-0.20603c0.146,-0.05128 0.27937,0.2686 0.284,0.26392c0.22912,-0.23167 -0.09355,-0.52911 -0.26249,-0.6431c-0.19226,-0.20053 -0.47623,-0.31034 -0.68195,-0.19204c0.00085,0.03969 -0.03771,0.06163 -0.03771,0.06163c-0.02937,0.01671 -0.0566,0.03229 -0.08178,0.0468c-0.017,0.02295 -0.03278,0.04865 -0.04715,0.07725l-0.03442,0.0421c0,0 -0.04786,0.05328 -0.10114,0.00543zM264.45878,275.8974c0.25385,-0.29534 0.70117,-0.2036 0.98237,0.09223c0.19498,0.12933 0.6386,0.67204 0.24113,0.87721c-0.11635,0.06006 -0.30271,-0.38834 -0.29661,-0.25754c0.00368,0.07899 -0.03827,0.15806 -0.08562,0.23092l-0.02119,0.07714v0c-0.01048,0.03814 -0.04989,0.06056 -0.08803,0.05008c-0.02288,-0.00629 -0.04011,-0.02299 -0.04797,-0.04358l-0.02877,-0.07302l0.00063,-0.00025l-0.00133,-0.00161c-0.04497,-0.13618 -0.08435,-0.42207 -0.24069,-0.49606c-0.15477,-0.07325 -0.70762,0.17734 -0.78555,-0.08327c-0.04196,-0.14034 0.21105,-0.28684 0.37162,-0.37226z" fill="#1f9404" stroke-width="0.5"/><path d="M264.45199,276.13186l0.03475,-0.04332c0.01437,-0.0286 0.03104,-0.05648 0.04805,-0.07944c0.02518,-0.01451 0.05363,-0.03205 0.083,-0.04876c0,0 0.0399,-0.02351 0.03905,-0.0632c0.20572,-0.1183 0.51273,-0.00475 0.70499,0.19578c0.16893,0.11399 0.48982,0.42685 0.2607,0.65852c-0.00464,0.00468 -0.13745,-0.31591 -0.28345,-0.26463c-0.05,0.01756 -0.09921,0.12116 -0.12038,0.21073c-0.05161,-0.1758 -0.1078,-0.38926 -0.27676,-0.47112c-0.28695,-0.13903 -0.87198,0.07839 -0.60052,-0.09835c0.0027,0.00322 0.03396,0.01168 0.03751,0.01487c0.05328,0.04785 0.07306,-0.01109 0.07306,-0.01109z" data-paper-data="{&quot;noHover&quot;:false,&quot;origItem&quot;:[&quot;Path&quot;,{&quot;applyMatrix&quot;:true,&quot;segments&quot;:[[[494.62319,539.86222],[0.44721,0.22361],[-0.0298,-0.0149]],[[494.54246,539.81474],[0.02411,0.01669],[-1.50064,1.6919]],[[498.56818,539.36246],[-2.18896,-0.40528],[1.28885,0.23863]],[[501.33871,541.95638],[-0.67264,-1.08805],[-0.02312,-0.6422]],[[501.72907,540.35743],[-0.30416,0.21072],[0.88811,-0.61528]],[[504.12919,541.60889],[-0.02254,0.04013],[1.11399,-1.98341]],[[501.17259,537.76486],[1.34814,0.45499],[-1.66527,-0.99441]],[[496.22633,537.7333],[1.16614,-1.17693],[0.07909,0.26564]],[[496.08641,538.21795],[0,0],[-0.16683,0.16683]],[[495.62239,538.68425],[0.1427,-0.14426],[-0.07202,0.18596]],[[495.44785,539.29155],[0.04383,-0.21913],[0,0]],[495.29401,539.63861]],&quot;closed&quot;:true}]}" fill="#35ff07" stroke-width="0.5"/><g stroke-width="0.5"><path d="M263.69807,276.80238c0.01051,-0.02282 0.03211,-0.03511 0.03211,-0.03511c0.0903,-0.05132 0.41379,-0.28196 0.51821,-0.25153c0.11099,0.03234 0.21158,0.61976 0.10953,0.69179c-0.13741,0.09698 -0.43554,-0.15671 -0.55904,-0.20639c-0.02524,-0.02031 -0.05048,-0.04063 -0.07572,-0.06094l-0.03523,-0.05226c0,0 -0.02828,-0.0497 0.01012,-0.08555zM263.85332,276.8624c0.0061,0.00511 0.0122,0.01023 0.0183,0.01534c0.05626,0.02214 0.36717,0.23512 0.39527,0.2192c0.12897,-0.07306 0.07293,-0.52289 -0.05111,-0.44174c-0.11152,0.07296 -0.23952,0.13903 -0.36246,0.2072z" fill="#7a4d0d"/><path d="M264.16833,276.59088c0.15349,-0.10041 0.22304,0.48712 0.06344,0.57752c-0.03478,0.0197 -0.44571,-0.25612 -0.51532,-0.28352c-0.00755,-0.00633 -0.01527,-0.01387 -0.02282,-0.02019c0.15213,-0.08435 0.3367,-0.18353 0.4747,-0.27381z" data-paper-data="{&quot;noHover&quot;:false,&quot;origItem&quot;:[&quot;Path&quot;,{&quot;applyMatrix&quot;:true,&quot;segments&quot;:[[[246.25748,272.83447],[0.35081,-0.34316],[0.02526,0.01157]],[[246.33327,272.86918],[-0.02526,-0.01157],[0.20985,0.02251]],[[247.86653,273.24151],[-0.07989,0.07958],[0.36658,-0.3652]],[[247.28595,271.80182],[0.34251,-0.38787],[-0.30794,0.34872]]],&quot;closed&quot;:true}]}" fill="#000000"/></g><g stroke-width="0.5"><path d="M264.74504,277.34077c0.01051,-0.02282 0.03211,-0.03511 0.03211,-0.03511c0.0903,-0.05132 0.41379,-0.28196 0.51821,-0.25153c0.11099,0.03234 0.21158,0.61976 0.10953,0.69179c-0.13741,0.09698 -0.43553,-0.15671 -0.55903,-0.20638c-0.02524,-0.02031 -0.05048,-0.04062 -0.07572,-0.06093l-0.03523,-0.05227c0,0 -0.02828,-0.0497 0.01012,-0.08555zM264.90029,277.40078c0.0061,0.00511 0.0122,0.01023 0.0183,0.01534c0.05626,0.02214 0.36717,0.23513 0.39527,0.21921c0.12897,-0.07306 0.07293,-0.52289 -0.05112,-0.44174c-0.11152,0.07296 -0.23952,0.13903 -0.36246,0.2072z" fill="#7a4d0d"/><path d="M265.21529,277.12925c0.15349,-0.10041 0.22304,0.48712 0.06345,0.57753c-0.03478,0.0197 -0.44571,-0.25612 -0.51532,-0.28352c-0.00755,-0.00633 -0.01527,-0.01387 -0.02282,-0.0202c0.15213,-0.08435 0.3367,-0.18353 0.4747,-0.27381z" data-paper-data="{&quot;noHover&quot;:false,&quot;origItem&quot;:[&quot;Path&quot;,{&quot;applyMatrix&quot;:true,&quot;segments&quot;:[[[492.51495,545.66895],[0.70161,-0.68632],[0.05053,0.02314]],[[492.66654,545.73837],[-0.05053,-0.02314],[0.4197,0.04501]],[[495.73306,546.48302],[-0.15977,0.15917],[0.73316,-0.73039]],[[494.57191,543.60365],[0.68501,-0.77574],[-0.61587,0.69744]]],&quot;closed&quot;:true}]}" fill="#000000"/></g><path d="M265.33386,278.94128c-0.06616,-0.0274 -0.03876,-0.09357 -0.03876,-0.09357l0.00873,-0.01548c0.02828,-0.18179 0.13626,-0.33797 0.19105,-0.51216c0.02603,-0.08274 0.12412,-0.31936 0.07193,-0.25008c-0.11655,0.1547 -0.32753,0.30889 -0.5107,0.44309l-0.07718,0.09247c-0.01939,0.02435 -0.05323,0.03403 -0.08342,0.02152c-0.02655,-0.011 -0.04297,-0.03611 -0.04416,-0.06305l-0.00565,-0.08636l0.00284,-0.00018l-0.00289,-0.00838c0.03402,-0.1968 0.03725,-0.39229 0.04967,-0.59096c0.00493,-0.07899 -0.1228,0.10014 -0.18782,0.14527c-0.09067,0.06293 -0.38612,0.31699 -0.5089,0.21204c-0.26357,-0.2253 0.47716,-0.80172 -0.20756,-0.35336c-0.06187,0.03976 -0.27668,0.27583 -0.36565,0.22819c-0.08143,-0.0436 -0.03361,-0.75594 -0.07836,-0.74643c-0.09561,0.02032 -0.50696,0.29993 -0.55891,0.37665c0,0 -0.04264,0.05754 -0.10018,0.01491c-0.05754,-0.04263 -0.01491,-0.10018 -0.01491,-0.10018c0.0639,-0.08142 0.5703,-0.44973 0.68645,-0.43407c0.21335,0.02877 0.15896,0.37795 0.16468,0.51492c0.00145,0.03466 0.00883,0.08977 0.01147,0.13953c0.05628,-0.04174 0.13401,-0.08479 0.17696,-0.11335c0.07461,-0.04885 0.36065,-0.28109 0.44606,-0.22282c0.09048,0.06173 0.03962,0.38111 -0.00907,0.52836c0.05195,-0.02964 0.12464,-0.06045 0.16216,-0.08319c0.05644,-0.03421 0.36377,-0.30686 0.45041,-0.23316c0.12311,0.10472 0.08042,0.42238 0.04569,0.62015c0.16294,-0.22868 0.58651,-0.57583 0.69139,-0.32118c0.08781,0.21319 -0.22356,0.58782 -0.2537,0.80288l-0.01807,0.04922c0,0 -0.0274,0.06617 -0.09357,0.03876z" fill="#000000" stroke-width="0.5"/></g><g data-paper-data="{&quot;index&quot;:null}" stroke="none" stroke-linecap="butt"><g><path d="M369.93191,266.04587c0,0.29655 -0.08734,0.53695 -0.19507,0.53695c-0.10774,0 -0.23137,-0.21421 -0.23137,-0.51076c0,-0.10544 -0.12506,-0.36093 -0.10599,-0.44389c0.03457,-0.15037 0.26792,-0.11925 0.33735,-0.11925c0.05604,0 0.24265,-0.09212 0.27823,0.01203c0.03283,0.09609 -0.08316,0.38262 -0.08316,0.52493z" fill="#35ff07" stroke-width="0"/><path d="M369.96612,266.41457c-0.00152,0.02377 -0.01126,0.10018 -0.07395,0.10018c-0.07423,0 -0.07423,-0.10714 -0.07423,-0.10714l0.00473,-0.05072c0.02797,-0.10685 0.04154,-0.20116 0.05017,-0.31472c0.0185,-0.21643 0.18698,-0.54539 0.0366,-0.52933c-0.05341,0.0057 -0.40085,-0.00724 -0.48127,0.11498c-0.03669,0.05577 0.19148,0.71346 0.21595,0.80765c0,0 0.02606,0.10032 -0.04344,0.13794c-0.0695,0.03762 -0.09556,-0.0627 -0.09556,-0.0627c-0.04843,-0.18641 -0.22332,-0.77016 -0.13791,-0.96037c0.09092,-0.20246 0.60164,-0.2407 0.69446,-0.05586c0.09338,0.18597 -0.02925,0.38728 -0.04127,0.57135c-0.00968,0.12432 -0.02535,0.23236 -0.05427,0.34874z" fill="#209a05" stroke-width="0.5"/></g><path d="M369.12844,267.19497c-0.09297,0.02376 -0.11156,-0.09505 -0.11156,-0.09505l-0.02238,-0.14603c0.0046,-1.30763 -0.99912,-0.50028 -1.38478,0.13223c-0.58417,0.99572 -0.99647,2.1652 -0.57313,3.4301c0.25681,1.30451 0.92874,1.65584 1.43887,0.60399l0.01606,-0.10261c0.00796,-0.05663 0.04671,-0.09961 0.09331,-0.09961c0.03141,0 0.05926,0.01952 0.07651,0.04959l0.05625,0.09586c0.66534,0.637 0.95246,0.62914 1.68929,0.08523c0,0 0.0073,-0.00533 0.01878,-0.01003c0.00652,-0.03432 0.02522,-0.07405 0.07567,-0.0848c0.09352,-0.01992 0.1091,0.0996 0.1091,0.0996l0.02197,0.17097c-0.00904,0.67208 0.66103,0.72351 1.06997,0.51244c1.01512,-0.41519 1.19191,-2.61799 1.19939,-3.70285c-0.34488,-1.17543 -1.13716,-1.63208 -1.87677,-0.68512c0,0 -0.06704,0.08568 -0.13408,0c-0.02578,-0.03295 -0.03173,-0.0659 -0.0293,-0.09398c-0.00316,-0.00267 -0.0049,-0.00445 -0.0049,-0.00445c-0.16163,-0.16561 -0.25425,-0.42117 -0.40641,-0.56174c-0.38814,-0.35859 -0.81669,-0.43158 -1.20161,0.22593l-0.00204,-0.12403c0,0 0.021,0.20089 -0.04574,0.22207c-0.00663,0.03323 -0.02501,0.07014 -0.07248,0.08228zM368.61551,271.23789c-0.04193,0.34967 -0.83205,0.66975 -1.02708,0.64543c-0.40801,-0.05088 -0.65093,-0.87468 -0.73153,-1.28973c-0.44826,-1.33415 -0.01639,-2.60075 0.60293,-3.65588c0.47442,-0.74302 1.62487,-1.51956 1.71689,-0.19425c0.46604,-0.68055 0.99943,-0.49966 1.47569,-0.05238c0.13317,0.12506 0.18444,0.32904 0.32276,0.47014c0,0 0.00241,0.00246 0.00601,0.00705c0.83318,-0.9546 1.72516,-0.37941 2.10716,0.92249c0.00703,1.22071 -0.21506,3.48721 -1.32074,3.97364c-0.5181,0.26257 -1.28134,0.12497 -1.32245,-0.66548c-0.73873,0.5213 -1.18146,0.42464 -1.82963,-0.16103z" fill="#ff5b1c" stroke-width="0.5"/><path d="M369.19477,267.09476c0.06674,-0.02118 0.04665,-0.22235 0.04665,-0.22235l0.00177,0.1241c0.38492,-0.65751 0.82351,-0.5848 1.21164,-0.22621c0.15216,0.14057 0.24948,0.39798 0.41111,0.56359c0,0 0.00179,0.00181 0.00495,0.00447c-0.00244,0.02808 0.00411,0.06138 0.0299,0.09434c0.06704,0.08568 0.13498,0.00059 0.13498,0.00059c0.73961,-0.94696 1.53916,-0.4805 1.88405,0.69494c-0.00748,1.08486 -0.19182,3.30923 -1.20694,3.72441c-0.40894,0.21108 -1.08345,0.16182 -1.07441,-0.51026l-0.03436,-0.20681c0,0 -0.00352,-0.08357 -0.09704,-0.06365c-0.05045,0.01075 -0.06999,0.05073 -0.07651,0.08505c-0.01149,0.00471 -0.01896,0.01008 -0.01896,0.01008c-0.73683,0.54391 -1.03833,0.5497 -1.70367,-0.0873l-0.05696,-0.0963c-0.01725,-0.03007 -0.04573,-0.05003 -0.07715,-0.05003c-0.0466,0 -0.0632,0.01219 -0.07116,0.06883l-0.03803,0.13352c-0.51012,1.05185 -1.1882,0.69341 -1.44501,-0.6111c-0.42333,-1.26491 -0.00826,-2.45541 0.57592,-3.45112c0.38566,-0.63251 1.39633,-1.44481 1.39173,-0.13718l0.03716,0.18095c0,0 0.00408,0.08378 0.09705,0.06002c0.04747,-0.01213 0.06668,-0.04935 0.0733,-0.08258z" data-paper-data="{&quot;noHover&quot;:false,&quot;origItem&quot;:[&quot;Path&quot;,{&quot;applyMatrix&quot;:true,&quot;segments&quot;:[[[494.8341,541.01525],[0.25034,-0.06399],[-0.49029,0.12533]],[494.24575,540.51395],[[494.12771,539.74381],[0,0],[0.02426,-6.89635]],[[486.82445,540.44119],[2.03396,-3.33583],[-3.08089,5.25136]],[[483.8018,558.53133],[-2.23265,-6.67104],[1.35439,6.87992]],[[491.3903,561.71672],[-2.69035,5.54739],[0,0]],[[491.47498,561.17557],[0,0],[0.04197,-0.29868]],[[491.96709,560.65025],[-0.24578,0],[0.16566,0]],[[492.37058,560.91181],[-0.09098,-0.15859],[0,0]],[[492.66726,561.41739],[0,0],[3.50896,3.35948]],[[501.57648,561.8669],[-3.88601,2.86853],[0,0]],[[501.67555,561.81397],[-0.06059,0.02483],[0.03439,-0.18099]],[[502.07463,561.36673],[-0.26608,0.05668],[0.4932,-0.10506]],[502.65002,561.89201],[[502.76588,562.7937],[0,0],[-0.04771,3.54449]],[[508.40881,565.49625],[-2.15669,1.1132],[5.3537,-2.18966]],[[514.73429,545.96768],[-0.03944,5.72145],[-1.8189,-6.19916]],[[504.8363,542.35438],[3.90067,-4.99419],[0,0]],[[504.12919,542.35438],[0.35355,0.45187],[-0.13597,-0.17378]],[[503.9747,541.85874],[-0.01287,0.14808],[-0.01665,-0.01408]],[[503.94888,541.83529],[0,0],[-0.85242,-0.87342]],[[501.80551,538.8727],[0.80246,0.74137],[-2.04702,-1.89119]],[[495.46831,540.06426],[2.03005,-3.46768],[0,0]],[495.45755,539.41016],[[495.21633,540.58133],[0.35198,-0.11168],[-0.03494,0.17523]]],&quot;closed&quot;:true}]}" fill="#ff9c1b" stroke-width="0.5"/><path d="M369.08846,266.97634c-0.00565,-0.00283 -0.01074,-0.00584 -0.01531,-0.009c-0.28454,0.3208 0.34827,-0.1626 0.76332,-0.08576c0.24438,0.04525 0.39779,0.28553 0.52533,0.49184c-0.00438,-0.12177 0.01634,-0.26322 0.07402,-0.30318c0.16839,-0.11666 0.45082,0.2449 0.45509,0.23729c0.21123,-0.37608 -0.30498,-0.6426 -0.56061,-0.72887c-0.31576,-0.18855 -0.71676,-0.22914 -0.93787,-0.00598c0.015,0.05037 -0.02653,0.09189 -0.02653,0.09189c-0.03163,0.03163 -0.06093,0.06106 -0.08798,0.08842c-0.01366,0.03526 -0.02478,0.0736 -0.03309,0.11515l-0.02917,0.06581c0,0 -0.0424,0.0848 -0.1272,0.0424zM369.12317,266.63319c0.22046,-0.46603 0.82365,-0.5058 1.28636,-0.22679c0.29425,0.09671 1.05087,0.63391 0.61545,1.03521c-0.12746,0.11748 -0.52261,-0.38956 -0.46896,-0.22473c0.0324,0.09955 0.00658,0.21519 -0.02831,0.3248v0.10591v0c0,0.05236 -0.04245,0.09481 -0.09481,0.09481c-0.03141,0 -0.05926,-0.01528 -0.07651,-0.03881l-0.06234,-0.08312l0.00072,-0.00054l-0.00227,-0.00159c-0.10516,-0.15806 -0.2557,-0.5092 -0.48122,-0.54882c-0.22326,-0.03923 -0.8411,0.47455 -1.03197,0.16919c-0.10278,-0.16443 0.16882,-0.44018 0.34383,-0.60552z" fill="#1f9404" stroke-width="0.5"/><path d="M369.19671,266.93487l0.02916,-0.06749c0.00831,-0.04155 0.01982,-0.08299 0.03348,-0.11825c0.02706,-0.02735 0.05722,-0.05972 0.08885,-0.09135c0,0 0.04269,-0.044 0.02769,-0.09437c0.22111,-0.22316 0.65284,-0.18588 0.9686,0.00267c0.25562,0.08627 0.77496,0.3731 0.56373,0.74918c-0.00427,0.00761 -0.28624,-0.35506 -0.45464,-0.2384c-0.05767,0.03995 -0.08415,0.18945 -0.07976,0.31122c-0.12754,-0.20631 -0.27413,-0.45908 -0.51851,-0.50433c-0.41505,-0.07685 -1.0856,0.40587 -0.80106,0.08506c0.00457,0.00317 0.04744,0.00301 0.0531,0.00583c0.08479,0.0424 0.08937,-0.03978 0.08937,-0.03978z" data-paper-data="{&quot;noHover&quot;:false,&quot;origItem&quot;:[&quot;Path&quot;,{&quot;applyMatrix&quot;:true,&quot;segments&quot;:[[[494.62319,539.86222],[0.44721,0.22361],[-0.0298,-0.0149]],[[494.54246,539.81474],[0.02411,0.01669],[-1.50064,1.6919]],[[498.56818,539.36246],[-2.18896,-0.40528],[1.28885,0.23863]],[[501.33871,541.95638],[-0.67264,-1.08805],[-0.02312,-0.6422]],[[501.72907,540.35743],[-0.30416,0.21072],[0.88811,-0.61528]],[[504.12919,541.60889],[-0.02254,0.04013],[1.11399,-1.98341]],[[501.17259,537.76486],[1.34814,0.45499],[-1.66527,-0.99441]],[[496.22633,537.7333],[1.16614,-1.17693],[0.07909,0.26564]],[[496.08641,538.21795],[0,0],[-0.16683,0.16683]],[[495.62239,538.68425],[0.1427,-0.14426],[-0.07202,0.18596]],[[495.44785,539.29155],[0.04383,-0.21913],[0,0]],[495.29401,539.63861]],&quot;closed&quot;:true}]}" fill="#35ff07" stroke-width="0.5"/><g stroke-width="0.5"><path d="M368.46948,268.0552c0.00542,-0.03282 0.02868,-0.05609 0.02868,-0.05609c0.09726,-0.09718 0.42933,-0.50505 0.57329,-0.50283c0.15302,0.00236 0.48745,0.71693 0.38244,0.84466c-0.1414,0.17199 -0.61093,-0.0473 -0.786,-0.0674c-0.03934,-0.01708 -0.07868,-0.03415 -0.11802,-0.05123l-0.0633,-0.05436c0,0 -0.05353,-0.05353 -0.01709,-0.11275zM368.68871,268.07737c0.00958,0.00439 0.01916,0.00878 0.02874,0.01316c0.07958,0.00854 0.55115,0.17137 0.58145,0.14119c0.13902,-0.13849 -0.09028,-0.69305 -0.22017,-0.54596c-0.11678,0.13224 -0.25699,0.26147 -0.39002,0.39161z" fill="#7a4d0d"/><path d="M368.99559,267.62029c0.16072,-0.18201 0.45555,0.5436 0.28353,0.71497c-0.03749,0.03735 -0.65878,-0.17064 -0.75725,-0.1812c-0.01185,-0.00543 -0.02436,-0.01234 -0.03621,-0.01777c0.16462,-0.16103 0.36543,-0.35236 0.50993,-0.516z" data-paper-data="{&quot;noHover&quot;:false,&quot;origItem&quot;:[&quot;Path&quot;,{&quot;applyMatrix&quot;:true,&quot;segments&quot;:[[[246.25748,272.83447],[0.35081,-0.34316],[0.02526,0.01157]],[[246.33327,272.86918],[-0.02526,-0.01157],[0.20985,0.02251]],[[247.86653,273.24151],[-0.07989,0.07958],[0.36658,-0.3652]],[[247.28595,271.80182],[0.34251,-0.38787],[-0.30794,0.34872]]],&quot;closed&quot;:true}]}" fill="#000000"/></g><g stroke-width="0.5"><path d="M369.99477,268.37528c0.00541,-0.03282 0.02868,-0.05609 0.02868,-0.05609c0.09726,-0.09718 0.42933,-0.50505 0.57329,-0.50283c0.15302,0.00236 0.48745,0.71694 0.38244,0.84466c-0.1414,0.17198 -0.61093,-0.0473 -0.786,-0.0674c-0.03934,-0.01708 -0.07868,-0.03415 -0.11802,-0.05123l-0.0633,-0.05437c0,0 -0.05353,-0.05353 -0.01709,-0.11275zM370.21399,268.39745c0.00958,0.00439 0.01916,0.00878 0.02874,0.01316c0.07958,0.00854 0.55116,0.17137 0.58145,0.14119c0.13902,-0.13849 -0.09028,-0.69305 -0.22017,-0.54596c-0.11677,0.13224 -0.25699,0.26147 -0.39002,0.39161z" fill="#7a4d0d"/><path d="M370.52087,267.94036c0.16072,-0.182 0.45555,0.5436 0.28353,0.71497c-0.03749,0.03735 -0.65878,-0.17063 -0.75725,-0.18119c-0.01185,-0.00543 -0.02436,-0.01235 -0.03621,-0.01777c0.16462,-0.16103 0.36543,-0.35236 0.50993,-0.516z" data-paper-data="{&quot;noHover&quot;:false,&quot;origItem&quot;:[&quot;Path&quot;,{&quot;applyMatrix&quot;:true,&quot;segments&quot;:[[[492.51495,545.66895],[0.70161,-0.68632],[0.05053,0.02314]],[[492.66654,545.73837],[-0.05053,-0.02314],[0.4197,0.04501]],[[495.73306,546.48302],[-0.15977,0.15917],[0.73316,-0.73039]],[[494.57191,543.60365],[0.68501,-0.77574],[-0.61587,0.69744]]],&quot;closed&quot;:true}]}" fill="#000000"/></g><path d="M371.30771,270.21186c-0.09407,-0.01177 -0.0823,-0.10585 -0.0823,-0.10585l0.00571,-0.02283c-0.02766,-0.24197 0.05541,-0.47921 0.06426,-0.72078c0.00421,-0.11475 0.04644,-0.45119 0.00411,-0.34445c-0.09453,0.23836 -0.30977,0.50916 -0.49652,0.74472l-0.06609,0.1451c-0.01621,0.03788 -0.05602,0.06211 -0.09895,0.05673c-0.03775,-0.00473 -0.06752,-0.03103 -0.07848,-0.065l-0.03751,-0.10826l0.00356,-0.00123l-0.00663,-0.00969c-0.02559,-0.26315 -0.09002,-0.51383 -0.14385,-0.77179c-0.0214,-0.10256 -0.12164,0.17089 -0.18881,0.2513c-0.09366,0.11213 -0.38171,0.54006 -0.57526,0.44915c-0.41547,-0.19516 0.32794,-1.19074 -0.38888,-0.37828c-0.06503,0.07245 -0.25645,0.44913 -0.38673,0.41952c-0.11923,-0.0271 -0.30802,-0.95319 -0.36181,-0.92535c-0.11492,0.05947 -0.54196,0.56066 -0.58137,0.67681c0,0 -0.03424,0.08841 -0.12265,0.05417c-0.08841,-0.03424 -0.05417,-0.12265 -0.05417,-0.12265c0.05302,-0.12634 0.57027,-0.77409 0.72403,-0.79484c0.28243,-0.0381 0.33546,0.42671 0.3908,0.59955c0.014,0.04373 0.04275,0.1115 0.06358,0.17409c0.05721,-0.07302 0.14133,-0.15524 0.18614,-0.20675c0.0781,-0.08852 0.3618,-0.4853 0.49126,-0.44087c0.13714,0.04707 0.18423,0.4726 0.17371,0.67765c0.05592,-0.05605 0.1379,-0.12088 0.17782,-0.16306c0.06005,-0.06346 0.35674,-0.51929 0.49319,-0.4556c0.19387,0.0905 0.25078,0.51097 0.27581,0.77561c0.1278,-0.34906 0.54675,-0.94074 0.76993,-0.65247c0.18685,0.24135 -0.07923,0.82876 -0.04227,1.11386l-0.00581,0.06916c0,0 -0.01177,0.09407 -0.10585,0.0823z" fill="#000000" stroke-width="0.5"/><g><path d="M373.52284,272.70035c0.21963,0.19927 0.33898,0.42549 0.26659,0.50528c-0.07239,0.07979 -0.31411,0.02741 -0.53374,-0.17186c-0.07808,-0.07085 -0.35134,-0.14991 -0.39996,-0.21978c-0.08814,-0.12665 0.09171,-0.27856 0.13837,-0.32998c0.03765,-0.0415 0.09483,-0.24161 0.19587,-0.19797c0.09322,0.04026 0.22748,0.31868 0.33288,0.41431z" fill="#35ff07" stroke-width="0"/><path d="M373.81888,272.92276c0.01658,0.01709 0.06662,0.07565 0.0245,0.12208c-0.04988,0.05497 -0.12923,-0.01702 -0.12923,-0.01702l-0.03439,-0.03758c-0.06034,-0.09252 -0.12106,-0.16593 -0.19937,-0.24863c-0.14786,-0.15913 -0.27827,-0.50495 -0.36743,-0.38278c-0.03167,0.04339 -0.27471,0.29201 -0.23823,0.43369c0.01665,0.06465 0.65705,0.33759 0.74325,0.38276c0,0 0.09181,0.04811 0.07297,0.12486c-0.01884,0.07675 -0.11065,0.02864 -0.11065,0.02864c-0.1706,-0.08939 -0.72044,-0.35212 -0.80391,-0.54319c-0.08885,-0.20337 0.22601,-0.60731 0.42528,-0.55184c0.20048,0.0558 0.26716,0.28189 0.3954,0.41448c0.08557,0.09071 0.15505,0.17491 0.22181,0.27452z" fill="#209a05" stroke-width="0.5"/></g><path d="M373.83397,274.06754c-0.04487,0.08482 -0.14535,0.01875 -0.14535,0.01875l-0.12319,-0.08155c-0.96533,-0.88207 -1.04187,0.40378 -0.83258,1.11442c0.34489,1.10171 0.93396,2.19288 2.15521,2.72931c1.13868,0.68637 1.85038,0.42481 1.41416,-0.65977l-0.06521,-0.08084c-0.0366,-0.04395 -0.04239,-0.10152 -0.01107,-0.13604c0.02111,-0.02326 0.05428,-0.03077 0.08814,-0.02334l0.1088,0.02275c0.91883,-0.06472 1.10594,-0.28264 1.19824,-1.19381c0,0 0.00096,-0.00899 0.00519,-0.02066c-0.02103,-0.02788 -0.0379,-0.06844 -0.01196,-0.11302c0.04809,-0.08264 0.14707,-0.01387 0.14707,-0.01387l0.14138,0.09861c0.49166,0.4583 0.98001,-0.0034 1.09847,-0.44809c0.37463,-1.03078 -1.13797,-2.64188 -1.93639,-3.37638c-1.10227,-0.53441 -1.97283,-0.2545 -1.7685,0.92956c0,0 0.01841,0.10722 -0.09009,0.0993c-0.04173,-0.00305 -0.07013,-0.02078 -0.08928,-0.04145c-0.0041,0.00055 -0.00658,0.00064 -0.00658,0.00064c-0.23126,0.00842 -0.48276,-0.09471 -0.68911,-0.07648c-0.52638,0.0465 -0.8684,0.31484 -0.6401,1.04172l-0.09322,-0.08183c0,0 0.16289,0.11943 0.13373,0.18309c0.02016,0.02723 0.03514,0.06566 0.01223,0.10896zM376.48348,277.16405c0.23079,0.26602 -0.06308,1.06625 -0.21214,1.19435c-0.31184,0.26798 -1.08517,-0.10566 -1.44672,-0.32486c-1.28927,-0.5645 -1.93712,-1.73543 -2.3024,-2.9031c-0.23149,-0.85063 -0.03354,-2.22444 1.0098,-1.40205c-0.19086,-0.80245 0.30152,-1.07592 0.9528,-1.12809c0.18211,-0.01459 0.36762,0.0845 0.56507,0.07688c0,0 0.00344,-0.00013 0.00926,0.00029c-0.14712,-1.25849 0.87823,-1.53259 2.09909,-0.94068c0.90878,0.81505 2.43811,2.5025 2.0554,3.64822c-0.15367,0.56014 -0.76845,1.03293 -1.38147,0.53223c-0.11031,0.89739 -0.4794,1.16032 -1.34868,1.24681z" fill="#ff5b1c" stroke-width="0.5"/><path d="M373.80432,273.95108c0.02916,-0.06366 -0.13333,-0.18396 -0.13333,-0.18396l0.0931,0.08208c-0.2283,-0.72689 0.12025,-1.00284 0.64663,-1.04934c0.20635,-0.01823 0.46238,0.08266 0.69364,0.07424c0,0 0.00254,-0.00011 0.00664,-0.00066c0.01915,0.02068 0.04823,0.0382 0.08996,0.04125c0.1085,0.00792 0.09114,-0.09957 0.09114,-0.09957c-0.20433,-1.18406 0.67838,-1.46277 1.78065,-0.92836c0.79842,0.73451 2.32191,2.36569 1.94728,3.39647c-0.11846,0.44469 -0.60818,0.91114 -1.09984,0.45284l-0.17625,-0.11351c0,0 -0.06426,-0.05355 -0.11235,0.02909c-0.02594,0.04459 -0.00946,0.08593 0.01158,0.11381c-0.00423,0.01167 -0.00528,0.02082 -0.00528,0.02082c-0.0923,0.91117 -0.2906,1.13835 -1.20943,1.20307l-0.10959,-0.02253c-0.03386,-0.00743 -0.06779,0.00025 -0.08889,0.02352c-0.03132,0.03451 -0.03344,0.055 0.00316,0.09895l0.07333,0.11788c0.43622,1.08458 -0.28487,1.34591 -1.42355,0.65954c-1.22125,-0.53644 -1.82401,-1.64379 -2.1689,-2.7455c-0.20929,-0.71063 -0.13176,-2.00495 0.83358,-1.12289l0.15898,0.09407c0,0 0.06479,0.05327 0.10966,-0.03155c0.02291,-0.04331 0.00825,-0.08254 -0.0119,-0.10978z" data-paper-data="{&quot;noHover&quot;:false,&quot;origItem&quot;:[&quot;Path&quot;,{&quot;applyMatrix&quot;:true,&quot;segments&quot;:[[[494.8341,541.01525],[0.25034,-0.06399],[-0.49029,0.12533]],[494.24575,540.51395],[[494.12771,539.74381],[0,0],[0.02426,-6.89635]],[[486.82445,540.44119],[2.03396,-3.33583],[-3.08089,5.25136]],[[483.8018,558.53133],[-2.23265,-6.67104],[1.35439,6.87992]],[[491.3903,561.71672],[-2.69035,5.54739],[0,0]],[[491.47498,561.17557],[0,0],[0.04197,-0.29868]],[[491.96709,560.65025],[-0.24578,0],[0.16566,0]],[[492.37058,560.91181],[-0.09098,-0.15859],[0,0]],[[492.66726,561.41739],[0,0],[3.50896,3.35948]],[[501.57648,561.8669],[-3.88601,2.86853],[0,0]],[[501.67555,561.81397],[-0.06059,0.02483],[0.03439,-0.18099]],[[502.07463,561.36673],[-0.26608,0.05668],[0.4932,-0.10506]],[502.65002,561.89201],[[502.76588,562.7937],[0,0],[-0.04771,3.54449]],[[508.40881,565.49625],[-2.15669,1.1132],[5.3537,-2.18966]],[[514.73429,545.96768],[-0.03944,5.72145],[-1.8189,-6.19916]],[[504.8363,542.35438],[3.90067,-4.99419],[0,0]],[[504.12919,542.35438],[0.35355,0.45187],[-0.13597,-0.17378]],[[503.9747,541.85874],[-0.01287,0.14808],[-0.01665,-0.01408]],[[503.94888,541.83529],[0,0],[-0.85242,-0.87342]],[[501.80551,538.8727],[0.80246,0.74137],[-2.04702,-1.89119]],[[495.46831,540.06426],[2.03005,-3.46768],[0,0]],[495.45755,539.41016],[[495.21633,540.58133],[0.35198,-0.11168],[-0.03494,0.17523]]],&quot;closed&quot;:true}]}" fill="#ff9c1b" stroke-width="0.5"/><path d="M373.64518,273.95025c-0.00589,0.00228 -0.01154,0.00403 -0.01695,0.00529c0.04639,0.42629 0.1136,-0.36719 0.4494,-0.62294c0.19772,-0.15059 0.47875,-0.10274 0.71725,-0.05857c-0.09313,-0.07858 -0.18396,-0.18898 -0.1748,-0.25854c0.02675,-0.2031 0.4843,-0.16931 0.48154,-0.17759c-0.13659,-0.40914 -0.68084,-0.20593 -0.9165,-0.07458c-0.35182,0.10715 -0.65132,0.37686 -0.63463,0.69056c0.04738,0.02274 0.05023,0.0814 0.05023,0.0814c0.00217,0.04468 0.00428,0.08615 0.00636,0.12457c0.01694,0.03381 0.03786,0.06782 0.06304,0.10189l0.02914,0.06582c0,0 0.03431,0.08838 -0.05407,0.12269zM373.41436,273.69396c-0.197,-0.47642 0.17886,-0.94987 0.69641,-1.10507c0.26935,-0.15293 1.1756,-0.35232 1.18023,0.23981c0.00135,0.17334 -0.63967,0.12528 -0.48155,0.1963c0.0955,0.04289 0.16379,0.13972 0.22153,0.23921l0.07843,0.07116v0c0.03878,0.03518 0.04169,0.09514 0.00651,0.13392c-0.02111,0.02326 -0.05113,0.03362 -0.08015,0.03059l-0.10345,-0.00969l0.00008,-0.00089l-0.0027,0.00061c-0.18772,-0.02832 -0.54892,-0.15279 -0.72981,-0.0124c-0.17907,0.13899 -0.21373,0.94179 -0.56813,0.87796c-0.19084,-0.03437 -0.21256,-0.4208 -0.21741,-0.66152z" fill="#1f9404" stroke-width="0.5"/><path d="M373.68721,273.8422l-0.03038,-0.06695c-0.02518,-0.03407 -0.04815,-0.07044 -0.06508,-0.10425c-0.00208,-0.03842 -0.00578,-0.08251 -0.00795,-0.12719c0,0 -0.0039,-0.06118 -0.05128,-0.08392c-0.01669,-0.31371 0.30102,-0.60839 0.65283,-0.71554c0.23566,-0.13135 0.79705,-0.32322 0.93364,0.08591c0.00276,0.00828 -0.45529,-0.02659 -0.48205,0.17651c-0.00916,0.06956 0.08377,0.18962 0.17689,0.2682c-0.23849,-0.04417 -0.5242,-0.10547 -0.72192,0.04512c-0.3358,0.25575 -0.42889,1.07672 -0.47528,0.65042c0.00542,-0.00126 0.03411,-0.03312 0.04,-0.0354c0.08838,-0.03431 0.03059,-0.09292 0.03059,-0.09292z" data-paper-data="{&quot;noHover&quot;:false,&quot;origItem&quot;:[&quot;Path&quot;,{&quot;applyMatrix&quot;:true,&quot;segments&quot;:[[[494.62319,539.86222],[0.44721,0.22361],[-0.0298,-0.0149]],[[494.54246,539.81474],[0.02411,0.01669],[-1.50064,1.6919]],[[498.56818,539.36246],[-2.18896,-0.40528],[1.28885,0.23863]],[[501.33871,541.95638],[-0.67264,-1.08805],[-0.02312,-0.6422]],[[501.72907,540.35743],[-0.30416,0.21072],[0.88811,-0.61528]],[[504.12919,541.60889],[-0.02254,0.04013],[1.11399,-1.98341]],[[501.17259,537.76486],[1.34814,0.45499],[-1.66527,-0.99441]],[[496.22633,537.7333],[1.16614,-1.17693],[0.07909,0.26564]],[[496.08641,538.21795],[0,0],[-0.16683,0.16683]],[[495.62239,538.68425],[0.1427,-0.14426],[-0.07202,0.18596]],[[495.44785,539.29155],[0.04383,-0.21913],[0,0]],[495.29401,539.63861]],&quot;closed&quot;:true}]}" fill="#35ff07" stroke-width="0.5"/><g stroke-width="0.5"><path d="M374.02826,275.1336c-0.02067,-0.02607 -0.02227,-0.05893 -0.02227,-0.05893c-0.00662,-0.13734 -0.08555,-0.65733 0.01283,-0.76245c0.10457,-0.11174 0.8585,0.12074 0.88253,0.28434c0.03236,0.22028 -0.44555,0.42067 -0.57807,0.53682c-0.03908,0.01766 -0.07817,0.03532 -0.11725,0.05298l-0.08279,0.01035c0,0 -0.07561,0.00367 -0.09499,-0.06311zM374.19199,274.98613c0.00969,-0.00415 0.01938,-0.00829 0.02906,-0.01244c0.0598,-0.0532 0.49727,-0.29303 0.49527,-0.33574c-0.00916,-0.19602 -0.57393,-0.39883 -0.55228,-0.20381c0.01947,0.17534 0.02096,0.36602 0.02794,0.55199z" fill="#7a4d0d"/><path d="M374.05969,274.45172c-0.0268,-0.24133 0.70869,0.0279 0.72002,0.27044c0.00247,0.05286 -0.56903,0.37323 -0.64303,0.43906c-0.01199,0.00513 -0.02551,0.00974 -0.0375,0.01488c-0.00864,-0.23012 -0.0154,-0.50741 -0.0395,-0.72439z" data-paper-data="{&quot;noHover&quot;:false,&quot;origItem&quot;:[&quot;Path&quot;,{&quot;applyMatrix&quot;:true,&quot;segments&quot;:[[[246.25748,272.83447],[0.35081,-0.34316],[0.02526,0.01157]],[[246.33327,272.86918],[-0.02526,-0.01157],[0.20985,0.02251]],[[247.86653,273.24151],[-0.07989,0.07958],[0.36658,-0.3652]],[[247.28595,271.80182],[0.34251,-0.38787],[-0.30794,0.34872]]],&quot;closed&quot;:true}]}" fill="#000000"/></g><g stroke-width="0.5"><path d="M375.29023,274.21905c-0.02067,-0.02606 -0.02227,-0.05893 -0.02227,-0.05893c-0.00662,-0.13734 -0.08555,-0.65733 0.01283,-0.76245c0.10457,-0.11174 0.8585,0.12074 0.88253,0.28434c0.03236,0.22028 -0.44554,0.42066 -0.57806,0.53682c-0.03908,0.01766 -0.07816,0.03532 -0.11725,0.05298l-0.0828,0.01035c0,0 -0.07561,0.00367 -0.09499,-0.06311zM375.45395,274.07159c0.00969,-0.00415 0.01938,-0.0083 0.02906,-0.01244c0.0598,-0.0532 0.49727,-0.29303 0.49527,-0.33574c-0.00916,-0.19602 -0.57394,-0.39883 -0.55228,-0.2038c0.01947,0.17534 0.02096,0.36602 0.02794,0.55199z" fill="#7a4d0d"/><path d="M375.32164,273.53718c-0.0268,-0.24133 0.7087,0.02789 0.72002,0.27044c0.00247,0.05286 -0.56903,0.37323 -0.64302,0.43906c-0.01199,0.00513 -0.02551,0.00974 -0.0375,0.01487c-0.00864,-0.23012 -0.0154,-0.50741 -0.0395,-0.72438z" data-paper-data="{&quot;noHover&quot;:false,&quot;origItem&quot;:[&quot;Path&quot;,{&quot;applyMatrix&quot;:true,&quot;segments&quot;:[[[492.51495,545.66895],[0.70161,-0.68632],[0.05053,0.02314]],[[492.66654,545.73837],[-0.05053,-0.02314],[0.4197,0.04501]],[[495.73306,546.48302],[-0.15977,0.15917],[0.73316,-0.73039]],[[494.57191,543.60365],[0.68501,-0.77574],[-0.61587,0.69744]]],&quot;closed&quot;:true}]}" fill="#000000"/></g><path d="M377.53262,274.48078c-0.07193,0.06176 -0.13369,-0.01018 -0.13369,-0.01018l-0.01307,-0.01957c-0.19779,-0.14211 -0.31767,-0.36304 -0.49062,-0.53192c-0.08216,-0.08022 -0.30294,-0.33758 -0.25234,-0.2345c0.11301,0.23017 0.16893,0.57155 0.2179,0.86814l0.06305,0.14645c0.01717,0.03746 0.00835,0.08322 -0.02447,0.1114c-0.02886,0.02478 -0.06835,0.02916 -0.10087,0.01445l-0.10538,-0.04497l0.00148,-0.00346l-0.01163,-0.0016c-0.21209,-0.15787 -0.44103,-0.2786 -0.66824,-0.41207c-0.09034,-0.05307 0.04483,0.20491 0.05925,0.30869c0.0201,0.14471 0.14348,0.64559 -0.05391,0.72784c-0.42371,0.17655 -0.6615,-1.04299 -0.54146,0.03382c0.00996,0.09684 0.16031,0.49172 0.05083,0.56831c-0.10019,0.07009 -0.9129,-0.41238 -0.92843,-0.35383c-0.03318,0.12508 0.05105,0.77811 0.11059,0.88534c0,0 0.04246,0.08477 -0.0423,0.12723c-0.08476,0.04247 -0.12723,-0.0423 -0.12723,-0.0423c-0.05794,-0.12416 -0.1901,-0.9425 -0.10214,-1.07031c0.16156,-0.23477 0.54144,0.03829 0.70662,0.11345c0.0418,0.01901 0.11131,0.04326 0.17166,0.06989c-0.01564,-0.09143 -0.02,-0.20898 -0.02804,-0.27678c-0.01308,-0.11732 -0.11631,-0.59405 0.00359,-0.66006c0.12701,-0.06994 0.4738,0.18112 0.61859,0.32669c-0.00394,-0.07907 0.00314,-0.18336 -0.00128,-0.24126c-0.00665,-0.08712 -0.14487,-0.61314 -0.00601,-0.67139c0.1973,-0.08277 0.54694,0.15762 0.75974,0.31691c-0.17264,-0.3292 -0.32933,-1.03705 0.03414,-1.00864c0.3043,0.02379 0.56054,0.61556 0.79651,0.77977l0.04732,0.05077c0,0 0.06176,0.07193 -0.01018,0.13369z" fill="#000000" stroke-width="0.5"/><g><path d="M369.41003,275.62283c-0.05935,0.21601 -0.17107,0.37364 -0.24954,0.35208c-0.07848,-0.02156 -0.12566,-0.20233 -0.06632,-0.41834c0.0211,-0.0768 -0.01886,-0.28793 0.01163,-0.34454c0.05527,-0.10262 0.21902,-0.03325 0.2696,-0.01935c0.04082,0.01121 0.19518,-0.01854 0.20026,0.06444c0.00468,0.07656 -0.13714,0.26206 -0.16562,0.36571z" fill="#35ff07" stroke-width="0"/><path d="M369.36117,275.89823c-0.00586,0.01701 -0.02825,0.07072 -0.07391,0.05817c-0.05407,-0.01485 -0.03263,-0.0929 -0.03263,-0.0929l0.01359,-0.036c0.04176,-0.07223 0.07051,-0.13821 0.09952,-0.2192c0.05679,-0.15395 0.24534,-0.35985 0.13258,-0.37824c-0.04005,-0.00653 -0.29053,-0.08549 -0.37357,-0.01256c-0.03789,0.03328 -0.0033,0.558 -0.00432,0.63151c0,0 -0.0011,0.07829 -0.05925,0.09178c-0.05815,0.01349 -0.05706,-0.06479 -0.05706,-0.06479c0.00203,-0.14547 -0.00855,-0.60568 0.09174,-0.72713c0.10674,-0.12928 0.4864,-0.05493 0.51702,0.09829c0.0308,0.15415 -0.09881,0.27624 -0.1444,0.40791c-0.03193,0.08862 -0.06496,0.16418 -0.10932,0.24316z" fill="#209a05" stroke-width="0.5"/></g><path d="M368.59483,276.29905c-0.07247,-0.0013 -0.06224,-0.09156 -0.06224,-0.09156l0.01292,-0.11085c0.26503,-0.95156 -0.62765,-0.56435 -1.03514,-0.1808c-0.62477,0.60838 -1.15912,1.37772 -1.10389,2.3838c-0.07399,1.0016 0.34514,1.39197 0.92721,0.72789l0.03223,-0.07153c0.01713,-0.03966 0.05395,-0.06321 0.0879,-0.05388c0.02288,0.00629 0.03926,0.02608 0.04581,0.05144l0.02179,0.08108c0.35716,0.59714 0.56787,0.64887 1.21343,0.40014c0,0 0.00638,-0.00242 0.01569,-0.00355c0.01161,-0.02369 0.03319,-0.0489 0.07209,-0.04663c0.0721,0.0042 0.05954,0.09438 0.05954,0.09438l-0.01821,0.12893c-0.14108,0.48773 0.33671,0.65929 0.67682,0.58738c0.8225,-0.09928 1.39209,-1.66843 1.61464,-2.45715c-0.01599,-0.92521 -0.5017,-1.41638 -1.22994,-0.87462c0,0 -0.06598,0.04899 -0.09766,-0.02683c-0.01218,-0.02916 -0.00993,-0.05435 -0.00253,-0.07432c-0.00177,-0.00258 -0.00268,-0.00422 -0.00268,-0.00422c-0.08459,-0.15298 -0.10092,-0.35766 -0.18361,-0.4905c-0.21096,-0.33887 -0.50851,-0.4778 -0.92047,-0.07589l0.02333,-0.09075c0,0 -0.0249,0.15053 -0.07775,0.1526c-0.01148,0.02288 -0.03226,0.04609 -0.06926,0.04543zM367.41215,279.14128c-0.10052,0.24631 -0.74009,0.32134 -0.87729,0.2646c-0.28701,-0.11871 -0.2991,-0.76738 -0.27475,-1.08583c-0.05953,-1.0615 0.50851,-1.89767 1.17078,-2.5423c0.49426,-0.44628 1.48765,-0.78168 1.28946,0.20209c0.47566,-0.40245 0.82798,-0.16395 1.08538,0.25716c0.07198,0.11775 0.0685,0.27658 0.14102,0.40704c0,0 0.00126,0.00228 0.00296,0.00634c0.79792,-0.5286 1.33254,0.06887 1.35025,1.09362c-0.23916,0.89058 -0.8545,2.49706 -1.75722,2.63011c-0.42993,0.08758 -0.95834,-0.16539 -0.8301,-0.74938c-0.64241,0.23189 -0.94555,0.07287 -1.30048,-0.48344z" fill="#ff5b1c" stroke-width="0.5"/><path d="M368.6632,276.23933c0.05285,-0.00207 0.07847,-0.15263 0.07847,-0.15263l-0.02355,0.09075c0.41196,-0.4019 0.71687,-0.26117 0.92783,0.0777c0.0827,0.13284 0.10208,0.33981 0.18667,0.49279c0,0 0.00094,0.00167 0.00271,0.00425c-0.0074,0.01996 -0.00929,0.04554 0.0029,0.0747c0.03168,0.07582 0.0982,0.02744 0.0982,0.02744c0.72824,-0.54176 1.21728,-0.04198 1.23327,0.88322c-0.22254,0.78872 -0.80195,2.37206 -1.62446,2.47134c-0.34011,0.07191 -0.82157,-0.09895 -0.68049,-0.58668l0.01635,-0.15752c0,0 0.01416,-0.06158 -0.05795,-0.06579c-0.0389,-0.00227 -0.06114,0.02295 -0.07275,0.04664c-0.00931,0.00113 -0.01583,0.00355 -0.01583,0.00355c-0.64555,0.24873 -0.86632,0.19261 -1.22349,-0.40452l-0.02221,-0.08154c-0.00655,-0.02536 -0.0233,-0.0456 -0.04618,-0.05188c-0.03395,-0.00933 -0.04848,-0.00377 -0.06561,0.03589l-0.05442,0.08964c-0.58207,0.66408 -1.00425,0.2673 -0.93026,-0.7343c-0.05523,-1.00608 0.48535,-1.79018 1.11013,-2.39855c0.40749,-0.38354 1.30622,-0.77297 1.04119,0.17859l-0.00915,0.13924c0,0 -0.01379,0.06184 0.05868,0.06314c0.037,0.00066 0.05844,-0.0226 0.06992,-0.04548z" data-paper-data="{&quot;noHover&quot;:false,&quot;origItem&quot;:[&quot;Path&quot;,{&quot;applyMatrix&quot;:true,&quot;segments&quot;:[[[494.8341,541.01525],[0.25034,-0.06399],[-0.49029,0.12533]],[494.24575,540.51395],[[494.12771,539.74381],[0,0],[0.02426,-6.89635]],[[486.82445,540.44119],[2.03396,-3.33583],[-3.08089,5.25136]],[[483.8018,558.53133],[-2.23265,-6.67104],[1.35439,6.87992]],[[491.3903,561.71672],[-2.69035,5.54739],[0,0]],[[491.47498,561.17557],[0,0],[0.04197,-0.29868]],[[491.96709,560.65025],[-0.24578,0],[0.16566,0]],[[492.37058,560.91181],[-0.09098,-0.15859],[0,0]],[[492.66726,561.41739],[0,0],[3.50896,3.35948]],[[501.57648,561.8669],[-3.88601,2.86853],[0,0]],[[501.67555,561.81397],[-0.06059,0.02483],[0.03439,-0.18099]],[[502.07463,561.36673],[-0.26608,0.05668],[0.4932,-0.10506]],[502.65002,561.89201],[[502.76588,562.7937],[0,0],[-0.04771,3.54449]],[[508.40881,565.49625],[-2.15669,1.1132],[5.3537,-2.18966]],[[514.73429,545.96768],[-0.03944,5.72145],[-1.8189,-6.19916]],[[504.8363,542.35438],[3.90067,-4.99419],[0,0]],[[504.12919,542.35438],[0.35355,0.45187],[-0.13597,-0.17378]],[[503.9747,541.85874],[-0.01287,0.14808],[-0.01665,-0.01408]],[[503.94888,541.83529],[0,0],[-0.85242,-0.87342]],[[501.80551,538.8727],[0.80246,0.74137],[-2.04702,-1.89119]],[[495.46831,540.06426],[2.03005,-3.46768],[0,0]],[495.45755,539.41016],[[495.21633,540.58133],[0.35198,-0.11168],[-0.03494,0.17523]]],&quot;closed&quot;:true}]}" fill="#ff9c1b" stroke-width="0.5"/><path d="M368.60945,276.1318c-0.00355,-0.00319 -0.00665,-0.0064 -0.00935,-0.00962c-0.27146,0.17673 0.28622,-0.04875 0.57317,0.09029c0.16895,0.08186 0.23261,0.28758 0.28422,0.46338c0.02118,-0.08957 0.06458,-0.18846 0.11458,-0.20603c0.146,-0.05128 0.27937,0.2686 0.284,0.26392c0.22912,-0.23167 -0.09355,-0.52911 -0.26249,-0.6431c-0.19226,-0.20053 -0.47623,-0.31034 -0.68195,-0.19204c0.00085,0.03969 -0.03771,0.06163 -0.03771,0.06163c-0.02937,0.01671 -0.0566,0.03229 -0.08178,0.0468c-0.017,0.02295 -0.03278,0.04865 -0.04715,0.07725l-0.03442,0.0421c0,0 -0.04786,0.05328 -0.10114,0.00543zM368.7034,275.88879c0.25385,-0.29534 0.70117,-0.2036 0.98237,0.09223c0.19498,0.12933 0.6386,0.67204 0.24113,0.87721c-0.11635,0.06006 -0.30271,-0.38834 -0.29661,-0.25754c0.00368,0.07899 -0.03827,0.15806 -0.08562,0.23092l-0.02119,0.07714v0c-0.01048,0.03814 -0.04989,0.06056 -0.08803,0.05008c-0.02288,-0.00629 -0.04011,-0.02299 -0.04797,-0.04358l-0.02877,-0.07302l0.00063,-0.00025l-0.00133,-0.00161c-0.04497,-0.13618 -0.08435,-0.42207 -0.24069,-0.49606c-0.15477,-0.07325 -0.70762,0.17734 -0.78555,-0.08327c-0.04196,-0.14034 0.21105,-0.28684 0.37162,-0.37226z" fill="#1f9404" stroke-width="0.5"/><path d="M368.69661,276.12325l0.03475,-0.04332c0.01437,-0.0286 0.03104,-0.05648 0.04805,-0.07944c0.02518,-0.01451 0.05363,-0.03205 0.083,-0.04876c0,0 0.0399,-0.02351 0.03905,-0.0632c0.20572,-0.1183 0.51273,-0.00475 0.70499,0.19578c0.16893,0.11399 0.48982,0.42685 0.2607,0.65852c-0.00464,0.00468 -0.13745,-0.31591 -0.28345,-0.26463c-0.05,0.01756 -0.09921,0.12116 -0.12038,0.21073c-0.05161,-0.1758 -0.1078,-0.38926 -0.27676,-0.47112c-0.28695,-0.13903 -0.87198,0.07839 -0.60052,-0.09835c0.0027,0.00322 0.03396,0.01168 0.03751,0.01487c0.05328,0.04785 0.07306,-0.01109 0.07306,-0.01109z" data-paper-data="{&quot;noHover&quot;:false,&quot;origItem&quot;:[&quot;Path&quot;,{&quot;applyMatrix&quot;:true,&quot;segments&quot;:[[[494.62319,539.86222],[0.44721,0.22361],[-0.0298,-0.0149]],[[494.54246,539.81474],[0.02411,0.01669],[-1.50064,1.6919]],[[498.56818,539.36246],[-2.18896,-0.40528],[1.28885,0.23863]],[[501.33871,541.95638],[-0.67264,-1.08805],[-0.02312,-0.6422]],[[501.72907,540.35743],[-0.30416,0.21072],[0.88811,-0.61528]],[[504.12919,541.60889],[-0.02254,0.04013],[1.11399,-1.98341]],[[501.17259,537.76486],[1.34814,0.45499],[-1.66527,-0.99441]],[[496.22633,537.7333],[1.16614,-1.17693],[0.07909,0.26564]],[[496.08641,538.21795],[0,0],[-0.16683,0.16683]],[[495.62239,538.68425],[0.1427,-0.14426],[-0.07202,0.18596]],[[495.44785,539.29155],[0.04383,-0.21913],[0,0]],[495.29401,539.63861]],&quot;closed&quot;:true}]}" fill="#35ff07" stroke-width="0.5"/><g stroke-width="0.5"><path d="M367.94269,276.79377c0.01051,-0.02282 0.03211,-0.03511 0.03211,-0.03511c0.0903,-0.05132 0.41379,-0.28196 0.51821,-0.25153c0.11099,0.03234 0.21158,0.61976 0.10953,0.69179c-0.13741,0.09698 -0.43554,-0.15671 -0.55904,-0.20639c-0.02524,-0.02031 -0.05048,-0.04063 -0.07572,-0.06094l-0.03523,-0.05226c0,0 -0.02828,-0.0497 0.01012,-0.08555zM368.09794,276.85379c0.0061,0.00511 0.0122,0.01023 0.0183,0.01534c0.05626,0.02214 0.36717,0.23512 0.39527,0.2192c0.12897,-0.07306 0.07293,-0.52289 -0.05111,-0.44174c-0.11152,0.07296 -0.23952,0.13903 -0.36246,0.2072z" fill="#7a4d0d"/><path d="M368.41295,276.58227c0.15349,-0.10041 0.22304,0.48712 0.06344,0.57752c-0.03478,0.0197 -0.44571,-0.25612 -0.51532,-0.28352c-0.00755,-0.00633 -0.01527,-0.01387 -0.02282,-0.02019c0.15213,-0.08435 0.3367,-0.18353 0.4747,-0.27381z" data-paper-data="{&quot;noHover&quot;:false,&quot;origItem&quot;:[&quot;Path&quot;,{&quot;applyMatrix&quot;:true,&quot;segments&quot;:[[[246.25748,272.83447],[0.35081,-0.34316],[0.02526,0.01157]],[[246.33327,272.86918],[-0.02526,-0.01157],[0.20985,0.02251]],[[247.86653,273.24151],[-0.07989,0.07958],[0.36658,-0.3652]],[[247.28595,271.80182],[0.34251,-0.38787],[-0.30794,0.34872]]],&quot;closed&quot;:true}]}" fill="#000000"/></g><g stroke-width="0.5"><path d="M368.98966,277.33216c0.01051,-0.02282 0.03211,-0.03511 0.03211,-0.03511c0.0903,-0.05132 0.41379,-0.28196 0.51821,-0.25153c0.11099,0.03234 0.21158,0.61976 0.10953,0.69179c-0.13741,0.09698 -0.43553,-0.15671 -0.55903,-0.20638c-0.02524,-0.02031 -0.05048,-0.04062 -0.07572,-0.06093l-0.03523,-0.05227c0,0 -0.02828,-0.0497 0.01012,-0.08555zM369.14491,277.39217c0.0061,0.00511 0.0122,0.01023 0.0183,0.01534c0.05626,0.02214 0.36717,0.23513 0.39527,0.21921c0.12897,-0.07306 0.07293,-0.52289 -0.05112,-0.44174c-0.11152,0.07296 -0.23952,0.13903 -0.36246,0.2072z" fill="#7a4d0d"/><path d="M369.45991,277.12064c0.15349,-0.10041 0.22304,0.48712 0.06345,0.57753c-0.03478,0.0197 -0.44571,-0.25612 -0.51532,-0.28352c-0.00755,-0.00633 -0.01527,-0.01387 -0.02282,-0.0202c0.15213,-0.08435 0.3367,-0.18353 0.4747,-0.27381z" data-paper-data="{&quot;noHover&quot;:false,&quot;origItem&quot;:[&quot;Path&quot;,{&quot;applyMatrix&quot;:true,&quot;segments&quot;:[[[492.51495,545.66895],[0.70161,-0.68632],[0.05053,0.02314]],[[492.66654,545.73837],[-0.05053,-0.02314],[0.4197,0.04501]],[[495.73306,546.48302],[-0.15977,0.15917],[0.73316,-0.73039]],[[494.57191,543.60365],[0.68501,-0.77574],[-0.61587,0.69744]]],&quot;closed&quot;:true}]}" fill="#000000"/></g><path d="M369.57848,278.93267c-0.06616,-0.0274 -0.03876,-0.09357 -0.03876,-0.09357l0.00873,-0.01548c0.02828,-0.18179 0.13626,-0.33797 0.19105,-0.51216c0.02603,-0.08274 0.12412,-0.31936 0.07193,-0.25008c-0.11655,0.1547 -0.32753,0.30889 -0.5107,0.44309l-0.07718,0.09247c-0.01939,0.02435 -0.05323,0.03403 -0.08342,0.02152c-0.02655,-0.011 -0.04297,-0.03611 -0.04416,-0.06305l-0.00565,-0.08636l0.00284,-0.00018l-0.00289,-0.00838c0.03402,-0.1968 0.03725,-0.39229 0.04967,-0.59096c0.00493,-0.07899 -0.1228,0.10014 -0.18782,0.14527c-0.09067,0.06293 -0.38612,0.31699 -0.5089,0.21204c-0.26357,-0.2253 0.47716,-0.80172 -0.20756,-0.35336c-0.06187,0.03976 -0.27668,0.27583 -0.36565,0.22819c-0.08143,-0.0436 -0.03361,-0.75594 -0.07836,-0.74643c-0.09561,0.02032 -0.50696,0.29993 -0.55891,0.37665c0,0 -0.04264,0.05754 -0.10018,0.01491c-0.05754,-0.04263 -0.01491,-0.10018 -0.01491,-0.10018c0.0639,-0.08142 0.5703,-0.44973 0.68645,-0.43407c0.21335,0.02877 0.15896,0.37795 0.16468,0.51492c0.00145,0.03466 0.00883,0.08977 0.01147,0.13953c0.05628,-0.04174 0.13401,-0.08479 0.17696,-0.11335c0.07461,-0.04885 0.36065,-0.28109 0.44606,-0.22282c0.09048,0.06173 0.03962,0.38111 -0.00907,0.52836c0.05195,-0.02964 0.12464,-0.06045 0.16216,-0.08319c0.05644,-0.03421 0.36377,-0.30686 0.45041,-0.23316c0.12311,0.10472 0.08042,0.42238 0.04569,0.62015c0.16294,-0.22868 0.58651,-0.57583 0.69139,-0.32118c0.08781,0.21319 -0.22356,0.58782 -0.2537,0.80288l-0.01807,0.04922c0,0 -0.0274,0.06617 -0.09357,0.03876z" fill="#000000" stroke-width="0.5"/></g></g></g></svg>