<svg version="1.1" xmlns="http://www.w3.org/2000/svg" xmlns:xlink="http://www.w3.org/1999/xlink" width="181.87211" height="136.74517" viewBox="0,0,181.87211,136.74517"><g transform="translate(-205.16536,-153.87319)"><g data-paper-data="{&quot;isPaintingLayer&quot;:true}" fill-rule="nonzero" stroke-linejoin="miter" stroke-miterlimit="10" stroke-dasharray="" stroke-dashoffset="0" style="mix-blend-mode: normal"><path d="M266.02414,267.88892c0.03146,-0.01509 0.07046,-0.02444 0.11881,-0.02444c0.25,0 0.25,0.25 0.25,0.25l-0.37627,0.35063c-1.77967,-1.04345 -3.50406,-2.29089 -5.14839,-3.52212c0,0 -0.2,-0.15 -0.05,-0.35c0.02743,-0.03658 0.05654,-0.06145 0.08578,-0.07767c-0.03983,-0.1771 0.13727,-0.26566 0.13727,-0.26566c1.89331,-0.90444 4.01323,-4.68102 5.29731,-6.34811c0.17695,-0.18725 0.25833,-0.46498 0.27578,-0.72202l0.52833,-0.22585c0,0 0.21333,-0.07111 0.30279,0.12388c2.30259,0.07209 4.47206,2.16786 3.49504,4.12462c-1.18127,2.35701 -3.75431,4.90061 -6.24364,5.85404c0.43864,0.28791 0.88123,0.56671 1.32719,0.83269zM264.31073,266.66359c2.47672,-0.82557 5.03328,-3.38048 6.18266,-5.68498c0.8203,-1.6382 -1.08008,-3.43177 -3.1367,-3.40287h-0.26972c0,0 -0.02804,0 -0.06535,-0.00939c-0.01296,0.23522 -0.14703,0.46874 -0.29582,0.65164c-1.36781,1.7697 -3.40481,5.36056 -5.39736,6.44519c0.93327,0.69929 1.89466,1.40221 2.87731,2.06591c0.04861,-0.04672 0.10496,-0.0655 0.10496,-0.0655z" fill="#000000" stroke="none" stroke-width="0.5" stroke-linecap="butt"/><path d="M264.05608,266.77684c-0.98266,-0.6637 -1.97237,-1.38912 -2.90564,-2.08842c1.99255,-1.08463 4.08615,-4.7489 5.45396,-6.5186c0.14879,-0.1829 0.36291,-0.64173 0.36291,-0.64173l0.15736,-2.18115c0.47101,-0.00662 0.60402,0.19011 0.96197,0.33999c0.65936,0.27608 1.34922,-0.15342 1.42316,0.59597c0.02462,0.24956 0.48619,0.19013 0.52999,0.95942c0.02077,0.36487 1.01161,-0.11375 1.11395,0.37693c0.21808,1.04565 -0.31719,3.11097 -0.43367,3.34358c-1.14938,2.3045 -4.08148,4.92317 -6.55821,5.74874c0,0 -0.05717,0.01854 -0.10578,0.06526z" data-paper-data="{&quot;noHover&quot;:false,&quot;origItem&quot;:[&quot;Path&quot;,{&quot;applyMatrix&quot;:true,&quot;segments&quot;:[[[264.31072,266.66359],[0,0],[2.47672,-0.82557]],[[270.72895,260.9786],[-1.14938,2.3045],[0.8203,-1.6382]],[[267.35668,257.57573],[2.05662,-0.02891],[0,0]],[267.08697,257.57573],[[267.02162,257.56634],[0.0373,0.00939],[-0.01296,0.23522]],[[266.7258,258.21798],[0.14879,-0.1829],[-1.36781,1.7697]],[[261.32845,264.66318],[1.99255,-1.08463],[0.93327,0.69929]],[[264.20576,266.72909],[-0.98266,-0.6637],[0.04861,-0.04672]]],&quot;closed&quot;:true}]}" fill="#fffd4d" stroke="none" stroke-width="0.5" stroke-linecap="butt"/><path d="M266.32266,259.10557c0.21692,0.4164 0.97367,1.60824 1.28536,3.8451c0.08655,0.62115 0.88958,2.32836 0.33193,4.4099c-0.12792,0.47749 -0.12572,4.00203 -0.56218,4.86211c-0.829,1.63362 -2.63759,0.95145 -2.68332,1.75767c-0.11215,1.97699 2.30918,1.0699 2.42568,1.68307c0.3033,1.59628 -0.96689,-0.06092 -1.82307,0.5442c-0.38992,0.27559 2.88428,-2.13857 2.87898,-0.79405c-0.00654,1.65701 -2.60563,1.32704 -4.11295,2.99144c-1.30625,1.44238 -7.40861,2.91804 -8.12019,2.79449c-0.97845,-0.16988 -1.78221,-2.34737 -1.92866,-3.8601c-0.0724,-0.74786 0.89357,-1.21565 0.63902,-1.66018c-0.36226,-0.63263 -1.10151,0.50692 -1.68486,0.44591c-0.44232,-0.04625 -1.01144,-0.0096 -1.40467,-0.218c-0.37174,-0.19702 -0.57696,-0.64263 -0.68328,-0.58724c-0.28631,0.14915 -0.80103,-1.79258 -0.94869,-1.88004c-0.46613,-0.27607 0.30061,-1.7228 0.49295,-2.70166c0.06219,-0.31644 -0.15355,-0.36176 0.0404,-0.54109c0.17403,-0.1609 -0.69588,-0.18917 -0.80184,-0.58202c-0.09625,-0.35685 0.24824,-0.32945 -0.28558,-0.54112c-0.64174,-0.25448 -1.58044,-0.87386 -1.71244,-1.12725c-0.38528,-0.73957 -1.00024,-2.61738 -0.87077,-3.41472c0.20209,-1.2446 -0.40978,-2.18447 0.9876,-2.79344c0.13813,-0.0602 2.73583,-0.41795 2.86476,-0.48512c0.48924,-0.25486 3.19656,0.32303 5.15241,-0.90021c0.97736,-0.61127 2.12504,-2.20482 2.87675,-3.20904c0.68411,-0.91392 0.97432,-1.25543 1.79057,-1.5613c1.40226,-0.52548 2.30682,-0.00165 2.82748,0.32038c1.26746,0.78392 2.59966,2.37877 3.02867,3.20229z" fill="#fffd4d" stroke="#000000" stroke-width="0" stroke-linecap="butt"/><path d="" data-paper-data="{&quot;noHover&quot;:false,&quot;origItem&quot;:[&quot;Path&quot;,{&quot;applyMatrix&quot;:true,&quot;segments&quot;:[[[221.33019,611.96032],[0,0],[1.18796,10.06976]],[[221.36313,643.0381],[0,-10.14116],[-0.01082,0.80922]],[[222.37905,649.44242],[-0.56482,-0.07888],[5.94232,0.82974]],[[237.63571,645.59822],[-5.346,1.24482],[7.56656,-1.7619]],[[260.99541,644.82514],[-7.30032,1.89456],[4.3596,-1.1314]],[[272.87549,643.28868],[-4.61756,0],[24.25608,0]],[[345.64369,643.28868],[-24.25608,0],[23.68548,0]],[[415.76687,650.04322],[-23.68518,-0.01642],[24.93328,2.65318]],[[491.68123,650.79056],[-25.0784,0],[7.84098,0]],[[513.72735,647.84332],[-7.36778,1.58762],[4.31242,-0.92924]],[[528.18835,647.78982],[-4.37994,0],[8.21388,0]],[[554.11037,647.94956],[-8.31786,-1.25608],[0,0]],[[553.75807,647.47264],[0,0],[-3.64264,-8.9295]],[[542.62191,621.33624],[2.6925,9.41838],[0,0]],[[542.56007,620.50168],[-0.0443,0.46308],[-0.1097,-0.35806]],[542.45035,619.85488],[[542.59341,619.75484],[0,0],[-1.77544,-4.49932]],[[539.13807,606.00906],[1.5284,4.46762],[-1.57736,-9.47816]],[[534.49709,578.17342],[2.16912,9.28794],[-1.10928,-4.74978]],[[529.36527,563.32176],[3.07118,3.97394],[0,0]],[[529.76527,560.52176],[-1.6,1.2],[0.01434,-0.01076]],[[529.80819,560.49016],[-0.01428,0.0103],[0.00188,-5.27972]],[[528.97029,544.70482],[-0.0112,5.32368],[-2.1504,-15.0527]],[[523.48693,499.47222],[0,15.39796],[0,0]],[[523.51493,499.17968],[-0.028,0.17636],[-0.15884,-0.19934]],[523.27667,498.82148],[[522.67131,497.41302],[0,0],[-0.92562,-5.5573]],[[520.57315,480.60606],[0.96248,5.50956],[-0.46928,-2.68624]],[[518.85143,473.4853],[0.0365,2.9397],[0,-14.52902]],[[519.69329,430.11106],[-0.03184,14.52712],[0,0]],[[519.27285,428.95634],[0,0],[0,-9.2368]],[[518.85827,401.30828],[-0.0265,9.18612],[-1.61258,-9.5129]],[[518.01837,372.68454],[0.86174,9.55806],[-0.44782,-4.96704]],[[515.51167,357.93596],[0.26216,4.96814],[0,0]],[[515.48019,357.8786],[0,0],[0.01976,-7.71342]],[[512.54005,334.89814],[1.48228,7.57258],[-0.01242,-9.1038]],[[508.32305,307.4744],[0.83256,9.1176],[-0.55138,-6.03826]],[[509.15327,289.59048],[-0.09852,5.94608],[0,0]],[[507.71657,287.75662],[0,0],[-2.98888,-8.91986]],[[498.83211,261.14078],[4.23272,8.6159],[-1.09152,-2.22188]],[[496.43565,255.04688],[1.52644,1.908],[-4.8944,-8.1382]],[[478.43733,239.57704],[7.71112,5.17192],[-4.29644,-2.88168]],[[465.67029,231.31364],[4.82126,2.19022],[-3.04232,-1.38209]],[[454.91642,226.43968],[3.65797,1.02479],[-7.70686,8.1729]],[[446.76641,259.57135],[1.99884,-10.65051],[0.23136,0.48694]],[446.99777,260.53312],[[446.99777,261.79734],[0,0],[0,8.20738]],[[451.95003,285.6006],[-3.24678,-7.50312],[1.50468,5.9756]],[[458.62347,300.173],[-2.44922,-5.26098],[2.68528,5.76808]],[[465.73275,318.60222],[-2.84728,-5.87724],[1.7803,3.67484]],[[474.70509,325.41452],[-2.9172,-2.2298],[0.99196,0.75824]],[[477.31917,328.0972],[-0.02184,-1.24838],[0.02664,1.523]],[[474.81887,331.92222],[0.83344,-1.275],[-14.04556,-1.20128]],[[432.70209,318.03136],[11.5827,8.03308],[0,0]],[[431.59873,317.75916],[0,0],[-9.92948,-7.45294]],[[402.28937,293.02182],[10.66306,6.29984],[-10.6143,-6.07522]],[[386.13435,262.78192],[0.97348,11.67922],[-0.39118,-4.69316]],[[385.70791,248.73362],[-0.02366,4.72596],[0.00172,-0.34318]],[[385.68947,247.38052],[-0.00106,0.50614],[-11.34958,7.02846]],[[354.42029,272.1936],[10.29542,-8.4106],[-5.94694,4.85822]],[[335.32497,285.77802],[6.27764,-4.4837],[-6.36068,4.2389]],[[314.84215,297.87798],[7.63564,-1.78408],[-5.64176,1.31822]],[[297.10485,297.51008],[5.78226,0],[-5.31998,0]],[[281.44501,295.18376],[4.71328,2.74608],[-6.09492,-2.6052]],[[263.76187,286.7637],[5.90316,2.97586],[-1.73494,-0.8746]],[[256.37617,283.72538],[1.1854,1.45742],[-1.77252,-2.17926]],[[257.08689,275.02426],[-1.40602,2.05674],[3.62346,-5.30046]],[[273.65417,266.03734],[-4.84858,3.69358],[4.42616,-2.65838]],[[286.22761,256.81298],[-3.24804,4.11838],[2.63124,-3.33628]],[[290.15057,240.51646],[1.32478,4.2424],[-1.05118,-3.36626]],[[280.91155,233.37344],[3.8945,1.39282],[1.0271,1.07764]],[[281.04235,235.79552],[0,0],[-6.38706,9.32508]],[[256.88315,259.25234],[7.28458,-8.61874],[-3.07222,3.63488]],[[250.28465,271.80452],[2.66882,-4.0151],[-2.95752,4.3673]],[[245.28343,285.52826],[1.54184,-4.70384],[-3.76512,11.48654]],[[237.78761,321.51686],[3.00796,-12.03186],[-5.78958,16.72838]],[[233.36625,374.9712],[0,-17.5994],[0,20.25506]],[[233.36625,435.7364],[0,-20.25506],[0,5.9887]],[[234.08407,453.4217],[-0.14384,-5.9486],[0.03238,0.19122]],[234.11645,453.7409],[[234.11645,458.24204],[0,0],[0,0.60852]],[[233.41589,459.76244],[0.42878,-0.36682],[0.1766,6.43228]],[[233.35655,479.1943],[0.78274,-6.24032],[-0.67576,5.38742]],[[228.76251,493.88324],[1.85264,-4.6309],[-0.73542,1.83828]],[[228.09997,501.74722],[0.53112,-2.1245],[-0.04642,1.69442]],[[226.52877,506.58354],[0.49122,-1.62232],[-2.04146,6.74218]],[[225.83857,528.82996],[1.15166,-7.02178],[-1.60248,9.77046]],[[220.60335,557.96398],[1.97636,-9.75194],[0,5.4645]],[[218.33669,573.84122],[0.91122,-5.25924],[-0.74118,4.27784]],[[218.33565,587.66186],[-0.13878,-4.50386],[1.16104,0.78548]],[219.01005,589.90724],[[218.40807,591.71318],[0,0],[0.3106,6.76616]],[[221.33031,611.96044],[-0.79476,-6.7368],[0,0]]],&quot;closed&quot;:true}]}" fill="#52402d" stroke="none" stroke-width="0.5" stroke-linecap="butt"/><path d="" data-paper-data="{&quot;noHover&quot;:false,&quot;origItem&quot;:[&quot;Path&quot;,{&quot;applyMatrix&quot;:true,&quot;segments&quot;:[[[221.33019,611.96032],[0,0],[1.18796,10.06976]],[[221.36313,643.0381],[0,-10.14116],[-0.01082,0.80922]],[[222.37905,649.44242],[-0.56482,-0.07888],[5.94232,0.82974]],[[237.63571,645.59822],[-5.346,1.24482],[7.56656,-1.7619]],[[260.99541,644.82514],[-7.30032,1.89456],[4.3596,-1.1314]],[[272.87549,643.28868],[-4.61756,0],[24.25608,0]],[[345.64369,643.28868],[-24.25608,0],[23.68548,0]],[[415.76687,650.04322],[-23.68518,-0.01642],[24.93328,2.65318]],[[491.68123,650.79056],[-25.0784,0],[7.84098,0]],[[513.72735,647.84332],[-7.36778,1.58762],[4.31242,-0.92924]],[[528.18835,647.78982],[-4.37994,0],[8.21388,0]],[[554.11037,647.94956],[-8.31786,-1.25608],[0,0]],[[553.75807,647.47264],[0,0],[-3.64264,-8.9295]],[[542.62191,621.33624],[2.6925,9.41838],[0,0]],[[542.56007,620.50168],[-0.0443,0.46308],[-0.1097,-0.35806]],[542.45035,619.85488],[[542.59341,619.75484],[0,0],[-1.77544,-4.49932]],[[539.13807,606.00906],[1.5284,4.46762],[-1.57736,-9.47816]],[[534.49709,578.17342],[2.16912,9.28794],[-1.10928,-4.74978]],[[529.36527,563.32176],[3.07118,3.97394],[0,0]],[[529.76527,560.52176],[-1.6,1.2],[0.01434,-0.01076]],[[529.80819,560.49016],[-0.01428,0.0103],[0.00188,-5.27972]],[[528.97029,544.70482],[-0.0112,5.32368],[-2.1504,-15.0527]],[[523.48693,499.47222],[0,15.39796],[0,0]],[[523.51493,499.17968],[-0.028,0.17636],[-0.15884,-0.19934]],[523.27667,498.82148],[[522.67131,497.41302],[0,0],[-0.92562,-5.5573]],[[520.57315,480.60606],[0.96248,5.50956],[-0.46928,-2.68624]],[[518.85143,473.4853],[0.0365,2.9397],[0,-14.52902]],[[519.69329,430.11106],[-0.03184,14.52712],[0,0]],[[519.27285,428.95634],[0,0],[0,-9.2368]],[[518.85827,401.30828],[-0.0265,9.18612],[-1.61258,-9.5129]],[[518.01837,372.68454],[0.86174,9.55806],[-0.44782,-4.96704]],[[515.51167,357.93596],[0.26216,4.96814],[0,0]],[[515.48019,357.8786],[0,0],[0.01976,-7.71342]],[[512.54005,334.89814],[1.48228,7.57258],[-0.01242,-9.1038]],[[508.32305,307.4744],[0.83256,9.1176],[-0.55138,-6.03826]],[[509.15327,289.59048],[-0.09852,5.94608],[0,0]],[[507.71657,287.75662],[0,0],[-2.98888,-8.91986]],[[498.83211,261.14078],[4.23272,8.6159],[-1.09152,-2.22188]],[[496.43565,255.04688],[1.52644,1.908],[-4.8944,-8.1382]],[[478.43733,239.57704],[7.71112,5.17192],[-4.29644,-2.88168]],[[465.67029,231.31364],[4.82126,2.19022],[-3.04232,-1.38209]],[[454.91642,226.43968],[3.65797,1.02479],[-7.70686,8.1729]],[[446.76641,259.57135],[1.99884,-10.65051],[0.23136,0.48694]],[446.99777,260.53312],[[446.99777,261.79734],[0,0],[0,8.20738]],[[451.95003,285.6006],[-3.24678,-7.50312],[1.50468,5.9756]],[[458.62347,300.173],[-2.44922,-5.26098],[2.68528,5.76808]],[[465.73275,318.60222],[-2.84728,-5.87724],[1.7803,3.67484]],[[474.70509,325.41452],[-2.9172,-2.2298],[0.99196,0.75824]],[[477.31917,328.0972],[-0.02184,-1.24838],[0.02664,1.523]],[[474.81887,331.92222],[0.83344,-1.275],[-14.04556,-1.20128]],[[432.70209,318.03136],[11.5827,8.03308],[0,0]],[[431.59873,317.75916],[0,0],[-9.92948,-7.45294]],[[402.28937,293.02182],[10.66306,6.29984],[-10.6143,-6.07522]],[[386.13435,262.78192],[0.97348,11.67922],[-0.39118,-4.69316]],[[385.70791,248.73362],[-0.02366,4.72596],[0.00172,-0.34318]],[[385.68947,247.38052],[-0.00106,0.50614],[-11.34958,7.02846]],[[354.42029,272.1936],[10.29542,-8.4106],[-5.94694,4.85822]],[[335.32497,285.77802],[6.27764,-4.4837],[-6.36068,4.2389]],[[314.84215,297.87798],[7.63564,-1.78408],[-5.64176,1.31822]],[[297.10485,297.51008],[5.78226,0],[-5.31998,0]],[[281.44501,295.18376],[4.71328,2.74608],[-6.09492,-2.6052]],[[263.76187,286.7637],[5.90316,2.97586],[-1.73494,-0.8746]],[[256.37617,283.72538],[1.1854,1.45742],[-1.77252,-2.17926]],[[257.08689,275.02426],[-1.40602,2.05674],[3.62346,-5.30046]],[[273.65417,266.03734],[-4.84858,3.69358],[4.42616,-2.65838]],[[286.22761,256.81298],[-3.24804,4.11838],[2.63124,-3.33628]],[[290.15057,240.51646],[1.32478,4.2424],[-1.05118,-3.36626]],[[280.91155,233.37344],[3.8945,1.39282],[1.0271,1.07764]],[[281.04235,235.79552],[0,0],[-6.38706,9.32508]],[[256.88315,259.25234],[7.28458,-8.61874],[-3.07222,3.63488]],[[250.28465,271.80452],[2.66882,-4.0151],[-2.95752,4.3673]],[[245.28343,285.52826],[1.54184,-4.70384],[-3.76512,11.48654]],[[237.78761,321.51686],[3.00796,-12.03186],[-5.78958,16.72838]],[[233.36625,374.9712],[0,-17.5994],[0,20.25506]],[[233.36625,435.7364],[0,-20.25506],[0,5.9887]],[[234.08407,453.4217],[-0.14384,-5.9486],[0.03238,0.19122]],[234.11645,453.7409],[[234.11645,458.24204],[0,0],[0,0.60852]],[[233.41589,459.76244],[0.42878,-0.36682],[0.1766,6.43228]],[[233.35655,479.1943],[0.78274,-6.24032],[-0.67576,5.38742]],[[228.76251,493.88324],[1.85264,-4.6309],[-0.73542,1.83828]],[[228.09997,501.74722],[0.53112,-2.1245],[-0.04642,1.69442]],[[226.52877,506.58354],[0.49122,-1.62232],[-2.04146,6.74218]],[[225.83857,528.82996],[1.15166,-7.02178],[-1.60248,9.77046]],[[220.60335,557.96398],[1.97636,-9.75194],[0,5.4645]],[[218.33669,573.84122],[0.91122,-5.25924],[-0.74118,4.27784]],[[218.33565,587.66186],[-0.13878,-4.50386],[1.16104,0.78548]],[219.01005,589.90724],[[218.40807,591.71318],[0,0],[0.3106,6.76616]],[[221.33031,611.96044],[-0.79476,-6.7368],[0,0]]],&quot;closed&quot;:true}]}" fill="#52402d" stroke="none" stroke-width="0.5" stroke-linecap="butt"/><g><path d="M210.30636,191.50211c1.77248,-1.36523 3.35624,-2.93076 5.2795,-4.18795c2.31795,-1.5152 5.18578,-4.51675 6.3773,-6.99792c0.62535,-1.92725 2.34069,-3.13955 3.08078,-4.93389c0.41251,-1.00011 0.66868,-2.09038 1.33114,-3.03652c1.08488,-2.72394 3.0024,-5.15772 4.91784,-7.35636c1.94999,-2.25568 4.07578,-4.43362 6.64178,-6.11097c2.48948,-1.62733 5.38752,-4.29289 8.35604,-4.66456c2.00432,-0.53877 6.80899,-0.3472 7.89717,1.55853c2.04635,2.97157 1.40071,4.42121 -0.80607,7.19495c-2.09092,2.63521 -4.45676,4.9766 -6.38506,7.79153c-1.61642,2.31617 -1.85927,6.45547 -1.51465,9.2006c0.42046,3.32497 0.73623,6.77336 1.10772,10.15979c0.37527,3.41985 0.67129,6.53027 0.35399,9.97249c-0.31725,3.44165 -1.1781,6.53153 -2.10817,9.85248c-0.87299,3.11716 -2.77217,5.69926 -4.50784,8.38681c-1.99595,3.0906 -3.79377,4.8093 -6.89587,6.8371c-0.70646,0.46179 -1.32474,0.95862 -2.05964,1.23134c-0.1962,-0.51189 -0.38359,-1.02441 -0.57118,-1.49423c-0.01624,-1.01549 -0.81124,-1.6921 -1.16908,-2.59295c-0.92986,-2.3409 -2.18129,-4.31293 -3.65503,-6.45299c-1.96715,-2.85655 -3.94669,-5.72245 -5.91383,-8.57901c-1.97965,-2.87471 -3.96856,-5.7639 -5.94821,-8.63861c-1.1898,-1.72775 -2.6711,-3.46281 -3.39933,-5.42385c-0.14219,-0.38289 -0.51973,-1.37399 -0.4093,-1.71578z" data-paper-data="{&quot;noHover&quot;:false,&quot;origItem&quot;:[&quot;Path&quot;,{&quot;applyMatrix&quot;:true,&quot;segments&quot;:[[[465.42875,375.8999],[0.21492,-0.864],[-1.10074,4.4251]],[[464.84151,389.76305],[0.00001,-4.54937],[-0.00001,7.56946]],[[464.84151,412.47144],[0,-7.56946],[0,7.52165]],[[464.84151,435.03639],[0,-7.52165],[0,5.63504]],[[463.43659,451.07705],[1.20682,-5.35416],[-0.46442,2.06044]],[[462.34272,457.16894],[1.2084,-1.86314],[-0.24051,1.07573]],[[461.53124,460.55827],[0.27652,-1.16234],[1.63231,0.3771]],[[466.6719,460.76391],[-1.81234,0],[7.95817,0]],[[487.18695,456.52299],[-7.29609,3.24271],[6.34462,-2.81983]],[[505.36193,446.63555],[-5.34186,4.6238],[5.6911,-4.9261]],[[521.06634,431.24036],[-4.75403,5.87263],[4.75482,-5.8736]],[[532.51292,412.73459],[-3.50236,6.65499],[3.46833,-6.58983]],[[542.90643,393.09783],[-3.30684,6.53637],[2.73459,-5.39351]],[[556.62873,377.7474],[-5.68124,2.287],[6.84054,-2.82244]],[[577.09154,370.8567],[-6.90931,2.3031],[7.28306,-2.41714]],[[587.77867,359.52183],[0,7.82449],[0.3966,-4.7519]],[[575.72153,347.33549],[4.20211,1.40072],[-5.70429,-2.84854]],[[555.27692,345.90155],[6.38655,0],[-6.58283,0]],[[536.10895,349.12387],[6.19762,-1.78123],[-6.06705,1.71869]],[[518.48097,356.64536],[5.23765,-3.65833],[-2.3246,0.93167]],[[512.44125,360.57595],[1.94814,-1.32635],[-3.4952,2.37963]],[[501.00643,365.86632],[3.45415,-2.75715],[-5.13053,3.09093]],[[481.22617,370.9785],[5.9465,0],[-4.93394,0]],[[466.79233,372.30392],[4.79881,-0.37511],[-0.61175,0.48952]]],&quot;closed&quot;:true}]}" fill="#e4e6e7" stroke="none" stroke-width="0.5" stroke-linecap="butt"/><path d="M231.70366,228.34501c-0.22191,-0.42675 -0.42814,-0.90149 -0.62295,-1.3873c-0.23374,0.05487 -0.48059,0.08883 -0.74554,0.09666l0.01924,0.03315c0,0 -0.20971,0.13708 -0.3504,-0.06724c-0.14071,-0.20432 0.069,-0.3414 0.069,-0.3414l0.24804,-0.11641c0.20333,-0.00501 0.39536,-0.02823 0.57868,-0.0664c-0.20313,-0.52838 -0.39452,-1.05607 -0.57956,-1.53653c0.01103,-0.9633 -0.79673,-1.63547 -1.13631,-2.49388c-0.90726,-2.29339 -2.13077,-4.21845 -3.57559,-6.31649c-1.95683,-2.84157 -3.91365,-5.68315 -5.87048,-8.52471c-1.96926,-2.85964 -3.93854,-5.71926 -5.9078,-8.5789c-0.78203,-1.1356 -3.91372,-4.92252 -3.94694,-6.93024c-0.24886,0.18018 -0.50235,0.35574 -0.76181,0.52535c0,0 -0.20971,0.13708 -0.35041,-0.06725c-0.14071,-0.20432 0.06901,-0.34139 0.06901,-0.34139c0.43827,-0.28649 0.85956,-0.59 1.2704,-0.90431c0.04611,-0.05901 0.09972,-0.11332 0.1613,-0.16255c0,0 0.04107,-0.02685 0.09906,-0.03908c1.68731,-1.32185 3.21904,-2.80709 5.06368,-4.01289c2.23915,-1.46369 4.99368,-4.32955 6.15085,-6.71536c0.90391,-1.78854 2.37682,-3.11398 3.05727,-4.89624c0.38931,-1.01969 0.67571,-2.11612 1.34289,-3.06621c1.07136,-2.74495 3.02853,-5.18534 4.94003,-7.39866c1.97746,-2.27353 4.10779,-4.47333 6.69858,-6.16689c2.53375,-1.65628 5.45274,-4.33916 8.48252,-4.71419c2.41512,-0.64921 6.86853,-0.2258 8.36447,1.75598c2.16947,3.15035 1.07964,4.66698 -1.21495,7.56615c-2.07445,2.61444 -4.20951,4.97123 -6.1226,7.76389c-1.53894,2.20519 -1.57415,6.32671 -1.2449,8.94261c0.41352,3.31052 0.70963,6.68945 1.07944,10.06045c0.37642,3.43232 0.69531,6.53365 0.37681,9.98889c-0.31825,3.45252 -1.16714,6.55107 -2.10006,9.88219c-0.88205,3.1495 -2.78134,5.75938 -4.53491,8.47468c-2.01652,3.12244 -3.86293,4.89958 -6.9976,6.94867c-0.74276,0.48553 -1.38795,0.98415 -2.1505,1.27151c0.21213,0.53044 0.43875,1.04647 0.69271,1.49878l-0.33781,0.12482l-0.10612,0.10985c-0.01077,-0.01947 -0.02149,-0.03906 -0.03218,-0.05877l-0.01595,0.00589c0,0 -0.05173,-0.06333 -0.05858,-0.14624zM210.87047,193.38525c0.72442,1.95074 2.19537,3.66745 3.37892,5.38614c1.96926,2.85964 3.93854,5.71927 5.90781,8.57891c1.95683,2.84157 3.91365,5.68315 5.87048,8.52471c1.46601,2.12884 2.70338,4.08742 3.62837,6.41603c0.35596,0.89612 1.14456,1.56854 1.16071,2.57869c0.1866,0.46735 0.37194,0.97692 0.56711,1.48613c0.73104,-0.27127 1.34408,-0.76594 2.04681,-1.22532c3.08583,-2.01716 4.86603,-3.72772 6.85151,-6.8021c1.72656,-2.67347 3.60674,-5.24134 4.47515,-8.34214c0.92518,-3.30354 1.76869,-6.37309 2.08426,-9.79668c0.31564,-3.42417 -0.00267,-6.49067 -0.37598,-9.89258c-0.36955,-3.36866 -0.6603,-6.74539 -1.07854,-10.05293c-0.34282,-2.73073 -0.28061,-6.97334 1.32734,-9.27736c1.91817,-2.80016 4.06194,-5.16855 6.1419,-7.78992c2.1952,-2.7592 3.23074,-4.03503 1.19513,-6.99101c-1.08247,-1.89572 -5.85182,-2.08364 -7.84562,-1.5477c-2.95296,0.36973 -5.82415,3.02157 -8.30056,4.64037c-2.55253,1.66855 -4.65442,3.83202 -6.59417,6.07585c-1.9054,2.18711 -3.79939,4.60003 -4.87856,7.30967c-0.659,0.94119 -0.90902,2.02094 -1.31936,3.0158c-0.7362,1.78492 -2.04936,3.04914 -3.06717,4.93612c-1.18526,2.46815 -4.02454,5.39863 -6.33033,6.90589c-1.91317,1.25061 -3.48882,2.8012 -5.25199,4.15927c-0.10985,0.33999 0.26535,1.32326 0.40679,1.70414z" fill="#fbffdb" stroke="none" stroke-width="0.5" stroke-linecap="butt"/><g stroke-width="0.5"><path d="M268.34949,286.47977c0,0 -2.52005,-4.08355 -5.29178,-8.50567c-1.47798,-2.35804 -3.02755,-4.81233 -4.30476,-6.79509c-0.10907,-0.16933 0.24464,-0.63872 0.13328,-0.81005c-0.09973,-0.15343 -0.78957,-0.29077 -0.89029,-0.44571c-5.93161,-9.12607 -13.50855,-20.76731 -14.5662,-22.31409c-0.06677,-0.09763 -0.01975,-0.22904 0.01735,-0.47087c0.01635,-0.10661 0.18076,-0.2464 0.07845,-0.39434c-0.12146,-0.17562 -0.32461,-0.23558 -0.51695,-0.26029c-0.22795,-0.02927 -0.44072,-0.00899 -0.48441,-0.07296c-4.6096,-6.75085 -12.67073,-19.22095 -12.31303,-19.49669c0.38404,-0.29603 0.86976,-0.62483 1.38912,-0.95189c1.67672,-1.05591 3.70407,-2.09383 3.79271,-1.95363c3.20185,5.06342 12.02368,18.90054 12.54847,19.68962c0.09871,0.14845 -0.29885,0.5869 -0.18734,0.75461c0.09799,0.14737 0.64191,0.08507 0.74937,0.2467c2.83911,4.27051 8.91313,13.41661 14.60786,22.05514c0.09594,0.14553 -0.12461,0.6149 -0.02891,0.76012c0.11474,0.17413 0.5457,0.02401 0.66006,0.19759c6.32896,9.60638 12.03583,18.30967 11.91303,18.75298c-0.02989,0.10794 0.19732,1.02527 -0.2824,1.96566c-0.083,0.16269 -0.28776,0.42912 -0.41078,0.58165c-0.13714,0.17005 -0.66512,0.66446 -0.83876,0.7867c-0.10651,0.07497 -0.8193,0.40008 -0.93098,0.44658c-1.45881,0.60741 -3.30307,-1.24111 -3.30307,-1.24111z" fill="#e5a04c" stroke="#a25c02" stroke-linecap="round"/><path d="M247.39549,242.93211c0.28393,-0.11141 0.38019,0.14873 0.38019,0.14873l0.11208,0.36978c-0.14639,0.32244 -0.18063,0.78962 -0.41282,1.1095c-0.4499,0.61976 -1.49963,0.90871 -2.20131,1.29293c-0.89084,0.48779 -1.53385,1.0204 -2.47709,0.74118c0,0 -0.59747,-0.15784 -0.48754,-0.42839c0.10993,-0.27054 0.22957,-0.22499 0.22957,-0.22499c1.7271,0.51663 3.95773,-1.13574 4.75089,-2.48347l-0.08165,-0.15373c0,0 -0.09625,-0.26013 0.18768,-0.37154z" fill="#a25c02" stroke="none" stroke-linecap="butt"/><path d="M243.72086,248.09234c-0.28393,0.1114 -0.38019,-0.14873 -0.38019,-0.14873l-0.11208,-0.36978c0.17929,-0.39491 0.16515,-0.7671 0.4703,-1.08382c0.20322,-0.21092 0.46298,-0.3468 0.78271,-0.53378c0.24414,-0.14278 0.54526,-0.33787 0.75247,-0.48536c0.90974,-0.64755 1.98454,-1.29702 3.033,-0.98665c0,0 0.27893,0.08298 0.169,0.35352c-0.10992,0.27054 -0.38885,0.18756 -0.38885,0.18756c-1.7271,-0.51663 -3.42719,1.19404 -4.22034,2.54176l0.08164,0.15372c0,0 0.09626,0.26013 -0.18768,0.37154z" data-paper-data="{&quot;index&quot;:null}" fill="#a25c02" stroke="none" stroke-linecap="butt"/><path d="M262.58073,266.38406c0.28393,-0.1114 0.38019,0.14872 0.38019,0.14872l-0.01605,0.80949c-0.39922,0.87931 -1.15755,0.95615 -2.07253,1.58794c-0.63868,0.44099 -1.3527,1.13607 -2.04412,1.28048c-0.27856,0.05818 -0.49964,-0.13148 -0.79371,-0.21854c0,0 -0.27892,-0.08298 -0.16899,-0.35353c0.10992,-0.27054 0.38885,-0.18756 0.38885,-0.18756c0.89938,0.26904 1.79011,-0.31137 2.55058,-0.88453c0.69987,-0.5275 1.28963,-1.01132 1.66976,-1.65722l-0.08163,-0.15373c0,0 -0.09625,-0.26013 0.18768,-0.37154z" fill="#a25c02" stroke="none" stroke-linecap="butt"/><path d="M258.73629,271.07985l-0.11208,-0.36978c0.38986,-0.85872 1.11942,-1.47225 2.0055,-2.10295c0.90974,-0.64755 1.98453,-1.29701 3.03299,-0.98663c0,0 0.27893,0.08298 0.16901,0.35351c-0.10993,0.27054 -0.38884,0.18756 -0.38884,0.18756c-1.7271,-0.51663 -3.8169,1.5314 -4.61006,2.87914z" data-paper-data="{&quot;index&quot;:null}" fill="#a25c02" stroke="none" stroke-linecap="butt"/></g><path d="M232.10146,203.35309c6.8379,10.8482 7.76134,22.40652 2.06259,25.81625c-5.69875,3.40972 -15.86172,-2.62035 -22.69962,-13.46855c-6.8379,-10.8482 -7.76134,-22.40652 -2.06259,-25.81625c5.69875,-3.40972 15.86172,2.62035 22.69962,13.46855z" fill="#e5a04c" stroke="#a25c02" stroke-width="1" stroke-linecap="butt"/><path d="M229.52448,205.12094c5.81647,9.22774 7.09722,18.7632 2.86064,21.29806c-4.23657,2.53486 -12.38618,-2.89078 -18.20266,-12.11851c-5.81647,-9.22774 -7.09723,-18.76319 -2.86065,-21.29805c4.23657,-2.53486 12.3862,2.89078 18.20267,12.1185z" fill="#e4e6e7" stroke="#a25c02" stroke-width="1" stroke-linecap="butt"/><path d="M237.88823,178.97267c0,0 -0.36251,2.75526 -1.41166,6.08267c-0.72475,2.29856 -2.09558,5.13967 -2.59975,6.43273c-1.15697,2.96731 -3.17648,5.91951 -3.17648,5.91951" fill="none" stroke="#000000" stroke-width="0.5" stroke-linecap="round"/><path d="M240.40275,185.7532c0,0 -0.27463,2.08733 -1.06944,4.60809c-0.54905,1.74134 -1.58756,3.89368 -1.96951,4.87328c-0.8765,2.24797 -2.40643,4.48448 -2.40643,4.48448" fill="none" stroke="#000000" stroke-width="0.5" stroke-linecap="round"/><path d="M243.42807,190.57115c0,0 -0.30353,2.30698 -1.18198,5.09299c-0.60683,1.92458 -1.7546,4.30341 -2.17675,5.38609c-0.96872,2.48452 -2.65965,4.95638 -2.65965,4.95638" fill="none" stroke="#000000" stroke-width="0.5" stroke-linecap="round"/><path d="M233.59799,180.50928c0,0 2.9021,2.41287 4.85082,5.67378c1.34617,2.25263 2.99425,5.53979 3.68061,6.88188c1.57506,3.07979 2.28155,6.84549 2.28155,6.84549" fill="none" stroke="#000000" stroke-width="0.5" stroke-linecap="round"/><path d="M231.85937,184.19979c0,0 2.9021,2.41288 4.85081,5.67379c1.34617,2.25264 2.99425,5.53979 3.68061,6.88188c1.57506,3.07979 2.28156,6.84548 2.28156,6.84548" fill="none" stroke="#000000" stroke-width="0.5" stroke-linecap="round"/><path d="M229.43024,188.16023c0,0 2.90209,2.41288 4.85081,5.67379c1.34617,2.25264 2.99425,5.53979 3.68061,6.88188c1.57506,3.07979 2.28156,6.84548 2.28156,6.84548" fill="none" stroke="#000000" stroke-width="0.5" stroke-linecap="round"/><path d="M236.6141,166.64676c0,0 2.22252,-2.7532 4.33772,-4.36788c0.62351,-0.47598 1.79288,-1.44888 3.00299,-2.19488c2.11848,-1.30599 4.40367,-2.40258 4.40367,-2.40258" fill="none" stroke="#000000" stroke-width="0.5" stroke-linecap="round"/><path d="M238.13827,167.76778c0,0 2.22252,-2.75321 4.33772,-4.36789c0.62351,-0.47598 1.79288,-1.44887 3.00298,-2.19487c2.11848,-1.30599 4.40367,-2.40258 4.40367,-2.40258" fill="none" stroke="#000000" stroke-width="0.5" stroke-linecap="round"/><path d="M237.68657,163.6358c0,0 1.17975,-0.01889 1.84254,0.31396c0.2833,0.14227 0.79952,0.39112 1.20297,0.71177c0.60093,0.4776 1.09844,1.15177 1.09844,1.15177" fill="none" stroke="#000000" stroke-width="0.5" stroke-linecap="round"/><path d="M241.1226,161.07832c0,0 1.17975,-0.0189 1.84255,0.31395c0.2833,0.14227 0.79952,0.39113 1.20297,0.71177c0.60093,0.4776 1.09845,1.15177 1.09845,1.15177" fill="none" stroke="#000000" stroke-width="0.5" stroke-linecap="round"/></g><path d="" fill="#000000" stroke="none" stroke-width="0.5" stroke-linecap="butt"/><path d="" data-paper-data="{&quot;noHover&quot;:false,&quot;origItem&quot;:[&quot;Path&quot;,{&quot;applyMatrix&quot;:true,&quot;segments&quot;:[[[583.25139,495.65874],[0,1],[0,-1]],[584.25139,494.65874],[[584.85269,494.65874],[0,0],[-4.84073,-2.95068]],[[574.08601,482.88011],[3.25773,4.74252],[-1.56105,-2.68651]],[[569.46039,484.48145],[1.08387,-1.6197],[3.21102,3.26736]],[[579.00685,494.67021],[-3.14521,-3.67254],[1.51706,1.77141]],[[583.91806,500.65874],[-2.06109,-0.8516],[0.97275,-0.37736]],[[586.18396,496.55072],[-0.10473,1.54633],[-0.32045,0.05949]],[[585.25139,496.65874],[0.30079,-0.01173],[0,0]],[584.25139,496.65874]],&quot;closed&quot;:true}],&quot;index&quot;:null}" fill="#744824" stroke="none" stroke-width="0.5" stroke-linecap="butt"/><path d="" data-paper-data="{&quot;index&quot;:null}" fill="#9966ff" stroke="none" stroke-width="0.5" stroke-linecap="butt"/><path d="" data-paper-data="{&quot;index&quot;:null}" fill="#ff0000" stroke="#000000" stroke-width="0.5" stroke-linecap="butt"/><path d="" data-paper-data="{&quot;noHover&quot;:false,&quot;origItem&quot;:[&quot;Path&quot;,{&quot;applyMatrix&quot;:true,&quot;segments&quot;:[[[535.12936,417.74145],[-5.02125,-0.00391],[0.96679,-0.10681]],[[541.48204,417.51231],[-0.30659,0.39793],[0.74755,-0.97026]],[[541.01796,410.80199],[0.54306,-0.04458],[-1.79076,-0.18637]],[[535.49104,410.53876],[1.79136,-0.41053],[0,0]],[535.21543,410.55066],[[534.97952,410.49495],[0.12013,0.05571],[-3.56273,0]],[[523.73824,410.49495],[3.56138,0],[-4.60362,0]],[[520.13041,417.03337],[-0.3822,-4.15558],[5.07196,-0.31925]]],&quot;closed&quot;:true}],&quot;index&quot;:null}" fill="#ff0000" stroke="none" stroke-width="0.5" stroke-linecap="butt"/><path d="" data-paper-data="{&quot;index&quot;:null}" fill="#020204" stroke="none" stroke-width="0.5" stroke-linecap="butt"/><path d="" data-paper-data="{&quot;index&quot;:null}" fill="#020204" stroke="none" stroke-width="0.5" stroke-linecap="butt"/><path d="" data-paper-data="{&quot;index&quot;:null}" fill="#000000" stroke="none" stroke-width="0.5" stroke-linecap="butt"/><path d="" data-paper-data="{&quot;index&quot;:null}" fill="none" stroke="#000000" stroke-width="0.5" stroke-linecap="round"/><path d="" data-paper-data="{&quot;index&quot;:null}" fill="#ffffff" stroke="none" stroke-width="0.5" stroke-linecap="butt"/><path d="" data-paper-data="{&quot;index&quot;:null}" fill="#ffffff" stroke="none" stroke-width="0.5" stroke-linecap="butt"/><path d="" data-paper-data="{&quot;index&quot;:null}" fill="#ffffff" stroke="none" stroke-width="0.5" stroke-linecap="butt"/><path d="" data-paper-data="{&quot;index&quot;:null}" fill="#ffffff" stroke="none" stroke-width="0.5" stroke-linecap="butt"/><path d="M257.33733,263.75867c1.06708,2.04838 -2.47467,3.56267 -4.79739,4.77267c-0.27318,0.14231 5.75644,-3.61262 7.00731,-1.90104c0.0866,0.11849 0.54085,0.05726 0.85709,0.52389c0.30517,0.45027 0.47308,1.41978 0.5313,2.01438c0.0852,0.86994 -1.8322,3.51092 -2.16613,4.14323c-0.3053,0.57812 1.14443,0.1432 2.58799,0.09175c0.8732,-0.03113 1.70389,0.2058 2.25729,0.52774c1.37055,0.79733 1.11984,2.72156 1.13229,2.92018c0.02094,0.33415 0.14187,1.41953 -1.75527,2.60193c-1.24071,0.77328 -4.77465,1.80296 -4.79853,1.94492c-0.00741,0.04405 -0.6994,0.44548 -1.6461,0.11155c-0.6641,-0.23425 -1.59374,-1.09947 -1.89793,-1.54741c-0.18615,-0.27412 -0.3012,-0.57744 -0.36544,-0.89163c-0.31083,-1.52005 0.56724,-3.29453 0.33382,-3.24782c-0.8046,0.161 -2.51583,0.31815 -2.80781,0.12945c-0.39857,-0.25759 -0.63824,-0.82291 -1.06171,-0.95671c-0.55715,-0.17604 -0.58648,-1.53301 -0.89904,-1.59741c-0.09865,-0.02032 -0.36718,-0.35399 -0.47115,-0.82454c-0.24893,-1.12675 0.26542,-2.50091 -0.00314,-2.66614c-0.96674,-0.59475 -2.56983,-2.1212 -2.97258,-2.89434c-0.45686,-0.87699 -0.31247,-1.74667 -0.2733,-2.50368c0.05231,-1.01114 0.23064,-1.85271 1.5589,-2.54466c1.23986,-0.6459 5.20904,-1.33202 7.04145,-0.68081c1.60034,0.56873 2.11063,1.51954 2.60811,2.4745z" fill="#fffd4d" stroke="none" stroke-width="0" stroke-linecap="butt"/><path d="M247.08766,262.65379l-0.0307,-0.02288c-0.81647,0.69933 -0.69484,1.67249 -0.73253,2.64134c0.1364,1.35184 1.66254,4.33414 3.35196,4.17092c0,0 0.0473,-0.00357 0.10224,0.013c1.67872,-0.8809 3.33377,-1.75628 5.0857,-2.46392l0.17477,-0.08494c0.0374,-0.00868 0.07481,-0.0184 0.11219,-0.02909c0.14025,-0.0548 0.28115,-0.1085 0.42277,-0.16098c0.29314,-0.13804 0.57203,-0.32225 0.81115,-0.51593c2.30468,-1.52624 -0.49728,-4.4343 -2.29215,-4.72924c-2.0576,-0.34147 -4.81781,0.06212 -6.81156,0.95209c0.0001,0.18318 -0.19385,0.22968 -0.19385,0.22968zM245.82465,265.28745c0.03993,-1.02619 -0.01189,-1.96505 0.637,-2.75451c-0.09892,-0.21238 0.11327,-0.32292 0.11327,-0.32292c2.10727,-1.09726 5.26452,-1.61278 7.59942,-1.23134c2.12214,0.35031 4.74916,3.32047 2.9618,5.23166c2.50911,-0.60112 4.20812,0.25109 3.8422,3.64841c-0.1954,1.38778 -0.97096,2.47142 -1.98388,3.3582c0.25151,-0.05466 0.49168,-0.08567 0.71456,-0.08873c2.64094,-0.64825 5.26518,0.55131 5.3181,3.56139c0.17291,2.3621 -4.01466,3.77234 -5.7312,4.66498c-3.06189,1.24859 -4.3908,-0.15504 -5.43612,-2.98833c-0.15211,-0.73516 -0.09932,-1.2024 0.12662,-1.91968l0.08122,-0.134c0,0 0.04812,-0.06643 0.1273,-0.09562c0.06017,-0.07962 0.12611,-0.1603 0.19731,-0.24169c-2.56074,1.0175 -4.17398,-0.26275 -5.14014,-3.09183c-0.30305,-0.98771 -0.69816,-2.01531 -0.29891,-2.73154c-0.06824,-0.14633 0.01123,-0.24434 0.0673,-0.29118c-1.70439,-0.4984 -3.04753,-3.08108 -3.19584,-4.57329zM255.0294,267.4677c0,0 -0.02312,0.01205 -0.05829,0.02088c-1.62633,0.66281 -3.16963,1.47022 -4.72885,2.28882c-0.04135,0.06309 -0.10321,0.09533 -0.10321,0.09533l-0.17809,0.09105c-1.17982,0.45555 -0.57991,1.65587 -0.2333,2.76522c0.956,2.82813 2.44094,3.88213 5.11942,2.48679c0.34919,-0.18191 0.71866,-0.37172 1.09484,-0.57339c0.46533,-0.31989 0.97017,-0.61525 1.47652,-0.85856c1.49538,-0.96547 2.81283,-2.20786 3.06371,-3.98686c0.39138,-3.60236 -1.62972,-3.81108 -4.51022,-2.69279c-0.08202,0.0295 -0.16379,0.05944 -0.24532,0.08976c-0.1289,0.05797 -0.26023,0.10848 -0.39275,0.14982c-0.0967,0.0378 -0.19308,0.07613 -0.28917,0.11496zM254.44675,276.6499c-0.18369,0.59465 -0.23134,0.96096 -0.10628,1.5787c0.95307,2.54158 1.97222,3.82034 4.74477,2.67253c1.46227,-0.7632 5.59994,-2.16966 5.4424,-4.18855c-0.04307,-2.76068 -2.39647,-3.6423 -4.75582,-3.08833c-0.62792,0.01214 -1.41716,0.26432 -2.20138,0.64425c-0.45309,0.28896 -0.91982,0.55475 -1.37948,0.80388c-0.68818,0.47316 -1.27931,1.00143 -1.62664,1.48571c0,0 -0.0442,0.06101 -0.11755,0.0918z" fill="#130000" stroke="none" stroke-width="0.5" stroke-linecap="butt"/><path d="M265.66296,264.82569c0.09797,1.00412 -0.37221,1.58217 -0.97255,1.89492c-0.68345,0.35603 -1.82788,1.27411 -2.92068,0.51244c-0.95425,-0.6651 -2.17936,-3.19038 -2.65014,-4.0941c-0.50039,-0.96056 -1.04131,-3.37473 -0.88626,-4.84539c0.15789,-1.49746 1.02213,-2.04593 1.66803,-2.38241c0.48188,-0.25103 2.17224,-0.55613 3.73964,0.39208c1.43717,0.86943 2.75755,2.94709 3.23252,3.80504c0.38321,0.69218 -3.09403,0.33784 -2.81282,0.87766c0.53634,1.02955 1.49129,2.70256 1.60226,3.83974z" fill="#fffd4d" stroke="none" stroke-width="0" stroke-linecap="butt"/><path d="M265.80318,265.8422c-0.03136,-0.00987 -0.0573,-0.02258 -0.0787,-0.0372c-0.04123,0.17844 -0.09998,0.35367 -0.17853,0.52476c-1.9128,2.42743 -4.25697,1.6748 -5.561,-0.82475c-1.06114,-2.03697 -2.00143,-4.71183 -2.14006,-7.00751c0.18477,-2.40608 3.18279,-4.07516 5.47599,-2.95486c2.24541,1.32147 3.26931,2.88715 4.02998,5.33965c0.34157,1.10642 0.75298,3.00506 0.79505,4.79879c0.05366,2.2876 -0.32632,4.44635 -0.41127,5.02528c-0.13769,0.93835 -0.47651,1.83052 -0.50908,1.84749c-0.22171,0.11551 -0.27055,-0.60623 -0.27055,-0.60623c0,0 0.67961,-2.56447 0.75999,-4.76962c0.09257,-2.5394 -0.43559,-4.84148 -0.84175,-6.14776c-0.71981,-2.32638 -1.65964,-3.7938 -3.79257,-5.04907c-1.91962,-1.03474 -4.57705,0.5469 -4.73581,2.52041c0.14202,2.21778 1.05763,4.80313 2.08351,6.77242c1.12142,2.15604 2.98844,2.90754 4.69154,0.79402c0.73909,-1.61877 -0.7275,-3.88314 -1.53415,-5.37334c-0.02785,-0.01734 -0.05521,-0.04295 -0.08055,-0.07962c-0.04443,-0.06432 -0.05487,-0.12242 -0.04821,-0.1719c-0.02199,-0.06828 -0.04416,-0.21346 0.12118,-0.2996c0.11176,-0.05822 0.19651,-0.03076 0.25312,0.01079c1.30672,-0.29202 2.32756,3.47231 2.55218,4.40375c0.06744,0.39675 -0.03023,0.57405 -0.20909,0.92637l-0.05765,0.19439c0,0 -0.07511,0.23845 -0.31356,0.16334zM265.89538,264.66654c-0.12362,-0.51855 -1.06428,-3.46797 -1.73762,-3.9635c0.70592,1.29751 1.65279,2.9284 1.64366,4.42196c0.08615,-0.15153 0.14743,-0.26191 0.09396,-0.45845z" fill="#130000" stroke="none" stroke-width="0.5" stroke-linecap="butt"/><path d="M383.68435,275.85321l0.53184,0.00287c0.16067,-0.0061 0.415,0.0336 0.58617,0.00267c-0.05594,0.80402 -0.70681,1.95544 -1.22642,2.15165c-1.10096,-0.44279 -1.82473,-2.1872 -2.63509,-3.10826c-1.68007,-1.90955 -3.44307,-3.68059 -5.15829,-5.37946c0.57897,-0.84217 1.65675,-2.24436 2.49061,-0.84749c1.74017,2.46589 3.23525,4.66053 5.82101,6.19475l-0.32208,0.00168c0,0 -0.53993,0.00836 -0.53993,0.52832c0,0.51995 0.45219,0.45328 0.45219,0.45328z" data-paper-data="{&quot;noHover&quot;:false,&quot;origItem&quot;:[&quot;Path&quot;,{&quot;applyMatrix&quot;:true,&quot;segments&quot;:[[[583.25139,495.65874],[0,1],[0,-1]],[584.25139,494.65874],[[584.85269,494.65874],[0,0],[-4.84073,-2.95068]],[[574.08601,482.88011],[3.25773,4.74252],[-1.56105,-2.68651]],[[569.46039,484.48145],[1.08387,-1.6197],[3.21102,3.26736]],[[579.00685,494.67021],[-3.14521,-3.67254],[1.51706,1.77141]],[[583.91806,500.65874],[-2.06109,-0.8516],[0.97275,-0.37736]],[[586.18396,496.55072],[-0.10473,1.54633],[-0.32045,0.05949]],[[585.25139,496.65874],[0.30079,-0.01173],[0,0]],[584.25139,496.65874]],&quot;closed&quot;:true}],&quot;index&quot;:null}" fill="#744824" stroke="none" stroke-width="0.5" stroke-linecap="butt"/><path d="M367.58969,263.59797c0.00686,-0.73622 0.47499,-1.29827 0.55779,-1.74428c0.2305,-1.24168 0.30976,-1.58403 0.93584,-2.28161c0.25896,-0.28853 1.35398,-1.04858 1.6698,-1.48166c0.20439,-0.28027 1.32186,-0.16419 1.59783,-0.18957c0.80669,-0.07417 1.8438,0.11418 2.67066,0.0701c1.36556,-0.0728 2.7739,0.35305 3.8068,1.83677c1.22357,1.75762 1.17618,4.56956 1.96761,7.46052c0.04886,0.17848 0.28055,0.44825 0.28484,0.63083c0.0029,0.12349 1.05682,2.13525 2.46416,4.24748c0.91605,1.37487 2.10084,2.71201 2.83518,3.87391c0.82493,1.30524 0.44419,1.91366 0.442,2.00191c-0.0598,2.41929 -2.19619,2.24213 -4.6545,1.48251c-0.21872,-0.06758 0.27414,3.00858 0.05156,2.9332c-0.15233,-0.0516 -0.22813,1.10245 -0.9524,1.76452c-0.79874,0.73014 -2.25232,0.9729 -2.43411,0.85455c-0.92231,-0.60047 -1.00035,-0.36601 -2.16984,-0.96489c-0.22597,-0.11572 -0.98927,0.37029 -1.25305,0.22778c-0.13186,-0.07124 -1.37853,0.27391 -1.50858,0.19007c-0.1603,-0.10335 -0.28883,-0.07046 -0.47392,-0.09966c-0.55129,-0.08697 -1.13031,-0.26111 -1.47373,-0.45338c-0.07637,-0.04277 -0.31622,0.01661 -0.3703,-0.04286c-0.30066,-0.33072 0.50081,0.18416 0.29698,0.19502c-0.71492,0.03812 -1.96286,-1.91201 -2.20054,-2.82501c-0.71791,-2.75774 -2.00774,-5.1731 -2.11647,-9.32641c-0.0031,-0.11846 -0.37424,-3.23197 -0.27006,-5.34002c0.07995,-1.61789 0.29646,-3.01981 0.29646,-3.01981z" data-paper-data="{&quot;index&quot;:null}" fill="#fffd4d" stroke="#000000" stroke-width="0" stroke-linecap="butt"/><path d="M375.52101,257.71997c1.40208,0.23674 3.47429,1.38801 3.94616,2.85619c0.18207,0.03195 0.6868,3.72761 1.05322,5.37058c0.74626,2.4306 1.89695,4.58975 3.41418,6.60867c1.34949,1.9985 3.31892,3.33291 3.08361,5.98487c-0.47154,1.84716 -2.69304,2.08214 -4.50611,1.61221c0.02074,0.38906 0.04149,0.77812 0.06223,1.16718c0.13883,2.67101 -2.10241,5.17677 -4.80865,3.75599c-0.55283,-0.21383 -1.03062,-0.46317 -1.44914,-0.74502c-0.42827,0.2301 -0.86813,0.42778 -1.34411,0.54298c-0.03141,0.04359 -1.52709,0.32359 -2.73253,-0.14244c-1.40512,-0.54322 -2.57171,-1.9267 -2.96583,-3.20876c-1.19862,-2.19044 -1.70587,-5.82372 -1.8451,-8.30343c-0.40773,-3.1089 -0.79129,-6.5437 -0.12658,-9.61159c0.23879,-1.95396 1.1739,-4.32616 2.93536,-5.32751c0,0 0.21733,-0.12354 0.34089,0.0938c0.12354,0.21733 -0.09379,0.34089 -0.09379,0.34089c-1.61046,0.9155 -2.50804,3.17824 -2.68903,4.97363c-0.65278,3.03082 -0.26953,6.41334 0.13103,9.48479c0.12261,2.3418 0.47733,6.06585 1.68849,8.1c0.17888,0.58186 0.7815,1.60477 1.53985,2.25478c0.59001,0.50572 1.37734,0.72108 1.46778,0.7446c1.25214,0.32566 3.09361,-0.19434 3.24732,-0.27204c-1.47854,-1.20153 -2.13293,-2.88782 -2.9178,-4.8776c-0.58675,-2.09825 -1.02093,-3.91489 -0.83316,-6.11204c0,0 0.02213,-0.24902 0.27114,-0.22689c0.24901,0.02213 0.22689,0.27114 0.22689,0.27114c-0.19533,2.12714 0.24488,3.87886 0.8092,5.90885c0.77407,1.97034 1.38665,3.63633 2.91598,4.78131c0.04347,-0.02074 1.15312,0.69558 1.62976,0.87525c2.3639,1.26456 4.22916,-0.96663 4.10271,-3.27408c-0.02098,-0.39339 -0.0979,-1.06713 -0.04846,-1.21129c-0.54624,-0.20379 -1.17424,-0.65331 -1.50523,-0.95148c-1.58265,-1.77329 -4.06701,-3.494 -4.2121,-6.08766c0,0 -0.01331,-0.24965 0.23633,-0.26296c0.24964,-0.01331 0.26295,0.23633 0.26295,0.23633c0.12222,2.42759 2.59315,4.10562 4.06709,5.76146c1.08424,0.97205 5.231,1.90945 5.6487,-0.36849c0.21821,-2.45102 -1.74639,-3.76264 -2.99743,-5.61728c-1.54321,-2.08392 -2.72143,-4.2737 -3.48992,-6.77042c-0.35865,-1.62295 -0.62475,-3.31218 -0.99189,-5.01785c0,0 -0.53822,-1.21087 -0.89339,-1.55538c-0.81254,-0.78815 -1.84414,-1.14487 -2.71303,-1.28809c0,0 -0.50356,-0.06401 -0.46239,-0.31059c0.01688,-0.1011 0.54471,-0.18259 0.54471,-0.18259z" data-paper-data="{&quot;index&quot;:null}" fill="#000000" stroke="none" stroke-width="0.5" stroke-linecap="butt"/></g></g></svg>