<svg version="1.1" xmlns="http://www.w3.org/2000/svg" xmlns:xlink="http://www.w3.org/1999/xlink" width="308.12045" height="129.71359" viewBox="0,0,308.12045,129.71359"><g transform="translate(-87.94999,-17.63641)"><g data-paper-data="{&quot;isPaintingLayer&quot;:true}" fill="#9966ff" fill-rule="nonzero" stroke="none" stroke-linecap="butt" stroke-linejoin="miter" stroke-miterlimit="10" stroke-dasharray="" stroke-dashoffset="0" style="mix-blend-mode: normal"><path d="M287.94288,84.48919c2.39762,0.70812 1.68951,3.10573 1.68951,3.10573l-0.8504,2.87688c-0.37945,1.55171 -0.7589,3.10343 -1.13835,4.65515c-0.44055,2.48499 -0.0381,5.07498 0.39802,7.56077c1.42098,8.09936 4.13229,15.08143 7.65981,22.52305c1.95705,4.1286 3.46109,8.70464 7.0036,11.78986c2.83991,2.4733 10.43753,2.26627 13.86766,2.32894c2.57698,0.04708 5.15835,-0.40692 7.72908,-0.22135c1.24756,0.09006 2.55423,0.84407 3.72933,0.41551c1.26683,-0.46202 1.92717,-1.88662 2.89075,-2.82992c0,0 0.58243,-0.51856 1.38632,-0.65115c1.1985,-0.72167 2.52596,-1.28107 3.52281,-2.25646c2.28132,-2.23222 3.50714,-5.33618 5.37485,-7.9244c3.95485,-5.48056 7.31588,-10.69694 10.72371,-16.53098c8.93413,-15.29481 17.01949,-31.04566 25.2757,-46.72891c6.68929,-12.69827 10.97185,-27.59031 13.89057,-41.63592l-0.02439,-0.88162c0,0 0.05231,-2.49946 2.55175,-2.44715c2.49946,0.05231 2.44715,2.55175 2.44715,2.55175l-0.08052,1.80107c-3.05585,14.51124 -7.4528,29.8115 -14.3602,42.941c-8.2905,15.74837 -16.41135,31.56318 -25.38268,46.92167c-3.48297,5.96267 -6.94445,11.33344 -10.98654,16.9349c-0.42192,0.58469 -5.62941,8.27574 -5.93255,8.57234c-1.30696,1.27883 -3.04327,2.02796 -4.5649,3.04193c0,0 -0.37146,0.24291 -0.9037,0.36751c-1.34752,1.24532 -2.48289,2.85992 -4.19048,3.47852c-0.41031,0.14863 -6.44876,-0.24714 -8.10724,-0.19827c-4.85913,0.14319 -9.46883,0.06635 -14.30755,-0.58032c-2.92191,-0.3905 -5.24869,-0.5504 -7.61039,-2.51555c-4.32917,-3.60224 -6.12746,-8.6801 -8.46024,-13.60132c-4.7864,-10.09737 -10.19731,-21.85268 -8.43887,-33.22476c0.4033,-1.65255 0.80661,-3.30509 1.20992,-4.95763l0.88272,-2.99136c0,0 0.70812,-2.39762 3.10573,-1.68951z" stroke-width="0.5"/><text transform="translate(88.69999,141.6) scale(0.5,0.5)" font-size="40" xml:space="preserve" fill="#9966ff" fill-rule="nonzero" stroke="none" stroke-width="1" stroke-linecap="butt" stroke-linejoin="miter" stroke-miterlimit="10" stroke-dasharray="" stroke-dashoffset="0" font-family="Serif" font-weight="normal" text-anchor="start" style="mix-blend-mode: normal"><tspan x="0" dy="0">reset.test.hook.frame 3</tspan></text></g></g></svg>