<svg version="1.1" xmlns="http://www.w3.org/2000/svg" xmlns:xlink="http://www.w3.org/1999/xlink" width="123.81793" height="22.29606" viewBox="0,0,123.81793,22.29606"><g transform="translate(-263.98553,-259.24522)"><g data-paper-data="{&quot;isPaintingLayer&quot;:true}" fill-rule="nonzero" stroke-linecap="butt" stroke-linejoin="miter" stroke-miterlimit="10" stroke-dasharray="" stroke-dashoffset="0" style="mix-blend-mode: normal"><path d="M387.80346,275.14584c0,3.53211 -27.71757,6.39544 -61.90896,6.39544c-34.19139,0 -61.90897,-2.86334 -61.90897,-6.39544c0,-3.53211 27.71759,-6.39544 61.90897,-6.39544c34.19139,0 61.90896,2.86334 61.90896,6.39544z" fill-opacity="0.59608" fill="#000000" stroke="none" stroke-width="0"/><path d="M275.30717,273.63014c-1.96456,-0.20218 -3.5696,-1.61697 -4.05409,-3.48338c-0.14049,-0.44354 -0.20373,-0.924 -0.17938,-1.444c0.00957,-0.20441 0.0456,-0.39663 0.10434,-0.57841c0.25339,-1.4003 1.23955,-1.63897 2.00644,-2.3193c1.04995,-0.93143 2.10752,-2.13258 4.14417,-3.16515c6.54024,-3.31588 16.72544,-1.24346 19.93538,5.86776c1.18939,-0.09857 1.70977,0.19105 2.90195,0.11376c0.3002,-0.01946 1.48575,0.04905 1.82084,0.01699c1.54857,-0.1482 2.52417,-0.49019 3.90287,-0.49335c0,0 0.90033,-0.18413 1.51152,0.28455c0.3247,0.24899 0.42997,1.02679 0.57907,1.35483c0.7763,1.70787 -0.93157,2.48417 -0.93157,2.48417c-3.50054,1.53172 -31.74154,1.36155 -31.74154,1.36155z" data-paper-data="{&quot;index&quot;:null}" fill="#e26de1" stroke="#a32a7f" stroke-width="0.5"/><path d="M344.89287,270.66465c0,0 -1.70787,-0.7763 -0.93157,-2.48417c0.14911,-0.32803 0.25437,-1.10584 0.57907,-1.35483c0.61118,-0.46868 1.51152,-0.28455 1.51152,-0.28455c1.3787,0.00317 2.3543,0.34516 3.90287,0.49336c0.33508,0.03206 1.52063,-0.03645 1.82083,-0.01698c1.19218,0.07729 1.71256,-0.21233 2.90195,-0.11376c3.20993,-7.11122 13.39513,-9.18363 19.93538,-5.86776c2.03665,1.03257 3.09421,2.23372 4.14416,3.16516c0.76689,0.68033 1.75305,0.91899 2.00644,2.3193c0.05874,0.18178 0.09477,0.37401 0.10434,0.57841c0.02434,0.51999 -0.0389,1.00045 -0.17939,1.44399c-0.48449,1.86642 -2.08952,3.28121 -4.05408,3.48338c0,0 -28.241,0.17017 -31.74154,-1.36155z" data-paper-data="{&quot;index&quot;:null}" fill="#e26de1" stroke="#a32a7f" stroke-width="0.5"/></g></g></svg>