<svg version="1.1" xmlns="http://www.w3.org/2000/svg" xmlns:xlink="http://www.w3.org/1999/xlink" width="66.72881" height="62.60958" viewBox="0,0,66.72881,62.60958"><defs><linearGradient x1="310.34077" y1="181.02179" x2="373.27819" y2="181.02179" gradientUnits="userSpaceOnUse" id="color-1"><stop offset="0" stop-color="#6a0dd6"/><stop offset="1" stop-color="#440990"/></linearGradient></defs><g transform="translate(-310.34077,-150.88717)"><g data-paper-data="{&quot;isPaintingLayer&quot;:true}" fill-rule="nonzero" stroke-linejoin="miter" stroke-miterlimit="10" stroke-dasharray="" stroke-dashoffset="0" style="mix-blend-mode: normal"><path d="M334.62834,196.96062l-0.09608,-31.99828l25.434,16.62487z" fill="#ffffff" stroke="#8900ff" stroke-width="2" stroke-linecap="round"/><path d="M329.39649,194.87556l-0.37144,-31.99627l25.57614,16.40539z" fill="#ffffff" stroke="#8900ff" stroke-width="0" stroke-linecap="round"/><path d="M377.06958,183.36212c0,16.6429 -14.08902,30.13463 -31.46872,30.13463c-17.3797,0 -31.46871,-13.49174 -31.46871,-30.13462c0,-16.6429 14.08902,-30.13463 31.46871,-30.13463c17.3797,0 31.46872,13.49174 31.46872,30.13463z" fill="#35066b" stroke="none" stroke-width="0" stroke-linecap="butt"/><path d="M373.27819,181.02179c0,16.6429 -14.08901,30.13463 -31.46871,30.13463c-17.3797,0 -31.46871,-13.49174 -31.46871,-30.13463c0,-16.6429 14.08902,-30.13462 31.46871,-30.13462c17.3797,0 31.46871,13.49174 31.46871,30.13463z" fill="url(#color-1)" stroke="none" stroke-width="0" stroke-linecap="butt"/><g fill="#ffffff" stroke-width="0"><path d="M359.70856,176.27666c0,8.09704 -9.35362,14.66099 -20.8919,14.66099c-11.53829,0 -20.8919,-6.56395 -20.8919,-14.66099c0,-8.09704 9.35362,-14.66099 20.8919,-14.66099c11.53829,0 20.8919,6.56395 20.8919,14.66099z" stroke="none" stroke-linecap="butt"/><path d="M337.04432,185.52489l19.05284,-16.58676l3.56393,26.36243z" data-paper-data="{&quot;index&quot;:null}" stroke="#6400bb" stroke-linecap="round"/></g></g></g></svg>