<svg version="1.1" xmlns="http://www.w3.org/2000/svg" xmlns:xlink="http://www.w3.org/1999/xlink" width="176.13032" height="59.87364" viewBox="0,0,176.13032,59.87364"><g transform="translate(-233.70799,-252.43922)"><g data-paper-data="{&quot;isPaintingLayer&quot;:true}" fill-rule="nonzero" stroke-linejoin="miter" stroke-miterlimit="10" stroke-dasharray="" stroke-dashoffset="0" style="mix-blend-mode: normal"><path d="M404.87491,295.93511c-0.29946,0.08951 -1.94769,0.84407 -2.09045,0.60675c-0.15526,0.01369 -0.03934,0.67286 0.14368,1.08574c0.30774,0.69424 0.46796,1.35061 0.86113,2.00422c0.93385,1.55246 1.92256,3.85797 0.07419,4.96985c-0.88047,0.5039 -2.09769,1.11813 -3.08655,0.4477c-0.20335,-0.13787 -1.0461,-0.73879 -1.50797,-1.16646c0.02628,0.04288 0.05227,0.08563 0.07792,0.12829c0,0 0.10294,0.17113 -0.06807,0.27415c0.08447,0.5397 0.18595,1.08437 0.22668,1.67483c-0.3269,1.34518 -1.06891,1.96836 -2.69697,2.2577c-0.7043,0.12517 -1.41041,-0.01966 -1.92056,-0.34349c-1.75244,-1.49413 -3.12045,-3.607 -4.30106,-5.56965c0,0 -0.20611,-0.34264 -0.34982,-0.65453c-0.26715,0.78113 -0.86826,1.54148 -1.25274,2.0966c-0.18337,0.15665 -0.20181,0.44044 -0.33648,0.6405c-0.156,0.23175 -0.48708,0.28668 -0.68272,0.48609c-1.02773,1.04753 -2.55593,2.31162 -4.06203,2.5837c-0.62757,0.11337 -1.43667,-0.19738 -2.04161,-0.35022c-0.78584,-0.23447 -1.12477,-1.21912 -1.53749,-1.90523c-1.03004,-1.71233 -2.06009,-3.42468 -3.09013,-5.137c-1.44207,-2.39728 -2.88417,-4.79455 -4.32621,-7.19187c-1.43336,-2.38672 -2.50799,-4.94483 -3.95749,-7.35449c-1.44206,-2.39727 -2.88412,-4.79452 -4.32617,-7.1918c-0.90283,-1.50093 -1.71082,-3.00709 -2.49045,-4.55927c-0.33417,-0.66529 -0.46758,-1.59743 0.16082,-2.02788c0,0 0.07797,-0.0469 0.16035,-0.02479c0.26931,-0.50713 0.53701,-1.04563 0.86858,-1.44574c0.26966,-0.3254 0.71693,-0.41126 1.01565,-0.68555c0.89242,-0.81943 1.93084,-1.4016 2.98262,-2.03434c2.39725,-1.4421 4.79453,-2.88412 7.1918,-4.32618c1.79844,-1.08183 3.59715,-2.42028 5.49808,-3.30602c0.60359,-0.28125 1.27222,-0.36141 1.85931,-0.68237c2.63089,-1.3895 5.25186,-1.52754 8.21459,-1.58924c1.09278,1.20811 1.94283,2.62316 2.77864,4.02993c0.16951,0.2853 0.8639,1.225 1.27314,1.18444c0.34679,-0.03437 0.98087,-0.60093 1.28798,-0.78567c0.91519,-0.55052 2.06771,-0.90203 3.07972,-0.88532c0.95601,0.01579 2.08931,0.55059 3.11126,0.62131c0.67804,0.04693 1.48099,-0.11544 1.986,0.3233c1.42468,0.95001 2.27274,2.16932 3.14461,3.61873c0.26994,0.44876 0.78445,1.00504 0.67658,1.56954c-0.13648,0.71421 -0.73883,1.26848 -1.30781,1.61796c-0.56921,0.33178 -0.88765,0.94132 -1.44288,1.31473c-1.23225,0.82875 -2.75131,1.99544 -4.14324,2.50794c-0.48853,0.17988 -1.01087,0.23138 -1.4909,0.45433c-0.62403,0.24926 0.17575,1.34082 0.42121,1.74957c1.02873,1.71307 2.05981,3.42472 3.08983,5.137c0.8659,1.43947 2.04662,2.92925 2.6912,4.4779c0.30801,0.74003 0.56843,1.26482 0.58292,2.05809c0.04129,0.0097 1.95128,4.14182 2.02042,4.94393c0.15348,2.02893 -0.70744,3.98006 -2.96909,4.35232zM401.57193,293.75082c0.45898,0.76302 0.93043,1.54674 1.39702,2.32241c0.61475,-0.19805 1.18809,-0.34125 1.81675,-0.52766c2.06428,-0.3307 2.56705,-2.29987 2.41973,-4.13702c-0.05614,-0.8224 -2.18409,-5.55526 -2.59028,-6.51891c-0.6449,-1.52997 -1.55086,-3.15559 -2.40814,-4.58075c-1.09884,-1.82672 -2.20732,-3.64801 -3.29614,-5.48072c-0.40476,-0.68128 -0.82061,-1.46617 -0.05349,-1.96814c0.50005,-0.22707 1.02836,-0.29208 1.53545,-0.47368c1.36293,-0.48806 2.84683,-1.6662 4.05816,-2.4649c0.56378,-0.37173 0.88074,-0.96786 1.45684,-1.32362c0.50489,-0.31012 0.97574,-0.73344 1.12427,-1.35837c0.09311,-0.39173 -0.44169,-0.97215 -0.62787,-1.28163c-0.85083,-1.41441 -1.66629,-2.58168 -3.05172,-3.5126c-0.34095,-0.36688 -1.22997,-0.19844 -1.76454,-0.23679c-2.24932,-0.16137 -3.86926,-1.04797 -5.95686,0.20782c-0.35706,0.2148 -1.0497,0.81614 -1.46396,0.84173c-0.52092,0.0322 -0.78867,-0.46836 -1.08451,-0.7633c-1.22251,-1.21879 -2.13639,-3.05868 -3.15528,-4.48251c-0.75411,0.09662 -1.5269,-0.10216 -2.29091,-0.02686c-1.91767,0.18902 -3.93493,0.67697 -5.57486,1.60015c-0.59786,0.32312 -1.26981,0.40854 -1.88137,0.69348c-1.88762,0.87953 -3.67481,2.21186 -5.46085,3.28624c-2.39726,1.44206 -4.79456,2.88408 -7.1918,4.32618c-1.03022,0.61977 -2.0406,1.19351 -2.91962,1.98742c-0.27952,0.25245 -0.73197,0.3455 -0.97621,0.64414c-0.46413,0.56753 -0.80122,1.41174 -1.20216,2.04337c0,0 -0.06995,0.11019 -0.18583,0.09593c0.00813,0.32199 0.12736,0.69415 0.24597,0.92369c0.79296,1.53453 1.5784,3.04105 2.47675,4.53456c1.44205,2.39728 2.88412,4.79453 4.32617,7.1918c1.44937,2.40942 2.52461,4.96858 3.95757,7.35461c1.44202,2.39727 2.88408,4.79449 4.32612,7.19173c1.03004,1.71233 2.06009,3.42468 3.09013,5.137c0.31744,0.5277 0.68828,1.5924 1.29519,1.72433c0.55095,0.13919 1.3033,0.43656 1.87315,0.34334c1.42068,-0.23238 2.87686,-1.49998 3.84631,-2.4711c0.17888,-0.17917 0.49851,-0.20672 0.63134,-0.42225c0.13664,-0.22172 0.18306,-0.50776 0.37185,-0.68718c0.46369,-0.66064 1.37267,-1.74835 1.28525,-2.67523c-0.15305,-1.6227 -1.37984,-3.19345 -2.20014,-4.55719c-1.44205,-2.39728 -2.88412,-4.79453 -4.32617,-7.1918c-0.41201,-0.68493 -1.00804,-1.67577 -1.42005,-2.36069c0,0 -0.103,-0.17123 0.06822,-0.27423c0.17123,-0.10299 0.27423,0.06823 0.27423,0.06823l0.18401,0.3059c0.41201,0.68493 0.82404,1.36987 1.23604,2.05479c1.44206,2.39727 2.88413,4.79454 4.32616,7.19182c0.84602,1.40649 2.12457,3.04656 2.2559,4.72934c0.01277,0.16348 0.00122,0.32912 -0.02936,0.49518c0.23669,0.24091 0.55349,0.76756 0.55349,0.76756c1.15575,1.92131 2.52423,4.04995 4.23361,5.51654c0.30045,0.19072 1.1813,0.52407 1.59224,0.39622c1.44828,-0.45055 2.05881,-0.7262 2.38944,-2.02215c-0.06224,-0.70012 -0.19743,-1.34697 -0.2774,-1.99436c-1.10877,-1.77426 -2.67408,-3.73256 -3.12333,-5.74115c-1.19469,-2.27954 -2.54212,-4.66177 -3.27589,-7.12343c-0.8493,-2.47286 -2.4035,-4.68296 -3.75812,-6.93487c-0.238,-0.4066 -0.25053,-0.64002 -0.28632,-1.09854l-0.02609,-0.33418c0,0 -0.01555,-0.19922 0.18367,-0.21478c0.19922,-0.01556 0.21477,0.18366 0.21477,0.18366l0.02609,0.33418c0.03107,0.39792 0.0162,0.57949 0.23035,0.92363c1.37093,2.27904 2.93723,4.51593 3.79636,7.01929c0.7221,2.46191 2.09684,4.82148 3.27074,7.10837c0.3915,1.75443 1.65109,3.47237 2.69523,5.05848c0.0938,-0.05258 0.21305,-0.02143 0.26886,0.07137l0.09637,0.16019c1.60226,1.03152 2.5747,2.17514 4.51497,0.91428c1.60809,-0.96733 0.60559,-3.06444 -0.21065,-4.42138c-0.44556,-0.74069 -1.16492,-2.01861 -1.23078,-2.86243c-0.0084,-0.10771 -0.22118,-0.6502 -0.20186,-0.67235c0.04578,-0.05251 0.31146,-0.09715 0.54435,-0.13681c-0.44302,-0.73648 -0.88605,-1.47295 -1.32906,-2.20942c-0.92755,-1.54196 -2.34004,-3.23177 -2.95355,-4.91789c-0.25727,-0.70706 -0.48399,-1.37832 -0.88511,-2.04513c-1.17916,-1.96022 -2.23676,-4.0092 -3.42592,-5.98604c0,0 -0.103,-0.17123 0.06822,-0.27424c0.17123,-0.10299 0.27423,0.06823 0.27423,0.06823c1.1891,1.97675 2.24687,4.02599 3.42592,5.98604c0.41465,0.6893 0.66045,1.38298 0.91953,2.11819c0.58183,1.65109 2.01296,3.33839 2.91915,4.84484z" data-paper-data="{&quot;index&quot;:null}" fill="#ff7979" stroke="#ff7979" stroke-width="4" stroke-linecap="butt"/><path d="M402.98167,296.08862c-0.46659,-0.77567 -0.96388,-1.58986 -1.42287,-2.35288c-0.9062,-1.50645 -2.3388,-3.19233 -2.92061,-4.84343c-0.25909,-0.73521 -0.50646,-1.42699 -0.92109,-2.11629c-1.17905,-1.96006 -2.23785,-3.98737 -3.42695,-5.96412c0,0 -0.10227,-0.17008 -0.2735,-0.06706c-0.17124,0.103 -0.03458,0.25273 -0.03458,0.25273c1.18915,1.97685 2.2451,4.04854 3.42426,6.00876c0.40112,0.66681 0.62635,1.33971 0.88364,2.04677c0.61352,1.68612 2.02466,3.37715 2.95222,4.91912c0.44302,0.73648 0.88571,1.47322 1.32872,2.2097c-0.23289,0.03966 -0.49902,0.08466 -0.54481,0.13717c-0.01932,0.02215 0.19324,0.56481 0.20164,0.67252c0.06585,0.84382 0.78469,2.1221 1.23025,2.86279c0.81626,1.35693 1.81718,3.45502 0.20909,4.42234c-1.94028,1.26087 -2.91562,0.11855 -4.51788,-0.91297l-0.0964,-0.1602c-0.05582,-0.09278 -0.17526,-0.12386 -0.26906,-0.07128c-1.04415,-1.58611 -2.30479,-3.30372 -2.69629,-5.05814c-1.1739,-2.2869 -2.5514,-4.64591 -3.27351,-7.10782c-0.85913,-2.50335 -2.44529,-4.74989 -3.81624,-7.02893c-0.21416,-0.34415 -0.20158,-0.53157 -0.23265,-0.92949l-0.02645,-0.33645c0,0 0.0243,-0.20201 -0.17492,-0.18645c-0.19923,0.01555 -0.18375,0.21352 -0.18375,0.21352l0.02579,0.3322c0.0358,0.45854 0.04595,0.68576 0.28395,1.09238c1.35462,2.2519 2.88984,4.45226 3.73915,6.92511c0.73377,2.46166 2.07801,4.84444 3.27269,7.12398c0.44926,2.00858 2.0132,3.96729 3.12198,5.74153c0.07996,0.64739 0.22749,1.33225 0.28972,2.03238c-0.33063,1.29595 -0.94331,1.57215 -2.39159,2.02271c-0.41094,0.12785 -1.29295,-0.20531 -1.59339,-0.39603c-1.70938,-1.46659 -3.08136,-3.59506 -4.23712,-5.51638c0,0 -0.31743,-0.52668 -0.55411,-0.7676c0.03058,-0.16606 0.04211,-0.3317 0.02936,-0.49518c-0.13133,-1.68278 -1.4135,-3.32346 -2.25952,-4.72994c-1.44205,-2.39728 -2.89451,-4.80118 -4.33657,-7.19845c-0.41201,-0.68493 -0.82659,-1.37383 -1.23859,-2.05876l-0.1843,-0.30652c0,0 -0.06634,-0.18713 -0.23757,-0.08411c-0.17123,0.103 -0.0684,0.27384 -0.0684,0.27384c0.41201,0.68493 1.00532,1.67133 1.41732,2.35626c1.44205,2.39726 2.87402,4.7879 4.31605,7.18518c0.82031,1.36372 2.04354,2.93382 2.19659,4.55651c0.08742,0.9269 -0.82618,2.05429 -1.28987,2.71493c-0.18879,0.17943 -0.23543,0.46544 -0.37208,0.68715c-0.13284,0.21553 -0.45297,0.243 -0.63183,0.42217c-0.96945,0.97113 -2.42814,2.23808 -3.84882,2.47047c-0.56984,0.09322 -1.32356,-0.20463 -1.87451,-0.34383c-0.60692,-0.13192 -0.9791,-1.1972 -1.29654,-1.72492c-1.03004,-1.71233 -2.06388,-3.42708 -3.09392,-5.13941c-1.44205,-2.39724 -2.88902,-4.80029 -4.33104,-7.19755c-1.43297,-2.38603 -2.51056,-4.95233 -3.95995,-7.36175c-1.44207,-2.39728 -2.88405,-4.80028 -4.3261,-7.19755c-0.89835,-1.4935 -1.68318,-3.00265 -2.47615,-4.53718c-0.11862,-0.22955 -0.23768,-0.60218 -0.24581,-0.92417c0.11588,0.01425 0.18587,-0.09602 0.18587,-0.09602c0.40095,-0.63163 0.73856,-1.47727 1.2027,-2.0448c0.24423,-0.29863 0.69695,-0.39227 0.97647,-0.64472c0.87901,-0.7939 1.89042,-1.36956 2.92063,-1.98933c2.39724,-1.4421 4.79828,-2.88869 7.19555,-4.33075c1.78604,-1.07438 3.5774,-2.40959 5.46502,-3.28912c0.61156,-0.28494 1.28496,-0.37105 1.88282,-0.69417c1.63992,-0.92317 3.66168,-1.41242 5.57935,-1.60144c0.76401,-0.0753 1.53864,0.12326 2.29275,0.02663c1.0189,1.42382 1.93563,3.26371 3.15814,4.48251c0.29584,0.29494 0.56475,0.79562 1.08568,0.76342c0.41426,-0.0256 1.1082,-0.62672 1.46526,-0.84151c2.0876,-1.25578 3.71248,-0.36753 5.96179,-0.20615c0.53456,0.03835 1.42487,-0.1294 1.76582,0.23748c1.38542,0.93091 2.20411,2.10054 3.05495,3.51495c0.18617,0.30949 0.72187,0.89076 0.62876,1.28249c-0.14853,0.62494 -0.648,1.07616 -1.15289,1.38628c-0.5761,0.35575 -0.89301,0.95193 -1.45679,1.32366c-1.21133,0.79869 -2.69407,1.97793 -4.057,2.46601c-0.50709,0.18159 -1.03431,0.24749 -1.53435,0.47456c-0.76711,0.50197 -0.32535,1.25652 0.0794,1.93781c1.08882,1.83271 2.20306,3.66457 3.3019,5.49129c0.8573,1.42515 1.76324,3.05843 2.40814,4.5884c0.4062,0.96365 2.53181,5.70274 2.58795,6.52514c0.14732,1.83714 -0.35862,3.81043 -2.4229,4.14114c-0.62865,0.18643 -1.20339,0.33087 -1.81813,0.52891z" data-paper-data="{&quot;noHover&quot;:false,&quot;origItem&quot;:[&quot;Path&quot;,{&quot;applyMatrix&quot;:true,&quot;segments&quot;:[[[309.99917,327.5992],[0,-1.97231],[0,3.89397]],[[309.99013,340.12791],[-0.78081,-3.79816],[0.34768,1.69127]],[[310.66326,345.19821],[0,-1.78174],[0,5.06646]],[[310.9953,360.47159],[0,-5.10963],[0,0]],[[310.55268,360.91421],[0.44262,0],[-0.44262,0]],[[310.11007,360.47159],[0,0],[0,-5.10988]],[[309.77803,345.19821],[0,5.0669],[0,-1.72363]],[[309.12297,340.30586],[0.31897,1.63582],[-0.76063,-3.90084]],[[309.11394,327.5992],[0,3.98577],[0,-1.90369]],[[309.11394,321.88814],[0,1.90369],[-0.48734,0.19062]],[[307.92453,322.24998],[0.14685,0.04738],[-0.06197,-0.01999]],[[307.54,320.74335],[0.10702,0.21403],[-0.83845,-1.6768]],[[306.60789,313.90507],[0,1.91459],[0,-3.5075]],[[301.95958,305.27256],[4.1567,0],[-5.12235,-0.17786]],[[294.4338,312.1629],[1.86342,-3.78725],[0,0]],[[294.4338,312.577],[0,0],[0,0.23984]],[[294.00497,313.0194],[0.23807,-0.00729],[-0.17088,4.20267]],[[294.66483,325.69793],[-1.26004,-3.77698],[0.38296,5.68096]],[[296.57284,342.92437],[-1.4403,-5.49728],[1.22755,5.73241]],[[297.38148,360.58183],[0,-5.89102],[-0.01354,0.89772]],[[297.99884,362.59796],[-0.39537,-0.79074],[0,0]],[298.33088,363.26205],[[298.13294,363.85588],[0.39589,-0.19794],[-0.39589,0.19794]],[297.53911,363.65793],[[297.20707,362.99384],[0,0],[-0.4556,-0.9112]],[[296.49625,360.58183],[0.0125,1.04349],[0,-5.82087]],[[295.71141,343.12825],[1.21137,5.66329],[-1.41789,-5.51013]],[[293.79597,325.86736],[0.33511,5.69073],[-1.44058,-4.32533]],[[293.16924,311.40429],[-0.07875,4.63358],[-0.58739,-1.32007]],[[291.41867,307.30219],[0.68123,1.39993],[-2.10722,-2.0823]],[[284.57458,306.19219],[3.26334,-0.79841],[-0.92596,0.22654]],[[282.00481,308.76218],[0.35251,-0.70502],[-1.56999,4.73536]],[[280.26775,324.06663],[0,-4.96636],[0,0]],[[280.09358,326.15544],[0.17417,-0.7275],[0.24764,0.28028]],[[280.71469,327.06181],[-0.16243,-0.32485],[1.67205,3.34395]],[[281.83265,338.61404],[-0.00007,-3.63553],[0.00004,6.19661]],[[281.83266,357.20388],[0,-6.19661],[0,1.77046]],[[281.83266,362.51526],[0,-1.77046],[0,0]],[281.83266,363.30595],[[281.39004,363.74857],[0.44262,0],[-0.44262,0]],[[280.94743,363.30595],[0,0],[0,-1.77046]],[[280.94743,357.20388],[0,1.77046],[0,-6.19661]],[[280.94742,338.61405],[0.00004,6.19661],[-0.00007,-3.52504]],[[279.92022,327.45226],[1.56223,3.25469],[-0.89236,-1.8591]],[[274.42628,323.84197],[1.6344,0.7245],[-0.56318,-0.12499]],[[272.93591,322.96223],[0.51252,0.26481],[-0.49822,-0.25742]],[[271.25549,322.88162],[0.54408,0.13587],[-2.94885,-0.73636]],[[261.1336,322.5829],[2.96186,-1.18098],[-1.18802,0.4737]],[[257.97028,325.37326],[0.8868,-0.89325],[-1.00133,0.94335]],[[257.48071,330.12493],[0,-1.36406],[0,4.42615]],[[257.48071,343.40339],[0,-4.42615],[0,6.19656]],[[257.48072,361.99306],[-0.00008,-6.19656],[0.00443,6.1649]],[[258.36623,380.47106],[0,-6.22805],[0,6.19661]],[[258.36624,399.06089],[-0.00004,-6.19661],[0.0001,3.86045]],[[258.84261,410.49555],[-0.24699,-3.81799],[0.03695,0.57111]],[[259.43036,412.52956],[-0.3522,-0.62042],[0.20369,-0.15935]],[[259.89261,412.49949],[0,0],[1.48219,0.74109]],[[264.5074,415.00535],[-1.52893,-0.54728],[0.80453,0.28798]],[[267.09574,415.11335],[-0.81879,-0.16003],[2.57486,0.50326]],[[274.90648,415.55208],[-2.66302,-0.00008],[6.19661,0.00011]],[[293.49631,415.5521],[-6.19661,0],[4.61667,0]],[[307.61337,415.55456],[-4.587,0.4858],[1.48609,-0.15739]],[[311.97607,414.72277],[-1.50368,0.0693],[4.16668,-0.12015]],[[324.3844,411.3948],[-3.85565,1.83075],[1.53611,-0.72938]],[[328.70202,408.72817],[-1.54168,0.67762],[0.30825,-3.86584]],[[329.57298,396.61758],[-0.92882,3.70913],[0.22476,-0.89756]],[[330.75993,393.93056],[-1.02549,0.53366],[0.81551,-0.42439]],[[334.49963,393.85672],[-0.92294,0],[5.39617,0]],[[346.04333,387.44988],[-4.08507,2.87447],[0.97085,-0.68314]],[[349.12216,384.98577],[-0.22825,1.08562],[1.56673,-3.34874]],[[350.90394,374.83439],[0,3.65605],[0,-0.8]],[[350.63235,371.6849],[0.62397,0.63722],[-0.99545,-1.01659]],[[346.94748,370.39028],[1.31238,0.01216],[-1.49966,-0.01748]],[[342.67108,369.54134],[1.49452,0.06186],[-3.21107,-0.13292]],[[332.15417,369.49627],[3.14415,-0.62976],[-1.16981,0.23431]],[[328.69901,370.35033],[1.20837,-0.13995],[-2.02915,-0.07692]],[[326.55341,366.55361],[0.00962,1.75524],[-0.02587,-4.72172]],[[326.55199,352.38756],[0,4.7218],[0,-3.68385]],[[325.89266,340.94356],[0.52279,3.64027],[-0.32928,-2.29282]],[[323.36613,325.61288],[0.83243,1.62505],[-1.81794,-3.6552]],[[314.04989,320.52336],[4.29569,-1.7292],[-1.40606,0.36394]],[[309.99917,321.59611],[1.39293,-0.326],[0,2.005]]],&quot;closed&quot;:true}],&quot;index&quot;:null}" fill="#ff0c00" stroke="none" stroke-width="0.5" stroke-linecap="butt"/><path d="M378.15461,266.55161c0.17123,-0.103 0.27423,0.06824 0.27423,0.06824l0.18036,0.29981c0.64583,1.07363 1.31336,2.17124 1.66814,3.36509c0.30917,1.04044 0.26797,2.20804 0.61786,3.22455c0.28488,1.43653 -0.34294,3.25159 -0.89803,4.60112c-0.17108,0.41592 -1.00452,1.46983 -0.73057,1.82569c0,0 0.103,0.17123 -0.06823,0.27424c-0.17123,0.10299 -0.27424,-0.06823 -0.27424,-0.06823c-0.36387,-0.69616 0.4291,-1.51442 0.70459,-2.18653c0.51703,-1.26146 1.14381,-3.00355 0.88043,-4.34288c-0.34299,-1.01579 -0.2937,-2.1741 -0.61241,-3.20602c-0.35951,-1.16398 -0.99722,-2.22908 -1.63002,-3.28105l-0.18036,-0.29982c0,0 -0.10299,-0.17123 0.06824,-0.27424z" data-paper-data="{&quot;index&quot;:null}" fill="#000000" stroke="#000000" stroke-width="1.5" stroke-linecap="butt"/><path d="M381.70061,265.10919c-0.38493,-0.63992 0.1198,-0.78585 0.43507,-0.26172c1.05947,1.76126 2.13726,3.51338 3.17329,5.28844c0.45072,0.31941 0.49074,0.66173 0.84768,1.02923c1.23148,1.26792 3.0685,2.50297 4.48926,3.40317c0.5951,0.37706 1.00603,0.87689 1.68004,1.08277c0,0 0.25948,0.08312 0.21132,0.35131c-0.04816,0.26818 -0.30764,0.18506 -0.30764,0.18506c-1.59873,-0.53127 -2.9724,-2.00113 -4.35122,-3.0676c-0.67642,-0.5232 -1.48,-0.95735 -2.07904,-1.58857c-0.3982,-0.41958 -0.35545,-0.67944 -0.84517,-1.0265c-1.10129,-1.78798 -2.17113,-3.59611 -3.2536,-5.39559z" data-paper-data="{&quot;index&quot;:null}" fill="#000000" stroke="#000000" stroke-width="1.5" stroke-linecap="butt"/><path d="M367.5054,265.50792c1.28762,-1.56141 4.43477,-3.16386 6.01749,-3.47863c1.74581,-0.73937 3.28593,-1.87358 4.98356,-2.69789c1.50613,-0.73132 3.36773,-1.02606 4.67989,-2.12876c0.58769,-0.49389 -0.29397,-2.35956 -0.56933,-2.81393c-1.02729,-1.70775 -2.06284,-0.99209 -3.89071,-0.47851c-3.26649,0.91779 -5.7884,3.32187 -8.9671,4.57825c-1.56005,0.94242 -3.52048,1.87035 -4.54438,3.45924c-0.1595,0.24752 0.43502,0.93218 0.53121,1.09209c0.56008,0.93108 1.17643,1.65767 1.75937,2.46816zM368.03234,266.28985c0.03001,0.04821 0.05984,0.09692 0.08947,0.14618c0,0 0.23272,0.38687 -0.15415,0.61959c-0.38687,0.23272 -0.61959,-0.15414 -0.61959,-0.15414c-0.01493,-0.02481 -0.03016,-0.04963 -0.0457,-0.07447c-0.10171,-0.01606 -0.21008,-0.07413 -0.29697,-0.21857c-0.0701,-0.11654 -0.08398,-0.21908 -0.06916,-0.30549c-0.91298,-1.19935 -2.28737,-2.43887 -2.60278,-3.89728c-0.43268,-2.00078 3.66715,-3.91267 5.0257,-4.72671c3.23191,-1.27741 5.7942,-3.68454 9.11767,-4.63656c2.16948,-0.62144 3.61645,-1.27598 4.9139,0.88087c0.52058,0.87111 1.37039,2.95986 0.46529,3.88502c-0.98931,1.01123 -2.45839,1.18633 -3.67053,1.72746c-2.19467,0.97976 -4.17538,2.42319 -6.39991,3.35743c-1.40625,0.26479 -4.86365,1.95574 -5.75323,3.39667z" data-paper-data="{&quot;index&quot;:null}" fill="#ff7979" stroke="none" stroke-width="0.5" stroke-linecap="butt"/><path d="M373.50993,262.07253c-1.58273,0.31477 -4.75001,1.90468 -6.03763,3.46609c-0.58293,-0.8105 -1.20729,-1.54913 -1.76738,-2.4802c-0.09619,-0.15991 -0.69275,-0.84992 -0.53323,-1.09744c1.02391,-1.58889 2.98275,-2.53618 4.5428,-3.4786c3.1787,-1.25638 5.7742,-3.6891 9.04069,-4.6069c1.82787,-0.51358 2.87369,-1.21704 3.90098,0.49072c0.27536,0.45436 1.162,2.33293 0.5743,2.82682c-1.31214,1.10271 -3.17277,1.40938 -4.6789,2.14072c-1.69763,0.82431 -3.29581,1.99943 -5.04163,2.7388z" data-paper-data="{&quot;noHover&quot;:false,&quot;origItem&quot;:[&quot;Path&quot;,{&quot;applyMatrix&quot;:true,&quot;segments&quot;:[[[794.20759,376.99454],[-3.23945,-3.09864],[1.07083,-1.93478]],[[797.43376,371.10676],[-0.98912,2.19405],[0.16988,-0.37682]],[[798.31738,368.56609],[0.41539,0.50283],[-2.66655,-3.22786]],[[787.41944,362.14236],[3.67723,1.66609],[-7.31947,-1.9345]],[[766.50153,354.41073],[7.42429,1.16688],[-4.1545,-0.65297]],[[758.06837,356.47796],[1.81422,-4.02427],[-0.48718,1.07124]],[[757.54994,362.81592],[-1.42149,-0.93308],[3.17378,2.0833]],[[768.39894,366.2778],[-3.50361,-1.21582],[3.94906,1.3704]],[[780.06435,370.91235],[-4.0329,-1.171],[3.56343,0.27958]]],&quot;closed&quot;:true}],&quot;index&quot;:null}" fill="#ff0c00" stroke="none" stroke-width="0.5" stroke-linecap="butt"/><path d="M402.8172,296.61038l-8.61205,-15.60389" data-paper-data="{&quot;index&quot;:null}" fill="none" stroke="#ff7979" stroke-width="1.5" stroke-linecap="round"/><path d="M399.31785,304.95308l-10.87311,-22.2843" data-paper-data="{&quot;index&quot;:null}" fill="none" stroke="#ff7979" stroke-width="1.5" stroke-linecap="round"/><path d="M381.72638,285.67316c0,0 5.51072,8.93857 7.04489,11.79137c0.85379,1.58764 1.38488,3.88386 1.38488,3.88386" data-paper-data="{&quot;index&quot;:null}" fill="none" stroke="#ff7979" stroke-width="1" stroke-linecap="round"/><g><path d="M240.57887,298.66258c-2.29804,-0.18421 -3.32395,-2.068 -3.33959,-4.11451c0.00231,-0.80976 1.57163,-5.11108 1.6122,-5.12426c-0.05174,-0.79633 0.16546,-1.34411 0.41238,-2.1116c0.51673,-1.60611 1.57577,-3.19802 2.32346,-4.71318c0.8894,-1.80234 1.77992,-3.60411 2.66797,-5.40712c0.2119,-0.43022 0.92237,-1.59113 0.27606,-1.78885c-0.49977,-0.18337 -1.02764,-0.19137 -1.53234,-0.33087c-1.438,-0.39744 -3.05807,-1.43997 -4.36243,-2.16773c-0.58772,-0.32791 -0.95782,-0.91227 -1.55608,-1.19729c-0.59949,-0.30277 -1.24955,-0.80802 -1.44601,-1.5125c-0.15528,-0.55682 0.31396,-1.15738 0.54705,-1.62973c0.75284,-1.52562 1.50105,-2.81863 2.84971,-3.88986c0.46956,-0.48195 1.28794,-0.38627 1.96364,-0.48995c1.01844,-0.15625 2.10971,-0.78698 3.06664,-0.88265c1.01299,-0.10129 2.19756,0.15479 3.16088,0.63016c0.32326,0.15953 1.00615,0.67444 1.35662,0.67992c0.41359,0.00647 1.03111,-0.99343 1.17719,-1.29356c0.72026,-1.47988 1.45411,-2.96925 2.44853,-4.27147c2.97481,-0.18562 5.61345,-0.26618 8.36657,0.90682c0.61529,0.27267 1.29217,0.29717 1.92067,0.52866c1.97936,0.72903 3.89409,1.92038 5.7871,2.85452c2.52334,1.24519 5.04668,2.49036 7.57001,3.7356c1.10711,0.54637 2.1966,1.04315 3.15954,1.78996c0.32232,0.24998 0.77781,0.29868 1.07528,0.60232c0.36577,0.37337 0.67907,0.89075 0.99137,1.37657c0.08072,-0.02904 0.16279,0.01146 0.16279,0.01146c0.66582,0.37897 0.60995,1.32444 0.33057,2.0192c-0.6518,1.62094 -1.33588,3.19812 -2.11545,4.77797c-1.24518,2.52335 -2.49039,5.04667 -3.73559,7.57001c-1.25163,2.53638 -2.11509,5.19025 -3.35245,7.70227c-1.24516,2.52337 -2.49041,5.04672 -3.73561,7.57007c-0.88943,1.80238 -1.77886,3.60477 -2.66828,5.40715c-0.35638,0.72218 -0.61385,1.73746 -1.38194,2.03811c-0.59359,0.20373 -1.37862,0.5828 -2.01713,0.52158c-1.53237,-0.14691 -3.16974,-1.28631 -4.28737,-2.25045c-0.21276,-0.18354 -0.54919,-0.21094 -0.72492,-0.4302c-0.1517,-0.18928 -0.19388,-0.47219 -0.39077,-0.6139c-0.43174,-0.52429 -1.09778,-1.23623 -1.43079,-1.99686c-0.118,0.32463 -0.29597,0.68528 -0.29597,0.68528c-1.01944,2.06586 -2.21416,4.29795 -3.84591,5.94197c-0.4843,0.3672 -1.17996,0.57135 -1.89637,0.50472c-1.65605,-0.15403 -2.45183,-0.71669 -2.89186,-2.03772c-0.00849,-0.59525 0.04773,-1.14968 0.08731,-1.69769c-0.18002,-0.08897 -0.09113,-0.2691 -0.09113,-0.2691c0.02215,-0.04489 0.04463,-0.08993 0.06739,-0.1351c-0.42723,0.46725 -1.22176,1.13997 -1.41407,1.29515c-0.93516,0.75459 -2.20655,0.2406 -3.13117,-0.19093c-1.94558,-0.96009 -1.14713,-3.35361 -0.34076,-4.9877c0.3395,-0.68798 0.44527,-1.35927 0.69574,-2.08084c0.14896,-0.42914 0.2101,-1.09953 0.05333,-1.10029c-0.12327,0.2498 -1.83839,-0.36885 -2.14602,-0.43355zM243.70715,296.19727c0.78248,-1.58568 2.07602,-3.39646 2.5213,-5.10001c0.19828,-0.75857 0.38673,-1.4744 0.74476,-2.19996c1.0181,-2.06313 1.90716,-4.20553 2.93394,-6.28623c0,0 0.08894,-0.18024 0.26918,-0.0913c0.18024,0.08895 0.09129,0.26919 0.09129,0.26919c-1.02682,2.0808 -1.91575,4.22292 -2.93394,6.28623c-0.34636,0.70188 -0.51754,1.39364 -0.71636,2.12385c-0.47413,1.74131 -1.74876,3.55307 -2.54968,5.17611c-0.38254,0.7752 -0.76508,1.55041 -1.14763,2.32561c0.23676,0.0203 0.50678,0.04285 0.55705,0.09166c0.02122,0.02059 -0.14673,0.58213 -0.14616,0.6908c0.00448,0.85129 -0.60984,2.19229 -0.99456,2.97193c-0.70481,1.42829 -1.53449,3.61405 0.15817,4.44933c2.05014,1.10175 2.92934,-0.12578 4.44918,-1.29354l0.08321,-0.16862c0.0482,-0.09768 0.16512,-0.13886 0.26353,-0.09399c0.91409,-1.67704 2.03314,-3.50422 2.27901,-5.29545c0.98563,-2.39031 2.16649,-4.87024 2.68464,-7.39822c0.65204,-2.58098 2.03516,-4.95394 3.21894,-7.35282c0.18592,-0.36284 0.15583,-0.5436 0.15374,-0.94504l-0.00176,-0.33715c0,0 -0.00106,-0.20099 0.19993,-0.20203c0.20099,-0.00105 0.20204,0.19995 0.20204,0.19995l0.00176,0.33715c0.00242,0.4626 0.00936,0.69759 -0.19523,1.12503c-1.16969,2.37034 -2.54291,4.71543 -3.18766,7.26502c-0.52987,2.52872 -1.68147,5.02908 -2.68855,7.41375c-0.28255,2.05082 -1.68793,4.14445 -2.65109,6.01548c-0.02607,0.65558 -0.10755,1.31524 -0.11146,2.02221c0.43965,1.27137 1.07463,1.49668 2.56394,1.82731c0.42258,0.09382 1.27765,-0.31388 1.56287,-0.53015c1.59088,-1.61281 2.78476,-3.86074 3.78274,-5.88309c0,0 0.27355,-0.55435 0.49068,-0.81559c-0.04453,-0.16389 -0.06993,-0.32897 -0.07079,-0.4939c-0.00892,-1.69769 1.13562,-3.44841 1.86615,-4.92885c1.24518,-2.52334 2.49039,-5.04667 3.73558,-7.57001c0.35577,-0.72096 0.71154,-1.4419 1.0673,-2.16286l0.15889,-0.32198c0,0 0.08894,-0.18024 0.26918,-0.0913c0.18024,0.08895 0.09129,0.26919 0.09129,0.26919c-0.35577,0.72096 -0.87042,1.76388 -1.22619,2.48484c-1.2452,2.52334 -2.49041,5.04666 -3.73558,7.57c-0.70832,1.43545 -1.80679,3.11235 -1.82465,4.75163c-0.0102,0.93636 0.99177,1.95068 1.51172,2.57414c0.20421,0.16407 0.27463,0.4469 0.43011,0.65774c0.15116,0.20495 0.47383,0.20585 0.66809,0.37051c1.05284,0.89243 2.61831,2.04135 4.06173,2.15561c0.57897,0.04584 1.30825,-0.31507 1.84887,-0.50061c0.59732,-0.18293 0.88009,-1.2811 1.15419,-1.83656c0.88943,-1.80238 1.77885,-3.60477 2.66827,-5.40715c1.24518,-2.52331 2.49039,-5.0466 3.73555,-7.56993c1.23702,-2.51131 2.10101,-5.16627 3.35252,-7.7024c1.2452,-2.52334 2.49041,-5.04667 3.73559,-7.57001c0.77571,-1.57203 1.43716,-3.14768 2.10379,-4.75205c0.09971,-0.23998 0.18813,-0.62297 0.16939,-0.94639c-0.11497,0.02396 -0.19428,-0.08064 -0.19428,-0.08064c-0.45464,-0.59961 -0.86303,-1.41764 -1.37564,-1.94775c-0.26975,-0.27893 -0.73104,-0.3344 -1.0323,-0.56411c-0.94739,-0.72234 -2.00806,-1.21304 -3.09246,-1.7482c-2.52332,-1.24524 -5.04667,-2.4904 -7.57,-3.73559c-1.87997,-0.92771 -3.78264,-2.11387 -5.74814,-2.83779c-0.63678,-0.23453 -1.31745,-0.26403 -1.9437,-0.53796c-1.72087,-0.78836 -3.78362,-1.10896 -5.72157,-1.13824c-0.7721,-0.01166 -1.53008,0.25213 -2.29404,0.21827c-0.90235,1.51227 -1.66469,3.43279 -2.78825,4.75655c-0.27189,0.32033 -0.49847,0.84443 -1.02329,0.85567c-0.41736,0.00895 -1.16186,-0.53594 -1.53769,-0.72142c-2.19738,-1.08435 -3.74707,-0.06037 -5.98818,0.28926c-0.53262,0.0831 -1.43779,-0.01149 -1.74889,0.38473c-1.31092,1.04882 -2.03077,2.28693 -2.76545,3.77572c-0.16076,0.32576 -0.64834,0.95221 -0.52228,1.33709c0.20108,0.61399 0.70839,0.99898 1.24036,1.26765c0.60717,0.30847 0.97465,0.87953 1.57081,1.20504c1.28088,0.69938 2.86667,1.75634 4.27355,2.1317c0.52344,0.13966 1.05842,0.16069 1.5786,0.34652c0.81084,0.43908 0.45956,1.26054 0.11077,1.97722c-0.93829,1.92794 -1.89722,3.84609 -2.84605,5.76887c-0.74025,1.5001 -1.51255,3.20521 -2.03116,4.79263c-0.32664,0.99983 -2.06425,5.92153 -2.05183,6.75054c0.00579,1.85375 0.67422,3.78553 2.77095,3.94458c0.64569,0.13434 1.23233,0.22999 1.86506,0.37715c0.4029,-0.81646 0.80998,-1.64139 1.2063,-2.44454z" fill="#ff7979" stroke="#ff7979" stroke-width="4" stroke-linecap="butt"/><path d="M242.48937,298.6583c-0.63272,-0.14716 -1.22087,-0.24393 -1.86656,-0.37829c-2.09673,-0.15905 -2.76869,-2.09471 -2.77449,-3.94845c-0.01242,-0.82901 1.72233,-5.75675 2.04898,-6.75659c0.51861,-1.58742 1.29025,-3.30018 2.03052,-4.80029c0.94884,-1.92278 1.91267,-3.852 2.85095,-5.77995c0.34879,-0.71669 0.72857,-1.5099 -0.08227,-1.94897c-0.52019,-0.18583 -1.05414,-0.20785 -1.57758,-0.34751c-1.40688,-0.37537 -2.9916,-1.43353 -4.27248,-2.1329c-0.59615,-0.3255 -0.96359,-0.89661 -1.57076,-1.20508c-0.53197,-0.26868 -1.07031,-0.67923 -1.27139,-1.29324c-0.12604,-0.38486 0.36234,-1.01223 0.52311,-1.338c0.73468,-1.48879 1.4576,-2.72955 2.76851,-3.77836c0.3111,-0.39622 1.21751,-0.30244 1.75012,-0.38554c2.2411,-0.34963 3.79559,-1.3757 5.99296,-0.29135c0.37583,0.18546 1.12162,0.73004 1.53899,0.72109c0.52483,-0.01123 0.75256,-0.53555 1.02445,-0.85589c1.12356,-1.32376 1.88876,-3.24453 2.79111,-4.7568c0.76396,0.03386 1.5238,-0.22987 2.2959,-0.21821c1.93795,0.02928 4.00532,0.3508 5.72619,1.13916c0.62624,0.27393 1.30841,0.30399 1.94521,0.53853c1.9655,0.72393 3.8726,1.91262 5.75256,2.84033c2.52334,1.24519 5.05084,2.49461 7.57414,3.73985c1.0844,0.53516 2.14625,1.02769 3.09364,1.75003c0.30126,0.2297 0.76287,0.28574 1.03261,0.56467c0.51262,0.53009 0.92166,1.34951 1.37631,1.94913c0,0 0.07934,0.10468 0.19431,0.08073c0.01875,0.32342 -0.06947,0.70688 -0.16919,0.94688c-0.66665,1.60437 -1.32725,3.18259 -2.10296,4.75463c-1.24518,2.52334 -2.48982,5.05243 -3.73503,7.57577c-1.25152,2.53615 -2.11728,5.19845 -3.35429,7.70977c-1.24516,2.52332 -2.49481,5.05286 -3.73999,7.57617c-0.88942,1.80238 -1.78246,3.6075 -2.67187,5.40988c-0.2741,0.55546 -0.55817,1.65433 -1.15549,1.83726c-0.54061,0.18554 -1.27122,0.54704 -1.85018,0.5012c-1.44342,-0.11426 -3.01135,-1.26235 -4.06419,-2.15477c-0.19425,-0.16466 -0.51743,-0.16544 -0.66858,-0.37038c-0.15549,-0.21081 -0.22613,-0.49361 -0.43036,-0.65768c-0.51995,-0.62346 -1.52985,-1.67718 -1.51966,-2.61354c0.01786,-1.63928 1.11282,-3.31522 1.82114,-4.75066c1.24518,-2.52334 2.4808,-5.03919 3.726,-7.56252c0.35577,-0.72096 0.86807,-1.75921 1.22384,-2.48016c0,0 0.0888,-0.17982 -0.09144,-0.26877c-0.18024,-0.08895 -0.2311,0.10416 -0.2311,0.10416l-0.15912,0.32264c-0.35577,0.72096 -0.71377,1.44609 -1.06953,2.16704c-1.2452,2.52334 -2.50028,5.0542 -3.74545,7.57754c-0.73053,1.48044 -1.87866,3.23205 -1.86973,4.92975c0.00087,0.16493 0.02627,0.32999 0.07079,0.49389c-0.21711,0.26125 -0.49128,0.81568 -0.49128,0.81568c-0.99797,2.02236 -2.19538,4.27041 -3.78627,5.88322c-0.28522,0.21626 -1.14146,0.62386 -1.56404,0.53005c-1.48931,-0.33064 -2.12649,-0.55631 -2.56615,-1.82768c0.0039,-0.70697 0.09457,-1.40575 0.12064,-2.06133c0.96318,-1.87103 2.36717,-3.96496 2.64971,-6.01576c1.00709,-2.38467 2.15544,-4.88531 2.68531,-7.41403c0.64475,-2.54959 1.99976,-4.88333 3.16945,-7.25366c0.20459,-0.42744 0.19579,-0.65604 0.19338,-1.11864l-0.0019,-0.33514c0,0 -0.00103,-0.19974 -0.20203,-0.19867c-0.20099,0.00105 -0.15975,0.2015 -0.15975,0.2015l0.00159,0.33944c0.00209,0.40145 0.03036,0.58826 -0.15555,0.9511c-1.18378,2.3989 -2.58602,4.78319 -3.23806,7.36417c-0.51817,2.52798 -1.70184,5.00757 -2.68747,7.39788c-0.24587,1.79124 -1.366,3.61817 -2.2801,5.29521c-0.0984,-0.04487 -0.21553,-0.00374 -0.26373,0.09392l-0.08324,0.16862c-1.51985,1.16777 -2.40206,2.39423 -4.4522,1.29248c-1.69266,-0.83528 -0.86464,-3.02187 -0.15981,-4.45016c0.38474,-0.77964 0.99849,-2.12096 0.99401,-2.97225c-0.00057,-0.10867 0.16716,-0.67034 0.14594,-0.69093c-0.05027,-0.0488 -0.3208,-0.07167 -0.55755,-0.09197c0.38254,-0.7752 0.76472,-1.55066 1.14727,-2.32587c0.80093,-1.62305 2.07412,-3.43591 2.54825,-5.17723c0.19882,-0.73021 0.36838,-1.42351 0.71474,-2.12538c1.01819,-2.06331 1.90357,-4.22805 2.93038,-6.30885c0,0 0.12447,-0.16149 -0.05577,-0.25043c-0.18024,-0.08895 -0.26854,0.09007 -0.26854,0.09007c-1.02677,2.08069 -1.91871,4.20119 -2.93681,6.26433c-0.35803,0.72555 -0.5482,1.43961 -0.74648,2.19818c-0.44527,1.70355 -1.7404,3.51306 -2.52289,5.09872c-0.39634,0.80315 -0.82677,1.66077 -1.22967,2.47723z" data-paper-data="{&quot;noHover&quot;:false,&quot;origItem&quot;:[&quot;Path&quot;,{&quot;applyMatrix&quot;:true,&quot;segments&quot;:[[[309.99917,327.5992],[0,-1.97231],[0,3.89397]],[[309.99013,340.12791],[-0.78081,-3.79816],[0.34768,1.69127]],[[310.66326,345.19821],[0,-1.78174],[0,5.06646]],[[310.9953,360.47159],[0,-5.10963],[0,0]],[[310.55268,360.91421],[0.44262,0],[-0.44262,0]],[[310.11007,360.47159],[0,0],[0,-5.10988]],[[309.77803,345.19821],[0,5.0669],[0,-1.72363]],[[309.12297,340.30586],[0.31897,1.63582],[-0.76063,-3.90084]],[[309.11394,327.5992],[0,3.98577],[0,-1.90369]],[[309.11394,321.88814],[0,1.90369],[-0.48734,0.19062]],[[307.92453,322.24998],[0.14685,0.04738],[-0.06197,-0.01999]],[[307.54,320.74335],[0.10702,0.21403],[-0.83845,-1.6768]],[[306.60789,313.90507],[0,1.91459],[0,-3.5075]],[[301.95958,305.27256],[4.1567,0],[-5.12235,-0.17786]],[[294.4338,312.1629],[1.86342,-3.78725],[0,0]],[[294.4338,312.577],[0,0],[0,0.23984]],[[294.00497,313.0194],[0.23807,-0.00729],[-0.17088,4.20267]],[[294.66483,325.69793],[-1.26004,-3.77698],[0.38296,5.68096]],[[296.57284,342.92437],[-1.4403,-5.49728],[1.22755,5.73241]],[[297.38148,360.58183],[0,-5.89102],[-0.01354,0.89772]],[[297.99884,362.59796],[-0.39537,-0.79074],[0,0]],[298.33088,363.26205],[[298.13294,363.85588],[0.39589,-0.19794],[-0.39589,0.19794]],[297.53911,363.65793],[[297.20707,362.99384],[0,0],[-0.4556,-0.9112]],[[296.49625,360.58183],[0.0125,1.04349],[0,-5.82087]],[[295.71141,343.12825],[1.21137,5.66329],[-1.41789,-5.51013]],[[293.79597,325.86736],[0.33511,5.69073],[-1.44058,-4.32533]],[[293.16924,311.40429],[-0.07875,4.63358],[-0.58739,-1.32007]],[[291.41867,307.30219],[0.68123,1.39993],[-2.10722,-2.0823]],[[284.57458,306.19219],[3.26334,-0.79841],[-0.92596,0.22654]],[[282.00481,308.76218],[0.35251,-0.70502],[-1.56999,4.73536]],[[280.26775,324.06663],[0,-4.96636],[0,0]],[[280.09358,326.15544],[0.17417,-0.7275],[0.24764,0.28028]],[[280.71469,327.06181],[-0.16243,-0.32485],[1.67205,3.34395]],[[281.83265,338.61404],[-0.00007,-3.63553],[0.00004,6.19661]],[[281.83266,357.20388],[0,-6.19661],[0,1.77046]],[[281.83266,362.51526],[0,-1.77046],[0,0]],[281.83266,363.30595],[[281.39004,363.74857],[0.44262,0],[-0.44262,0]],[[280.94743,363.30595],[0,0],[0,-1.77046]],[[280.94743,357.20388],[0,1.77046],[0,-6.19661]],[[280.94742,338.61405],[0.00004,6.19661],[-0.00007,-3.52504]],[[279.92022,327.45226],[1.56223,3.25469],[-0.89236,-1.8591]],[[274.42628,323.84197],[1.6344,0.7245],[-0.56318,-0.12499]],[[272.93591,322.96223],[0.51252,0.26481],[-0.49822,-0.25742]],[[271.25549,322.88162],[0.54408,0.13587],[-2.94885,-0.73636]],[[261.1336,322.5829],[2.96186,-1.18098],[-1.18802,0.4737]],[[257.97028,325.37326],[0.8868,-0.89325],[-1.00133,0.94335]],[[257.48071,330.12493],[0,-1.36406],[0,4.42615]],[[257.48071,343.40339],[0,-4.42615],[0,6.19656]],[[257.48072,361.99306],[-0.00008,-6.19656],[0.00443,6.1649]],[[258.36623,380.47106],[0,-6.22805],[0,6.19661]],[[258.36624,399.06089],[-0.00004,-6.19661],[0.0001,3.86045]],[[258.84261,410.49555],[-0.24699,-3.81799],[0.03695,0.57111]],[[259.43036,412.52956],[-0.3522,-0.62042],[0.20369,-0.15935]],[[259.89261,412.49949],[0,0],[1.48219,0.74109]],[[264.5074,415.00535],[-1.52893,-0.54728],[0.80453,0.28798]],[[267.09574,415.11335],[-0.81879,-0.16003],[2.57486,0.50326]],[[274.90648,415.55208],[-2.66302,-0.00008],[6.19661,0.00011]],[[293.49631,415.5521],[-6.19661,0],[4.61667,0]],[[307.61337,415.55456],[-4.587,0.4858],[1.48609,-0.15739]],[[311.97607,414.72277],[-1.50368,0.0693],[4.16668,-0.12015]],[[324.3844,411.3948],[-3.85565,1.83075],[1.53611,-0.72938]],[[328.70202,408.72817],[-1.54168,0.67762],[0.30825,-3.86584]],[[329.57298,396.61758],[-0.92882,3.70913],[0.22476,-0.89756]],[[330.75993,393.93056],[-1.02549,0.53366],[0.81551,-0.42439]],[[334.49963,393.85672],[-0.92294,0],[5.39617,0]],[[346.04333,387.44988],[-4.08507,2.87447],[0.97085,-0.68314]],[[349.12216,384.98577],[-0.22825,1.08562],[1.56673,-3.34874]],[[350.90394,374.83439],[0,3.65605],[0,-0.8]],[[350.63235,371.6849],[0.62397,0.63722],[-0.99545,-1.01659]],[[346.94748,370.39028],[1.31238,0.01216],[-1.49966,-0.01748]],[[342.67108,369.54134],[1.49452,0.06186],[-3.21107,-0.13292]],[[332.15417,369.49627],[3.14415,-0.62976],[-1.16981,0.23431]],[[328.69901,370.35033],[1.20837,-0.13995],[-2.02915,-0.07692]],[[326.55341,366.55361],[0.00962,1.75524],[-0.02587,-4.72172]],[[326.55199,352.38756],[0,4.7218],[0,-3.68385]],[[325.89266,340.94356],[0.52279,3.64027],[-0.32928,-2.29282]],[[323.36613,325.61288],[0.83243,1.62505],[-1.81794,-3.6552]],[[314.04989,320.52336],[4.29569,-1.7292],[-1.40606,0.36394]],[[309.99917,321.59611],[1.39293,-0.326],[0,2.005]]],&quot;closed&quot;:true}]}" fill="#ff0c00" stroke="none" stroke-width="0.5" stroke-linecap="butt"/><path d="M264.9074,266.97833c0.18024,0.08895 0.0913,0.26918 0.0913,0.26918l-0.15574,0.31558c-0.54642,1.10729 -1.09664,2.22815 -1.35978,3.42489c-0.23327,1.06096 -0.08711,2.21786 -0.34606,3.26468c-0.15213,1.36446 0.62164,3.05828 1.24525,4.27951c0.33227,0.65069 1.19544,1.40461 0.88887,2.13279c0,0 -0.08893,0.18024 -0.26918,0.0913c-0.18024,-0.08895 -0.0913,-0.26919 -0.0913,-0.26919c0.24487,-0.37957 -0.67855,-1.36633 -0.88478,-1.76895c-0.66911,-1.30633 -1.45,-3.07319 -1.28445,-4.53688c0.2658,-1.04811 0.12697,-2.21501 0.34996,-3.28371c0.25589,-1.22628 0.8333,-2.38223 1.39097,-3.51232l0.15574,-0.31557c0,0 0.08895,-0.18025 0.26919,-0.0913z" fill="#000000" stroke="#000000" stroke-width="1.5" stroke-linecap="butt"/><path d="M261.23262,265.82876c-0.93469,1.89412 -1.85601,3.79584 -2.81054,5.67999c-0.46188,0.38879 -0.39733,0.64569 -0.7614,1.0995c-0.54771,0.68274 -1.31691,1.18502 -1.95121,1.76595c-1.29297,1.18414 -2.54709,2.77216 -4.10518,3.43823c0,0 -0.25315,0.10499 -0.32382,-0.1598c-0.07067,-0.26479 0.18247,-0.36978 0.18247,-0.36978c0.65839,-0.26266 1.02853,-0.798 1.59353,-1.22565c1.34889,-1.02097 3.08707,-2.41235 4.21552,-3.78611c0.32707,-0.39818 0.33859,-0.74465 0.76369,-1.10245c0.8902,-1.86576 1.82416,-3.71202 2.739,-5.56589c0.27224,-0.55168 0.79034,-0.44756 0.45795,0.226z" fill="#000000" stroke="#000000" stroke-width="1.5" stroke-linecap="butt"/><path d="M275.49437,265.04271c0.51661,-0.86108 1.07371,-1.64086 1.55732,-2.6209c0.08306,-0.16832 0.62178,-0.90423 0.44123,-1.13901c-1.15902,-1.50708 -3.20155,-2.27343 -4.84397,-3.08775c-3.29108,-0.99381 -6.01971,-3.19286 -9.37051,-3.83996c-1.87505,-0.36211 -2.9728,-0.99294 -3.85986,0.80461c-0.23805,0.47844 -0.96595,2.42212 -0.33562,2.86808c1.40734,0.9957 3.29791,1.1356 4.86865,1.74284c1.77045,0.68444 3.40892,1.69267 5.22059,2.28795c1.61273,0.1833 4.90108,1.52663 6.32215,2.98414zM275.0315,265.87048c-1.01202,-1.37 -4.61875,-2.77612 -6.05042,-2.92407c-2.30779,-0.75061 -4.41371,-2.03198 -6.69535,-2.83071c-1.26019,-0.44116 -2.74733,-0.49394 -3.82342,-1.4249c-0.98449,-0.85172 -0.30716,-3.01635 0.14186,-3.93298c1.12032,-2.27029 2.62536,-1.73508 4.85182,-1.29339c3.41077,0.67664 6.18012,2.87539 9.5263,3.88584c1.42974,0.70247 5.69885,2.27639 5.43228,4.31798c-0.19432,1.48817 -1.4684,2.84538 -2.28334,4.12382c0.02208,0.08537 0.01674,0.18931 -0.0438,0.31197c-0.07502,0.15204 -0.1788,0.2193 -0.27941,0.24389c-0.0135,0.02619 -0.02669,0.05234 -0.03959,0.07846c0,0 -0.20095,0.40721 -0.60817,0.20626c-0.40721,-0.20096 -0.20626,-0.60817 -0.20626,-0.60817c0.02559,-0.05186 0.05142,-0.10318 0.07747,-0.154z" fill="#ff7979" stroke="none" stroke-width="0.5" stroke-linecap="butt"/><path d="M269.18883,262.10083c-1.81167,-0.59527 -3.51175,-1.63965 -5.2822,-2.32409c-1.57075,-0.60723 -3.46135,-0.75923 -4.86867,-1.75491c-0.63032,-0.44595 0.10148,-2.40298 0.33953,-2.88141c0.88704,-1.79757 1.99407,-1.17982 3.86912,-0.81771c3.35081,0.6471 6.15559,2.86873 9.44667,3.86254c1.64242,0.81432 3.68498,1.60021 4.844,3.10729c0.18056,0.23478 -0.35976,0.97622 -0.44282,1.14454c-0.48361,0.98004 -1.04775,1.77255 -1.56434,2.63364c-1.42106,-1.45751 -4.72856,-2.7866 -6.34129,-2.96989z" data-paper-data="{&quot;noHover&quot;:false,&quot;origItem&quot;:[&quot;Path&quot;,{&quot;applyMatrix&quot;:true,&quot;segments&quot;:[[[794.20759,376.99454],[-3.23945,-3.09864],[1.07083,-1.93478]],[[797.43376,371.10676],[-0.98912,2.19405],[0.16988,-0.37682]],[[798.31738,368.56609],[0.41539,0.50283],[-2.66655,-3.22786]],[[787.41944,362.14236],[3.67723,1.66609],[-7.31947,-1.9345]],[[766.50153,354.41073],[7.42429,1.16688],[-4.1545,-0.65297]],[[758.06837,356.47796],[1.81422,-4.02427],[-0.48718,1.07124]],[[757.54994,362.81592],[-1.42149,-0.93308],[3.17378,2.0833]],[[768.39894,366.2778],[-3.50361,-1.21582],[3.94906,1.3704]],[[780.06435,370.91235],[-4.0329,-1.171],[3.56343,0.27958]]],&quot;closed&quot;:true}]}" fill="#ff0c00" stroke="none" stroke-width="0.5" stroke-linecap="butt"/><path d="M250.02668,282.80776l-7.32886,16.35979" fill="none" stroke="#ff7979" stroke-width="1.5" stroke-linecap="round"/><path d="M246.90222,307.23748l9.0372,-23.24469" fill="none" stroke="#ff7979" stroke-width="1.5" stroke-linecap="round"/><path d="M255.78427,302.85907c0,0 0.34052,-2.34595 1.0637,-4.00863c1.29946,-2.98764 6.07646,-12.40743 6.07646,-12.40743" fill="none" stroke="#ff7979" stroke-width="1" stroke-linecap="round"/></g></g></g></svg>