<svg version="1.1" xmlns="http://www.w3.org/2000/svg" xmlns:xlink="http://www.w3.org/1999/xlink" width="126.48624" height="195.94626" viewBox="0,0,126.48624,195.94626"><g transform="translate(-260.8872,-74.41849)"><g stroke-miterlimit="10"><path d="M353.95799,267.5226l-1.25359,1.0226l-1.96994,0.60152l-1.37299,-0.06016l-1.31329,-1.02259l-0.41787,-1.2632l0.29847,-41.72272h6.20829l0.17908,40.8806z" fill="#fffd4d" stroke="#000000" stroke-width="0.5" stroke-linecap="round"/><path d="M353.9123,267.85381l-1.25359,0.58524l-1.96994,0.34426l-1.37299,-0.03443l-1.31329,-0.58524l-0.41787,-0.72295l0.29847,-27.38445h6.20829l0.17908,26.9025z" fill="#ffffff" stroke="#000000" stroke-width="0.5" stroke-linecap="round"/><path d="M347.71185,244.22844l6.38689,0.25002l0.05683,2.21611l-6.44372,-0.34095z" fill="#00c4ff" stroke="#000000" stroke-width="0.5" stroke-linecap="round"/><path d="M354.21239,251.70635l-6.50054,-0.20455l0.12501,-2.12518l6.34142,0.1932z" fill="#ff0000" stroke="#000000" stroke-width="0.5" stroke-linecap="round"/><path d="M297.64072,266.22237l0.17908,-40.8806h6.20829l0.29847,41.72272l-0.41787,1.96587l-1.31329,1.02259l-1.37299,0.06016l-1.96994,-0.60152l-1.25359,-1.0226z" fill="#fffd4d" stroke="#000000" stroke-width="0.5" stroke-linecap="round"/><path d="M377.22194,182.72765c0,3.13981 -76.03944,0.22619 -98.31212,0.49532c-0.55483,0.00671 -1.07324,0.76001 -2.05629,-1.73708c-0.70713,-1.79619 -1.41525,-3.37572 -1.20088,-6.4222c0.08879,-1.26179 1.65168,-3.65246 1.35195,-5.0234c-0.46781,-2.13967 -4.09942,-4.3747 -5.34917,-6.58782c-1.10522,-1.95718 0.14274,-3.89722 -0.03384,-5.73901c-0.19352,-2.01847 1.86804,-3.36909 1.68422,-5.52865c-0.15079,-1.77158 -1.40405,-4.33248 -1.54816,-6.17033c-0.1851,-2.36059 -3.82276,-11.3016 -3.96575,-13.72277c-0.06109,-1.03453 6.90346,7.09066 6.85582,6.05482c-0.57115,-12.41742 -5.25397,-19.57733 -8.10104,-25.25588c-0.90963,-1.81428 -1.24702,-3.76599 -1.70336,-5.31439c-0.79214,-2.68782 1.48724,-10.02849 1.42325,-10.13941c-0.43154,-0.74805 0.08355,-1.99643 -0.1072,-2.75177c-0.57434,-2.27429 -1.17984,-3.89934 -2.24384,-4.56634c-2.02581,-1.26994 -2.68201,-2.83343 -2.68201,-5.0926c0,-1.76028 0.20831,-4.69018 1.51725,-5.91503c1.54634,-1.447 5.18654,-1.98494 7.71042,-1.98494c1.07771,0 2.67474,0.73359 7.89818,2.97968c0.32165,0.13831 1.97335,-0.07325 3.66974,-0.29216c1.79998,-0.23228 7.65061,-3.97311 8.01573,-3.81275c0.79417,0.34881 4.81901,-1.46242 5.64241,-1.07828c1.09643,0.51151 4.16089,0.62011 5.42723,1.07805c1.63385,0.59083 3.38246,2.45421 5.21439,2.96896c1.23353,0.3466 13.56873,-4.01636 14.86824,-3.71081c4.43327,1.04239 5.618,1.91369 9.43729,2.95306c1.96803,0.53558 11.34011,-3.41353 13.21589,-2.88579c2.55574,0.71904 5.48055,0.96038 11.12603,1.7451c1.86252,0.25889 6.33717,-1.77548 8.43844,-1.43172c1.50627,0.24641 6.83346,0.72566 8.31999,1.648c0.12315,0.07641 2.45152,-0.57209 3.35273,-1.25951c1.07327,-0.81867 5.51645,-1.12996 6.89476,-0.90031c1.70961,0.28485 3.31999,3.80165 4.00285,5.41164c1.17326,2.76618 -0.92337,8.1763 -1.97523,11.30969c-0.4771,1.42124 -0.29244,2.37408 -0.27351,2.39935c0.33404,0.44588 -0.24528,0.51158 -1.44082,0.31606c-1.06579,-0.1743 2.21315,-0.46624 1.54144,4.09817c-0.18878,1.28278 0.47267,3.84319 -0.07474,5.65499c-1.024,3.38918 -3.46609,6.50208 -3.82445,10.22532c-0.43117,4.47971 -1.48697,10.67917 -1.10701,15.55096c0.28029,3.5938 -1.48215,3.60694 -1.64929,7.36961c-0.09159,2.06174 -1.08756,3.80511 -1.20447,5.84314c-0.09446,1.64675 -0.0851,4.93979 -0.18419,6.56471c-0.05686,0.93238 1.26182,2.10197 1.21958,3.02143c-0.06461,1.40646 1.41917,4.44741 1.37181,5.81125c-0.01623,0.4674 0.36082,1.54828 0.29644,1.98067c-0.29132,1.95657 -1.39219,2.97845 -1.49872,4.85519c-0.15273,2.69064 -1.90346,4.57689 -1.92439,6.6979c-0.02778,2.81487 0.2206,3.89352 1.578,5.11846c1.84901,1.66858 0.38641,5.09534 0.38641,5.17145z" fill="#fffd4d" stroke="none" stroke-width="NaN" stroke-linecap="butt"/><path d="M338.64632,175.62172c-0.49865,0.03675 -0.5354,-0.46189 -0.5354,-0.46189l-0.03802,-0.51586c-0.10397,-1.41069 -0.25527,-2.68715 -0.93154,-3.95122c-1.57061,-3.75482 -3.04715,-8.48987 -6.83308,-10.62966c-2.81239,-1.88943 -7.65136,-1.4719 -10.9795,-1.22282c-0.11291,0.06033 -0.22301,0.06845 -0.22301,0.06845l-0.06188,0.00283c-2.59476,0.39737 -4.21758,2.09386 -5.24873,4.33186c-1.6765,3.60693 -2.12722,7.60067 -3.62168,11.24329c0,0 -0.19013,0.46243 -0.65257,0.2723c-0.46244,-0.19013 -0.27231,-0.65257 -0.27231,-0.65257c1.50503,-3.65223 1.96684,-7.65722 3.63908,-11.28311c1.17246,-2.51962 3.0292,-4.37971 5.89418,-4.88165c0.12065,-0.07255 0.24662,-0.08184 0.24662,-0.08184c3.57096,-0.26318 8.71046,-0.69201 11.8033,1.35123c3.96285,2.23978 5.57186,7.10983 7.21282,11.05254c0.73587,1.37184 0.91281,2.77645 1.0256,4.30687l0.03802,0.51586c0,0 0.03675,0.49865 -0.4619,0.5354z" fill="#000000" stroke="none" stroke-width="0.5" stroke-linecap="butt"/><path d="M327.3241,151.06644c0,9.87703 1.04669,17.63277 -0.12045,22.06136c-0.60813,2.30749 -2.40013,4.00313 -4.01077,4.00313c-4.70182,0 -3.18373,-8.7657 -3.18373,-23.78907c0,-0.38707 0.00316,-4.86915 0.0094,-5.25448c0.23579,-14.57093 -0.95889,-27.36746 3.62179,-27.36746c0.74532,0 1.64693,-0.41502 2.13163,0.29282c2.57304,3.75754 1.55212,17.41179 1.55212,30.05371z" fill="#fff649" stroke="none" stroke-width="0" stroke-linecap="butt"/><path d="M320.26025,161.55623c0.02855,0.01631 0.05614,0.03366 0.08281,0.052c-0.24376,0.70416 -0.01953,1.84725 -0.07027,2.66225c-0.00356,0.03974 -0.00684,0.07992 -0.00985,0.12051c-0.14375,1.40267 -0.69405,3.60145 -0.26013,5.29045c0.11395,0.44353 0.3904,0.60307 0.69907,0.58716c0.04419,1.09035 0.07565,2.23375 0.00176,3.19351c-0.02027,0.2633 -0.15015,0.5 -0.5,0.5c-0.66748,0 -0.72313,-2.59819 -0.58015,-6.32102c0.03106,-0.80865 -0.10199,-5.66272 0.20585,-5.83863z" fill="#000000" stroke="none" stroke-width="0.5" stroke-linecap="butt"/><path d="M319.61163,164.04456c0.05108,-0.58536 0.11243,-2.19635 0.08628,-2.80448c-0.01733,-0.40305 0.0636,-0.41457 0.11942,-0.49193c0.24502,-0.33958 0.93735,-0.15371 0.9375,0.33571c0.00101,3.24552 -0.30466,6.50714 0.01828,9.73655c0.00208,0.01853 0.00315,0.03736 0.00315,0.05644c0,0.05106 -0.00765,0.10033 -0.02188,0.14673c-0.5152,3.41875 -0.90185,2.83303 -1.06793,0.94493c-0.10881,-1.23701 -0.07401,-3.03303 -0.08937,-4.6282c-0.01472,-1.52935 -0.03345,-2.74568 0.01455,-3.29576z" fill="#000000" stroke="none" stroke-width="0.5" stroke-linecap="butt"/><path d="M327.28738,169.05165c-0.5,0 -0.5,-0.5 -0.5,-0.5v-0.07143c0,-1.87882 -0.14286,-3.75508 -0.14286,-5.64313c0,-3.59541 0,-7.19082 0,-10.78623c0,0 0,-0.04738 0.01458,-0.11297v-0.38158c0,-4.59215 -0.00433,-9.18433 0.00062,-13.77648c-0.51718,-5.10543 0.17703,-10.95271 -0.80135,-16.05993c-4.05118,-3.53502 -5.0703,2.63967 -5.23233,5.77842c0.15662,0.16506 0.12931,0.41083 0.12931,0.41083c-0.52436,4.6994 -0.14695,9.61965 -0.14695,14.34623c0,5.14973 0.14986,10.31786 0.15001,15.45154c0,1.12605 0,2.25209 0,3.37814c-0.83518,0.44457 -0.41827,2.10392 -0.48561,3.18546c-0.00356,0.03974 -0.00684,0.07992 -0.00985,0.12051c-0.14375,1.40267 -0.69405,3.60145 -0.26013,5.29045c0.0583,0.22693 0.15915,0.37953 0.28508,0.47231c0.06662,0.52802 0.14945,1.00009 0.24343,1.38668c0.00315,0.23187 0.0135,0.4586 0.03252,0.67823c-0.07193,0.0532 -0.17048,0.08963 -0.30545,0.08963c-0.5,0 -0.5,-0.5 -0.5,-0.5c0,-3.21221 0,-6.7301 0,-10.11731c0,-1.35844 0,-2.69585 0,-3.98409c0.00016,-5.13358 -0.15001,-10.30193 -0.15001,-15.45154c0,-4.54855 -0.33827,-9.26742 0.08689,-13.80807c-0.0869,-0.13763 -0.08689,-0.29334 -0.08689,-0.29334c0,-4.09785 2.44493,-11.00521 7.55131,-6.66724c0.21886,5.39548 -0.03283,10.86394 0.49878,16.24329c0.00458,4.60876 0.00062,9.21753 0.00062,13.82629v0.45004c0,0 0,0.04738 -0.01458,0.11297c0,3.57259 0,7.14518 0,10.71777c0,1.88827 0.14286,3.76381 0.14286,5.64313v0.07143c0,0 0,0.5 -0.5,0.5z" fill="#000000" stroke="none" stroke-width="0.5" stroke-linecap="butt"/><path d="M276.2231,212.98824v-15.50258c0,0 93.01445,-0.64968 96.78396,-0.66259c0.2346,-0.00081 0.59508,0.49662 0.59508,0.49662l0.38725,15.66854z" fill="#c7941d" stroke="#000000" stroke-width="0" stroke-linecap="butt"/><path d="M373.13544,181.35355l0.0577,15.57752l-95.39679,0.37453l-1.60097,0.02202l-0.39719,-20.04728l98.27964,1.47812z" fill="#ffffff" stroke="#000000" stroke-width="0.5" stroke-linecap="round"/><path d="" fill="#fffc4d" stroke="none" stroke-width="0.5" stroke-linecap="butt"/><path d="" fill="#fffc4d" stroke="none" stroke-width="0.5" stroke-linecap="butt"/><path d="" fill="#ff0000" stroke="none" stroke-width="0" stroke-linecap="butt"/><path d="" fill="#ffd71b" stroke="none" stroke-width="0" stroke-linecap="butt"/><path d="" fill="#ffd71b" stroke="none" stroke-width="0" stroke-linecap="butt"/><path d="" fill="#99cd00" stroke="none" stroke-width="0.5" stroke-linecap="butt"/><path d="M303.59621,268.25562l-1.01481,1.07451l-1.25359,0.29847l-1.73116,-0.65664l-1.1939,-1.95627" fill="none" stroke="#000000" stroke-width="0.5" stroke-linecap="round"/><path d="M297.6864,267.92513l0.17908,-27.60517h6.20829l0.29847,28.08712l-0.41787,0.72295l-1.31329,0.58524l-1.37299,0.03443l-1.96994,-0.34426l-1.25359,-0.58524z" fill="#ffffff" stroke="#000000" stroke-width="0.5" stroke-linecap="round"/><path d="M311.54303,199.93053l29.39268,0.21299l0.07099,6.53171h-29.46368z" fill="#000000" stroke="#000000" stroke-width="0.5" stroke-linecap="round"/><path d="M276.71585,197.55056l20.82368,0.06l37.46274,-0.05969l38.4784,-0.30477l0.65049,15.53718l-97.63371,0.09196l-0.07774,-1.59452l-0.37501,-30.82876" fill="none" stroke="#000000" stroke-width="0.5" stroke-linecap="round"/><path d="M305.80584,199.93055l0.071,6.88669h-22.57699v-6.7447z" fill="#000000" stroke="#000000" stroke-width="0.5" stroke-linecap="round"/><path d="M368.85871,199.93053l0.071,6.7447l-23.42895,-0.071l0.071,-6.74469z" fill="#000000" stroke="#000000" stroke-width="0.5" stroke-linecap="round"/><path d="M320.72445,181.69896c0,-0.27614 0.22386,-0.5 0.5,-0.5c0.27614,0 0.5,0.22386 0.5,0.5c0,0.27614 -0.22386,0.5 -0.5,0.5c-0.27614,0 -0.5,-0.22386 -0.5,-0.5z" fill="#9e9215" stroke="none" stroke-width="0.5" stroke-linecap="butt"/><path d="M265.12791,93.46778c-0.48809,0.10846 -0.59656,-0.37963 -0.59656,-0.37963l-0.08647,-0.39766c-0.17756,-1.7644 -2.11446,-2.62316 -2.93863,-4.04188c-1.21679,-2.09456 -0.26502,-4.72773 -0.26218,-7.04725c0.65033,-5.53464 5.89115,-5.1296 10.02834,-4.48348c3.29152,1.00451 7.17835,3.15424 10.67563,2.06213c0,0 0.10247,-0.03153 0.22711,-0.01794l0.11416,-0.06101c1.10001,-0.3368 2.14547,-0.88605 3.11225,-1.50441c4.39024,-1.83334 8.63689,-4.29274 13.65248,-2.6238c1.60621,0.40614 3.53786,1.87087 5.80418,2.64378c1.95462,0.6666 4.37775,0.67222 4.46111,0.77003c0.88824,-0.01567 1.57281,-0.35057 2.37201,-0.74882c4.7858,-1.71308 8.16647,-3.35364 13.24034,-1.66631c3.88439,1.61564 6.64616,1.89486 10.6516,0.66143c0,0 0.20141,-0.06197 0.38295,0.0253c3.63925,-0.6924 5.64242,-1.75479 9.44676,-1.74666c2.14756,0.30367 5.39802,1.1996 7.65147,1.64502c1.13225,0.2238 2.36999,0.19993 2.36999,0.19993c1.62101,-0.02275 5.44017,-1.79998 6.97109,-1.84072c2.07468,-0.0552 2.47365,0.34935 4.32749,0.7765c2.00295,0.63993 3.84978,1.2548 5.86962,1.26051c0.07076,-0.06999 0.14076,-0.10499 0.14076,-0.10499c3.35359,-1.67468 7.39707,-3.2848 10.83889,-0.99808c3.49975,2.25299 4.78075,7.65379 2.97701,11.26126c-0.7469,1.49279 -3.04805,4.79439 -2.93355,6.62597c0.14623,0.07166 0.22789,0.20436 0.22789,0.20436c0.70737,1.17204 1.02067,2.56915 1.07404,4.02981c0.03727,0.09104 0.05714,0.20781 0.00771,0.33302c0.02472,2.46289 -0.65228,5.06996 -1.39934,7.06072c-0.56263,1.29459 -1.02504,2.64517 -1.45355,4.00097c0.03258,0.0215 -0.4049,1.30727 -0.43245,1.39756c-0.67713,3.02042 -2.10906,5.91352 -2.54213,8.96431c-0.26993,1.90153 0.01011,4.0596 0.00108,5.97714c0.93197,3.66589 -0.99266,1.44512 -0.40159,6.59068c0.0307,0.26723 -1.2486,3.41416 -1.0792,3.66247c0,0 0.30785,2.8673 -0.10817,3.14466c-0.41602,0.27735 -0.3641,0.37353 -0.3641,0.37353c-0.62804,-0.95973 0.53209,-6.5596 0.59242,-6.93975c0.17999,-1.13407 1.17678,-1.70326 1.121,-2.37824c-0.12543,-1.51786 -0.30991,-2.53168 -0.75287,-4.33118c-0.02149,-5.26793 0.86311,-9.58855 2.33304,-14.48549l0.01348,-0.1137c0.64734,-2.08926 1.27161,-4.22775 2.14602,-6.23802c0.68591,-1.83044 1.38195,-4.38438 1.35275,-6.74293l-0.0851,-0.14981c-0.10683,-1.44442 -1.04834,-2.65304 -1.21927,-4.02754c-0.27161,-2.18415 2.07046,-5.53052 3.00747,-7.40577c1.56743,-3.13487 0.46953,-8.03227 -2.6284,-9.97614c-3.03499,-2.03091 -6.67984,-0.51828 -9.65344,0.95864c-0.10963,0.21643 -0.37331,0.26037 -0.37331,0.26037l-0.31905,0.04628c-2.09942,0 -4.85231,-1.20583 -6.93426,-1.35454c-1.66428,-0.38466 -3.96823,-0.50154 -6.02262,0.00532c-1.17054,0.2888 -3.31618,1.28342 -3.31618,1.28342c-3.18076,0.72357 -7.51484,-1.46384 -11.07552,-1.9781c-3.86372,0.00939 -5.87822,1.09166 -9.61094,1.81137c0,0 -0.11938,0.02273 -0.25164,-0.01306c-3.99993,1.15526 -6.95309,0.84767 -10.8985,-0.79935c-4.80018,-1.6037 -7.96889,0.03607 -12.49719,1.64956c-0.94619,0.47482 -1.77232,0.8268 -2.84105,0.82962l-0.34704,-0.0445c0,0 -0.08999,-0.01286 -0.18775,-0.06598c-3.35769,0.46277 -6.7615,-2.56062 -9.93355,-3.34377c-4.72058,-1.57634 -8.77949,0.83278 -12.90839,2.54925c-1.01494,0.65604 -3.67824,1.81461 -3.89463,1.73012c-3.65395,0.9579 -7.49574,-1.05569 -10.92268,-2.11981c-3.46077,-0.5229 -8.24757,-1.17575 -8.80639,3.56733c0.00284,2.12815 -0.96941,4.56625 0.13222,6.49274c0.93484,1.63483 2.74605,2.37082 3.06153,4.40571l0.07142,0.31289c0,0 0.10847,0.4881 -0.37962,0.59656z" fill="#9e9215" stroke="none" stroke-width="0.5" stroke-linecap="butt"/><path d="M276.68325,169.45009c-0.48809,0.10846 -0.59656,-0.37963 -0.59656,-0.37963l-0.0833,-0.40493c-0.9993,-2.49937 -3.78614,-3.06789 -4.87383,-5.67546c-1.7195,-4.30301 2.29502,-6.83795 1.2893,-10.85027c0,0 -0.01369,-0.04456 -0.00871,-0.37855c0.0014,-0.09392 -0.07638,-0.25105 -0.05356,-0.38731c-0.38736,-2.78157 -3.58903,-15.12561 -4.74557,-17.47248c-0.05403,-0.22862 -0.25094,-2.17184 -0.31785,-2.53088c-0.10724,-0.57539 -0.47722,0.50434 -0.22584,0.15716c0.59884,-0.82708 3.36919,7.9116 4.26495,7.76261c2.68702,-0.44693 5.20821,-0.77676 7.81021,-1.5497c-0.3079,-2.02364 -2.91556,-3.21512 -4.46027,-4.41785c-0.05523,-0.02786 -0.09848,-0.06469 -0.13235,-0.10527c-0.02049,-0.01667 -0.04074,-0.03334 -0.06078,-0.05003c0,0 -0.38411,-0.3201 -0.06402,-0.70421c0.00086,-0.00104 0.00172,-0.00206 0.00259,-0.00308c0.00302,-2.89005 0.13873,-5.66293 0.63163,-8.50774c-0.05552,-0.14325 -0.03375,-0.28482 -0.03375,-0.28482l0.07459,-0.47527c-0.00473,-1.54417 0.68286,-3.45499 -1.11666,-3.85701c-5.38587,-1.2715 -7.23695,-3.4417 -9.20757,-8.20573c-0.07641,-0.08769 -0.1089,-0.17866 -0.1089,-0.17866c-1.37306,-3.87486 -0.22216,-7.6609 0.93661,-11.43425c0.69874,-2.78311 -0.14101,-4.58915 -1.16967,-7.05286c-0.07946,-0.10251 -0.24751,-0.3846 0.03458,-0.66669c0.35355,-0.35356 0.70711,0 0.70711,0l0.14746,0.20072c1.12967,2.71121 1.99798,4.75928 1.24383,7.78723c-1.0485,3.40078 -2.17534,6.88695 -1.10705,10.38217c0.01614,0.02903 0.02382,0.04822 0.02382,0.04822c1.9439,4.86168 3.45049,6.90835 8.73011,8.14673c2.50342,0.62511 1.889,2.79152 1.88342,4.90637l-0.00851,0.05631c0.07247,0.15816 0.04088,0.32666 0.04088,0.32666c-0.56124,2.98822 -0.70198,5.87896 -0.70198,8.9081v0.07901c1.78251,1.38192 4.3287,2.59723 4.69977,4.92874c0.21873,0.24797 0.10485,0.49065 0.02533,0.60572c-0.02846,0.14115 -0.1252,0.38331 -0.4539,0.39903l-0.08602,0.07125c-2.40073,0.73022 -4.65511,1.08682 -7.13268,1.47805c-0.68075,0.1075 -4.08911,-8.67397 -4.55739,-8.07577c-0.1905,0.24336 0.13755,1.34177 0.2007,1.62449c1.36382,2.67765 5.15165,15.34015 5.1596,18.35082c0,0 0.06569,0.23386 0.03611,0.62048c0.35109,3.6025 -2.80044,6.13287 -1.26376,9.97054c1.07157,2.57482 3.84286,3.09909 4.87652,5.68209l0.131,0.55939c0,0 0.10847,0.48809 -0.37963,0.59656z" fill="#9e9215" stroke="none" stroke-width="0.5" stroke-linecap="butt"/><path d="M306.1384,87.36935c-0.5,0 -0.5,-0.5 -0.5,-0.5v-0.50006c0,-0.75885 -0.16015,-1.41129 -0.16668,-2.1669c0.0214,-3.45941 -5.66843,-2.86784 -7.08486,-0.72276c0,0 -0.27735,0.41602 -0.69338,0.13867c-0.41602,-0.27735 -0.13868,-0.69338 -0.13868,-0.69338c1.95394,-2.90729 8.89355,-3.26289 8.91692,1.27746c-0.00813,0.73811 0.16668,1.41326 0.16668,2.16691v0.50006c0,0 0,0.5 -0.5,0.5z" fill="#000000" stroke="none" stroke-width="0.5" stroke-linecap="butt"/><path d="M342.91039,88.13903c-0.5,0 -0.5,-0.5 -0.5,-0.5l0.0068,-0.08448c-0.19575,-1.19742 -0.01077,-2.37842 -0.00034,-3.57914c1.2516,-3.83293 7.62269,-3.25987 9.80114,-0.56561c0,0 0.31235,0.39044 -0.07808,0.70279c-0.39044,0.31235 -0.70279,-0.07809 -0.70279,-0.07809c-1.57692,-1.99719 -7.02402,-2.82732 -8.03318,0.1011c0.01119,1.08937 -0.18557,2.16774 -0.00035,3.25457l0.0068,0.24887c0,0 0,0.5 -0.5,0.5z" fill="#000000" stroke="none" stroke-width="0.5" stroke-linecap="butt"/><path d="M323.12737,123.20211c0,16.65622 -12.67843,30.15876 -28.31808,30.15876c-15.63964,0 -28.31809,-13.50254 -28.31809,-30.15875c0,-16.65622 12.67845,-30.15875 28.31809,-30.15875c15.63964,0 28.31808,13.50254 28.31808,30.15876z" fill="#fbfdfa" stroke="#000000" stroke-width="1" stroke-linecap="butt"/><path d="M288.19435,157.20908c-0.076,-0.00359 -0.12897,-0.01949 -0.12897,-0.01949c-1.88177,-0.58799 -4.5724,2.21172 -2.91144,3.84957c0.70893,0.69907 1.98681,1.4089 2.82117,0.66822c1.37439,-0.80818 1.01672,-3.16795 0.31184,-4.39341zM288.40934,156.25412c0.25687,-0.03336 0.44131,0.18797 0.44131,0.18797l0.31045,0.38626c0.92557,1.70974 1.24091,4.56707 -0.61512,5.70007c-1.2899,0.96152 -3.1671,0.32668 -4.18248,-0.8767c-2.17296,-2.57527 1.23953,-6.2189 3.98922,-5.41995c0,0 0.02265,0.00679 0.05662,0.02235z" fill="#fffc51" stroke="none" stroke-width="0.5" stroke-linecap="butt"/><path d="M288.31487,157.27247c0.70488,1.22546 1.05912,3.67032 -0.31527,4.4785c-0.83436,0.74068 -2.1737,0.0209 -2.88263,-0.67817c-1.66096,-1.63785 1.09054,-4.51513 2.97231,-3.92714c0,0 0.05491,0.01701 0.13091,0.0206z" fill="#a8be04" stroke="none" stroke-width="0.5" stroke-linecap="butt"/><path d="M275.47202,84.47195c-0.002,0.00056 -0.00306,0.00082 -0.00306,0.00082c-2.49861,0.55074 -4.17844,6.08664 -2.17359,7.89473c0.5287,0.47681 1.86674,0.38953 2.53728,0.41462c2.58963,-1.61763 2.8706,-7.50198 -0.35885,-8.30935zM274.91974,83.60443c0.229,-0.39894 0.65157,-0.18766 0.65157,-0.18766l0.14502,0.08582c4.31151,1.07788 3.80295,8.23428 0.38325,10.24321c-0.9793,0.02363 -2.58125,0.1069 -3.39954,-0.57485c-2.73772,-2.28093 -0.77673,-8.39064 2.2197,-9.56652z" fill="#fffc51" stroke="none" stroke-width="0.5" stroke-linecap="butt"/><path d="M275.47803,84.42295c3.22945,0.80737 2.95269,6.79082 0.36306,8.40845c-0.67054,-0.02509 -2.03895,0.05784 -2.56765,-0.41897c-2.00485,-1.80809 -0.29892,-7.43874 2.19969,-7.98949c0,0 0.0011,-0.00026 0.0031,-0.00082z" fill="#a8be04" stroke="none" stroke-width="0.5" stroke-linecap="butt"/><path d="M371.45522,82.39548c-0.04433,0.00706 -0.07355,0.00706 -0.07355,0.00706c-4.45763,-0.02997 -0.01797,7.02439 2.53207,3.38925c0.63819,-1.96196 -0.76991,-2.17594 -1.96865,-3.06093l-0.26157,-0.11838c0,0 -0.14468,-0.07234 -0.22831,-0.21701zM371.8325,81.66433c0.16068,-0.01502 0.29824,0.05375 0.29824,0.05375l0.43905,0.23194c1.47332,1.36137 3.14803,1.59822 2.23507,4.29557c-3.91292,5.41727 -9.83507,-4.80689 -3.42319,-4.84303c0,0 0.32479,0 0.45083,0.26176z" fill="#fffc51" stroke="none" stroke-width="0.5" stroke-linecap="butt"/><path d="M371.44805,82.34601c0.08363,0.14467 0.23316,0.21655 0.23316,0.21655l0.26835,0.11853c1.19874,0.88499 2.64617,1.1729 2.00798,3.13486c-2.55004,3.63514 -7.04227,-3.49257 -2.58464,-3.4626c0,0 0.03084,-0.00026 0.07517,-0.00732z" fill="#a8be04" stroke="none" stroke-width="0.5" stroke-linecap="butt"/><path d="M360.70579,159.09472c0.84882,-2.61131 4.15926,-4.17241 6.1714,-1.38847c0.84364,1.16723 0.88854,3.48688 0.88854,4.88086c-0.02818,1.35755 -1.28724,3.52032 -2.90986,2.75081c-1.50493,-0.7137 -3.37801,-3.85729 -4.12594,-5.3509l-0.1453,-0.21098c0,0 -0.26942,-0.40414 0.12116,-0.68132zM361.61812,159.53024l0.00624,0.00957c0.60597,1.21389 2.43501,4.3878 3.63922,4.885c0.8197,0.33844 1.52589,-1.10205 1.50216,-1.8377c0,-1.16968 0.01364,-3.32473 -0.69979,-4.29615c-1.59028,-2.16538 -3.91002,-0.70371 -4.44783,1.23928z" fill="#fffc51" stroke="none" stroke-width="0.5" stroke-linecap="butt"/><path d="M366.09553,158.25063c0.71343,0.97142 0.71163,3.19481 0.71163,4.36449c0.02373,0.73565 -0.70953,2.19601 -1.52923,1.85757c-1.20421,-0.4972 -3.09216,-3.74167 -3.69813,-4.95556l-0.00619,-0.00966c0.53781,-1.94299 2.93165,-3.42222 4.52193,-1.25684z" fill="#a8be04" stroke="none" stroke-width="0.5" stroke-linecap="butt"/><path d="M357.33818,164.93965c-0.14643,0.17694 -0.39658,0.17694 -0.39658,0.17694c-1.73478,-0.00606 -3.65574,2.5923 -2.80296,4.33837c0.67929,1.39085 2.10944,1.99361 3.53995,2.16304c1.74671,0.26172 1.95866,-6.27396 0.07607,-6.68272zM356.89795,164.1171c0.14643,-0.17696 0.39659,-0.17696 0.39659,-0.17696l0.59879,0.00483c2.87568,0.91338 3.15534,8.47552 -0.2769,8.67112c-1.78674,-0.23216 -3.59913,-1.00409 -4.4017,-2.77842c-1.08893,-2.40747 1.25313,-5.67462 3.6832,-5.72057z" fill="#9966ff" stroke="none" stroke-width="0.5" stroke-linecap="butt"/><path d="M379.6244,122.16627c0,16.65622 -12.67843,30.15876 -28.31808,30.15876c-15.63964,0 -28.31809,-13.50253 -28.31809,-30.15875c0,-16.65622 12.67845,-30.15875 28.31809,-30.15875c15.63964,0 28.31808,13.50254 28.31808,30.15876z" fill="#fbfdfa" stroke="#000000" stroke-width="1" stroke-linecap="butt"/><path d="M318.50579,122.02526c0,13.41184 -10.74651,24.28428 -24.003,24.28428c-13.25649,0 -24.00301,-10.87244 -24.00301,-24.28428c0,-13.41184 10.74652,-24.28429 24.00301,-24.28429c13.25649,0 24.003,10.87245 24.003,24.28429z" fill="#3da9e8" stroke="#000000" stroke-width="1" stroke-linecap="butt"/><path d="M374.83795,121.43097c0,13.13934 -10.41068,23.7909 -23.25291,23.7909c-12.84223,0 -23.25291,-10.65155 -23.25291,-23.7909c0,-13.13935 10.41068,-23.79089 23.25291,-23.79089c12.84223,0 23.25291,10.65154 23.25291,23.79089z" fill="#3da9e8" stroke="#000000" stroke-width="1" stroke-linecap="butt"/><path d="M310.47972,121.40643c0,8.69957 -6.88448,15.75197 -15.37692,15.75197c-8.49244,0 -15.37692,-7.05239 -15.37692,-15.75197c0,-8.69957 6.88448,-15.75197 15.37692,-15.75197c8.49244,0 15.37692,7.0524 15.37692,15.75197z" fill="#000000" stroke="#000000" stroke-width="1" stroke-linecap="butt"/><path d="M367.56208,120.31876c0,9.2174 -7.09438,16.68959 -15.84573,16.68959c-8.75135,0 -15.84573,-7.47218 -15.84573,-16.68959c0,-9.2174 7.09438,-16.68959 15.84573,-16.68959c8.75135,0 15.84573,7.47218 15.84573,16.68959z" fill="#000000" stroke="#000000" stroke-width="1" stroke-linecap="butt"/><path d="M305.15416,114.82435c0,2.43381 -2.22486,4.40681 -4.96937,4.40681c-2.74451,0 -4.96937,-1.973 -4.96937,-4.40681c0,-2.43381 2.22486,-4.4068 4.96937,-4.4068c2.74451,0 4.96937,1.97299 4.96937,4.4068z" fill="#ffffff" stroke="#000000" stroke-width="1" stroke-linecap="butt"/><path d="M362.98653,114.05547c0,2.48559 -2.22487,4.50056 -4.96938,4.50056c-2.74451,0 -4.96937,-2.01497 -4.96937,-4.50056c0,-2.48559 2.22486,-4.50056 4.96937,-4.50056c2.74451,0 4.96938,2.01497 4.96938,4.50056z" fill="#ffffff" stroke="#000000" stroke-width="1" stroke-linecap="butt"/><path d="M360.09714,151.9324c-0.00096,0.00048 -0.00192,0.00096 -0.00288,0.00143l-0.00144,0.21374c0.80858,3.1233 2.86781,5.71112 4.65183,8.36247c2.47084,3.53406 2.92405,10.32245 0.31821,13.89685c-3.3847,4.21884 -9.30782,2.98806 -13.77522,0.73337c-2.88693,-2.29861 -3.65132,-5.02702 -2.43232,-8.61523c0.56619,-1.66662 1.86285,-3.01267 2.26096,-4.78129c2.21791,-2.30731 4.9599,-5.46799 5.33876,-8.67436c-0.03933,-0.06273 -0.05623,-0.11343 -0.05623,-0.11343c-0.86474,-2.67962 1.29422,-3.01434 3.44531,-2.32017l0.47663,0.62578c0,0 0.22361,0.44722 -0.22361,0.67082zM357.49921,152.33236c0,3.56641 -2.91192,7.41236 -5.50124,9.88326c-0.2898,1.72374 -1.67094,3.01838 -2.19166,4.61867c-1.03391,3.17747 -0.52867,5.4126 2.0203,7.46365c4.00718,1.97911 9.42182,3.28655 12.44573,-0.50346c2.39488,-3.06853 1.86655,-9.69145 -0.34953,-12.71472c-1.8745,-2.78859 -4.01887,-5.50347 -4.82249,-8.80999l-0.00375,-0.67951c0,0 0,-0.06126 0.02144,-0.14089c-1.09895,-0.3399 -1.9226,-0.3887 -1.92995,0.41195c0.31114,0.1066 0.31115,0.47105 0.31115,0.47105z" fill="#6af2e7" stroke="none" stroke-width="0.5" stroke-linecap="butt"/><path d="M357.49952,152.38234c0,0 -0.00195,-0.46442 -0.31309,-0.57102c0.00735,-0.80065 0.83887,-0.75148 1.93782,-0.41158c-0.02144,0.07963 -0.02145,0.14089 -0.02145,0.14089l0.00413,0.67956c0.80362,3.30652 2.98755,6.05178 4.86205,8.84037c2.21608,3.02327 2.72592,9.70701 0.33104,12.77554c-3.02391,3.79001 -8.4901,2.48487 -12.49728,0.50576c-2.54897,-2.05105 -3.07675,-4.3115 -2.04284,-7.48897c0.52072,-1.60029 1.89999,-2.92656 2.18979,-4.6503c2.58932,-2.4709 5.54919,-6.35384 5.54919,-9.92025z" fill="#b5f2ed" stroke="none" stroke-width="0.5" stroke-linecap="butt"/><path d="M344.29693,147.63091c3.29212,0.06442 7.34435,-1.0035 10.49088,-1.57695c4.21499,-0.60252 8.59767,-0.91353 12.84905,-0.86253c2.05476,0.78137 1.96038,3.01534 0.69971,4.45691c-2.12129,2.42569 -4.97753,3.7281 -8.11304,4.21066c-5.36445,0.97378 -10.3076,0.57449 -15.03126,-2.06996c-1.25626,-0.8833 -2.45788,-1.92406 -2.15355,-3.48663c-0.02713,-0.06635 -0.04102,-0.1478 -0.03333,-0.24775c0.03835,-0.49853 0.53688,-0.46018 0.53688,-0.46018c0.07295,0.00578 0.14637,0.01089 0.22024,0.01535l0.002,-0.00123c0,0 0.29433,-0.16054 0.53242,0.02231zM343.92677,148.61766l-0.03058,0.01267c-0.13824,0.94189 1.1623,1.84854 1.82859,2.31229c4.48278,2.53292 9.23528,2.85861 14.33327,1.93016c2.54315,-0.39112 5.19885,-1.33828 6.98616,-3.29836c0.67178,-0.73672 2.29368,-2.79096 0.41915,-3.39816c-4.16656,0.06888 -8.37927,0.27429 -12.51536,0.86479c-3.32984,0.60403 -7.59374,1.71102 -11.02123,1.57661z" fill="#6af2e7" stroke="none" stroke-width="0.5" stroke-linecap="butt"/><path d="M354.92833,146.99508c4.13609,-0.5905 8.41614,-0.765 12.5827,-0.83388c1.87453,0.6072 0.25494,2.67564 -0.41684,3.41236c-1.78731,1.96008 -4.45374,2.93905 -6.99689,3.33017c-5.09799,0.92845 -9.93944,0.57745 -14.42222,-1.95547c-0.66629,-0.46375 -1.96694,-1.38066 -1.8287,-2.32255l0.03059,-0.01273c3.42749,0.13441 7.72151,-1.01388 11.05135,-1.61791z" fill="#b5f2ed" stroke="none" stroke-width="0.5" stroke-linecap="butt"/><path d="M348.80114,180.78067l-8.65342,10.0667l-10.06347,-10.37349z" fill="none" stroke="#000000" stroke-width="0.5" stroke-linecap="round"/><path d="M354.03883,174.09202c-0.03989,-0.0225 -0.06422,-0.04777 -0.06422,-0.04777l-0.26152,-0.28716c-0.07637,-0.36131 -1.0748,-3.04947 0.32686,-2.70087c0.50835,0.12643 1.49186,1.87365 2.09688,2.24721c2.33932,1.46503 4.36909,-0.79123 5.53146,-2.62577c1.18987,-1.15776 3.05507,-1.16148 2.43107,0.9345c-0.43066,1.44655 -1.74248,1.94589 -2.76455,2.92514c-2.46068,1.53814 -5.14403,1.80935 -7.2507,-0.37929c0,0 -0.02432,-0.02527 -0.04529,-0.06599z" fill="#ffffff" stroke="none" stroke-width="0.5" stroke-linecap="butt"/><path d="M375.69728,145.23379c-0.14032,-1.30814 1.16745,-7.5915 1.16745,-8.75738c0,0 0,-0.5 0.5,-0.5c0.19555,0 0.16103,0.16344 0.18014,0.31791c0.02976,0.2405 0.03326,0.51136 0.03326,0.51136c0.14521,2.26222 -0.54492,8.70094 -0.96283,10.47436c-0.10579,0.44893 -0.24298,1.88954 -0.02792,3.17704c0.2949,1.76542 1.0191,3.47597 1.26735,4.07455c0.53385,1.28721 0.67474,1.58267 0.93614,2.82782c0.09847,0.46906 0.50453,1.32676 0.56309,2.44916c0.04354,0.83445 -0.23729,2.042 -0.27703,2.14095c-1.23607,3.07808 -2.41035,5.54972 -2.86705,8.96885c-0.29836,1.58673 -0.81059,3.85925 -0.01945,5.3457c0.27241,0.51182 0.63808,0.86724 0.98781,1.24937c0.63928,0.69851 1.22527,1.37334 1.09085,2.45743c-0.02051,0.16539 -0.05778,0.34142 -0.11419,0.52999c0,0 0.14222,0.5261 -0.33567,0.37906c-0.47789,-0.14704 -0.47548,-0.62493 -0.47548,-0.62493c0.48575,-1.52497 -1.06437,-2.24275 -1.73478,-3.45095c-0.92478,-1.66664 -0.72316,-4.24328 -0.38647,-6.04395c0.49773,-3.73987 1.75172,-6.70793 3.12331,-10.13812l0.01111,-0.39245c0,-0.80546 -0.36318,-1.94784 -0.84142,-3.24246c-0.69829,-1.8903 -1.64188,-4.10517 -2.05837,-6.06974c-0.58107,-2.7409 0.3215,-4.92526 0.24016,-5.68358z" fill="#9e9215" stroke="none" stroke-width="0.5" stroke-linecap="butt"/><path d="M289.82885,170.9079c0.00045,-0.00961 0.00155,-0.02534 0.00419,-0.04538c0.04501,-0.97951 0.39269,-3.23767 -0.53604,-3.7752c-2.03393,-1.1772 -4.81906,1.3141 -5.65198,2.90515c-0.8224,1.73593 -1.56943,3.9485 -1.11088,5.90801c0.59323,2.535 3.76619,1.94602 4.89909,0.43475c1.20099,-1.67745 1.70993,-3.49587 2.39562,-5.42732zM290.74073,171.32818c-0.70629,1.99516 -1.25928,3.85543 -2.50064,5.59771c-1.63916,2.18455 -5.84709,2.55693 -6.67838,-0.792c-0.53974,-2.17442 0.27434,-4.65774 1.18928,-6.58953c1.05117,-1.96719 5.52239,-5.62627 7.56896,-2.77939c0.83534,1.162 0.50853,2.92928 0.50853,4.26853c0,0 0,0.15672 -0.08774,0.29468z" fill="#fffc51" stroke="none" stroke-width="0.5" stroke-linecap="butt"/><path d="M289.87305,171.01703c-0.70647,1.99 -1.26424,3.93001 -2.50164,5.65831c-0.54002,0.72037 -1.54089,1.23467 -2.52115,1.32077c-1.13855,0.09999 -2.24926,-0.37771 -2.57771,-1.7812c-0.47245,-2.01891 0.29467,-4.3693 1.142,-6.15785c0.85817,-1.63928 3.79328,-4.21601 5.88886,-3.00313c0.95688,0.55382 0.62014,2.90663 0.57377,3.91583c-0.00272,0.02065 -0.00367,0.03736 -0.00413,0.04726z" fill="#a8be04" stroke="none" stroke-width="0.5" stroke-linecap="butt"/><path d="M272.78407,100.30271l3.46238,-6.54426l20.49638,-2.0726c0,0 -1.11827,1.57719 -2.01731,2.22754c-1.22445,0.88573 -4.65958,2.60232 -4.65958,2.60232c0,0 -5.68056,3.17583 -8.81955,3.75914c-2.58467,0.4803 -8.46231,0.02787 -8.46231,0.02787z" fill="#fffd4d" stroke="#fffd4d" stroke-width="0.5" stroke-linecap="butt"/><path d="M268.71443,99.88928c0.15812,-0.47434 0.63245,-0.31623 0.63245,-0.31623l0.05619,0.04578c3.3569,0 6.72263,0.6871 10.08342,0.27389c4.74896,-0.95127 9.70162,-2.17372 13.64568,-5.12221c2.84603,-1.58295 6.3577,-5.17203 7.07001,-8.47509c0,0 0.10847,-0.48809 0.59656,-0.37963c0.48809,0.10846 0.37963,0.59656 0.37963,0.59656c-0.81117,3.5626 -4.39287,7.37185 -7.50212,9.09718c-4.03584,3.03767 -9.16222,4.29822 -14.03098,5.2705c-3.42051,0.41524 -6.82818,-0.26121 -10.2422,-0.26121l-0.37241,-0.09709c0,0 -0.47435,-0.15811 -0.31623,-0.63245z" fill="#000000" stroke="none" stroke-width="0.5" stroke-linecap="butt"/><path d="M366.86704,100.69689c-3.27658,-0.67449 -9.80617,-3.51585 -9.80617,-3.51585c0,0 -3.13564,-2.982 -4.41376,-4.00618c-0.93846,-0.752 -1.65569,-2.57574 -1.65569,-2.57574l21.39473,2.39659l4.66424,8.39813c0,0 -7.48539,-0.14157 -10.18335,-0.69695z" fill="#fffd4d" stroke="#fffd4d" stroke-width="0.5" stroke-linecap="butt"/><path d="M380.09949,101.77125l-0.37241,0.09709c-3.41402,0 -6.82169,0.67645 -10.2422,0.26121c-4.86876,-0.97228 -9.99514,-2.23283 -14.03098,-5.2705c-3.10925,-1.72533 -6.69095,-5.53458 -7.50212,-9.09718c0,0 -0.10846,-0.4881 0.37963,-0.59656c0.48809,-0.10846 0.59656,0.37963 0.59656,0.37963c0.71231,3.30306 4.22398,6.89214 7.07001,8.47509c3.94406,2.94849 8.89672,4.17094 13.64568,5.12221c3.36079,0.41321 6.72652,-0.27389 10.08342,-0.27389l0.05619,-0.04578c0,0 0.47433,-0.15811 0.63245,0.31623c0.15812,0.47434 -0.31623,0.63245 -0.31623,0.63245z" fill="#000000" stroke="none" stroke-width="0.5" stroke-linecap="butt"/><path d="M318.74665,181.20147l-8.52363,10.0667l-10.19326,-10.37349z" fill="none" stroke="#000000" stroke-width="0.5" stroke-linecap="round"/><path d="M331.11152,195.8785c0,0 0.05208,1.35916 0.12858,1.92011c0.06211,0.4555 -2.97517,3.14996 -2.97517,3.14996l-3.7813,2.84659l-6.03309,-5.86314v-1.88357l2.54919,-8.36985l0.04248,-2.71913l-2.25179,-2.80411l1.23211,-1.9119l0.25492,-0.12746l-0.76475,-0.42487l0.16994,-1.91189l9.30455,-0.12746l-0.25491,2.42174l1.40205,2.25178l-2.67665,2.88909l0.08497,1.99687l3.56887,8.66725z" fill="#ff0000" stroke="#000000" stroke-width="0.5" stroke-linecap="round"/><path d="M275.79823,180.24863c0,0 -0.68734,-1.63811 -0.6887,-2.20377c-0.00178,-0.74435 0.67892,-1.87528 0.67892,-1.87528c0,0 -0.63598,0.00604 0.3453,0.01466c0.91517,0.00804 1.29467,-0.0691 4.32403,0.37117c0.93779,0.13629 3.64542,1.81748 4.76479,1.82719c0.64999,0.00564 3.44432,-2.19559 4.14557,-2.19161c25.4438,0.14443 81.26421,0.81201 81.26421,0.81201l6.1856,1.57517c0,0 -0.79132,3.13491 -2.47718,5.01754c-0.6818,0.76138 -1.56475,0.85588 -2.89365,0.95675c-1.2815,0.09728 -2.99388,0.22959 -4.48124,-0.57505c-0.58323,-0.31552 -1.99286,-1.68717 -3.40399,-2.12196c-1.32849,-0.40933 -3.87687,-0.21144 -4.9203,-0.20857c-0.07615,0.00021 -0.45513,0.18855 -0.51062,0.18995c-0.38152,0.00958 -0.31995,0.03586 -0.5896,0.24247c-0.68446,0.52444 -1.46171,1.03027 -1.97854,0.85455c-0.67165,-0.22836 -3.0696,-1.70667 -4.15944,-1.46715c-2.06128,0.45303 -4.75538,1.76761 -8.60744,1.87104c-1.08265,0.02907 -6.52583,-1.60692 -7.66007,-1.57431c-1.20538,0.03465 -2.93101,0.72749 -4.17258,0.74233c-2.79661,0.03343 -5.9867,-1.08326 -8.84506,-1.0102c-4.06169,0.10381 -6.37667,2.85667 -10.15908,2.84486c-2.1101,-0.00659 -4.97549,-2.51923 -7.10233,-2.43885c-2.76073,0.10434 -5.52566,1.3803 -7.47088,1.81471c-1.8856,0.4211 -3.94298,0.12461 -5.84152,0.15213c-0.99448,0.01441 -2.57648,-2.21291 -3.59551,-2.14468c-1.8392,0.12313 -2.31055,1.28579 -3.45761,1.95787c-1.11151,0.65125 -2.90834,0.81134 -4.06639,0.99816c-0.8385,0.13527 -1.33713,-0.53265 -1.89963,-0.89138c-0.59251,-0.37787 -1.22692,-0.45134 -1.22692,-0.45134z" fill="#fffd4d" stroke="none" stroke-width="0" stroke-linecap="butt"/><path d="M305.67969,181.22805c2.75354,1.11079 6.25074,3.86727 9.37327,2.29925c1.28022,-0.41666 1.96248,-1.58689 3.2251,-1.98262c2.66495,-0.83524 6.13303,-0.06807 8.84045,0.12015c1.07259,0.18882 2.59133,0.87164 3.69578,0.66008c1.666,-0.31913 2.83908,-1.39672 4.67501,-1.22467c1.68918,0.1583 2.94961,1.11049 4.48914,1.66907c1.67254,0.61064 3.80288,0.58037 5.54978,0.17521l0.10127,-0.05051c1.85844,-1.01337 3.5812,-1.54359 5.3555,-1.82081c1.83694,-0.287 2.72908,1.44726 4.88426,1.44726c1.00568,0 3.29641,-1.91343 4.5235,-1.90425c0.95334,0.00713 1.8683,0.1184 2.58141,0.49133c2.53008,1.32313 3.13847,2.88665 6.33833,2.88665c2.63903,0 7.28252,-0.74307 8.08534,-3.74602c0,0 0.03514,-0.53059 0.51752,-0.39903c0.48238,0.13156 0.35082,0.61395 0.35082,0.61395c-0.96511,3.4815 -4.61997,4.4829 -7.74844,4.4829c-1.04404,0 -2.95523,-0.03464 -3.9163,-0.53193c-1.4396,-0.7449 -2.94417,-2.22063 -4.4987,-2.61294c-0.5217,-0.13166 -1.07513,-0.20003 -1.64045,-0.23261c-1.14109,-0.06575 -3.39318,2.01446 -4.46804,2.01446c-2.07733,0 -2.9339,-1.94756 -4.73664,-1.63372c-1.66292,0.2895 -3.21749,0.80135 -4.91967,1.69945c-0.07829,0.08765 -0.16593,0.13147 -0.16593,0.13147l-0.1961,0.08473c-0.03418,0.00845 -0.06847,0.01676 -0.1029,0.02496l-0.06173,0.03094c0,0 -0.14638,0.07318 -0.31352,0.05208c-1.88657,0.38667 -4.07984,0.38158 -5.86104,-0.26377c-1.44448,-0.52635 -2.65106,-1.4642 -4.22988,-1.61228c-1.71638,-0.16098 -2.84133,0.93608 -4.41903,1.21291c-1.26751,0.2224 -2.75959,-0.43439 -3.99196,-0.65246c-2.53157,-0.18541 -5.92738,-0.96673 -8.4101,-0.16111c-1.1873,0.38527 -1.90564,1.53149 -3.1501,1.95501c-3.44837,1.71704 -7.07691,-1.08661 -10.12734,-2.29465c0,0 -0.01019,-0.00408 -0.02695,-0.01253l-0.10525,-0.00443c-3.89397,0.58833 -7.22749,2.52376 -11.16571,2.52376c-1.18556,0 -2.53691,0.15305 -3.6162,-0.43697c-0.74485,-0.4072 -1.00124,-1.89748 -1.83917,-1.76152c-1.59823,0.25934 -3.43021,1.82083 -5.1144,2.28418c-5.21751,1.74143 -8.6809,-2.4541 -8.6809,-7.44308c0,-2.48545 2.54532,-7.86092 0.41431,-9.87896c0,0 -0.35355,-0.35355 0,-0.70711c0.35355,-0.35356 0.70711,0 0.70711,0c2.51463,2.60969 -0.12142,7.5122 -0.12142,10.58606c0,4.35165 2.81517,8.00943 7.39111,6.48599c1.41242,-0.38154 4.17213,-2.46705 5.49311,-2.32313c0.76582,0.08344 1.49508,1.46299 2.2324,1.88147c0.88389,0.50167 2.16043,0.31306 3.13405,0.31306c3.85639,0 7.18803,-1.91421 11.01365,-2.51213l0.29032,-0.00581c0,0 0.10746,0 0.22274,0.04981c0.08395,0.0094 0.14259,0.03285 0.14259,0.03285z" fill="#9e9215" stroke="none" stroke-width="0.5" stroke-linecap="butt"/><path d="M336.97521,177.07696l0.32987,0.44177c2.15701,3.87004 4.92552,-0.10463 4.92552,-2.98669c0,0 0,-0.5 0.5,-0.5c0.5,0 0.5,0.5 0.5,0.5c0,3.81134 -4.08602,8.36866 -6.76454,3.53077l-0.29084,-0.38585c0,0 -0.3,-0.4 0.1,-0.7c0.4,-0.3 0.7,0.1 0.7,0.1z" fill="#000000" stroke="none" stroke-width="0.5" stroke-linecap="butt"/><path d="M323.25604,176.25449c3.79291,0.63413 3.77777,-6.26833 3.74964,-7.85614c-0.01241,-0.70019 -0.77625,-2.55898 0.35849,-2.55898c0.75707,0 0.64159,4.74805 0.64151,4.85857c-0.00223,2.86329 -1.38952,6.31195 -4.68876,6.55672c-3.64538,0.27044 -3.99899,-4.596 -3.66987,-6.92499c0.03,-0.21227 0.11542,-1.46053 0.19214,-2.11632c0.0002,0.50961 0.04535,1.0078 0.16361,1.46812c0.05831,0.22695 0.15915,0.37953 0.2851,0.47231c0.06662,0.52802 0.14945,1.0001 0.24343,1.38669c0.01011,0.74364 0.09423,1.43432 0.30123,2.00804c0.09736,1.31961 0.64243,2.4082 2.42348,2.70597z" fill="#000000" stroke="none" stroke-width="0.5" stroke-linecap="butt"/><path d="M311.22848,177.20128c0.4,0.3 0.1,0.7 0.1,0.7l-0.29084,0.38585c-2.67852,4.83789 -6.76454,0.28057 -6.76454,-3.53078c0,0 0,-0.5 0.5,-0.5c0.5,0 0.5,0.5 0.5,0.5c0,2.88206 2.76851,6.85673 4.92552,2.98669l0.32987,-0.44177c0,0 0.3,-0.4 0.7,-0.1z" fill="#000000" stroke="none" stroke-width="0.5" stroke-linecap="butt"/><path d="M304.24503,246.61735l-6.44372,0.34095l0.05683,-2.21611l6.38689,-0.25002z" fill="#00c4ff" stroke="#000000" stroke-width="0.5" stroke-linecap="round"/><path d="M297.77862,249.83352l6.34142,-0.1932l0.12501,2.12518l-6.50054,0.20455z" fill="#ff0000" stroke="#000000" stroke-width="0.5" stroke-linecap="round"/><path d="" fill="#52402d" stroke="none" stroke-width="0.5" stroke-linecap="butt"/><path d="" fill="#52402d" stroke="none" stroke-width="0.5" stroke-linecap="butt"/><path d="" fill="#000000" stroke="none" stroke-width="0.5" stroke-linecap="butt"/><path d="M366.09553,158.25067c0.71343,0.97142 1.12542,2.78102 1.12542,3.9507c0.0104,0.32242 -0.35551,1.23982 -0.73874,1.76479c-0.09175,0.12568 -0.63299,-2.00895 -1.59996,-3.47974c-0.59303,-0.90202 -1.27663,-1.86638 -1.66842,-2.36852c-0.28629,-0.36692 -0.43829,-0.35796 -0.17849,-0.5384c0.34697,-0.24098 0.92257,-0.393 1.45652,-0.30818c0.6505,0.10333 1.26154,0.51348 1.60369,0.97936z" fill="#a8be04" stroke="none" stroke-width="0.5" stroke-linecap="butt"/><path d="M353.95799,267.5226l-1.25359,1.0226l-1.96994,0.60152l-1.37299,-0.06016l-1.31329,-1.02259l-0.41787,-1.2632l0.29847,-41.72272h6.20829l0.17908,40.8806z" fill="#fffd4d" stroke="#000000" stroke-width="0.5" stroke-linecap="round"/><path d="M353.9123,267.85381l-1.25359,0.58524l-1.96994,0.34426l-1.37299,-0.03443l-1.31329,-0.58524l-0.41787,-0.72295l0.29847,-27.38445h6.20829l0.17908,26.9025z" fill="#ffffff" stroke="#000000" stroke-width="0.5" stroke-linecap="round"/><path d="M347.71185,244.22844l6.38689,0.25002l0.05683,2.21611l-6.44372,-0.34095z" fill="#00c4ff" stroke="#000000" stroke-width="0.5" stroke-linecap="round"/><path d="M354.21239,251.70635l-6.50054,-0.20455l0.12501,-2.12518l6.34142,0.1932z" fill="#ff0000" stroke="#000000" stroke-width="0.5" stroke-linecap="round"/><path d="M375.62813,208.41519l-1.1576,-48.86385l1.63409,-0.12333l3.13927,-0.04361c0,0 0.80124,41.78282 0.90517,47.20209c0.02162,1.12745 0.03918,2.043 0.03918,2.043z" fill="#fffd4d" stroke="#000000" stroke-width="0.5" stroke-linecap="round"/><path d="M375.62813,208.41519l-1.1576,-48.86385l1.63409,-0.12333l3.13927,-0.04361c0,0 0.80124,41.78282 0.90517,47.20209c0.02162,1.12745 0.03918,1.84077 0.03918,1.84077z" fill="#fffd4d" stroke="#000000" stroke-width="0.5" stroke-linecap="round"/><path d="M297.64072,266.22237l0.17908,-40.8806h6.20829l0.29847,41.72272l-0.41787,1.96587l-1.31329,1.02259l-1.37299,0.06016l-1.96994,-0.60152l-1.25359,-1.0226z" fill="#fffd4d" stroke="#000000" stroke-width="0.5" stroke-linecap="round"/><path d="M271.80681,208.52622c0,0 -0.0169,-0.90461 -0.03771,-2.01858c-0.10005,-5.35447 -0.87141,-46.63765 -0.87141,-46.63765l3.13646,-0.19073h1.63641l0.68184,48.29597z" fill="#fffd4d" stroke="#000000" stroke-width="0.5" stroke-linecap="round"/><path d="M271.80681,208.12659c0,0 -0.0169,-0.50501 -0.03771,-1.61898c-0.10005,-5.35447 -0.87141,-46.63765 -0.87141,-46.63765l3.13646,-0.19073h1.63641l0.68184,48.29597z" fill="#fffd4d" stroke="#000000" stroke-width="0.5" stroke-linecap="round"/><path d="" fill="#fffd4d" stroke="#000000" stroke-width="0" stroke-linecap="butt"/><path d="" fill="#000000" stroke="none" stroke-width="0.5" stroke-linecap="butt"/><path d="M377.22194,182.77066c0,3.13981 -76.03944,0.22619 -98.31212,0.49532c-0.55483,0.00671 -1.07324,0.76001 -2.05629,-1.73708c-0.70713,-1.79619 -1.41525,-3.37572 -1.20088,-6.4222c0.08879,-1.26179 1.65168,-3.65246 1.35195,-5.0234c-0.46781,-2.13967 -4.09942,-4.3747 -5.34917,-6.58782c-1.10522,-1.95718 0.14274,-3.89722 -0.03384,-5.73901c-0.19352,-2.01847 1.86804,-3.36909 1.68422,-5.52865c-0.15079,-1.77158 -1.40405,-4.33248 -1.54816,-6.17033c-0.1851,-2.36059 -3.82276,-11.3016 -3.96575,-13.72277c-0.06109,-1.03453 6.90346,7.09066 6.85582,6.05482c-0.57115,-12.41742 -5.25397,-19.57733 -8.10104,-25.25588c-0.90963,-1.81428 -1.24702,-3.76599 -1.70336,-5.31439c-0.79214,-2.68782 1.48724,-10.02849 1.42325,-10.13941c-0.43154,-0.74805 0.08355,-1.99643 -0.1072,-2.75177c-0.57434,-2.27429 -1.17984,-3.89934 -2.24384,-4.56634c-2.02581,-1.26994 -2.68201,-2.83343 -2.68201,-5.0926c0,-1.76028 0.20831,-4.69018 1.51725,-5.91503c1.54634,-1.447 5.18654,-1.98494 7.71042,-1.98494c1.07771,0 2.67474,0.73359 7.89818,2.97968c0.32165,0.13831 1.97335,-0.07325 3.66974,-0.29216c1.79998,-0.23228 7.65061,-3.97311 8.01573,-3.81275c0.79417,0.34881 4.81901,-1.46242 5.64241,-1.07828c1.09643,0.51151 4.16089,0.62011 5.42723,1.07805c1.63385,0.59083 3.38246,2.45421 5.21439,2.96896c1.23353,0.3466 13.56873,-4.01636 14.86824,-3.71081c4.43327,1.04239 6.04815,1.48354 9.86744,2.52291c1.96803,0.53558 10.90996,-2.98338 12.78574,-2.45564c2.55574,0.71904 5.48055,0.96038 11.12603,1.7451c1.86252,0.25889 6.33717,-1.77548 8.43844,-1.43172c1.50627,0.24641 6.83346,0.72566 8.31999,1.648c0.12315,0.07641 2.45152,-0.57209 3.35273,-1.25951c1.07327,-0.81867 5.51645,-1.12996 6.89476,-0.90031c1.70961,0.28485 3.31999,3.80165 4.00285,5.41164c1.17326,2.76618 -0.92337,8.1763 -1.97523,11.30969c-0.4771,1.42124 -0.29244,2.37408 -0.27351,2.39935c0.33404,0.44588 -0.24528,0.51158 -1.44082,0.31606c-1.06579,-0.1743 2.21315,-0.46624 1.54144,4.09817c-0.18878,1.28278 0.47267,3.84319 -0.07474,5.65499c-1.024,3.38918 -3.46609,6.50208 -3.82445,10.22532c-0.43117,4.47971 -1.48697,10.67917 -1.10701,15.55096c0.28029,3.5938 -1.48215,3.60694 -1.64929,7.36961c-0.09159,2.06174 -1.08756,3.80511 -1.20447,5.84314c-0.09446,1.64675 -0.0851,4.93979 -0.18419,6.56471c-0.05686,0.93238 1.26182,2.10197 1.21958,3.02143c-0.06461,1.40646 1.41917,4.44741 1.37181,5.81125c-0.01623,0.4674 0.36082,1.54828 0.29644,1.98067c-0.29132,1.95657 -1.39219,2.97845 -1.49872,4.85519c-0.15273,2.69064 -1.90346,4.57689 -1.92439,6.6979c-0.02778,2.81487 0.2206,3.89352 1.578,5.11846c1.84901,1.66858 0.38641,5.09534 0.38641,5.17145z" fill="#fffd4d" stroke="none" stroke-width="NaN" stroke-linecap="butt"/><g fill="#000000" stroke="none" stroke-width="0.5" stroke-linecap="butt"><path d="M336.81514,172.81048l0.32987,0.44177c2.15701,3.87004 4.92552,-0.10463 4.92552,-2.98669c0,0 0,-0.5 0.5,-0.5c0.5,0 0.5,0.5 0.5,0.5c0,3.81134 -4.08602,8.36866 -6.76454,3.53077l-0.29084,-0.38585c0,0 -0.3,-0.4 0.1,-0.7c0.4,-0.3 0.7,0.1 0.7,0.1z"/><path d="M310.75038,172.3352c0.4,0.3 0.1,0.7 0.1,0.7l-0.29084,0.38585c-2.67852,4.83789 -6.76454,0.28057 -6.76454,-3.53078c0,0 0,-0.5 0.5,-0.5c0.5,0 0.5,0.5 0.5,0.5c0,2.88206 2.76851,6.85673 4.92552,2.98669l0.32987,-0.44177c0,0 0.3,-0.4 0.7,-0.1z"/><path d="M339.61165,172.92849c-0.5574,0.15564 -0.74321,-0.31128 -0.74321,-0.31128l0.02551,-0.01576c-0.40849,-0.46145 -0.66633,-0.94426 -1.01934,-1.43537c-3.92454,-5.19089 -8.9843,-5.98018 -15.86092,-5.98412c-5.71776,0.48477 -10.35929,2.88241 -13.58012,6.93093c0,0 -0.32593,0.40951 -0.81481,0.1365c-0.48889,-0.27302 -0.16297,-0.68253 -0.16297,-0.68253c3.4288,-4.30654 8.4068,-6.86326 14.49936,-7.36804c7.32358,-0.00403 12.73267,0.96243 16.91908,6.44976c0.33158,0.46437 0.57038,0.93337 0.95982,1.36226l0.14921,0.29509c0,0 0.18581,0.4669 -0.3716,0.62255z"/></g><path d="M327.3241,151.06644c0,9.87703 1.04669,17.63277 -0.12045,22.06136c-0.60813,2.30749 -2.40013,4.00313 -4.01077,4.00313c-4.70182,0 -3.18373,-8.7657 -3.18373,-23.78907c0,-0.38707 0.00316,-4.86915 0.0094,-5.25448c0.23579,-14.57093 -0.95889,-27.36746 3.62179,-27.36746c0.74532,0 1.64693,-0.41502 2.13163,0.29282c2.57304,3.75754 1.55212,17.41179 1.55212,30.05371z" fill="#fff649" stroke="none" stroke-width="0" stroke-linecap="butt"/><path d="M320.26025,161.55623c0.02855,0.01631 0.05614,0.03366 0.08281,0.052c-0.24376,0.70416 -0.01953,1.84725 -0.07027,2.66225c-0.00356,0.03974 -0.00684,0.07992 -0.00985,0.12051c-0.14375,1.40267 -0.69405,3.60145 -0.26013,5.29045c0.11395,0.44353 0.3904,0.60307 0.69907,0.58716c0.04419,1.09035 0.07565,2.23375 0.00176,3.19351c-0.02027,0.2633 -0.15015,0.5 -0.5,0.5c-0.66748,0 -0.72313,-2.59819 -0.58015,-6.32102c0.03106,-0.80865 -0.10199,-5.66272 0.20585,-5.83863z" fill="#000000" stroke="none" stroke-width="0.5" stroke-linecap="butt"/><path d="M319.61163,164.04456c0.05108,-0.58536 0.11243,-2.19635 0.08628,-2.80448c-0.01733,-0.40305 0.0636,-0.41457 0.11942,-0.49193c0.24502,-0.33958 0.93735,-0.15371 0.9375,0.33571c0.00101,3.24552 -0.30466,6.50714 0.01828,9.73655c0.00208,0.01853 0.00315,0.03736 0.00315,0.05644c0,0.05106 -0.00765,0.10033 -0.02188,0.14673c-0.5152,3.41875 -0.90185,2.83303 -1.06793,0.94493c-0.10881,-1.23701 -0.07401,-3.03303 -0.08937,-4.6282c-0.01472,-1.52935 -0.03345,-2.74568 0.01455,-3.29576z" fill="#000000" stroke="none" stroke-width="0.5" stroke-linecap="butt"/><path d="M327.28738,169.05165c-0.5,0 -0.5,-0.5 -0.5,-0.5v-0.07143c0,-1.87882 -0.14286,-3.75508 -0.14286,-5.64313c0,-3.59541 0,-7.19082 0,-10.78623c0,0 0,-0.04738 0.01458,-0.11297v-0.38158c0,-4.59215 -0.00433,-9.18433 0.00062,-13.77648c-0.51718,-5.10543 0.17703,-10.95271 -0.80135,-16.05993c-4.05118,-3.53502 -5.0703,2.63967 -5.23233,5.77842c0.15662,0.16506 0.12931,0.41083 0.12931,0.41083c-0.52436,4.6994 -0.14695,9.61965 -0.14695,14.34623c0,5.14973 0.14986,10.31786 0.15001,15.45154c0,1.12605 0,2.25209 0,3.37814c-0.83518,0.44457 -0.41827,2.10392 -0.48561,3.18546c-0.00356,0.03974 -0.00684,0.07992 -0.00985,0.12051c-0.14375,1.40267 -0.69405,3.60145 -0.26013,5.29045c0.0583,0.22693 0.15915,0.37953 0.28508,0.47231c0.06662,0.52802 0.14945,1.00009 0.24343,1.38668c0.00315,0.23187 0.0135,0.4586 0.03252,0.67823c-0.07193,0.0532 -0.17048,0.08963 -0.30545,0.08963c-0.5,0 -0.5,-0.5 -0.5,-0.5c0,-3.21221 0,-6.7301 0,-10.11731c0,-1.35844 0,-2.69585 0,-3.98409c0.00016,-5.13358 -0.15001,-10.30193 -0.15001,-15.45154c0,-4.54855 -0.33827,-9.26742 0.08689,-13.80807c-0.0869,-0.13763 -0.08689,-0.29334 -0.08689,-0.29334c0,-4.09785 2.44493,-11.00521 7.55131,-6.66724c0.21886,5.39548 -0.03283,10.86394 0.49878,16.24329c0.00458,4.60876 0.00062,9.21753 0.00062,13.82629v0.45004c0,0 0,0.04738 -0.01458,0.11297c0,3.57259 0,7.14518 0,10.71777c0,1.88827 0.14286,3.76381 0.14286,5.64313v0.07143c0,0 0,0.5 -0.5,0.5z" fill="#000000" stroke="none" stroke-width="0.5" stroke-linecap="butt"/><path d="M276.2231,212.98824v-15.50258c0,0 93.01445,-0.64968 96.78396,-0.66259c0.2346,-0.00081 0.59508,0.49662 0.59508,0.49662l0.38725,15.66854z" fill="#c7941d" stroke="#000000" stroke-width="0" stroke-linecap="butt"/><path d="M373.13544,181.35355l0.0577,15.57752l-95.39679,0.37453l-1.60097,0.02202l-0.39719,-20.04728l98.27964,1.47812z" fill="#ffffff" stroke="#000000" stroke-width="0.5" stroke-linecap="round"/><path d="" fill="#fffc4d" stroke="none" stroke-width="0.5" stroke-linecap="butt"/><path d="" fill="#fffc4d" stroke="none" stroke-width="0.5" stroke-linecap="butt"/><path d="" fill="#ff0000" stroke="none" stroke-width="0" stroke-linecap="butt"/><path d="" fill="#ffd71b" stroke="none" stroke-width="0" stroke-linecap="butt"/><path d="" fill="#ffd71b" stroke="none" stroke-width="0" stroke-linecap="butt"/><path d="" fill="#99cd00" stroke="none" stroke-width="0.5" stroke-linecap="butt"/><path d="M303.59621,268.25562l-1.01481,1.07451l-1.25359,0.29847l-1.73116,-0.65664l-1.1939,-1.95627" fill="none" stroke="#000000" stroke-width="0.5" stroke-linecap="round"/><path d="M297.6864,267.92513l0.17908,-27.60517h6.20829l0.29847,28.08712l-0.41787,0.72295l-1.31329,0.58524l-1.37299,0.03443l-1.96994,-0.34426l-1.25359,-0.58524z" fill="#ffffff" stroke="#000000" stroke-width="0.5" stroke-linecap="round"/><path d="M311.54303,199.93053l29.39268,0.21299l0.07099,6.53171h-29.46368z" fill="#000000" stroke="#000000" stroke-width="0.5" stroke-linecap="round"/><path d="M276.71585,197.55056l20.82368,0.06l37.46274,-0.05969l38.4784,-0.30477l0.65049,15.53718l-97.63371,0.09196l-0.07774,-1.59452l-0.37501,-30.82876" fill="none" stroke="#000000" stroke-width="0.5" stroke-linecap="round"/><path d="M305.80584,199.93055l0.071,6.88669h-22.57699v-6.7447z" fill="#000000" stroke="#000000" stroke-width="0.5" stroke-linecap="round"/><path d="M368.85871,199.93053l0.071,6.7447l-23.42895,-0.071l0.071,-6.74469z" fill="#000000" stroke="#000000" stroke-width="0.5" stroke-linecap="round"/><path d="M320.72445,181.69896c0,-0.27614 0.22386,-0.5 0.5,-0.5c0.27614,0 0.5,0.22386 0.5,0.5c0,0.27614 -0.22386,0.5 -0.5,0.5c-0.27614,0 -0.5,-0.22386 -0.5,-0.5z" fill="#9e9215" stroke="none" stroke-width="0.5" stroke-linecap="butt"/><path d="M265.12791,93.46778c-0.48809,0.10846 -0.59656,-0.37963 -0.59656,-0.37963l-0.08647,-0.39766c-0.17756,-1.7644 -2.11446,-2.62316 -2.93863,-4.04188c-1.21679,-2.09456 -0.26502,-4.72773 -0.26218,-7.04725c0.65033,-5.53464 5.89115,-5.1296 10.02834,-4.48348c3.29152,1.00451 7.17835,3.15424 10.67563,2.06213c0,0 0.10247,-0.03153 0.22711,-0.01794l0.11416,-0.06101c1.10001,-0.3368 2.14547,-0.88605 3.11225,-1.50441c4.39024,-1.83334 8.63689,-4.29274 13.65248,-2.6238c1.60621,0.40614 3.53786,1.87087 5.80418,2.64378c1.95462,0.6666 4.37775,0.67222 4.46111,0.77003c0.88824,-0.01567 1.57281,-0.35057 2.37201,-0.74882c4.7858,-1.71308 8.16647,-3.35364 13.24034,-1.66631c3.88439,1.61564 6.64616,1.89486 10.6516,0.66143c0,0 5.92536,-1.7297 9.82971,-1.72136c2.14756,0.30367 5.39802,1.1996 7.65147,1.64502c1.13225,0.2238 2.36999,0.19993 2.36999,0.19993c1.62101,-0.02275 5.44017,-1.79998 6.97109,-1.84072c2.07468,-0.0552 2.47365,0.34935 4.32749,0.7765c2.00295,0.63993 3.84978,1.2548 5.86962,1.26051c0.07076,-0.06999 0.14076,-0.10499 0.14076,-0.10499c3.35359,-1.67468 7.39707,-3.2848 10.83889,-0.99808c3.49975,2.25299 4.78075,7.65379 2.97701,11.26126c-0.7469,1.49279 -3.04805,4.79439 -2.93355,6.62597c0.14623,0.07166 0.22789,0.20436 0.22789,0.20436c0.70737,1.17204 1.02067,2.56915 1.07404,4.02981c0.03727,0.09104 0.05714,0.20781 0.00771,0.33302c0.02472,2.46289 -0.65228,5.06996 -1.39934,7.06072c-0.56263,1.29459 -1.02504,2.64517 -1.45355,4.00097c0.03258,0.0215 -0.4049,1.30727 -0.43245,1.39756c-0.67713,3.02042 -2.10906,5.91352 -2.54213,8.96431c-0.26993,1.90153 0.01011,4.0596 0.00108,5.97714c0.93197,3.66589 -0.99266,1.44512 -0.40159,6.59068c0.0307,0.26723 -1.2486,3.41416 -1.0792,3.66247c0,0 0.30785,2.8673 -0.10817,3.14466c-0.41602,0.27735 -0.3641,0.37353 -0.3641,0.37353c-0.62804,-0.95973 0.53209,-6.5596 0.59242,-6.93975c0.17999,-1.13407 1.17678,-1.70326 1.121,-2.37824c-0.12543,-1.51786 -0.30991,-2.53168 -0.75287,-4.33118c-0.02149,-5.26793 0.86311,-9.58855 2.33304,-14.48549l0.01348,-0.1137c0.64734,-2.08926 1.27161,-4.22775 2.14602,-6.23802c0.68591,-1.83044 1.38195,-4.38438 1.35275,-6.74293l-0.0851,-0.14981c-0.10683,-1.44442 -1.04834,-2.65304 -1.21927,-4.02754c-0.27161,-2.18415 2.07046,-5.53052 3.00747,-7.40577c1.56743,-3.13487 0.46953,-8.03227 -2.6284,-9.97614c-3.03499,-2.03091 -6.67984,-0.51828 -9.65344,0.95864c-0.10963,0.21643 -0.37331,0.26037 -0.37331,0.26037l-0.31905,0.04628c-2.09942,0 -4.85231,-1.20583 -6.93426,-1.35454c-1.66428,-0.38466 -3.96823,-0.50154 -6.02262,0.00532c-1.17054,0.2888 -3.31618,1.28342 -3.31618,1.28342c-3.18076,0.72357 -7.51484,-1.46384 -11.07552,-1.9781c-3.86372,0.00939 -5.87822,1.09166 -9.61094,1.81137c0,0 -0.11938,0.02273 -0.25164,-0.01306c-3.99993,1.15526 -6.95309,0.84767 -10.8985,-0.79935c-4.80018,-1.6037 -7.96889,0.03607 -12.49719,1.64956c-0.94619,0.47482 -1.77232,0.8268 -2.84105,0.82962l-0.34704,-0.0445c0,0 -0.08999,-0.01286 -0.18775,-0.06598c-3.35769,0.46277 -6.7615,-2.56062 -9.93355,-3.34377c-4.72058,-1.57634 -8.77949,0.83278 -12.90839,2.54925c-1.01494,0.65604 -3.67824,1.81461 -3.89463,1.73012c-3.65395,0.9579 -7.49574,-1.05569 -10.92268,-2.11981c-3.46077,-0.5229 -8.24757,-1.17575 -8.80639,3.56733c0.00284,2.12815 -0.96941,4.56625 0.13222,6.49274c0.93484,1.63483 2.74605,2.37082 3.06153,4.40571l0.07142,0.31289c0,0 0.10847,0.4881 -0.37962,0.59656z" fill="#9e9215" stroke="none" stroke-width="0.5" stroke-linecap="butt"/><path d="M276.68325,169.45009c-0.48809,0.10846 -0.59656,-0.37963 -0.59656,-0.37963l-0.0833,-0.40493c-0.9993,-2.49937 -3.78614,-3.06789 -4.87383,-5.67546c-1.7195,-4.30301 2.29502,-6.83795 1.2893,-10.85027c0,0 -0.01369,-0.04456 -0.00871,-0.37855c0.0014,-0.09392 -0.07638,-0.25105 -0.05356,-0.38731c-0.38736,-2.78157 -3.58903,-15.12561 -4.74557,-17.47248c-0.05403,-0.22862 -0.25094,-2.17184 -0.31785,-2.53088c-0.10724,-0.57539 -0.47722,0.50434 -0.22584,0.15716c0.59884,-0.82708 3.36919,7.9116 4.26495,7.76261c2.68702,-0.44693 5.20821,-0.77676 7.81021,-1.5497c-0.3079,-2.02364 -2.91556,-3.21512 -4.46027,-4.41785c-0.05523,-0.02786 -0.09848,-0.06469 -0.13235,-0.10527c-0.02049,-0.01667 -0.04074,-0.03334 -0.06078,-0.05003c0,0 -0.38411,-0.3201 -0.06402,-0.70421c0.00086,-0.00104 0.00172,-0.00206 0.00259,-0.00308c0.00302,-2.89005 0.13873,-5.66293 0.63163,-8.50774c-0.05552,-0.14325 -0.03375,-0.28482 -0.03375,-0.28482l0.07459,-0.47527c-0.00473,-1.54417 0.68286,-3.45499 -1.11666,-3.85701c-5.38587,-1.2715 -7.23695,-3.4417 -9.20757,-8.20573c-0.07641,-0.08769 -0.1089,-0.17866 -0.1089,-0.17866c-1.37306,-3.87486 -0.22216,-7.6609 0.93661,-11.43425c0.69874,-2.78311 -0.14101,-4.58915 -1.16967,-7.05286c-0.07946,-0.10251 -0.24751,-0.3846 0.03458,-0.66669c0.35355,-0.35356 0.70711,0 0.70711,0l0.14746,0.20072c1.12967,2.71121 1.99798,4.75928 1.24383,7.78723c-1.0485,3.40078 -2.17534,6.88695 -1.10705,10.38217c0.01614,0.02903 0.02382,0.04822 0.02382,0.04822c1.9439,4.86168 3.45049,6.90835 8.73011,8.14673c2.50342,0.62511 1.889,2.79152 1.88342,4.90637l-0.00851,0.05631c0.07247,0.15816 0.04088,0.32666 0.04088,0.32666c-0.56124,2.98822 -0.70198,5.87896 -0.70198,8.9081v0.07901c1.78251,1.38192 4.3287,2.59723 4.69977,4.92874c0.21873,0.24797 0.10485,0.49065 0.02533,0.60572c-0.02846,0.14115 -0.1252,0.38331 -0.4539,0.39903l-0.08602,0.07125c-2.40073,0.73022 -4.65511,1.08682 -7.13268,1.47805c-0.68075,0.1075 -4.08911,-8.67397 -4.55739,-8.07577c-0.1905,0.24336 0.13755,1.34177 0.2007,1.62449c1.36382,2.67765 5.15165,15.34015 5.1596,18.35082c0,0 0.06569,0.23386 0.03611,0.62048c0.35109,3.6025 -2.80044,6.13287 -1.26376,9.97054c1.07157,2.57482 3.84286,3.09909 4.87652,5.68209l0.131,0.55939c0,0 0.10847,0.48809 -0.37963,0.59656z" fill="#9e9215" stroke="none" stroke-width="0.5" stroke-linecap="butt"/><path d="M306.1384,87.36935c-0.5,0 -0.5,-0.5 -0.5,-0.5v-0.50006c0,-0.75885 -0.16015,-1.41129 -0.16668,-2.1669c0.0214,-3.45941 -5.66843,-2.86784 -7.08486,-0.72276c0,0 -0.27735,0.41602 -0.69338,0.13867c-0.41602,-0.27735 -0.13868,-0.69338 -0.13868,-0.69338c1.95394,-2.90729 8.89355,-3.26289 8.91692,1.27746c-0.00813,0.73811 0.16668,1.41326 0.16668,2.16691v0.50006c0,0 0,0.5 -0.5,0.5z" fill="#000000" stroke="none" stroke-width="0.5" stroke-linecap="butt"/><path d="M342.91039,88.13903c-0.5,0 -0.5,-0.5 -0.5,-0.5l0.0068,-0.08448c-0.19575,-1.19742 -0.01077,-2.37842 -0.00034,-3.57914c1.2516,-3.83293 7.62269,-3.25987 9.80114,-0.56561c0,0 0.31235,0.39044 -0.07808,0.70279c-0.39044,0.31235 -0.70279,-0.07809 -0.70279,-0.07809c-1.57692,-1.99719 -7.02402,-2.82732 -8.03318,0.1011c0.01119,1.08937 -0.18557,2.16774 -0.00035,3.25457l0.0068,0.24887c0,0 0,0.5 -0.5,0.5z" fill="#000000" stroke="none" stroke-width="0.5" stroke-linecap="butt"/><path d="M323.12737,123.20211c0,16.65622 -12.67843,30.15876 -28.31808,30.15876c-15.63964,0 -28.31809,-13.50254 -28.31809,-30.15875c0,-16.65622 12.67845,-30.15875 28.31809,-30.15875c15.63964,0 28.31808,13.50254 28.31808,30.15876z" fill="#fbfdfa" stroke="#000000" stroke-width="1" stroke-linecap="butt"/><path d="M288.19435,157.20908c-0.076,-0.00359 -0.12897,-0.01949 -0.12897,-0.01949c-1.88177,-0.58799 -4.5724,2.21172 -2.91144,3.84957c0.70893,0.69907 1.98681,1.4089 2.82117,0.66822c1.37439,-0.80818 1.01672,-3.16795 0.31184,-4.39341zM288.40934,156.25412c0.25687,-0.03336 0.44131,0.18797 0.44131,0.18797l0.31045,0.38626c0.92557,1.70974 1.24091,4.56707 -0.61512,5.70007c-1.2899,0.96152 -3.1671,0.32668 -4.18248,-0.8767c-2.17296,-2.57527 1.23953,-6.2189 3.98922,-5.41995c0,0 0.02265,0.00679 0.05662,0.02235z" fill="#fffc51" stroke="none" stroke-width="0.5" stroke-linecap="butt"/><path d="M293.94059,160.46038c0.70488,1.22546 1.05912,3.67032 -0.31527,4.4785c-0.83436,0.74068 -2.1737,0.0209 -2.88263,-0.67817c-1.66096,-1.63785 1.09054,-4.51513 2.97231,-3.92714c0,0 0.05491,0.01701 0.13091,0.0206z" fill="#a8be04" stroke="none" stroke-width="0.5" stroke-linecap="butt"/><path d="M275.47202,84.47195c-0.002,0.00056 -0.00306,0.00082 -0.00306,0.00082c-2.49861,0.55074 -4.17844,6.08664 -2.17359,7.89473c0.5287,0.47681 1.86674,0.38953 2.53728,0.41462c2.58963,-1.61763 2.8706,-7.50198 -0.35885,-8.30935zM274.91974,83.60443c0.229,-0.39894 0.65157,-0.18766 0.65157,-0.18766l0.14502,0.08582c4.31151,1.07788 3.80295,8.23428 0.38325,10.24321c-0.9793,0.02363 -2.58125,0.1069 -3.39954,-0.57485c-2.73772,-2.28093 -0.77673,-8.39064 2.2197,-9.56652z" fill="#fffc51" stroke="none" stroke-width="0.5" stroke-linecap="butt"/><path d="M275.47803,84.42295c3.22945,0.80737 2.95269,6.79082 0.36306,8.40845c-0.67054,-0.02509 -2.03895,0.05784 -2.56765,-0.41897c-2.00485,-1.80809 -0.29892,-7.43874 2.19969,-7.98949c0,0 0.0011,-0.00026 0.0031,-0.00082z" fill="#a8be04" stroke="none" stroke-width="0.5" stroke-linecap="butt"/><path d="M371.45522,82.39548c-0.04433,0.00706 -0.07355,0.00706 -0.07355,0.00706c-4.45763,-0.02997 -0.01797,7.02439 2.53207,3.38925c0.63819,-1.96196 -0.76991,-2.17594 -1.96865,-3.06093l-0.26157,-0.11838c0,0 -0.14468,-0.07234 -0.22831,-0.21701zM371.8325,81.66433c0.16068,-0.01502 0.29824,0.05375 0.29824,0.05375l0.43905,0.23194c1.47332,1.36137 3.14803,1.59822 2.23507,4.29557c-3.91292,5.41727 -9.83507,-4.80689 -3.42319,-4.84303c0,0 0.32479,0 0.45083,0.26176z" fill="#fffc51" stroke="none" stroke-width="0.5" stroke-linecap="butt"/><path d="M371.44805,82.34601c0.08363,0.14467 0.23316,0.21655 0.23316,0.21655l0.26835,0.11853c1.19874,0.88499 2.64617,1.1729 2.00798,3.13486c-2.55004,3.63514 -7.04227,-3.49257 -2.58464,-3.4626c0,0 0.03084,-0.00026 0.07517,-0.00732z" fill="#a8be04" stroke="none" stroke-width="0.5" stroke-linecap="butt"/><path d="M360.70579,159.09472c0.84882,-2.61131 4.15926,-4.17241 6.1714,-1.38847c0.84364,1.16723 0.88854,3.48688 0.88854,4.88086c-0.02818,1.35755 -1.28724,3.52032 -2.90986,2.75081c-1.50493,-0.7137 -3.37801,-3.85729 -4.12594,-5.3509l-0.1453,-0.21098c0,0 -0.26942,-0.40414 0.12116,-0.68132zM361.61812,159.53024l0.00624,0.00957c0.60597,1.21389 2.43501,4.3878 3.63922,4.885c0.8197,0.33844 1.52589,-1.10205 1.50216,-1.8377c0,-1.16968 0.01364,-3.32473 -0.69979,-4.29615c-1.59028,-2.16538 -3.91002,-0.70371 -4.44783,1.23928z" fill="#fffc51" stroke="none" stroke-width="0.5" stroke-linecap="butt"/><path d="M366.09553,158.25063c0.71343,0.97142 0.71163,3.19481 0.71163,4.36449c0.02373,0.73565 -0.70953,2.19601 -1.52923,1.85757c-1.20421,-0.4972 -3.09216,-3.74167 -3.69813,-4.95556l-0.00619,-0.00966c0.53781,-1.94299 2.93165,-3.42222 4.52193,-1.25684z" fill="#a8be04" stroke="none" stroke-width="0.5" stroke-linecap="butt"/><path d="M357.33818,164.93965c-0.14643,0.17694 -0.39658,0.17694 -0.39658,0.17694c-1.73478,-0.00606 -3.65574,2.5923 -2.80296,4.33837c0.67929,1.39085 2.10944,1.99361 3.53995,2.16304c1.74671,0.26172 1.95866,-6.27396 0.07607,-6.68272zM356.89795,164.1171c0.14643,-0.17696 0.39659,-0.17696 0.39659,-0.17696l0.59879,0.00483c2.87568,0.91338 3.15534,8.47552 -0.2769,8.67112c-1.78674,-0.23216 -3.59913,-1.00409 -4.4017,-2.77842c-1.08893,-2.40747 1.25313,-5.67462 3.6832,-5.72057z" fill="#9966ff" stroke="none" stroke-width="0.5" stroke-linecap="butt"/><path d="M379.6244,122.16627c0,16.65622 -12.67843,30.15876 -28.31808,30.15876c-15.63964,0 -28.31809,-13.50253 -28.31809,-30.15875c0,-16.65622 12.67845,-30.15875 28.31809,-30.15875c15.63964,0 28.31808,13.50254 28.31808,30.15876z" fill="#fbfdfa" stroke="#000000" stroke-width="1" stroke-linecap="butt"/><path d="M318.50579,122.02526c0,13.41184 -10.74651,24.28428 -24.003,24.28428c-13.25649,0 -24.00301,-10.87244 -24.00301,-24.28428c0,-13.41184 10.74652,-24.28429 24.00301,-24.28429c13.25649,0 24.003,10.87245 24.003,24.28429z" fill="#3da9e8" stroke="#000000" stroke-width="1" stroke-linecap="butt"/><path d="M374.83795,121.43097c0,13.13934 -10.41068,23.7909 -23.25291,23.7909c-12.84223,0 -23.25291,-10.65155 -23.25291,-23.7909c0,-13.13935 10.41068,-23.79089 23.25291,-23.79089c12.84223,0 23.25291,10.65154 23.25291,23.79089z" fill="#3da9e8" stroke="#000000" stroke-width="1" stroke-linecap="butt"/><path d="M310.47972,121.40643c0,8.69957 -6.88448,15.75197 -15.37692,15.75197c-8.49244,0 -15.37692,-7.05239 -15.37692,-15.75197c0,-8.69957 6.88448,-15.75197 15.37692,-15.75197c8.49244,0 15.37692,7.0524 15.37692,15.75197z" fill="#000000" stroke="#000000" stroke-width="1" stroke-linecap="butt"/><path d="M367.56208,120.31876c0,9.2174 -7.09438,16.68959 -15.84573,16.68959c-8.75135,0 -15.84573,-7.47218 -15.84573,-16.68959c0,-9.2174 7.09438,-16.68959 15.84573,-16.68959c8.75135,0 15.84573,7.47218 15.84573,16.68959z" fill="#000000" stroke="#000000" stroke-width="1" stroke-linecap="butt"/><path d="M305.15416,114.82435c0,2.43381 -2.22486,4.40681 -4.96937,4.40681c-2.74451,0 -4.96937,-1.973 -4.96937,-4.40681c0,-2.43381 2.22486,-4.4068 4.96937,-4.4068c2.74451,0 4.96937,1.97299 4.96937,4.4068z" fill="#ffffff" stroke="#000000" stroke-width="1" stroke-linecap="butt"/><path d="M362.98653,114.05547c0,2.48559 -2.22487,4.50056 -4.96938,4.50056c-2.74451,0 -4.96937,-2.01497 -4.96937,-4.50056c0,-2.48559 2.22486,-4.50056 4.96937,-4.50056c2.74451,0 4.96938,2.01497 4.96938,4.50056z" fill="#ffffff" stroke="#000000" stroke-width="1" stroke-linecap="butt"/><path d="M360.09714,151.9324c-0.00096,0.00048 -0.00192,0.00096 -0.00288,0.00143l-0.00144,0.21374c0.80858,3.1233 2.86781,5.71112 4.65183,8.36247c2.47084,3.53406 2.92405,10.32245 0.31821,13.89685c-3.3847,4.21884 -9.30782,2.98806 -13.77522,0.73337c-2.88693,-2.29861 -3.65132,-5.02702 -2.43232,-8.61523c0.56619,-1.66662 1.86285,-3.01267 2.26096,-4.78129c2.21791,-2.30731 4.9599,-5.46799 5.33876,-8.67436c-0.03933,-0.06273 -0.05623,-0.11343 -0.05623,-0.11343c-0.86474,-2.67962 1.29422,-3.01434 3.44531,-2.32017l0.47663,0.62578c0,0 0.22361,0.44722 -0.22361,0.67082zM357.49921,152.33236c0,3.56641 -2.91192,7.41236 -5.50124,9.88326c-0.2898,1.72374 -1.67094,3.01838 -2.19166,4.61867c-1.03391,3.17747 -0.52867,5.4126 2.0203,7.46365c4.00718,1.97911 9.42182,3.28655 12.44573,-0.50346c2.39488,-3.06853 1.86655,-9.69145 -0.34953,-12.71472c-1.8745,-2.78859 -4.01887,-5.50347 -4.82249,-8.80999l-0.00375,-0.67951c0,0 0,-0.06126 0.02144,-0.14089c-1.09895,-0.3399 -1.9226,-0.3887 -1.92995,0.41195c0.31114,0.1066 0.31115,0.47105 0.31115,0.47105z" fill="#6af2e7" stroke="none" stroke-width="0.5" stroke-linecap="butt"/><path d="M357.49952,152.38234c0,0 -0.00195,-0.46442 -0.31309,-0.57102c0.00735,-0.80065 0.83887,-0.75148 1.93782,-0.41158c-0.02144,0.07963 -0.02145,0.14089 -0.02145,0.14089l0.00413,0.67956c0.80362,3.30652 2.98755,6.05178 4.86205,8.84037c2.21608,3.02327 2.72592,9.70701 0.33104,12.77554c-3.02391,3.79001 -8.4901,2.48487 -12.49728,0.50576c-2.54897,-2.05105 -3.07675,-4.3115 -2.04284,-7.48897c0.52072,-1.60029 1.89999,-2.92656 2.18979,-4.6503c2.58932,-2.4709 5.54919,-6.35384 5.54919,-9.92025z" fill="#b5f2ed" stroke="none" stroke-width="0.5" stroke-linecap="butt"/><path d="M344.29693,147.63091c3.29212,0.06442 7.34435,-1.0035 10.49088,-1.57695c4.21499,-0.60252 8.59767,-0.91353 12.84905,-0.86253c2.05476,0.78137 1.96038,3.01534 0.69971,4.45691c-2.12129,2.42569 -4.97753,3.7281 -8.11304,4.21066c-5.36445,0.97378 -10.3076,0.57449 -15.03126,-2.06996c-1.25626,-0.8833 -2.45788,-1.92406 -2.15355,-3.48663c-0.02713,-0.06635 -0.04102,-0.1478 -0.03333,-0.24775c0.03835,-0.49853 0.53688,-0.46018 0.53688,-0.46018c0.07295,0.00578 0.14637,0.01089 0.22024,0.01535l0.002,-0.00123c0,0 0.29433,-0.16054 0.53242,0.02231zM343.92677,148.61766l-0.03058,0.01267c-0.13824,0.94189 1.1623,1.84854 1.82859,2.31229c4.48278,2.53292 9.23528,2.85861 14.33327,1.93016c2.54315,-0.39112 5.19885,-1.33828 6.98616,-3.29836c0.67178,-0.73672 2.29368,-2.79096 0.41915,-3.39816c-4.16656,0.06888 -8.37927,0.27429 -12.51536,0.86479c-3.32984,0.60403 -7.59374,1.71102 -11.02123,1.57661z" fill="#6af2e7" stroke="none" stroke-width="0.5" stroke-linecap="butt"/><path d="M354.92833,146.99508c4.13609,-0.5905 8.41614,-0.765 12.5827,-0.83388c1.87453,0.6072 0.25494,2.67564 -0.41684,3.41236c-1.78731,1.96008 -4.45374,2.93905 -6.99689,3.33017c-5.09799,0.92845 -9.93944,0.57745 -14.42222,-1.95547c-0.66629,-0.46375 -1.96694,-1.38066 -1.8287,-2.32255l0.03059,-0.01273c3.42749,0.13441 7.72151,-1.01388 11.05135,-1.61791z" fill="#b5f2ed" stroke="none" stroke-width="0.5" stroke-linecap="butt"/><path d="M348.80114,180.78067l-8.65342,10.0667l-10.06347,-10.37349z" fill="none" stroke="#000000" stroke-width="0.5" stroke-linecap="round"/><path d="M354.03883,174.09202c-0.03989,-0.0225 -0.06422,-0.04777 -0.06422,-0.04777l-0.26152,-0.28716c-0.07637,-0.36131 -1.0748,-3.04947 0.32686,-2.70087c0.50835,0.12643 1.49186,1.87365 2.09688,2.24721c2.33932,1.46503 4.36909,-0.79123 5.53146,-2.62577c1.18987,-1.15776 3.05507,-1.16148 2.43107,0.9345c-0.43066,1.44655 -1.74248,1.94589 -2.76455,2.92514c-2.46068,1.53814 -5.14403,1.80935 -7.2507,-0.37929c0,0 -0.02432,-0.02527 -0.04529,-0.06599z" fill="#ffffff" stroke="none" stroke-width="0.5" stroke-linecap="butt"/><path d="M375.69728,145.23379c-0.14032,-1.30814 1.16745,-7.5915 1.16745,-8.75738c0,0 0,-0.5 0.5,-0.5c0.19555,0 0.16103,0.16344 0.18014,0.31791c0.02976,0.2405 0.03326,0.51136 0.03326,0.51136c0.14521,2.26222 -0.54492,8.70094 -0.96283,10.47436c-0.10579,0.44893 -0.24298,1.88954 -0.02792,3.17704c0.2949,1.76542 1.0191,3.47597 1.26735,4.07455c0.53385,1.28721 0.67474,1.58267 0.93614,2.82782c0.09847,0.46906 0.50453,1.32676 0.56309,2.44916c0.04354,0.83445 -0.23729,2.042 -0.27703,2.14095c-1.23607,3.07808 -2.41035,5.54972 -2.86705,8.96885c-0.29836,1.58673 -0.81059,3.85925 -0.01945,5.3457c0.27241,0.51182 0.63808,0.86724 0.98781,1.24937c0.63928,0.69851 1.22527,1.37334 1.09085,2.45743c-0.02051,0.16539 -0.05778,0.34142 -0.11419,0.52999c0,0 0.14222,0.5261 -0.33567,0.37906c-0.47789,-0.14704 -0.47548,-0.62493 -0.47548,-0.62493c0.48575,-1.52497 -1.06437,-2.24275 -1.73478,-3.45095c-0.92478,-1.66664 -0.72316,-4.24328 -0.38647,-6.04395c0.49773,-3.73987 1.75172,-6.70793 3.12331,-10.13812l0.01111,-0.39245c0,-0.80546 -0.36318,-1.94784 -0.84142,-3.24246c-0.69829,-1.8903 -1.64188,-4.10517 -2.05837,-6.06974c-0.58107,-2.7409 0.3215,-4.92526 0.24016,-5.68358z" fill="#9e9215" stroke="none" stroke-width="0.5" stroke-linecap="butt"/><path d="M289.82885,170.9079c0.00045,-0.00961 0.00155,-0.02534 0.00419,-0.04538c0.04501,-0.97951 0.39269,-3.23767 -0.53604,-3.7752c-2.03393,-1.1772 -4.81906,1.3141 -5.65198,2.90515c-0.8224,1.73593 -1.56943,3.9485 -1.11088,5.90801c0.59323,2.535 3.76619,1.94602 4.89909,0.43475c1.20099,-1.67745 1.70993,-3.49587 2.39562,-5.42732zM290.74073,171.32818c-0.70629,1.99516 -1.25928,3.85543 -2.50064,5.59771c-1.63916,2.18455 -5.84709,2.55693 -6.67838,-0.792c-0.53974,-2.17442 0.27434,-4.65774 1.18928,-6.58953c1.05117,-1.96719 5.52239,-5.62627 7.56896,-2.77939c0.83534,1.162 0.50853,2.92928 0.50853,4.26853c0,0 0,0.15672 -0.08774,0.29468z" fill="#fffc51" stroke="none" stroke-width="0.5" stroke-linecap="butt"/><path d="M289.87305,171.01703c-0.70647,1.99 -1.26424,3.93001 -2.50164,5.65831c-0.54002,0.72037 -1.54089,1.23467 -2.52115,1.32077c-1.13855,0.09999 -2.24926,-0.37771 -2.57771,-1.7812c-0.47245,-2.01891 0.29467,-4.3693 1.142,-6.15785c0.85817,-1.63928 3.79328,-4.21601 5.88886,-3.00313c0.95688,0.55382 0.62014,2.90663 0.57377,3.91583c-0.00272,0.02065 -0.00367,0.03736 -0.00413,0.04726z" fill="#a8be04" stroke="none" stroke-width="0.5" stroke-linecap="butt"/><path d="M272.78407,100.30271l3.46238,-6.54426l20.49638,-2.0726c0,0 -1.11827,1.57719 -2.01731,2.22754c-1.22445,0.88573 -4.65958,2.60232 -4.65958,2.60232c0,0 -5.68056,3.17583 -8.81955,3.75914c-2.58467,0.4803 -8.46231,0.02787 -8.46231,0.02787z" fill="#fffd4d" stroke="#fffd4d" stroke-width="0.5" stroke-linecap="butt"/><path d="M268.71443,99.88928c0.15812,-0.47434 0.63245,-0.31623 0.63245,-0.31623l0.05619,0.04578c3.3569,0 6.72263,0.6871 10.08342,0.27389c4.74896,-0.95127 9.70162,-2.17372 13.64568,-5.12221c2.84603,-1.58295 6.3577,-5.17203 7.07001,-8.47509c0,0 0.10847,-0.48809 0.59656,-0.37963c0.48809,0.10846 0.37963,0.59656 0.37963,0.59656c-0.81117,3.5626 -4.39287,7.37185 -7.50212,9.09718c-4.03584,3.03767 -9.16222,4.29822 -14.03098,5.2705c-3.42051,0.41524 -6.82818,-0.26121 -10.2422,-0.26121l-0.37241,-0.09709c0,0 -0.47435,-0.15811 -0.31623,-0.63245z" fill="#000000" stroke="none" stroke-width="0.5" stroke-linecap="butt"/><path d="M366.86704,100.69689c-3.27658,-0.67449 -9.80617,-3.51585 -9.80617,-3.51585c0,0 -3.13564,-2.982 -4.41376,-4.00618c-0.93846,-0.752 -1.65569,-2.57574 -1.65569,-2.57574l21.39473,2.39659l4.66424,8.39813c0,0 -7.48539,-0.14157 -10.18335,-0.69695z" fill="#fffd4d" stroke="#fffd4d" stroke-width="0.5" stroke-linecap="butt"/><path d="M380.09949,101.77125l-0.37241,0.09709c-3.41402,0 -6.82169,0.67645 -10.2422,0.26121c-4.86876,-0.97228 -9.99514,-2.23283 -14.03098,-5.2705c-3.10925,-1.72533 -6.69095,-5.53458 -7.50212,-9.09718c0,0 -0.10846,-0.4881 0.37963,-0.59656c0.48809,-0.10846 0.59656,0.37963 0.59656,0.37963c0.71231,3.30306 4.22398,6.89214 7.07001,8.47509c3.94406,2.94849 8.89672,4.17094 13.64568,5.12221c3.36079,0.41321 6.72652,-0.27389 10.08342,-0.27389l0.05619,-0.04578c0,0 0.47433,-0.15811 0.63245,0.31623c0.15812,0.47434 -0.31623,0.63245 -0.31623,0.63245z" fill="#000000" stroke="none" stroke-width="0.5" stroke-linecap="butt"/><path d="M318.74665,181.20147l-8.52363,10.0667l-10.19326,-10.37349z" fill="none" stroke="#000000" stroke-width="0.5" stroke-linecap="round"/><path d="M331.11152,195.8785c0,0 0.05208,1.35916 0.12858,1.92011c0.06211,0.4555 -2.97517,3.14996 -2.97517,3.14996l-3.7813,2.84659l-6.03309,-5.86314v-1.88357l2.54919,-8.36985l0.04248,-2.71913l-2.25179,-2.80411l1.23211,-1.9119l0.25492,-0.12746l-0.76475,-0.42487l0.16994,-1.91189l9.30455,-0.12746l-0.25491,2.42174l1.40205,2.25178l-2.67665,2.88909l0.08497,1.99687l3.56887,8.66725z" fill="#ff0000" stroke="#000000" stroke-width="0.5" stroke-linecap="round"/><path d="M275.79823,180.24863c0,0 -0.68734,-1.63811 -0.6887,-2.20377c-0.00178,-0.74435 0.67892,-1.87528 0.67892,-1.87528c0,0 -0.63598,0.00604 0.3453,0.01466c0.91517,0.00804 1.29467,-0.0691 4.32403,0.37117c0.93779,0.13629 3.64542,1.81748 4.76479,1.82719c0.64999,0.00564 3.44432,-2.19559 4.14557,-2.19161c25.4438,0.14443 81.26421,0.81201 81.26421,0.81201l6.1856,1.57517c0,0 -0.79132,3.13491 -2.47718,5.01754c-0.6818,0.76138 -1.56475,0.85588 -2.89365,0.95675c-1.2815,0.09728 -2.99388,0.22959 -4.48124,-0.57505c-0.58323,-0.31552 -1.99286,-1.68717 -3.40399,-2.12196c-1.32849,-0.40933 -3.87687,-0.21144 -4.9203,-0.20857c-0.07615,0.00021 -0.45513,0.18855 -0.51062,0.18995c-0.38152,0.00958 -0.31995,0.03586 -0.5896,0.24247c-0.68446,0.52444 -1.46171,1.03027 -1.97854,0.85455c-0.67165,-0.22836 -3.0696,-1.70667 -4.15944,-1.46715c-2.06128,0.45303 -4.75538,1.76761 -8.60744,1.87104c-1.08265,0.02907 -6.52583,-1.60692 -7.66007,-1.57431c-1.20538,0.03465 -2.93101,0.72749 -4.17258,0.74233c-2.79661,0.03343 -5.9867,-1.08326 -8.84506,-1.0102c-4.06169,0.10381 -6.37667,2.85667 -10.15908,2.84486c-2.1101,-0.00659 -4.97549,-2.51923 -7.10233,-2.43885c-2.76073,0.10434 -5.52566,1.3803 -7.47088,1.81471c-1.8856,0.4211 -3.94298,0.12461 -5.84152,0.15213c-0.99448,0.01441 -2.57648,-2.21291 -3.59551,-2.14468c-1.8392,0.12313 -2.31055,1.28579 -3.45761,1.95787c-1.11151,0.65125 -2.90834,0.81134 -4.06639,0.99816c-0.8385,0.13527 -1.33713,-0.53265 -1.89963,-0.89138c-0.59251,-0.37787 -1.22692,-0.45134 -1.22692,-0.45134z" fill="#fffd4d" stroke="none" stroke-width="0" stroke-linecap="butt"/><path d="M305.67969,181.22805c2.75354,1.11079 6.25074,3.86727 9.37327,2.29925c1.28022,-0.41666 1.96248,-1.58689 3.2251,-1.98262c2.66495,-0.83524 6.13303,-0.06807 8.84045,0.12015c1.07259,0.18882 2.59133,0.87164 3.69578,0.66008c1.666,-0.31913 2.83908,-1.39672 4.67501,-1.22467c1.68918,0.1583 2.94961,1.11049 4.48914,1.66907c1.67254,0.61064 3.80288,0.58037 5.54978,0.17521l0.10127,-0.05051c1.85844,-1.01337 3.5812,-1.54359 5.3555,-1.82081c1.83694,-0.287 2.72908,1.44726 4.88426,1.44726c1.00568,0 3.29641,-1.91343 4.5235,-1.90425c0.95334,0.00713 1.8683,0.1184 2.58141,0.49133c2.53008,1.32313 3.13847,2.88665 6.33833,2.88665c2.63903,0 7.28252,-0.74307 8.08534,-3.74602c0,0 0.03514,-0.53059 0.51752,-0.39903c0.48238,0.13156 0.35082,0.61395 0.35082,0.61395c-0.96511,3.4815 -4.61997,4.4829 -7.74844,4.4829c-1.04404,0 -2.95523,-0.03464 -3.9163,-0.53193c-1.4396,-0.7449 -2.94417,-2.22063 -4.4987,-2.61294c-0.5217,-0.13166 -1.07513,-0.20003 -1.64045,-0.23261c-1.14109,-0.06575 -3.39318,2.01446 -4.46804,2.01446c-2.07733,0 -2.9339,-1.94756 -4.73664,-1.63372c-1.66292,0.2895 -3.21749,0.80135 -4.91967,1.69945c-0.07829,0.08765 -0.16593,0.13147 -0.16593,0.13147l-0.1961,0.08473c-0.03418,0.00845 -0.06847,0.01676 -0.1029,0.02496l-0.06173,0.03094c0,0 -0.14638,0.07318 -0.31352,0.05208c-1.88657,0.38667 -4.07984,0.38158 -5.86104,-0.26377c-1.44448,-0.52635 -2.65106,-1.4642 -4.22988,-1.61228c-1.71638,-0.16098 -2.84133,0.93608 -4.41903,1.21291c-1.26751,0.2224 -2.75959,-0.43439 -3.99196,-0.65246c-2.53157,-0.18541 -5.92738,-0.96673 -8.4101,-0.16111c-1.1873,0.38527 -1.90564,1.53149 -3.1501,1.95501c-3.44837,1.71704 -7.07691,-1.08661 -10.12734,-2.29465c0,0 -0.01019,-0.00408 -0.02695,-0.01253l-0.10525,-0.00443c-3.89397,0.58833 -7.22749,2.52376 -11.16571,2.52376c-1.18556,0 -2.53691,0.15305 -3.6162,-0.43697c-0.74485,-0.4072 -1.00124,-1.89748 -1.83917,-1.76152c-1.59823,0.25934 -3.43021,1.82083 -5.1144,2.28418c-5.21751,1.74143 -8.6809,-2.4541 -8.6809,-7.44308c0,-2.48545 2.54532,-7.86092 0.41431,-9.87896c0,0 -0.35355,-0.35355 0,-0.70711c0.35355,-0.35356 0.70711,0 0.70711,0c2.51463,2.60969 -0.12142,7.5122 -0.12142,10.58606c0,4.35165 2.81517,8.00943 7.39111,6.48599c1.41242,-0.38154 4.17213,-2.46705 5.49311,-2.32313c0.76582,0.08344 1.49508,1.46299 2.2324,1.88147c0.88389,0.50167 2.16043,0.31306 3.13405,0.31306c3.85639,0 7.18803,-1.91421 11.01365,-2.51213l0.29032,-0.00581c0,0 0.10746,0 0.22274,0.04981c0.08395,0.0094 0.14259,0.03285 0.14259,0.03285z" fill="#9e9215" stroke="none" stroke-width="0.5" stroke-linecap="butt"/><path d="M323.25604,176.25449c3.79291,0.63413 3.77777,-6.26833 3.74964,-7.85614c-0.01241,-0.70019 -0.77625,-2.55898 0.35849,-2.55898c0.75707,0 0.64159,4.74805 0.64151,4.85857c-0.00223,2.86329 -1.38952,6.31195 -4.68876,6.55672c-3.64538,0.27044 -3.99899,-4.596 -3.66987,-6.92499c0.03,-0.21227 0.11542,-1.46053 0.19214,-2.11632c0.0002,0.50961 0.04535,1.0078 0.16361,1.46812c0.05831,0.22695 0.15915,0.37953 0.2851,0.47231c0.06662,0.52802 0.14945,1.0001 0.24343,1.38669c0.01011,0.74364 0.09423,1.43432 0.30123,2.00804c0.09736,1.31961 0.64243,2.4082 2.42348,2.70597z" fill="#000000" stroke="none" stroke-width="0.5" stroke-linecap="butt"/><path d="M304.24503,246.61735l-6.44372,0.34095l0.05683,-2.21611l6.38689,-0.25002z" fill="#00c4ff" stroke="#000000" stroke-width="0.5" stroke-linecap="round"/><path d="M297.77862,249.83352l6.34142,-0.1932l0.12501,2.12518l-6.50054,0.20455z" fill="#ff0000" stroke="#000000" stroke-width="0.5" stroke-linecap="round"/><g stroke="none" stroke-linecap="butt"><path d="" fill="#a35520" stroke-width="0"/><path d="" fill="#000000" stroke-width="0.5"/><path d="" fill="#000000" stroke-width="0.5"/><path d="" fill="#000000" stroke-width="0.5"/><path d="" fill="#000000" stroke-width="0.5"/><path d="" fill="#000000" stroke-width="0.5"/></g><g stroke-width="0.5" stroke-linecap="butt"><path d="" fill="#ff0000" stroke="#000000"/><path d="" fill="#ff0000" stroke="none"/><path d="" fill="#020204" stroke="none"/><path d="" fill="#020204" stroke="none"/><path d="" fill="#020204" stroke="none"/><path d="" fill="#000000" stroke="none"/></g><g><path d="" fill="#ad6310" stroke="none" stroke-width="0.5" stroke-linecap="butt"/><path d="" fill="#fffd4d" stroke="#000000" stroke-width="0.5" stroke-linecap="round"/><path d="" fill="#000000" stroke="none" stroke-width="0.5" stroke-linecap="butt"/><path d="" fill="#ffffff" stroke="#000000" stroke-width="0.5" stroke-linecap="round"/><path d="" fill="#00c4ff" stroke="#000000" stroke-width="0.5" stroke-linecap="round"/><path d="" fill="#ff0000" stroke="#000000" stroke-width="0.5" stroke-linecap="round"/><path d="" fill="#fffd4d" stroke="#000000" stroke-width="0.5" stroke-linecap="round"/><path d="" fill="#000000" stroke="none" stroke-width="0.5" stroke-linecap="butt"/><path d="" fill="#ffffff" stroke="none" stroke-width="0.5" stroke-linecap="butt"/><path d="" fill="#ad6310" stroke="none" stroke-width="0.5" stroke-linecap="butt"/><path d="" fill="#fffd4d" stroke="#000000" stroke-width="0.5" stroke-linecap="round"/><path d="" fill="#fffd4d" stroke="#000000" stroke-width="0.5" stroke-linecap="round"/><path d="" fill="#000000" stroke="none" stroke-width="0.5" stroke-linecap="butt"/><path d="" fill="#ffffff" stroke="none" stroke-width="0.5" stroke-linecap="butt"/><path d="" fill="#fffd4d" stroke="none" stroke-width="NaN" stroke-linecap="butt"/><path d="" fill="#000000" stroke="none" stroke-width="0.5" stroke-linecap="butt"/><path d="" fill="#fff649" stroke="none" stroke-width="0" stroke-linecap="butt"/><path d="" fill="#000000" stroke="none" stroke-width="0.5" stroke-linecap="butt"/><path d="" fill="#000000" stroke="none" stroke-width="0.5" stroke-linecap="butt"/><path d="" fill="#000000" stroke="none" stroke-width="0.5" stroke-linecap="butt"/><path d="" fill="#000000" stroke="none" stroke-width="0.5" stroke-linecap="butt"/><path d="" fill="#c7941d" stroke="#000000" stroke-width="0" stroke-linecap="butt"/><path d="" fill="#ffffff" stroke="#000000" stroke-width="0.5" stroke-linecap="round"/><path d="" fill="none" stroke="#000000" stroke-width="0.5" stroke-linecap="round"/><path d="" fill="#ffffff" stroke="#000000" stroke-width="0.5" stroke-linecap="round"/><path d="" fill="#000000" stroke="#000000" stroke-width="0.5" stroke-linecap="round"/><path d="" fill="none" stroke="#000000" stroke-width="0.5" stroke-linecap="round"/><path d="" fill="#000000" stroke="#000000" stroke-width="0.5" stroke-linecap="round"/><path d="" fill="#000000" stroke="#000000" stroke-width="0.5" stroke-linecap="round"/><path d="" fill="#9e9215" stroke="none" stroke-width="0.5" stroke-linecap="butt"/><path d="" fill="#9e9215" stroke="none" stroke-width="0.5" stroke-linecap="butt"/><path d="" fill="#9e9215" stroke="none" stroke-width="0.5" stroke-linecap="butt"/><path d="" fill="#000000" stroke="none" stroke-width="0.5" stroke-linecap="butt"/><path d="" fill="#000000" stroke="none" stroke-width="0.5" stroke-linecap="butt"/><path d="" fill="#fbfdfa" stroke="#000000" stroke-width="1" stroke-linecap="butt"/><path d="" fill="#fffc51" stroke="none" stroke-width="0.5" stroke-linecap="butt"/><path d="" fill="#a8be04" stroke="none" stroke-width="0.5" stroke-linecap="butt"/><path d="" fill="#fffc51" stroke="none" stroke-width="0.5" stroke-linecap="butt"/><path d="" fill="#a8be04" stroke="none" stroke-width="0.5" stroke-linecap="butt"/><path d="" fill="#fffc51" stroke="none" stroke-width="0.5" stroke-linecap="butt"/><path d="" fill="#a8be04" stroke="none" stroke-width="0.5" stroke-linecap="butt"/><path d="" fill="#fffc51" stroke="none" stroke-width="0.5" stroke-linecap="butt"/><path d="" fill="#a8be04" stroke="none" stroke-width="0.5" stroke-linecap="butt"/><path d="" fill="#9966ff" stroke="none" stroke-width="0.5" stroke-linecap="butt"/><path d="" fill="#fbfdfa" stroke="#000000" stroke-width="1" stroke-linecap="butt"/><path d="" fill="#3da9e8" stroke="#000000" stroke-width="1" stroke-linecap="butt"/><path d="" fill="#3da9e8" stroke="#000000" stroke-width="1" stroke-linecap="butt"/><path d="" fill="#000000" stroke="#000000" stroke-width="1" stroke-linecap="butt"/><path d="" fill="#000000" stroke="#000000" stroke-width="1" stroke-linecap="butt"/><path d="" fill="#ffffff" stroke="#000000" stroke-width="1" stroke-linecap="butt"/><path d="" fill="#ffffff" stroke="#000000" stroke-width="1" stroke-linecap="butt"/><path d="" fill="#6af2e7" stroke="none" stroke-width="0.5" stroke-linecap="butt"/><path d="" fill="#b5f2ed" stroke="none" stroke-width="0.5" stroke-linecap="butt"/><path d="" fill="#6af2e7" stroke="none" stroke-width="0.5" stroke-linecap="butt"/><path d="" fill="#b5f2ed" stroke="none" stroke-width="0.5" stroke-linecap="butt"/><path d="" fill="none" stroke="#000000" stroke-width="0.5" stroke-linecap="round"/><path d="" fill="#ffffff" stroke="none" stroke-width="0.5" stroke-linecap="butt"/><path d="" fill="#9e9215" stroke="none" stroke-width="0.5" stroke-linecap="butt"/><path d="" fill="#fffc51" stroke="none" stroke-width="0.5" stroke-linecap="butt"/><path d="" fill="#a8be04" stroke="none" stroke-width="0.5" stroke-linecap="butt"/><path d="" fill="#fffd4d" stroke="#fffd4d" stroke-width="0.5" stroke-linecap="butt"/><path d="" fill="#000000" stroke="none" stroke-width="0.5" stroke-linecap="butt"/><path d="" fill="#fffd4d" stroke="#fffd4d" stroke-width="0.5" stroke-linecap="butt"/><path d="" fill="#000000" stroke="none" stroke-width="0.5" stroke-linecap="butt"/><path d="" fill="none" stroke="#000000" stroke-width="0.5" stroke-linecap="round"/><path d="" fill="#ff0000" stroke="#000000" stroke-width="0.5" stroke-linecap="round"/><path d="" fill="#fffd4d" stroke="none" stroke-width="0" stroke-linecap="butt"/><path d="" fill="#9e9215" stroke="none" stroke-width="0.5" stroke-linecap="butt"/><path d="" fill="#000000" stroke="none" stroke-width="0.5" stroke-linecap="butt"/><path d="" fill="#000000" stroke="none" stroke-width="0.5" stroke-linecap="butt"/><path d="" fill="#000000" stroke="none" stroke-width="0.5" stroke-linecap="butt"/><path d="" fill="#00c4ff" stroke="#000000" stroke-width="0.5" stroke-linecap="round"/><path d="" fill="#ff0000" stroke="#000000" stroke-width="0.5" stroke-linecap="round"/></g><path d="" fill="#000000" stroke="none" stroke-width="NaN" stroke-linecap="butt"/><path d="" fill="#130000" stroke="none" stroke-width="0.5" stroke-linecap="butt"/><path d="" fill="#ffffff" stroke="#000000" stroke-width="0" stroke-linecap="butt"/><path d="" fill="none" stroke="#ff0000" stroke-width="1" stroke-linecap="round"/><path d="" fill="#0086ff" stroke="#0021b7" stroke-width="1" stroke-linecap="round"/><g stroke-width="0.5"><path d="" fill="none" stroke="#0021b7" stroke-linecap="butt"/><path d="" fill="none" stroke="#0021b7" stroke-linecap="round"/><path d="" fill="none" stroke="#0021b7" stroke-linecap="round"/><path d="" fill="#0021b7" stroke="none" stroke-linecap="butt"/></g><path d="" fill="#fffd4d" stroke="#000000" stroke-width="0" stroke-linecap="butt"/><path d="" fill="#52402d" stroke="none" stroke-width="0.5" stroke-linecap="butt"/><path d="" fill="#52402d" stroke="none" stroke-width="0.5" stroke-linecap="butt"/><path d="" fill="#000000" stroke="none" stroke-width="0.5" stroke-linecap="butt"/><g><path d="" fill="#857313" stroke="#000000" stroke-width="0" stroke-linecap="butt"/><g stroke="none" stroke-width="0.5" stroke-linecap="butt"><path d="" fill="#968c14"/><path d="" fill="#b4a924"/><path d="" fill="#b4a924"/><path d="" fill="#b4a924"/><path d="" fill="#b4a924"/><path d="" fill="#b4a924"/><path d="" fill="#b4a924"/></g><path d="" fill="#000000" stroke="none" stroke-width="0.5" stroke-linecap="butt"/><path d="" fill="none" stroke="#000000" stroke-width="0.5" stroke-linecap="round"/><path d="" fill="none" stroke="#000000" stroke-width="0.5" stroke-linecap="round"/><path d="" fill="none" stroke="#000000" stroke-width="0.5" stroke-linecap="round"/><path d="" fill="none" stroke="#000000" stroke-width="0.5" stroke-linecap="round"/></g><path d="" fill="#fffd4d" stroke="none" stroke-width="0" stroke-linecap="butt"/><path d="" fill="#130000" stroke="none" stroke-width="0.5" stroke-linecap="butt"/><path d="" fill="#fffd4d" stroke="none" stroke-width="0" stroke-linecap="butt"/><path d="" fill="#130000" stroke="none" stroke-width="0.5" stroke-linecap="butt"/><path d="" fill="#744824" stroke="none" stroke-width="0.5" stroke-linecap="butt"/><path d="" fill="#fffd4d" stroke="#000000" stroke-width="0" stroke-linecap="butt"/><path d="" fill="#000000" stroke="none" stroke-width="0.5" stroke-linecap="butt"/><path d="M366.09553,158.25067c0.71343,0.97142 1.12542,2.78102 1.12542,3.9507c0.0104,0.32242 -0.35551,1.23982 -0.73874,1.76479c-0.09175,0.12568 -0.63299,-2.00895 -1.59996,-3.47974c-0.59303,-0.90202 -1.27663,-1.86638 -1.66842,-2.36852c-0.28629,-0.36692 -0.43829,-0.35796 -0.17849,-0.5384c0.34697,-0.24098 0.92257,-0.393 1.45652,-0.30818c0.6505,0.10333 1.26154,0.51348 1.60369,0.97936z" fill="#a8be04" stroke="none" stroke-width="0.5" stroke-linecap="butt"/></g></g></svg>