<svg version="1.1" xmlns="http://www.w3.org/2000/svg" xmlns:xlink="http://www.w3.org/1999/xlink" width="138.52988" height="39.90217" viewBox="0,0,138.52988,39.90217"><g transform="translate(-251.82886,-250.57814)"><g data-paper-data="{&quot;isPaintingLayer&quot;:true}" fill-rule="nonzero" stroke-linecap="butt" stroke-linejoin="miter" stroke-miterlimit="10" stroke-dasharray="" stroke-dashoffset="0" style="mix-blend-mode: normal"><path d="M272.94717,251.08286c0.83886,0 1.58375,0.40232 2.05225,1.02453c0.62221,0.4685 1.02453,1.2134 1.02453,2.05225c0,0.55027 -0.17312,1.06012 -0.46787,1.47803c0.13443,1.19246 -0.79352,2.12041 -0.79352,2.12041l-1.67958,1.67331c-0.67926,0.76416 -1.35851,1.52833 -2.03777,2.29249c0,0 -1.70565,1.91885 -3.6245,0.2132c-0.22268,-0.19794 -0.39655,-0.39875 -0.52994,-0.59909c-1.99095,1.00525 -3.24176,-0.9603 -3.24176,-0.9603c-0.59435,-0.93398 -1.1887,-1.86795 -1.78305,-2.80193l-0.77906,-2.0948c0,0 -0.06838,-0.20515 -0.10592,-0.51621c-0.33558,-0.43392 -0.53527,-0.97827 -0.53527,-1.56926c0,-1.4179 1.14944,-2.56734 2.56734,-2.56734c0.09613,0 0.19102,0.00528 0.2844,0.01558c0.13964,-0.01558 0.22504,-0.01558 0.22504,-0.01558h3.05665c0,0 0.55022,0 1.14122,0.25472c0.09657,0 0.19315,0 0.28972,0c0.33752,-0.16322 0.7162,-0.25472 1.11627,-0.25472c0.40005,0 0.77875,0.0915 1.11627,0.25472h1.68566c0,0 0.19892,0 0.48603,0.05537c0.17191,-0.03628 0.35015,-0.05537 0.53286,-0.05537z" fill="#2b7f5f" stroke="#000000" stroke-width="0.5"/><path d="M261.09168,265.42908c0.13367,0.23626 -0.10259,0.36992 -0.10259,0.36992l0.09697,0.16913c-1.41898,0.56423 -2.33108,1.57458 -3.4915,2.47631c0,0 -0.21497,0.16573 -0.38071,-0.04924c-0.16573,-0.21497 0.04924,-0.38072 0.04924,-0.38072c1.21295,-0.92635 1.88503,-2.04446 3.37001,-2.63494l0.08866,-0.05305c0,0 0.23626,-0.13367 0.36991,0.10258z" fill="#000000" stroke="none" stroke-width="0.5"/><g data-paper-data="{&quot;index&quot;:null}"><path d="M273.63122,265.12422c0,0 0.23508,1.52215 0.32188,3.27881c0.11312,2.28885 -0.28985,5.6694 -0.29322,5.79801c-0.11806,4.50953 -1.51851,7.13204 -2.29799,10.12631c-0.25807,0.9913 -1.61304,3.1087 -2.38928,3.0673c-0.22131,-0.01179 0.6489,-0.57083 0.32245,-0.21174c-0.05872,0.06457 -0.31914,0.0001 -0.40206,0.04654c-0.37287,0.20876 -1.00156,0.39783 -1.60013,0.49226c-0.20096,0.0317 -0.34052,-0.00401 -0.51457,0.10821c-0.1412,0.09103 -1.4948,-0.28372 -1.63796,-0.20637c-0.2864,0.15473 -1.11517,-0.37296 -1.36052,-0.24732c-1.26979,0.65024 -1.35453,0.39568 -2.35594,1.04765c-0.19738,0.1285 -1.77563,-0.13508 -2.64288,-0.92785c-0.78639,-0.71885 -0.86869,-1.97188 -1.03408,-1.91586c-0.24167,0.08185 0.29346,-3.25815 0.05598,-3.18477c-2.66915,0.82477 -4.98878,1.01713 -5.0537,-1.60966c-0.00238,-0.09582 -0.41578,-0.75642 0.47991,-2.17361c0.79732,-1.26155 2.08372,-2.71338 3.07834,-4.20616c1.52804,-2.29339 2.67235,-4.47769 2.6755,-4.61177c0.00466,-0.19824 0.25622,-0.49114 0.30927,-0.68493c0.85931,-3.13891 0.80786,-6.19202 2.13636,-8.10039c1.12148,-1.61097 3.16495,-2.41624 4.64764,-2.3372c1.20491,0.06423 2.3067,-1.06408 3.1773,0.12971c0.3429,0.47022 2.4748,1.63836 2.75596,1.95164c0.60905,0.67861 0.37303,1.04761 0.65018,2.08667c0.1433,0.53724 0.96195,1.2536 0.97155,2.28451z" fill="#2b7f5f" stroke="#000000" stroke-width="0"/><path d="M263.86793,259.42403c-0.63878,0.22654 -1.28638,0.57915 -1.84025,1.11638c-0.38563,0.37406 -0.97001,1.68878 -0.97001,1.68878c-0.39863,1.85196 -0.68755,3.68607 -1.07696,5.44822c-0.83441,2.71085 -2.11367,5.08844 -3.78924,7.3511c-1.35834,2.01371 -3.49144,3.43782 -3.25451,6.09906c0.45353,2.47331 4.95594,1.45552 6.13317,0.40009c1.60035,-1.79786 4.28321,-3.6198 4.41591,-6.25561c0,0 0.01445,-0.27105 0.2855,-0.2566c0.27105,0.01445 0.2566,0.28551 0.2566,0.28551c-0.15753,2.81611 -2.85497,4.6844 -4.57336,6.60978c-0.35938,0.32374 -1.04124,0.81181 -1.63433,1.03309c0.05368,0.15653 -0.02983,0.88805 -0.05262,1.31518c-0.13729,2.50535 1.88794,4.9279 4.45459,3.55489c0.51752,-0.19508 1.72234,-0.97284 1.76954,-0.95032c1.66049,-1.24318 2.32562,-3.05206 3.16607,-5.19139c0.61272,-2.2041 1.09069,-4.10606 0.8786,-6.41563c0,0 -0.02402,-0.27037 0.24635,-0.29439c0.27037,-0.02403 0.29439,0.24635 0.29439,0.24635c0.20388,2.38559 -0.26755,4.35805 -0.90462,6.63625c-0.85218,2.16044 -1.5627,3.99136 -3.16805,5.29593c0.1669,0.08436 2.1663,0.64896 3.52584,0.29537c0.0982,-0.02554 0.95306,-0.25937 1.59367,-0.80846c0.8234,-0.70576 1.4777,-1.8164 1.67192,-2.44816c1.31504,-2.20861 1.70018,-6.25206 1.8333,-8.79471c0.43492,-3.33488 0.85103,-7.00751 0.14227,-10.29827c-0.09104,-0.90312 -0.47056,-2.25879 -1.16522,-3.36837c-0.80475,-1.28544 -0.86563,-2.09403 -0.59311,-1.83481c1.34092,1.27542 2.0786,3.35225 2.29407,5.11544c0.72172,3.33102 0.30527,7.0604 -0.13743,10.43595c-0.15118,2.69239 -0.70193,6.63729 -2.00334,9.01559c-0.42792,1.39202 -1.69457,2.89416 -3.2202,3.48397c-1.30883,0.506 -2.93278,0.20199 -2.96689,0.15466c-0.51681,-0.12508 -0.99439,-0.33971 -1.45939,-0.58955c-0.45442,0.30603 -0.97319,0.57675 -1.57343,0.80892c-2.93835,1.54263 -5.37181,-1.17804 -5.22107,-4.07813c0.02252,-0.42243 0.04505,-0.84486 0.06757,-1.26729c-1.96857,0.51023 -4.38061,0.2551 -4.89259,-1.75048c-0.25549,-2.87941 1.88285,-4.32826 3.34809,-6.49818c1.64736,-2.19207 2.89674,-4.53641 3.707,-7.17547c0.39784,-1.78388 0.94587,-5.7965 1.14355,-5.83119c0.37622,-1.17058 1.6894,-2.15562 2.96341,-2.69818c0.46094,-0.1963 0.68393,0.28039 0.30521,0.41471z" fill="#000000" stroke="none" stroke-width="0.5"/><g stroke="none"><path d="M258.37132,267.525c0.15386,0.22365 -0.06979,0.37748 -0.06979,0.37748l-0.04125,-0.0064c-0.21764,0.39234 -0.46638,0.72676 -0.78464,1.04313c-1.66926,2.1915 -5.27409,1.91175 -5.64678,-0.88997c0.26387,-2.63869 2.78012,-4.13488 4.72392,-5.67931c1.88284,-0.67464 5.27619,-2.98099 7.33348,-3.2801c0,0 -1.55018,0.80846 -1.51259,1.07729c0.03759,0.26882 -0.23123,0.30642 -0.23123,0.30642c-1.99289,0.26518 -3.50153,1.75097 -5.32564,2.37077c-1.75302,1.44723 -4.1706,2.79389 -4.44512,5.19602c0.34053,2.29258 3.34279,2.35219 4.69491,0.542c0.29158,-0.28984 0.52046,-0.58829 0.71847,-0.94865l0.2088,-0.17841c0,0 0.22365,-0.15383 0.37748,0.0698z" fill="#000000" stroke-width="0.5"/><path d="M252.34582,268.02287c-0.08651,-0.61876 0.98446,-2.42802 2.96175,-4.10572c0.78952,-0.66989 2.18121,-1.3409 3.00078,-1.87291c1.42625,-0.92586 5.76389,-2.75342 6.16697,-2.80978c1.21479,-0.16984 -3.73697,4.30045 -3.55578,5.59622c0.09699,0.69366 -1.27807,1.6512 -2.75789,2.78712c-0.6843,0.52526 -1.21661,1.29155 -1.8126,1.74133c-0.52276,0.39453 -1.13464,0.50522 -1.3984,0.54209c-1.21479,0.16986 -2.42369,-0.58257 -2.60487,-1.87834z" fill="#2b7f5f" stroke-width="0"/></g></g><path d="M381.49899,264.19632l0.61454,2.08655c1.42908,0.56825 2.07584,1.64427 3.24313,2.53574c0,0 0.20689,0.15949 0.0474,0.36638c-0.15949,0.20688 -0.36637,0.04739 -0.36637,0.04739c-1.11674,-0.86779 -1.9945,-1.8401 -3.36005,-2.38308l0.09332,-0.16276c0,0 -3.97269,-0.69857 -3.84405,-0.92592c0.12864,-0.22736 3.57209,-1.56429 3.57209,-1.56429z" data-paper-data="{&quot;index&quot;:null}" fill="#000000" stroke="none" stroke-width="0.5"/><path d="M369.41337,252.20589c0.29212,-0.05634 0.49453,-0.05634 0.49453,-0.05634h1.71515c0.34342,-0.16606 0.72873,-0.25917 1.13579,-0.25917c0.40706,0 0.79235,0.09311 1.13579,0.25917c0.09826,0 0.19653,0 0.2948,0c0.60134,-0.25917 1.16118,-0.25917 1.16118,-0.25917h3.1101c0,0 0.08688,0 0.22897,0.01585c0.09502,-0.01047 0.19157,-0.01585 0.28938,-0.01585c1.44269,0 2.61223,1.16954 2.61223,2.61223c0,0.60132 -0.20318,1.15519 -0.54463,1.5967c-0.03819,0.31651 -0.10777,0.52524 -0.10777,0.52524l-0.7927,2.13143c-0.60474,0.95031 -1.20948,1.90063 -1.81422,2.85093c0,0 -1.27267,1.99991 -3.29844,0.97709c-0.13572,0.20385 -0.31263,0.40818 -0.53921,0.60958c-1.9524,1.73547 -3.68787,-0.21693 -3.68787,-0.21693c-0.69113,-0.77752 -1.38227,-1.55505 -2.0734,-2.33257l-1.70895,-1.70257c0,0 -0.94417,-0.94417 -0.8074,-2.15748c-0.2999,-0.42522 -0.47605,-0.94397 -0.47605,-1.50387c0,-0.85353 0.40936,-1.61144 1.04245,-2.08813c0.47669,-0.63309 1.23461,-1.04245 2.08813,-1.04245c0.1859,0 0.36727,0.01941 0.54218,0.05634z" data-paper-data="{&quot;index&quot;:null}" fill="#2b7f5f" stroke="#000000" stroke-width="0.5"/><path d="M380.93399,266.74662c0.13599,-0.24038 0.37638,-0.10438 0.37638,-0.10438l0.09021,0.05398c1.51094,0.6008 2.19477,1.73848 3.42894,2.68101c0,0 0.21873,0.16864 0.0501,0.38736c-0.16862,0.21874 -0.38736,0.0501 -0.38736,0.0501c-1.18072,-0.9175 -2.10877,-1.94552 -3.55255,-2.51961l0.09867,-0.17208c0,0 -0.24039,-0.136 -0.10438,-0.37638z" data-paper-data="{&quot;index&quot;:null}" fill="#000000" stroke="none" stroke-width="0.5"/><g data-paper-data="{&quot;index&quot;:null}"><path d="M368.17517,266.43641c0.00978,-1.04894 0.84274,-1.77782 0.98854,-2.32445c0.282,-1.05724 0.04185,-1.43268 0.66155,-2.12316c0.28609,-0.31875 2.45526,-1.50732 2.80417,-1.98576c0.88582,-1.21468 2.00687,-0.06662 3.23284,-0.13198c1.5086,-0.08043 3.5878,0.73893 4.7289,2.37807c1.35173,1.94173 1.29939,5.04824 2.17372,8.24203c0.05398,0.19718 0.30995,0.4952 0.31468,0.6969c0.0032,0.13642 1.16752,2.35893 2.72228,4.69241c1.01201,1.5189 2.32091,2.9961 3.13218,4.27972c0.91134,1.44197 0.49072,2.11412 0.4883,2.21161c-0.06606,2.67272 -2.42625,2.477 -5.14207,1.63781c-0.24163,-0.07466 0.30285,3.32374 0.05696,3.24046c-0.16828,-0.057 -0.25203,1.21794 -1.05216,1.94936c-0.88241,0.80663 -2.48825,1.07482 -2.68909,0.94406c-1.01893,-0.66337 -1.10514,-0.40435 -2.39714,-1.06597c-0.24965,-0.12784 -1.0929,0.40908 -1.38431,0.25164c-0.14567,-0.0787 -1.52294,0.3026 -1.66661,0.20998c-0.1771,-0.11418 -0.31908,-0.07784 -0.52356,-0.1101c-0.60905,-0.09608 -1.24871,-0.28846 -1.6281,-0.50087c-0.08436,-0.04725 -0.34935,0.01835 -0.4091,-0.04735c-0.33215,-0.36537 0.55327,0.20345 0.32809,0.21545c-0.78981,0.04211 -2.16847,-2.11229 -2.43106,-3.12093c-0.79311,-3.04662 -2.21805,-5.71499 -2.33818,-10.30337c-0.00343,-0.13087 -0.41344,-3.57052 -0.29835,-5.8994c0.08832,-1.78737 0.32752,-3.33614 0.32752,-3.33614z" fill="#2b7f5f" stroke="#000000" stroke-width="0"/><path d="M378.41973,260.21459c1.29628,0.55206 2.63242,1.55431 3.01522,2.74536c0.20114,0.0353 0.75875,4.11809 1.16355,5.93317c0.82443,2.6852 2.09566,5.07054 3.77182,7.30094c1.49085,2.20785 3.66659,3.68204 3.40663,6.6118c-0.52094,2.04065 -2.97514,2.30025 -4.97814,1.78109c0.02291,0.42982 0.04583,0.85963 0.06874,1.28945c0.15338,2.95081 -2.32264,5.71905 -5.31237,4.14944c-0.61074,-0.23623 -1.13859,-0.51169 -1.60094,-0.82307c-0.47314,0.2542 -0.95907,0.47259 -1.48491,0.59986c-0.0347,0.04816 -1.68705,0.35749 -3.01877,-0.15736c-1.55231,-0.60012 -2.8411,-2.12853 -3.27651,-3.54489c-1.32418,-2.4199 -1.88457,-6.43376 -2.03839,-9.17323c-0.45044,-3.43457 -0.87418,-7.22917 -0.13984,-10.61843c0.21925,-1.79402 0.96982,-3.90717 2.33418,-5.20489c0.2773,-0.26376 0.21535,0.55899 -0.60347,1.8669c-0.70681,1.12897 -1.09297,2.50836 -1.1856,3.42728c-0.72116,3.3483 -0.29776,7.08515 0.14476,10.47835c0.13546,2.58711 0.52733,6.70126 1.86536,8.94849c0.19762,0.64282 0.86336,1.77287 1.70115,2.49097c0.65181,0.55869 1.52162,0.79663 1.62154,0.8226c1.3833,0.35977 3.41767,-0.2147 3.58749,-0.30054c-1.63342,-1.3274 -2.35636,-3.19033 -3.22345,-5.38854c-0.64821,-2.31805 -1.12788,-4.32498 -0.92043,-6.75229c0,0 0.02445,-0.27511 0.29955,-0.25066c0.2751,0.02445 0.25066,0.29955 0.25066,0.29955c-0.21579,2.34996 0.27052,4.28518 0.89396,6.52781c0.85516,2.17674 1.53191,4.01724 3.22143,5.28217c0.04802,-0.02291 1.27391,0.76844 1.80048,0.96693c2.61152,1.39702 4.67217,-1.06789 4.53248,-3.61705c-0.02318,-0.4346 -0.10816,-1.17891 -0.05354,-1.33817c-0.60347,-0.22513 -1.29724,-0.72175 -1.6629,-1.05115c-1.74844,-1.95905 -4.49304,-3.86 -4.65333,-6.72536c0,0 -0.0147,-0.2758 0.26109,-0.29051c0.27579,-0.0147 0.29049,0.26109 0.29049,0.26109c0.13502,2.68189 2.86479,4.53569 4.49313,6.36498c1.19782,1.07388 5.77895,2.10947 6.24042,-0.40709c0.24107,-2.70776 -1.92933,-4.15679 -3.31142,-6.20571c-1.70487,-2.30222 -3.00651,-4.72137 -3.8555,-7.47964c-0.39621,-1.79296 -0.69018,-3.65914 -1.09579,-5.54348c0,0 -0.59461,-1.33771 -0.98698,-1.71831c-0.56354,-0.54662 -1.22247,-0.90541 -1.87241,-1.13591c-0.38535,-0.13666 -0.15845,-0.62169 0.31055,-0.42196z" fill="#000000" stroke="none" stroke-width="0.5"/><g stroke="none"><path d="M383.70189,268.87924c0.15651,-0.22755 0.38407,-0.07102 0.38407,-0.07102l0.21245,0.18153c0.20148,0.36666 0.43435,0.67033 0.73103,0.96525c1.37578,1.84185 4.43053,1.78121 4.77701,-0.55147c-0.27933,-2.44414 -2.73918,-3.81435 -4.52286,-5.28688c-1.85601,-0.63064 -3.39102,-2.14241 -5.41876,-2.41223c0,0 -0.27353,-0.03824 -0.23529,-0.31177c0.03825,-0.27353 -1.53904,-1.09613 -1.53904,-1.09613c2.09326,0.30435 5.54595,2.65103 7.46171,3.33746c1.97779,1.57143 4.53804,3.09379 4.80652,5.77862c-0.3792,2.85072 -4.04707,3.13535 -5.74551,0.90553c-0.32382,-0.3219 -0.57691,-0.66217 -0.79836,-1.06137l-0.04197,0.00651c0,0 -0.22756,-0.15652 -0.07101,-0.38408z" fill="#000000" stroke-width="0.5"/><path d="M389.83279,269.38577c-0.18435,1.31842 -1.4144,2.08401 -2.65042,1.91118c-0.26837,-0.03752 -0.89095,-0.15015 -1.42286,-0.55157c-0.6064,-0.45766 -1.14803,-1.23733 -1.8443,-1.77178c-1.50569,-1.15579 -2.9048,-2.13005 -2.80611,-2.83586c0.18435,-1.31842 -4.85398,-5.86688 -3.61795,-5.69406c0.41013,0.05735 4.82362,1.91685 6.2748,2.85891c0.8339,0.54132 2.24993,1.22407 3.05326,1.90567c2.01187,1.70703 3.10157,3.54793 3.01354,4.17751z" fill="#2b7f5f" stroke-width="0"/></g></g></g></g></svg>