<svg version="1.1" xmlns="http://www.w3.org/2000/svg" xmlns:xlink="http://www.w3.org/1999/xlink" width="152.8719" height="102.66418" viewBox="0,0,152.8719,102.66418"><g transform="translate(-255.53979,-13.49849)"><g data-paper-data="{&quot;isPaintingLayer&quot;:true}" fill-rule="nonzero" stroke-width="0.5" stroke-linejoin="miter" stroke-miterlimit="10" stroke-dasharray="" stroke-dashoffset="0" style="mix-blend-mode: normal"><path d="M351.84748,64.52809c-0.17678,0.17678 -0.35355,0 -0.35355,0l-0.07341,-0.08028c-1.01769,-0.68266 -2.32263,-2.34104 -3.20622,-0.54227c0,0 -0.1118,0.22361 -0.33541,0.1118c-0.22361,-0.1118 -0.1118,-0.33541 -0.1118,-0.33541c1.1095,-2.18611 2.62788,-0.5127 3.93079,0.34985l0.14962,0.14275c0,0 0.17678,0.17678 0,0.35355z" fill="#777777" stroke="none" stroke-linecap="butt"/><path d="M352.91196,60.95958c-0.17678,0.17678 -0.35355,0 -0.35355,0l-0.11152,-0.11152c-1.00155,-1.00833 -2.09483,-1.63272 -2.70849,0.23683c0,0 -0.07906,0.23717 -0.31623,0.15811c-0.23717,-0.07906 -0.15811,-0.31623 -0.15811,-0.31623c0.74626,-2.20981 2.25856,-1.70011 3.53639,-0.43227l0.11152,0.11152c0,0 0.17678,0.17678 0,0.35355z" fill="#777777" stroke="none" stroke-linecap="butt"/><path d="M365.48239,22.23284c0,0 10.89967,13.94127 14.79791,28.68096c4.26009,16.10791 1.27495,33.13322 -5.82613,33.0661c-1.56935,-0.01482 -5.0933,-2.2464 -6.99609,-2.23156c-1.46629,0.01143 -14.27762,2.24843 -15.80318,2.25029c-5.32047,0.0065 -9.13125,-1.785 -15.26998,-1.62727c-1.42926,0.03672 -10.40268,2.85949 -11.83282,2.89318c-1.28213,0.03021 -12.6029,-1.23953 -13.84623,-1.20759c-0.85735,0.02202 -14.44519,2.64419 -15.26207,2.66315c-1.54298,0.03582 -13.40045,-2.15844 -14.72779,-2.12297c-2.35839,0.06302 -11.84332,2.89306 -13.28375,2.91131c-3.19789,0.04052 -5.81983,-2.77184 -8.06946,-3.58428c-4.26355,-1.53975 6.64281,-18.0142 8.59152,-22.36906c5.23702,-11.70336 18.9107,-25.16718 33.91018,-36.19511c29.34529,-21.57525 60.3855,-6.47209 60.3855,-6.47209z" fill="#ec2b51" stroke="#000000" stroke-linecap="round"/><path d="M362.77678,24.7012c0,0 -3.75658,-6.22814 -0.91285,-5.88887c0.66765,0.07966 6.10343,4.67632 6.99825,5.04698c9.1421,3.78697 23.2202,13.80849 27.87664,17.79556c0.64252,2.0922 2.22618,4.56898 3.17989,8.01515c1.59548,5.7652 2.54436,12.56881 2.54436,12.56881c0,0 -0.04604,4.54501 -0.46195,10.24703c-0.21402,2.93407 -1.05408,6.17448 -0.93198,9.25966c0.14912,3.7676 -2.9159,17.47346 -2.9159,17.47346h-3.95067c0,-1.9668 0.33788,-4.10402 -0.33924,-5.51465c-0.52121,-1.08582 -1.01164,-2.33409 -1.90663,-3.27209c-0.75779,-0.79421 -1.81869,-0.84089 -2.37364,-1.9869c-3.88492,-8.02261 -6.57343,-14.97519 -11.49607,-23.81829c-2.5788,-4.63258 -6.32265,-11.16438 -10.01817,-15.83936c-3.42401,-4.33153 -6.90823,-6.99014 -6.90823,-6.99014z" fill="#ec2b51" stroke="#000000" stroke-linecap="round"/><path d="M368.44788,24.36871c0.61095,0.49637 -2.04607,-0.4474 -1.67106,0.10114c0.58346,0.85346 0.7543,1.24107 1.36408,1.98933c1.06032,1.30112 0.52396,4.3534 0.52396,5.92548c-0.01872,2.44119 -0.99542,4.67249 -2.40186,6.58903c-0.57851,0.78835 6.95758,7.16491 5.98781,7.62536c-1.19469,0.56724 -6.756,-2.55005 -10.50029,-4.4637c-0.97159,-0.49656 -1.41069,0.31831 -2.10413,-0.15451c-0.98637,-0.67256 -0.0701,-2.32646 -0.4106,-2.5044c-1.63299,-0.6158 -1.76968,-1.08553 -3.04926,-1.47928c-0.19409,-0.05973 -0.4697,-0.46059 -0.7226,-0.49846c-0.11778,-0.01764 0.11877,0.95359 -0.07173,0.92542c-1.438,-0.21266 -5.0591,-1.70461 -5.77997,-2.25799c-1.2337,-0.94707 -1.4944,-3.96618 -1.49886,-5.45395c0,-5.63642 1.10797,-10.24831 6.03502,-12.91208c0.32112,-0.12993 -0.2311,-0.48725 0.1186,-0.67239c1.07508,-0.56917 1.1602,-0.29575 2.45721,0.06415c1.15307,0.31996 3.52846,0.65538 4.3769,1.33426c0.32539,0.26036 1.07443,0.61347 1.36316,0.87038c1.00892,0.89771 1.0254,0.42521 1.49548,1.79613z" fill="#ec2b51" stroke="none" stroke-linecap="butt"/><path d="M377.77762,79.48123c-4.54905,0.25193 -8.79582,1.23091 -13.49627,1.2261c-6.26977,-0.80732 -11.05926,-4.22341 -17.55461,-4.22341c-5.8068,0 -11.36178,1.99384 -17.00745,3.11274c-3.54413,0.68363 -8.57692,1.02005 -12.09007,-0.01102c-2.02924,-0.59556 -4.52733,-1.88417 -6.55168,-1.82939c-5.41636,-2.55206 -9.31157,-5.08756 -15.42372,-5.13322c-1.41776,0.34628 -3.01325,0.04488 -4.36781,0.63566c-4.65955,2.03222 -8.07855,4.69461 -13.36653,4.69461c-1.84822,0 -4.32203,0.3997 -6.04872,-0.41627c-3.2215,-1.52236 -6.45508,-4.49888 -10.22512,-4.54937c-4.2522,1.10935 -1.79871,9.70642 -3.00046,12.5714c-1.17872,2.27454 -2.25751,4.12479 -2.02418,6.9062c0.20009,2.3852 3.87837,3.31612 5.8016,2.37904c1.35417,-0.99653 2.51763,-2.33244 3.97949,-3.14001c2.83879,-1.56821 7.87127,-0.75146 10.73924,0.15222c5.30687,1.73204 8.55414,-2.37224 13.51159,-3.32935c5.05508,-0.01145 8.74182,2.18933 13.80265,2.20457c1.44502,-0.3099 3.23881,-0.56234 4.48138,-1.35399c1.10517,-0.70412 2.26195,-1.98218 3.61386,-2.30094c2.66809,-0.62911 6.14115,-0.57479 8.91847,-0.57104c6.22289,0.91893 12.05845,5.05735 18.55835,4.07948c6.02848,-1.11579 9.93948,-6.43689 16.34873,-2.54796c5.77524,2.81938 10.73893,5.4463 16.88241,1.54261c1.69159,-2.20358 5.62343,-3.3705 8.38538,-2.4999c2.90758,0.91651 3.39596,3.26014 6.75563,3.28524c2.44345,-0.478 2.24097,-5.04556 0.68511,-6.2748c-1.44849,-1.14441 -3.86542,-1.24418 -4.99635,-2.68629c-1.72177,-2.55675 -0.31214,-3.12167 0.49173,-5.489c0.02573,-0.07575 -2.11673,0.24145 -2.21871,0.27132c-1.48352,0.4346 -1.77357,1.17272 -2.74721,1.94423c-0.29011,0.22988 -0.64092,1.29956 -1.10207,1.31656l-0.10597,0.07516c0,0 -0.35148,0.22893 -0.62867,-0.04116zM378.25645,78.45747l0.01162,-0.00648c0.39542,-1.70223 3.17567,-3.27277 4.8593,-3.51326c0.76477,-0.10924 2.13993,-0.22419 2.44905,0.74763c0.39827,1.25211 -1.19136,2.03359 -1.52925,2.87765c-0.26523,0.66257 0.53794,1.77435 0.89299,2.28641c0.60635,1.22603 3.62054,1.51636 4.77954,2.45656c2.40973,1.95484 2.04405,7.17457 -1.19488,8.05173c-0.95761,0.00572 -2.12883,0.1009 -3.0308,-0.20138c-1.62917,-0.54599 -2.55543,-2.65114 -4.16719,-3.12562c-2.48408,-0.73129 -5.85498,0.309 -7.36467,2.27562c-6.45674,4.27864 -11.94572,1.60474 -18.08522,-1.39617c-6.03053,-3.65914 -9.92153,1.57907 -15.67611,2.66065c-6.66145,0.98423 -12.46023,-3.11232 -18.80895,-4.06791c-2.68582,0.00391 -5.97213,-0.04856 -8.54447,0.531c-1.25631,0.28305 -2.32311,1.55568 -3.36118,2.18766c-1.41172,0.85945 -3.31011,1.15903 -4.92028,1.50435c-5.11093,0.01381 -8.77676,-2.19101 -13.81216,-2.2036c-5.15335,1.02068 -8.2965,5.11577 -13.93612,3.2829c-2.54763,-0.86549 -7.4117,-1.64511 -9.94054,-0.21513c-1.42512,0.80586 -2.57612,2.12671 -3.91642,3.10488c-2.60525,1.27535 -6.96628,0.00882 -7.35826,-3.13116c-0.36327,-2.90999 0.92038,-5.06582 2.11177,-7.42033c1.69425,-3.92185 -1.77328,-11.18662 3.76747,-13.14289c4.03402,-0.04032 7.4129,2.98355 10.83066,4.6343c1.54789,0.74762 3.94656,0.31842 5.60714,0.31842c5.13829,0 8.38287,-2.68979 12.94796,-4.60717c1.48462,-0.62355 3.12751,-0.34098 4.66132,-0.71561c6.19225,-0.03702 10.38977,2.39154 15.78395,5.15249c2.11082,0.04796 4.4951,1.22328 6.60818,1.84409c3.34443,0.98257 8.22608,0.65718 11.59768,-0.01102c5.72956,-1.10519 11.31662,-3.13216 17.20819,-3.13216c6.55077,0 11.33349,3.4086 17.6219,4.22558c4.84048,-0.00529 9.19295,-1.04704 13.9078,-1.25202z" fill="#bbbbbb" stroke="none" stroke-linecap="butt"/><path d="M378.35644,79.52637l0.10598,-0.0751c0.46115,-0.017 0.81205,-1.08561 1.10216,-1.31548c0.97364,-0.77151 1.26386,-1.50825 2.74738,-1.94285c0.10198,-0.02988 2.34359,-0.36006 2.31786,-0.28431c-0.80386,2.36733 -2.21312,2.93668 -0.49135,5.49343c1.13094,1.44211 3.54791,1.54408 4.9964,2.68849c1.55586,1.22924 1.7581,5.80161 -0.68535,6.27961c-3.35967,-0.0251 -3.94774,-2.37638 -6.85532,-3.29289c-2.76195,-0.8706 -6.59417,0.30468 -8.28576,2.50826c-6.14348,3.90369 -11.20647,1.26493 -16.98171,-1.55446c-6.40924,-3.88893 -10.22424,1.45702 -16.25272,2.57281c-6.4999,0.97787 -12.41191,-3.13922 -18.63479,-4.05815c-2.77732,-0.00374 -6.26833,-0.08406 -8.93642,0.54505c-1.35192,0.31876 -2.4139,1.56521 -3.51907,2.26932c-1.24256,0.79165 -3.13019,1.07865 -4.57521,1.38855c-5.06083,-0.01524 -8.75004,-2.22597 -13.80511,-2.21452c-4.95745,0.95712 -8.20448,5.06289 -13.51135,3.33084c-2.86798,-0.90368 -7.80163,-1.73566 -10.64042,-0.16745c-1.46186,0.80757 -2.62565,2.14143 -3.97982,3.13796c-1.92323,0.93707 -5.70031,0.02133 -5.90041,-2.36387c-0.23333,-2.78141 0.84507,-4.63675 2.02379,-6.91128c1.20175,-2.86498 -1.25099,-11.47202 3.00121,-12.58137c3.77004,0.05049 7.10248,3.04186 10.32397,4.56422c1.72669,0.81597 4.1013,0.40364 5.94952,0.40364c5.28798,0 8.7091,-2.67164 13.36865,-4.70386c1.35456,-0.59078 2.95119,-0.29248 4.36895,-0.63876c6.11215,0.04566 10.00894,2.57768 15.4253,5.12974c2.02436,-0.05479 4.52713,1.22621 6.55637,1.82177c3.51315,1.03107 8.62723,0.69633 12.17136,0.01269c5.64567,-1.1189 11.20704,-3.09967 17.01384,-3.09967c6.49535,0 11.28705,3.42737 17.55682,4.23468c4.70045,0.00481 8.84754,-0.96619 13.39659,-1.21812c0.27718,0.27009 0.62866,0.04108 0.62866,0.04108z" data-paper-data="{&quot;noHover&quot;:false,&quot;origItem&quot;:[&quot;Path&quot;,{&quot;applyMatrix&quot;:true,&quot;segments&quot;:[[[757.57393,146.85029],[0.55437,0.54018],[-9.0981,0.50386]],[[730.58139,149.30248],[9.4009,0.00962],[-12.53954,-1.61463]],[[695.47217,140.85566],[12.9907,0],[-11.61359,0]],[[661.45727,147.08114],[11.29135,-2.2378],[-7.08826,1.36727]],[[637.27713,147.05911],[7.02629,2.06214],[-4.05848,-1.19112]],[[624.17377,143.40034],[4.04871,-0.10958],[-10.83273,-5.10412]],[[593.32632,133.13389],[12.22431,0.09132],[-2.83552,0.69257]],[[584.5907,134.40521],[2.70913,-1.18156],[-9.3191,4.06444]],[[557.85764,143.79444],[10.57597,0],[-3.69644,0]],[[545.76019,142.9619],[3.45338,1.63194],[-6.44299,-3.04471]],[[525.30995,133.86316],[7.54009,0.10099],[-8.5044,2.2187]],[[519.30903,159.00595],[2.40349,-5.72995],[-2.35744,4.54907]],[[515.26067,172.81835],[-0.46666,-5.56283],[0.40019,4.77041]],[[526.86386,177.57644],[-3.84645,1.87415],[2.70834,-1.99306]],[[534.82285,171.29642],[-2.92373,1.61514],[5.67758,-3.13642]],[[556.30134,171.60086],[-5.73595,-1.80737],[10.61374,3.46409]],[[583.32451,164.94216],[-9.91489,1.91423],[10.11016,-0.02291]],[[610.92981,169.35129],[-10.12166,-0.03047],[2.89003,-0.6198]],[[619.89256,166.64332],[-2.48512,1.58329],[2.21035,-1.40823]],[[627.12029,162.04143],[-2.70383,0.63753],[5.33619,-1.25822]],[[644.95722,160.89934],[-5.55464,-0.00749],[12.44577,1.83785]],[[682.07392,169.05829],[-12.9998,1.95575],[12.05695,-2.23157]],[[714.77137,163.96237],[-12.81848,-7.77786],[11.55049,5.63877]],[[748.5362,167.04758],[-12.28697,7.80738],[3.38318,-4.40715]],[[765.30695,162.04779],[-5.52389,-1.74121],[5.81516,1.83302]],[[778.81821,168.61826],[-6.71935,-0.0502],[4.8869,-0.95599]],[[780.18843,156.06866],[3.11172,2.45847],[-2.89699,-2.28882]],[[770.19572,150.69608],[2.26187,2.88422],[-3.44355,-5.1135]],[[771.17918,139.71807],[-1.60773,4.73466],[0.05145,-0.1515]],[[766.74175,140.26072],[0.20396,-0.05975],[-2.96703,0.8692]],[[761.24733,144.14917],[1.94729,-1.54301],[-0.58022,0.45976]],[[759.0432,146.7823],[0.9223,-0.03401],[0,0]],[758.83126,146.93261]],&quot;closed&quot;:true}]}" fill="#ffffff" stroke="none" stroke-linecap="butt"/><path d="M390.92874,100.30034c1.14423,-1.8289 4.17933,-3.18868 6.32858,-2.36637c1.38498,0.5299 2.42681,2.74214 3.77912,3.10325c2.60161,-0.03566 8.47763,2.08063 7.19438,5.96497c-0.40552,1.2275 -1.83696,1.3507 -2.62465,2.13838c-0.39788,1.26905 1.62869,2.08096 1.35664,3.83904c-0.37955,2.45276 -6.46654,4.2159 -8.38042,2.49654c-2.836,-3.11571 -11.90154,2.50589 -11.90154,-3.47601c0.0255,-1.0455 2.22064,-2.84779 1.33506,-4.00789c-0.7309,-0.95748 -2.44461,-1.701 -2.78299,-3.01047c-0.48404,-1.87315 2.73687,-4.13502 4.32802,-4.09663c0.2629,-0.29393 0.65664,-0.45459 1.02962,-0.58263zM392.00348,100.49628c0.05095,0.07142 0.08552,0.16832 0.08552,0.29979c0,0.5 -0.5,0.5 -0.5,0.5l-0.25103,-0.00194c-0.06083,0.01485 -0.13005,0.01703 -0.20766,-0.0016l-0.37959,-0.00292c-0.30529,0.09571 -0.57172,0.30274 -0.80712,0.51941c-0.84663,0.018 -4.21178,1.55504 -3.75361,2.88296c0.41944,1.21569 2.10342,1.84953 2.72721,2.86708c1.07186,1.74845 -1.28314,3.15507 -1.23636,4.44108c0,1.8899 1.4892,2.15698 3.29605,1.89151c2.50225,-0.36764 6.24311,-1.08021 8.31261,0.87739c0.84955,1.07246 6.01919,-0.27382 6.54192,-1.33072c1.02994,-2.08246 -1.80552,-2.698 -1.0759,-4.82349c0.56293,-0.56293 2.24926,-1.11179 2.5182,-1.90244c1.11775,-3.28604 -4.44696,-4.66814 -6.39746,-4.68809c-1.52368,-0.55063 -2.44324,-2.60072 -3.93517,-3.14165c-1.59359,-0.57779 -3.89506,0.30179 -4.93761,1.61362z" fill="#bbbbbb" stroke="none" stroke-linecap="butt"/><path d="M396.94206,98.83267c1.49193,0.54094 2.44254,2.60262 3.96621,3.15324c1.9505,0.01995 7.53318,1.43941 6.41543,4.72545c-0.26894,0.79064 -1.95634,1.35088 -2.51927,1.91381c-0.72962,2.12548 2.09751,2.7599 1.06757,4.84235c-0.52272,1.0569 -5.71773,2.42161 -6.56728,1.34915c-2.0695,-1.95761 -5.85762,-1.25427 -8.35986,-0.88663c-1.80685,0.26547 -3.30771,-0.01567 -3.30771,-1.90557c-0.04678,-1.28601 2.30207,-2.71297 1.23021,-4.46143c-0.62379,-1.01754 -2.30685,-1.66571 -2.72629,-2.88139c-0.45817,-1.32793 2.91588,-2.88459 3.76252,-2.90259c0.23539,-0.21667 0.50533,-0.42788 0.81061,-0.5236l0.38071,0.00176c0.07761,0.01863 0.14748,0.0158 0.20832,0.00095l0.25188,0.00113c0,0 0.5035,-0.00294 0.5035,-0.50294c0,-0.13147 -0.034,-0.2288 -0.08495,-0.30022c1.04255,-1.31184 3.37482,-2.20127 4.9684,-1.62348z" data-paper-data="{&quot;noHover&quot;:false,&quot;origItem&quot;:[&quot;Path&quot;,{&quot;applyMatrix&quot;:true,&quot;segments&quot;:[[[786.02564,188.8804],[2.08511,-2.62367],[0.10191,0.14284]],[[786.19668,189.47998],[0,-0.26293],[0,1]],[785.19668,190.47998],[[784.69463,190.47611],[0,0],[-0.12167,0.02971]],[[784.27931,190.47292],[0.15522,0.03726],[0,0]],[[783.52013,190.46707],[0,0],[-0.61057,0.19143]],[[781.9059,191.5059],[0.47079,-0.43335],[-1.69327,0.036]],[[774.39867,197.27183],[-0.91633,-2.65586],[0.83888,2.43138]],[[779.85309,203.00598],[-1.24758,-2.03509],[2.14372,3.4969]],[[777.38036,211.88814],[-0.09356,-2.57201],[0,3.77981]],[[783.97246,215.67115],[-3.61369,0.53094],[5.00449,-0.73528]],[[800.59767,217.42594],[-4.139,-3.91521],[1.6991,2.14493]],[[813.6815,214.7645],[-1.04545,2.1138],[2.05989,-4.16492]],[[811.52971,205.11752],[-1.45924,4.25097],[1.12585,-1.12585]],[[816.56612,201.31265],[-0.53788,1.58129],[2.23551,-6.57208]],[[803.7712,191.93646],[3.901,0.03991],[-3.04735,-1.10126]],[[795.90086,185.65315],[2.98386,1.08187],[-3.18717,-1.15559]]],&quot;closed&quot;:true}]}" fill="#ffffff" stroke="none" stroke-linecap="butt"/><path d="M288.79823,83.82426c0.07729,0.49399 -0.4167,0.57128 -0.4167,0.57128l-0.22094,0.01068c-2.47369,1.19997 -3.76053,1.56053 -6.81433,1.48789c-1.37295,-0.88881 -2.83838,-0.81516 -4.15536,-1.56724c-2.2035,-1.25834 -6.02286,-2.70299 -7.64821,-0.14798c0,0 -0.27735,0.41603 -0.69338,0.13868c-0.41603,-0.27735 -0.13868,-0.69338 -0.13868,-0.69338c2.03134,-2.943 6.34465,-1.84542 9.00599,-0.14798c1.11753,0.71278 2.69139,0.61497 3.91941,1.4608c2.90885,-0.10195 3.68731,-0.18473 6.07733,-1.42523l0.51357,-0.10424c0,0 0.49399,-0.07729 0.57128,0.4167z" fill="#bbbbbb" stroke="none" stroke-linecap="butt"/><path d="M324.88835,83.64921c0,0.5 -0.5,0.5 -0.5,0.5l-0.56567,-0.03806c-0.13455,0.14945 -0.26911,0.2989 -0.40366,0.44835c-2.69773,1.38282 -5.90322,2.59021 -8.62999,0.77671c-1.3286,-0.88362 -2.65618,-0.64304 -3.46472,-2.22041c0,0 -0.22361,-0.44721 0.22361,-0.67082c0.44721,-0.22361 0.67082,0.22361 0.67082,0.22361c0.59508,1.23092 1.99765,1.10717 3.09603,1.81697c2.4154,1.5609 5.09977,0.43252 7.51955,-0.73731c0.2019,-0.187 0.40379,-0.37399 0.60569,-0.56099l0.94835,-0.03806c0,0 0.5,0 0.5,0.5z" fill="#bbbbbb" stroke="none" stroke-linecap="butt"/><path d="M354.36837,84.86219c-0.20363,0.45666 -0.66029,0.25302 -0.66029,0.25302l-0.62994,-0.28246c-0.89775,-0.24829 -1.65323,-0.97471 -2.40029,-1.22456c-2.20454,-0.73728 -6.0362,0.03634 -8.37361,0.03634c0,0 -0.5,0 -0.5,-0.5c0,-0.5 0.5,-0.5 0.5,-0.5c2.49838,0 6.36814,-0.74693 8.74788,0.03634c0.78769,0.25926 1.44434,0.95821 2.36343,1.21052l0.69979,0.3105c0,0 0.45666,0.20363 0.25302,0.66029z" fill="#bbbbbb" stroke="none" stroke-linecap="butt"/><path d="M382.42106,83.14454c0,0.5 -0.5,0.5 -0.5,0.5l-0.4493,-0.04043c-1.45501,-0.62358 -2.65496,-0.87141 -4.22272,-1.10283c-1.6904,-0.25006 -3.6862,-0.60088 -5.39651,-0.36509c-3.45117,0.47579 -6.82738,3.29167 -10.23338,4.26481c0,0 -0.48076,0.13736 -0.61812,-0.3434c-0.13736,-0.48076 0.3434,-0.61812 0.3434,-0.61812c3.4884,-0.99669 6.8341,-3.774 10.37981,-4.29503c1.79251,-0.2634 3.89781,0.10637 5.67083,0.36755c1.64405,0.24268 2.94005,0.51701 4.4706,1.17297l0.05538,-0.04043c0,0 0.5,0 0.5,0.5z" fill="#bbbbbb" stroke="none" stroke-linecap="butt"/><path d="M399.00288,104.464c-0.17678,0.17678 -0.35355,0 -0.35355,0l0.02745,-0.02293c-2.47461,-0.6741 -3.3259,-2.30509 -6.12446,-0.90582c0,0 -0.22361,0.1118 -0.33541,-0.1118c-0.1118,-0.22361 0.1118,-0.33541 0.1118,-0.33541c2.98566,-1.49283 3.85752,0.29858 6.46933,0.86796l0.20483,0.15445c0,0 0.17678,0.17678 0,0.35355z" fill="#bbbbbb" stroke="none" stroke-linecap="butt"/><path d="M400.0599,106.87538c0.24988,-0.00785 0.25772,0.24203 0.25772,0.24203l-0.00121,0.2181c0.58664,0.94713 2.01739,2.32088 2.04117,3.42598c0,0 0,0.25 -0.25,0.25c-0.25,0 -0.25,-0.25 -0.25,-0.25c0.02903,-0.92171 -1.53812,-2.45757 -2.02087,-3.28496l-0.01884,-0.34342c0,0 -0.00785,-0.24988 0.24203,-0.25772z" fill="#bbbbbb" stroke="none" stroke-linecap="butt"/><path d="M396.0946,109.32127c-0.15617,0.19522 -0.35139,0.03904 -0.35139,0.03904l-0.05301,-0.04241c-0.83182,-0.66648 -1.21369,-1.97 -2.54016,-1.94265c0,0 -0.25,0 -0.25,-0.25c0,-0.25 0.25,-0.25 0.25,-0.25c1.51804,0.02185 1.89259,1.28552 2.85251,2.05221l0.05301,0.04241c0,0 0.19522,0.15617 0.03904,0.35139z" fill="#bbbbbb" stroke="none" stroke-linecap="butt"/></g></g></svg>