<svg version="1.1" xmlns="http://www.w3.org/2000/svg" xmlns:xlink="http://www.w3.org/1999/xlink" width="149.6772" height="33.69191" viewBox="0,0,149.6772,33.69191"><g transform="translate(-245.05534,-251.66372)"><g data-paper-data="{&quot;isPaintingLayer&quot;:true}" fill-rule="nonzero" stroke-linecap="butt" stroke-linejoin="miter" stroke-miterlimit="10" stroke-dasharray="" stroke-dashoffset="0" style="mix-blend-mode: normal"><path d="M260.27761,253.30695c2.30324,1.12229 4.49981,2.74814 6.63395,4.15309c2.24606,1.13407 6.34222,1.93676 7.95472,3.97798c1.2628,2.22194 0.04423,6.52487 -0.26464,9.02552c-0.30461,2.46612 -0.01855,7.23295 -1.55213,9.1995c-1.1738,2.16793 -5.08919,4.63167 -7.4076,4.94259c-2.4816,1.13249 -5.96318,0.08152 -8.6046,-0.24474c-3.00367,-0.371 -6.46084,-1.19102 -9.10577,-2.65466c-2.7305,-2.30918 -2.26088,-4.84901 -1.68107,-8.07468c1.78177,-2.13172 2.48469,-4.69589 4.77461,-6.44643c1.41585,-2.00195 4.2957,-2.6661 5.48164,-5.09081c0.2385,-0.18952 0.66636,-0.52522 0.18012,-0.8154c-1.77905,-1.06175 -3.19325,-2.60626 -3.60626,-4.66773c-0.27216,-3.64389 2.70781,-4.31915 5.72511,-3.94647c0.65263,0.08061 1.00411,0.25921 1.47193,0.64226z" fill="#f58ee5" stroke="#ff4ac1" stroke-width="1.5"/><path d="M260.52869,267.98546c0,-0.13807 0.11193,-0.25 0.25,-0.25c0.13807,0 0.25,0.11193 0.25,0.25c0,0.13807 -0.11193,0.25 -0.25,0.25c-0.13807,0 -0.25,-0.11193 -0.25,-0.25z" fill="#ff93ee" stroke="none" stroke-width="0.5"/><path d="M261.8787,264.98546c0,-0.26621 0.20805,-0.48383 0.47043,-0.49914c0.03838,-0.08875 0.12672,-0.15086 0.22957,-0.15086c0.13807,0 0.25,0.11193 0.25,0.25c0,0.04517 -0.01199,0.08755 -0.03294,0.12412c0.05241,0.07907 0.08294,0.17391 0.08294,0.27588c0,0.27614 -0.22386,0.5 -0.5,0.5c-0.27614,0 -0.5,-0.22386 -0.5,-0.5z" fill="#ff4ac1" stroke="none" stroke-width="0.5"/><path d="M252.0287,272.18546c0,-0.41422 0.33578,-0.75 0.75,-0.75c0.41422,0 0.75,0.33578 0.75,0.75c0,0.41422 -0.33578,0.75 -0.75,0.75c-0.41422,0 -0.75,-0.33578 -0.75,-0.75z" fill="#ff4ac1" stroke="none" stroke-width="0.5"/><path d="M266.4287,278.38546c0,-0.41422 0.33578,-0.75 0.75,-0.75c0.41422,0 0.75,0.33578 0.75,0.75c0,0.41422 -0.33578,0.75 -0.75,0.75c-0.41422,0 -0.75,-0.33578 -0.75,-0.75z" fill="#ff4ac1" stroke="none" stroke-width="0.5"/><path d="M255.8287,280.54893c0,-0.41422 0.33578,-0.75 0.75,-0.75c0.41422,0 0.75,0.33578 0.75,0.75c0,0.41422 -0.33578,0.75 -0.75,0.75c-0.41422,0 -0.75,-0.33578 -0.75,-0.75z" fill="#ff4ac1" stroke="none" stroke-width="0.5"/><path d="M264.02869,270.94893c0,-0.41422 0.33578,-0.75 0.75,-0.75c0.41422,0 0.75,0.33578 0.75,0.75c0,0.41422 -0.33578,0.75 -0.75,0.75c-0.41422,0 -0.75,-0.33578 -0.75,-0.75z" fill="#ff4ac1" stroke="none" stroke-width="0.5"/><path d="M258.49577,257.3824c0,-0.41422 0.33578,-0.75 0.75,-0.75c0.41422,0 0.75,0.33578 0.75,0.75c0,0.41422 -0.33578,0.75 -0.75,0.75c-0.41422,0 -0.75,-0.33578 -0.75,-0.75z" fill="#ff4ac1" stroke="none" stroke-width="0.5"/><g><path d="M379.95539,253.30697c0.46782,-0.38305 0.8193,-0.56165 1.47193,-0.64226c3.0173,-0.37268 5.99727,0.30258 5.72511,3.94647c-0.41301,2.06147 -1.82721,3.60598 -3.60626,4.66773c-0.48624,0.29018 -0.05838,0.62588 0.18012,0.8154c1.18594,2.42471 4.06579,3.08886 5.48164,5.09081c2.28992,1.75054 2.99284,4.31471 4.77461,6.44643c0.57981,3.22567 1.04943,5.7655 -1.68107,8.07468c-2.64493,1.46364 -6.1021,2.28366 -9.10577,2.65466c-2.64142,0.32626 -6.123,1.37723 -8.6046,0.24474c-2.31841,-0.31092 -6.2338,-2.77466 -7.4076,-4.94259c-1.53358,-1.96655 -1.24752,-6.73338 -1.55213,-9.1995c-0.30887,-2.50065 -1.52744,-6.80358 -0.26464,-9.02552c1.6125,-2.04122 5.70866,-2.84391 7.95472,-3.97798c2.13414,-1.40495 4.33071,-3.0308 6.63395,-4.15309z" data-paper-data="{&quot;index&quot;:null}" fill="#f58ee5" stroke="#ff4ac1" stroke-width="1.5"/><path d="M379.45432,268.23546c-0.13807,0 -0.25,-0.11193 -0.25,-0.25c0,-0.13807 0.11193,-0.25 0.25,-0.25c0.13807,0 0.25,0.11193 0.25,0.25c0,0.13807 -0.11193,0.25 -0.25,0.25z" data-paper-data="{&quot;index&quot;:null}" fill="#ff93ee" stroke="none" stroke-width="0.5"/><path d="M377.85431,265.48546c-0.27614,0 -0.5,-0.22386 -0.5,-0.5c0,-0.10197 0.03053,-0.19681 0.08294,-0.27588c-0.02095,-0.03657 -0.03294,-0.07895 -0.03294,-0.12412c0,-0.13807 0.11193,-0.25 0.25,-0.25c0.10285,0 0.19119,0.06211 0.22957,0.15086c0.26238,0.01531 0.47043,0.23293 0.47043,0.49914c0,0.27614 -0.22386,0.5 -0.5,0.5z" data-paper-data="{&quot;index&quot;:null}" fill="#ff4ac1" stroke="none" stroke-width="0.5"/><path d="M387.45431,272.93547c-0.41422,0 -0.75,-0.33578 -0.75,-0.75c0,-0.41422 0.33578,-0.75 0.75,-0.75c0.41422,0 0.75,0.33578 0.75,0.75c0,0.41422 -0.33578,0.75 -0.75,0.75z" data-paper-data="{&quot;index&quot;:null}" fill="#ff4ac1" stroke="none" stroke-width="0.5"/><path d="M373.05431,279.13547c-0.41422,0 -0.75,-0.33578 -0.75,-0.75c0,-0.41422 0.33578,-0.75 0.75,-0.75c0.41422,0 0.75,0.33578 0.75,0.75c0,0.41422 -0.33578,0.75 -0.75,0.75z" data-paper-data="{&quot;index&quot;:null}" fill="#ff4ac1" stroke="none" stroke-width="0.5"/><path d="M383.65431,281.29893c-0.41422,0 -0.75,-0.33578 -0.75,-0.75c0,-0.41422 0.33578,-0.75 0.75,-0.75c0.41422,0 0.75,0.33578 0.75,0.75c0,0.41422 -0.33578,0.75 -0.75,0.75z" data-paper-data="{&quot;index&quot;:null}" fill="#ff4ac1" stroke="none" stroke-width="0.5"/><path d="M375.45432,271.69894c-0.41422,0 -0.75,-0.33578 -0.75,-0.75c0,-0.41422 0.33578,-0.75 0.75,-0.75c0.41422,0 0.75,0.33578 0.75,0.75c0,0.41422 -0.33578,0.75 -0.75,0.75z" data-paper-data="{&quot;index&quot;:null}" fill="#ff4ac1" stroke="none" stroke-width="0.5"/><path d="M380.98724,258.13241c-0.41422,0 -0.75,-0.33578 -0.75,-0.75c0,-0.41422 0.33578,-0.75 0.75,-0.75c0.41422,0 0.75,0.33578 0.75,0.75c0,0.41422 -0.33578,0.75 -0.75,0.75z" data-paper-data="{&quot;index&quot;:null}" fill="#ff4ac1" stroke="none" stroke-width="0.5"/></g><path d="M270.11959,266.13075c0,-0.41422 0.33578,-0.75 0.75,-0.75c0.41422,0 0.75,0.33578 0.75,0.75c0,0.41422 -0.33578,0.75 -0.75,0.75c-0.41422,0 -0.75,-0.33578 -0.75,-0.75z" fill="#ff4ac1" stroke="none" stroke-width="0.5"/><path d="M368.66505,265.13075c0,-0.41422 0.33578,-0.75 0.75,-0.75c0.41422,0 0.75,0.33578 0.75,0.75c0,0.41422 -0.33578,0.75 -0.75,0.75c-0.41422,0 -0.75,-0.33578 -0.75,-0.75z" fill="#ff4ac1" stroke="none" stroke-width="0.5"/></g></g></svg>