<svg version="1.1" xmlns="http://www.w3.org/2000/svg" xmlns:xlink="http://www.w3.org/1999/xlink" width="121.76984" height="75.71945" viewBox="0,0,121.76984,75.71945"><g transform="translate(-255.55615,-121.44715)"><g data-paper-data="{&quot;isPaintingLayer&quot;:true}" fill-rule="nonzero" stroke-linejoin="miter" stroke-miterlimit="10" stroke-dasharray="" stroke-dashoffset="0" style="mix-blend-mode: normal"><path d="M364.41985,153.12227l0.21483,15.06372l-95.55392,0.68398l-1.60097,0.02175l-0.81483,-19.53988c0,0 1.27353,2.85517 2.66001,2.87575c0.64898,0.00964 1.14574,0.6769 2.59193,0.66683c0.62637,-0.00436 6.41712,-2.5171 7.17619,-2.5263c0.35696,-0.00432 0.69088,0.01414 1.02812,0.35055c0.55709,0.55571 1.12322,1.54579 1.81714,1.54035c0.56374,-0.00442 1.64897,0.32452 2.25206,0.31863c0.35658,-0.00348 11.32788,-2.6802 11.69729,-2.68431c1.00174,-0.01113 6.04246,2.98671 7.09947,2.9793c1.01344,-0.0071 1.87716,-0.4349 2.92233,-0.44786c0.5253,-0.00651 2.8084,-2.26883 3.34073,-2.27638c0.33312,-0.00472 4.25899,-0.34337 4.59402,-0.3477c0.39103,-0.00505 5.62712,1.15964 6.01878,1.15526c0.41893,-0.00468 1.45654,0.28489 2.42232,0.02926c1.48841,-0.39397 3.03594,-1.39368 3.67209,-1.40055c0.71231,-0.00769 1.38039,0.93129 2.01006,0.92079c1.22375,-0.0204 2.93468,1.60049 3.91088,1.37946c0.49959,-0.11312 2.322,0.09531 3.36933,0.01266c0.36854,-0.02908 0.57185,-0.02496 0.68349,-0.17928c0.12442,-0.172 0.54537,-0.16865 0.70036,-0.24593c0.34894,-0.17399 0.47528,-0.27427 0.82677,-0.27899c0.57441,-0.00772 0.6105,-0.36662 1.1529,-0.3633c0.06047,0.00037 1.33903,-0.623 1.28765,-0.59141c-1.5038,0.92471 0.17348,-0.72493 2.43894,-0.48846c0.39325,0.04105 1.82403,0.86618 2.89491,1.19443c0.93142,0.2855 1.51359,0.07963 1.87533,0.112c0.41941,0.03752 3.92433,-1.67439 4.33365,-1.62712c0.5392,0.06227 2.39977,0.8817 2.90787,0.95516c0.86085,0.12448 3.07517,1.99435 3.79349,2.0973c3.93371,0.56378 3.34744,0.30606 4.92539,0.16132c0.84542,-0.07754 2.79494,-0.74642 2.79494,-0.74642z" fill="#79ff16" stroke="#008638" stroke-width="0.5" stroke-linecap="round"/><path d="M267.59593,184.85622v-21.64039c0,0 93.01445,-0.9069 96.78396,-0.92492c0.2346,-0.00113 -0.03949,0.33063 -0.03949,0.33063l1.02182,22.23467z" fill="#79ff16" stroke="#000000" stroke-width="0" stroke-linecap="butt"/><path d="M281.55084,196.75531c-3.90132,-0.00196 -6.41518,-0.97586 -5.4971,-4.45257c-0.02961,-0.02458 -0.04827,-0.04747 -0.05438,-0.06832c-0.07015,-0.23908 -0.12204,-0.48769 -0.15642,-0.7386c0.28853,-1.40913 0.88568,-2.93308 1.28425,-4.28586c0.26434,-0.8972 0.25684,-1.71004 0.4644,-2.47365c0.06779,-0.12951 2.80595,0.04299 6.41547,0.02723c1.11593,-0.00487 3.93638,-0.07503 7.41592,-0.06415c2.8218,0.00882 6.41941,-0.00054 7.16839,-0.0056c5.78799,-0.03911 11.29201,-0.09572 11.29899,0.42491c-0.02646,1.6272 0.43845,5.52758 -0.26206,8.16112c-0.17165,0.33466 -0.36704,0.58655 -0.58172,0.71949c-2.28942,1.4178 -5.03095,1.78315 -7.84118,1.82541c-4.6497,0.61217 -9.51628,1.09035 -14.25149,0.79855c-1.77852,0.09393 -3.57504,0.13296 -5.40305,0.13205z" fill="#79ff16" stroke="#008638" stroke-width="0.5" stroke-linecap="butt"/><path d="M360.2713,158.25422c0,0.03957 2.9674,1.39393 3.86841,3.84941c0.72062,1.96392 0.51015,4.9916 0.50406,5.0103c-0.04683,3.12266 0.33892,4.78835 0.33892,7.96347c0,0.81974 -3.5745,1.18581 -5.90964,1.15433c-1.05189,-0.01418 -0.91069,0.03533 -2.36423,-0.00469c-0.65574,-0.01805 -3.9296,0.25614 -4.96871,0.12505c-2.96506,0.2227 -9.09869,0.36023 -12.70889,-0.8675c-4.77391,-0.16978 -1.49631,-7.82659 0.23632,-9.28537c2.59179,-2.16744 6.29428,-1.27907 9.75853,-1.27907c0.94515,0.25842 0.59857,-1.58688 0.94835,-2.36531c0.73723,-1.6407 2.1921,-3.30544 3.90813,-4.26268c0.62977,-0.3287 6.38875,-0.03794 6.38875,-0.03794z" fill="#9213ce" stroke="none" stroke-width="0.5" stroke-linecap="butt"/><path d="M279.78233,160.00153c2.04419,0.95724 3.77727,2.62198 4.65548,4.26268c0.41667,0.77843 0.0038,2.62373 1.12971,2.36531c4.12672,0 8.53724,-0.88837 11.62467,1.27907c2.06396,1.45878 5.96833,9.11559 0.28151,9.28537c-4.30059,1.22772 -11.60715,1.0902 -15.13922,0.8675c-1.23781,0.13109 -5.13774,-0.14309 -5.91888,-0.12505c-1.7315,0.04002 -1.56329,-0.0095 -2.81635,0.00469c-2.78171,0.03149 -6.36195,-0.33459 -6.36195,-1.15432c0,-3.17512 0.02818,-4.84081 -0.0276,-7.96347c-0.00724,-0.0187 -0.50444,-3.04638 0.35398,-5.0103c1.0733,-2.45549 4.60817,-3.80985 4.60817,-3.84941c0,0 6.86028,-0.29076 7.61047,0.03794z" data-paper-data="{&quot;index&quot;:null}" fill="#9213ce" stroke="none" stroke-width="0.5" stroke-linecap="butt"/><path d="M311.73893,167.67117c-1.41366,-0.82227 -2.61218,-2.25231 -3.21951,-3.66168c-0.28814,-0.66868 -0.66693,-1.14408 -0.70624,-1.92621c-1.21254,0 -2.01508,-2.84547 -3.21324,-2.82981c-1.62185,0.02119 -3.94562,1.87801 -5.17357,0.80722c-1.14044,-1.00124 -3.84285,-5.67881 -2.84197,-7.4503c0.12464,-0.2206 0.25641,-0.54935 0.34138,-0.9409c0.08668,-0.39943 0.12916,-0.85969 0.52832,-0.8745c0.02938,-0.01042 1.80482,0.72321 2.83002,1.20637c0.43257,0.20386 0.91612,0.53676 1.2157,0.56266c0.37856,0.03273 1.61944,0.40799 2.46918,0.34404c1.04422,-0.07859 1.34178,-0.24464 2.1828,-0.35814c0.36842,-0.04972 2.67754,-2.18075 3.05909,-2.16308c0.08259,0.00383 0.39236,-0.08828 1.12995,-0.16108c1.3035,-0.12865 3.5151,-0.22689 3.65957,-0.21621c2.12232,0.15691 3.42567,0.69866 4.49381,0.91022c0.90078,0.17842 1.59784,0.2018 2.00645,0.24765c0.20425,0.02292 0.56583,0.38625 1.91925,-0.00964c1.29662,-0.37928 3.56101,-1.48767 3.56101,-1.47681c0,0.08694 0.29906,0.19139 0.49781,0.30912c0.19774,0.11714 0.72461,0.51644 1.17782,0.68095c0.45896,0.16659 0.6006,0.03742 0.99571,0.19655c0.81799,0.32944 1.70189,0.77395 2.416,1.10726c0.81763,0.38163 1.40319,0.64603 1.24983,0.91295c-0.79143,1.37742 0.8039,5.84924 -2.05159,7.0944c-1.54408,0.6733 -4.90967,-1.88823 -7.04715,-1.84723c-1.57398,0.03018 -2.79183,1.53861 -2.7858,1.9582c0.00501,0.01606 0.34884,2.61686 -0.2448,4.30389c-0.74223,2.10929 -3.18678,3.27269 -3.18678,3.30668c0,0 -4.74424,0.24977 -5.26304,-0.03258z" data-paper-data="{&quot;index&quot;:null}" fill="#9213ce" stroke="none" stroke-width="0.5" stroke-linecap="butt"/><path d="M353.1505,196.9166c-1.82802,0.00091 -3.62454,-0.03812 -5.40305,-0.13204c-4.73521,0.29181 -9.60179,-0.18638 -14.25149,-0.79855c-2.81023,-0.04226 -5.55176,-0.40761 -7.84118,-1.82541c-0.21468,-0.13295 -0.41007,-0.38483 -0.58172,-0.71949c-0.70051,-2.63354 -0.27219,-6.86321 -0.29865,-8.4904c0.51979,-0.23569 1.57194,-0.28763 3.30543,-0.26917c1.44549,0.01539 3.0563,0.06857 3.83911,0.01852c2.59154,-0.01001 5.61947,-0.0063 8.8859,-0.04662c7.82607,-0.09658 16.18108,0.00755 16.30491,0.24415c0.20756,0.76361 0.20006,1.57645 0.4644,2.47365c0.39857,1.35279 0.99572,2.87673 1.28425,4.28586c-0.03438,0.2509 -0.08627,0.49951 -0.15642,0.73859c-0.00612,0.02085 -0.02477,0.04374 -0.05438,0.06832c0.91808,3.47671 -1.59578,4.45061 -5.4971,4.45257z" data-paper-data="{&quot;index&quot;:null}" fill="#79ff16" stroke="#008638" stroke-width="0.5" stroke-linecap="butt"/><path d="M364.47355,160.59535l1.18757,24.05592l-97.9831,0.09196l-0.76862,-32.42328" fill="none" stroke="#008638" stroke-width="0.5" stroke-linecap="round"/><path d="M368.67373,122.17731c0.45502,0.06727 0.65285,-0.0167 0.68565,-0.18811c2.25662,0.06838 3.82756,2.58169 4.94581,4.25905c0.4273,1.16694 1.11752,2.26069 1.38768,3.59886c0.25951,1.28544 0.08655,3.06267 0.65918,4.2307c0.4151,2.58284 0.72395,5.15771 0.72395,7.78205c0,3.09308 -2.24941,4.47032 -5.25872,4.90827c-2.79346,0.02112 -0.51816,1.01353 -3.21293,-0.06759c-2.61784,-0.88964 -2.05638,-5.5779 -1.35689,-7.59214c1.05396,-3.04672 2.75133,-7.21702 3.54021,-10.37097c0.31627,-1.2674 -3.73566,-7.64128 -2.11395,-6.56014z" data-paper-data="{&quot;noHover&quot;:false,&quot;origItem&quot;:[&quot;Path&quot;,{&quot;applyMatrix&quot;:true,&quot;segments&quot;:[[[273.23414,152.39607],[0.0328,0.17141],[-2.25662,0.06838]],[[267.6027,156.64807],[1.11824,-1.67736],[-0.4273,1.16694]],[[266.22965,160.23355],[0.27016,-1.33817],[-0.25952,1.28544]],[[265.58001,164.43753],[0.57263,-1.16803],[-0.4151,2.58284]],[[264.8422,172.1822],[0,-2.62434],[0,3.09309]],[[270.07461,177.07606],[-3.00931,-0.43795],[2.79345,0.02112]],[[278.25584,176.58401],[-2.69477,1.08112],[2.61784,-0.88964]],[[279.5891,168.01622],[0.69949,2.01424],[-1.05395,-3.04672]],[[277.20773,158.42042],[0.78889,3.15395],[-0.31628,-1.26739]],[[273.91699,152.58394],[1.62171,-1.08114],[-0.45502,0.06727]]],&quot;closed&quot;:true}],&quot;index&quot;:null}" fill="#f58ee5" stroke="#ffb5f4" stroke-width="0.5" stroke-linecap="butt"/><path d="M263.06558,121.89158c1.62171,-1.08114 -1.43022,5.29273 -1.11395,6.56013c0.13352,0.53382 -0.13141,1.09674 0.05344,1.67842c0.21421,0.67407 0.26674,2.07165 0.67003,2.75557c1.30488,2.21284 3.43361,3.14637 4.10246,5.07985c0.50178,1.44492 0.29176,4.06619 -0.42964,6.16473c-0.28424,0.82685 -0.04447,2.17595 -0.7844,2.42741c-2.69477,1.08112 -1.70518,-0.05415 -4.49864,-0.07527c-3.00931,-0.43795 -5.25872,-1.81519 -5.25872,-4.90827c0,-2.62434 0.30885,-5.19921 0.72395,-7.78205c0.57263,-1.16803 0.39967,-2.94526 0.65918,-4.2307c0.27016,-1.33817 0.96038,-2.43192 1.38768,-3.59886c1.11824,-1.67736 1.54633,-4.19067 3.80295,-4.25905c0.0328,0.17141 0.23063,0.25538 0.68565,0.18811z" data-paper-data="{&quot;noHover&quot;:false,&quot;origItem&quot;:[&quot;Path&quot;,{&quot;applyMatrix&quot;:true,&quot;segments&quot;:[[[273.23414,152.39607],[0.0328,0.17141],[-2.25662,0.06838]],[[267.6027,156.64807],[1.11824,-1.67736],[-0.4273,1.16694]],[[266.22965,160.23355],[0.27016,-1.33817],[-0.25952,1.28544]],[[265.58001,164.43753],[0.57263,-1.16803],[-0.4151,2.58284]],[[264.8422,172.1822],[0,-2.62434],[0,3.09309]],[[270.07461,177.07606],[-3.00931,-0.43795],[2.79345,0.02112]],[[278.25584,176.58401],[-2.69477,1.08112],[2.61784,-0.88964]],[[279.5891,168.01622],[0.69949,2.01424],[-1.05395,-3.04672]],[[277.20773,158.42042],[0.78889,3.15395],[-0.31628,-1.26739]],[[273.91699,152.58394],[1.62171,-1.08114],[-0.45502,0.06727]]],&quot;closed&quot;:true}],&quot;index&quot;:null}" fill="#f58ee5" stroke="#ffb5f4" stroke-width="0.5" stroke-linecap="butt"/></g></g></svg>