<svg version="1.1" xmlns="http://www.w3.org/2000/svg" xmlns:xlink="http://www.w3.org/1999/xlink" width="25.27045" height="36.78079" viewBox="0,0,25.27045,36.78079"><g transform="translate(-309.46778,-41.37753)"><g data-paper-data="{&quot;isPaintingLayer&quot;:true}" fill-rule="nonzero" stroke="none" stroke-linecap="butt" stroke-linejoin="miter" stroke-miterlimit="10" stroke-dasharray="" stroke-dashoffset="0" style="mix-blend-mode: normal"><path d="M320.8397,66.38821c-0.26132,-0.01924 -0.53085,-0.03739 -0.78739,-0.05225c0.00225,-0.0213 0.00455,-0.04303 0.00688,-0.06518c0.25784,0.02697 0.51583,0.05571 0.77435,0.08467c0.002,0.01117 0.00405,0.02209 0.00616,0.03275z" data-paper-data="{&quot;noHover&quot;:false,&quot;origItem&quot;:[&quot;Path&quot;,{&quot;applyMatrix&quot;:true,&quot;segments&quot;:[[476.12439,90.46697],[[476.12612,90.46535],[0,0],[0.10448,-0.27472]],[[476.2993,89.61281],[0.00989,0.30086],[0,0]],[[476.2993,89.55197],[0,0],[-0.27587,-0.26436]],[[475.50966,88.71163],[0.24985,0.29455],[-0.13147,-0.02944]],[[475.11104,88.66598],[0.13278,0.00002],[-0.33467,0.16667]],[[474.10833,89.16047],[0.33393,-0.1622],[0.03596,0.10167]],[474.14429,89.34894],[[474.14429,89.61281],[0,0],[-0.00809,0.75433]],[[473.88042,91.72376],[-0.007,-0.76148],[0,3.806]],[[472.34374,110.16222],[0.4256,-4.02679],[0.57835,0.03349]],[[474.09583,110.27724],[-0.58913,-0.04339],[-0.64001,-3.25191]],[[475.81006,91.26637],[-1.03534,2.16892],[0.04645,-0.13936]],[[475.96598,90.85868],[-0.05519,0.13323],[-0.01104,-0.22226]]],&quot;closed&quot;:true}]}" fill="#bfbfbf" stroke-width="0.5"/><path d="M323.33736,48.68281l0.00145,-0.00137c0.08804,-0.23149 0.15427,-0.46488 0.14593,-0.71839v-0.05127c-0.23246,-0.22276 -0.45486,-0.45992 -0.66539,-0.70811c-0.11078,-0.02481 -0.22399,-0.03845 -0.33589,-0.03846c-0.282,0.14045 -0.56356,0.28001 -0.84494,0.41668c0.0303,0.08567 0.0303,0.1588 0.0303,0.1588v0.22236c-0.00682,0.63564 -0.22824,1.13712 -0.22235,1.77878c0,2.9611 -0.21468,12.76904 -0.61938,16.62593c-0.28248,-0.02982 -0.56492,-0.05859 -0.84744,-0.08574c0.40489,-3.85872 0.61456,-13.61323 0.61456,-16.54018c0.00391,-0.52319 0.15352,-0.95752 0.20524,-1.43503c-0.11666,-0.05989 -0.1702,-0.15253 -0.19299,-0.24015c-2.97805,1.33979 -6.95528,1.75813 -10.35657,-0.46625c-3.84386,-3.10435 7.5574,-6.92569 10.87154,-5.03797c0.00795,-0.00251 0.01606,-0.00492 0.02433,-0.00724c0.31761,-0.08886 0.49239,0.07607 0.57888,0.2125c0.03917,-0.05963 0.0814,-0.11705 0.12671,-0.17196l-0.17955,-0.03669c0.04021,-0.08165 0.08417,-0.15869 0.13157,-0.2312l0.24509,-0.4307c0.05749,-0.01431 0.1165,-0.02625 0.17689,-0.03591c1.55156,-1.24391 4.7296,0.06847 4.97175,2.14922c0.00987,-0.00279 0.01974,-0.00558 0.02961,-0.00836c1.50006,-0.41967 4.55667,-1.91545 6.06052,-1.27524c4.47235,1.90393 -2.59257,7.07913 -5.08335,6.9571c-1.2822,0.25347 -2.57278,-0.15981 -3.71332,-0.94728c-0.10492,0.1525 -0.25174,0.30166 -0.44646,0.44373c-0.0608,0.15869 -0.12451,0.32296 -0.18425,0.50215c-0.72189,1.36096 -1.18677,13.47471 -0.90186,16.92082c-0.28249,-0.03145 -0.56454,-0.06325 -0.84629,-0.09483c-0.26072,-3.70628 0.15916,-15.47288 0.96076,-17.15214c0.03914,-0.11743 0.08488,-0.23127 0.13138,-0.34354c-0.0093,-0.18728 0.13348,-0.33007 0.13348,-0.33007zM320.90867,43.66822c-0.21206,-0.25383 -1.98818,-0.14807 -2.47568,-0.13025c-1.26476,0.04622 -9.29722,2.44696 -6.63116,3.50289c3.38816,2.2158 6.47397,1.12347 9.5418,-0.38972c0.14997,-0.10908 0.31304,-0.18853 0.48381,-0.24176c0.09526,-0.04813 0.19052,-0.09652 0.28579,-0.14509c-0.53738,-0.80912 -0.94867,-1.68142 -1.18531,-2.52724zM326.06616,45.6898c-0.91931,0.60244 -1.70902,0.86254 -2.36498,0.88461c0.06807,0.08252 0.1374,0.16399 0.20787,0.24421c0.24828,0.17551 0.45598,0.38775 0.59634,0.61996c1.1207,1.05812 2.42843,1.70431 3.5805,1.19556c1.65908,0.08128 7.64876,-4.07958 4.7498,-4.95223c-1.29664,-0.39031 -4.04017,0.97826 -5.32434,1.33754c-0.24873,0.06932 -0.49586,0.14613 -0.74157,0.22924c-0.15488,0.16517 -0.38531,0.31455 -0.70359,0.4411z" fill="#000000" stroke-width="0.5"/><path d="M323.18178,49.0952c-0.04651,0.11227 -0.04876,0.06129 -0.08791,0.17873c-0.79574,1.667 -1.22498,13.44261 -0.98761,17.23403c-0.4306,-0.04826 -0.86053,-0.09604 -1.2903,-0.14136c0.40841,-3.90802 0.61889,-13.76861 0.61889,-16.70917c-0.0059,-0.64166 0.22252,-1.14382 0.22934,-1.77945l0.00018,-0.22237c0,0 -0.00031,-0.07312 -0.03061,-0.15879c0.28138,-0.13668 0.57442,-0.2761 0.85644,-0.41655c0.11189,0.00002 0.22956,0.01412 0.34034,0.03894c0.21053,0.2482 0.44367,0.48747 0.67613,0.71024l0.00019,0.05132c0.00834,0.25352 -0.1028,0.65132 -0.19083,0.88282l-0.00144,0.00137c0,0 -0.14208,0.14298 -0.13278,0.33027z" data-paper-data="{&quot;noHover&quot;:false,&quot;origItem&quot;:[&quot;Path&quot;,{&quot;applyMatrix&quot;:true,&quot;segments&quot;:[[476.12439,90.46697],[[476.12612,90.46535],[0,0],[0.10448,-0.27472]],[[476.2993,89.61281],[0.00989,0.30086],[0,0]],[[476.2993,89.55197],[0,0],[-0.27587,-0.26436]],[[475.50966,88.71163],[0.24985,0.29455],[-0.13147,-0.02944]],[[475.11104,88.66598],[0.13278,0.00002],[-0.33467,0.16667]],[[474.10833,89.16047],[0.33393,-0.1622],[0.03596,0.10167]],[474.14429,89.34894],[[474.14429,89.61281],[0,0],[-0.00809,0.75433]],[[473.88042,91.72376],[-0.007,-0.76148],[0,3.806]],[[472.34374,110.16222],[0.4256,-4.02679],[0.57835,0.03349]],[[474.09583,110.27724],[-0.58913,-0.04339],[-0.64001,-3.25191]],[[475.81006,91.26637],[-1.03534,2.16892],[0.04645,-0.13936]],[[475.96598,90.85868],[-0.05519,0.13323],[-0.01104,-0.22226]]],&quot;closed&quot;:true}]}" fill="#bfbfbf" stroke-width="0.5"/><path d="M326.41068,45.09921c0.27414,-0.09274 0.56866,-0.20376 0.84618,-0.28109c1.43278,-0.40085 4.64105,-1.90854 6.08774,-1.47306c3.23444,0.97363 -3.55157,5.7578 -5.40266,5.6671c-1.60849,0.71029 -3.56186,-0.68281 -4.96507,-2.38369c0.73187,-0.02463 1.61458,-0.34053 2.64028,-1.01269c0.35514,-0.1412 0.62072,-0.33228 0.79353,-0.51656z" data-paper-data="{&quot;noHover&quot;:false,&quot;origItem&quot;:[&quot;Path&quot;,{&quot;applyMatrix&quot;:true,&quot;segments&quot;:[[[478.95547,94.17965],[0.37348,-0.14849],[-1.07867,0.70687]],[[476.18052,95.21761],[0.76967,-0.0259],[1.47569,1.78874]],[[481.32532,97.6344],[-1.69157,0.74698],[1.94669,0.09537]],[[486.89849,91.82371],[3.4015,1.02392],[-1.52141,-0.45798]],[[480.65117,93.39311],[1.50679,-0.42156],[-0.29185,0.08133]],[[479.78104,93.66209],[0.28831,-0.09753],[-0.18174,0.1938]]],&quot;closed&quot;:true}]}" fill="#fbfff3" stroke-width="0.5"/><path d="M321.41473,43.01965c0.2776,0.99224 0.77078,2.06768 1.40118,3.01687c-3.89864,1.98744 -7.98639,3.74382 -12.29352,0.92703c-3.12759,-1.23874 6.45214,-4.15821 7.93585,-4.21244c0.57189,-0.0209 2.68445,-0.11128 2.93323,0.18648z" data-paper-data="{&quot;noHover&quot;:false,&quot;origItem&quot;:[&quot;Path&quot;,{&quot;applyMatrix&quot;:true,&quot;segments&quot;:[[[472.90393,91.80763],[0,0],[-0.24882,-0.29782]],[[469.99909,91.6548],[0.57201,-0.0209],[-1.48401,0.05423]],[[462.21843,95.76491],[-3.12822,-1.23899],[4.30802,2.81737]],[[474.31731,94.85373],[-3.89944,1.98785],[-0.63054,-0.94938]],[[472.92653,91.88839],[0.27765,0.99243],[0,0]]],&quot;closed&quot;:true}]}" fill="#fbfff3" stroke-width="0.5"/><path d="M322.55202,63.25148c0,1.12943 0.82867,-1.35119 1.35227,-1.62974c0.59342,-0.3157 0.93621,1.44141 1.81608,0.68481c0.96286,-0.82796 5.51554,3.64109 4.23275,3.64109c-0.21718,0 0.37716,1.47043 0.37918,2.06185c0.00918,2.67951 0.76248,9.35114 -0.40089,9.52081c-0.11514,0.01679 -1.59238,-1.95083 -5.11118,-1.91463c-0.32107,0.0033 -2.91817,-0.05838 -3.24543,-0.05524c-1.70003,0.01627 -4.01486,0.30053 -5.45395,0.6535c-2.54782,0.6249 -3.73625,1.46518 -3.79664,1.41506c-1.51824,-1.26003 -0.4677,-6.94043 -0.4677,-9.18342c0,-3.81022 2.82867,-6.89901 6.31801,-6.89901c0.47722,0 1.12961,-0.49642 1.66423,-0.52278c3.02768,-0.1493 6.48486,-0.00679 6.61731,2.18067c0.01291,0.21316 -2.95987,0.4475 -3.80484,0.54383c-0.14777,0.01685 -0.09921,-0.54708 -0.09921,-0.49679z" fill="#66b1ff" stroke-width="0"/><path d="M330.02008,78.10278c-0.39675,0.19838 -0.59513,-0.19838 -0.59513,-0.19838l-0.00893,-0.04423c-1.96602,-2.35922 -4.21228,-1.78783 -7.12441,-1.78783c-3.6834,0 -6.46923,0.1818 -9.82212,1.65191c0,0 -0.29911,0.12819 -0.49474,-0.09122c-0.05347,0.00014 -0.12003,0.00767 -0.20189,0.02822c-0.29652,0.07443 -0.29097,-0.18608 -0.29097,-0.18608c-0.32116,-0.99895 -0.1091,-1.93192 -0.14327,-2.9413c-0.06153,-1.81785 0.13141,-3.75155 0.13141,-5.46092c0,-3.03754 1.17628,-6.59619 4.98174,-7.5614c3.19993,-1.2796 8.15527,-0.83747 11.07283,0.85846c3.46423,1.83051 3.25973,6.1811 3.25973,9.26973c0,1.6214 0.42173,3.4918 -0.413,5.0091l-0.18712,0.49535c0,0 -0.02854,0.07523 -0.10107,0.13072c0.00483,0.00575 0.00964,0.01152 0.01446,0.01731l0.12089,0.21543c0,0 0.19838,0.39675 -0.19838,0.59513zM312.12,76.90882c3.49854,-1.45483 6.34985,-1.72365 10.17159,-1.72365c2.97659,0 5.29806,-0.44553 7.36875,1.62676l0.14112,-0.37046c0.82709,-1.39546 0.36605,-3.29515 0.36605,-4.80172c0,-2.8738 0.27709,-7.10292 -2.97278,-8.81184c-2.73739,-1.61721 -7.53071,-2.03529 -10.52873,-0.80823c-3.55962,0.88374 -4.57926,4.23858 -4.57926,7.05328c0,0.81758 0.01258,1.69946 0.01973,2.5852c0.00817,1.01255 0.00924,2.03015 -0.02371,2.96253c-0.02456,0.69478 -0.03568,1.52354 0.01212,2.30063c0.01556,-0.0084 0.02512,-0.01249 0.02512,-0.01249z" fill="#bedeff" stroke-width="0.5"/></g></g></svg>