<svg version="1.1" xmlns="http://www.w3.org/2000/svg" xmlns:xlink="http://www.w3.org/1999/xlink" width="129.69897" height="42.4522" viewBox="0,0,129.69897,42.4522"><g transform="translate(-260.32184,-53.21221)"><g data-paper-data="{&quot;isPaintingLayer&quot;:true}" fill-rule="nonzero" stroke-linejoin="miter" stroke-miterlimit="10" stroke-dasharray="" stroke-dashoffset="0" style="mix-blend-mode: normal"><path d="" data-paper-data="{&quot;noHover&quot;:false,&quot;origItem&quot;:[&quot;Path&quot;,{&quot;applyMatrix&quot;:true,&quot;segments&quot;:[[[754.27889,138.75805],[3.47346,0.74959],[-2.91732,0.31141]],[[753.96797,143.79787],[-2.40571,-0.87819],[0.89082,-0.40587]],[[756.6567,142.61832],[-0.90053,0.38174],[2.14501,-1.8963]]],&quot;closed&quot;:true}]}" fill="#9c1010" stroke="none" stroke-width="0.5" stroke-linecap="butt"/><path d="" data-paper-data="{&quot;noHover&quot;:false,&quot;origItem&quot;:[&quot;Path&quot;,{&quot;applyMatrix&quot;:true,&quot;segments&quot;:[[[451.35524,209.65945],[2.19042,0.7556],[-3.77698,-1.3029]],[[438.51353,210.78288],[3.66245,-0.52618],[-4.58974,0.6594]],[[425.8978,212.32844],[4.37259,-1.47133],[-8.51004,5.7016]],[[403.99925,234.21569],[3.64496,-10.86386],[-2.79446,4.70667]],[[402.45408,251.25555],[0.00052,-5.45001],[-0.00017,1.83429]],[[403.38669,257.71282],[-1.04902,-1.55541],[0.24012,-0.27386]],[[403.98573,257.36717],[0,0],[4.48713,-0.87363]],[[416.62488,252.13731],[-4.26727,1.38977],[5.21917,-1.69979]],[[433.4802,248.36803],[-5.72398,0.72686],[0.13382,-0.12608]],[433.74009,248.17891],[[434.8312,247.63336],[0,0],[2.99415,-1.42864]],[[445.60478,243.89767],[-2.69162,2.16376],[3.27694,-2.63429]],[[451.87122,233.84146],[-1.78346,3.57077],[3.57343,-5.19922]],[[458.11945,213.32913],[-0.92101,7.33114],[-2.1489,-1.10551]]],&quot;closed&quot;:true}]}" fill="#9c3f10" stroke="none" stroke-width="0.5" stroke-linecap="butt"/><path d="" data-paper-data="{&quot;noHover&quot;:false,&quot;origItem&quot;:[&quot;Path&quot;,{&quot;applyMatrix&quot;:true,&quot;segments&quot;:[[[441.41436,247.63531],[1.92159,-0.47172],[11.37748,-1.05998]],[[475.2591,241.606],[-10.97086,2.86188],[3.95929,-2.40376]],[[488.26233,237.75329],[-4.33379,1.33551],[6.45584,-1.98944]],[[506.42973,229.03027],[-6.48439,2.17156],[1.98441,-0.31562]],[[507.38262,221.61453],[0,1.99254],[0,-8.25153]],[[503.86599,197.54075],[3.6631,7.32621],[-2.93327,-5.88433]],[[488.78631,180.10737],[5.6878,3.39249],[-2.74356,-1.6364]],[[480.32962,177.48794],[2.67264,1.33632],[-2.42845,0.0367]],[[471.26514,177.91089],[2.10159,-1.30738],[-5.49642,3.41927]],[[462.46283,197.8571],[0.70809,-5.74722],[-0.02527,2.95723]],[[460.82616,206.04041],[0.15285,-2.83065],[-0.11378,2.10701]],[[460.24201,212.76477],[0.28216,-2.34338],[0.08468,0.22609]],[[460.13803,213.5981],[0.21442,-0.30931],[-0.97637,7.55893]],[[453.60104,234.84531],[3.59558,-5.53492],[-1.85043,3.69589]],[[446.7742,245.52015],[3.58746,-2.56667],[-1.53472,1.09802]]],&quot;closed&quot;:true}]}" fill="#752f0c" stroke="none" stroke-width="0.5" stroke-linecap="butt"/><path d="" fill="#ffbb66" stroke="none" stroke-width="0.5" stroke-linecap="butt"/><path d="" fill="#000000" stroke="none" stroke-width="0.5" stroke-linecap="butt"/><path d="" data-paper-data="{&quot;noHover&quot;:false,&quot;origItem&quot;:[&quot;Path&quot;,{&quot;applyMatrix&quot;:true,&quot;segments&quot;:[[[635.75238,112.12319],[3.02289,0.75906],[-2.56651,0.18736]],[[635.33189,116.53205],[-2.0831,-0.84044],[0.79281,-0.32964]],[[637.72349,115.57696],[-0.80062,0.3082],[1.936,-1.59937]]],&quot;closed&quot;:true,&quot;fillColor&quot;:[0,0,0,1],&quot;strokeWidth&quot;:0.5}]}" fill="#9c3f10" stroke="none" stroke-width="0.25" stroke-linecap="butt"/><path d="" fill="#ffbb66" stroke="none" stroke-width="0.5" stroke-linecap="butt"/><path d="M350.20582,76.94558c-0.37603,0 -0.61066,-0.1414 -0.75706,-0.31785c-0.82299,-0.20293 -1.55037,-0.28465 -2.45539,-0.28414c-4.10495,-0.51312 -8.31127,0.02102 -12.33057,0.88003c-1.85806,0.39711 -3.47635,1.2733 -5.43125,1.0646c-2.42327,-0.25869 -4.94556,-2.09817 -7.07667,-3.18831c-2.32554,-0.30254 -4.79811,0.08405 -6.86218,1.26711c-1.29889,0.74448 -1.93493,1.54122 -3.51855,1.77119c-2.85633,0.41478 -6.05825,-0.59906 -8.97307,-0.59257c0,0 -0.64906,0 -0.90136,-0.52291c-0.71519,-0.00746 -0.90494,-0.76647 -0.90494,-0.76647c-0.69655,-2.84036 -0.48778,-5.82977 -0.01695,-8.65478c0.18113,-1.08682 -0.46253,-1.96169 0.77747,-2.90162c1.07274,-0.81315 3.82523,0.18633 5.08584,0.18633c4.14201,0 8.342,-0.38023 12.53466,-0.37081c8.11003,-1.52044 16.2812,-1.50466 24.59963,-1.50466c3.12399,0 7.27145,-0.91209 9.55104,1.3675c0.15832,3.76056 -1.79935,7.09868 -1.79935,10.88531v0.3751c0,0 0,0.82891 -0.75468,0.97738c-0.14568,0.18187 -0.3823,0.32958 -0.76662,0.32958z" fill="#000000" stroke="none" stroke-width="0.5" stroke-linecap="butt"/><path d="M262.67816,60.26226l61.30455,-6.79881l63.58427,5.68925l-63.84834,7.36618z" fill="#000000" stroke="#ffffff" stroke-width="0.5" stroke-linecap="round"/><path d="M355.12446,80.45335l-0.0193,-0.04604c0,0 -0.05329,-0.14381 0.02827,-0.25534c-0.13908,-0.36786 -0.26812,-0.74054 -0.45029,-1.09107c-0.67401,-1.81078 -1.34374,-3.62316 -2.01493,-5.435c-0.00914,-0.00334 -0.01848,-0.00719 -0.02803,-0.01157c-0.18273,-0.08391 -0.16805,-0.24099 -0.14811,-0.3169c-0.78888,-2.11277 -1.74676,-4.18394 -2.53602,-6.25882c-0.68454,-1.25817 -2.19873,-3.42212 -3.76301,-3.46215c0,0 -0.05945,-0.00151 -0.122,-0.03095c-1.70488,-0.30116 -4.31377,-1.03134 -5.61359,-2.07272c0,0 -0.00341,-0.00273 -0.00903,-0.00794c-0.10894,0.0447 -0.22367,-0.00799 -0.22367,-0.00799l-0.45181,-0.21132c-0.24743,-0.02515 -0.49434,-0.06305 -0.73632,-0.1205c-2.34882,-0.26368 -4.89005,-0.39104 -7.05586,-1.36554c-0.03798,0.02213 -0.08731,0.03598 -0.15135,0.03435c-0.2715,-0.00695 -0.26456,-0.27845 -0.26456,-0.27845c0.05244,-1.83835 4.07562,-0.78254 5.40723,-0.53029c2.73108,-0.10433 4.27964,1.94525 6.7505,2.06547c0.57954,0.10792 1.19854,0.18289 1.78626,0.1959l0.24892,0.02623c0,0 0.14465,0.01578 0.21064,0.13013c2.26024,0.25786 4.02121,1.86758 5.34864,3.5203c1.30438,2.26582 2.22894,4.52566 3.14472,6.99659c0.20692,0.55831 0.20633,1.17705 0.40463,1.67913l0.09946,-0.0012c0.47209,0.29819 0.57377,0.6442 0.76057,1.14821c0.67918,1.83254 1.03341,3.53496 1.72568,5.3889c0,0 0.00921,0.02483 0.01411,0.06186c0.01544,0.02142 0.02924,0.04718 0.0407,0.07808c0.09438,0.25467 -0.16028,0.34905 -0.16028,0.34905l-0.07836,0.02904c-0.60057,0.22258 -1.1696,0.49713 -1.8137,0.52365c0,0 -0.27144,0.00901 -0.28045,-0.26244c-0.00188,-0.05671 0.00848,-0.10198 0.02605,-0.13809c-0.02524,-0.10752 -0.05048,-0.21506 -0.07572,-0.32258zM354.30129,73.91381c-0.0135,-0.08498 0.0042,-0.14729 0.03468,-0.1928c-0.16898,-0.53368 -0.17381,-1.04667 -0.38351,-1.61249c-0.90068,-2.4302 -1.81284,-4.64643 -3.0842,-6.87938c-1.23467,-1.53724 -2.86196,-3.06095 -4.97753,-3.28841c0,0 -0.14468,-0.01579 -0.21066,-0.13016l-0.18509,-0.02106c-0.60508,-0.01726 -1.23993,-0.0867 -1.83616,-0.19949c-2.4975,-0.12816 -4.00504,-2.14173 -6.72802,-2.06329c-0.86039,-0.15998 -4.0678,-0.88242 -4.71047,-0.25509c2.11498,0.94706 4.6127,1.07517 6.9087,1.31814c0.25934,0.06157 0.52384,0.10155 0.78862,0.1322l0.5338,0.24126c0,0 0.03087,0.01418 0.06577,0.04342c0.14229,-0.06802 0.27988,0.04221 0.27988,0.04221c1.24164,0.99476 3.78696,1.70184 5.40509,1.96816l-0.04434,-0.0223c0,0 0.17489,-0.06482 0.28852,0.05791c1.7059,0.22854 3.25488,2.37512 4.00437,3.76158c0.7191,2.00171 1.67542,4.00393 2.45044,6.0296c0.07638,0.05354 0.10814,0.13924 0.10814,0.13924c0.72364,1.95252 1.44983,3.90415 2.17046,5.85779c0.28876,0.55563 0.43599,1.17444 0.71776,1.72968c0.34225,-0.08155 0.67406,-0.22813 1.00448,-0.35881c-0.65735,-1.81615 -1.02009,-3.48331 -1.68489,-5.27707c-0.12614,-0.34034 -0.17065,-0.6282 -0.45606,-0.82499c-0.03374,0.01774 -0.07599,0.02946 -0.12887,0.03122c-0.01067,0.00035 -0.02094,0.00027 -0.03081,-0.0002c-0.05044,0.00452 -0.26259,0.00914 -0.30007,-0.22687z" fill="#000000" stroke="none" stroke-width="0.5" stroke-linecap="butt"/><path d="M354.55182,74.11839c0.00988,0.00047 0.02011,0.00061 0.03079,0.00026c0.05289,-0.00176 0.19443,0.03059 0.22817,0.01285c0.28542,0.19679 0.3288,0.48703 0.45494,0.82738c0.6648,1.79376 1.02009,3.47214 1.67744,5.28829c-0.33043,0.13068 -0.66441,0.27965 -1.00666,0.3612c-0.28177,-0.55523 -0.5089,-1.24759 -0.79766,-1.80322c-0.72063,-1.95364 -1.45638,-3.88958 -2.18002,-5.8421c0,0 -0.03196,-0.08518 -0.10834,-0.13872c-0.77502,-2.02567 -1.7293,-3.98425 -2.4484,-5.98596c-0.7495,-1.38645 -2.26382,-3.5047 -3.96972,-3.73324c-0.11363,-0.12273 -0.28626,-0.05735 -0.28626,-0.05735l0.04398,0.02222c-1.61813,-0.26632 -4.12907,-0.97681 -5.37071,-1.97157c0,0 -0.13637,-0.1108 -0.27866,-0.04278c-0.0349,-0.02925 -0.06557,-0.04353 -0.06557,-0.04353l-0.53201,-0.24217c-0.26477,-0.03065 -0.52647,-0.07224 -0.7858,-0.13381c-2.296,-0.24297 -4.86372,-0.45228 -6.9787,-1.39933c0.64267,-0.62733 3.85881,0.08676 4.71921,0.24674c2.72298,-0.07843 4.25669,1.92441 6.75419,2.05258c0.59623,0.11279 1.24346,0.18209 1.84855,0.19935l0.18637,0.02121c0.06598,0.11437 0.2122,0.13038 0.2122,0.13038c2.11557,0.22746 3.77856,1.77312 5.01323,3.31036c1.27136,2.23295 2.19195,4.49466 3.09263,6.92486c0.2097,0.56583 0.21211,1.086 0.38109,1.61968c-0.03048,0.04551 -0.04857,0.10874 -0.03507,0.19372c0.03749,0.236 0.15037,0.18723 0.20081,0.18271z" data-paper-data="{&quot;noHover&quot;:false,&quot;origItem&quot;:[&quot;Path&quot;,{&quot;applyMatrix&quot;:true,&quot;segments&quot;:[[[813.3864,129.76955],[-0.09373,0.46864],[0.03374,-0.16874]],[[813.58544,129.43208],[-0.08879,0.06415],[0.05403,-1.11828]],[[813.98696,126.14155],[0,1.20687],[0,-5.18347]],[[812.98447,111.09669],[0.83225,5.07119],[-1.247,-3.741]],[[805.93545,101.4702],[3.80934,1.89698],[0,0]],[[805.63086,101.07969],[0.04424,0.26035],[0,0]],[[805.29838,100.91154],[0,0],[-1.12275,-0.45292]],[[801.99359,99.26122],[1.03975,0.62593],[-4.59459,-1.97621]],[[790.8103,90.7156],[5.16103,1.74548],[-1.50235,-0.89802]],[[782.15384,86.96325],[1.64125,-0.72978],[3.30806,3.24606]],[[794.19388,94.23704],[-4.13693,-2.05147],[0.44355,0.2957]],[[795.58093,95.03309],[-0.47524,-0.24152],[0,0]],[796.41431,95.85655],[[796.50747,95.9837],[-0.04512,-0.0791],[0.31411,-0.02867]],[[797.003,96.2574],[0,0],[1.6371,2.72851]],[[805.77147,103.70514],[-2.84945,-1.6241],[0,0]],[805.70381,103.6325],[[806.20464,103.94163],[-0.1278,-0.30913],[3.04031,1.61427]],[[811.09978,113.77908],[-0.44192,-3.12101],[-0.04271,4.2537]],[[811.50438,126.78983],[-0.04551,-4.3375],[0.10602,0.1535]],[[811.6104,127.12611],[0,0],[0,4.16462]],[[811.60936,139.62003],[0.00643,-4.16462],[0.15534,1.24271]],[[811.75321,143.36264],[-0.14251,-1.2371],[0.69852,0.08495]],[[813.88635,143.38791],[-0.7105,0.01541],[0.02954,-3.86278]],[[814.39436,132.32051],[0,3.82598],[0,-0.72594]],[[814.1125,130.45639],[0.39848,0.56741],[-0.0756,0.00981]],[[813.84912,130.42535],[0.10041,0.03347],[-0.02026,-0.00676]],[[813.79147,130.40356],[0.01819,0.00776],[-0.09773,-0.02658]]],&quot;closed&quot;:true}]}" fill="#fed91f" stroke="none" stroke-width="0.5" stroke-linecap="butt"/><g stroke="none" stroke-width="0.5" stroke-linecap="butt"><path d="M361.83169,83.24223c2.11111,1.9069 2.2074,4.67374 3.15516,7.12241c0.1757,0.48994 0.53149,1.52966 -0.09373,1.84517c-0.40515,0.20445 -1.13362,-0.53918 -1.35395,-0.14245c-0.14045,0.2529 -0.00313,0.68906 -0.46422,0.91469c-0.3019,0.14773 -1.10596,-0.55517 -0.9783,-0.24425c0.2737,0.66665 -0.61542,0.8625 -0.93617,0.53164c-0.07941,0.31149 -0.14172,0.6348 -0.5369,0.72386c-0.30056,0.06773 -0.75528,-0.59613 -0.8706,-0.31042c-0.37342,0.92517 -0.96422,2.63298 -1.61884,0.48043c-0.12082,-0.39728 -0.21006,1.01189 -0.61955,1.08075c-0.45274,0.07613 -0.60978,-0.41715 -0.67986,-0.71072c-0.14526,0.05384 0.54555,1.40621 -0.70885,1.08052c-1.30755,-0.33947 -1.81529,-4.62209 -1.71227,-5.70584c-0.09147,-2.61664 0.67703,-5.00802 0.74235,-7.5836c0,0 0.00614,-0.24032 0.2337,-0.26144c-0.16902,-0.37761 -0.03003,-0.95374 0.26819,-1.49254c0.35454,-0.10855 0.70599,-0.22525 1.05567,-0.34704c0.58094,0.23181 1.32696,0.61507 1.50865,1.03857c1.35493,0.06596 3.10555,0.67842 3.60953,1.98024zM354.95277,89.92841c-0.16469,1.30232 0.43228,2.7606 0.70377,4.04187c0.04507,0.21273 0.31981,0.49587 0.56406,0.73059c0.12839,-0.29841 0.60951,-0.63261 0.75784,-0.68758c0.28511,0.29351 0.25209,0.46303 0.45151,0.6979c0.29122,0.343 0.39535,-1.23742 0.81531,-1.07586c0.45707,0.17584 0.66337,1.55643 0.92428,1.142c0.17307,-0.27491 -0.12198,-1.18986 0.20168,-1.47573c0.32688,-0.28871 1.16642,0.16595 1.29257,-0.24001l-0.00871,-0.26222c-0.00653,-0.11515 0.06188,-0.22595 0.17568,-0.26813c0.0892,-0.03306 0.18473,-0.01596 0.25562,0.03709l0.27446,0.19922l-0.05629,0.07754c0.22317,0.14081 0.40998,0.23924 0.37693,0.06442c-0.04719,-0.24958 -0.09445,-0.6698 0.14733,-0.74762c0.27085,-0.08718 0.41888,0.47716 0.70334,0.48368c0.63838,0.01461 0.35269,-0.73181 0.59919,-0.93148c0.83053,-0.67275 2.07983,0.72476 1.34958,-1.16194c-0.88431,-2.46586 -1.08138,-5.06907 -3.09855,-7.01119c-0.41492,-1.17763 -2.07113,-1.72481 -3.27035,-1.74677c-0.14256,0.15531 -0.39367,0.30997 -0.78587,0.459c-0.79892,0.27738 -1.3208,0.28467 -1.63197,0.12707c-0.07373,2.56607 -0.82411,4.94232 -0.74141,7.54815zM357.37956,81.30218c0.05897,-0.12843 0.15434,-0.15869 0.23178,-0.15839c-0.29566,-0.29061 -1.21699,-0.51143 -1.52796,-0.57901c-0.00122,0.00212 -0.00243,0.00423 -0.00365,0.00635l0.01578,0.00557c0,0 -0.00845,0.00313 -0.02283,0.0067c-0.47758,0.83322 -1.03053,2.01871 1.06597,1.16384c0.12423,-0.04459 0.22519,-0.08889 0.30552,-0.13271c-0.0628,-0.05372 -0.13637,-0.15611 -0.06461,-0.31237z" fill="#000000"/><path d="M357.49323,81.63702c-0.08034,0.04381 -0.19022,0.10172 -0.31446,0.14631c-2.09649,0.85487 -1.61567,-0.41014 -1.13809,-1.24337c0.01438,-0.00357 0.02414,-0.00764 0.02414,-0.00764l0.04614,0.08282c0.00122,-0.00212 -0.05967,-0.09249 -0.05845,-0.09461c0.31096,0.06758 1.31706,0.33029 1.61272,0.6209c-0.07743,-0.0003 -0.17319,0.03921 -0.23216,0.16764c-0.07175,0.15626 -0.00264,0.27423 0.06016,0.32795z" data-paper-data="{&quot;noHover&quot;:false,&quot;origItem&quot;:[&quot;Path&quot;,{&quot;applyMatrix&quot;:true,&quot;segments&quot;:[[[813.16528,148.36686],[-0.22534,0.22534],[0.18521,-0.18521]],[[813.67008,148.24089],[-0.13438,-0.0504],[-0.32663,-0.69546]],[[811.38766,146.25053],[0.49688,0.31773],[-0.00348,0.00289]],[[811.37723,146.25922],[0.00348,-0.0029],[0,0]],[811.40106,146.27906],[[811.35708,146.27601],[0.02729,0.00305],[-1.36662,1.14042]],[[812.45995,148.98517],[-4.19398,0.13531],[0.24462,0.00252]],[[813.07637,148.95134],[-0.16784,0.0244],[-0.07453,-0.1338]]],&quot;closed&quot;:true}]}" fill="#fed91f"/><path d="M355.66945,82.33231c0.31117,0.15761 0.8458,0.14564 1.64472,-0.13174c0.3922,-0.14903 0.65059,-0.30483 0.79316,-0.46014c1.19921,0.02196 2.88754,0.57643 3.30246,1.75405c2.01717,1.94212 2.23666,4.61245 3.12097,7.07832c0.73025,1.8867 -0.52675,0.50223 -1.35728,1.17498c-0.24651,0.19967 0.0322,0.95332 -0.60618,0.93871c-0.28446,-0.00651 -0.43428,-0.56939 -0.70513,-0.48221c-0.24178,0.07783 -0.19905,0.50124 -0.15186,0.75083c0.03305,0.17481 -0.1562,0.07784 -0.37937,-0.06297l0.05705,-0.07798l-0.27574,-0.1985c-0.07089,-0.05305 -0.16844,-0.0691 -0.25764,-0.03604c-0.11379,0.04218 -0.18487,0.15421 -0.17834,0.26936l0.00781,0.26258c-0.12615,0.40597 -0.97869,-0.04523 -1.30557,0.24348c-0.32366,0.28587 -0.03183,1.20117 -0.2049,1.47608c-0.26091,0.41443 -0.47542,-0.96617 -0.93249,-1.142c-0.41996,-0.16156 -0.52994,1.41809 -0.82117,1.07509c-0.19942,-0.23487 -0.17133,-0.40557 -0.45643,-0.69908c-0.14832,0.05497 -0.63339,0.38788 -0.76178,0.68628c-0.24425,-0.23472 -0.52489,-0.52048 -0.56997,-0.7332c-0.27149,-1.28127 -0.89234,-2.76412 -0.72764,-4.06644c-0.0827,-2.60583 0.69159,-5.05339 0.76532,-7.61947z" data-paper-data="{&quot;noHover&quot;:false,&quot;origItem&quot;:[&quot;Path&quot;,{&quot;applyMatrix&quot;:true,&quot;segments&quot;:[[[803.39191,161.79487],[1.53466,-4.5818],[-1.12501,2.15715]],[[802.01167,169.2723],[0.35344,-2.40152],[-0.05868,0.39872]],[[802.52136,170.90524],[-0.27329,-0.56522],[0.41532,-0.43589]],[[804.28122,170.19843],[-0.29317,0],[0.30643,0.69371]],[[804.61636,171.70209],[-0.19529,-0.53661],[0.28519,0.78366]],[[806.72618,170.35753],[-0.62577,-0.55125],[0.68106,0.59996]],[[807.5969,172.93746],[-0.72035,0.55217],[0.47783,-0.36627]],[[808.89788,170.50276],[-0.74659,0.28833],[0.75402,-0.2912]],[[811.29875,170.91817],[-0.48071,0.62426],[0,0]],[[811.45252,170.45688],[0,0],[0.06283,-0.20431]],[[811.9305,170.10405],[-0.22492,0],[0.17631,0]],[[812.35083,170.33316],[-0.08903,-0.13785],[0,0]],[812.69949,170.85615],[[812.55174,170.95465],[0,0],[0.29715,0.38844]],[[813.16528,171.30939],[-0.05516,0.32509],[0.07875,-0.46413]],[[813.90286,170.10502],[-0.47031,-0.02048],[0.52685,0.02294]],[[814.81365,171.39858],[-0.49016,-0.19453],[1.1,0.43655]],[[816.45489,170.16575],[-0.55699,0.18823],[1.87665,-0.63421]],[[819.54863,169.01573],[0.05387,3.74913],[0.05142,-4.85486]],[[818.6796,154.83564],[2.25465,4.67432],[0.03743,-2.31378]],[[814.12131,149.69366],[2.06991,0.81056],[-0.34778,0.17808]],[[812.45995,149.98517],[0.77758,-0.00639],[-1.56706,-0.03253]],[[809.54199,149.15488],[0.43925,0.47431],[-1.78089,4.41195]]],&quot;closed&quot;:true}]}" fill="#fed91f"/></g><path d="M357.94538,94.2722c-0.25,0 -0.25,-0.25 -0.25,-0.25v-0.25001c0.01319,-0.10698 -0.05859,-0.22107 -0.14032,-0.29134c-0.95901,-1.89427 -1.35974,-4.71585 -1.35974,-6.83396c0,0 0,-0.25 0.25,-0.25c0.25,0 0.25,0.25 0.25,0.25c0,2.02656 0.37471,4.72328 1.26536,6.54161c0.14081,0.1554 0.22318,0.37431 0.2347,0.58369v0.25001c0,0 0,0.25 -0.25,0.25z" fill="#000000" stroke="none" stroke-width="0.5" stroke-linecap="butt"/><path d="M363.10669,92.82145c-0.11181,0.22361 -0.33541,0.11181 -0.33541,0.11181l-0.06223,-0.04096c-0.53996,-0.12348 -0.74776,-0.40823 -0.99157,-0.89276c-0.57101,-1.45352 0.67392,-4.80976 -1.33263,-5.29761c0,0 -0.24253,-0.06063 -0.1819,-0.30317c0.06063,-0.24254 0.30317,-0.1819 0.30317,-0.1819c2.56023,0.65433 0.96792,3.85602 1.66748,5.57784c0.15997,0.32253 0.2707,0.55103 0.63351,0.6073l0.18778,0.08404c0,0 0.2236,0.1118 0.1118,0.33541z" fill="#000000" stroke="none" stroke-width="0.5" stroke-linecap="butt"/><path d="M359.44544,90.83456c-0.25,0 -0.25,-0.25 -0.25,-0.25v-0.0625c0,-0.54095 -0.16327,-3.42949 -0.81068,-3.44512c0,0 -0.24253,-0.06064 -0.1819,-0.30317c0.06063,-0.24254 0.30317,-0.1819 0.30317,-0.1819c1.09131,0.36943 1.1894,2.9347 1.1894,3.93019v0.0625c0,0 0,0.25 -0.25,0.25z" fill="#000000" stroke="none" stroke-width="0.5" stroke-linecap="butt"/><path d="M357.99715,82.51099c-0.17678,0.17678 -0.35355,0 -0.35355,0l-0.06251,-0.06251c-0.09206,-0.10291 -0.23583,-0.16048 -0.37227,-0.18164c0,0 -0.24515,-0.04903 -0.19612,-0.29417c0.04903,-0.24514 0.29417,-0.19612 0.29417,-0.19612c0.22872,0.05231 0.45668,0.15782 0.62777,0.31838l0.0625,0.06251c0,0 0.17678,0.17678 0,0.35356z" fill="#000000" stroke="none" stroke-width="0.5" stroke-linecap="butt"/><path d="M360.9948,85.62045c-0.22361,0.1118 -0.33541,-0.1118 -0.33541,-0.1118l-0.07818,-0.18504c-0.69609,-0.31399 -1.06141,-1.05308 -1.86441,-1.18023c0,0 -0.2466,-0.0411 -0.2055,-0.2877c0.0411,-0.2466 0.2877,-0.2055 0.2877,-0.2055c0.919,0.15946 1.36138,0.90306 2.13576,1.31987l0.17184,0.31498c0,0 0.1118,0.22361 -0.1118,0.33541z" fill="#000000" stroke="none" stroke-width="0.5" stroke-linecap="butt"/><path d="M357.02104,84.74541c-0.22361,-0.1118 -0.1118,-0.33541 -0.1118,-0.33541l0.03611,-0.0132c0,-0.08334 0,-0.16667 0,-0.25001c0,0 0,-0.25 0.25,-0.25c0.25,0 0.25,0.25 0.25,0.25c0,0.08334 0,0.16667 0,0.25001l-0.0889,0.23681c0,0 -0.1118,0.22361 -0.33541,0.1118z" fill="#000000" stroke="none" stroke-width="0.5" stroke-linecap="butt"/></g></g></svg>