<svg version="1.1" xmlns="http://www.w3.org/2000/svg" xmlns:xlink="http://www.w3.org/1999/xlink" width="40.90188" height="47.03841" viewBox="0,0,40.90188,47.03841"><g transform="translate(-301.16129,-32.47357)"><g data-paper-data="{&quot;isPaintingLayer&quot;:true}" fill-rule="nonzero" stroke-linecap="butt" stroke-linejoin="miter" stroke-miterlimit="10" stroke-dasharray="" stroke-dashoffset="0" style="mix-blend-mode: normal"><path d="M304.15705,78.06186c-0.9503,0.01281 -2.19573,-0.02562 -2.49575,-0.70851c-0.38899,-0.8854 0.7669,-3.64693 1.1754,-4.41484c0.32528,-2.96104 2.2471,-6.95138 3.89662,-9.40968c1.65086,-3.05433 3.10891,-5.99359 4.49452,-9.19265c1.39517,-3.20659 3.0831,-5.90472 4.71128,-8.99089c0.91312,-1.47468 0.75468,-2.88251 1.38568,-4.47137c1.06724,-2.68734 1.5627,-5.71776 3.01583,-7.15146c1.06982,-1.0555 4.02205,-0.94531 4.91716,0.01734c1.47161,2.78188 4.84309,10.98059 5.90933,14.08053c1.32675,3.15268 2.60852,6.53171 3.58199,9.81795c0.96837,3.27814 2.13855,6.68233 3.47993,9.8066c1.41052,3.28529 3.46457,6.05061 3.32763,9.8529c-0.0182,0.29024 -0.0107,0.96676 -0.26522,1.16487c-0.39156,0.30481 -1.97906,-0.04791 -2.47244,-0.0727c-2.14711,-0.10792 -4.34648,-0.37288 -6.4862,-0.16552c-3.24218,0.3142 -6.5138,0.47563 -9.76398,0.70059c-3.26947,0.2263 -6.52703,-0.04182 -9.80254,-0.20645c-2.79492,-0.14047 -5.58984,-0.28095 -8.38476,-0.42142c0,0 -0.21634,-0.01087 -0.22449,-0.23529z" fill="#f58ee5" stroke="#ff4ac1" stroke-width="1"/><path d="M318.7727,42.57492c0,-0.27614 0.17921,-0.5 0.40028,-0.5c0.22107,0 0.40028,0.22386 0.40028,0.5c0,0.27614 -0.17921,0.5 -0.40028,0.5c-0.22107,0 -0.40028,-0.22386 -0.40028,-0.5z" fill="#ff4ac1" stroke="none" stroke-width="0.5"/><path d="M326.34166,48.48401c0,-0.27614 0.17921,-0.5 0.40028,-0.5c0.22107,0 0.40028,0.22386 0.40028,0.5c0,0.27614 -0.17921,0.5 -0.40028,0.5c-0.22107,0 -0.40028,-0.22386 -0.40028,-0.5z" fill="#ff4ac1" stroke="none" stroke-width="0.5"/><path d="M314.91544,57.57492c0,-0.27614 0.17921,-0.5 0.40028,-0.5c0.22107,0 0.40028,0.22386 0.40028,0.5c0,0.27614 -0.17921,0.5 -0.40028,0.5c-0.22107,0 -0.40028,-0.22386 -0.40028,-0.5z" fill="#ff4ac1" stroke="none" stroke-width="0.5"/><path d="M320.59216,51.66583c0,-0.27614 0.17921,-0.5 0.40028,-0.5c0.22107,0 0.40028,0.22386 0.40028,0.5c0,0.27614 -0.17921,0.5 -0.40028,0.5c-0.22107,0 -0.40028,-0.22386 -0.40028,-0.5z" fill="#ff4ac1" stroke="none" stroke-width="0.5"/><path d="M329.90782,57.93856c0,-0.27614 0.17921,-0.5 0.40028,-0.5c0.22107,0 0.40028,0.22386 0.40028,0.5c0,0.27614 -0.17921,0.5 -0.40028,0.5c-0.22107,0 -0.40028,-0.22386 -0.40028,-0.5z" fill="#ff4ac1" stroke="none" stroke-width="0.5"/><path d="M310.91263,69.63553c0,-0.27614 0.17921,-0.5 0.40028,-0.5c0.22107,0 0.40028,0.22386 0.40028,0.5c0,0.27614 -0.17921,0.5 -0.40028,0.5c-0.22107,0 -0.40028,-0.22386 -0.40028,-0.5z" fill="#ff4ac1" stroke="none" stroke-width="0.5"/><path d="M319.71882,62.45371c0,-0.27614 0.17921,-0.5 0.40028,-0.5c0.22107,0 0.40028,0.22386 0.40028,0.5c0,0.27614 -0.17921,0.5 -0.40028,0.5c-0.22107,0 -0.40028,-0.22386 -0.40028,-0.5z" fill="#ff4ac1" stroke="none" stroke-width="0.5"/><path d="M332.38229,69.99917c0,-0.27614 0.17921,-0.5 0.40028,-0.5c0.22107,0 0.40028,0.22386 0.40028,0.5c0,0.27614 -0.17921,0.5 -0.40028,0.5c-0.22107,0 -0.40028,-0.22386 -0.40028,-0.5z" fill="#ff4ac1" stroke="none" stroke-width="0.5"/><path d="M328.01556,72.3628c0,-0.27614 0.17921,-0.5 0.40028,-0.5c0.22107,0 0.40028,0.22386 0.40028,0.5c0,0.27614 -0.17921,0.5 -0.40028,0.5c-0.22107,0 -0.40028,-0.22386 -0.40028,-0.5z" fill="#ff4ac1" stroke="none" stroke-width="0.5"/><path d="M322.41163,69.99917c0,-0.27614 0.17921,-0.5 0.40028,-0.5c0.22107,0 0.40028,0.22386 0.40028,0.5c0,0.27614 -0.17921,0.5 -0.40028,0.5c-0.22107,0 -0.40028,-0.22386 -0.40028,-0.5z" fill="#ff4ac1" stroke="none" stroke-width="0.5"/><path d="M309.45705,63.63553c0,-0.27614 0.17921,-0.5 0.40028,-0.5c0.22107,0 0.40028,0.22386 0.40028,0.5c0,0.27614 -0.17921,0.5 -0.40028,0.5c-0.22107,0 -0.40028,-0.22386 -0.40028,-0.5z" fill="#ff4ac1" stroke="none" stroke-width="0.5"/><path d="M329.18003,64.3628c0,-0.27614 0.17921,-0.5 0.40028,-0.5c0.22107,0 0.40028,0.22386 0.40028,0.5c0,0.27614 -0.17921,0.5 -0.40028,0.5c-0.22107,0 -0.40028,-0.22386 -0.40028,-0.5z" fill="#ff4ac1" stroke="none" stroke-width="0.5"/></g></g></svg>