<svg version="1.1" xmlns="http://www.w3.org/2000/svg" xmlns:xlink="http://www.w3.org/1999/xlink" width="131.01677" height="112.15405" viewBox="0,0,131.01677,112.15405"><g transform="translate(-257.93469,13.26278)"><g data-paper-data="{&quot;isPaintingLayer&quot;:true}" fill-rule="nonzero" stroke-linejoin="miter" stroke-miterlimit="10" stroke-dasharray="" stroke-dashoffset="0" style="mix-blend-mode: normal"><g><path d="M266.43993,96.78071c0,0 -5.83046,-7.0541 -5.90114,-8.49951c-0.25936,-5.3043 -1.8167,-37.1547 -1.8167,-37.1547l128.48056,-0.55824c0,0 1.37217,34.66119 0.89987,42.43926c-0.19838,3.26699 -3.71755,3.96373 -3.71755,3.96373c0,0 -1.87977,-6.75524 -4.7206,-6.78296c-20.45596,-0.19959 -100.58696,-0.7414 -111.21126,-0.29896c-2.08216,0.08671 -2.0132,6.89138 -2.0132,6.89138z" fill="#d9d8de" stroke="#eeedf1" stroke-width="1.5" stroke-linecap="round"/><path d="M259.803,51.68473c0,0 2.54604,-35.18383 12.95157,-45.77849c4.40087,-4.48087 13.77353,-10.65665 23.23504,-13.72522c13.3437,-4.32764 26.86411,-4.69306 26.86411,-4.69306c0,0 17.94943,1.3293 33.39052,8.58321c9.5879,4.50419 17.80722,12.49843 21.37984,20.21857c7.28811,15.749 7.62698,35.11465 7.62698,35.11465z" fill="#d9d8de" stroke="#eeedf1" stroke-width="1.5" stroke-linecap="round"/><path d="M274.70907,34.4869c0,-8.67031 8.19084,-15.69898 18.29476,-15.69898c10.10392,0 18.29476,7.02867 18.29476,15.69898c0,8.67031 -8.19084,15.69898 -18.29476,15.69898c-10.10392,0 -18.29476,-7.02867 -18.29476,-15.69898z" fill="#000000" stroke="none" stroke-width="0" stroke-linecap="butt"/><path d="M276.66051,34.69621c0,-7.74548 7.37175,-14.02443 16.46528,-14.02443c9.09353,0 16.46528,6.27895 16.46528,14.02443c0,7.74548 -7.37175,14.02443 -16.46528,14.02443c-9.09353,0 -16.46528,-6.27895 -16.46528,-14.02443z" fill="#dcdbe0" stroke="none" stroke-width="0" stroke-linecap="butt"/><g stroke="none" stroke-width="0" stroke-linecap="butt"><path d="M330.45428,30.83423c0,-10.49456 10.25497,-19.00209 22.90511,-19.00209c12.65014,0 22.90511,8.50753 22.90511,19.00209c0,10.49456 -10.25497,19.00209 -22.90511,19.00209c-12.65014,0 -22.90511,-8.50753 -22.90511,-19.00209z" fill="#000000"/><path d="M332.89749,31.08759c0,-9.37515 9.22947,-16.97519 20.6146,-16.97519c11.38513,0 20.61459,7.60005 20.61459,16.97519c0,9.37515 -9.22946,16.97519 -20.61459,16.97519c-11.38513,0 -20.6146,-7.60005 -20.6146,-16.97519z" fill="#dcdbe0"/></g><path d="M271.07539,24.82121l5.99265,3.22893" fill="none" stroke="#000000" stroke-width="3.5" stroke-linecap="round"/><path d="M280.21937,16.43327l3.54524,5.25498" fill="none" stroke="#000000" stroke-width="3.5" stroke-linecap="round"/><path d="M295.59663,11.35852l-1.26488,7.51207" fill="none" stroke="#000000" stroke-width="3.5" stroke-linecap="round"/><path d="M356.05763,8.6272l-0.29808,4.17709" fill="none" stroke="#000000" stroke-width="3.5" stroke-linecap="round"/><path d="M369.22695,13.78199l-2.55096,3.03567" fill="none" stroke="#000000" stroke-width="3.5" stroke-linecap="round"/><path d="M340.80557,11.05917l2.1001,3.77703" fill="none" stroke="#000000" stroke-width="3.5" stroke-linecap="round"/><g stroke="none" stroke-width="0" stroke-linecap="butt"><path d="M290.6276,40.97438c0,-3.09804 2.92671,-5.60949 6.53699,-5.60949c3.61028,0 6.53701,2.51145 6.53701,5.60949c0,3.09804 -2.92672,5.60949 -6.53701,5.60949c-3.61028,0 -6.53699,-2.51146 -6.53699,-5.60949z" fill="#000000"/><path d="M292.96921,41.30928c0,-2.17324 2.05307,-3.93502 4.58566,-3.93502c2.53258,0 4.58565,1.76178 4.58565,3.93502c0,2.17324 -2.05307,3.93501 -4.58565,3.93501c-2.53258,0 -4.58566,-1.76177 -4.58566,-3.93501z" fill="#dcdbe0"/></g><g stroke="none" stroke-width="0" stroke-linecap="butt"><path d="M338.95521,22.33134c0,-3.09804 2.92672,-5.60949 6.537,-5.60949c3.61028,0 6.53699,2.51145 6.53699,5.60949c0,3.09804 -2.92671,5.60949 -6.53699,5.60949c-3.61028,0 -6.537,-2.51146 -6.537,-5.60949z" fill="#000000"/><path d="M341.29682,22.66624c0,-2.17324 2.05308,-3.93501 4.58566,-3.93501c2.53258,0 4.58566,1.76177 4.58566,3.93501c0,2.17324 -2.05307,3.93502 -4.58566,3.93502c-2.53258,0 -4.58566,-1.76177 -4.58566,-3.93502z" fill="#dcdbe0"/></g><path d="M330.30728,51.32813c-1.59372,-0.08203 -1.51585,-1.19613 -1.51585,-1.19613l0.05842,-0.83574c0.17845,-2.55287 0.41344,-4.97615 -0.10716,-7.52682c-1.37169,-2.18687 -6.29423,-4.88904 -9.70582,-2.87599c-0.83992,0.49561 -1.35871,1.2097 -1.99464,1.83723c-2.9515,2.9125 -3.01495,6.50639 -2.62594,10.0324c0,0 0.1204,1.11567 -1.47067,1.17245c-1.59107,0.05678 -1.71148,-1.05888 -1.71148,-1.05888c-0.50022,-4.73063 -0.03499,-10.63969 5.81003,-13.76221c5.46727,-2.92072 12.47254,0.38842 14.76398,4.08705c0.61986,2.81341 0.42593,5.44371 0.22914,8.25884l-0.05842,0.83574c0,0 -0.07788,1.11408 -1.6716,1.03205z" fill="#000000" stroke="none" stroke-width="0.5" stroke-linecap="butt"/><path d="M346.27026,57.46433l0.49981,0.04386c3.79363,0.97691 6.40644,2.78509 9.65489,4.64767c1.43553,0.61393 2.74566,1.43773 4.17111,2.04747c2.26893,0.97055 4.55624,1.64524 5.05027,4.12774c1.83169,9.20433 -10.71974,11.67665 -20.54166,15.69581c-11.14175,4.55924 -21.5848,5.72492 -33.49096,2.92965c-11.64393,-1.67715 -19.07352,-4.85259 -28.35765,-11.11188c-2.21792,-1.49532 -2.08633,-3.29566 -1.8334,-5.48674c0.21079,-1.56424 0.65944,-3.18581 1.72643,-4.51661c1.75268,-2.18602 5.11437,-3.08514 7.72034,-4.234c7.696,-3.39285 15.9911,-4.01672 24.36944,-5.4382c6.71945,-0.02294 13.47848,-0.95218 20.21657,-0.52107c1.91324,0.12241 4.30263,0.35373 6.15762,0.81865c1.43824,0.36047 4.65719,0.99765 4.65719,0.99765z" fill="#000000" stroke="none" stroke-width="0.5" stroke-linecap="butt"/><path d="M302.07416,61.20387l16.58461,-2.63832l0.62934,7.75458l-17.57722,-0.49244z" fill="#dcdbe0" stroke="#000000" stroke-width="1" stroke-linecap="round"/><path d="M347.17483,64.52575l-13.70628,0.73684l0.28555,-7.2046l13.34935,2.61985z" data-paper-data="{&quot;index&quot;:null}" fill="#dcdbe0" stroke="#000000" stroke-width="1" stroke-linecap="round"/></g></g></g></svg>