<svg version="1.1" xmlns="http://www.w3.org/2000/svg" xmlns:xlink="http://www.w3.org/1999/xlink" width="65.96776" height="69.26612" viewBox="0,0,65.96776,69.26612"><defs><linearGradient x1="107.66325" y1="108.04168" x2="173.63101" y2="108.04168" gradientUnits="userSpaceOnUse" id="color-1"><stop offset="0" stop-color="#4100db"/><stop offset="1" stop-color="#00c6db"/></linearGradient></defs><g transform="translate(-107.66324,-73.40861)"><g data-paper-data="{&quot;isPaintingLayer&quot;:true}" fill-rule="nonzero" stroke-linejoin="miter" stroke-miterlimit="10" stroke-dasharray="" stroke-dashoffset="0" style="mix-blend-mode: normal"><text transform="translate(115.11875,128.95331) scale(0.32984,0.32984)" font-size="40" xml:space="preserve" fill="#db00b7" fill-rule="nonzero" stroke="none" stroke-width="1" stroke-linecap="butt" stroke-linejoin="miter" stroke-miterlimit="10" stroke-dasharray="" stroke-dashoffset="0" font-family="Sans Serif" font-weight="normal" text-anchor="start" style="mix-blend-mode: normal"><tspan x="0" dy="0">glasses</tspan></text><path d="M128.19735,102.72671c0,0.49476 -0.49476,0.49476 -0.49476,0.49476l-0.49936,-0.02539c-2.26538,-0.77655 -4.4135,-1.66891 -6.50733,-2.93678c-0.96273,-0.58296 -2.484,-2.05865 -3.62326,-2.00989c0,0 -0.49476,0 -0.49476,-0.49476c0,-0.49476 0.49476,-0.49476 0.49476,-0.49476c1.47934,0.03823 2.89361,1.40032 4.13592,2.15305c2.0269,1.22813 4.1019,2.1256 6.30758,2.84441l0.18644,-0.02539c0,0 0.49476,0 0.49476,0.49476z" fill="#db00b7" stroke="none" stroke-width="0.5" stroke-linecap="butt"/><path d="M150.76473,94.78748c-0.16069,0.46793 -0.62862,0.30724 -0.62862,0.30724l-0.2948,-0.1065c-3.63258,-0.72159 -7.66633,-2.15725 -11.00234,-3.77705c0,0 -0.44439,-0.21749 -0.2269,-0.66188c0.21749,-0.44439 0.66188,-0.2269 0.66188,-0.2269c3.19653,1.57878 7.24904,3.05734 10.75316,3.69391l0.43038,0.14254c0,0 0.46793,0.16069 0.30724,0.62862z" fill="#db00b7" stroke="none" stroke-width="0.5" stroke-linecap="butt"/><path d="M144.50475,103.58396c0,4.82918 -3.988,8.74399 -8.90743,8.74399c-4.91944,0 -8.90743,-3.91482 -8.90743,-8.74399c0,-4.82918 3.988,-8.74399 8.90743,-8.74399c4.91944,0 8.90743,3.91482 8.90743,8.74399z" fill="#db00b7" stroke="none" stroke-width="0" stroke-linecap="butt"/><path d="M159.24955,99.04052c0,4.68714 -3.49263,8.48682 -7.80102,8.48682c-4.30838,0 -7.80102,-3.79968 -7.80102,-8.48682c0,-4.68714 3.49263,-8.48682 7.80102,-8.48682c4.30838,0 7.80102,3.79968 7.80102,8.48682z" fill="#db00b7" stroke="none" stroke-width="0" stroke-linecap="butt"/><path d="M173.63101,108.04168c0,19.12732 -14.76738,34.63306 -32.98388,34.63306c-18.21649,0 -32.98388,-15.50575 -32.98388,-34.63306c0,-19.12732 14.76738,-34.63306 32.98388,-34.63306c18.21649,0 32.98388,15.50575 32.98388,34.63306z" fill="url(#color-1)" stroke="#0b61a3" stroke-width="0" stroke-linecap="butt"/><text transform="translate(113.56002,125.01058) scale(0.26559,0.26559)" font-size="40" xml:space="preserve" fill="#ffffff" fill-rule="nonzero" stroke="none" stroke-width="1" stroke-linecap="butt" stroke-linejoin="miter" stroke-miterlimit="10" stroke-dasharray="" stroke-dashoffset="0" font-family="&quot;SpongeBoyTT1-Regular&quot;, Sans Serif" font-weight="normal" text-anchor="start" style="mix-blend-mode: normal"><tspan x="0" dy="0">Glasses</tspan></text><path d="M141.09002,97.6917c-0.10068,0.25628 -0.33774,0.16315 -0.33774,0.16315c-0.26519,-0.10418 -0.67502,-0.26519 -0.94021,-0.36937c0,0 -0.23706,-0.09313 -0.13638,-0.34941c0.10068,-0.25628 0.23042,-0.38582 0.23042,-0.38582c0.26519,0.10418 0.21697,0.08524 0.48216,0.18942l0.65091,0.25572c0,0 0.15152,0.24004 0.05084,0.49632z" fill="#000000" stroke="none" stroke-width="0.5" stroke-linecap="butt"/><path d="M141.02386,90.29523c0,0 0.85648,1.56179 -0.06697,4.43746c-0.77222,2.40472 -3.40003,6.42722 -5.33351,7.61054c-2.58132,1.5798 -5.81108,3.71261 -8.03991,3.90156c-2.55279,0.21642 -3.93659,-1.64381 -3.98567,-1.73439c-0.22254,-0.41071 -0.56218,-1.07877 -0.8853,-1.87808c-1.01079,-2.50038 -2.23131,-6.59781 -1.81669,-10.32319c0.08647,-0.7769 0.12526,-1.64481 0.47269,-2.78875c0.42629,-1.40357 1.50776,-3.45074 2.0558,-4.11406c0.47525,-0.57522 1.82926,-1.63193 3.50201,-1.32852c1.1447,0.20763 0.76876,0.28231 2.06084,0.77442c1.10205,0.41973 1.67869,0.78231 1.98521,1.77895c0.29494,0.95896 0.43116,2.58529 1.19382,3.4492c0.11087,0.12559 3.21242,-1.47446 3.37455,-1.40185c0,0 0.66144,-0.38785 1.52937,-0.34773c0.78908,0.03648 1.89675,0.33982 2.31583,0.47892c0.93998,0.312 1.63793,1.48552 1.63793,1.48552z" fill-opacity="0.56471" fill="#ff00fb" stroke-opacity="0.58039" stroke="#000000" stroke-width="1" stroke-linecap="round"/><path d="M160.67277,97.74122c0,0 0.85648,1.5618 -0.06697,4.43746c-0.77222,2.40472 -3.40003,6.42722 -5.33351,7.61054c-2.58132,1.5798 -5.81108,3.71261 -8.03991,3.90156c-2.55279,0.21642 -3.93659,-1.64382 -3.98567,-1.7344c-0.22254,-0.41071 -0.56218,-1.07877 -0.8853,-1.87808c-1.01079,-2.50038 -2.23131,-6.59782 -1.81668,-10.32319c0.08647,-0.7769 0.12526,-1.64481 0.47269,-2.78875c0.42629,-1.40357 1.50776,-3.45074 2.05579,-4.11406c0.47525,-0.57522 1.82926,-1.63193 3.50201,-1.32852c1.1447,0.20763 0.76876,0.28231 2.06084,0.77442c1.10205,0.41973 1.67869,0.78231 1.98521,1.77895c0.29494,0.95896 0.43116,2.58529 1.19382,3.4492c0.11087,0.12559 3.21242,-1.47446 3.37455,-1.40185c0,0 0.66144,-0.38785 1.52937,-0.34773c0.78908,0.03648 1.89675,0.33982 2.31583,0.47892c0.93998,0.312 1.63793,1.48552 1.63793,1.48552z" fill-opacity="0.56471" fill="#ff00fb" stroke-opacity="0.58039" stroke="#000000" stroke-width="1" stroke-linecap="round"/></g></g></svg>