<svg version="1.1" xmlns="http://www.w3.org/2000/svg" xmlns:xlink="http://www.w3.org/1999/xlink" width="163.88859" height="183.6475" viewBox="0,0,163.88859,183.6475"><g transform="translate(-243.64893,39.503)"><g data-paper-data="{&quot;isPaintingLayer&quot;:true}" fill-rule="nonzero" stroke-linejoin="miter" stroke-miterlimit="10" stroke-dasharray="" stroke-dashoffset="0" style="mix-blend-mode: normal"><g stroke="none" stroke-linecap="butt"><path d="M362.78559,75.51322c-0.11848,-0.18439 -0.24521,-0.35074 -0.3104,-0.39079c-0.26349,-0.16183 -1.37784,-0.06208 -1.73918,-0.10715c-1.68296,-0.20988 -3.63083,-0.1227 -5.33449,-0.04915c-3.36743,0.1454 -6.73486,0.29079 -10.10229,0.43619c-3.31308,0.14305 -6.62616,0.2861 -9.93924,0.42915c-3.31299,0.14304 -6.62598,0.28609 -9.93897,0.42913c-3.31328,0.14306 -6.62656,0.28611 -9.93984,0.42917c-3.36743,0.1454 -6.73486,0.29079 -10.10229,0.43619c-3.3137,0.14308 -6.6274,0.28615 -9.94109,0.42923c-3.42138,0.14772 -6.84276,0.29545 -10.26414,0.44317c-3.36721,0.14539 -6.73442,0.29077 -10.10163,0.43616c-2.45914,0.10618 -5.4535,-0.19821 -7.87517,0.41103c-0.83126,2.29227 -3.02065,4.44746 -5.23909,5.44271c-2.38929,1.72448 -5.53124,0.94307 -5.67597,-2.18285c-0.03666,-0.85428 0.1988,-1.52627 0.91905,-2.04523c0.04507,-0.03247 0.42693,-0.21241 0.73883,-0.31666c-0.23416,-0.15113 -0.51877,-0.40538 -0.73092,-0.48049c-0.54214,-0.19193 -1.18813,-0.22507 -1.61164,-0.60338c-2.13628,-0.55101 -5.21485,-2.88457 -6.10144,-4.84848c-1.01215,-2.27149 -1.37229,-5.54419 0.46387,-7.57155c0.38191,-0.41447 0.62724,-0.86174 1.19922,-1.0055c0.20591,-0.05174 -0.39402,-0.16578 -0.56994,-0.28496c-0.43439,-0.29429 -0.87043,-0.22516 -1.38695,-0.30875c-1.31642,-0.21303 -2.49337,-1.03807 -3.42809,-1.92902c-0.53845,-1.4145 -1.4607,-2.77328 -1.77075,-4.35192c-0.27396,-1.39488 0.17233,-2.95692 -0.33909,-4.29827c-0.17128,-2.80554 1.12677,-4.95242 3.65497,-5.94257l0.23967,-0.02295c0,0 0.09843,-0.00425 0.17303,0.0553c0.10697,-0.02213 0.213,-0.04874 0.31931,-0.09124l0.05854,-0.09965c-0.18497,-0.37748 -0.3389,-0.76891 -0.44299,-1.18213c-0.04391,-2.46977 -1.28795,-5.26109 -1.40141,-7.90529c-0.12716,-2.96351 -0.17124,-6.26629 1.54811,-8.81083c1.48703,-2.17134 3.37518,-3.28298 5.04519,-5.09135c-0.0612,-0.37746 -2.20703,-0.43997 -2.52105,-0.60594c-1.11309,-0.58833 -1.35499,-2.46795 -1.49948,-3.55978c-0.06901,-1.473 -0.49778,-3.44781 -0.10344,-4.90395c-0.06754,-2.11537 0.52784,-2.97616 1.70996,-3.76378c0.58276,-0.89018 1.17531,-1.75296 1.79662,-2.65744c1.12799,-2.54042 -0.07259,-4.4688 -0.10969,-7.08473c1.25912,-2.16265 2.95792,-3.17585 5.60228,-3.29002c0,0 0.22401,-0.00967 0.25233,0.20465c0.09327,0.03208 0.19095,0.07508 0.29328,0.12975c0.46348,0.55521 0.77313,1.39618 1.34009,1.81186c0.04806,-0.31003 0.06969,-0.62081 0.12573,-0.9336c-0.11268,-2.4265 0.92879,-5.38665 2.06572,-7.48852c1.4591,-2.41437 3.05432,-4.43969 5.93443,-5.29758c2.43763,-0.93218 4.56164,-0.89813 6.99087,-0.56928c0.4274,-1.4109 1.06607,-2.67319 1.86316,-3.99177c1.48819,-2.22691 3.56447,-3.66719 6.37355,-3.259c-0.06919,-1.16074 -0.17206,-2.33704 0.00558,-3.48216c0.47701,-3.09806 1.93066,-6.24052 4.93594,-7.59977c2.25192,-1.85733 5.68206,-2.89021 8.41331,-3.70068c2.70162,-1.01618 5.30774,-1.39483 8.23487,-1.08068c2.19572,0.17734 4.48624,3.08326 6.4575,2.94179c0,0 0.00484,-0.00021 0.01319,0.00011c0.88504,-2.30675 2.39804,-3.04481 4.82711,-2.56517c1.41847,-0.031 2.94316,0.75452 3.72838,1.92597c1.66448,-1.48577 3.72056,-3.69232 5.58174,-4.3696c1.94804,-1.44774 6.61041,-1.50753 8.89067,-0.98054c2.73829,1.22112 5.20688,2.19746 7.03994,4.67537c0.86229,0.8253 1.50686,2.38357 2.51833,2.96864l0.01087,0.01531c2.11309,-0.40892 3.77903,-1.32899 6.17711,-1.42817c2.93408,0.36127 4.24975,2.19733 6.11322,4.19008c0.73537,1.13632 1.04087,2.54582 1.71366,3.68973c2.00092,-1.02804 4.9199,-0.97445 7.03948,-0.59626c2.7272,0.8008 4.14843,2.31474 5.18719,5.04357c0.74384,1.34296 1.18511,2.69285 1.61789,4.14965c1.44374,-1.40187 4.76809,-0.75867 6.40711,-0.18052c2.45365,1.09922 4.75284,2.59477 6.43936,4.70352c2.22947,1.36957 3.33948,5.02751 3.98519,7.32404c0.33236,1.35957 0.1873,2.67689 0.18123,4.03001c0.14826,-0.07013 0.29897,-0.11213 0.55479,-0.12935c2.82581,-0.11589 3.3257,1.88733 2.60901,3.98782c2.43478,-0.38879 4.08782,0.93807 6.14291,2.25105c1.35317,2.36697 1.56815,4.31049 1.68739,7.08942c0.04309,1.00433 0.00745,1.95493 -0.57723,2.80669l-0.12414,0.28081c0,0 -0.00397,0.00889 -0.01208,0.02233c1.67223,0.64069 3.15581,1.86509 4.57754,2.91079c2.96306,1.65579 3.92713,4.80271 4.06379,7.98781c0.10673,2.4875 0.46288,5.14437 -0.86716,7.37847c-0.66282,1.09492 -1.49066,1.81398 -2.46136,2.61174l-0.11733,0.12877c0.73888,1.72982 2.6678,2.72299 2.78059,4.81052c0.11054,2.57625 0.23691,4.64926 -0.61165,7.07678c-0.89995,2.55865 -1.68234,4.96662 -4.04551,6.27934c0.00808,0.03094 0.00904,0.05331 0.00904,0.05331c0.00779,0.65915 0.53712,1.22453 0.6513,1.90681c0.26704,1.59572 -0.25162,2.88948 -0.55927,4.39672c-0.74208,1.6737 -1.64907,2.75221 -3.26051,3.09471l0.05768,0.06453c0.11229,0.38739 0.20391,0.83116 0.21898,1.23176c0.89531,1.99224 0.52032,5.87031 0.09387,7.9617c-0.65384,3.05534 -2.88287,5.71949 -5.58137,7.17069c-2.31446,1.11257 -4.74141,0.53405 -6.92014,1.39414c-0.10975,0.8027 -0.34037,1.56258 -0.78445,2.21599c-1.08865,1.78716 -3.06969,4.33458 -5.55598,3.26512l-0.00089,-0.00072c-2.20275,-0.21237 -3.40926,-3.03679 -4.08021,-4.79555c-0.77749,-2.04246 -1.55397,-4.41817 -3.76359,-2.03302c-1.95971,2.14271 -5.43571,2.46987 -7.52018,0.55145c-1.0393,-1.42684 -1.34055,-3.43726 -2.28143,-4.95072c-0.07188,-0.02599 -0.14995,-0.05898 -0.23455,-0.09962c0.01236,-0.06555 0.02472,-0.13109 0.03707,-0.19664c-0.01607,-0.02245 -0.03232,-0.04476 -0.04875,-0.06693l-0.02958,-0.1268c-0.01213,-0.02736 -0.01945,-0.05741 -0.02081,-0.08913l-0.00002,0.00006c-0.00133,-0.03099 0.00314,-0.06087 0.01242,-0.08861c0.02017,-0.06922 0.07267,-0.15547 0.20861,-0.16631c0.0117,-0.01913 0.0272,-0.03983 0.0472,-0.05832zM266.52425,78.78129c-0.06948,-0.23527 0.16506,-0.30496 0.16506,-0.30496c2.5331,-0.74747 5.72564,-0.4183 8.36167,-0.53212c3.36721,-0.14539 6.73442,-0.29077 10.10163,-0.43616c3.42138,-0.14772 6.84276,-0.29545 10.26414,-0.44317c3.3137,-0.14308 6.6274,-0.28615 9.94109,-0.42923c3.36743,-0.1454 6.73486,-0.29079 10.10229,-0.43619c3.31328,-0.14306 6.62656,-0.28611 9.93984,-0.42917c3.31299,-0.14304 6.62598,-0.28609 9.93897,-0.42913c3.31308,-0.14305 6.62616,-0.2861 9.93924,-0.42915c3.36743,-0.1454 6.73486,-0.29079 10.10229,-0.43619c1.72175,-0.07434 5.82887,-0.65495 7.30864,0.20525c0.56488,0.32837 1.11372,1.49728 0.69398,1.75202c0.78935,1.47293 1.12532,3.28956 2.07695,4.59602c1.86446,1.71594 5.03851,1.36446 6.79679,-0.55795c2.5107,-2.66927 3.66879,-0.20047 4.57938,2.19162c0.55908,1.47168 1.62823,4.17593 3.49464,4.46938c0.15449,-0.12388 0.3097,0.01895 0.3097,0.01895l0.00388,0.00696c0.04995,0.00049 0.10044,-0.00074 0.15145,-0.00374c0,0 0.20514,-0.00886 0.24761,0.17818c2.01463,0.5842 3.71072,-1.80886 4.56161,-3.22948c1.14019,-1.66195 0.75595,-4.15983 0.67229,-6.10948c0,0 -0.01052,-0.24515 0.23387,-0.2557c0.24438,-0.01055 0.2549,0.2346 0.2549,0.2346c0.04882,1.13777 0.18136,2.42246 0.09057,3.64311c2.16634,-0.70368 4.39506,-0.20788 6.64277,-1.29437c2.52656,-1.35163 4.76962,-3.93932 5.32343,-6.83147c0.41649,-2.03824 0.77911,-5.81459 -0.09057,-7.74982c-0.01875,-0.39146 -0.09843,-0.82923 -0.21208,-1.20581l-0.10078,-0.04529c0,0 -0.02961,-0.02725 -0.05382,-0.07171c-0.11236,0.01118 -0.22779,0.01934 -0.3464,0.02447l-0.16293,0.00703c0,0 -0.24438,0.01055 -0.2549,-0.2346c-0.01052,-0.24515 0.23387,-0.2557 0.23387,-0.2557l0.16293,-0.00703c2.00106,-0.0864 2.9246,-1.07605 3.72824,-2.86612c0.49413,-2.42082 0.0564,-3.75726 -0.10399,-5.97046c-0.10666,0.04856 -0.21624,0.09513 -0.32885,0.13964c-0.40736,0.15604 -0.80245,0.22431 -1.20796,0.37964l-0.12799,0.07407c0,0 -0.21387,0.11907 -0.33258,-0.09548c-0.11871,-0.21454 0.09518,-0.33362 0.09518,-0.33362l0.19086,-0.10344c0.40736,-0.15604 0.80245,-0.22432 1.20796,-0.37965c2.84656,-1.04338 3.64061,-3.72704 4.55587,-6.3591c0.82827,-2.36585 0.69257,-4.37451 0.5845,-6.89317c-0.05528,-2.00563 -2.11963,-3.05608 -2.79117,-4.75988c-0.03906,-0.06069 -0.04013,-0.12037 -0.02786,-0.16959c0.00666,-0.05011 0.02945,-0.10497 0.0876,-0.14688l0.22082,-0.24062c0.93675,-0.77023 1.73996,-1.44999 2.37915,-2.50959c1.29634,-2.10553 0.89774,-4.74895 0.79674,-7.10296c-0.12971,-3.02291 -1.00813,-6.03035 -3.83856,-7.59546c-1.87373,-1.37281 -3.87431,-3.13012 -6.2827,-3.26714c0,0 -0.24422,-0.01389 -0.23036,-0.25887c0.01385,-0.24498 0.25807,-0.23109 0.25807,-0.23109c0.51372,0.02922 1.00886,0.12675 1.48823,0.27567c0.00641,-0.03895 0.01827,-0.06553 0.01827,-0.06553l0.14389,-0.32024c0.53447,-0.78681 0.55501,-1.62001 0.51529,-2.54578c-0.11408,-2.65868 -0.3388,-4.49252 -1.5517,-6.77083c-2.12667,-1.22796 -3.58647,-2.64881 -6.17164,-2.01283c0,0 -0.23758,0.05843 -0.29582,-0.17989c-0.03738,-0.15293 0.04707,-0.23178 0.11237,-0.26865c0.85739,-1.87255 0.49695,-3.74177 -2.02272,-3.62689c-0.35892,0.00273 -0.4323,0.11572 -0.73803,0.28974l-0.00068,0.00121c0,0 -0.12681,0.20983 -0.33599,0.08262c-0.1151,-0.07 -0.12847,-0.16501 -0.11721,-0.23631c-0.00177,-0.01149 -0.00297,-0.02365 -0.00352,-0.03651c-0.00626,-0.14598 0.07786,-0.20877 0.14694,-0.23569c-0.10445,-1.37744 0.15867,-2.73796 -0.18196,-4.13218c-0.59811,-2.20743 -1.69298,-5.77746 -3.83333,-7.078c-1.6964,-2.06123 -3.86927,-3.52533 -6.29901,-4.61755c-1.52055,-0.53635 -5.13439,-1.28896 -6.14284,0.3985c0,0 -0.1268,0.20983 -0.33598,0.08262c-0.1665,-0.10125 -0.12013,-0.25484 -0.09427,-0.31331l-0.07444,-0.14349c-0.44182,-1.49615 -0.88145,-2.8702 -1.63979,-4.24218c-0.98915,-2.5985 -2.27056,-4.00967 -4.85548,-4.77293c-1.94393,-0.34533 -4.74083,-0.43787 -6.60476,0.50113c0.04032,0.03458 0.07248,0.089 0.07615,0.17457c0.01052,0.24515 -0.23387,0.2557 -0.23387,0.2557l-0.28134,-0.09722c-0.87944,-1.21165 -1.15949,-2.81995 -1.98316,-4.10345c-1.75238,-1.88733 -2.97308,-3.66015 -5.74693,-4.00169c-2.3604,0.10662 -3.92997,0.97055 -6.00153,1.40501c-0.01974,0.03092 -0.05016,0.06051 -0.09558,0.08579c-0.21388,0.11907 -0.33258,-0.09548 -0.33258,-0.09548l0.00268,-0.01917c-0.01521,-0.01678 -0.02873,-0.03734 -0.03951,-0.06248c-1.04519,-0.68721 -1.67979,-2.1576 -2.58871,-3.03677c-1.7385,-2.42853 -4.19256,-3.34284 -6.82646,-4.53288c-2.19924,-0.4923 -6.61908,-0.41815 -8.50876,0.94967c-1.81042,0.59982 -3.931,2.9084 -5.56017,4.36651c0.02323,0.06652 0.04844,0.20817 -0.11087,0.29686c-0.09942,0.05535 -0.17827,0.03861 -0.23419,0.00485c-0.05506,0.04683 -0.10942,0.09237 -0.16306,0.13649c0,0 -0.1892,0.15553 -0.34424,-0.03426c-0.15505,-0.18979 0.03415,-0.34532 0.03415,-0.34532c0.06499,-0.0534 0.13077,-0.1085 0.19731,-0.16514c-0.68099,-1.06176 -2.12463,-1.85066 -3.39502,-1.76184c-2.28871,-0.48133 -3.61326,0.18406 -4.41136,2.46952c0,0 -0.081,0.23154 -0.31181,0.15029c-0.03956,-0.01392 -0.06995,-0.03226 -0.09317,-0.05309c-2.18816,0.018 -4.14123,-2.82173 -6.48522,-2.94376c-2.84389,-0.30625 -5.41569,0.03246 -8.03541,1.05664c-2.71328,0.80737 -6.06429,1.82142 -8.31267,3.65312c-2.88429,1.30411 -4.25197,4.28301 -4.70999,7.25768c-0.19195,1.23738 -0.02804,2.50372 0.01691,3.75346l0.07921,0.26176c0,0 0.06947,0.23527 -0.16506,0.30497c-0.23454,0.0697 -0.30401,-0.16557 -0.30401,-0.16557l-0.07353,-0.25415c-0.03775,0.00357 -0.06511,-0.00071 -0.06511,-0.00071c-2.63812,-0.42105 -4.55426,0.95875 -5.93851,3.03013c-0.79667,1.31864 -1.42668,2.56321 -1.84022,3.97727c0.0009,0.0191 -0.00018,0.03983 -0.00367,0.06232c-0.00813,0.05241 -0.0258,0.09173 -0.0485,0.12117c-0.07706,0.27891 -0.14579,0.56468 -0.20581,0.85912l0.01421,0.16087c0,0 0.01052,0.24515 -0.23387,0.2557c-0.24438,0.01055 -0.2549,-0.2346 -0.2549,-0.2346l-0.00472,-0.28042c0.05032,-0.24623 0.10666,-0.48701 0.1688,-0.72322c-2.31119,-0.3591 -4.38161,-0.32615 -6.70096,0.56379c-2.77371,0.82221 -4.26707,2.7606 -5.66701,5.07709c-1.11286,2.0548 -2.09616,4.90592 -2.00184,7.27669c-0.07147,0.40883 -0.09202,0.81398 -0.1739,1.21923l0.01106,0.08732c0,0 0.00917,0.21378 -0.18862,0.25066c-0.14862,0.10078 -0.29252,-0.03166 -0.29252,-0.03166l-0.21623,-0.19984c-0.62437,-0.44252 -0.92711,-1.25538 -1.40548,-1.85828c-1.64687,-0.9264 -1.47378,5.24467 -1.61737,6.15668c-1.09558,2.36496 -1.35878,4.15036 -3.85103,5.53785c-0.65285,0.35994 -1.21192,0.64374 -1.6739,0.93549c-0.35572,0.54239 -0.70749,1.09589 -1.05793,1.67799l-0.05289,0.12325c0,0 -0.09989,0.22399 -0.32317,0.12379c-0.01793,-0.00805 -0.03378,-0.01689 -0.04777,-0.02636c-0.0695,0.29102 -0.1102,0.62343 -0.1216,1.00974c0.02465,0.00412 0.05047,0.01316 0.07694,0.02891l0.22303,-0.16347c0,0 0.1975,-0.14477 0.34182,0.05336l0.00002,-0.00002c0.14432,0.19812 -0.0532,0.34289 -0.0532,0.34289l-0.23738,0.174c0,0 -0.13413,0.09832 -0.2621,0.02202l-0.05172,0.04214c-0.01168,0.03223 -0.02281,0.06488 -0.03341,0.09793c0.00061,0.01604 0.00127,0.03217 0.00197,0.04837c0,0 0.0048,0.11166 -0.06721,0.1875c-0.31951,1.35308 0.10378,3.24399 0.16462,4.57176c0.11315,0.86954 0.31385,2.70551 1.23469,3.16621c0.72415,0.3623 2.22999,-0.04416 2.67305,0.74564c0.0498,-0.02201 0.218,-0.07886 0.31827,0.10239c0.1187,0.21454 -0.09518,0.33362 -0.09518,0.33362l-0.09788,0.04009c-1.7457,1.87854 -3.62054,2.95597 -5.14128,5.18989c-1.67375,2.4223 -1.58455,5.67899 -1.46298,8.51243c0.11608,2.70522 1.23789,5.30156 1.39695,7.85708c0.50014,2.13927 2.38559,3.6709 3.01469,5.72928c0,0 0.06947,0.23528 -0.16506,0.30497c-0.23453,0.06969 -0.30401,-0.16557 -0.30401,-0.16557c-0.42949,-1.52225 -1.56217,-2.76767 -2.35168,-4.17118l-0.11929,0.11206c-0.28159,0.10444 -0.53815,0.11741 -0.82543,0.20465c0,0 -0.11386,0.03384 -0.20641,-0.02523c-2.11525,0.9164 -3.17722,2.83198 -3.0513,5.26083c0.51244,1.34846 0.06832,2.90218 0.33954,4.30038c0.294,1.51565 1.1817,2.82409 1.69664,4.17683c1.40604,1.23056 2.65155,1.2289 4.27381,1.84027c0.27005,0.10178 1.27005,0.67866 1.18425,1.06363c-0.03895,0.17476 -1.12973,1.02625 -1.31652,1.23181c-1.71157,1.84972 -1.31224,4.97562 -0.37836,7.0381c0.87477,1.95626 3.83276,3.98515 5.89452,4.62201c0.32838,0.31245 3.45492,0.7974 2.92134,1.78197c-0.49417,0.91184 -2.06603,0.2283 -1.98697,2.07087c0.10745,2.75717 2.87371,3.32134 4.94103,1.77985c2.03966,-0.92869 4.06718,-2.82962 4.92778,-4.93252c-0.04711,-0.02387 -0.09103,-0.06878 -0.11512,-0.15034zM252.60517,2.51673c0.23788,2.64082 1.21094,4.63819 0.06262,7.20266c-0.42491,0.62579 -0.83911,1.22823 -1.24642,1.83248c0.26208,-0.14713 0.5423,-0.30121 0.84024,-0.46898c2.33827,-1.30177 2.63959,-2.97551 3.6193,-5.24792c0.15501,-1.0198 -0.06201,-4.83096 0.90178,-6.14776c-1.8772,0.28646 -3.14072,1.18422 -4.17753,2.82952z" fill="#0068ce" stroke-width="0.5"/><path d="M266.6755,78.89855c-0.8606,2.10289 -2.96026,4.07014 -4.99992,4.99883c-2.06732,1.54148 -4.83527,0.97537 -4.94272,-1.7818c-0.07906,-1.84256 1.49268,-1.15918 1.98685,-2.07101c0.53358,-0.98457 -2.59408,-1.47094 -2.92247,-1.7834c-2.06176,-0.63686 -5.02202,-2.66902 -5.89679,-4.62529c-0.93388,-2.06248 -1.33488,-5.19121 0.37668,-7.04094c0.18679,-0.20556 1.27745,-1.05728 1.3164,-1.23204c0.0858,-0.38497 -0.9146,-0.96263 -1.18466,-1.06441c-1.62226,-0.61138 -2.86866,-0.61154 -4.2747,-1.84209c-0.51494,-1.35274 -1.40365,-2.66352 -1.69766,-4.17916c-0.27122,-1.3982 0.17208,-2.95412 -0.34037,-4.30258c-0.12592,-2.42885 0.93532,-4.3467 3.05056,-5.2631c0.09256,0.05906 0.3002,-0.00275 0.3002,-0.00275c0.28728,-0.08724 0.45008,-0.07216 0.73166,-0.1766l0.21305,-0.14009c0.78951,1.40351 1.92129,2.64617 2.35077,4.16843c0,0 0.06943,0.23511 0.30396,0.16542c0.23453,-0.06969 0.07315,-0.27131 0.07315,-0.27131c-0.62911,-2.05837 -2.51575,-3.59376 -3.01589,-5.73304c-0.15906,-2.55552 -1.28193,-5.15666 -1.39801,-7.86188c-0.12158,-2.83344 -0.21136,-6.09529 1.46238,-8.51759c1.52075,-2.23393 3.39548,-3.31468 5.14119,-5.19322l0.09788,-0.04012c0,0 0.21388,-0.11931 0.09518,-0.33385c-0.10028,-0.18125 -0.26848,-0.12447 -0.31828,-0.10245c-0.44306,-0.7898 -1.94889,-0.38382 -2.67304,-0.74611c-0.92085,-0.4607 -1.12146,-2.29869 -1.23461,-3.16823c-0.06085,-1.32777 -0.48387,-3.22159 -0.16436,-4.57467c0.07201,-0.07585 0.06723,-0.18763 0.06723,-0.18763c-0.0007,-0.0162 -0.00135,-0.03236 -0.00196,-0.0484c0.01059,-0.03305 0.02173,-0.06576 0.03341,-0.09799l0.05173,-0.04217c0.12796,0.0763 0.26211,-0.02205 0.26211,-0.02205l0.23739,-0.17413c0,0 0.19754,-0.14499 0.05322,-0.34311l-0.00002,0.00002c-0.14432,-0.19813 -0.24487,-0.04008 -0.24487,-0.04008l-0.22301,0.16335c-0.02648,-0.01574 -0.14927,-0.03784 -0.17392,-0.04196c0.01139,-0.38632 0.05218,-0.71937 0.12168,-1.01039c0.01398,0.00947 0.02983,0.01832 0.04777,0.02637c0.22329,0.1002 0.32319,-0.1239 0.32319,-0.1239l0.05291,-0.12333c0.35045,-0.58211 0.7024,-1.13678 1.05812,-1.67917c0.46198,-0.29175 1.02119,-0.57633 1.67404,-0.93627c2.49225,-1.38749 2.75644,-3.17703 3.85201,-5.54198c0.14359,-0.91201 -0.02813,-7.0872 1.61874,-6.16079c0.47837,0.6029 0.87277,1.45007 1.49714,1.89259l0.21626,0.19976c0,0 0.0519,0.09904 0.20052,-0.00174c0.19779,-0.03689 0.18869,-0.25086 0.18869,-0.25086l-0.01104,-0.08737c0.08188,-0.40525 0.10273,-0.81119 0.1742,-1.22003c-0.09432,-2.37077 0.89112,-5.22664 2.00398,-7.28144c1.39994,-2.31649 2.89587,-4.2593 5.66959,-5.08151c2.31935,-0.88994 4.39162,-0.92553 6.70281,-0.56643c-0.06214,0.23621 -0.04009,0.53572 -0.09041,0.78196l0.00482,0.28028c0,0 -0.06841,0.18714 0.17598,0.17659c0.24438,-0.01055 0.23403,-0.25592 0.23403,-0.25592l-0.01416,-0.16095c0.06003,-0.29443 0.12914,-0.58071 0.20619,-0.85962c0.0227,-0.02944 0.04043,-0.06883 0.04856,-0.12124c0.00349,-0.02249 0.0046,-0.04325 0.0037,-0.06235c0.41354,-1.41405 1.04563,-2.66116 1.8423,-3.9798c1.38425,-2.07138 3.30382,-3.45471 5.94194,-3.03367c0,0 0.09391,0.07624 0.13165,0.07267l0.07361,0.25409c0,0 0.00289,0.16335 0.23743,0.09366c0.23454,-0.0697 0.16526,-0.30515 0.16526,-0.30515l-0.07914,-0.26182c-0.04495,-1.24973 -0.20743,-2.51735 -0.01548,-3.75472c0.45801,-2.97467 1.83053,-5.95718 4.71482,-7.26129c2.24838,-1.8317 5.60516,-2.84899 8.31844,-3.65636c2.61972,-1.02418 5.19697,-1.36509 8.04086,-1.05884c2.34399,0.12203 4.30118,2.96058 6.48934,2.94258c0.02322,0.02083 0.05368,0.03915 0.09323,0.05308c0.23081,0.08125 0.31208,-0.15035 0.31208,-0.15035c0.7981,-2.28546 2.12646,-2.95158 4.41517,-2.47025c1.27039,-0.08882 2.71657,0.69976 3.39756,1.76152c-0.06654,0.05664 -0.12272,0.20941 -0.18771,0.26282c0,0 -0.19902,0.05788 -0.04398,0.24766c0.15505,0.18979 0.34452,0.03423 0.34452,0.03423c0.05364,-0.04412 0.10815,-0.08967 0.16321,-0.1365c0.05593,0.03377 0.13497,0.05048 0.23439,-0.00486c0.15931,-0.08869 0.13421,-0.23036 0.11098,-0.29687c1.62917,-1.45811 3.75433,-3.76688 5.56475,-4.36669c1.88968,-1.36782 6.31594,-1.44149 8.51518,-0.94919c2.6339,1.19004 5.09372,2.10552 6.83222,4.53405c0.90892,0.87917 1.54611,2.35033 2.5913,3.03754c0.01078,0.02515 0.02435,0.04572 0.03956,0.0625l-0.00268,0.01917c0,0 0.11898,0.21464 0.33285,0.09557c0.04541,-0.02528 0.07588,-0.05485 0.09563,-0.08578c2.07156,-0.43446 3.64495,-1.29693 6.00535,-1.40355c2.77386,0.34154 3.99941,2.11678 5.75179,4.00411c0.82367,1.2835 1.10635,2.89341 1.98579,4.10506l0.28154,0.09735c0,0 0.19033,0.07126 0.17981,-0.17389c-0.00367,-0.08557 0.01815,-0.22185 -0.02217,-0.25644c1.86393,-0.939 4.66406,-0.84412 6.60799,-0.4988c2.58493,0.76326 3.87024,2.17785 4.85939,4.77635c0.75834,1.37198 1.20022,2.74837 1.64204,4.24452l0.07452,0.14358c-0.02585,0.05846 -0.07207,0.21223 0.09443,0.31348c0.20918,0.1272 0.33607,-0.08253 0.33607,-0.08253c1.00844,-1.68746 4.62405,-0.93274 6.1446,-0.39639c2.42974,1.09221 4.60566,2.56065 6.30205,4.62188c2.14036,1.30055 3.23793,4.87553 3.83604,7.08296c0.34063,1.39422 0.07862,2.75724 0.18307,4.13468c-0.06908,0.02691 -0.15316,0.08982 -0.1469,0.2358c0.00055,0.01286 0.00176,0.02504 0.00353,0.03654c-0.01125,0.0713 0.00218,0.16649 0.11728,0.23649c0.20918,0.1272 0.24519,-0.04605 0.24519,-0.04605l0.00068,-0.00121c0.30573,-0.17403 0.46993,-0.32355 0.82885,-0.32628c2.51967,-0.11488 2.8811,1.75705 2.02371,3.6296c-0.06531,0.03688 -0.1497,0.11587 -0.11232,0.2688c0.05824,0.23832 0.29588,0.18007 0.29588,0.18007c2.58517,-0.63598 4.04568,0.78727 6.17235,2.01523c1.2129,2.2783 1.4386,4.11656 1.55268,6.77524c0.03972,0.92576 0.01943,1.76054 -0.51504,2.54735l-0.14386,0.32043c0,0 -0.1088,0.03986 -0.11522,0.07881c-0.47937,-0.14893 -0.97446,-0.24614 -1.48818,-0.27536c0,0 -0.14734,-0.02763 -0.16119,0.21735c-0.01385,0.24498 0.23039,0.25907 0.23039,0.25907c2.40839,0.13702 4.40925,1.89687 6.28298,3.26967c2.83044,1.56511 3.70902,4.57726 3.83873,7.60017c0.10101,2.354 0.49936,5.00168 -0.79698,7.10722c-0.63919,1.05959 -1.4426,1.74103 -2.37935,2.51126l-0.22084,0.24079c-0.05815,0.04192 -0.08094,0.09687 -0.08761,0.14697c-0.01226,0.04922 -0.01121,0.109 0.02785,0.16969c0.67154,1.70381 2.73547,2.75677 2.79075,4.7624c0.10807,2.51866 0.24284,4.53123 -0.58543,6.89708c-0.91526,2.63206 -1.7107,5.31991 -4.55726,6.36329c-0.40551,0.15533 -0.80077,0.22406 -1.20814,0.3801l-0.1909,0.10353c0,0 -0.21396,0.11927 -0.09525,0.33382c0.11871,0.21455 0.24176,0.05897 0.24176,0.05897l0.12796,-0.074c0.40551,-0.15533 0.80042,-0.22316 1.20779,-0.3792c0.11261,-0.04451 0.31347,-0.05575 0.42013,-0.10431c0.16038,2.2132 0.59688,3.55259 0.10275,5.97341c-0.80364,1.79007 -1.72827,2.78194 -3.72933,2.86834l-0.16295,0.00708c0,0 -0.24448,0.01073 -0.23396,0.25588c0.01052,0.24515 0.16848,0.18857 0.16848,0.18857l0.1629,-0.00699c0.11861,-0.00512 0.23399,-0.01319 0.34635,-0.02437c0.02421,0.04446 0.14035,0.11752 0.14035,0.11752l0.10078,0.04529c0.11365,0.37658 0.19307,0.81485 0.21182,1.20631c0.86968,1.93523 0.50514,5.71482 0.08865,7.75306c-0.55381,2.89216 -2.79967,5.48377 -5.32623,6.83539c-2.2477,1.08649 -4.47838,0.59299 -6.64472,1.29668c0.09079,-1.22065 -0.11545,-2.56989 -0.16427,-3.70766c0,0 0.06422,-0.18181 -0.18016,-0.17126c-0.24438,0.01055 -0.234,0.25586 -0.234,0.25586c0.08366,1.94965 0.46592,4.44972 -0.67427,6.11167c-0.85089,1.42063 -2.54928,3.81594 -4.56392,3.23174c-0.04247,-0.18704 -0.24763,-0.17815 -0.24763,-0.17815c-0.05101,0.003 -0.10155,0.00427 -0.1515,0.00378l-0.00388,-0.00696c0,0 -0.1553,-0.14274 -0.30979,-0.01886c-1.86641,-0.29346 -3.00132,-3.07039 -3.5604,-4.54207c-0.91058,-2.39209 -2.00371,-4.78751 -4.51441,-2.11823c-1.75828,1.92241 -4.9354,2.27635 -6.79986,0.56041c-0.95163,-1.30647 -1.34609,-3.20177 -2.13545,-4.6747c0.41974,-0.25474 -0.06965,-1.3457 -0.63453,-1.67406c-1.47977,-0.8602 -5.59085,-0.27682 -7.3126,-0.20248c-3.36743,0.1454 -6.74207,0.29451 -10.1095,0.43991c-3.31308,0.14305 -6.63481,0.28878 -9.94789,0.43183c-3.31299,0.14304 -6.63557,0.28714 -9.94855,0.43018c-3.31328,0.14306 -6.63604,0.28528 -9.94932,0.42834c-3.36743,0.1454 -6.74339,0.28836 -10.11083,0.43376c-3.3137,0.14308 -6.63422,0.28289 -9.94792,0.42597c-3.42138,0.14772 -6.84818,0.29182 -10.26956,0.43955c-3.36721,0.14539 -6.73842,0.28734 -10.10564,0.43272c-2.63603,0.11382 -5.83103,-0.2179 -8.36413,0.52957c0,0 -0.16208,0.00374 -0.0926,0.23901c0.02409,0.08156 0.06793,0.12639 0.11504,0.15025z" data-paper-data="{&quot;noHover&quot;:false,&quot;origItem&quot;:[&quot;Path&quot;,{&quot;applyMatrix&quot;:true,&quot;segments&quot;:[[[127.52469,391.45314],[0.04204,0.16816],[-0.12127,-0.48507]],[[127.88849,390.84681],[0,0],[5.23853,-1.29904]],[[145.0111,390.49851],[-5.3932,0],[6.88917,0]],[[165.67861,390.49851],[-6.88917,0],[7,0]],[[186.67861,390.49851],[-7,0],[6.77968,0]],[[207.01766,390.49851],[-6.77968,0],[6.88962,0]],[[227.68651,390.49851],[-6.88962,0],[6.77883,0]],[[248.02299,390.49851],[-6.77883,0],[6.77823,0]],[[268.3577,390.49851],[-6.77823,0],[6.77842,0]],[[288.69296,390.49851],[-6.77842,0],[6.88962,0]],[[309.36181,390.49851],[-6.88962,0],[3.52263,0]],[[324.26934,391.55878],[-2.94658,-1.88126],[1.12481,0.71814]],[[325.53304,395.18655],[0.8795,-0.4817],[1.48293,3.06798]],[[329.37181,404.72571],[-1.82891,-2.74336],[3.6572,3.6572]],[[343.30093,404.18727],[-3.75916,3.7591],[5.36118,-5.21342]],[[352.46077,409.05149],[-1.64996,-4.94986],[1.01278,3.0452]],[[359.20581,418.45745],[-3.78582,-0.76148],[0.32636,-0.23862]],[359.83661,418.52325],[[359.84393,418.53777],[0,0],[0.10196,0.00538]],[[360.15355,418.54347],[-0.10444,0.00162],[0,0]],[[360.64359,418.92797],[-0.07034,-0.3845],[4.06304,1.3664]],[[370.24217,412.75435],[-1.86214,2.81732],[2.4741,-3.28318]],[[372.15045,400.37575],[0,3.97646],[0,0]],[[372.65045,399.87575],[-0.5,0],[0.5,0]],[[373.15045,400.37575],[0,0],[0,2.32056]],[[373.01619,407.80037],[0.29236,-2.47702],[4.4857,-1.24214]],[[386.69529,405.74919],[-4.6854,2.0143],[5.27812,-2.52956]],[[398.16527,392.30959],[-1.3844,5.83918],[1.02914,-4.11284]],[[398.65939,376.52453],[1.60646,4.01618],[-0.00398,-0.79858]],[[398.33195,374.05109],[0.1991,0.77664],[0,0]],[398.13011,373.95003],[[398.02649,373.79931],[0.04554,0.09264],[-0.23044,0.01288]],[[397.31693,373.81867],[0.24268,0],[0,0]],[396.98359,373.81867],[[396.48359,373.31867],[0,0.5],[0,-0.5]],[396.98359,372.81867],[[397.31693,372.81867],[0,0],[4.09408,0]],[[405.18179,367.31153],[-1.79802,3.57358],[1.22122,-4.88488]],[[405.49259,355.14771],[0.1336,4.51974],[-0.22208,0.08948]],[[404.80879,355.40309],[0.23386,-0.08072],[-0.84558,0.28186]],[[402.30865,356.06979],[0.84174,-0.28058],[0,0]],[402.04079,356.20933],[[401.36997,355.98571],[0.22362,0.44722],[-0.22362,-0.4472]],[401.59357,355.31489],[[401.99241,355.12109],[0,0],[0.84558,-0.28186]],[[404.49255,354.45437],[-0.84174,0.28058],[5.9046,-1.8739]],[[414.35365,341.90897],[-2.09976,5.2779],[1.89878,-4.7436]],[[416.15131,327.92721],[0,5.137],[0.06286,-4.08792]],[[410.86835,317.99169],[1.2221,3.52764],[-0.07444,-0.12698]],[[410.82631,317.64399],[-0.02936,0.09912],[0.018,-0.10142]],[[411.01807,317.35267],[-0.12242,0.08022],[0,0]],[[411.49011,316.88223],[0,0],[1.9805,-1.4857]],[[416.56865,311.98233],[-1.39818,2.10094],[2.83184,-4.1725]],[[418.81813,297.59215],[0,4.80116],[0,-6.16544]],[[411.64467,281.79189],[5.6431,3.43504],[-3.70618,-2.95946]],[[399.10059,274.58839],[4.90634,0.49064],[0,0]],[[398.65283,274.04113],[-0.04976,0.49752],[0.04976,-0.49752]],[[399.20011,273.59337],[0,0],[1.04654,0.10465]],[[402.21517,274.2854],[-0.9659,-0.34532],[0.01651,-0.07873]],[402.25822,274.15359],[[402.58012,273.5143],[0,0],[1.16043,-1.5548]],[[403.85551,268.3769],[0,1.88816],[0,-5.42257]],[[401.27997,254.45644],[2.27731,4.74479],[-4.23543,-2.68681]],[[388.85279,249.81623],[5.33509,-1.06749],[0,0]],[[388.26444,249.424],[0.09806,0.49029],[-0.06293,-0.31462]],[[388.51747,248.88695],[-0.1366,0.06933],[1.91502,-3.73678]],[[384.70453,241.32552],[5.15567,-0.01239],[-0.73322,-0.02599]],[[383.17195,241.85051],[0.63961,-0.32741],[0,0]],[383.17046,241.85291],[[382.47708,241.99158],[0.41603,0.27735],[-0.22892,-0.15262]],[[382.25842,241.50019],[-0.02923,0.14417],[-0.00261,-0.02355]],[[382.25443,241.42555],[0,0.02623],[0,-0.29773]],[[382.57516,240.95865],[-0.14344,0.04872],[-0.0926,-2.81337]],[[382.56565,232.53035],[0.57345,2.8683],[-1.02802,-4.54646]],[[375.35753,217.78399],[4.25702,2.83579],[-3.28372,-4.34536]],[[362.89847,207.8299],[4.86625,2.4371],[-3.05822,-1.22556]],[[350.31881,208.10122],[2.20728,-3.34669],[0,0]],[[349.62544,208.23989],[0.41603,0.27735],[-0.33114,-0.22076]],[[349.46037,207.59377],[-0.05792,0.11675],[0,0]],[[349.32092,207.29511],[0,0],[-0.77118,-3.08471]],[[346.3439,198.51474],[1.42845,2.85973],[-1.79232,-5.37697]],[[336.84639,188.3712],[5.21199,1.78106],[-3.93959,-0.87389]],[[323.31442,188.81085],[3.88875,-1.74778],[0.07931,0.07395]],[[323.45464,189.17294],[0,-0.17453],[0,0.5]],[322.95464,189.67294],[[322.38861,189.45029],[0,0],[-1.68979,-2.54399]],[[318.69821,180.92216],[1.56961,2.68536],[-3.41328,-3.99626]],[[307.31262,172.27036],[5.63477,0.93913],[-4.82969,0.00958]],[[294.93333,174.60315],[4.26856,-0.70239],[-0.04303,0.06122]],[[294.73063,174.76941],[0.09496,-0.04748],[-0.44721,0.22361]],[294.05981,174.5458],[[294.06697,174.50701],[0,0],[-0.02959,-0.0355]],[[293.99175,174.37633],[0.01981,0.05214],[-2.07425,-1.49089]],[[288.97125,167.96652],[1.77914,1.86972],[-3.33752,-5.09682]],[[275.42763,158.13843],[5.27461,2.6542],[-4.4481,-1.19554]],[[257.96805,159.32385],[3.97891,-2.61851],[-3.74975,1.06197]],[[246.23061,167.72447],[3.45481,-2.82523],[0.04162,0.13746]],[[245.97819,168.31908],[0.3331,-0.16655],[-0.20788,0.10394]],[[245.4995,168.30836],[0.11125,0.07366],[-0.11654,0.0905]],[[245.15454,168.57189],[0.11341,-0.0851],[0,0]],[[244.45454,168.47189],[0.3,0.4],[-0.3,-0.4]],[[244.55454,167.77189],[0,0],[0.1374,-0.103]],[[244.97195,167.45305],[-0.14084,0.10945],[-1.29766,-2.2214]],[[238.19312,163.56788],[2.60213,-0.06916],[-4.63177,-1.18107]],[[228.96796,168.20757],[1.83012,-4.58259],[0,0]],[[228.31802,168.48612],[0.46424,0.1857],[-0.07956,-0.03182]],[[228.1324,168.36984],[0.04559,0.04445],[-4.47017,-0.15569]],[[215.1464,161.80688],[4.77615,0.45447],[-5.78088,-0.87345]],[[198.64411,163.25168],[5.43966,-1.85476],[-5.61173,1.40515]],[[181.34809,169.95802],[4.75209,-3.53134],[-6.00449,2.40138]],[[171.09352,184.31921],[1.196,-6.01558],[-0.50043,2.50218]],[[170.79916,191.96199],[0.01771,-2.54816],[0,0]],[170.93799,192.50184],[[170.57418,193.10818],[0.48507,-0.12127],[-0.48507,0.12127]],[169.96784,192.74438],[[169.83994,192.22051],[0,0],[-0.0774,0.00395]],[[169.70703,192.21335],[0,0],[-5.35061,-1.08906]],[[157.31404,197.86011],[3.00838,-4.09525],[-1.74248,2.61447]],[[153.20748,205.79528],[0.96842,-2.84238],[0.00017,0.03896]],[[153.19452,205.92183],[0.0091,-0.04548],[-0.0212,0.10599]],[[153.08486,206.16424],[0.04894,-0.05793],[-0.1818,0.56104]],[[152.58927,207.89514],[0.14839,-0.59413],[0,0]],[152.6042,208.22389],[[152.1042,208.72389],[0.5,0],[-0.5,0]],[151.6042,208.22389],[[151.61913,207.6526],[0,0],[0.12434,-0.49686]],[[152.02722,206.1951],[-0.14759,0.47542],[-4.68838,-0.93421]],[[138.2933,206.75385],[4.81449,-1.60787],[-5.73645,1.43005]],[[126.27539,216.59167],[3.06191,-4.59286],[-2.4527,4.08534]],[[121.54966,231.2296],[0.01512,-4.8347],[-0.18177,0.82602]],[[121.08769,233.69643],[0.20272,-0.81781],[0,0]],[121.10262,233.87517],[[120.69547,234.36889],[0.40715,-0.05771],[-0.31233,0.19211]],[120.10086,234.27873],[[119.67679,233.85288],[0,0],[-1.2363,-0.95576]],[[116.96939,229.94625],[0.92408,1.26944],[-3.28202,-2.03073]],[[113.12696,242.33786],[0.37315,-1.84405],[-2.44459,4.71828]],[[104.77723,253.27333],[5.21118,-2.60559],[-1.36478,0.67538]],[[101.27687,255.03066],[0.969,-0.55334],[-0.77397,1.07293]],[[98.96935,258.35373],[0.76668,-1.15425],[0,0]],[98.85053,258.6],[[98.17971,258.82361],[0.44721,0.22361],[-0.03592,-0.01796]],[[98.08447,258.76575],[0.02773,0.0205],[-0.16744,0.58635]],[[97.74767,260.8107],[0.05712,-0.78546],[0.04997,0.01056]],[[97.90227,260.87631],[-0.05269,-0.03438],[0,0]],[98.37205,260.56313],[[99.06543,260.70181],[-0.27736,-0.41604],[0,0]],[[99.06547,260.70177],[0,0],[0.27736,0.41602]],[98.92679,261.39515],[98.42677,261.72851],[[97.88959,261.75029],[0.25464,0.16658],[0,0]],[[97.78027,261.83153],[0,0],[-0.02668,0.06459]],[[97.70347,262.02795],[0.02453,-0.06635],[-0.00015,0.03271]],[[97.70325,262.12659],[0,-0.03304],[0,0]],[[97.54956,262.5024],[0.1537,-0.14808],[-0.77106,2.72651]],[[97.48515,271.82407],[-0.00791,-2.70843],[0.15488,1.78016]],[[99.72917,278.37837],[-1.84016,-1.01884],[1.4471,0.80122]],[[105.12267,280.13131],[-0.8356,-1.64682],[0.10362,-0.04044]],[[105.76367,280.36773],[-0.1889,-0.3778],[0.2236,0.4472]],[105.54007,281.03855],[[105.33667,281.11157],[0,0],[-3.72964,3.67088]],[[94.38251,291.22525],[3.30138,-4.41416],[-3.63034,4.7842]],[[90.64895,308.42627],[0,-5.779],[0,5.5175]],[[92.81329,324.54453],[-0.1009,-5.21652],[0.83392,4.3991]],[[98.46779,336.47319],[-1.10438,-4.24574],[0,0]],[[98.10399,337.07953],[0.48506,-0.12126],[-0.48506,0.12126]],[[97.49765,336.71573],[0,0],[-0.7437,-3.13676]],[[93.06061,328.01733],[1.48934,2.92666],[0,0]],[[92.80719,328.23497],[0,0],[-0.5842,0.18786]],[[91.10359,328.57905],[0.59432,-0.15236],[0,0]],[[90.68427,328.50955],[0.18384,0.12838],[-4.4,1.67968]],[[83.99201,338.95135],[-0.04432,-4.95572],[0.92834,2.79024]],[[84.30859,347.73591],[-0.43136,-2.8703],[0.4676,3.1114]],[[87.40743,356.38825],[-0.93306,-2.79918],[2.76354,2.62876]],[[95.97403,360.51035],[-3.25936,-1.38724],[0.54258,0.23094]],[[98.29927,362.77979],[0.20896,-0.77618],[-0.09486,0.35236]],[[95.50277,365.17179],[0.39946,-0.40206],[-3.6574,3.61522]],[[94.11337,379.46671],[-1.72642,-4.28088],[1.61502,4.05946]],[[105.74599,389.39433],[-4.15466,-1.47774],[0.64324,0.66496]],[[111.55573,393.27885],[1.17594,-1.95748],[-1.08908,1.81288]],[[107.31653,397.32007],[0,-3.75804],[-0.02216,5.6225]],[[117.25101,401.37781],[-4.3569,2.95644],[4.24672,-1.71135]],[[127.74661,391.76933],[-1.94176,4.20543],[-0.09412,-0.05273]]],&quot;closed&quot;:true}]}" fill="#000000" stroke-width="0.5"/><path d="M256.8029,-0.35749c-0.96379,1.3168 -0.71841,5.17853 -0.87342,6.19834c-0.97971,2.2724 -1.34525,3.98676 -3.68352,5.28853c-0.29795,0.16777 -0.58271,0.32006 -0.84479,0.46719c0.4073,-0.60424 0.82551,-1.20508 1.25042,-1.83087c1.14832,-2.56448 0.17015,-4.65233 -0.06773,-7.29314c1.03681,-1.6453 2.34184,-2.54359 4.21904,-2.83005z" data-paper-data="{&quot;noHover&quot;:false,&quot;origItem&quot;:[&quot;Path&quot;,{&quot;applyMatrix&quot;:true,&quot;segments&quot;:[[[105.78221,234.97011],[2.26152,-3.25837],[0.2544,5.39709]],[[105.27896,249.63881],[2.56978,-5.11983],[-0.92257,1.23663]],[[102.57299,253.25981],[0.88473,-1.19432],[0.5481,-0.2765]],[[104.33001,252.37891],[-0.62316,0.31536],[4.88922,-2.44461]],[[112.18109,242.01332],[-2.19985,4.54005],[0.40592,-2.06249]],[[114.56139,229.57697],[-2.08362,2.59602],[-3.85867,0.41817]]],&quot;closed&quot;:true}]}" fill="#000000" stroke-width="0.5"/><path d="M259.6481,1.95644c0.65984,-0.02849 -9.51821,14.98646 -10.5903,14.75554c-0.04379,-0.00943 -0.17377,-1.66106 0.18099,-2.32847c0.43166,-0.81207 1.07131,-1.2822 1.73096,-2.24096c1.03986,-1.51136 1.95935,-3.08335 2.03287,-3.34368c0.20361,-0.72091 0.12004,-2.07033 0.18363,-2.20613c0.13809,-0.2949 -0.74575,-3.8844 -0.60641,-4.17423c0.0402,-0.08362 0.28951,-0.63052 0.69663,-1.11614c0.30505,-0.36387 0.70056,-0.65033 1.15299,-0.91734c1.36588,-0.8061 3.09934,-0.7497 3.16321,-0.81195c0.22597,-0.22025 2.00837,2.3854 2.05542,2.38337z" fill="#000000" stroke-width="0"/></g><path d="M292.18134,49.64862c0.36048,0.33178 0.02975,0.69339 0.02975,0.69339l-0.53091,0.57704c-2.97502,4.62035 -9.08579,0.29 -11.88501,-2.29412c-1.19602,-1.10411 -2.73254,-2.92404 -2.52995,-4.62202c-0.72286,2.59229 -5.77919,3.21508 -7.86879,2.37286c-2.46698,-0.99433 -2.33218,-5.05653 -1.22784,-7.43232c-0.73678,0.65061 -1.5207,1.23912 -2.39314,1.69127c-1.13985,0.58169 -4.12533,1.63804 -5.2527,0.42332c-0.40334,-0.43458 -0.47739,-2.50665 -0.53432,-3.10876c-0.28204,-2.98325 0.3595,-6.85784 2.04701,-9.34996c0,0 0.27643,-0.4049 0.68007,-0.1276c0.40364,0.2773 0.12721,0.6822 0.12721,0.6822c-1.57339,2.28331 -2.1395,5.96011 -1.88021,8.70271c0.03961,0.41898 0.05439,2.25873 0.29643,2.55491c0.63921,0.7822 3.4254,-0.31697 4.07071,-0.65052c1.01549,-0.51585 1.90734,-1.26153 2.73455,-2.0505l0.55287,-0.60449c0.08464,-0.09254 0.20448,-0.15269 0.33945,-0.15852c0.26994,-0.01166 0.49819,0.19841 0.50981,0.4692l0.03788,0.88271l-0.32477,0.01402c-0.27463,2.19403 -1.7218,5.0252 -0.07783,6.77284c2.53027,2.68985 6.45122,-1.23389 8.56971,-1.97634c1.4124,3.85859 3.86086,6.09292 7.52072,8.02549c1.81599,0.95893 4.48769,1.36371 5.70624,-0.8064l0.59186,-0.65057c0,0 0.33073,-0.36162 0.69123,-0.02985z" fill="#0068ce" stroke="none" stroke-width="0.5" stroke-linecap="butt"/><path d="M338.71537,28.77857c0.48579,0.06159 0.42549,0.54817 0.42549,0.54817l-0.01903,0.15366c-0.13194,1.00165 -0.51709,1.63315 -0.79709,2.57292c-0.86996,2.88034 -2.35205,7.88158 -6.51723,6.62934c-1.44552,-0.43458 -2.9995,-2.02494 -4.13007,-2.9809c-0.17654,-0.14928 -1.50392,-1.35844 -1.79778,-1.3467c-0.52143,0.02083 -0.55251,0.89027 -0.76072,1.36926c-2.80624,2.57615 -7.83962,4.75895 -11.05216,1.47702c-1.17388,-1.19923 -1.91531,-3.55269 -2.70915,-5.03961c0,0 -0.23113,-0.43292 0.20038,-0.66344c0.43151,-0.23052 0.66263,0.20239 0.66263,0.20239c0.74273,1.39117 1.46055,3.72767 2.56159,4.83282c2.75979,2.77011 7.13768,0.75618 9.54091,-1.38251c1.82453,-4.22023 5.28598,1.84727 7.76362,2.59217c3.47581,1.04499 4.61012,-3.68917 5.30085,-5.97607c0.26824,-0.87777 0.65638,-1.482 0.76262,-2.40986l0.01903,-0.15366c0,0 0.06029,-0.48659 0.54606,-0.425z" fill="#0068ce" stroke="none" stroke-width="0.5" stroke-linecap="butt"/><path d="M393.37779,24.7605l-0.46563,0.01841c-1.2223,0.04781 -2.15219,0.24178 -3.30452,0.62046c-2.86967,0.94305 -5.87084,0.76856 -8.80747,0.07073c-0.66563,-0.15817 -2.43305,-0.90225 -3.0334,-0.17198c-1.51101,1.83798 -0.88167,4.76627 -2.05706,6.81831c-0.41777,0.71924 -0.96155,2.15746 -1.59458,2.6801c-3.88146,3.20458 -10.71302,-1.45081 -13.44449,-4.20194c0,0 -0.34414,-0.3488 0.00358,-0.69402c0.34772,-0.34521 0.69185,0.00357 0.69185,0.00357c2.29163,2.33911 8.76299,6.95009 12.13731,4.12638c0.53179,-0.44502 1.00796,-1.80053 1.36092,-2.40821c1.24001,-2.09875 0.45852,-5.18746 2.22016,-7.02767c1.00727,-1.05219 2.79485,-0.35255 3.94144,-0.07957c2.76057,0.65725 5.58197,0.83727 8.27712,-0.04844c1.22967,-0.4041 2.26665,-0.61643 3.57061,-0.66848l0.46563,-0.01841c0,0 0.48885,-0.01932 0.5081,0.47105c0.01925,0.49037 -0.46959,0.50969 -0.46959,0.50969z" data-paper-data="{&quot;index&quot;:null}" fill="#0068ce" stroke="none" stroke-width="0.5" stroke-linecap="butt"/><path d="M303.23846,28.78165l-0.23227,0.24452c-1.26179,1.92728 -1.86778,3.11557 -4.09084,3.9082c-0.18716,0.06673 -1.88633,0.68096 -2.00563,0.68578c-5.48963,0.22141 -3.89954,-6.41031 -3.19435,-9.38821c0.31621,-1.33528 0.12846,-3.18439 0.61903,-4.50629l-0.01136,-0.00078c-1.65385,0.77987 -3.0602,1.24036 -4.91786,1.14352c-1.25662,-0.08985 -4.72748,-1.64273 -5.35563,-2.91414c-0.4867,-0.98513 0.0098,-2.65068 0.22022,-3.65367c0.51828,-2.47045 1.17267,-5.46445 2.59167,-7.56262c0,0 0.27643,-0.4049 0.68007,-0.1276c0.40364,0.2773 0.12721,0.6822 0.12721,0.6822c-1.35456,1.96282 -1.95475,4.88598 -2.44144,7.20998c-0.16317,0.77917 -0.64064,2.26298 -0.2907,3.03747c0.40048,0.88634 3.64186,2.31921 4.52206,2.34835c1.66855,0.09672 2.90887,-0.32714 4.39625,-1.02292l0.67735,-0.48557c0.07563,-0.05598 0.16813,-0.09074 0.2691,-0.0951c0.26994,-0.01166 0.49819,0.19841 0.50981,0.4692c0.00089,0.02074 0.00049,0.04122 -0.00115,0.06139l-0.06565,0.97214l-0.07243,-0.00492c0.0461,1.56615 -0.14354,3.15149 -0.50461,4.67622c-0.38854,1.64074 -1.58445,4.07716 -0.94208,5.80967c0.84143,2.26938 3.04801,2.38802 4.8624,1.7411c1.99576,-0.71159 2.44356,-1.75472 3.60071,-3.52217l0.32912,-0.36928c0,0 0.33073,-0.36162 0.69123,-0.02985c0.36048,0.33178 0.02975,0.69339 0.02975,0.69339z" data-paper-data="{&quot;index&quot;:null}" fill="#0068ce" stroke="none" stroke-width="0.5" stroke-linecap="butt"/><path d="M368.18168,0.78855l-0.46509,0.56894c-0.7998,0.97211 -1.28205,2.07215 -1.80148,3.21728c-2.05563,4.53047 -3.57028,8.36463 -9.26202,6.65155c-2.06925,-0.62279 -4.19083,-3.6937 -6.21067,-3.42543c-0.85402,1.60853 -0.94213,3.4593 -2.62508,4.48825c-1.63813,1.00154 -5.98705,0.55195 -7.03643,-1.214c-0.8204,-1.3806 -0.35961,-3.32631 -0.14411,-4.79236c0,0 0.07137,-0.48551 0.55535,-0.41391c0.48399,0.0716 0.41262,0.55709 0.41262,0.55709c-0.45657,3.10594 -0.46171,4.99563 3.12251,5.21032c0.85865,0.05143 1.79479,0.33094 2.56917,-0.17802c1.51936,-0.99858 1.62019,-3.00602 2.5963,-4.46936c3.63893,-0.72616 6.30722,4.5655 10.60692,3.84113c2.4269,-0.40886 3.6356,-4.70193 4.52489,-6.66185c0.55687,-1.22696 1.08428,-2.38577 1.93543,-3.43304l0.46509,-0.56895c0,0 0.31021,-0.37948 0.68851,-0.06831c0.3783,0.31118 0.06809,0.69066 0.06809,0.69066z" data-paper-data="{&quot;index&quot;:null}" fill="#0068ce" stroke="none" stroke-width="0.5" stroke-linecap="butt"/><path d="M361.47025,47.53299c0.43976,0.21504 0.2254,0.65617 0.2254,0.65617l-0.18569,0.38198c-0.77705,1.52348 -1.90079,4.7435 -3.11819,5.85666c-1.75496,1.60468 -4.94615,-0.42094 -6.43087,-1.44229c-0.2345,-0.3174 -1.26059,-1.38678 -1.73222,-1.31917c-0.49961,0.07162 0.03655,1.05567 -0.19339,1.50632c-0.54807,1.0742 -1.77271,2.91285 -2.83776,3.29507c-2.37895,0.85372 -6.24548,-0.03391 -6.55114,-2.72928c-1.36953,2.12926 -3.84485,7.27936 -6.92103,6.33743c-1.3268,-0.40626 -2.09225,-4.21111 -3.20059,-5.29653c0,0 -0.34941,-0.34349 -0.00698,-0.694c0.34243,-0.3505 0.69182,-0.00701 0.69182,-0.00701c1.05109,1.03694 1.62917,2.08225 2.16738,3.45318c0.01445,0.0368 0.37795,1.57071 0.67857,1.62042c2.57427,0.42562 4.66084,-4.29877 5.82388,-6.01755l0.29883,-0.87731c0.04631,-0.14036 0.15509,-0.2582 0.3052,-0.31009c0.24457,-0.08454 0.5102,0.03666 0.60964,0.27201l0.38908,0.89573l-0.26395,0.11537c0.39696,0.90972 0.85092,1.96117 0.8989,1.9906c0.49043,0.30094 1.16038,0.02046 1.71681,0.16554c2.83439,0.73903 3.99844,-0.10929 5.34511,-2.68854c0.29671,-0.5683 -0.06043,-1.57506 0.51558,-1.85378c0.95054,-0.45995 2.45242,0.80995 2.93775,1.42766c1.02121,0.68381 3.8749,2.59416 5.11091,1.42124c1.09954,-1.04341 2.17977,-4.14997 2.89472,-5.56696l0.17816,-0.36679c0,0 0.21435,-0.44114 0.65412,-0.22611z" fill="#0068ce" stroke="none" stroke-width="0.5" stroke-linecap="butt"/><path d="M354.37018,-22.36863c0.02104,0.4903 -0.46773,0.5114 -0.46773,0.5114l-0.21226,0.00232c-3.07289,0.63685 -7.71116,2.2624 -9.94354,-0.97592c-0.73016,-1.05918 -0.43252,-2.46726 -1.05451,-3.53043c0,0 -0.2374,-0.42909 0.19036,-0.66724c0.42777,-0.23814 0.66516,0.19095 0.66516,0.19095c0.56119,1.05632 0.31187,2.49146 1.00841,3.45529c1.97183,2.72851 6.28574,1.14876 8.92994,0.56745l0.37437,-0.02302c0,0 0.48877,-0.0211 0.50981,0.4692z" fill="#0068ce" stroke="none" stroke-width="0.5" stroke-linecap="butt"/><path d="M290.09337,-15.95761c0.48877,-0.0211 0.50981,0.4692 0.50981,0.4692l-0.11566,0.64712c-2.51172,2.74623 -10.28049,9.33795 -13.55544,3.70023c0,0 -0.2374,-0.42909 0.19035,-0.66724c0.42777,-0.23814 0.66516,0.19095 0.66516,0.19095c0.72863,1.41844 2.66568,1.37877 4.02676,1.32331c3.29608,-0.13433 5.90987,-2.97777 7.9522,-5.2108l-0.1409,0.05863c0,0 -0.02104,-0.4903 0.46773,-0.5114z" fill="#0068ce" stroke="none" stroke-width="0.5" stroke-linecap="butt"/><path d="M266.97663,68.51387c0.29684,0.39009 -0.09203,0.68786 -0.09203,0.68786l-0.76423,0.58519c-0.53189,0.40669 -1.08592,0.78574 -1.6575,1.13404c-3.84143,2.25097 -8.24984,-1.29495 -8.78279,-5.25189c-0.25328,-1.88054 -0.75045,-5.18934 1.42759,-5.48801c0,0 0.48877,-0.0211 0.50981,0.4692c0.02104,0.4903 -0.46773,0.5114 -0.46773,0.5114c-1.09065,-0.16415 -0.5767,2.50293 -0.53796,3.44029c0.14214,3.43876 3.61514,7.86049 7.3437,5.47979c0.5423,-0.32938 1.06756,-0.68876 1.5712,-1.07499l0.76423,-0.58518c0,0 0.38887,-0.29777 0.68572,0.09232z" fill="#0068ce" stroke="none" stroke-width="0.5" stroke-linecap="butt"/><path d="M388.71691,68.1207c-0.02104,-0.4903 0.46773,-0.5114 0.46773,-0.5114l0.29332,-0.01266c0.73308,-0.03165 1.87085,0.13659 2.55306,-0.13031c4.49484,-1.75852 2.83959,-6.35537 -0.51695,-8.18346c0,0 -0.42994,-0.23416 -0.19651,-0.66545c0.23343,-0.43128 0.66337,-0.19713 0.66337,-0.19713c4.02179,2.19041 5.71533,7.95988 0.39519,9.96447c-0.7968,0.30023 -2.00569,0.15576 -2.85608,0.19248l-0.29332,0.01266c0,0 -0.48877,0.0211 -0.50981,-0.4692z" fill="#0068ce" stroke="none" stroke-width="0.5" stroke-linecap="butt"/><path d="M320.17727,-6.18521c0.46773,0.14557 0.32352,0.61399 0.32352,0.61399l-0.14321,0.4485c-0.41577,2.58886 -1.60313,4.42791 -3.60363,6.062c-2.89163,1.38312 -7.73141,3.38568 -10.63885,0.68548c-1.36874,-1.27117 -1.67931,-4.15866 -2.44975,-5.77598c0,0 -0.21007,-0.44351 0.23201,-0.65305c0.44208,-0.20954 0.65215,0.23398 0.65215,0.23398c0.68973,1.46366 1.00668,4.33995 2.23011,5.47617c2.53134,2.35091 6.96673,0.36879 9.44936,-0.7958c1.76113,-1.45946 2.80374,-3.08917 3.16177,-5.3886l0.17459,-0.58383c0,0 0.1442,-0.46842 0.61193,-0.32286z" fill="#0068ce" stroke="none" stroke-width="0.5" stroke-linecap="butt"/><path d="" fill="#fffc4d" stroke="none" stroke-width="0.5" stroke-linecap="butt"/><path d="" fill="#fffc4d" stroke="none" stroke-width="0.5" stroke-linecap="butt"/><path d="" fill="#ff0000" stroke="none" stroke-width="0" stroke-linecap="butt"/><path d="" fill="#ffd71b" stroke="none" stroke-width="0" stroke-linecap="butt"/><path d="" fill="#ffd71b" stroke="none" stroke-width="0" stroke-linecap="butt"/><path d="" data-paper-data="{&quot;noHover&quot;:false,&quot;origItem&quot;:[&quot;Path&quot;,{&quot;applyMatrix&quot;:true,&quot;segments&quot;:[[[346.18268,379.48133],[-1.1094,1.6641],[0.56356,-0.84535]],[[348.01193,378.58342],[-0.55899,-0.07707],[1.1399,-4.16141]],[[354.09453,367.84108],[-2.97931,1.95356],[2.40736,-1.57853]],[[360.99871,366.40194],[-2.496,0.79651],[4.24935,-1.35603]],[[369.48793,354.1072],[0.45683,4.45909],[-2.40368,-4.09582]],[[355.56302,349.13312],[4.73676,-3.2069],[-1.4059,0.95183]],[[352.58325,354.12546],[1.01495,-1.34124],[-4.28625,5.66421]],[[344.56505,372.05386],[1.74927,-6.93588],[-0.33651,3.43046]],[[342.78462,382.1106],[0.33788,-3.42189],[0,0]],[341.55623,384.16105],[[338.8794,384.57456],[1.49846,1.05946],[-0.21198,0.09978]],[[338.51188,384.71323],[0,0],[-4.5453,0.93417]],[[325.39303,391.81164],[5.03731,-1.09246],[-2.91292,0.63174]],[[315.85618,392.40096],[2.98932,-0.32445],[-4.03654,0.43811]],[[305.69175,396.53848],[3.14112,-1.54282],[-2.57607,1.26528]],[[297.25862,399.37867],[2.68198,-1.3318],[-4.0287,0.95027]],[[287.43003,406.17151],[3.21091,-2.39545],[-2.1395,1.59614]],[[280.52122,410.37374],[1.90613,-1.90613],[-4.49685,4.49685]],[[272.28113,426.48703],[1.97871,-5.83306],[-1.74995,5.15872]],[[266.87388,441.04042],[1.10739,-5.53697],[-4.2612,17.06268]],[[256.55205,492.02548],[2.49902,-17.41133],[-0.02472,4.46099]],[[259.24462,509.01831],[-3.38204,-3.32092],[3.02034,2.96576]],[[270.77877,515.21714],[-3.69159,-1.86339],[9.64118,4.86654]],[[301.91013,525.64971],[-10.68054,-2.82459],[10.48346,2.01828]],[[333.8435,526.98135],[-10.65176,0],[12.25676,0]],[[370.56837,525.04188],[-12.03838,2.66624],[16.7914,-0.83948]],[[422.56072,508.22866],[-14.07625,9.52237],[4.39742,-2.97479]],[[432.81978,495.31703],[-2.89398,4.3155],[3.19234,-8.0025]],[[435.86996,472.0788],[-0.75309,8.40671],[1.03178,-11.5177]],[[432.19651,438.63924],[5.2613,10.45844],[-2.1356,-6.3817]],[[425.25077,420.92206],[3.51185,5.87689],[-2.5429,-4.2554]],[[415.50962,410.12895],[2.83113,3.92341],[-2.03785,-2.82408]],[[407.89734,402.47752],[3.12361,1.93053],[-4.16824,-2.57616]],[[395.09014,396.62289],[4.1297,2.46468],[-5.5243,-1.38107]],[[380.1205,389.08387],[5.36317,1.3477],[-6.63175,-1.66648]],[[360.15015,387.48573],[6.98975,0.78418],[-3.49247,-0.39182]],[[350.87898,384.16258],[2.95813,1.06325],[-0.1925,0.55808]],[[348.71225,385.4916],[1.42936,0.20419],[-1.9799,-0.28284]],[[347.0152,383.22886],[0,0],[0.03618,-0.23569]],[[347.13549,382.49558],[-0.04404,0.25276],[0,0]],[346.73738,382.25483]],&quot;closed&quot;:true}]}" fill="#99cd00" stroke="none" stroke-width="0.5" stroke-linecap="butt"/><path d="" data-paper-data="{&quot;noHover&quot;:false,&quot;origItem&quot;:[&quot;Path&quot;,{&quot;applyMatrix&quot;:true,&quot;segments&quot;:[[[221.33019,611.96032],[0,0],[1.18796,10.06976]],[[221.36313,643.0381],[0,-10.14116],[-0.01082,0.80922]],[[222.37905,649.44242],[-0.56482,-0.07888],[5.94232,0.82974]],[[237.63571,645.59822],[-5.346,1.24482],[7.56656,-1.7619]],[[260.99541,644.82514],[-7.30032,1.89456],[4.3596,-1.1314]],[[272.87549,643.28868],[-4.61756,0],[24.25608,0]],[[345.64369,643.28868],[-24.25608,0],[23.68548,0]],[[415.76687,650.04322],[-23.68518,-0.01642],[24.93328,2.65318]],[[491.68123,650.79056],[-25.0784,0],[7.84098,0]],[[513.72735,647.84332],[-7.36778,1.58762],[4.31242,-0.92924]],[[528.18835,647.78982],[-4.37994,0],[8.21388,0]],[[554.11037,647.94956],[-8.31786,-1.25608],[0,0]],[[553.75807,647.47264],[0,0],[-3.64264,-8.9295]],[[542.62191,621.33624],[2.6925,9.41838],[0,0]],[[542.56007,620.50168],[-0.0443,0.46308],[-0.1097,-0.35806]],[542.45035,619.85488],[[542.59341,619.75484],[0,0],[-1.77544,-4.49932]],[[539.13807,606.00906],[1.5284,4.46762],[-1.57736,-9.47816]],[[534.49709,578.17342],[2.16912,9.28794],[-1.10928,-4.74978]],[[529.36527,563.32176],[3.07118,3.97394],[0,0]],[[529.76527,560.52176],[-1.6,1.2],[0.01434,-0.01076]],[[529.80819,560.49016],[-0.01428,0.0103],[0.00188,-5.27972]],[[528.97029,544.70482],[-0.0112,5.32368],[-2.1504,-15.0527]],[[523.48693,499.47222],[0,15.39796],[0,0]],[[523.51493,499.17968],[-0.028,0.17636],[-0.15884,-0.19934]],[523.27667,498.82148],[[522.67131,497.41302],[0,0],[-0.92562,-5.5573]],[[520.57315,480.60606],[0.96248,5.50956],[-0.46928,-2.68624]],[[518.85143,473.4853],[0.0365,2.9397],[0,-14.52902]],[[519.69329,430.11106],[-0.03184,14.52712],[0,0]],[[519.27285,428.95634],[0,0],[0,-9.2368]],[[518.85827,401.30828],[-0.0265,9.18612],[-1.61258,-9.5129]],[[518.01837,372.68454],[0.86174,9.55806],[-0.44782,-4.96704]],[[515.51167,357.93596],[0.26216,4.96814],[0,0]],[[515.48019,357.8786],[0,0],[0.01976,-7.71342]],[[512.54005,334.89814],[1.48228,7.57258],[-0.01242,-9.1038]],[[508.32305,307.4744],[0.83256,9.1176],[-0.55138,-6.03826]],[[509.15327,289.59048],[-0.09852,5.94608],[0,0]],[[507.71657,287.75662],[0,0],[-2.98888,-8.91986]],[[498.83211,261.14078],[4.23272,8.6159],[-1.09152,-2.22188]],[[496.43565,255.04688],[1.52644,1.908],[-4.8944,-8.1382]],[[478.43733,239.57704],[7.71112,5.17192],[-4.29644,-2.88168]],[[465.67029,231.31364],[4.82126,2.19022],[-3.04232,-1.38209]],[[454.91642,226.43968],[3.65797,1.02479],[-7.70686,8.1729]],[[446.76641,259.57135],[1.99884,-10.65051],[0.23136,0.48694]],[446.99777,260.53312],[[446.99777,261.79734],[0,0],[0,8.20738]],[[451.95003,285.6006],[-3.24678,-7.50312],[1.50468,5.9756]],[[458.62347,300.173],[-2.44922,-5.26098],[2.68528,5.76808]],[[465.73275,318.60222],[-2.84728,-5.87724],[1.7803,3.67484]],[[474.70509,325.41452],[-2.9172,-2.2298],[0.99196,0.75824]],[[477.31917,328.0972],[-0.02184,-1.24838],[0.02664,1.523]],[[474.81887,331.92222],[0.83344,-1.275],[-14.04556,-1.20128]],[[432.70209,318.03136],[11.5827,8.03308],[0,0]],[[431.59873,317.75916],[0,0],[-9.92948,-7.45294]],[[402.28937,293.02182],[10.66306,6.29984],[-10.6143,-6.07522]],[[386.13435,262.78192],[0.97348,11.67922],[-0.39118,-4.69316]],[[385.70791,248.73362],[-0.02366,4.72596],[0.00172,-0.34318]],[[385.68947,247.38052],[-0.00106,0.50614],[-11.34958,7.02846]],[[354.42029,272.1936],[10.29542,-8.4106],[-5.94694,4.85822]],[[335.32497,285.77802],[6.27764,-4.4837],[-6.36068,4.2389]],[[314.84215,297.87798],[7.63564,-1.78408],[-5.64176,1.31822]],[[297.10485,297.51008],[5.78226,0],[-5.31998,0]],[[281.44501,295.18376],[4.71328,2.74608],[-6.09492,-2.6052]],[[263.76187,286.7637],[5.90316,2.97586],[-1.73494,-0.8746]],[[256.37617,283.72538],[1.1854,1.45742],[-1.77252,-2.17926]],[[257.08689,275.02426],[-1.40602,2.05674],[3.62346,-5.30046]],[[273.65417,266.03734],[-4.84858,3.69358],[4.42616,-2.65838]],[[286.22761,256.81298],[-3.24804,4.11838],[2.63124,-3.33628]],[[290.15057,240.51646],[1.32478,4.2424],[-1.05118,-3.36626]],[[280.91155,233.37344],[3.8945,1.39282],[1.0271,1.07764]],[[281.04235,235.79552],[0,0],[-6.38706,9.32508]],[[256.88315,259.25234],[7.28458,-8.61874],[-3.07222,3.63488]],[[250.28465,271.80452],[2.66882,-4.0151],[-2.95752,4.3673]],[[245.28343,285.52826],[1.54184,-4.70384],[-3.76512,11.48654]],[[237.78761,321.51686],[3.00796,-12.03186],[-5.78958,16.72838]],[[233.36625,374.9712],[0,-17.5994],[0,20.25506]],[[233.36625,435.7364],[0,-20.25506],[0,5.9887]],[[234.08407,453.4217],[-0.14384,-5.9486],[0.03238,0.19122]],[234.11645,453.7409],[[234.11645,458.24204],[0,0],[0,0.60852]],[[233.41589,459.76244],[0.42878,-0.36682],[0.1766,6.43228]],[[233.35655,479.1943],[0.78274,-6.24032],[-0.67576,5.38742]],[[228.76251,493.88324],[1.85264,-4.6309],[-0.73542,1.83828]],[[228.09997,501.74722],[0.53112,-2.1245],[-0.04642,1.69442]],[[226.52877,506.58354],[0.49122,-1.62232],[-2.04146,6.74218]],[[225.83857,528.82996],[1.15166,-7.02178],[-1.60248,9.77046]],[[220.60335,557.96398],[1.97636,-9.75194],[0,5.4645]],[[218.33669,573.84122],[0.91122,-5.25924],[-0.74118,4.27784]],[[218.33565,587.66186],[-0.13878,-4.50386],[1.16104,0.78548]],[219.01005,589.90724],[[218.40807,591.71318],[0,0],[0.3106,6.76616]],[[221.33031,611.96044],[-0.79476,-6.7368],[0,0]]],&quot;closed&quot;:true}]}" fill="#52402d" stroke="none" stroke-width="0.5" stroke-linecap="butt"/><path d="" data-paper-data="{&quot;noHover&quot;:false,&quot;origItem&quot;:[&quot;Path&quot;,{&quot;applyMatrix&quot;:true,&quot;segments&quot;:[[[221.33019,611.96032],[0,0],[1.18796,10.06976]],[[221.36313,643.0381],[0,-10.14116],[-0.01082,0.80922]],[[222.37905,649.44242],[-0.56482,-0.07888],[5.94232,0.82974]],[[237.63571,645.59822],[-5.346,1.24482],[7.56656,-1.7619]],[[260.99541,644.82514],[-7.30032,1.89456],[4.3596,-1.1314]],[[272.87549,643.28868],[-4.61756,0],[24.25608,0]],[[345.64369,643.28868],[-24.25608,0],[23.68548,0]],[[415.76687,650.04322],[-23.68518,-0.01642],[24.93328,2.65318]],[[491.68123,650.79056],[-25.0784,0],[7.84098,0]],[[513.72735,647.84332],[-7.36778,1.58762],[4.31242,-0.92924]],[[528.18835,647.78982],[-4.37994,0],[8.21388,0]],[[554.11037,647.94956],[-8.31786,-1.25608],[0,0]],[[553.75807,647.47264],[0,0],[-3.64264,-8.9295]],[[542.62191,621.33624],[2.6925,9.41838],[0,0]],[[542.56007,620.50168],[-0.0443,0.46308],[-0.1097,-0.35806]],[542.45035,619.85488],[[542.59341,619.75484],[0,0],[-1.77544,-4.49932]],[[539.13807,606.00906],[1.5284,4.46762],[-1.57736,-9.47816]],[[534.49709,578.17342],[2.16912,9.28794],[-1.10928,-4.74978]],[[529.36527,563.32176],[3.07118,3.97394],[0,0]],[[529.76527,560.52176],[-1.6,1.2],[0.01434,-0.01076]],[[529.80819,560.49016],[-0.01428,0.0103],[0.00188,-5.27972]],[[528.97029,544.70482],[-0.0112,5.32368],[-2.1504,-15.0527]],[[523.48693,499.47222],[0,15.39796],[0,0]],[[523.51493,499.17968],[-0.028,0.17636],[-0.15884,-0.19934]],[523.27667,498.82148],[[522.67131,497.41302],[0,0],[-0.92562,-5.5573]],[[520.57315,480.60606],[0.96248,5.50956],[-0.46928,-2.68624]],[[518.85143,473.4853],[0.0365,2.9397],[0,-14.52902]],[[519.69329,430.11106],[-0.03184,14.52712],[0,0]],[[519.27285,428.95634],[0,0],[0,-9.2368]],[[518.85827,401.30828],[-0.0265,9.18612],[-1.61258,-9.5129]],[[518.01837,372.68454],[0.86174,9.55806],[-0.44782,-4.96704]],[[515.51167,357.93596],[0.26216,4.96814],[0,0]],[[515.48019,357.8786],[0,0],[0.01976,-7.71342]],[[512.54005,334.89814],[1.48228,7.57258],[-0.01242,-9.1038]],[[508.32305,307.4744],[0.83256,9.1176],[-0.55138,-6.03826]],[[509.15327,289.59048],[-0.09852,5.94608],[0,0]],[[507.71657,287.75662],[0,0],[-2.98888,-8.91986]],[[498.83211,261.14078],[4.23272,8.6159],[-1.09152,-2.22188]],[[496.43565,255.04688],[1.52644,1.908],[-4.8944,-8.1382]],[[478.43733,239.57704],[7.71112,5.17192],[-4.29644,-2.88168]],[[465.67029,231.31364],[4.82126,2.19022],[-3.04232,-1.38209]],[[454.91642,226.43968],[3.65797,1.02479],[-7.70686,8.1729]],[[446.76641,259.57135],[1.99884,-10.65051],[0.23136,0.48694]],[446.99777,260.53312],[[446.99777,261.79734],[0,0],[0,8.20738]],[[451.95003,285.6006],[-3.24678,-7.50312],[1.50468,5.9756]],[[458.62347,300.173],[-2.44922,-5.26098],[2.68528,5.76808]],[[465.73275,318.60222],[-2.84728,-5.87724],[1.7803,3.67484]],[[474.70509,325.41452],[-2.9172,-2.2298],[0.99196,0.75824]],[[477.31917,328.0972],[-0.02184,-1.24838],[0.02664,1.523]],[[474.81887,331.92222],[0.83344,-1.275],[-14.04556,-1.20128]],[[432.70209,318.03136],[11.5827,8.03308],[0,0]],[[431.59873,317.75916],[0,0],[-9.92948,-7.45294]],[[402.28937,293.02182],[10.66306,6.29984],[-10.6143,-6.07522]],[[386.13435,262.78192],[0.97348,11.67922],[-0.39118,-4.69316]],[[385.70791,248.73362],[-0.02366,4.72596],[0.00172,-0.34318]],[[385.68947,247.38052],[-0.00106,0.50614],[-11.34958,7.02846]],[[354.42029,272.1936],[10.29542,-8.4106],[-5.94694,4.85822]],[[335.32497,285.77802],[6.27764,-4.4837],[-6.36068,4.2389]],[[314.84215,297.87798],[7.63564,-1.78408],[-5.64176,1.31822]],[[297.10485,297.51008],[5.78226,0],[-5.31998,0]],[[281.44501,295.18376],[4.71328,2.74608],[-6.09492,-2.6052]],[[263.76187,286.7637],[5.90316,2.97586],[-1.73494,-0.8746]],[[256.37617,283.72538],[1.1854,1.45742],[-1.77252,-2.17926]],[[257.08689,275.02426],[-1.40602,2.05674],[3.62346,-5.30046]],[[273.65417,266.03734],[-4.84858,3.69358],[4.42616,-2.65838]],[[286.22761,256.81298],[-3.24804,4.11838],[2.63124,-3.33628]],[[290.15057,240.51646],[1.32478,4.2424],[-1.05118,-3.36626]],[[280.91155,233.37344],[3.8945,1.39282],[1.0271,1.07764]],[[281.04235,235.79552],[0,0],[-6.38706,9.32508]],[[256.88315,259.25234],[7.28458,-8.61874],[-3.07222,3.63488]],[[250.28465,271.80452],[2.66882,-4.0151],[-2.95752,4.3673]],[[245.28343,285.52826],[1.54184,-4.70384],[-3.76512,11.48654]],[[237.78761,321.51686],[3.00796,-12.03186],[-5.78958,16.72838]],[[233.36625,374.9712],[0,-17.5994],[0,20.25506]],[[233.36625,435.7364],[0,-20.25506],[0,5.9887]],[[234.08407,453.4217],[-0.14384,-5.9486],[0.03238,0.19122]],[234.11645,453.7409],[[234.11645,458.24204],[0,0],[0,0.60852]],[[233.41589,459.76244],[0.42878,-0.36682],[0.1766,6.43228]],[[233.35655,479.1943],[0.78274,-6.24032],[-0.67576,5.38742]],[[228.76251,493.88324],[1.85264,-4.6309],[-0.73542,1.83828]],[[228.09997,501.74722],[0.53112,-2.1245],[-0.04642,1.69442]],[[226.52877,506.58354],[0.49122,-1.62232],[-2.04146,6.74218]],[[225.83857,528.82996],[1.15166,-7.02178],[-1.60248,9.77046]],[[220.60335,557.96398],[1.97636,-9.75194],[0,5.4645]],[[218.33669,573.84122],[0.91122,-5.25924],[-0.74118,4.27784]],[[218.33565,587.66186],[-0.13878,-4.50386],[1.16104,0.78548]],[219.01005,589.90724],[[218.40807,591.71318],[0,0],[0.3106,6.76616]],[[221.33031,611.96044],[-0.79476,-6.7368],[0,0]]],&quot;closed&quot;:true}]}" fill="#52402d" stroke="none" stroke-width="0.5" stroke-linecap="butt"/><path d="" fill="#000000" stroke="none" stroke-width="0.5" stroke-linecap="butt"/><path d="" fill="none" stroke="#000000" stroke-width="0.5" stroke-linecap="round"/><path d="" fill="none" stroke="#000000" stroke-width="0.5" stroke-linecap="round"/><path d="" fill="none" stroke="#000000" stroke-width="0.5" stroke-linecap="round"/><path d="" fill="none" stroke="#000000" stroke-width="0.5" stroke-linecap="round"/><path d="" fill="none" stroke="#000000" stroke-width="0.5" stroke-linecap="round"/><path d="" fill="none" stroke="#000000" stroke-width="0.5" stroke-linecap="round"/><path d="" fill="none" stroke="#000000" stroke-width="0.5" stroke-linecap="round"/><path d="" fill="none" stroke="#000000" stroke-width="0.5" stroke-linecap="round"/><path d="M262.48489,90.32109c0,0 -2.1862,-4.57839 -2.1862,-7.07644c0,-2.81147 2.1862,-8.9635 2.1862,-8.9635h122.86398c0,0 3.06067,4.57839 3.06067,7.07644c0,2.81147 -3.06067,8.9635 -3.06067,8.9635z" fill="#e50d00" stroke="none" stroke-width="0" stroke-linecap="butt"/><path d="M260.41326,84.39487l19.80669,-0.43058" fill="none" stroke="#000000" stroke-width="0.5" stroke-linecap="round"/><path d="M291.98913,80.37613l-24.6866,0.43058" fill="none" stroke="#000000" stroke-width="0.5" stroke-linecap="round"/><path d="M388.04904,80.23258l-24.54307,0.28705" fill="none" stroke="#000000" stroke-width="0.5" stroke-linecap="round"/><path d="M383.06032,84.50369l-17.22321,-0.14352" fill="none" stroke="#000000" stroke-width="0.5" stroke-linecap="round"/><path d="M254.79396,129.68398c0,0 -4.94958,0.01116 -7.46314,-2.83134c-1.21898,-1.3785 -2.58814,-3.01704 -2.94451,-5.15683c-0.31969,-1.91952 -0.49499,-4.09004 -0.0562,-5.71375c-0.46486,-1.61834 4.05952,-6.1646 4.70113,-6.46274c1.14975,-0.53425 3.66488,-1.55863 5.05012,-2.11706c0.34028,-0.13717 1.88039,-0.24622 2.54501,-0.313c0.13516,-0.01358 0.19033,-2.82066 0.91239,-3.96283c0.35045,-0.55436 0.42614,-2.02728 0.85725,-2.56324c0.1453,-0.18063 0.64145,-1.5433 1.76874,-2.41632c1.13465,-0.87872 2.90106,-1.26684 3.22862,-1.14292c0.58763,0.2223 1.38506,0.80865 1.53994,1.41582c0.14861,0.58264 0.23421,1.26285 0.27301,1.99516c0.02447,0.46172 -1.13641,3.4443 -1.14508,3.93606c-0.04091,2.31926 0.03031,4.04189 0.08792,4.99216c0.02604,0.42935 1.83621,4.0196 2.62167,5.55962c0.16492,0.32336 -0.47806,4.84669 -0.80122,7.032c-0.08932,0.60397 1.86936,12.25091 2.42826,15.55138c0.04218,0.24906 -0.11125,1.54665 -0.74499,2.61422c-0.3705,0.62413 -1.17944,1.00507 -1.48381,1.48729c-0.21311,0.33764 -3.36953,1.43902 -6.32314,-0.29917c-1.1391,-0.67036 -2.85603,-3.43502 -3.5633,-4.63146c-0.20225,-0.34214 -0.48862,-6.72305 -0.48862,-6.72305z" fill="#000000" stroke="#0068ce" stroke-width="0.5" stroke-linecap="round"/><path d="M391.03057,131.58554c0,0 -0.28637,6.38091 -0.48862,6.72305c-0.70727,1.19644 -2.4242,3.9611 -3.5633,4.63146c-2.95361,1.73819 -6.11003,0.63681 -6.32314,0.29917c-0.30437,-0.48222 -1.11331,-0.86316 -1.48381,-1.48729c-0.63374,-1.06757 -1.38721,-3.66525 -1.34503,-3.91431c0.5589,-3.30047 3.11762,-13.64732 3.0283,-14.25129c-0.32316,-2.18531 -0.96614,-6.70864 -0.80122,-7.032c0.78546,-1.54002 4.5891,-14.80029 4.73771,-15.38292c0.15488,-0.60717 -0.14776,-3.49367 0.43987,-3.71597c0.32756,-0.12392 0.59387,-0.03582 1.72852,0.8429c1.12729,0.87302 1.22341,2.3357 1.36871,2.51632c0.43111,0.53596 0.60681,2.60892 0.95726,3.16328c0.72206,1.14217 0.17719,3.1492 0.31235,3.16278c0.66462,0.06678 4.8049,0.97588 5.14518,1.11305c1.38524,0.55843 2.90031,1.78283 4.05006,2.31708c0.64161,0.29814 4.16592,5.44444 3.70106,7.06278c0.43879,1.62371 0.26349,3.79423 -0.0562,5.71375c-0.35637,2.13979 -1.72553,3.77833 -2.94451,5.15683c-2.51356,2.8425 -7.46314,2.83134 -7.46314,2.83134z" data-paper-data="{&quot;index&quot;:null}" fill="#000000" stroke="#0068ce" stroke-width="0.5" stroke-linecap="round"/></g></g></svg>